<?xml version="1.0" encoding="us-ascii" standalone="no"?><svg xmlns="http://www.w3.org/2000/svg" xmlns:xlink="http://www.w3.org/1999/xlink" contentStyleType="text/css" height="490.2px" preserveAspectRatio="none" style="width:499px;height:490px;background:#FFFFFF;" version="1.1" viewBox="0 0 499 490" width="499.2px" zoomAndPan="magnify"><defs/><g><polygon fill="#FFFFFF" points="131.7,72.9199,131.7,72.962,132.9,72.8371,134.1,72.9586,135.3,72.9999,136.5,72.7772,137.7,72.9199,137.6534,72.9199,137.4441,78.9047,137.4699,84.8895,137.6591,90.8743,137.2852,96.8591,138.0322,102.8439,137.3218,108.8286,137.5813,114.8134,137.9592,120.7982,137.6485,126.783,137.7409,132.7678,137.6808,138.7526,137.8071,144.7374,137.8435,150.7221,138.0514,156.7069,138.1026,162.6917,138.1076,168.6765,137.8528,174.6613,137.9782,180.6461,138.1213,186.6309,137.2673,192.6156,138.1071,198.6004,137.5221,204.5852,138.0203,210.57,137.403,216.5548,137.6589,222.5396,138.145,228.5244,137.6708,234.5091,137.7632,240.4939,137.9032,246.4787,137.9497,252.4635,137.6977,258.4483,137.8723,264.4331,137.3565,270.4179,137.8706,276.4026,138.0289,282.3874,137.9667,288.3722,138.0678,294.357,137.4102,300.3418,137.3087,306.3266,137.3272,312.3114,137.6647,318.2961,137.5821,324.2809,138.1088,330.2657,137.5952,336.2505,137.4942,342.2353,137.837,348.2201,137.2999,354.2049,137.3885,360.1896,138.0894,366.1744,137.9614,372.1592,138.1407,378.144,137.5069,384.1288,137.8915,390.1136,138.0543,396.0984,137.4166,402.0831,137.6425,408.0679,137.7756,414.0527,137.7,420.0375,137.7,420.1679,136.5,420.0367,135.3,420.13,134.1,419.9267,132.9,419.902,131.7,420.0375,132.0022,420.0375,131.2698,414.0527,132.0054,408.0679,131.824,402.0831,131.5392,396.0984,131.4877,390.1136,131.9753,384.1288,131.5204,378.144,132.0551,372.1592,131.3684,366.1744,132.0705,360.1896,131.9906,354.2049,131.847,348.2201,131.7283,342.2353,132.136,336.2505,132.0681,330.2657,131.8016,324.2809,131.8609,318.2961,131.6218,312.3114,132.1299,306.3266,131.7929,300.3418,131.8035,294.357,131.335,288.3722,131.4569,282.3874,132.0184,276.4026,131.9579,270.4179,131.6742,264.4331,131.5067,258.4483,131.5686,252.4635,131.2883,246.4787,131.9488,240.4939,132.1437,234.5091,132.0158,228.5244,132.117,222.5396,131.618,216.5548,131.7523,210.57,131.4674,204.5852,131.8704,198.6004,131.8481,192.6156,132.0314,186.6309,131.5622,180.6461,131.6194,174.6613,131.9661,168.6765,132.0404,162.6917,131.3925,156.7069,131.5837,150.7221,131.7896,144.7374,131.3335,138.7526,131.912,132.7678,131.8548,126.783,131.6395,120.7982,131.7853,114.8134,132.1372,108.8286,131.5123,102.8439,131.889,96.8591,131.8714,90.8743,131.7695,84.8895,131.7846,78.9047,131.7,72.9199" style="stroke:#181818;stroke-width:0.6;"/><polygon fill="#FFFFFF" points="267.3,148.0184,267.3,148.0604,268.5,147.9355,269.7,148.057,270.9,148.0983,272.1,147.8757,273.3,148.0184,273.2534,148.0184,273.0441,154.1095,273.0699,160.2006,273.2591,166.2917,272.8852,172.3828,273.6322,178.4739,272.9218,184.565,273.1813,190.6562,273.5592,196.7473,273.2485,202.8384,273.3409,208.9295,273.2808,215.0206,273.4071,221.1117,273.4435,227.2028,273.6514,233.2939,273.7026,239.3851,273.7076,245.4762,273.4528,251.5673,273.5782,257.6584,273.7213,263.7495,273.3,269.8406,273.3,269.6964,272.1,269.9763,270.9,269.7813,269.7,269.9474,268.5,269.7416,267.3,269.8406,267.2589,269.8406,267.745,263.7495,267.2708,257.6584,267.3632,251.5673,267.5032,245.4762,267.5497,239.3851,267.2977,233.2939,267.4723,227.2028,266.9565,221.1117,267.4706,215.0206,267.6289,208.9295,267.5667,202.8384,267.6678,196.7473,267.0102,190.6562,266.9087,184.565,266.9272,178.4739,267.2647,172.3828,267.1821,166.2917,267.7088,160.2006,267.1952,154.1095,267.3,148.0184" style="stroke:#181818;stroke-width:0.6;"/><polygon fill="#FFFFFF" points="267.3,326.1645,267.3,326.2065,268.5,326.0816,269.7,326.2031,270.9,326.2444,272.1,326.0218,273.3,326.1645,273.2534,326.1645,273.0441,331.9413,273.0699,337.7181,273.2591,343.4949,272.8852,349.2717,273.6322,355.0485,272.9218,360.8253,273.1813,366.6021,273.5592,372.3789,273.2485,378.1557,273.3409,383.9325,273.2808,389.7093,273.4071,395.4861,273.3,401.2629,273.3,401.3107,272.1,401.38,270.9,401.3971,269.7,401.3987,268.5,401.3138,267.3,401.2629,267.5782,401.2629,267.7213,395.4861,266.8673,389.7093,267.7071,383.9325,267.1221,378.1557,267.6203,372.3789,267.003,366.6021,267.2589,360.8253,267.745,355.0485,267.2708,349.2717,267.3632,343.4949,267.5032,337.7181,267.5497,331.9413,267.3,326.1645" style="stroke:#181818;stroke-width:0.6;"/><polygon fill="#FFFFFF" points="458.4,232.2914,458.4,232.3334,459.6,232.2085,460.8,232.3301,462,232.3713,463.2,232.1487,464.4,232.2914,464.3845,232.2914,464.3147,236.0463,464.3233,239.8012,464.3864,243.5562,464.2617,247.3111,464.4,251.066,464.4,251.1767,463.2,250.94,462,251.0265,460.8,251.1524,459.6,251.0489,458.4,251.066,458.4136,251.066,458.3936,247.3111,458.4357,243.5562,458.4478,239.8012,458.5171,236.0463,458.4,232.2914" style="stroke:#181818;stroke-width:0.6;"/><polygon fill="#FFFFFF" points="458.4,363.7137,458.4,363.7557,459.6,363.6308,460.8,363.7523,462,363.7936,463.2,363.571,464.4,363.7137,464.3845,363.7137,464.3147,367.4686,464.3233,371.2235,464.3864,374.9784,464.2617,378.7334,464.4,382.4883,464.4,382.599,463.2,382.3622,462,382.4487,460.8,382.5747,459.6,382.4711,458.4,382.4883,458.4136,382.4883,458.3936,378.7334,458.4357,374.9784,458.4478,371.2235,458.5171,367.4686,458.4,363.7137" style="stroke:#181818;stroke-width:0.6;"/><path d="M19.2,52.9453 L19.3681,52.9453 L18.8685,58.9436 L19.3546,64.9419 L19.5197,70.9402 L18.6293,76.9385 L19.1378,82.9368 L18.8588,88.935 L18.8932,94.9333 L19.1455,100.9316 L18.6469,106.9299 L19.6429,112.9282 L18.6958,118.9265 L19.0418,124.9248 L19.5456,130.9231 L19.1314,136.9214 L19.2546,142.9196 L19.1744,148.9179 L19.3428,154.9162 L19.3913,160.9145 L19.6686,166.9128 L19.7368,172.9111 L19.7434,178.9094 L19.4037,184.9077 L19.5709,190.906 L19.7618,196.9042 L18.6231,202.9025 L19.7428,208.9008 L18.9628,214.8991 L19.627,220.8974 L18.804,226.8957 L19.1452,232.894 L19.7933,238.8923 L19.161,244.8906 L19.2842,250.8888 L19.4709,256.8871 L19.533,262.8854 L19.1969,268.8837 L19.4298,274.882 L18.7421,280.8803 L19.4275,286.8786 L19.6386,292.8769 L19.5556,298.8751 L19.6904,304.8734 L18.8135,310.8717 L18.6783,316.87 L18.7029,322.8683 L19.1529,328.8666 L19.0428,334.8649 L19.7451,340.8632 L19.0603,346.8615 L18.9256,352.8597 L19.3826,358.858 L18.6665,364.8563 L18.7847,370.8546 L19.7192,376.8529 L19.5485,382.8512 L19.7876,388.8495 L18.9426,394.8478 L19.4554,400.8461 L19.6723,406.8443 L18.8221,412.8426 L19.1233,418.8409 L19.3008,424.8392 L19.2,430.8375 " fill="none" style="stroke:#181818;stroke-width:0.3;stroke-dasharray:5.0,5.0;"/><path d="M134.7,52.9453 L134.8681,52.9453 L134.3685,58.9436 L134.8546,64.9419 L135.0197,70.9402 L134.1293,76.9385 L134.6378,82.9368 L134.3588,88.935 L134.3932,94.9333 L134.6455,100.9316 L134.1469,106.9299 L135.1429,112.9282 L134.1958,118.9265 L134.5418,124.9248 L135.0456,130.9231 L134.6314,136.9214 L134.7546,142.9196 L134.6744,148.9179 L134.8428,154.9162 L134.8913,160.9145 L135.1686,166.9128 L135.2368,172.9111 L135.2434,178.9094 L134.9037,184.9077 L135.0709,190.906 L135.2618,196.9042 L134.1231,202.9025 L135.2428,208.9008 L134.4628,214.8991 L135.127,220.8974 L134.304,226.8957 L134.6452,232.894 L135.2933,238.8923 L134.661,244.8906 L134.7842,250.8888 L134.9709,256.8871 L135.033,262.8854 L134.6969,268.8837 L134.9298,274.882 L134.2421,280.8803 L134.9275,286.8786 L135.1386,292.8769 L135.0556,298.8751 L135.1904,304.8734 L134.3135,310.8717 L134.1783,316.87 L134.2029,322.8683 L134.6529,328.8666 L134.5428,334.8649 L135.2451,340.8632 L134.5603,346.8615 L134.4256,352.8597 L134.8826,358.858 L134.1665,364.8563 L134.2847,370.8546 L135.2192,376.8529 L135.0485,382.8512 L135.2876,388.8495 L134.4426,394.8478 L134.9554,400.8461 L135.1723,406.8443 L134.3221,412.8426 L134.6233,418.8409 L134.8008,424.8392 L134.7,430.8375 " fill="none" style="stroke:#181818;stroke-width:0.3;stroke-dasharray:5.0,5.0;"/><path d="M270.3,52.9453 L270.4681,52.9453 L269.9685,58.9436 L270.4546,64.9419 L270.6197,70.9402 L269.7293,76.9385 L270.2378,82.9368 L269.9588,88.935 L269.9932,94.9333 L270.2455,100.9316 L269.7469,106.9299 L270.7429,112.9282 L269.7958,118.9265 L270.1418,124.9248 L270.6456,130.9231 L270.2314,136.9214 L270.3546,142.9196 L270.2744,148.9179 L270.4428,154.9162 L270.4913,160.9145 L270.7686,166.9128 L270.8368,172.9111 L270.8434,178.9094 L270.5037,184.9077 L270.6709,190.906 L270.8618,196.9042 L269.7231,202.9025 L270.8428,208.9008 L270.0628,214.8991 L270.727,220.8974 L269.904,226.8957 L270.2452,232.894 L270.8933,238.8923 L270.261,244.8906 L270.3842,250.8888 L270.5709,256.8871 L270.633,262.8854 L270.2969,268.8837 L270.5298,274.882 L269.8421,280.8803 L270.5275,286.8786 L270.7386,292.8769 L270.6556,298.8751 L270.7904,304.8734 L269.9135,310.8717 L269.7783,316.87 L269.8029,322.8683 L270.2529,328.8666 L270.1428,334.8649 L270.8451,340.8632 L270.1603,346.8615 L270.0256,352.8597 L270.4826,358.858 L269.7665,364.8563 L269.8847,370.8546 L270.8192,376.8529 L270.6485,382.8512 L270.8876,388.8495 L270.0426,394.8478 L270.5554,400.8461 L270.7723,406.8443 L269.9221,412.8426 L270.2233,418.8409 L270.4008,424.8392 L270.3,430.8375 " fill="none" style="stroke:#181818;stroke-width:0.3;stroke-dasharray:5.0,5.0;"/><path d="M381.9,52.9453 L382.0681,52.9453 L381.5685,58.9436 L382.0546,64.9419 L382.2197,70.9402 L381.3293,76.9385 L381.8378,82.9368 L381.5588,88.935 L381.5932,94.9333 L381.8455,100.9316 L381.3469,106.9299 L382.3429,112.9282 L381.3958,118.9265 L381.7418,124.9248 L382.2456,130.9231 L381.8314,136.9214 L381.9546,142.9196 L381.8744,148.9179 L382.0428,154.9162 L382.0913,160.9145 L382.3686,166.9128 L382.4368,172.9111 L382.4434,178.9094 L382.1037,184.9077 L382.2709,190.906 L382.4618,196.9042 L381.3231,202.9025 L382.4428,208.9008 L381.6628,214.8991 L382.327,220.8974 L381.504,226.8957 L381.8452,232.894 L382.4933,238.8923 L381.861,244.8906 L381.9842,250.8888 L382.1709,256.8871 L382.233,262.8854 L381.8969,268.8837 L382.1298,274.882 L381.4421,280.8803 L382.1275,286.8786 L382.3386,292.8769 L382.2556,298.8751 L382.3904,304.8734 L381.5135,310.8717 L381.3783,316.87 L381.4029,322.8683 L381.8529,328.8666 L381.7428,334.8649 L382.4451,340.8632 L381.7603,346.8615 L381.6256,352.8597 L382.0826,358.858 L381.3665,364.8563 L381.4847,370.8546 L382.4192,376.8529 L382.2485,382.8512 L382.4876,388.8495 L381.6426,394.8478 L382.1554,400.8461 L382.3723,406.8443 L381.5221,412.8426 L381.8233,418.8409 L382.0008,424.8392 L381.9,430.8375 " fill="none" style="stroke:#181818;stroke-width:0.3;stroke-dasharray:5.0,5.0;"/><path d="M461.1,52.9453 L461.2681,52.9453 L460.7685,58.9436 L461.2546,64.9419 L461.4197,70.9402 L460.5293,76.9385 L461.0378,82.9368 L460.7588,88.935 L460.7932,94.9333 L461.0455,100.9316 L460.5469,106.9299 L461.5429,112.9282 L460.5958,118.9265 L460.9418,124.9248 L461.4456,130.9231 L461.0314,136.9214 L461.1546,142.9196 L461.0744,148.9179 L461.2428,154.9162 L461.2913,160.9145 L461.5686,166.9128 L461.6368,172.9111 L461.6434,178.9094 L461.3037,184.9077 L461.4709,190.906 L461.6618,196.9042 L460.5231,202.9025 L461.6428,208.9008 L460.8628,214.8991 L461.527,220.8974 L460.704,226.8957 L461.0452,232.894 L461.6933,238.8923 L461.061,244.8906 L461.1842,250.8888 L461.3709,256.8871 L461.433,262.8854 L461.0969,268.8837 L461.3298,274.882 L460.6421,280.8803 L461.3275,286.8786 L461.5386,292.8769 L461.4556,298.8751 L461.5904,304.8734 L460.7135,310.8717 L460.5783,316.87 L460.6029,322.8683 L461.0529,328.8666 L460.9428,334.8649 L461.6451,340.8632 L460.9603,346.8615 L460.8256,352.8597 L461.2826,358.858 L460.5665,364.8563 L460.6847,370.8546 L461.6192,376.8529 L461.4485,382.8512 L461.6876,388.8495 L460.8426,394.8478 L461.3554,400.8461 L461.5723,406.8443 L460.7221,412.8426 L461.0233,418.8409 L461.2008,424.8392 L461.1,430.8375 " fill="none" style="stroke:#181818;stroke-width:0.3;stroke-dasharray:5.0,5.0;"/><text fill="#000000" font-family="FG Virgil" font-size="8.4" lengthAdjust="spacing" textLength="29.4" x="3" y="50.8371">Cashier</text><polygon fill="#E3E3E3" points="24.3265,12.0402,23.6229,13.0016,22.7907,14.4097,21.6005,15.3586,20.3498,15.8776,19.3525,15.9226,18.0708,15.2736,16.8614,14.8496,15.9434,13.9888,15.4619,13.0033,15.1764,12.2186,14.8966,11.1937,14.4425,10.3117,14.7915,9.4505,15.0972,8.5072,16.2444,7.7612,17.0515,6.7931,18.0506,6.4717,19.2382,6.1949,20.7613,6.3593,21.5955,6.7527,22.5653,6.9311,23.7446,8.1393,24.1557,9.4147,24.3343,10.285,24.132,11.7191" style="stroke:#181818;stroke-width:0.3;"/><path d="M19.5,15.6727 L19.6121,15.6727 L19.279,18.9127 L19.6031,22.1527 L19.7132,25.3927 L19.1195,28.6327 L19.5,31.8727 M11.7,20.4727 L11.7,20.4312 L14.82,20.2452 L17.94,20.2681 L21.06,20.4363 L24.18,20.1039 L27.3,20.4727 M19.5,31.8727 L19.7231,32.066 L17.686,33.4525 L16.3003,35.4036 L14.9941,37.4235 L13.2254,39.0427 L11.7,40.8727 M19.5,31.8727 L19.5275,31.8965 L21.0471,33.6615 L22.692,35.535 L24.2764,37.3562 L25.9761,39.2772 L27.3,40.8727 " fill="none" style="stroke:#181818;stroke-width:0.3;"/><text fill="#000000" font-family="FG Virgil" font-size="8.4" lengthAdjust="spacing" textLength="29.4" x="3" y="439.302">Cashier</text><polygon fill="#E3E3E3" points="24.3265,447.6777,23.6229,448.6391,22.7907,450.0472,21.6005,450.9961,20.3498,451.5151,19.3525,451.5601,18.0708,450.9111,16.8614,450.4871,15.9434,449.6263,15.4619,448.6408,15.1764,447.8561,14.8966,446.8312,14.4425,445.9492,14.7915,445.088,15.0972,444.1447,16.2444,443.3987,17.0515,442.4306,18.0506,442.1092,19.2382,441.8324,20.7613,441.9968,21.5955,442.3902,22.5653,442.5686,23.7446,443.7768,24.1557,445.0522,24.3343,445.9225,24.132,447.3566" style="stroke:#181818;stroke-width:0.3;"/><path d="M19.5,451.3102 L19.6121,451.3102 L19.279,454.5502 L19.6031,457.7902 L19.7132,461.0302 L19.1195,464.2702 L19.5,467.5102 M11.7,456.1102 L11.7,456.0687 L14.82,455.8827 L17.94,455.9056 L21.06,456.0738 L24.18,455.7414 L27.3,456.1102 M19.5,467.5102 L19.7231,467.7035 L17.686,469.09 L16.3003,471.0411 L14.9941,473.061 L13.2254,474.6802 L11.7,476.5102 M19.5,467.5102 L19.5275,467.534 L21.0471,469.299 L22.692,471.1725 L24.2764,472.9937 L25.9761,474.9147 L27.3,476.5102 " fill="none" style="stroke:#181818;stroke-width:0.3;"/><polygon fill="#E3E3E3" points="81,21.6,81,21.7261,86.9667,21.3514,92.9333,21.716,98.9,21.8398,104.8667,21.172,110.8333,21.5534,116.8,21.3441,122.7667,21.3699,128.7333,21.5591,134.7,21.1852,140.6667,21.9322,146.6333,21.2218,152.6,21.4813,158.5667,21.8592,164.5333,21.5485,170.5,21.6409,176.4667,21.5808,182.4333,21.7071,188.4,21.6,188.4183,21.6442,188.657,21.7961,188.8756,21.8997,189.0884,21.9891,189.268,21.9985,189.4607,22.0393,189.5463,22.0748,189.6783,22.3052,189.5031,22.4084,189.8496,22.7277,189.7573,22.8652,189.9,23.1,190.2203,23.1,189.603,28.6491,189.8589,34.1981,190.345,39.7472,189.8708,45.2963,189.9,50.8453,189.9195,50.8534,189.8747,51.0834,189.8012,51.3014,189.6357,51.4814,189.6016,51.7158,189.4607,51.906,189.4168,51.8002,189.2703,52.0464,189.0784,52.183,188.8583,52.2517,188.6591,52.3707,188.4,52.3453,188.4,52.0555,182.4333,51.954,176.4667,51.9725,170.5,52.31,164.5333,52.2274,158.5667,52.7542,152.6,52.2405,146.6333,52.1395,140.6667,52.4823,134.7,51.9452,128.7333,52.0338,122.7667,52.7347,116.8,52.6067,110.8333,52.786,104.8667,52.1522,98.9,52.5368,92.9333,52.6996,86.9667,52.0619,81,52.3453,80.9927,52.3276,80.7975,52.2807,80.6256,52.29,80.3633,52.0809,80.1869,52.0793,79.9393,51.906,79.837,51.8636,79.7263,51.642,79.8567,51.5203,79.5433,51.2147,79.6819,51.0964,79.5,50.8453,79.624,50.8453,79.3392,45.2963,79.2877,39.7472,79.7753,34.1981,79.3204,28.6491,79.5,23.1,79.6094,23.1453,79.4857,22.8456,79.7898,22.723,79.8531,22.5007,79.8967,22.2702,79.9393,22.0393,79.943,22.0481,80.2071,22.0857,80.4106,21.977,80.5887,21.807,80.8084,21.7374,81,21.6" style="stroke:#181818;stroke-width:0.3;"/><text fill="#000000" font-family="FG Virgil" font-size="8.4" font-style="italic" lengthAdjust="spacing" textLength="57" x="106.2" y="34.8645">&#171;presentation&#187;</text><text fill="#000000" font-family="FG Virgil" font-size="8.4" lengthAdjust="spacing" textLength="102" x="83.7" y="46.0371">MarkBookingAsDeliveredUI</text><polygon fill="#E3E3E3" points="81,430.2375,81,430.3636,86.9667,429.9889,92.9333,430.3535,98.9,430.4773,104.8667,429.8095,110.8333,430.1909,116.8,429.9816,122.7667,430.0074,128.7333,430.1966,134.7,429.8227,140.6667,430.5697,146.6333,429.8593,152.6,430.1188,158.5667,430.4967,164.5333,430.186,170.5,430.2784,176.4667,430.2183,182.4333,430.3446,188.4,430.2375,188.4183,430.2817,188.657,430.4336,188.8756,430.5372,189.0884,430.6266,189.268,430.636,189.4607,430.6768,189.5463,430.7123,189.6783,430.9427,189.5031,431.0459,189.8496,431.3652,189.7573,431.5027,189.9,431.7375,190.2203,431.7375,189.603,437.2866,189.8589,442.8356,190.345,448.3847,189.8708,453.9338,189.9,459.4828,189.9195,459.4909,189.8747,459.7209,189.8012,459.9389,189.6357,460.1189,189.6016,460.3533,189.4607,460.5435,189.4168,460.4377,189.2703,460.6839,189.0784,460.8205,188.8583,460.8892,188.6591,461.0082,188.4,460.9828,188.4,460.693,182.4333,460.5915,176.4667,460.61,170.5,460.9475,164.5333,460.8649,158.5667,461.3917,152.6,460.878,146.6333,460.777,140.6667,461.1198,134.7,460.5827,128.7333,460.6713,122.7667,461.3722,116.8,461.2442,110.8333,461.4235,104.8667,460.7897,98.9,461.1743,92.9333,461.3371,86.9667,460.6994,81,460.9828,80.9927,460.9651,80.7975,460.9182,80.6256,460.9275,80.3633,460.7184,80.1869,460.7168,79.9393,460.5435,79.837,460.5011,79.7263,460.2795,79.8567,460.1578,79.5433,459.8522,79.6819,459.7339,79.5,459.4828,79.624,459.4828,79.3392,453.9338,79.2877,448.3847,79.7753,442.8356,79.3204,437.2866,79.5,431.7375,79.6094,431.7828,79.4857,431.4831,79.7898,431.3605,79.8531,431.1382,79.8967,430.9077,79.9393,430.6768,79.943,430.6856,80.2071,430.7232,80.4106,430.6145,80.5887,430.4445,80.8084,430.3749,81,430.2375" style="stroke:#181818;stroke-width:0.3;"/><text fill="#000000" font-family="FG Virgil" font-size="8.4" font-style="italic" lengthAdjust="spacing" textLength="57" x="106.2" y="443.502">&#171;presentation&#187;</text><text fill="#000000" font-family="FG Virgil" font-size="8.4" lengthAdjust="spacing" textLength="102" x="83.7" y="454.6746">MarkBookingAsDeliveredUI</text><polygon fill="#E3E3E3" points="201.6,21.6,201.6,21.7261,207.5739,21.3514,213.5478,21.716,219.5217,21.8398,225.4957,21.172,231.4696,21.5534,237.4435,21.3441,243.4174,21.3699,249.3913,21.5591,255.3652,21.1852,261.3391,21.9322,267.313,21.2218,273.287,21.4813,279.2609,21.8592,285.2348,21.5485,291.2087,21.6409,297.1826,21.5808,303.1565,21.7071,309.1304,21.7435,315.1043,21.9514,321.0783,22.0026,327.0522,22.0076,333.0261,21.7528,339,21.6,339.0355,21.6857,339.2659,21.8176,339.3691,21.6425,339.6883,21.989,339.8258,21.8967,340.0607,22.0393,340.1593,22.0802,340.0571,22.2136,340.2237,22.4584,340.4613,22.7325,340.4031,22.8841,340.5,23.1,340.5632,23.1,340.7032,28.6491,340.7497,34.1981,340.4977,39.7472,340.6723,45.2963,340.5,50.8453,340.3942,50.8015,340.4647,51.0792,340.4256,51.3115,340.3185,51.5157,340.2618,51.7408,340.0607,51.906,340.0237,51.8167,339.7986,51.8733,339.5888,51.9669,339.4198,52.1587,339.1971,52.2211,339,52.3453,339,52.7542,333.0261,52.2405,327.0522,52.1395,321.0783,52.4823,315.1043,51.9452,309.1304,52.0338,303.1565,52.7347,297.1826,52.6067,291.2087,52.786,285.2348,52.1522,279.2609,52.5368,273.287,52.6996,267.313,52.0619,261.3391,52.2878,255.3652,52.4209,249.3913,52.7364,243.4174,52.3428,237.4435,52.6229,231.4696,52.013,225.4957,51.939,219.5217,52.6475,213.5478,51.9151,207.5739,52.6507,201.6,52.3453,201.6158,52.3835,201.3674,52.2079,201.1487,52.1042,200.9987,52.1665,200.7286,51.9385,200.5393,51.906,200.6487,51.9513,200.3493,51.6515,200.4777,51.529,200.3652,51.3066,200.2331,51.0762,200.1,50.8453,200.1283,50.8453,200.536,45.2963,200.4681,39.7472,200.2016,34.1981,200.2609,28.6491,200.1,23.1,200.0759,23.09,200.3203,22.9427,200.3044,22.6876,200.3955,22.4768,200.3391,22.2049,200.5393,22.0393,200.5083,21.9645,200.7921,22.0495,200.9965,21.943,201.1725,21.7678,201.3632,21.6283,201.6,21.6" style="stroke:#181818;stroke-width:0.3;"/><text fill="#000000" font-family="FG Virgil" font-size="8.4" font-style="italic" lengthAdjust="spacing" textLength="50.4" x="245.1" y="34.8645">&#171;application&#187;</text><text fill="#000000" font-family="FG Virgil" font-size="8.4" lengthAdjust="spacing" textLength="132" x="204.3" y="46.0371">MarkBookingAsDeliveredController</text><polygon fill="#E3E3E3" points="201.6,430.2375,201.6,430.3636,207.5739,429.9889,213.5478,430.3535,219.5217,430.4773,225.4957,429.8095,231.4696,430.1909,237.4435,429.9816,243.4174,430.0074,249.3913,430.1966,255.3652,429.8227,261.3391,430.5697,267.313,429.8593,273.287,430.1188,279.2609,430.4967,285.2348,430.186,291.2087,430.2784,297.1826,430.2183,303.1565,430.3446,309.1304,430.381,315.1043,430.5889,321.0783,430.6401,327.0522,430.6451,333.0261,430.3903,339,430.2375,339.0355,430.3232,339.2659,430.4551,339.3691,430.28,339.6883,430.6265,339.8258,430.5342,340.0607,430.6768,340.1593,430.7177,340.0571,430.8511,340.2237,431.0959,340.4613,431.37,340.4031,431.5216,340.5,431.7375,340.5632,431.7375,340.7032,437.2866,340.7497,442.8356,340.4977,448.3847,340.6723,453.9338,340.5,459.4828,340.3942,459.439,340.4647,459.7167,340.4256,459.949,340.3185,460.1532,340.2618,460.3783,340.0607,460.5435,340.0237,460.4542,339.7986,460.5108,339.5888,460.6044,339.4198,460.7962,339.1971,460.8586,339,460.9828,339,461.3917,333.0261,460.878,327.0522,460.777,321.0783,461.1198,315.1043,460.5827,309.1304,460.6713,303.1565,461.3722,297.1826,461.2442,291.2087,461.4235,285.2348,460.7897,279.2609,461.1743,273.287,461.3371,267.313,460.6994,261.3391,460.9253,255.3652,461.0584,249.3913,461.3739,243.4174,460.9803,237.4435,461.2604,231.4696,460.6505,225.4957,460.5765,219.5217,461.285,213.5478,460.5526,207.5739,461.2882,201.6,460.9828,201.6158,461.021,201.3674,460.8454,201.1487,460.7417,200.9987,460.804,200.7286,460.576,200.5393,460.5435,200.6487,460.5888,200.3493,460.289,200.4777,460.1665,200.3652,459.9441,200.2331,459.7137,200.1,459.4828,200.1283,459.4828,200.536,453.9338,200.4681,448.3847,200.2016,442.8356,200.2609,437.2866,200.1,431.7375,200.0759,431.7275,200.3203,431.5802,200.3044,431.3251,200.3955,431.1143,200.3391,430.8424,200.5393,430.6768,200.5083,430.602,200.7921,430.687,200.9965,430.5805,201.1725,430.4053,201.3632,430.2658,201.6,430.2375" style="stroke:#181818;stroke-width:0.3;"/><text fill="#000000" font-family="FG Virgil" font-size="8.4" font-style="italic" lengthAdjust="spacing" textLength="50.4" x="245.1" y="443.502">&#171;application&#187;</text><text fill="#000000" font-family="FG Virgil" font-size="8.4" lengthAdjust="spacing" textLength="132" x="204.3" y="454.6746">MarkBookingAsDeliveredController</text><polygon fill="#E3E3E3" points="348,21.6,348,21.7261,354.2182,21.3514,360.4364,21.716,366.6545,21.8398,372.8727,21.172,379.0909,21.5534,385.3091,21.3441,391.5273,21.3699,397.7455,21.5591,403.9636,21.1852,410.1818,21.9322,416.4,21.6,416.3518,21.4835,416.597,21.6513,416.8573,21.8555,417.0298,21.8478,417.2538,21.9641,417.4607,22.0393,417.4548,22.0369,417.5815,22.2651,417.6806,22.4819,417.8325,22.7206,417.9361,22.9392,417.9,23.1,418.3076,23.1,418.0528,28.6491,418.1782,34.1981,418.3213,39.7472,417.4673,45.2963,417.9,50.8453,418.0254,50.8972,417.7573,51.0348,417.8229,51.3104,417.5449,51.4438,417.5359,51.6886,417.4607,51.906,417.5174,52.043,417.2448,51.9848,417.0445,52.1012,416.8502,52.2321,416.644,52.3344,416.4,52.3453,416.4,52.343,410.1818,52.5176,403.9636,52.0019,397.7455,52.5159,391.5273,52.6742,385.3091,52.612,379.0909,52.7131,372.8727,52.0555,366.6545,51.954,360.4364,51.9725,354.2182,52.31,348,52.3453,347.985,52.309,347.84,52.3834,347.5624,52.1373,347.3373,52.0183,347.1689,52.036,346.9393,51.906,346.8161,51.8549,346.7556,51.6541,346.8835,51.5314,346.7562,51.3029,346.7236,51.1137,346.5,50.8453,346.3069,50.8453,346.6915,45.2963,346.8543,39.7472,346.2166,34.1981,346.4425,28.6491,346.5,23.1,346.5233,23.1096,346.7083,22.9378,346.675,22.6754,346.8491,22.499,346.7491,22.2091,346.9393,22.0393,346.8875,21.9142,347.19,22.0445,347.3087,21.7311,347.6147,21.8698,347.8037,21.726,348,21.6" style="stroke:#181818;stroke-width:0.3;"/><text fill="#000000" font-family="FG Virgil" font-size="8.4" font-style="italic" lengthAdjust="spacing" textLength="37.2" x="363.6" y="34.8645">&#171;domain&#187;</text><text fill="#000000" font-family="FG Virgil" font-size="8.4" lengthAdjust="spacing" textLength="63" x="350.7" y="46.0371">booking:Booking</text><polygon fill="#E3E3E3" points="348,430.2375,348,430.3636,354.2182,429.9889,360.4364,430.3535,366.6545,430.4773,372.8727,429.8095,379.0909,430.1909,385.3091,429.9816,391.5273,430.0074,397.7455,430.1966,403.9636,429.8227,410.1818,430.5697,416.4,430.2375,416.3518,430.121,416.597,430.2888,416.8573,430.493,417.0298,430.4853,417.2538,430.6016,417.4607,430.6768,417.4548,430.6744,417.5815,430.9026,417.6806,431.1194,417.8325,431.3581,417.9361,431.5767,417.9,431.7375,418.3076,431.7375,418.0528,437.2866,418.1782,442.8356,418.3213,448.3847,417.4673,453.9338,417.9,459.4828,418.0254,459.5347,417.7573,459.6723,417.8229,459.9479,417.5449,460.0813,417.5359,460.3261,417.4607,460.5435,417.5174,460.6805,417.2448,460.6223,417.0445,460.7387,416.8502,460.8696,416.644,460.9719,416.4,460.9828,416.4,460.9805,410.1818,461.1551,403.9636,460.6394,397.7455,461.1534,391.5273,461.3117,385.3091,461.2495,379.0909,461.3506,372.8727,460.693,366.6545,460.5915,360.4364,460.61,354.2182,460.9475,348,460.9828,347.985,460.9465,347.84,461.0209,347.5624,460.7748,347.3373,460.6558,347.1689,460.6735,346.9393,460.5435,346.8161,460.4924,346.7556,460.2916,346.8835,460.1689,346.7562,459.9404,346.7236,459.7512,346.5,459.4828,346.3069,459.4828,346.6915,453.9338,346.8543,448.3847,346.2166,442.8356,346.4425,437.2866,346.5,431.7375,346.5233,431.7471,346.7083,431.5753,346.675,431.3129,346.8491,431.1365,346.7491,430.8466,346.9393,430.6768,346.8875,430.5517,347.19,430.682,347.3087,430.3686,347.6147,430.5073,347.8037,430.3635,348,430.2375" style="stroke:#181818;stroke-width:0.3;"/><text fill="#000000" font-family="FG Virgil" font-size="8.4" font-style="italic" lengthAdjust="spacing" textLength="37.2" x="363.6" y="443.502">&#171;domain&#187;</text><text fill="#000000" font-family="FG Virgil" font-size="8.4" lengthAdjust="spacing" textLength="63" x="350.7" y="454.6746">booking:Booking</text><text fill="#000000" font-family="FG Virgil" font-size="8.4" font-style="italic" lengthAdjust="spacing" textLength="47.4" x="435.9" y="39.6645">&#171;repository&#187;</text><text fill="#000000" font-family="FG Virgil" font-size="8.4" lengthAdjust="spacing" textLength="71.4" x="423.9" y="50.8371">BookingRepository</text><path d="M450.6,9 L450.6,9 L450.6391,9.0402 L451.603,7.8708 L452.7959,6.937 L453.9143,5.9264 L454.7874,4.6636 L456,3.75 L455.9971,3.7295 L457.0644,3.4873 L458.1459,3.3487 L459.2375,3.282 L460.2946,2.9674 L461.4,3 L461.4,3 L461.4203,3.1462 L462.4569,2.9835 L463.5527,3.2478 L464.6558,3.5641 L465.7169,3.5773 L466.8,3.75 L466.8127,3.763 L467.8741,4.7939 L468.9932,5.8841 L470.0845,6.9457 L471.2289,8.062 L472.2,9 L472.5579,9 L472.5623,12.12 L472.3358,15.24 L472.4472,18.36 L472.5745,21.48 L472.2,24.6 L472.2,24.6 L472.0659,24.4621 L471.2461,25.7797 L469.9849,26.6433 L469.0592,27.8521 L467.788,28.7054 L466.8,29.85 L466.7975,29.8319 L465.7472,30.1959 L464.6382,30.1371 L463.5639,30.3278 L462.4924,30.5394 L461.4,30.6 L461.4,30.6 L461.4153,30.7099 L460.3199,30.449 L459.2505,30.3759 L458.139,29.9988 L457.0904,30.0751 L456,29.85 L456.1019,29.9548 L455.0026,28.885 L453.954,27.8672 L452.6702,26.6076 L451.5588,25.5253 L450.6,24.6 L450.2686,24.6 L450.5686,21.48 L450.4952,18.36 L450.9634,15.24 L450.5068,12.12 L450.6,9 " fill="#E3E3E3" style="stroke:#181818;stroke-width:0.8999999999999999;"/><path d="M450.6,9 L450.6,9 L450.6391,9.0402 L451.603,9.9708 L452.7959,11.137 L453.9143,12.2264 L454.7874,13.0636 L456,14.25 L455.9971,14.2295 L457.0644,14.2873 L458.1459,14.4487 L459.2375,14.682 L460.2946,14.6674 L461.4,15 L461.4,15 L461.4203,15.1462 L462.4569,14.6835 L463.5527,14.6478 L464.6558,14.6641 L465.7169,14.3773 L466.8,14.25 L466.8127,14.263 L467.8741,13.1939 L468.9932,12.1841 L470.0845,11.1457 L471.2289,10.162 L472.2,9 " fill="none" style="stroke:#181818;stroke-width:0.8999999999999999;"/><text fill="#000000" font-family="FG Virgil" font-size="8.4" font-style="italic" lengthAdjust="spacing" textLength="47.4" x="435.9" y="439.302">&#171;repository&#187;</text><text fill="#000000" font-family="FG Virgil" font-size="8.4" lengthAdjust="spacing" textLength="71.4" x="423.9" y="450.4746">BookingRepository</text><path d="M450.6,458.5828 L450.6,458.5828 L450.6391,458.623 L451.603,457.4536 L452.7959,456.5198 L453.9143,455.5092 L454.7874,454.2464 L456,453.3328 L455.9971,453.3123 L457.0644,453.0702 L458.1459,452.9315 L459.2375,452.8648 L460.2946,452.5502 L461.4,452.5828 L461.4,452.5828 L461.4203,452.729 L462.4569,452.5663 L463.5527,452.8306 L464.6558,453.1469 L465.7169,453.1602 L466.8,453.3328 L466.8127,453.3459 L467.8741,454.3767 L468.9932,455.4669 L470.0845,456.5285 L471.2289,457.6448 L472.2,458.5828 L472.5579,458.5828 L472.5623,461.7028 L472.3358,464.8228 L472.4472,467.9428 L472.5745,471.0628 L472.2,474.1828 L472.2,474.1828 L472.0659,474.0449 L471.2461,475.3625 L469.9849,476.2261 L469.0592,477.4349 L467.788,478.2882 L466.8,479.4328 L466.7975,479.4147 L465.7472,479.7787 L464.6382,479.7199 L463.5639,479.9106 L462.4924,480.1223 L461.4,480.1828 L461.4,480.1828 L461.4153,480.2928 L460.3199,480.0318 L459.2505,479.9587 L458.139,479.5816 L457.0904,479.6579 L456,479.4328 L456.1019,479.5376 L455.0026,478.4678 L453.954,477.45 L452.6702,476.1904 L451.5588,475.1081 L450.6,474.1828 L450.2686,474.1828 L450.5686,471.0628 L450.4952,467.9428 L450.9634,464.8228 L450.5068,461.7028 L450.6,458.5828 " fill="#E3E3E3" style="stroke:#181818;stroke-width:0.8999999999999999;"/><path d="M450.6,458.5828 L450.6,458.5828 L450.6391,458.623 L451.603,459.5536 L452.7959,460.7198 L453.9143,461.8092 L454.7874,462.6464 L456,463.8328 L455.9971,463.8123 L457.0644,463.8702 L458.1459,464.0315 L459.2375,464.2648 L460.2946,464.2502 L461.4,464.5828 L461.4,464.5828 L461.4203,464.729 L462.4569,464.2663 L463.5527,464.2306 L464.6558,464.2469 L465.7169,463.9602 L466.8,463.8328 L466.8127,463.8459 L467.8741,462.7767 L468.9932,461.7669 L470.0845,460.7285 L471.2289,459.7448 L472.2,458.5828 " fill="none" style="stroke:#181818;stroke-width:0.8999999999999999;"/><polygon fill="#FFFFFF" points="131.7,72.9199,131.7,72.962,132.9,72.8371,134.1,72.9586,135.3,72.9999,136.5,72.7772,137.7,72.9199,137.6534,72.9199,137.4441,78.9047,137.4699,84.8895,137.6591,90.8743,137.2852,96.8591,138.0322,102.8439,137.3218,108.8286,137.5813,114.8134,137.9592,120.7982,137.6485,126.783,137.7409,132.7678,137.6808,138.7526,137.8071,144.7374,137.8435,150.7221,138.0514,156.7069,138.1026,162.6917,138.1076,168.6765,137.8528,174.6613,137.9782,180.6461,138.1213,186.6309,137.2673,192.6156,138.1071,198.6004,137.5221,204.5852,138.0203,210.57,137.403,216.5548,137.6589,222.5396,138.145,228.5244,137.6708,234.5091,137.7632,240.4939,137.9032,246.4787,137.9497,252.4635,137.6977,258.4483,137.8723,264.4331,137.3565,270.4179,137.8706,276.4026,138.0289,282.3874,137.9667,288.3722,138.0678,294.357,137.4102,300.3418,137.3087,306.3266,137.3272,312.3114,137.6647,318.2961,137.5821,324.2809,138.1088,330.2657,137.5952,336.2505,137.4942,342.2353,137.837,348.2201,137.2999,354.2049,137.3885,360.1896,138.0894,366.1744,137.9614,372.1592,138.1407,378.144,137.5069,384.1288,137.8915,390.1136,138.0543,396.0984,137.4166,402.0831,137.6425,408.0679,137.7756,414.0527,137.7,420.0375,137.7,420.1679,136.5,420.0367,135.3,420.13,134.1,419.9267,132.9,419.902,131.7,420.0375,132.0022,420.0375,131.2698,414.0527,132.0054,408.0679,131.824,402.0831,131.5392,396.0984,131.4877,390.1136,131.9753,384.1288,131.5204,378.144,132.0551,372.1592,131.3684,366.1744,132.0705,360.1896,131.9906,354.2049,131.847,348.2201,131.7283,342.2353,132.136,336.2505,132.0681,330.2657,131.8016,324.2809,131.8609,318.2961,131.6218,312.3114,132.1299,306.3266,131.7929,300.3418,131.8035,294.357,131.335,288.3722,131.4569,282.3874,132.0184,276.4026,131.9579,270.4179,131.6742,264.4331,131.5067,258.4483,131.5686,252.4635,131.2883,246.4787,131.9488,240.4939,132.1437,234.5091,132.0158,228.5244,132.117,222.5396,131.618,216.5548,131.7523,210.57,131.4674,204.5852,131.8704,198.6004,131.8481,192.6156,132.0314,186.6309,131.5622,180.6461,131.6194,174.6613,131.9661,168.6765,132.0404,162.6917,131.3925,156.7069,131.5837,150.7221,131.7896,144.7374,131.3335,138.7526,131.912,132.7678,131.8548,126.783,131.6395,120.7982,131.7853,114.8134,132.1372,108.8286,131.5123,102.8439,131.889,96.8591,131.8714,90.8743,131.7695,84.8895,131.7846,78.9047,131.7,72.9199" style="stroke:#181818;stroke-width:0.6;"/><polygon fill="#FFFFFF" points="267.3,148.0184,267.3,148.0604,268.5,147.9355,269.7,148.057,270.9,148.0983,272.1,147.8757,273.3,148.0184,273.2534,148.0184,273.0441,154.1095,273.0699,160.2006,273.2591,166.2917,272.8852,172.3828,273.6322,178.4739,272.9218,184.565,273.1813,190.6562,273.5592,196.7473,273.2485,202.8384,273.3409,208.9295,273.2808,215.0206,273.4071,221.1117,273.4435,227.2028,273.6514,233.2939,273.7026,239.3851,273.7076,245.4762,273.4528,251.5673,273.5782,257.6584,273.7213,263.7495,273.3,269.8406,273.3,269.6964,272.1,269.9763,270.9,269.7813,269.7,269.9474,268.5,269.7416,267.3,269.8406,267.2589,269.8406,267.745,263.7495,267.2708,257.6584,267.3632,251.5673,267.5032,245.4762,267.5497,239.3851,267.2977,233.2939,267.4723,227.2028,266.9565,221.1117,267.4706,215.0206,267.6289,208.9295,267.5667,202.8384,267.6678,196.7473,267.0102,190.6562,266.9087,184.565,266.9272,178.4739,267.2647,172.3828,267.1821,166.2917,267.7088,160.2006,267.1952,154.1095,267.3,148.0184" style="stroke:#181818;stroke-width:0.6;"/><polygon fill="#FFFFFF" points="267.3,326.1645,267.3,326.2065,268.5,326.0816,269.7,326.2031,270.9,326.2444,272.1,326.0218,273.3,326.1645,273.2534,326.1645,273.0441,331.9413,273.0699,337.7181,273.2591,343.4949,272.8852,349.2717,273.6322,355.0485,272.9218,360.8253,273.1813,366.6021,273.5592,372.3789,273.2485,378.1557,273.3409,383.9325,273.2808,389.7093,273.4071,395.4861,273.3,401.2629,273.3,401.3107,272.1,401.38,270.9,401.3971,269.7,401.3987,268.5,401.3138,267.3,401.2629,267.5782,401.2629,267.7213,395.4861,266.8673,389.7093,267.7071,383.9325,267.1221,378.1557,267.6203,372.3789,267.003,366.6021,267.2589,360.8253,267.745,355.0485,267.2708,349.2717,267.3632,343.4949,267.5032,337.7181,267.5497,331.9413,267.3,326.1645" style="stroke:#181818;stroke-width:0.6;"/><polygon fill="#FFFFFF" points="458.4,232.2914,458.4,232.3334,459.6,232.2085,460.8,232.3301,462,232.3713,463.2,232.1487,464.4,232.2914,464.3845,232.2914,464.3147,236.0463,464.3233,239.8012,464.3864,243.5562,464.2617,247.3111,464.4,251.066,464.4,251.1767,463.2,250.94,462,251.0265,460.8,251.1524,459.6,251.0489,458.4,251.066,458.4136,251.066,458.3936,247.3111,458.4357,243.5562,458.4478,239.8012,458.5171,236.0463,458.4,232.2914" style="stroke:#181818;stroke-width:0.6;"/><polygon fill="#FFFFFF" points="458.4,363.7137,458.4,363.7557,459.6,363.6308,460.8,363.7523,462,363.7936,463.2,363.571,464.4,363.7137,464.3845,363.7137,464.3147,367.4686,464.3233,371.2235,464.3864,374.9784,464.2617,378.7334,464.4,382.4883,464.4,382.599,463.2,382.3622,462,382.4487,460.8,382.5747,459.6,382.4711,458.4,382.4883,458.4136,382.4883,458.3936,378.7334,458.4357,374.9784,458.4478,371.2235,458.5171,367.4686,458.4,363.7137" style="stroke:#181818;stroke-width:0.6;"/><polygon fill="#181818" points="124.5,70.5199,124.5156,70.559,125.6692,70.923,126.9144,71.5158,128.1297,72.0341,129.247,72.3074,130.5,72.9199,130.4942,72.9055,129.2683,73.3207,128.0715,73.8087,126.8949,74.3473,125.6486,74.7115,124.5,75.3199,124.5783,75.3982,124.8909,74.7508,125.432,74.332,126.0011,73.941,126.4079,73.3878,126.9,72.9199,126.9097,72.9296,126.4155,72.4354,125.9652,71.9852,125.4938,71.5137,125.0628,71.0828,124.5,70.5199" style="stroke:#181818;stroke-width:0.6;"/><path d="M19.5,72.9199 L19.5,73.0881 L25.5333,72.5885 L31.5667,73.0746 L37.6,73.2397 L43.6333,72.3492 L49.6667,72.8578 L55.7,72.5787 L61.7333,72.6131 L67.7667,72.8654 L73.8,72.3668 L79.8333,73.3628 L85.8667,72.4157 L91.9,72.7617 L97.9333,73.2655 L103.9667,72.8513 L110,72.9745 L116.0333,72.8944 L122.0667,73.0627 L128.1,72.9199 " fill="none" style="stroke:#181818;stroke-width:0.6;stroke-dasharray:2.0,2.0;"/><text fill="#000000" font-family="FG Virgil" font-size="7.8" lengthAdjust="spacing" textLength="92.4" x="23.7" y="69.7623">Mark Booking as Delivered</text><polygon fill="#181818" points="263.1,89.2945,263.1156,89.3336,264.2692,89.6976,265.5144,90.2904,266.7297,90.8087,267.847,91.0821,269.1,91.6945,269.0942,91.6801,267.8683,92.0953,266.6715,92.5833,265.4949,93.1219,264.2486,93.4861,263.1,94.0945,263.1783,94.1728,263.4909,93.5254,264.032,93.1066,264.6011,92.7156,265.0079,92.1624,265.5,91.6945,265.5097,91.7042,265.0155,91.21,264.5652,90.7598,264.0938,90.2883,263.6628,89.8574,263.1,89.2945" style="stroke:#181818;stroke-width:0.6;"/><path d="M137.7,91.6945 L137.7,91.8627 L143.5636,91.3631 L149.4273,91.8492 L155.2909,92.0143 L161.1545,91.1238 L167.0182,91.6324 L172.8818,91.3533 L178.7455,91.3877 L184.6091,91.64 L190.4727,91.1414 L196.3364,92.1374 L202.2,91.1903 L208.0636,91.5363 L213.9273,92.0401 L219.7909,91.6259 L225.6545,91.7491 L231.5182,91.669 L237.3818,91.8374 L243.2455,91.8858 L249.1091,92.1631 L254.9727,92.2314 L260.8364,92.2379 L266.7,91.6945 " fill="none" style="stroke:#181818;stroke-width:0.6;"/><text fill="#000000" font-family="FG Virgil" font-size="7.8" lengthAdjust="spacing" textLength="21.6" x="141.9" y="88.5369">create</text><polygon fill="#181818" points="26.1,108.0691,26.1156,108.1082,24.8692,108.4722,23.7144,109.065,22.5297,109.5834,21.247,109.8567,20.1,110.4691,20.0942,110.4547,21.2683,110.8699,22.4715,111.3579,23.6949,111.8965,24.8486,112.2608,26.1,112.8691,26.1783,112.9474,25.5309,112.3,25.112,111.8812,24.7211,111.4902,24.1679,110.937,23.7,110.4691,23.7097,110.4788,24.1755,109.9846,24.6852,109.5344,25.1738,109.063,25.7028,108.632,26.1,108.0691" style="stroke:#181818;stroke-width:0.6;"/><path d="M22.5,110.4691 L22.5,110.6373 L28.5333,110.1377 L34.5667,110.6238 L40.6,110.7889 L46.6333,109.8984 L52.6667,110.407 L58.7,110.1279 L64.7333,110.1623 L70.7667,110.4146 L76.8,109.916 L82.8333,110.9121 L88.8667,109.9649 L94.9,110.3109 L100.9333,110.8147 L106.9667,110.4005 L113,110.5237 L119.0333,110.4436 L125.0667,110.612 L131.1,110.4691 " fill="none" style="stroke:#181818;stroke-width:0.6;stroke-dasharray:2.0,2.0;"/><text fill="#000000" font-family="FG Virgil" font-size="7.8" lengthAdjust="spacing" textLength="66" x="29.7" y="107.3115">Ask Booking token</text><polygon fill="#181818" points="124.5,126.8438,124.5156,126.8828,125.6692,127.2468,126.9144,127.8396,128.1297,128.358,129.247,128.6313,130.5,129.2438,130.4942,129.2293,129.2683,129.6446,128.0715,130.1325,126.8949,130.6711,125.6486,131.0354,124.5,131.6437,124.5783,131.722,124.8909,131.0746,125.432,130.6558,126.0011,130.2648,126.4079,129.7116,126.9,129.2438,126.9097,129.2534,126.4155,128.7592,125.9652,128.309,125.4938,127.8376,125.0628,127.4066,124.5,126.8438" style="stroke:#181818;stroke-width:0.6;"/><path d="M19.5,129.2438 L19.5,129.4119 L25.5333,128.9123 L31.5667,129.3984 L37.6,129.5635 L43.6333,128.673 L49.6667,129.1816 L55.7,128.9026 L61.7333,128.937 L67.7667,129.1892 L73.8,128.6907 L79.8333,129.6867 L85.8667,128.7395 L91.9,129.0855 L97.9333,129.5893 L103.9667,129.1751 L110,129.2983 L116.0333,129.2182 L122.0667,129.3866 L128.1,129.2438 " fill="none" style="stroke:#181818;stroke-width:0.6;stroke-dasharray:2.0,2.0;"/><text fill="#000000" font-family="FG Virgil" font-size="7.8" lengthAdjust="spacing" textLength="49.8" x="23.7" y="126.0861">Booking token</text><polygon fill="#181818" points="260.1,145.6184,260.1156,145.6574,261.2692,146.0214,262.5144,146.6143,263.7297,147.1326,264.847,147.4059,266.1,148.0184,266.0942,148.0039,264.8683,148.4192,263.6715,148.9071,262.4949,149.4457,261.2486,149.81,260.1,150.4184,260.1783,150.4967,260.4909,149.8492,261.032,149.4304,261.6011,149.0394,262.0079,148.4862,262.5,148.0184,262.5097,148.028,262.0155,147.5338,261.5652,147.0836,261.0938,146.6122,260.6628,146.1812,260.1,145.6184" style="stroke:#181818;stroke-width:0.6;"/><path d="M137.7,148.0184 L137.7,148.1865 L143.7,147.6869 L149.7,148.173 L155.7,148.3381 L161.7,147.4476 L167.7,147.9562 L173.7,147.6772 L179.7,147.7116 L185.7,147.9638 L191.7,147.4653 L197.7,148.4613 L203.7,147.5141 L209.7,147.8601 L215.7,148.3639 L221.7,147.9497 L227.7,148.073 L233.7,147.9928 L239.7,148.1612 L245.7,148.2097 L251.7,148.4869 L257.7,148.5552 L263.7,148.0184 " fill="none" style="stroke:#181818;stroke-width:0.6;"/><text fill="#000000" font-family="FG Virgil" font-size="7.8" lengthAdjust="spacing" textLength="110.4" x="141.9" y="144.8607">bookingByToken(bookingToken)</text><path d="M276,155.8184 L276.1121,155.8184 L275.779,161.0984 L276.1031,166.3784 L276.2132,171.6584 L275.6195,176.9384 L276,182.2184 L276,182.094 L282.0261,181.536 L288.0522,181.6048 L294.0783,182.1093 L300.1043,181.1122 L306.1304,183.1042 L312.1565,181.2099 L318.1826,181.9019 L324.2087,182.9095 L330.2348,182.0811 L336.2609,182.3275 L342.287,182.1672 L348.313,182.504 L354.3391,182.601 L360.3652,183.1555 L366.3913,183.292 L372.4174,183.3052 L378.4435,182.6258 L384.4696,182.9601 L390.4957,183.3419 L396.5217,181.0645 L402.5478,183.304 L408.5739,181.744 L414.6,182.2184 L414.8847,182.2184 L414.336,178.1384 L414.5635,174.0584 L414.9955,169.9784 L414.574,165.8984 L414.6,161.8184 L414.6397,161.8581 L413.5277,160.7461 L412.357,159.5753 L410.9985,158.2169 L409.9083,157.1267 L408.6,155.8184 L408.6,154.9025 L402.5727,156.2734 L396.5455,156.6955 L390.5182,156.5296 L384.4909,156.7992 L378.4636,155.0454 L372.4364,154.7749 L366.4091,154.8241 L360.3818,155.7242 L354.3545,155.5039 L348.3273,156.9086 L342.3,155.5389 L336.2727,155.2695 L330.2455,156.1836 L324.2182,154.7514 L318.1909,154.9878 L312.1636,156.8567 L306.1364,156.5154 L300.1091,156.9935 L294.0818,155.3035 L288.0545,156.3291 L282.0273,156.763 L276,155.8184 " fill="#FAFAFA" style="stroke:#181818;stroke-width:0.3;"/><path d="M408.6,155.8184 L408.3481,155.8184 L408.5489,157.0184 L408.6672,158.2184 L408.9476,159.4184 L408.5978,160.6184 L408.6,161.8184 L408.6,162.0651 L409.8,161.523 L411,161.4572 L412.2,162.087 L413.4,161.436 L414.6,161.8184 L414.7919,162.0103 L413.4779,160.6963 L412.099,159.3173 L410.8666,158.0849 L409.973,157.1914 L408.6,155.8184 " fill="#FAFAFA" style="stroke:#181818;stroke-width:0.3;"/><text fill="#000000" font-family="FG Virgil" font-size="7.8" lengthAdjust="spacing" textLength="123.6" x="279.6" y="167.2354">hidden authorization user guarantee</text><text fill="#000000" font-family="FG Virgil" font-size="7.8" lengthAdjust="spacing" textLength="76.2" x="279.6" y="177.61">(see specific diagram)</text><path d="M276,188.5676 L276.1121,188.5676 L275.779,193.8476 L276.1031,199.1276 L276.2132,204.4076 L275.6195,209.6876 L276,214.9676 L276,214.8432 L281.92,214.2852 L287.84,214.354 L293.76,214.8585 L299.68,213.8614 L305.6,215.8534 L311.52,213.9591 L317.44,214.6512 L323.36,215.6587 L329.28,214.8303 L335.2,215.0768 L341.12,214.9165 L347.04,215.2532 L352.96,215.3502 L358.88,215.9047 L364.8,214.9676 L365.1579,214.9676 L365.1623,210.8876 L364.9358,206.8076 L365.0472,202.7276 L365.1745,198.6476 L364.8,194.5676 L364.528,194.2956 L363.8559,193.6235 L362.2882,192.0558 L361.4013,191.1689 L359.8133,189.5809 L358.8,188.5676 L358.8,188.458 L352.8857,189.7541 L346.9714,188.4896 L341.0571,188.7361 L335.1429,189.1094 L329.2286,189.2335 L323.3143,188.5613 L317.4,189.0271 L311.4857,187.6517 L305.5714,189.0226 L299.6571,189.4447 L293.7429,189.2788 L287.8286,189.5484 L281.9143,187.7947 L276,188.5676 " fill="#FAFAFA" style="stroke:#181818;stroke-width:0.3;"/><path d="M358.8,188.5676 L358.4522,188.5676 L358.4686,189.7676 L358.7686,190.9676 L358.6952,192.1676 L359.1634,193.3676 L358.8,194.5676 L358.8,194.4744 L360,194.3846 L361.2,194.6893 L362.4,194.2119 L363.6,194.2907 L364.8,194.5676 L365.0447,194.8123 L363.7643,193.5319 L362.677,192.4446 L361.0786,190.8462 L360.1204,189.888 L358.8,188.5676 " fill="#FAFAFA" style="stroke:#181818;stroke-width:0.3;"/><text fill="#000000" font-family="FG Virgil" font-size="7.8" lengthAdjust="spacing" textLength="76.2" x="279.6" y="199.9846">Simplified persistence</text><text fill="#000000" font-family="FG Virgil" font-size="7.8" lengthAdjust="spacing" textLength="76.2" x="279.6" y="210.3592">(see specific diagram)</text><polygon fill="#181818" points="451.2,229.8914,451.2156,229.9304,452.3692,230.2945,453.6144,230.8873,454.8297,231.4056,455.947,231.6789,457.2,232.2914,457.1942,232.277,455.9683,232.6922,454.7715,233.1802,453.5949,233.7187,452.3486,234.083,451.2,234.6914,451.2783,234.7697,451.5909,234.1223,452.132,233.7034,452.7011,233.3125,453.1079,232.7593,453.6,232.2914,453.6097,232.3011,453.1155,231.8069,452.6652,231.3567,452.1938,230.8852,451.7628,230.4542,451.2,229.8914" style="stroke:#181818;stroke-width:0.6;"/><path d="M273.3,232.2914 L273.3,232.4596 L279.35,231.9599 L285.4,232.446 L291.45,232.6111 L297.5,231.7207 L303.55,232.2292 L309.6,231.9502 L315.65,231.9846 L321.7,232.2369 L327.75,231.7383 L333.8,232.7343 L339.85,231.7872 L345.9,232.1332 L351.95,232.637 L358,232.2228 L364.05,232.346 L370.1,232.2658 L376.15,232.4342 L382.2,232.4827 L388.25,232.76 L394.3,232.8282 L400.35,232.8348 L406.4,232.4951 L412.45,232.6623 L418.5,232.8532 L424.55,231.7145 L430.6,232.8342 L436.65,232.0542 L442.7,232.7185 L448.75,231.8954 L454.8,232.2914 " fill="none" style="stroke:#181818;stroke-width:0.6;"/><text fill="#000000" font-family="FG Virgil" font-size="7.8" lengthAdjust="spacing" textLength="83.4" x="277.5" y="229.1338">ofIdentify(bookingToken)</text><polygon fill="#181818" points="279.9,248.666,279.9156,248.705,278.6692,249.0691,277.5144,249.6619,276.3297,250.1802,275.047,250.4535,273.9,251.066,273.8942,251.0516,275.0683,251.4668,276.2715,251.9548,277.4949,252.4934,278.6486,252.8576,279.9,253.466,279.9783,253.5443,279.3309,252.8969,278.912,252.478,278.5211,252.0871,277.9679,251.5339,277.5,251.066,277.5097,251.0757,277.9755,250.5815,278.4852,250.1313,278.9738,249.6598,279.5028,249.2288,279.9,248.666" style="stroke:#181818;stroke-width:0.6;"/><path d="M276.3,251.066 L276.3,251.2342 L282.2516,250.7346 L288.2032,251.2206 L294.1548,251.3858 L300.1065,250.4953 L306.0581,251.0038 L312.0097,250.7248 L317.9613,250.7592 L323.9129,251.0115 L329.8645,250.5129 L335.8161,251.5089 L341.7677,250.5618 L347.7194,250.9078 L353.671,251.4116 L359.6226,250.9974 L365.5742,251.1206 L371.5258,251.0405 L377.4774,251.2088 L383.429,251.2573 L389.3806,251.5346 L395.3323,251.6029 L401.2839,251.6094 L407.2355,251.2697 L413.1871,251.4369 L419.1387,251.6278 L425.0903,250.4891 L431.0419,251.6088 L436.9935,250.8288 L442.9452,251.4931 L448.8968,250.67 L454.8484,251.0112 L460.8,251.066 " fill="none" style="stroke:#181818;stroke-width:0.6;stroke-dasharray:2.0,2.0;"/><text fill="#000000" font-family="FG Virgil" font-size="7.8" lengthAdjust="spacing" textLength="27" x="283.5" y="247.9084">booking</text><polygon fill="#181818" points="144.3,267.4406,144.3156,267.4797,143.0692,267.8437,141.9144,268.4365,140.7297,268.9548,139.447,269.2282,138.3,269.8406,138.2942,269.8262,139.4683,270.2414,140.6715,270.7294,141.8949,271.268,143.0486,271.6322,144.3,272.2406,144.3783,272.3189,143.7309,271.6715,143.312,271.2527,142.9211,270.8617,142.3679,270.3085,141.9,269.8406,141.9097,269.8503,142.3755,269.3561,142.8852,268.9059,143.3738,268.4344,143.9028,268.0035,144.3,267.4406" style="stroke:#181818;stroke-width:0.6;"/><path d="M140.7,269.8406 L140.7,270.0088 L146.5636,269.5092 L152.4273,269.9953 L158.2909,270.1604 L164.1545,269.2699 L170.0182,269.7785 L175.8818,269.4994 L181.7455,269.5338 L187.6091,269.7861 L193.4727,269.2875 L199.3364,270.2835 L205.2,269.3364 L211.0636,269.6824 L216.9273,270.1862 L222.7909,269.772 L228.6545,269.8952 L234.5182,269.8151 L240.3818,269.9834 L246.2455,270.0319 L252.1091,270.3092 L257.9727,270.3775 L263.8364,270.384 L269.7,269.8406 " fill="none" style="stroke:#181818;stroke-width:0.6;stroke-dasharray:2.0,2.0;"/><text fill="#000000" font-family="FG Virgil" font-size="7.8" lengthAdjust="spacing" textLength="27" x="147.9" y="266.683">booking</text><polygon fill="#181818" points="26.1,286.2152,26.1156,286.2543,24.8692,286.6183,23.7144,287.2111,22.5297,287.7295,21.247,288.0028,20.1,288.6152,20.0942,288.6008,21.2683,289.016,22.4715,289.504,23.6949,290.0426,24.8486,290.4069,26.1,291.0152,26.1783,291.0935,25.5309,290.4461,25.112,290.0273,24.7211,289.6363,24.1679,289.0831,23.7,288.6152,23.7097,288.6249,24.1755,288.1307,24.6852,287.6805,25.1738,287.2091,25.7028,286.7781,26.1,286.2152" style="stroke:#181818;stroke-width:0.6;"/><path d="M22.5,288.6152 L22.5,288.7834 L28.5333,288.2838 L34.5667,288.7699 L40.6,288.935 L46.6333,288.0445 L52.6667,288.5531 L58.7,288.274 L64.7333,288.3084 L70.7667,288.5607 L76.8,288.0621 L82.8333,289.0581 L88.8667,288.111 L94.9,288.457 L100.9333,288.9608 L106.9667,288.5466 L113,288.6698 L119.0333,288.5897 L125.0667,288.7581 L131.1,288.6152 " fill="none" style="stroke:#181818;stroke-width:0.6;stroke-dasharray:2.0,2.0;"/><text fill="#000000" font-family="FG Virgil" font-size="7.8" lengthAdjust="spacing" textLength="56.4" x="29.7" y="285.4576">Display Booking</text><polygon fill="#181818" points="124.5,304.9898,124.5156,305.0289,125.6692,305.3929,126.9144,305.9857,128.1297,306.5041,129.247,306.7774,130.5,307.3898,130.4942,307.3754,129.2683,307.7906,128.0715,308.2786,126.8949,308.8172,125.6486,309.1815,124.5,309.7898,124.5783,309.8681,124.8909,309.2207,125.432,308.8019,126.0011,308.4109,126.4079,307.8577,126.9,307.3898,126.9097,307.3995,126.4155,306.9053,125.9652,306.4551,125.4938,305.9837,125.0628,305.5527,124.5,304.9898" style="stroke:#181818;stroke-width:0.6;"/><path d="M19.5,307.3898 L19.5,307.558 L25.5333,307.0584 L31.5667,307.5445 L37.6,307.7096 L43.6333,306.8191 L49.6667,307.3277 L55.7,307.0486 L61.7333,307.083 L67.7667,307.3353 L73.8,306.8367 L79.8333,307.8328 L85.8667,306.8856 L91.9,307.2316 L97.9333,307.7354 L103.9667,307.3212 L110,307.4444 L116.0333,307.3643 L122.0667,307.5327 L128.1,307.3898 " fill="none" style="stroke:#181818;stroke-width:0.6;stroke-dasharray:2.0,2.0;"/><text fill="#000000" font-family="FG Virgil" font-size="7.8" lengthAdjust="spacing" textLength="30.6" x="23.7" y="304.2322">Confirms</text><polygon fill="#181818" points="260.1,323.7645,260.1156,323.8035,261.2692,324.1675,262.5144,324.7603,263.7297,325.2787,264.847,325.552,266.1,326.1645,266.0942,326.15,264.8683,326.5653,263.6715,327.0532,262.4949,327.5918,261.2486,327.9561,260.1,328.5645,260.1783,328.6427,260.4909,327.9953,261.032,327.5765,261.6011,327.1855,262.0079,326.6323,262.5,326.1645,262.5097,326.1741,262.0155,325.6799,261.5652,325.2297,261.0938,324.7583,260.6628,324.3273,260.1,323.7645" style="stroke:#181818;stroke-width:0.6;"/><path d="M137.7,326.1645 L137.7,326.3326 L143.7,325.833 L149.7,326.3191 L155.7,326.4842 L161.7,325.5937 L167.7,326.1023 L173.7,325.8233 L179.7,325.8577 L185.7,326.1099 L191.7,325.6114 L197.7,326.6074 L203.7,325.6602 L209.7,326.0062 L215.7,326.51 L221.7,326.0958 L227.7,326.219 L233.7,326.1389 L239.7,326.3073 L245.7,326.3558 L251.7,326.633 L257.7,326.7013 L263.7,326.1645 " fill="none" style="stroke:#181818;stroke-width:0.6;"/><text fill="#000000" font-family="FG Virgil" font-size="7.8" lengthAdjust="spacing" textLength="118.2" x="141.9" y="323.0068">markBookingAsDelivered(booking)</text><polygon fill="#181818" points="375,342.5391,375.0156,342.5781,376.1692,342.9421,377.4144,343.535,378.6297,344.0533,379.747,344.3266,381,344.9391,380.9942,344.9246,379.7683,345.3399,378.5715,345.8278,377.3949,346.3664,376.1486,346.7307,375,347.3391,375.0783,347.4174,375.3909,346.7699,375.932,346.3511,376.5011,345.9601,376.9079,345.4069,377.4,344.9391,377.4097,344.9487,376.9155,344.4545,376.4652,344.0043,375.9938,343.5329,375.5628,343.1019,375,342.5391" style="stroke:#181818;stroke-width:0.6;"/><path d="M273.3,344.9391 L273.3,345.1072 L279.15,344.6076 L285,345.0937 L290.85,345.2588 L296.7,344.3683 L302.55,344.8769 L308.4,344.5979 L314.25,344.6323 L320.1,344.8845 L325.95,344.386 L331.8,345.382 L337.65,344.4348 L343.5,344.7808 L349.35,345.2846 L355.2,344.8704 L361.05,344.9937 L366.9,344.9135 L372.75,345.0819 L378.6,344.9391 " fill="none" style="stroke:#181818;stroke-width:0.6;"/><text fill="#000000" font-family="FG Virgil" font-size="7.8" lengthAdjust="spacing" textLength="26.4" x="277.5" y="341.7814">deliver()</text><polygon fill="#181818" points="451.2,361.3137,451.2156,361.3527,452.3692,361.7167,453.6144,362.3096,454.8297,362.8279,455.947,363.1012,457.2,363.7137,457.1942,363.6992,455.9683,364.1145,454.7715,364.6025,453.5949,365.141,452.3486,365.5053,451.2,366.1137,451.2783,366.192,451.5909,365.5445,452.132,365.1257,452.7011,364.7348,453.1079,364.1815,453.6,363.7137,453.6097,363.7233,453.1155,363.2292,452.6652,362.7789,452.1938,362.3075,451.7628,361.8765,451.2,361.3137" style="stroke:#181818;stroke-width:0.6;"/><path d="M273.3,363.7137 L273.3,363.8818 L279.35,363.3822 L285.4,363.8683 L291.45,364.0334 L297.5,363.143 L303.55,363.6515 L309.6,363.3725 L315.65,363.4069 L321.7,363.6591 L327.75,363.1606 L333.8,364.1566 L339.85,363.2094 L345.9,363.5555 L351.95,364.0592 L358,363.6451 L364.05,363.7683 L370.1,363.6881 L376.15,363.8565 L382.2,363.905 L388.25,364.1822 L394.3,364.2505 L400.35,364.2571 L406.4,363.9174 L412.45,364.0845 L418.5,364.2755 L424.55,363.1367 L430.6,364.2565 L436.65,363.4765 L442.7,364.1407 L448.75,363.3177 L454.8,363.7137 " fill="none" style="stroke:#181818;stroke-width:0.6;"/><text fill="#000000" font-family="FG Virgil" font-size="7.8" lengthAdjust="spacing" textLength="47.4" x="277.5" y="360.5561">save(booking)</text><polygon fill="#181818" points="279.9,380.0883,279.9156,380.1273,278.6692,380.4913,277.5144,381.0842,276.3297,381.6025,275.047,381.8758,273.9,382.4883,273.8942,382.4739,275.0683,382.8891,276.2715,383.3771,277.4949,383.9156,278.6486,384.2799,279.9,384.8883,279.9783,384.9666,279.3309,384.3191,278.912,383.9003,278.5211,383.5094,277.9679,382.9562,277.5,382.4883,277.5097,382.4979,277.9755,382.0038,278.4852,381.5535,278.9738,381.0821,279.5028,380.6511,279.9,380.0883" style="stroke:#181818;stroke-width:0.6;"/><path d="M276.3,382.4883 L276.3,382.6564 L282.2516,382.1568 L288.2032,382.6429 L294.1548,382.808 L300.1065,381.9176 L306.0581,382.4261 L312.0097,382.1471 L317.9613,382.1815 L323.9129,382.4338 L329.8645,381.9352 L335.8161,382.9312 L341.7677,381.9841 L347.7194,382.3301 L353.671,382.8338 L359.6226,382.4197 L365.5742,382.5429 L371.5258,382.4627 L377.4774,382.6311 L383.429,382.6796 L389.3806,382.9568 L395.3323,383.0251 L401.2839,383.0317 L407.2355,382.692 L413.1871,382.8591 L419.1387,383.0501 L425.0903,381.9113 L431.0419,383.0311 L436.9935,382.2511 L442.9452,382.9153 L448.8968,382.0923 L454.8484,382.4335 L460.8,382.4883 " fill="none" style="stroke:#181818;stroke-width:0.6;stroke-dasharray:2.0,2.0;"/><text fill="#000000" font-family="FG Virgil" font-size="7.8" lengthAdjust="spacing" textLength="27" x="283.5" y="379.3307">booking</text><polygon fill="#181818" points="144.3,398.8629,144.3156,398.9019,143.0692,399.266,141.9144,399.8588,140.7297,400.3771,139.447,400.6504,138.3,401.2629,138.2942,401.2485,139.4683,401.6637,140.6715,402.1517,141.8949,402.6902,143.0486,403.0545,144.3,403.6629,144.3783,403.7412,143.7309,403.0938,143.312,402.6749,142.9211,402.284,142.3679,401.7308,141.9,401.2629,141.9097,401.2725,142.3755,400.7784,142.8852,400.3281,143.3738,399.8567,143.9028,399.4257,144.3,398.8629" style="stroke:#181818;stroke-width:0.6;"/><path d="M140.7,401.2629 L140.7,401.431 L146.5636,400.9314 L152.4273,401.4175 L158.2909,401.5826 L164.1545,400.6922 L170.0182,401.2007 L175.8818,400.9217 L181.7455,400.9561 L187.6091,401.2084 L193.4727,400.7098 L199.3364,401.7058 L205.2,400.7587 L211.0636,401.1047 L216.9273,401.6084 L222.7909,401.1943 L228.6545,401.3175 L234.5182,401.2373 L240.3818,401.4057 L246.2455,401.4542 L252.1091,401.7314 L257.9727,401.7997 L263.8364,401.8063 L269.7,401.2629 " fill="none" style="stroke:#181818;stroke-width:0.6;stroke-dasharray:2.0,2.0;"/><text fill="#000000" font-family="FG Virgil" font-size="7.8" lengthAdjust="spacing" textLength="27" x="147.9" y="398.1053">booking</text><polygon fill="#181818" points="26.1,417.6375,26.1156,417.6765,24.8692,418.0406,23.7144,418.6334,22.5297,419.1517,21.247,419.425,20.1,420.0375,20.0942,420.0231,21.2683,420.4383,22.4715,420.9263,23.6949,421.4648,24.8486,421.8291,26.1,422.4375,26.1783,422.5158,25.5309,421.8684,25.112,421.4495,24.7211,421.0586,24.1679,420.5054,23.7,420.0375,23.7097,420.0472,24.1755,419.553,24.6852,419.1027,25.1738,418.6313,25.7028,418.2003,26.1,417.6375" style="stroke:#181818;stroke-width:0.6;"/><path d="M22.5,420.0375 L22.5,420.2056 L28.3737,419.706 L34.2474,420.1921 L40.1211,420.3572 L45.9947,419.4668 L51.8684,419.9753 L57.7421,419.6963 L63.6158,419.7307 L69.4895,419.983 L75.3632,419.4844 L81.2368,420.4804 L87.1105,419.5333 L92.9842,419.8793 L98.8579,420.3831 L104.7316,419.9689 L110.6053,420.0921 L116.4789,420.0119 L122.3526,420.1803 L128.2263,420.2288 L134.1,420.0375 " fill="none" style="stroke:#181818;stroke-width:0.6;stroke-dasharray:2.0,2.0;"/><text fill="#000000" font-family="FG Virgil" font-size="7.8" lengthAdjust="spacing" textLength="97.8" x="29.7" y="416.8799">Display Booking Info or error</text><!--SRC=[rLHDZvim4BtpAqPxIWxv0mX5ocwq5OVsqDtqrCii7c0Ki95jic9_VGV2PqJQNEi3nCnxRyRpnd5drXLQB257hJujUqyQlAqfS6EeDDeakJKbtKOgJCwOqPjl2W9BYP_55ALO5_xLQFy3XVhw3NwnpRYOOLoEodoopY35mb4GOEADXHTqEPC5T71eFmI2zfnmXTh3TxJdPsD48pku8nLy8Klg5BTeUKPHPScHzkZPwFt-0UwBb6XDKLmppdPHX5LLSB8czVHnrGbxlQUMUpGbiXQUwdu8HQ773tG4FUmdLSQndAbfyQt6x4iKsN4ZtA0xFEnsUpbOs1K_o7J9XlhRhl45FGai05dI1k5C1maXiIJnO8nAk1CFuU0cKM_Ef3lCClCoVYT5tu_dvhr5RVfjjzbsbB7AYNNLQfSs4h2SvHvCElSWX9oLag74skV6ybTd1jHEObajKwGz4VpM6oSlLr72AIUW63CPiEsKu1z9thWKfrCc1HLPnqxkGKAFoSw4f2TBJqF954lvdjDcfIV36dkpP4zvRYPbjzxy4QxehueJLOHQX-Vy6VVMgUNe7DbL1JR3UAmCZl1JjgMxDpFbwdqS-lJ0s2nRtr-_K8xGIMsszv2t9Zcyq3BjV-BAAHRikXyGwzI0k47Mod_eJE0K_m40]--></g></svg>