<?xml version="1.0" encoding="us-ascii" standalone="no"?><svg xmlns="http://www.w3.org/2000/svg" xmlns:xlink="http://www.w3.org/1999/xlink" contentStyleType="text/css" height="645.6px" preserveAspectRatio="none" style="width:554px;height:645px;background:#FFFFFF;" version="1.1" viewBox="0 0 554 645" width="554.4px" zoomAndPan="magnify"><defs/><g><!--cluster Presentation--><g id="cluster_Presentation"><path d="M141.9,3.6082 L196.5,3.6082 A2.25,2.25 0 0 1 198,5.1082 L202.2,18.3809 L251.7,18.3809 A1.5,1.5 0 0 1 253.2,19.8809 L253.2,65.7082 A1.5,1.5 0 0 1 251.7,67.2082 L141.9,67.2082 A1.5,1.5 0 0 1 140.4,65.7082 L140.4,5.1082 A1.5,1.5 0 0 1 141.9,3.6082 " fill="none" style="stroke:#000000;stroke-width:0.8999999999999999;"/><line style="stroke:#000000;stroke-width:0.8999999999999999;" x1="140.4" x2="202.2" y1="18.3809" y2="18.3809"/><text fill="#000000" font-family="sans-serif" font-size="8.4" font-weight="bold" lengthAdjust="spacing" textLength="54" x="142.8" y="13.8727">Presentation</text></g><!--cluster Application--><g id="cluster_Application"><path d="M5.1,87.0082 L52.5,87.0082 A2.25,2.25 0 0 1 54,88.5082 L58.2,101.7809 L302.7,101.7809 A1.5,1.5 0 0 1 304.2,103.2809 L304.2,365.1082 A1.5,1.5 0 0 1 302.7,366.6082 L5.1,366.6082 A1.5,1.5 0 0 1 3.6,365.1082 L3.6,88.5082 A1.5,1.5 0 0 1 5.1,87.0082 " fill="none" style="stroke:#000000;stroke-width:0.8999999999999999;"/><line style="stroke:#000000;stroke-width:0.8999999999999999;" x1="3.6" x2="58.2" y1="101.7809" y2="101.7809"/><text fill="#000000" font-family="sans-serif" font-size="8.4" font-weight="bold" lengthAdjust="spacing" textLength="46.8" x="6" y="97.2727">Application</text></g><!--cluster Persistence--><g id="cluster_Persistence"><path d="M320.1,292.2082 L371.1,292.2082 A2.25,2.25 0 0 1 372.6,293.7082 L376.8,306.9809 L439.5,306.9809 A1.5,1.5 0 0 1 441,308.4809 L441,365.1082 A1.5,1.5 0 0 1 439.5,366.6082 L320.1,366.6082 A1.5,1.5 0 0 1 318.6,365.1082 L318.6,293.7082 A1.5,1.5 0 0 1 320.1,292.2082 " fill="none" style="stroke:#000000;stroke-width:0.8999999999999999;"/><line style="stroke:#000000;stroke-width:0.8999999999999999;" x1="318.6" x2="376.8" y1="306.9809" y2="306.9809"/><text fill="#000000" font-family="sans-serif" font-size="8.4" font-weight="bold" lengthAdjust="spacing" textLength="50.4" x="321" y="302.4727">Persistence</text></g><!--cluster Domain--><g id="cluster_Domain"><path d="M271.5,397.2082 L303.3,397.2082 A2.25,2.25 0 0 1 304.8,398.7082 L309,411.9809 L532.5,411.9809 A1.5,1.5 0 0 1 534,413.4809 L534,639.9082 A1.5,1.5 0 0 1 532.5,641.4082 L271.5,641.4082 A1.5,1.5 0 0 1 270,639.9082 L270,398.7082 A1.5,1.5 0 0 1 271.5,397.2082 " fill="none" style="stroke:#000000;stroke-width:0.8999999999999999;"/><line style="stroke:#000000;stroke-width:0.8999999999999999;" x1="270" x2="309" y1="411.9809" y2="411.9809"/><text fill="#000000" font-family="sans-serif" font-size="8.4" font-weight="bold" lengthAdjust="spacing" textLength="31.2" x="272.4" y="407.4727">Domain</text></g><!--class ChangePasswordUI--><g id="elem_ChangePasswordUI"><rect codeLine="6" fill="#F1F1F1" height="31.5492" id="ChangePasswordUI" rx="1.5" ry="1.5" style="stroke:#181818;stroke-width:0.3;" width="93" x="150.3" y="25.8082"/><ellipse cx="159.3" cy="39.1828" fill="#ADD1B2" rx="6.6" ry="6.6" style="stroke:#181818;stroke-width:0.6;"/><path d="M160.9594,36.7078 Q161.0531,36.5766 161.1656,36.5109 Q161.2781,36.4453 161.4094,36.4453 Q161.6344,36.4453 161.775,36.6047 Q161.9156,36.7547 161.9156,37.1203 L161.9156,37.9922 Q161.9156,38.3578 161.775,38.5172 Q161.6344,38.6766 161.4094,38.6766 Q161.2031,38.6766 161.0812,38.5547 Q160.9594,38.4422 160.8937,38.1328 Q160.8656,37.9172 160.7531,37.8047 Q160.5563,37.5797 160.1906,37.4484 Q159.825,37.3172 159.45,37.3172 Q158.9906,37.3172 158.6063,37.5141 Q158.2313,37.7109 157.9313,38.1609 Q157.6406,38.6109 157.6406,39.2297 L157.6406,39.8859 Q157.6406,40.6266 158.175,41.1234 Q158.7094,41.6109 159.6656,41.6109 Q160.2281,41.6109 160.6219,41.4609 Q160.8563,41.3672 161.1094,41.1047 Q161.2687,40.9453 161.3531,40.8984 Q161.4469,40.8516 161.5688,40.8516 Q161.7656,40.8516 161.9156,41.0109 Q162.075,41.1609 162.075,41.3672 Q162.075,41.5734 161.8688,41.8172 Q161.5688,42.1641 161.0906,42.3609 Q160.4438,42.6328 159.6656,42.6328 Q158.7563,42.6328 158.0344,42.2578 Q157.4438,41.9578 157.0313,41.3203 Q156.6188,40.6734 156.6188,39.9047 L156.6188,39.2109 Q156.6188,38.4141 156.9844,37.7297 Q157.3594,37.0359 158.0156,36.6703 Q158.6719,36.2953 159.4125,36.2953 Q159.8531,36.2953 160.2375,36.3984 Q160.6313,36.4922 160.9594,36.7078 Z " fill="#000000"/><text fill="#000000" font-family="sans-serif" font-size="7.2" font-style="italic" lengthAdjust="spacing" textLength="49.2" x="180" y="36.5777">&#171;presentation&#187;</text><text fill="#000000" font-family="sans-serif" font-size="8.4" lengthAdjust="spacing" textLength="73.8" x="167.7" y="47.4492">ChangePasswordUI</text><line style="stroke:#181818;stroke-width:0.3;" x1="150.9" x2="242.7" y1="52.5574" y2="52.5574"/></g><!--class AuthzRegistry--><g id="elem_AuthzRegistry"><rect codeLine="11" fill="#F1F1F1" height="53.8945" id="AuthzRegistry" rx="1.5" ry="1.5" style="stroke:#181818;stroke-width:0.3;" width="189" x="13.5" y="109.2082"/><ellipse cx="79.35" cy="122.5828" fill="#ADD1B2" rx="6.6" ry="6.6" style="stroke:#181818;stroke-width:0.6;"/><path d="M81.0094,120.1078 Q81.1031,119.9766 81.2156,119.9109 Q81.3281,119.8453 81.4594,119.8453 Q81.6844,119.8453 81.825,120.0047 Q81.9656,120.1547 81.9656,120.5203 L81.9656,121.3922 Q81.9656,121.7578 81.825,121.9172 Q81.6844,122.0766 81.4594,122.0766 Q81.2531,122.0766 81.1313,121.9547 Q81.0094,121.8422 80.9438,121.5328 Q80.9156,121.3172 80.8031,121.2047 Q80.6063,120.9797 80.2406,120.8484 Q79.875,120.7172 79.5,120.7172 Q79.0406,120.7172 78.6563,120.9141 Q78.2813,121.1109 77.9813,121.5609 Q77.6906,122.0109 77.6906,122.6297 L77.6906,123.2859 Q77.6906,124.0266 78.225,124.5234 Q78.7594,125.0109 79.7156,125.0109 Q80.2781,125.0109 80.6719,124.8609 Q80.9063,124.7672 81.1594,124.5047 Q81.3188,124.3453 81.4031,124.2984 Q81.4969,124.2516 81.6187,124.2516 Q81.8156,124.2516 81.9656,124.4109 Q82.125,124.5609 82.125,124.7672 Q82.125,124.9734 81.9188,125.2172 Q81.6187,125.5641 81.1406,125.7609 Q80.4937,126.0328 79.7156,126.0328 Q78.8062,126.0328 78.0844,125.6578 Q77.4937,125.3578 77.0813,124.7203 Q76.6688,124.0734 76.6688,123.3047 L76.6688,122.6109 Q76.6688,121.8141 77.0344,121.1297 Q77.4094,120.4359 78.0656,120.0703 Q78.7219,119.6953 79.4625,119.6953 Q79.9031,119.6953 80.2875,119.7984 Q80.6812,119.8922 81.0094,120.1078 Z " fill="#000000"/><text fill="#000000" font-family="sans-serif" font-size="7.2" font-style="italic" lengthAdjust="spacing" textLength="25.2" x="105.15" y="119.9777">&#171;utility&#187;</text><text fill="#000000" font-family="sans-serif" font-size="8.4" lengthAdjust="spacing" textLength="52.2" x="91.65" y="130.8492">AuthzRegistry</text><line style="stroke:#181818;stroke-width:0.3;" x1="14.1" x2="201.9" y1="135.9574" y2="135.9574"/><text fill="#000000" font-family="sans-serif" font-size="8.4" lengthAdjust="spacing" textLength="181.8" x="17.1" y="147.4219">+authenticationService() : AuthenticationService</text><text fill="#000000" font-family="sans-serif" font-size="8.4" lengthAdjust="spacing" textLength="172.2" x="17.1" y="158.5945">+authorizationService() : AuthorizationService</text></g><!--class AuthenticationService--><g id="elem_AuthenticationService"><rect codeLine="16" fill="#F1F1F1" height="42.7219" id="AuthenticationService" rx="1.5" ry="1.5" style="stroke:#181818;stroke-width:0.3;" width="180.6" x="113.7" y="210.6082"/><ellipse cx="160.35" cy="223.9828" fill="#ADD1B2" rx="6.6" ry="6.6" style="stroke:#181818;stroke-width:0.6;"/><path d="M162.0094,221.5078 Q162.1031,221.3766 162.2156,221.3109 Q162.3281,221.2453 162.4594,221.2453 Q162.6844,221.2453 162.825,221.4047 Q162.9656,221.5547 162.9656,221.9203 L162.9656,222.7922 Q162.9656,223.1578 162.825,223.3172 Q162.6844,223.4766 162.4594,223.4766 Q162.2531,223.4766 162.1313,223.3547 Q162.0094,223.2422 161.9438,222.9328 Q161.9156,222.7172 161.8031,222.6047 Q161.6063,222.3797 161.2406,222.2484 Q160.875,222.1172 160.5,222.1172 Q160.0406,222.1172 159.6563,222.3141 Q159.2813,222.5109 158.9813,222.9609 Q158.6906,223.4109 158.6906,224.0297 L158.6906,224.6859 Q158.6906,225.4266 159.225,225.9234 Q159.7594,226.4109 160.7156,226.4109 Q161.2781,226.4109 161.6719,226.2609 Q161.9063,226.1672 162.1594,225.9047 Q162.3188,225.7453 162.4031,225.6984 Q162.4969,225.6516 162.6188,225.6516 Q162.8156,225.6516 162.9656,225.8109 Q163.125,225.9609 163.125,226.1672 Q163.125,226.3734 162.9188,226.6172 Q162.6188,226.9641 162.1406,227.1609 Q161.4938,227.4328 160.7156,227.4328 Q159.8063,227.4328 159.0844,227.0578 Q158.4938,226.7578 158.0812,226.1203 Q157.6688,225.4734 157.6688,224.7047 L157.6688,224.0109 Q157.6688,223.2141 158.0344,222.5297 Q158.4094,221.8359 159.0656,221.4703 Q159.7219,221.0953 160.4625,221.0953 Q160.9031,221.0953 161.2875,221.1984 Q161.6813,221.2922 162.0094,221.5078 Z " fill="#000000"/><text fill="#000000" font-family="sans-serif" font-size="7.2" font-style="italic" lengthAdjust="spacing" textLength="44.4" x="191.55" y="221.3777">&#171;application&#187;</text><text fill="#000000" font-family="sans-serif" font-size="8.4" lengthAdjust="spacing" textLength="82.2" x="172.65" y="232.2492">AuthenticationService</text><line style="stroke:#181818;stroke-width:0.3;" x1="114.3" x2="293.7" y1="237.3574" y2="237.3574"/><text fill="#000000" font-family="sans-serif" font-size="8.4" lengthAdjust="spacing" textLength="173.4" x="117.3" y="248.8219">+changePassword(oldPwd, newPwd): boolean</text></g><!--class AuthorizationService--><g id="elem_AuthorizationService"><rect codeLine="20" fill="#F1F1F1" height="42.7219" id="AuthorizationService" rx="1.5" ry="1.5" style="stroke:#181818;stroke-width:0.3;" width="142.8" x="132.6" y="314.4082"/><ellipse cx="162.75" cy="327.7828" fill="#ADD1B2" rx="6.6" ry="6.6" style="stroke:#181818;stroke-width:0.6;"/><path d="M164.4094,325.3078 Q164.5031,325.1766 164.6156,325.1109 Q164.7281,325.0453 164.8594,325.0453 Q165.0844,325.0453 165.225,325.2047 Q165.3656,325.3547 165.3656,325.7203 L165.3656,326.5922 Q165.3656,326.9578 165.225,327.1172 Q165.0844,327.2766 164.8594,327.2766 Q164.6531,327.2766 164.5313,327.1547 Q164.4094,327.0422 164.3438,326.7328 Q164.3156,326.5172 164.2031,326.4047 Q164.0063,326.1797 163.6406,326.0484 Q163.275,325.9172 162.9,325.9172 Q162.4406,325.9172 162.0563,326.1141 Q161.6813,326.3109 161.3813,326.7609 Q161.0906,327.2109 161.0906,327.8297 L161.0906,328.4859 Q161.0906,329.2266 161.625,329.7234 Q162.1594,330.2109 163.1156,330.2109 Q163.6781,330.2109 164.0719,330.0609 Q164.3063,329.9672 164.5594,329.7047 Q164.7188,329.5453 164.8031,329.4984 Q164.8969,329.4516 165.0187,329.4516 Q165.2156,329.4516 165.3656,329.6109 Q165.525,329.7609 165.525,329.9672 Q165.525,330.1734 165.3188,330.4172 Q165.0187,330.7641 164.5406,330.9609 Q163.8937,331.2328 163.1156,331.2328 Q162.2062,331.2328 161.4844,330.8578 Q160.8937,330.5578 160.4813,329.9203 Q160.0688,329.2734 160.0688,328.5047 L160.0688,327.8109 Q160.0688,327.0141 160.4344,326.3297 Q160.8094,325.6359 161.4656,325.2703 Q162.1219,324.8953 162.8625,324.8953 Q163.3031,324.8953 163.6875,324.9984 Q164.0812,325.0922 164.4094,325.3078 Z " fill="#000000"/><text fill="#000000" font-family="sans-serif" font-size="7.2" font-style="italic" lengthAdjust="spacing" textLength="44.4" x="191.55" y="325.1777">&#171;application&#187;</text><text fill="#000000" font-family="sans-serif" font-size="8.4" lengthAdjust="spacing" textLength="77.4" x="175.05" y="336.0492">AuthorizationService</text><line style="stroke:#181818;stroke-width:0.3;" x1="133.2" x2="274.8" y1="341.1574" y2="341.1574"/><text fill="#000000" font-family="sans-serif" font-size="8.4" lengthAdjust="spacing" textLength="135.6" x="136.2" y="352.6219">+session() : Optional&lt;UserSession&gt;</text></g><!--class UserRepository--><g id="elem_UserRepository"><rect codeLine="26" fill="#F1F1F1" height="42.7219" id="UserRepository" rx="1.5" ry="1.5" style="stroke:#181818;stroke-width:0.3;" width="102.6" x="328.5" y="314.4082"/><ellipse cx="348.84" cy="327.7828" fill="#ADD1B2" rx="6.6" ry="6.6" style="stroke:#181818;stroke-width:0.6;"/><path d="M350.4994,325.3078 Q350.5931,325.1766 350.7056,325.1109 Q350.8181,325.0453 350.9494,325.0453 Q351.1744,325.0453 351.315,325.2047 Q351.4556,325.3547 351.4556,325.7203 L351.4556,326.5922 Q351.4556,326.9578 351.315,327.1172 Q351.1744,327.2766 350.9494,327.2766 Q350.7431,327.2766 350.6213,327.1547 Q350.4994,327.0422 350.4338,326.7328 Q350.4056,326.5172 350.2931,326.4047 Q350.0963,326.1797 349.7306,326.0484 Q349.365,325.9172 348.99,325.9172 Q348.5306,325.9172 348.1462,326.1141 Q347.7712,326.3109 347.4713,326.7609 Q347.1806,327.2109 347.1806,327.8297 L347.1806,328.4859 Q347.1806,329.2266 347.715,329.7234 Q348.2494,330.2109 349.2056,330.2109 Q349.7681,330.2109 350.1619,330.0609 Q350.3962,329.9672 350.6494,329.7047 Q350.8088,329.5453 350.8931,329.4984 Q350.9869,329.4516 351.1088,329.4516 Q351.3056,329.4516 351.4556,329.6109 Q351.615,329.7609 351.615,329.9672 Q351.615,330.1734 351.4088,330.4172 Q351.1088,330.7641 350.6306,330.9609 Q349.9838,331.2328 349.2056,331.2328 Q348.2963,331.2328 347.5744,330.8578 Q346.9838,330.5578 346.5712,329.9203 Q346.1588,329.2734 346.1588,328.5047 L346.1588,327.8109 Q346.1588,327.0141 346.5244,326.3297 Q346.8994,325.6359 347.5556,325.2703 Q348.2119,324.8953 348.9525,324.8953 Q349.3931,324.8953 349.7775,324.9984 Q350.1713,325.0922 350.4994,325.3078 Z " fill="#000000"/><text fill="#000000" font-family="sans-serif" font-size="7.2" font-style="italic" lengthAdjust="spacing" textLength="40.8" x="368.46" y="325.1777">&#171;repository&#187;</text><text fill="#000000" font-family="sans-serif" font-size="8.4" lengthAdjust="spacing" textLength="58.2" x="359.76" y="336.0492">UserRepository</text><line style="stroke:#181818;stroke-width:0.3;" x1="329.1" x2="430.5" y1="341.1574" y2="341.1574"/><text fill="#000000" font-family="sans-serif" font-size="8.4" lengthAdjust="spacing" textLength="95.4" x="332.1" y="352.6219">+save(user): SystemUser</text></g><!--class UserSession--><g id="elem_UserSession"><rect codeLine="32" fill="#F1F1F1" height="42.7219" id="UserSession" rx="1.5" ry="1.5" style="stroke:#181818;stroke-width:0.3;" width="139.2" x="283.8" y="419.4082"/><ellipse cx="327.15" cy="432.7828" fill="#ADD1B2" rx="6.6" ry="6.6" style="stroke:#181818;stroke-width:0.6;"/><path d="M328.8094,430.3078 Q328.9031,430.1766 329.0156,430.1109 Q329.1281,430.0453 329.2594,430.0453 Q329.4844,430.0453 329.625,430.2047 Q329.7656,430.3547 329.7656,430.7203 L329.7656,431.5922 Q329.7656,431.9578 329.625,432.1172 Q329.4844,432.2766 329.2594,432.2766 Q329.0531,432.2766 328.9313,432.1547 Q328.8094,432.0422 328.7438,431.7328 Q328.7156,431.5172 328.6031,431.4047 Q328.4063,431.1797 328.0406,431.0484 Q327.675,430.9172 327.3,430.9172 Q326.8406,430.9172 326.4563,431.1141 Q326.0813,431.3109 325.7813,431.7609 Q325.4906,432.2109 325.4906,432.8297 L325.4906,433.4859 Q325.4906,434.2266 326.025,434.7234 Q326.5594,435.2109 327.5156,435.2109 Q328.0781,435.2109 328.4719,435.0609 Q328.7063,434.9672 328.9594,434.7047 Q329.1188,434.5453 329.2031,434.4984 Q329.2969,434.4516 329.4188,434.4516 Q329.6156,434.4516 329.7656,434.6109 Q329.925,434.7609 329.925,434.9672 Q329.925,435.1734 329.7188,435.4172 Q329.4188,435.7641 328.9406,435.9609 Q328.2938,436.2328 327.5156,436.2328 Q326.6063,436.2328 325.8844,435.8578 Q325.2938,435.5578 324.8812,434.9203 Q324.4688,434.2734 324.4688,433.5047 L324.4688,432.8109 Q324.4688,432.0141 324.8344,431.3297 Q325.2094,430.6359 325.8656,430.2703 Q326.5219,429.8953 327.2625,429.8953 Q327.7031,429.8953 328.0875,429.9984 Q328.4813,430.0922 328.8094,430.3078 Z " fill="#000000"/><text fill="#000000" font-family="sans-serif" font-size="7.2" font-style="italic" lengthAdjust="spacing" textLength="33.6" x="346.35" y="430.1777">&#171;domain&#187;</text><text fill="#000000" font-family="sans-serif" font-size="8.4" lengthAdjust="spacing" textLength="47.4" x="339.45" y="441.0492">UserSession</text><line style="stroke:#181818;stroke-width:0.3;" x1="284.4" x2="422.4" y1="446.1574" y2="446.1574"/><text fill="#000000" font-family="sans-serif" font-size="8.4" lengthAdjust="spacing" textLength="132" x="287.4" y="457.6219">+authenticatedUser() : SystemUser</text></g><!--class SystemUser--><g id="elem_SystemUser"><rect codeLine="36" fill="#F1F1F1" height="53.8945" id="SystemUser" rx="1.5" ry="1.5" style="stroke:#181818;stroke-width:0.3;" width="172.2" x="311.7" y="498.6082"/><ellipse cx="372.75" cy="511.9828" fill="#ADD1B2" rx="6.6" ry="6.6" style="stroke:#181818;stroke-width:0.6;"/><path d="M374.4094,509.5078 Q374.5031,509.3766 374.6156,509.3109 Q374.7281,509.2453 374.8594,509.2453 Q375.0844,509.2453 375.225,509.4047 Q375.3656,509.5547 375.3656,509.9203 L375.3656,510.7922 Q375.3656,511.1578 375.225,511.3172 Q375.0844,511.4766 374.8594,511.4766 Q374.6531,511.4766 374.5313,511.3547 Q374.4094,511.2422 374.3438,510.9328 Q374.3156,510.7172 374.2031,510.6047 Q374.0062,510.3797 373.6406,510.2484 Q373.275,510.1172 372.9,510.1172 Q372.4406,510.1172 372.0563,510.3141 Q371.6813,510.5109 371.3812,510.9609 Q371.0906,511.4109 371.0906,512.0297 L371.0906,512.6859 Q371.0906,513.4266 371.625,513.9234 Q372.1594,514.4109 373.1156,514.4109 Q373.6781,514.4109 374.0719,514.2609 Q374.3063,514.1672 374.5594,513.9047 Q374.7188,513.7453 374.8031,513.6984 Q374.8969,513.6516 375.0188,513.6516 Q375.2156,513.6516 375.3656,513.8109 Q375.525,513.9609 375.525,514.1672 Q375.525,514.3734 375.3187,514.6172 Q375.0188,514.9641 374.5406,515.1609 Q373.8938,515.4328 373.1156,515.4328 Q372.2063,515.4328 371.4844,515.0578 Q370.8938,514.7578 370.4813,514.1203 Q370.0687,513.4734 370.0687,512.7047 L370.0687,512.0109 Q370.0687,511.2141 370.4344,510.5297 Q370.8094,509.8359 371.4656,509.4703 Q372.1219,509.0953 372.8625,509.0953 Q373.3031,509.0953 373.6875,509.1984 Q374.0813,509.2922 374.4094,509.5078 Z " fill="#000000"/><text fill="#000000" font-family="sans-serif" font-size="7.2" font-style="italic" lengthAdjust="spacing" textLength="33.6" x="390.75" y="509.3777">&#171;domain&#187;</text><text fill="#000000" font-family="sans-serif" font-size="8.4" lengthAdjust="spacing" textLength="45" x="385.05" y="520.2492">SystemUser</text><line style="stroke:#181818;stroke-width:0.3;" x1="312.3" x2="483.3" y1="525.3574" y2="525.3574"/><text fill="#000000" font-family="sans-serif" font-size="8.4" lengthAdjust="spacing" textLength="165" x="315.3" y="536.8219">+passwordMatches(pwd, encoder): boolean</text><text fill="#000000" font-family="sans-serif" font-size="8.4" lengthAdjust="spacing" textLength="106.2" x="315.3" y="547.9945">+changePassword(newPwd)</text></g><!--class Password--><g id="elem_Password"><rect codeLine="41" fill="#F1F1F1" height="42.7219" id="Password" rx="1.5" ry="1.5" style="stroke:#181818;stroke-width:0.3;" width="244.8" x="279.6" y="589.2082"/><ellipse cx="381.15" cy="602.5828" fill="#ADD1B2" rx="6.6" ry="6.6" style="stroke:#181818;stroke-width:0.6;"/><path d="M382.8094,600.1078 Q382.9031,599.9766 383.0156,599.9109 Q383.1281,599.8453 383.2594,599.8453 Q383.4844,599.8453 383.625,600.0047 Q383.7656,600.1547 383.7656,600.5203 L383.7656,601.3922 Q383.7656,601.7578 383.625,601.9172 Q383.4844,602.0766 383.2594,602.0766 Q383.0531,602.0766 382.9313,601.9547 Q382.8094,601.8422 382.7438,601.5328 Q382.7156,601.3172 382.6031,601.2047 Q382.4063,600.9797 382.0406,600.8484 Q381.675,600.7172 381.3,600.7172 Q380.8406,600.7172 380.4563,600.9141 Q380.0813,601.1109 379.7813,601.5609 Q379.4906,602.0109 379.4906,602.6297 L379.4906,603.2859 Q379.4906,604.0266 380.025,604.5234 Q380.5594,605.0109 381.5156,605.0109 Q382.0781,605.0109 382.4719,604.8609 Q382.7063,604.7672 382.9594,604.5047 Q383.1188,604.3453 383.2031,604.2984 Q383.2969,604.2516 383.4188,604.2516 Q383.6156,604.2516 383.7656,604.4109 Q383.925,604.5609 383.925,604.7672 Q383.925,604.9734 383.7188,605.2172 Q383.4188,605.5641 382.9406,605.7609 Q382.2938,606.0328 381.5156,606.0328 Q380.6063,606.0328 379.8844,605.6578 Q379.2938,605.3578 378.8812,604.7203 Q378.4688,604.0734 378.4688,603.3047 L378.4688,602.6109 Q378.4688,601.8141 378.8344,601.1297 Q379.2094,600.4359 379.8656,600.0703 Q380.5219,599.6953 381.2625,599.6953 Q381.7031,599.6953 382.0875,599.7984 Q382.4813,599.8922 382.8094,600.1078 Z " fill="#000000"/><text fill="#000000" font-family="sans-serif" font-size="7.2" font-style="italic" lengthAdjust="spacing" textLength="33.6" x="394.95" y="599.9777">&#171;domain&#187;</text><text fill="#000000" font-family="sans-serif" font-size="8.4" lengthAdjust="spacing" textLength="36.6" x="393.45" y="610.8492">Password</text><line style="stroke:#181818;stroke-width:0.3;" x1="280.2" x2="523.8" y1="615.9574" y2="615.9574"/><text fill="#000000" font-family="sans-serif" font-size="8.4" lengthAdjust="spacing" textLength="237.6" x="283.2" y="627.4219">+encodedAndValid(pwd, policy, encoder): Optional&lt;Password&gt;</text></g><!--link ChangePasswordUI to AuthzRegistry--><g id="link_ChangePasswordUI_AuthzRegistry"><path codeLine="48" d="M182.136,57.7162 C168.888,71.6362 151.5761,89.8247 135.7721,106.4267 " fill="none" id="ChangePasswordUI-to-AuthzRegistry" style="stroke:#181818;stroke-width:0.6;stroke-dasharray:7.0,7.0;"/><polygon fill="#181818" points="133.29,109.0342,138.7515,106.7777,135.3585,106.8613,135.2749,103.4682,133.29,109.0342" style="stroke:#181818;stroke-width:0.6;"/></g><!--link ChangePasswordUI to AuthenticationService--><g id="link_ChangePasswordUI_AuthenticationService"><path codeLine="49" d="M204.306,57.6802 C207.522,64.9462 210.996,73.8442 213,82.2082 C224.466,130.0642 231.72,144.4942 221.4,192.6082 C220.104,198.6562 219.2512,201.6156 216.7192,207.2796 " fill="none" id="ChangePasswordUI-to-AuthenticationService" style="stroke:#181818;stroke-width:0.6;stroke-dasharray:7.0,7.0;"/><polygon fill="#181818" points="215.25,210.5662,219.6448,206.6158,216.4743,207.8274,215.2628,204.6569,215.25,210.5662" style="stroke:#181818;stroke-width:0.6;"/></g><!--link AuthzRegistry to AuthenticationService--><g id="link_AuthzRegistry_AuthenticationService"><path codeLine="51" d="M121.866,163.2142 C127.848,173.1262 135.438,184.0462 144,192.6082 C150.618,199.2262 155.5585,203.3015 163.4545,208.5875 " fill="none" id="AuthzRegistry-to-AuthenticationService" style="stroke:#181818;stroke-width:0.6;"/><polygon fill="#181818" points="166.446,210.5902,163.2938,205.5918,163.9531,208.9213,160.6236,209.5805,166.446,210.5902" style="stroke:#181818;stroke-width:0.6;"/><text fill="#000000" font-family="sans-serif" font-size="7.8" lengthAdjust="spacing" textLength="73.8" x="144.6" y="190.2252">authenticationService</text></g><!--link AuthzRegistry to AuthorizationService--><g id="link_AuthzRegistry_AuthorizationService"><path codeLine="52" d="M76.956,163.3642 C52.944,187.2442 26.634,223.0942 45,253.2082 C64.194,284.6902 96.4287,303.3182 129.0807,315.6062 " fill="none" id="AuthzRegistry-to-AuthorizationService" style="stroke:#181818;stroke-width:0.6;"/><polygon fill="#181818" points="132.45,316.8742,128.2414,312.726,129.6422,315.8176,126.5507,317.2184,132.45,316.8742" style="stroke:#181818;stroke-width:0.6;"/><text fill="#000000" font-family="sans-serif" font-size="7.8" lengthAdjust="spacing" textLength="57" x="45.6" y="235.2252">authorizationSvc</text></g><!--link AuthenticationService to AuthorizationService--><g id="link_AuthenticationService_AuthorizationService"><path codeLine="54" d="M204,253.2682 C204,271.0702 204,292.9822 204,310.7782 " fill="none" id="AuthenticationService-to-AuthorizationService" style="stroke:#181818;stroke-width:0.6;stroke-dasharray:7.0,7.0;"/><polygon fill="#181818" points="204,314.3782,206.4,308.9782,204,311.3782,201.6,308.9782,204,314.3782" style="stroke:#181818;stroke-width:0.6;"/><text fill="#000000" font-family="sans-serif" font-size="7.8" lengthAdjust="spacing" textLength="19.2" x="204.6" y="280.2252">authz</text></g><!--link AuthenticationService to SystemUser--><g id="link_AuthenticationService_SystemUser"><path codeLine="55" d="M294.396,241.8322 C353.328,249.9862 422.586,264.2422 441,287.4082 C490.698,349.9342 444.3327,447.8686 416.4207,495.4786 " fill="none" id="AuthenticationService-to-SystemUser" style="stroke:#181818;stroke-width:0.6;stroke-dasharray:7.0,7.0;"/><polygon fill="#181818" points="414.6,498.5842,419.4015,495.1396,416.1173,495.9962,415.2607,492.7119,414.6,498.5842" style="stroke:#181818;stroke-width:0.6;"/><text fill="#000000" font-family="sans-serif" font-size="7.8" lengthAdjust="spacing" textLength="15" x="461.4" y="385.2252">user</text></g><!--link AuthenticationService to Password--><g id="link_AuthenticationService_Password"><path codeLine="56" d="M294.306,238.1782 C339.858,243.2602 395.262,252.9082 442.2,271.2082 C482.622,286.9642 516,291.7222 516,335.1082 C516,335.1082 516,335.1082 516,526.2082 C516,555.7342 494.0757,574.3959 467.3997,587.5719 " fill="none" id="AuthenticationService-to-Password" style="stroke:#181818;stroke-width:0.6;stroke-dasharray:7.0,7.0;"/><polygon fill="#181818" points="464.172,589.1662,470.0765,588.9266,466.8618,587.8376,467.9508,584.623,464.172,589.1662" style="stroke:#181818;stroke-width:0.6;"/><text fill="#000000" font-family="sans-serif" font-size="7.8" lengthAdjust="spacing" textLength="33" x="516.6" y="444.0252">password</text></g><!--link AuthenticationService to UserRepository--><g id="link_AuthenticationService_UserRepository"><path codeLine="57" d="M243.336,253.3342 C261.936,263.3662 284.37,275.7382 304.2,287.4082 C318.708,295.9522 331.4652,303.8857 344.8452,312.4237 " fill="none" id="AuthenticationService-to-UserRepository" style="stroke:#181818;stroke-width:0.6;stroke-dasharray:7.0,7.0;"/><polygon fill="#181818" points="347.88,314.3602,344.6189,309.4322,345.351,312.7464,342.0368,313.4786,347.88,314.3602" style="stroke:#181818;stroke-width:0.6;"/><text fill="#000000" font-family="sans-serif" font-size="7.8" lengthAdjust="spacing" textLength="10.8" x="294" y="280.2252">rep</text></g><!--link AuthorizationService to UserSession--><g id="link_AuthorizationService_UserSession"><path codeLine="59" d="M233.874,357.0622 C259.932,375.1702 294.5775,399.2401 320.6235,417.3361 " fill="none" id="AuthorizationService-to-UserSession" style="stroke:#181818;stroke-width:0.6;"/><polygon fill="#181818" points="323.58,419.3902,320.5147,414.3381,321.1163,417.6785,317.7759,418.2801,323.58,419.3902" style="stroke:#181818;stroke-width:0.6;"/><text fill="#000000" font-family="sans-serif" font-size="7.8" lengthAdjust="spacing" textLength="43.2" x="274.8" y="385.2252">userSession</text></g><!--link UserSession to SystemUser--><g id="link_UserSession_SystemUser"><path codeLine="61" d="M364.488,462.2122 C370.32,473.2042 375.8384,483.6143 382.0604,495.3383 " fill="none" id="UserSession-to-SystemUser" style="stroke:#181818;stroke-width:0.6;"/><polygon fill="#181818" points="383.748,498.5182,383.3365,492.6232,382.3417,495.8683,379.0966,494.8734,383.748,498.5182" style="stroke:#181818;stroke-width:0.6;"/></g><!--link SystemUser to Password--><g id="link_SystemUser_Password"><path codeLine="63" d="M399.126,552.6922 C399.72,564.4762 400.222,574.5488 400.78,585.5708 " fill="none" id="SystemUser-to-Password" style="stroke:#181818;stroke-width:0.6;"/><polygon fill="#181818" points="400.962,589.1662,403.0859,583.6518,400.8103,586.17,398.292,583.8945,400.962,589.1662" style="stroke:#181818;stroke-width:0.6;"/></g><!--SRC=[VLFBRi8m4BpxAwnU6jI7UeuG4YgN7ggYelPkx1LO1Dko3IYf-kzTvrKJ9-G2oSxEp7gyxY2LOPOTAI-OSqllhToUFBnnhJQo0lf2zb80XQFn9MLTsH5Y63-m7T2xjGK7oZCljRgZFuJYKvFHrprJErZZtuksukkDpkSc0YyMBVgN_4PyIsCAoKVebYU_hpvX9vst9NATl2oaBtkQy3nGXYXKQ1asOC-IGpQZUTsVL0QTsifgj75OQ8qFx2NqQ9FzppEmog_E9zE5M5_48rLmmTzPJhTQ5y3KkDJGq4qb1yxXrtgQ3nC0h9X_ER2Rfh0OoM4Drk5HW-9mdKFe-mIZdVIw3iBsBqDPTeRiX70SPbCYrp7qZcYjz959bSgqzb13r8Zfh444V3rWeXIH_jUcE4qRnplpV0ykCo4IF0GjwZ7YJ4PJRDDBfJl4b72Z8PPAVBD2YaROQ4oqZ0tqyNLyNNRXGE_f2WmeWN29IveiuFFpudgDfY7fff3h1NnwcW1Y1ADBED6VNEHyi8bdtaYdGftN2OhgHbjq4N8QhkWDR9zStj-E6-Z1UkGKrwCP8B4PZY2-vesJzesGk1IWqSKcaVzGwYmIyWS0]--></g></svg>