<?xml version="1.0" encoding="us-ascii" standalone="no"?><svg xmlns="http://www.w3.org/2000/svg" xmlns:xlink="http://www.w3.org/1999/xlink" contentStyleType="text/css" height="349px" preserveAspectRatio="none" style="width:479px;height:349px;background:#FFFFFF;" version="1.1" viewBox="0 0 479 349" width="479px" zoomAndPan="magnify"><defs/><g><!--class {NameOfUC}X--><g id="elem_{NameOfUC}X"><rect codeLine="5" fill="#F1F1F1" height="52.582" id="{NameOfUC}X" rx="2.5" ry="2.5" style="stroke:#181818;stroke-width:0.5;" width="120" x="80" y="7"/><ellipse cx="95" cy="29.291" fill="#ADD1B2" rx="11" ry="11" style="stroke:#181818;stroke-width:1.0;"/><path d="M97.7656,25.166 Q97.9219,24.9473 98.1094,24.8379 Q98.2969,24.7285 98.5156,24.7285 Q98.8906,24.7285 99.125,24.9941 Q99.3594,25.2441 99.3594,25.8535 L99.3594,27.3066 Q99.3594,27.916 99.125,28.1816 Q98.8906,28.4473 98.5156,28.4473 Q98.1719,28.4473 97.9688,28.2441 Q97.7656,28.0566 97.6563,27.541 Q97.6094,27.1816 97.4219,26.9941 Q97.0938,26.6191 96.4844,26.4004 Q95.875,26.1816 95.25,26.1816 Q94.4844,26.1816 93.8438,26.5098 Q93.2188,26.8379 92.7188,27.5879 Q92.2344,28.3379 92.2344,29.3691 L92.2344,30.4629 Q92.2344,31.6973 93.125,32.5254 Q94.0156,33.3379 95.6094,33.3379 Q96.5469,33.3379 97.2031,33.0879 Q97.5938,32.9316 98.0156,32.4941 Q98.2813,32.2285 98.4219,32.1504 Q98.5781,32.0723 98.7813,32.0723 Q99.1094,32.0723 99.3594,32.3379 Q99.625,32.5879 99.625,32.9316 Q99.625,33.2754 99.2813,33.6816 Q98.7813,34.2598 97.9844,34.5879 Q96.9063,35.041 95.6094,35.041 Q94.0938,35.041 92.8906,34.416 Q91.9063,33.916 91.2188,32.8535 Q90.5313,31.7754 90.5313,30.4941 L90.5313,29.3379 Q90.5313,28.0098 91.1406,26.8691 Q91.7656,25.7129 92.8594,25.1035 Q93.9531,24.4785 95.1875,24.4785 Q95.9219,24.4785 96.5625,24.6504 Q97.2188,24.8066 97.7656,25.166 Z " fill="#000000"/><text fill="#000000" font-family="sans-serif" font-size="12" font-style="italic" lengthAdjust="spacing" textLength="74" x="116" y="24.9492">&#171;application&#187;</text><text fill="#000000" font-family="sans-serif" font-size="14" lengthAdjust="spacing" textLength="88" x="109" y="43.0684">{NameOfUC}X</text><line style="stroke:#181818;stroke-width:0.5;" x1="81" x2="199" y1="51.582" y2="51.582"/></g><!--class AuthorizationService--><g id="elem_AuthorizationService"><rect codeLine="8" fill="#F1F1F1" height="71.2031" id="AuthorizationService" rx="2.5" ry="2.5" style="stroke:#181818;stroke-width:0.5;" width="284" x="7" y="271"/><ellipse cx="80.25" cy="293.291" fill="#ADD1B2" rx="11" ry="11" style="stroke:#181818;stroke-width:1.0;"/><path d="M83.0156,289.166 Q83.1719,288.9473 83.3594,288.8379 Q83.5469,288.7285 83.7656,288.7285 Q84.1406,288.7285 84.375,288.9941 Q84.6094,289.2441 84.6094,289.8535 L84.6094,291.3066 Q84.6094,291.916 84.375,292.1816 Q84.1406,292.4473 83.7656,292.4473 Q83.4219,292.4473 83.2188,292.2441 Q83.0156,292.0566 82.9063,291.541 Q82.8594,291.1816 82.6719,290.9941 Q82.3438,290.6191 81.7344,290.4004 Q81.125,290.1816 80.5,290.1816 Q79.7344,290.1816 79.0938,290.5098 Q78.4688,290.8379 77.9688,291.5879 Q77.4844,292.3379 77.4844,293.3691 L77.4844,294.4629 Q77.4844,295.6973 78.375,296.5254 Q79.2656,297.3379 80.8594,297.3379 Q81.7969,297.3379 82.4531,297.0879 Q82.8438,296.9316 83.2656,296.4941 Q83.5313,296.2285 83.6719,296.1504 Q83.8281,296.0723 84.0313,296.0723 Q84.3594,296.0723 84.6094,296.3379 Q84.875,296.5879 84.875,296.9316 Q84.875,297.2754 84.5313,297.6816 Q84.0313,298.2598 83.2344,298.5879 Q82.1563,299.041 80.8594,299.041 Q79.3438,299.041 78.1406,298.416 Q77.1563,297.916 76.4688,296.8535 Q75.7813,295.7754 75.7813,294.4941 L75.7813,293.3379 Q75.7813,292.0098 76.3906,290.8691 Q77.0156,289.7129 78.1094,289.1035 Q79.2031,288.4785 80.4375,288.4785 Q81.1719,288.4785 81.8125,288.6504 Q82.4688,288.8066 83.0156,289.166 Z " fill="#000000"/><text fill="#000000" font-family="sans-serif" font-size="12" font-style="italic" lengthAdjust="spacing" textLength="53" x="138.75" y="288.9492">&#171;service&#187;</text><text fill="#000000" font-family="sans-serif" font-size="14" lengthAdjust="spacing" textLength="129" x="100.75" y="307.0684">AuthorizationService</text><line style="stroke:#181818;stroke-width:0.5;" x1="8" x2="290" y1="315.582" y2="315.582"/><text fill="#000000" font-family="sans-serif" font-size="14" lengthAdjust="spacing" textLength="272" x="13" y="334.6895">+ensureAuthenticatedUserHasAnyOf(roles)</text></g><!--class AuthzRegistry--><g id="elem_AuthzRegistry"><rect codeLine="12" fill="#F1F1F1" height="71.2031" id="AuthzRegistry" rx="2.5" ry="2.5" style="stroke:#181818;stroke-width:0.5;" width="299" x="173.5" y="121"/><ellipse cx="275.25" cy="143.291" fill="#ADD1B2" rx="11" ry="11" style="stroke:#181818;stroke-width:1.0;"/><path d="M278.0156,139.166 Q278.1719,138.9473 278.3594,138.8379 Q278.5469,138.7285 278.7656,138.7285 Q279.1406,138.7285 279.375,138.9941 Q279.6094,139.2441 279.6094,139.8535 L279.6094,141.3066 Q279.6094,141.916 279.375,142.1816 Q279.1406,142.4473 278.7656,142.4473 Q278.4219,142.4473 278.2188,142.2441 Q278.0156,142.0566 277.9063,141.541 Q277.8594,141.1816 277.6719,140.9941 Q277.3438,140.6191 276.7344,140.4004 Q276.125,140.1816 275.5,140.1816 Q274.7344,140.1816 274.0938,140.5098 Q273.4688,140.8379 272.9688,141.5879 Q272.4844,142.3379 272.4844,143.3691 L272.4844,144.4629 Q272.4844,145.6973 273.375,146.5254 Q274.2656,147.3379 275.8594,147.3379 Q276.7969,147.3379 277.4531,147.0879 Q277.8438,146.9316 278.2656,146.4941 Q278.5313,146.2285 278.6719,146.1504 Q278.8281,146.0723 279.0313,146.0723 Q279.3594,146.0723 279.6094,146.3379 Q279.875,146.5879 279.875,146.9316 Q279.875,147.2754 279.5313,147.6816 Q279.0313,148.2598 278.2344,148.5879 Q277.1563,149.041 275.8594,149.041 Q274.3438,149.041 273.1406,148.416 Q272.1563,147.916 271.4688,146.8535 Q270.7813,145.7754 270.7813,144.4941 L270.7813,143.3379 Q270.7813,142.0098 271.3906,140.8691 Q272.0156,139.7129 273.1094,139.1035 Q274.2031,138.4785 275.4375,138.4785 Q276.1719,138.4785 276.8125,138.6504 Q277.4688,138.8066 278.0156,139.166 Z " fill="#000000"/><text fill="#000000" font-family="sans-serif" font-size="12" font-style="italic" lengthAdjust="spacing" textLength="42" x="318.25" y="138.9492">&#171;utility&#187;</text><text fill="#000000" font-family="sans-serif" font-size="14" lengthAdjust="spacing" textLength="87" x="295.75" y="157.0684">AuthzRegistry</text><line style="stroke:#181818;stroke-width:0.5;" x1="174.5" x2="471.5" y1="165.582" y2="165.582"/><text fill="#000000" font-family="sans-serif" font-size="14" lengthAdjust="spacing" textLength="287" x="179.5" y="184.6895">+authorizationService() : AuthorizationService</text></g><!--link {NameOfUC}X to AuthzRegistry--><g id="link_{NameOfUC}X_AuthzRegistry"><path codeLine="16" d="M178.81,60.16 C205.56,77.85 236.4248,98.2612 265.6948,117.6112 " fill="none" id="{NameOfUC}X-to-AuthzRegistry" style="stroke:#181818;stroke-width:1.0;stroke-dasharray:7.0,7.0;"/><polygon fill="#181818" points="270.7,120.92,265.3982,112.62,266.529,118.1626,260.9864,119.2935,270.7,120.92" style="stroke:#181818;stroke-width:1.0;"/></g><!--link {NameOfUC}X to AuthorizationService--><g id="link_{NameOfUC}X_AuthorizationService"><path codeLine="17" d="M140.86,60.48 C142.49,109.5 145.8208,209.6333 147.6508,264.7333 " fill="none" id="{NameOfUC}X-to-AuthorizationService" style="stroke:#181818;stroke-width:1.0;stroke-dasharray:7.0,7.0;"/><polygon fill="#181818" points="147.85,270.73,151.549,261.6022,147.684,265.7328,143.5535,261.8677,147.85,270.73" style="stroke:#181818;stroke-width:1.0;"/></g><!--link AuthzRegistry to AuthorizationService--><g id="link_AuthzRegistry_AuthorizationService"><path codeLine="18" d="M282.2,192.2 C254.38,215.87 222.2405,243.2027 194.4105,266.8727 " fill="none" id="AuthzRegistry-to-AuthorizationService" style="stroke:#181818;stroke-width:1.0;"/><polygon fill="#181818" points="189.84,270.76,199.2872,267.9761,193.6487,267.5206,194.1042,261.8821,189.84,270.76" style="stroke:#181818;stroke-width:1.0;"/><text fill="#000000" font-family="sans-serif" font-size="13" lengthAdjust="spacing" textLength="95" x="248" y="237.0283">authorizationSvc</text></g><!--SRC=[TO_1gi9034NtynN1bIAAQv52SQCR1KLm6yUemNPQ9gdGYl_kj0_X3TQi0lTmSYDtTYLwpC5cA9AgUZvLIcjRk3qt13DpupC1vQNMW9zOZEbu63mtcDFsSbY-ZWDOBB0iCxQeNBWaWQTvVS2qqblXkUcYFVa7Mmgy_6qT2s76G4ugJorEJbiLdG-1Mg6ahjvUXhx8I4QnkDdHbKLz7OoLSiPQ_pDYp-dX2EQzdLfn_DHqciH7VkHVfhZPPDAFXHvnmOSrRm00]--></g></svg>