<?xml version="1.0" encoding="us-ascii" standalone="no"?><svg xmlns="http://www.w3.org/2000/svg" xmlns:xlink="http://www.w3.org/1999/xlink" contentStyleType="text/css" height="570px" preserveAspectRatio="none" style="width:399px;height:570px;background:#FFFFFF;" version="1.1" viewBox="0 0 399 570" width="399px" zoomAndPan="magnify"><defs/><g><!--cluster Presentation--><g id="cluster_Presentation"><path d="M252.5,6.0137 L343.5,6.0137 A3.75,3.75 0 0 1 346,8.5137 L353,30.6348 L389.5,30.6348 A2.5,2.5 0 0 1 392,33.1348 L392,109.5137 A2.5,2.5 0 0 1 389.5,112.0137 L252.5,112.0137 A2.5,2.5 0 0 1 250,109.5137 L250,8.5137 A2.5,2.5 0 0 1 252.5,6.0137 " fill="none" style="stroke:#000000;stroke-width:1.5;"/><line style="stroke:#000000;stroke-width:1.5;" x1="250" x2="353" y1="30.6348" y2="30.6348"/><text fill="#000000" font-family="sans-serif" font-size="14" font-weight="bold" lengthAdjust="spacing" textLength="90" x="254" y="23.1211">Presentation</text></g><!--cluster Application--><g id="cluster_Application"><path d="M8.5,145.0137 L87.5,145.0137 A3.75,3.75 0 0 1 90,147.5137 L97,169.6348 L335.5,169.6348 A2.5,2.5 0 0 1 338,172.1348 L338,416.5137 A2.5,2.5 0 0 1 335.5,419.0137 L8.5,419.0137 A2.5,2.5 0 0 1 6,416.5137 L6,147.5137 A2.5,2.5 0 0 1 8.5,145.0137 " fill="none" style="stroke:#000000;stroke-width:1.5;"/><line style="stroke:#000000;stroke-width:1.5;" x1="6" x2="97" y1="169.6348" y2="169.6348"/><text fill="#000000" font-family="sans-serif" font-size="14" font-weight="bold" lengthAdjust="spacing" textLength="78" x="10" y="162.1211">Application</text></g><!--cluster Domain--><g id="cluster_Domain"><path d="M112.5,470.0137 L165.5,470.0137 A3.75,3.75 0 0 1 168,472.5137 L175,494.6348 L251.5,494.6348 A2.5,2.5 0 0 1 254,497.1348 L254,560.5137 A2.5,2.5 0 0 1 251.5,563.0137 L112.5,563.0137 A2.5,2.5 0 0 1 110,560.5137 L110,472.5137 A2.5,2.5 0 0 1 112.5,470.0137 " fill="none" style="stroke:#000000;stroke-width:1.5;"/><line style="stroke:#000000;stroke-width:1.5;" x1="110" x2="175" y1="494.6348" y2="494.6348"/><text fill="#000000" font-family="sans-serif" font-size="14" font-weight="bold" lengthAdjust="spacing" textLength="52" x="114" y="487.1211">Domain</text></g><!--class LogoutUI--><g id="elem_LogoutUI"><rect codeLine="6" fill="#F1F1F1" height="52.582" id="LogoutUI" rx="2.5" ry="2.5" style="stroke:#181818;stroke-width:0.5;" width="110" x="266" y="43.0137"/><ellipse cx="281" cy="65.3047" fill="#ADD1B2" rx="11" ry="11" style="stroke:#181818;stroke-width:1.0;"/><path d="M283.7656,61.1797 Q283.9219,60.9609 284.1094,60.8516 Q284.2969,60.7422 284.5156,60.7422 Q284.8906,60.7422 285.125,61.0078 Q285.3594,61.2578 285.3594,61.8672 L285.3594,63.3203 Q285.3594,63.9297 285.125,64.1953 Q284.8906,64.4609 284.5156,64.4609 Q284.1719,64.4609 283.9688,64.2578 Q283.7656,64.0703 283.6563,63.5547 Q283.6094,63.1953 283.4219,63.0078 Q283.0938,62.6328 282.4844,62.4141 Q281.875,62.1953 281.25,62.1953 Q280.4844,62.1953 279.8438,62.5234 Q279.2188,62.8516 278.7188,63.6016 Q278.2344,64.3516 278.2344,65.3828 L278.2344,66.4766 Q278.2344,67.7109 279.125,68.5391 Q280.0156,69.3516 281.6094,69.3516 Q282.5469,69.3516 283.2031,69.1016 Q283.5938,68.9453 284.0156,68.5078 Q284.2813,68.2422 284.4219,68.1641 Q284.5781,68.0859 284.7813,68.0859 Q285.1094,68.0859 285.3594,68.3516 Q285.625,68.6016 285.625,68.9453 Q285.625,69.2891 285.2813,69.6953 Q284.7813,70.2734 283.9844,70.6016 Q282.9063,71.0547 281.6094,71.0547 Q280.0938,71.0547 278.8906,70.4297 Q277.9063,69.9297 277.2188,68.8672 Q276.5313,67.7891 276.5313,66.5078 L276.5313,65.3516 Q276.5313,64.0234 277.1406,62.8828 Q277.7656,61.7266 278.8594,61.1172 Q279.9531,60.4922 281.1875,60.4922 Q281.9219,60.4922 282.5625,60.6641 Q283.2188,60.8203 283.7656,61.1797 Z " fill="#000000"/><text fill="#000000" font-family="sans-serif" font-size="12" font-style="italic" lengthAdjust="spacing" textLength="82" x="293" y="60.9629">&#171;presentation&#187;</text><text fill="#000000" font-family="sans-serif" font-size="14" lengthAdjust="spacing" textLength="56" x="306" y="79.082">LogoutUI</text><line style="stroke:#181818;stroke-width:0.5;" x1="267" x2="375" y1="87.5957" y2="87.5957"/></g><!--class AuthorizationService--><g id="elem_AuthorizationService"><rect codeLine="11" fill="#F1F1F1" height="71.2031" id="AuthorizationService" rx="2.5" ry="2.5" style="stroke:#181818;stroke-width:0.5;" width="271" x="46.5" y="332.0137"/><ellipse cx="113.25" cy="354.3047" fill="#ADD1B2" rx="11" ry="11" style="stroke:#181818;stroke-width:1.0;"/><path d="M116.0156,350.1797 Q116.1719,349.9609 116.3594,349.8516 Q116.5469,349.7422 116.7656,349.7422 Q117.1406,349.7422 117.375,350.0078 Q117.6094,350.2578 117.6094,350.8672 L117.6094,352.3203 Q117.6094,352.9297 117.375,353.1953 Q117.1406,353.4609 116.7656,353.4609 Q116.4219,353.4609 116.2188,353.2578 Q116.0156,353.0703 115.9063,352.5547 Q115.8594,352.1953 115.6719,352.0078 Q115.3438,351.6328 114.7344,351.4141 Q114.125,351.1953 113.5,351.1953 Q112.7344,351.1953 112.0938,351.5234 Q111.4688,351.8516 110.9688,352.6016 Q110.4844,353.3516 110.4844,354.3828 L110.4844,355.4766 Q110.4844,356.7109 111.375,357.5391 Q112.2656,358.3516 113.8594,358.3516 Q114.7969,358.3516 115.4531,358.1016 Q115.8438,357.9453 116.2656,357.5078 Q116.5313,357.2422 116.6719,357.1641 Q116.8281,357.0859 117.0313,357.0859 Q117.3594,357.0859 117.6094,357.3516 Q117.875,357.6016 117.875,357.9453 Q117.875,358.2891 117.5313,358.6953 Q117.0313,359.2734 116.2344,359.6016 Q115.1563,360.0547 113.8594,360.0547 Q112.3438,360.0547 111.1406,359.4297 Q110.1563,358.9297 109.4688,357.8672 Q108.7813,356.7891 108.7813,355.5078 L108.7813,354.3516 Q108.7813,353.0234 109.3906,351.8828 Q110.0156,350.7266 111.1094,350.1172 Q112.2031,349.4922 113.4375,349.4922 Q114.1719,349.4922 114.8125,349.6641 Q115.4688,349.8203 116.0156,350.1797 Z " fill="#000000"/><text fill="#000000" font-family="sans-serif" font-size="12" font-style="italic" lengthAdjust="spacing" textLength="53" x="171.75" y="349.9629">&#171;service&#187;</text><text fill="#000000" font-family="sans-serif" font-size="14" lengthAdjust="spacing" textLength="129" x="133.75" y="368.082">AuthorizationService</text><line style="stroke:#181818;stroke-width:0.5;" x1="47.5" x2="316.5" y1="376.5957" y2="376.5957"/><text fill="#000000" font-family="sans-serif" font-size="14" lengthAdjust="spacing" textLength="259" x="52.5" y="395.7031">+clearSession() : Optional&lt;UserSession&gt;</text></g><!--class AuthzRegistry--><g id="elem_AuthzRegistry"><rect codeLine="15" fill="#F1F1F1" height="71.2031" id="AuthzRegistry" rx="2.5" ry="2.5" style="stroke:#181818;stroke-width:0.5;" width="299" x="22.5" y="182.0137"/><ellipse cx="124.25" cy="204.3047" fill="#ADD1B2" rx="11" ry="11" style="stroke:#181818;stroke-width:1.0;"/><path d="M127.0156,200.1797 Q127.1719,199.9609 127.3594,199.8516 Q127.5469,199.7422 127.7656,199.7422 Q128.1406,199.7422 128.375,200.0078 Q128.6094,200.2578 128.6094,200.8672 L128.6094,202.3203 Q128.6094,202.9297 128.375,203.1953 Q128.1406,203.4609 127.7656,203.4609 Q127.4219,203.4609 127.2188,203.2578 Q127.0156,203.0703 126.9063,202.5547 Q126.8594,202.1953 126.6719,202.0078 Q126.3438,201.6328 125.7344,201.4141 Q125.125,201.1953 124.5,201.1953 Q123.7344,201.1953 123.0938,201.5234 Q122.4688,201.8516 121.9688,202.6016 Q121.4844,203.3516 121.4844,204.3828 L121.4844,205.4766 Q121.4844,206.7109 122.375,207.5391 Q123.2656,208.3516 124.8594,208.3516 Q125.7969,208.3516 126.4531,208.1016 Q126.8438,207.9453 127.2656,207.5078 Q127.5313,207.2422 127.6719,207.1641 Q127.8281,207.0859 128.0313,207.0859 Q128.3594,207.0859 128.6094,207.3516 Q128.875,207.6016 128.875,207.9453 Q128.875,208.2891 128.5313,208.6953 Q128.0313,209.2734 127.2344,209.6016 Q126.1563,210.0547 124.8594,210.0547 Q123.3438,210.0547 122.1406,209.4297 Q121.1563,208.9297 120.4688,207.8672 Q119.7813,206.7891 119.7813,205.5078 L119.7813,204.3516 Q119.7813,203.0234 120.3906,201.8828 Q121.0156,200.7266 122.1094,200.1172 Q123.2031,199.4922 124.4375,199.4922 Q125.1719,199.4922 125.8125,199.6641 Q126.4688,199.8203 127.0156,200.1797 Z " fill="#000000"/><text fill="#000000" font-family="sans-serif" font-size="12" font-style="italic" lengthAdjust="spacing" textLength="42" x="167.25" y="199.9629">&#171;utility&#187;</text><text fill="#000000" font-family="sans-serif" font-size="14" lengthAdjust="spacing" textLength="87" x="144.75" y="218.082">AuthzRegistry</text><line style="stroke:#181818;stroke-width:0.5;" x1="23.5" x2="320.5" y1="226.5957" y2="226.5957"/><text fill="#000000" font-family="sans-serif" font-size="14" lengthAdjust="spacing" textLength="287" x="28.5" y="245.7031">+authorizationService() : AuthorizationService</text></g><!--class UserSession--><g id="elem_UserSession"><rect codeLine="21" fill="#F1F1F1" height="40" id="UserSession" rx="2.5" ry="2.5" style="stroke:#181818;stroke-width:0.5;" width="111" x="126.5" y="507.0137"/><ellipse cx="141.5" cy="523.0137" fill="#ADD1B2" rx="11" ry="11" style="stroke:#181818;stroke-width:1.0;"/><path d="M144.2656,518.8887 Q144.4219,518.6699 144.6094,518.5605 Q144.7969,518.4512 145.0156,518.4512 Q145.3906,518.4512 145.625,518.7168 Q145.8594,518.9668 145.8594,519.5762 L145.8594,521.0293 Q145.8594,521.6387 145.625,521.9043 Q145.3906,522.1699 145.0156,522.1699 Q144.6719,522.1699 144.4688,521.9668 Q144.2656,521.7793 144.1563,521.2637 Q144.1094,520.9043 143.9219,520.7168 Q143.5938,520.3418 142.9844,520.123 Q142.375,519.9043 141.75,519.9043 Q140.9844,519.9043 140.3438,520.2324 Q139.7188,520.5605 139.2188,521.3105 Q138.7344,522.0605 138.7344,523.0918 L138.7344,524.1855 Q138.7344,525.4199 139.625,526.248 Q140.5156,527.0605 142.1094,527.0605 Q143.0469,527.0605 143.7031,526.8105 Q144.0938,526.6543 144.5156,526.2168 Q144.7813,525.9512 144.9219,525.873 Q145.0781,525.7949 145.2813,525.7949 Q145.6094,525.7949 145.8594,526.0605 Q146.125,526.3105 146.125,526.6543 Q146.125,526.998 145.7813,527.4043 Q145.2813,527.9824 144.4844,528.3105 Q143.4063,528.7637 142.1094,528.7637 Q140.5938,528.7637 139.3906,528.1387 Q138.4063,527.6387 137.7188,526.5762 Q137.0313,525.498 137.0313,524.2168 L137.0313,523.0605 Q137.0313,521.7324 137.6406,520.5918 Q138.2656,519.4355 139.3594,518.8262 Q140.4531,518.2012 141.6875,518.2012 Q142.4219,518.2012 143.0625,518.373 Q143.7188,518.5293 144.2656,518.8887 Z " fill="#000000"/><text fill="#000000" font-family="sans-serif" font-size="14" lengthAdjust="spacing" textLength="79" x="155.5" y="528.8105">UserSession</text><line style="stroke:#181818;stroke-width:0.5;" x1="127.5" x2="236.5" y1="539.0137" y2="539.0137"/></g><!--link LogoutUI to AuthorizationService--><g id="link_LogoutUI_AuthorizationService"><path codeLine="25" d="M331.36,96.0537 C344.5,132.6337 362.78,201.2237 339,253.0137 C323.21,287.4037 296.144,310.4287 264.974,328.8687 " fill="none" id="LogoutUI-to-AuthorizationService" style="stroke:#181818;stroke-width:1.0;stroke-dasharray:7.0,7.0;"/><polygon fill="#181818" points="259.81,331.9237,269.5927,330.7838,264.1133,329.3778,265.5193,323.8985,259.81,331.9237" style="stroke:#181818;stroke-width:1.0;"/></g><!--link LogoutUI to AuthzRegistry--><g id="link_LogoutUI_AuthzRegistry"><path codeLine="26" d="M294.7,96.2837 C270.39,120.1037 238.3656,151.4844 211.5456,177.7644 " fill="none" id="LogoutUI-to-AuthzRegistry" style="stroke:#181818;stroke-width:1.0;stroke-dasharray:7.0,7.0;"/><polygon fill="#181818" points="207.26,181.9637,216.4879,178.5218,210.8313,178.4643,210.8888,172.8077,207.26,181.9637" style="stroke:#181818;stroke-width:1.0;"/></g><!--link AuthzRegistry to AuthorizationService--><g id="link_AuthzRegistry_AuthorizationService"><path codeLine="27" d="M174.34,253.2137 C175.94,276.8837 177.6453,302.1173 179.2453,325.7873 " fill="none" id="AuthzRegistry-to-AuthorizationService" style="stroke:#181818;stroke-width:1.0;"/><polygon fill="#181818" points="179.65,331.7737,183.0339,322.5244,179.3128,326.7851,175.0521,323.0639,179.65,331.7737" style="stroke:#181818;stroke-width:1.0;"/><text fill="#000000" font-family="sans-serif" font-size="13" lengthAdjust="spacing" textLength="95" x="178" y="298.042">authorizationSvc</text></g><!--link AuthorizationService to UserSession--><g id="link_AuthorizationService_UserSession"><path codeLine="28" d="M182,403.0737 C182,434.9537 182,475.1037 182,500.8437 " fill="none" id="AuthorizationService-to-UserSession" style="stroke:#181818;stroke-width:1.0;stroke-dasharray:7.0,7.0;"/><polygon fill="#181818" points="182,506.8437,186,497.8437,182,501.8437,178,497.8437,182,506.8437" style="stroke:#181818;stroke-width:1.0;"/><text fill="#000000" font-family="sans-serif" font-size="13" lengthAdjust="spacing" textLength="45" x="183" y="450.042">session</text></g><!--SRC=[RP31QiCm38RlVWhHqyPesRc4G62NGc5ZeG-WUI8LJM9ZAuLazDtdf5bmC-iaqAzF_oz_uTQYmmPqZTuN8ew_Eg63Dct90y6hElCt0JLMUi2_iLVAehvWHR3vSEIf5HGsxGP-58IQO70qbUdaT80iiv4epsVLJTqYJc5jpJg1AJev6yV3D2h9NLbJGFfxjz36UWahXAuaxuFswHdsy6x7DQopKrYO1_byVdLa-AIAlRW-q3lXcgLVqJ5XPRgIyfZ8-6OQv5Myo5Vyb-LvkrsUnlzJBFxLOvhjDaq8lXy3NRLAwiO3iSqz-7kdVW40]--></g></svg>