<?xml version="1.0" encoding="us-ascii" standalone="no"?><svg xmlns="http://www.w3.org/2000/svg" xmlns:xlink="http://www.w3.org/1999/xlink" contentStyleType="text/css" height="710px" preserveAspectRatio="none" style="width:904px;height:710px;background:#FFFFFF;" version="1.1" viewBox="0 0 904 710" width="904px" zoomAndPan="magnify"><defs/><g><!--cluster Presentation--><g id="cluster_Presentation"><path d="M4.25,7.5068 L49.75,7.5068 A1.875,1.875 0 0 1 51,8.7568 L54.5,19.8174 L72.75,19.8174 A1.25,1.25 0 0 1 74,21.0674 L74,59.2568 A1.25,1.25 0 0 1 72.75,60.5068 L4.25,60.5068 A1.25,1.25 0 0 1 3,59.2568 L3,8.7568 A1.25,1.25 0 0 1 4.25,7.5068 " fill="none" style="stroke:#000000;stroke-width:0.75;"/><line style="stroke:#000000;stroke-width:0.75;" x1="3" x2="54.5" y1="19.8174" y2="19.8174"/><text fill="#000000" font-family="sans-serif" font-size="7" font-weight="bold" lengthAdjust="spacing" textLength="45" x="5" y="16.0605">Presentation</text></g><!--cluster Application--><g id="cluster_Application"><path d="M87.25,3.0068 L126.75,3.0068 A1.875,1.875 0 0 1 128,4.2568 L131.5,15.3174 L548.25,15.3174 A1.25,1.25 0 0 1 549.5,16.5674 L549.5,291.2568 A1.25,1.25 0 0 1 548.25,292.5068 L87.25,292.5068 A1.25,1.25 0 0 1 86,291.2568 L86,4.2568 A1.25,1.25 0 0 1 87.25,3.0068 " fill="none" style="stroke:#000000;stroke-width:0.75;"/><line style="stroke:#000000;stroke-width:0.75;" x1="86" x2="131.5" y1="15.3174" y2="15.3174"/><text fill="#000000" font-family="sans-serif" font-size="7" font-weight="bold" lengthAdjust="spacing" textLength="39" x="88" y="11.5605">Application</text></g><!--cluster Persistence--><g id="cluster_Persistence"><path d="M562.75,230.5068 L605.25,230.5068 A1.875,1.875 0 0 1 606.5,231.7568 L610,242.8174 L729.25,242.8174 A1.25,1.25 0 0 1 730.5,244.0674 L730.5,291.2568 A1.25,1.25 0 0 1 729.25,292.5068 L562.75,292.5068 A1.25,1.25 0 0 1 561.5,291.2568 L561.5,231.7568 A1.25,1.25 0 0 1 562.75,230.5068 " fill="none" style="stroke:#000000;stroke-width:0.75;"/><line style="stroke:#000000;stroke-width:0.75;" x1="561.5" x2="610" y1="242.8174" y2="242.8174"/><text fill="#000000" font-family="sans-serif" font-size="7" font-weight="bold" lengthAdjust="spacing" textLength="42" x="563.5" y="239.0605">Persistence</text></g><!--cluster Domain--><g id="cluster_Domain"><path d="M527.75,318.0068 L554.25,318.0068 A1.875,1.875 0 0 1 555.5,319.2568 L559,330.3174 L899.25,330.3174 A1.25,1.25 0 0 1 900.5,331.5674 L900.5,705.2568 A1.25,1.25 0 0 1 899.25,706.5068 L527.75,706.5068 A1.25,1.25 0 0 1 526.5,705.2568 L526.5,319.2568 A1.25,1.25 0 0 1 527.75,318.0068 " fill="none" style="stroke:#000000;stroke-width:0.75;"/><line style="stroke:#000000;stroke-width:0.75;" x1="526.5" x2="559" y1="330.3174" y2="330.3174"/><text fill="#000000" font-family="sans-serif" font-size="7" font-weight="bold" lengthAdjust="spacing" textLength="26" x="528.5" y="326.5605">Domain</text></g><!--cluster <<aggregate>> SystemUser--><g id="cluster_&lt;&lt;aggregate&gt;&gt; SystemUser"><path d="M539.75,340.5068 L627.75,340.5068 A1.875,1.875 0 0 1 629,341.7568 L632.5,352.8174 L887.25,352.8174 A1.25,1.25 0 0 1 888.5,354.0674 L888.5,693.2568 A1.25,1.25 0 0 1 887.25,694.5068 L539.75,694.5068 A1.25,1.25 0 0 1 538.5,693.2568 L538.5,341.7568 A1.25,1.25 0 0 1 539.75,340.5068 " fill="none" style="stroke:#000000;stroke-width:0.75;"/><line style="stroke:#000000;stroke-width:0.75;" x1="538.5" x2="632.5" y1="352.8174" y2="352.8174"/><text fill="#000000" font-family="sans-serif" font-size="7" font-weight="bold" lengthAdjust="spacing" textLength="87.5" x="540.5" y="349.0605">&#171;aggregate&#187; SystemUser</text></g><!--class LoginUI--><g id="elem_LoginUI"><rect codeLine="6" fill="#F1F1F1" height="26.291" id="LoginUI" rx="1.25" ry="1.25" style="stroke:#181818;stroke-width:0.25;" width="55" x="11" y="26.0068"/><ellipse cx="18.5" cy="37.1523" fill="#ADD1B2" rx="5.5" ry="5.5" style="stroke:#181818;stroke-width:0.5;"/><path d="M19.8828,35.0898 Q19.9609,34.9805 20.0547,34.9258 Q20.1484,34.8711 20.2578,34.8711 Q20.4453,34.8711 20.5625,35.0039 Q20.6797,35.1289 20.6797,35.4336 L20.6797,36.1602 Q20.6797,36.4648 20.5625,36.5977 Q20.4453,36.7305 20.2578,36.7305 Q20.0859,36.7305 19.9844,36.6289 Q19.8828,36.5352 19.8281,36.2773 Q19.8047,36.0977 19.7109,36.0039 Q19.5469,35.8164 19.2422,35.707 Q18.9375,35.5977 18.625,35.5977 Q18.2422,35.5977 17.9219,35.7617 Q17.6094,35.9258 17.3594,36.3008 Q17.1172,36.6758 17.1172,37.1914 L17.1172,37.7383 Q17.1172,38.3555 17.5625,38.7695 Q18.0078,39.1758 18.8047,39.1758 Q19.2734,39.1758 19.6016,39.0508 Q19.7969,38.9727 20.0078,38.7539 Q20.1406,38.6211 20.2109,38.582 Q20.2891,38.543 20.3906,38.543 Q20.5547,38.543 20.6797,38.6758 Q20.8125,38.8008 20.8125,38.9727 Q20.8125,39.1445 20.6406,39.3477 Q20.3906,39.6367 19.9922,39.8008 Q19.4531,40.0273 18.8047,40.0273 Q18.0469,40.0273 17.4453,39.7148 Q16.9531,39.4648 16.6094,38.9336 Q16.2656,38.3945 16.2656,37.7539 L16.2656,37.1758 Q16.2656,36.5117 16.5703,35.9414 Q16.8828,35.3633 17.4297,35.0586 Q17.9766,34.7461 18.5938,34.7461 Q18.9609,34.7461 19.2813,34.832 Q19.6094,34.9102 19.8828,35.0898 Z " fill="#000000"/><text fill="#000000" font-family="sans-serif" font-size="6" font-style="italic" lengthAdjust="spacing" textLength="41" x="24.5" y="34.9814">&#171;presentation&#187;</text><text fill="#000000" font-family="sans-serif" font-size="7" lengthAdjust="spacing" textLength="23.5" x="33.25" y="44.041">LoginUI</text><line style="stroke:#181818;stroke-width:0.25;" x1="11.5" x2="65.5" y1="48.2979" y2="48.2979"/></g><!--class CredentialHandler--><g id="elem_CredentialHandler"><rect codeLine="11" fill="#F1F1F1" height="35.6016" id="CredentialHandler" rx="1.25" ry="1.25" style="stroke:#181818;stroke-width:0.25;" width="174.5" x="94.25" y="87.5068"/><ellipse cx="150.625" cy="98.6523" fill="#B4A7E5" rx="5.5" ry="5.5" style="stroke:#181818;stroke-width:0.5;"/><path d="M151.1016,96.9727 L151.1016,100.3008 L151.9609,100.3008 Q152.2656,100.3008 152.3984,100.418 Q152.5313,100.5352 152.5313,100.7305 Q152.5313,100.918 152.3984,101.0352 Q152.2656,101.1523 151.9609,101.1523 L149.3906,101.1523 Q149.0859,101.1523 148.9531,101.0352 Q148.8203,100.918 148.8203,100.7227 Q148.8203,100.5352 148.9531,100.418 Q149.0859,100.3008 149.3906,100.3008 L150.25,100.3008 L150.25,96.9727 L149.3906,96.9727 Q149.0859,96.9727 148.9531,96.8555 Q148.8203,96.7383 148.8203,96.543 Q148.8203,96.3555 148.9531,96.2383 Q149.0859,96.1211 149.3906,96.1211 L151.9609,96.1211 Q152.2656,96.1211 152.3984,96.2383 Q152.5313,96.3555 152.5313,96.543 Q152.5313,96.7383 152.3984,96.8555 Q152.2656,96.9727 151.9609,96.9727 L151.1016,96.9727 Z " fill="#000000"/><text fill="#000000" font-family="sans-serif" font-size="6" font-style="italic" lengthAdjust="spacing" textLength="30.5" x="174.375" y="96.4814">&#171;interface&#187;</text><text fill="#000000" font-family="sans-serif" font-size="7" font-style="italic" lengthAdjust="spacing" textLength="57.5" x="160.875" y="105.541">CredentialHandler</text><line style="stroke:#181818;stroke-width:0.25;" x1="94.75" x2="268.25" y1="109.7979" y2="109.7979"/><text fill="#000000" font-family="sans-serif" font-size="7" lengthAdjust="spacing" textLength="168.5" x="97.25" y="119.3516">+authenticated(username, password, roles) : boolean</text></g><!--class AuthenticationCredentialHandler--><g id="elem_AuthenticationCredentialHandler"><rect codeLine="15" fill="#F1F1F1" height="35.6016" id="AuthenticationCredentialHandler" rx="1.25" ry="1.25" style="stroke:#181818;stroke-width:0.25;" width="174.5" x="277.75" y="21.5068"/><ellipse cx="311.875" cy="32.6523" fill="#ADD1B2" rx="5.5" ry="5.5" style="stroke:#181818;stroke-width:0.5;"/><path d="M313.2578,30.5898 Q313.3359,30.4805 313.4297,30.4258 Q313.5234,30.3711 313.6328,30.3711 Q313.8203,30.3711 313.9375,30.5039 Q314.0547,30.6289 314.0547,30.9336 L314.0547,31.6602 Q314.0547,31.9648 313.9375,32.0977 Q313.8203,32.2305 313.6328,32.2305 Q313.4609,32.2305 313.3594,32.1289 Q313.2578,32.0352 313.2031,31.7773 Q313.1797,31.5977 313.0859,31.5039 Q312.9219,31.3164 312.6172,31.207 Q312.3125,31.0977 312,31.0977 Q311.6172,31.0977 311.2969,31.2617 Q310.9844,31.4258 310.7344,31.8008 Q310.4922,32.1758 310.4922,32.6914 L310.4922,33.2383 Q310.4922,33.8555 310.9375,34.2695 Q311.3828,34.6758 312.1797,34.6758 Q312.6484,34.6758 312.9766,34.5508 Q313.1719,34.4727 313.3828,34.2539 Q313.5156,34.1211 313.5859,34.082 Q313.6641,34.043 313.7656,34.043 Q313.9297,34.043 314.0547,34.1758 Q314.1875,34.3008 314.1875,34.4727 Q314.1875,34.6445 314.0156,34.8477 Q313.7656,35.1367 313.3672,35.3008 Q312.8281,35.5273 312.1797,35.5273 Q311.4219,35.5273 310.8203,35.2148 Q310.3281,34.9648 309.9844,34.4336 Q309.6406,33.8945 309.6406,33.2539 L309.6406,32.6758 Q309.6406,32.0117 309.9453,31.4414 Q310.2578,30.8633 310.8047,30.5586 Q311.3516,30.2461 311.9688,30.2461 Q312.3359,30.2461 312.6563,30.332 Q312.9844,30.4102 313.2578,30.5898 Z " fill="#000000"/><text fill="#000000" font-family="sans-serif" font-size="6" font-style="italic" lengthAdjust="spacing" textLength="26.5" x="359.875" y="30.4814">&#171;service&#187;</text><text fill="#000000" font-family="sans-serif" font-size="7" lengthAdjust="spacing" textLength="102" x="322.125" y="39.541">AuthenticationCredentialHandler</text><line style="stroke:#181818;stroke-width:0.25;" x1="278.25" x2="451.75" y1="43.7979" y2="43.7979"/><text fill="#000000" font-family="sans-serif" font-size="7" lengthAdjust="spacing" textLength="168.5" x="280.75" y="53.3516">+authenticated(username, password, roles) : boolean</text></g><!--class AuthzRegistry--><g id="elem_AuthzRegistry"><rect codeLine="19" fill="#F1F1F1" height="35.6016" id="AuthzRegistry" rx="1.25" ry="1.25" style="stroke:#181818;stroke-width:0.25;" width="157.5" x="286.25" y="87.5068"/><ellipse cx="341.125" cy="98.6523" fill="#ADD1B2" rx="5.5" ry="5.5" style="stroke:#181818;stroke-width:0.5;"/><path d="M342.5078,96.5898 Q342.5859,96.4805 342.6797,96.4258 Q342.7734,96.3711 342.8828,96.3711 Q343.0703,96.3711 343.1875,96.5039 Q343.3047,96.6289 343.3047,96.9336 L343.3047,97.6602 Q343.3047,97.9648 343.1875,98.0977 Q343.0703,98.2305 342.8828,98.2305 Q342.7109,98.2305 342.6094,98.1289 Q342.5078,98.0352 342.4531,97.7773 Q342.4297,97.5977 342.3359,97.5039 Q342.1719,97.3164 341.8672,97.207 Q341.5625,97.0977 341.25,97.0977 Q340.8672,97.0977 340.5469,97.2617 Q340.2344,97.4258 339.9844,97.8008 Q339.7422,98.1758 339.7422,98.6914 L339.7422,99.2383 Q339.7422,99.8555 340.1875,100.2695 Q340.6328,100.6758 341.4297,100.6758 Q341.8984,100.6758 342.2266,100.5508 Q342.4219,100.4727 342.6328,100.2539 Q342.7656,100.1211 342.8359,100.082 Q342.9141,100.043 343.0156,100.043 Q343.1797,100.043 343.3047,100.1758 Q343.4375,100.3008 343.4375,100.4727 Q343.4375,100.6445 343.2656,100.8477 Q343.0156,101.1367 342.6172,101.3008 Q342.0781,101.5273 341.4297,101.5273 Q340.6719,101.5273 340.0703,101.2148 Q339.5781,100.9648 339.2344,100.4336 Q338.8906,99.8945 338.8906,99.2539 L338.8906,98.6758 Q338.8906,98.0117 339.1953,97.4414 Q339.5078,96.8633 340.0547,96.5586 Q340.6016,96.2461 341.2188,96.2461 Q341.5859,96.2461 341.9063,96.332 Q342.2344,96.4102 342.5078,96.5898 Z " fill="#000000"/><text fill="#000000" font-family="sans-serif" font-size="6" font-style="italic" lengthAdjust="spacing" textLength="21" x="362.625" y="96.4814">&#171;utility&#187;</text><text fill="#000000" font-family="sans-serif" font-size="7" lengthAdjust="spacing" textLength="43.5" x="351.375" y="105.541">AuthzRegistry</text><line style="stroke:#181818;stroke-width:0.25;" x1="286.75" x2="443.25" y1="109.7979" y2="109.7979"/><text fill="#000000" font-family="sans-serif" font-size="7" lengthAdjust="spacing" textLength="151.5" x="289.25" y="119.3516">+authenticationService() : AuthenticationService</text></g><!--class AuthenticationService--><g id="elem_AuthenticationService"><rect codeLine="23" fill="#F1F1F1" height="35.6016" id="AuthenticationService" rx="1.25" ry="1.25" style="stroke:#181818;stroke-width:0.25;" width="219" x="322.5" y="162.5068"/><ellipse cx="395.625" cy="173.6523" fill="#ADD1B2" rx="5.5" ry="5.5" style="stroke:#181818;stroke-width:0.5;"/><path d="M397.0078,171.5898 Q397.0859,171.4805 397.1797,171.4258 Q397.2734,171.3711 397.3828,171.3711 Q397.5703,171.3711 397.6875,171.5039 Q397.8047,171.6289 397.8047,171.9336 L397.8047,172.6602 Q397.8047,172.9648 397.6875,173.0977 Q397.5703,173.2305 397.3828,173.2305 Q397.2109,173.2305 397.1094,173.1289 Q397.0078,173.0352 396.9531,172.7773 Q396.9297,172.5977 396.8359,172.5039 Q396.6719,172.3164 396.3672,172.207 Q396.0625,172.0977 395.75,172.0977 Q395.3672,172.0977 395.0469,172.2617 Q394.7344,172.4258 394.4844,172.8008 Q394.2422,173.1758 394.2422,173.6914 L394.2422,174.2383 Q394.2422,174.8555 394.6875,175.2695 Q395.1328,175.6758 395.9297,175.6758 Q396.3984,175.6758 396.7266,175.5508 Q396.9219,175.4727 397.1328,175.2539 Q397.2656,175.1211 397.3359,175.082 Q397.4141,175.043 397.5156,175.043 Q397.6797,175.043 397.8047,175.1758 Q397.9375,175.3008 397.9375,175.4727 Q397.9375,175.6445 397.7656,175.8477 Q397.5156,176.1367 397.1172,176.3008 Q396.5781,176.5273 395.9297,176.5273 Q395.1719,176.5273 394.5703,176.2148 Q394.0781,175.9648 393.7344,175.4336 Q393.3906,174.8945 393.3906,174.2539 L393.3906,173.6758 Q393.3906,173.0117 393.6953,172.4414 Q394.0078,171.8633 394.5547,171.5586 Q395.1016,171.2461 395.7188,171.2461 Q396.0859,171.2461 396.4063,171.332 Q396.7344,171.4102 397.0078,171.5898 Z " fill="#000000"/><text fill="#000000" font-family="sans-serif" font-size="6" font-style="italic" lengthAdjust="spacing" textLength="26.5" x="426.875" y="171.4814">&#171;service&#187;</text><text fill="#000000" font-family="sans-serif" font-size="7" lengthAdjust="spacing" textLength="68.5" x="405.875" y="180.541">AuthenticationService</text><line style="stroke:#181818;stroke-width:0.25;" x1="323" x2="541" y1="184.7979" y2="184.7979"/><text fill="#000000" font-family="sans-serif" font-size="7" lengthAdjust="spacing" textLength="213" x="325.5" y="194.3516">+authenticate(username, password, roles) : Optional&lt;UserSession&gt;</text></g><!--class AuthorizationService--><g id="elem_AuthorizationService"><rect codeLine="27" fill="#F1F1F1" height="35.6016" id="AuthorizationService" rx="1.25" ry="1.25" style="stroke:#181818;stroke-width:0.25;" width="179.5" x="356.75" y="249.0068"/><ellipse cx="412.125" cy="260.1523" fill="#ADD1B2" rx="5.5" ry="5.5" style="stroke:#181818;stroke-width:0.5;"/><path d="M413.5078,258.0898 Q413.5859,257.9805 413.6797,257.9258 Q413.7734,257.8711 413.8828,257.8711 Q414.0703,257.8711 414.1875,258.0039 Q414.3047,258.1289 414.3047,258.4336 L414.3047,259.1602 Q414.3047,259.4648 414.1875,259.5977 Q414.0703,259.7305 413.8828,259.7305 Q413.7109,259.7305 413.6094,259.6289 Q413.5078,259.5352 413.4531,259.2773 Q413.4297,259.0977 413.3359,259.0039 Q413.1719,258.8164 412.8672,258.707 Q412.5625,258.5977 412.25,258.5977 Q411.8672,258.5977 411.5469,258.7617 Q411.2344,258.9258 410.9844,259.3008 Q410.7422,259.6758 410.7422,260.1914 L410.7422,260.7383 Q410.7422,261.3555 411.1875,261.7695 Q411.6328,262.1758 412.4297,262.1758 Q412.8984,262.1758 413.2266,262.0508 Q413.4219,261.9727 413.6328,261.7539 Q413.7656,261.6211 413.8359,261.582 Q413.9141,261.543 414.0156,261.543 Q414.1797,261.543 414.3047,261.6758 Q414.4375,261.8008 414.4375,261.9727 Q414.4375,262.1445 414.2656,262.3477 Q414.0156,262.6367 413.6172,262.8008 Q413.0781,263.0273 412.4297,263.0273 Q411.6719,263.0273 411.0703,262.7148 Q410.5781,262.4648 410.2344,261.9336 Q409.8906,261.3945 409.8906,260.7539 L409.8906,260.1758 Q409.8906,259.5117 410.1953,258.9414 Q410.5078,258.3633 411.0547,258.0586 Q411.6016,257.7461 412.2188,257.7461 Q412.5859,257.7461 412.9063,257.832 Q413.2344,257.9102 413.5078,258.0898 Z " fill="#000000"/><text fill="#000000" font-family="sans-serif" font-size="6" font-style="italic" lengthAdjust="spacing" textLength="26.5" x="441.375" y="257.9814">&#171;service&#187;</text><text fill="#000000" font-family="sans-serif" font-size="7" lengthAdjust="spacing" textLength="64.5" x="422.375" y="267.041">AuthorizationService</text><line style="stroke:#181818;stroke-width:0.25;" x1="357.25" x2="535.75" y1="271.2979" y2="271.2979"/><text fill="#000000" font-family="sans-serif" font-size="7" lengthAdjust="spacing" textLength="173.5" x="359.75" y="280.8516">+createSessionForUser(user) : Optional&lt;UserSession&gt;</text></g><!--class UserRepository--><g id="elem_UserRepository"><rect codeLine="34" fill="#F1F1F1" height="35.6016" id="UserRepository" rx="1.25" ry="1.25" style="stroke:#181818;stroke-width:0.25;" width="153" x="569.5" y="249.0068"/><ellipse cx="619.625" cy="260.1523" fill="#ADD1B2" rx="5.5" ry="5.5" style="stroke:#181818;stroke-width:0.5;"/><path d="M621.0078,258.0898 Q621.0859,257.9805 621.1797,257.9258 Q621.2734,257.8711 621.3828,257.8711 Q621.5703,257.8711 621.6875,258.0039 Q621.8047,258.1289 621.8047,258.4336 L621.8047,259.1602 Q621.8047,259.4648 621.6875,259.5977 Q621.5703,259.7305 621.3828,259.7305 Q621.2109,259.7305 621.1094,259.6289 Q621.0078,259.5352 620.9531,259.2773 Q620.9297,259.0977 620.8359,259.0039 Q620.6719,258.8164 620.3672,258.707 Q620.0625,258.5977 619.75,258.5977 Q619.3672,258.5977 619.0469,258.7617 Q618.7344,258.9258 618.4844,259.3008 Q618.2422,259.6758 618.2422,260.1914 L618.2422,260.7383 Q618.2422,261.3555 618.6875,261.7695 Q619.1328,262.1758 619.9297,262.1758 Q620.3984,262.1758 620.7266,262.0508 Q620.9219,261.9727 621.1328,261.7539 Q621.2656,261.6211 621.3359,261.582 Q621.4141,261.543 621.5156,261.543 Q621.6797,261.543 621.8047,261.6758 Q621.9375,261.8008 621.9375,261.9727 Q621.9375,262.1445 621.7656,262.3477 Q621.5156,262.6367 621.1172,262.8008 Q620.5781,263.0273 619.9297,263.0273 Q619.1719,263.0273 618.5703,262.7148 Q618.0781,262.4648 617.7344,261.9336 Q617.3906,261.3945 617.3906,260.7539 L617.3906,260.1758 Q617.3906,259.5117 617.6953,258.9414 Q618.0078,258.3633 618.5547,258.0586 Q619.1016,257.7461 619.7188,257.7461 Q620.0859,257.7461 620.4063,257.832 Q620.7344,257.9102 621.0078,258.0898 Z " fill="#000000"/><text fill="#000000" font-family="sans-serif" font-size="6" font-style="italic" lengthAdjust="spacing" textLength="34" x="637.125" y="257.9814">&#171;repository&#187;</text><text fill="#000000" font-family="sans-serif" font-size="7" lengthAdjust="spacing" textLength="48.5" x="629.875" y="267.041">UserRepository</text><line style="stroke:#181818;stroke-width:0.25;" x1="570" x2="722" y1="271.2979" y2="271.2979"/><text fill="#000000" font-family="sans-serif" font-size="7" lengthAdjust="spacing" textLength="147" x="572.5" y="280.8516">+ofIdentity(username) : Optional&lt;SystemUser&gt;</text></g><!--class SystemUser--><g id="elem_SystemUser"><rect codeLine="42" fill="#F1F1F1" height="34.2715" id="SystemUser" rx="1.25" ry="1.25" style="stroke:#181818;stroke-width:0.25;" width="53.5" x="642.75" y="416.0068"/><ellipse cx="650.25" cy="431.1426" fill="#ADD1B2" rx="5.5" ry="5.5" style="stroke:#181818;stroke-width:0.5;"/><path d="M651.6328,429.0801 Q651.7109,428.9707 651.8047,428.916 Q651.8984,428.8613 652.0078,428.8613 Q652.1953,428.8613 652.3125,428.9941 Q652.4297,429.1191 652.4297,429.4238 L652.4297,430.1504 Q652.4297,430.4551 652.3125,430.5879 Q652.1953,430.7207 652.0078,430.7207 Q651.8359,430.7207 651.7344,430.6191 Q651.6328,430.5254 651.5781,430.2676 Q651.5547,430.0879 651.4609,429.9941 Q651.2969,429.8066 650.9922,429.6973 Q650.6875,429.5879 650.375,429.5879 Q649.9922,429.5879 649.6719,429.752 Q649.3594,429.916 649.1094,430.291 Q648.8672,430.666 648.8672,431.1816 L648.8672,431.7285 Q648.8672,432.3457 649.3125,432.7598 Q649.7578,433.166 650.5547,433.166 Q651.0234,433.166 651.3516,433.041 Q651.5469,432.9629 651.7578,432.7441 Q651.8906,432.6113 651.9609,432.5723 Q652.0391,432.5332 652.1406,432.5332 Q652.3047,432.5332 652.4297,432.666 Q652.5625,432.791 652.5625,432.9629 Q652.5625,433.1348 652.3906,433.3379 Q652.1406,433.627 651.7422,433.791 Q651.2031,434.0176 650.5547,434.0176 Q649.7969,434.0176 649.1953,433.7051 Q648.7031,433.4551 648.3594,432.9238 Q648.0156,432.3848 648.0156,431.7441 L648.0156,431.166 Q648.0156,430.502 648.3203,429.9316 Q648.6328,429.3535 649.1797,429.0488 Q649.7266,428.7363 650.3438,428.7363 Q650.7109,428.7363 651.0313,428.8223 Q651.3594,428.9004 651.6328,429.0801 Z " fill="#000000"/><text fill="#000000" font-family="sans-serif" font-size="6" font-style="italic" lengthAdjust="spacing" textLength="21.5" x="665.25" y="424.9814">&#171;entity&#187;</text><text fill="#000000" font-family="sans-serif" font-size="6" font-style="italic" lengthAdjust="spacing" textLength="17.5" x="667.25" y="432.9619">&#171;root&#187;</text><text fill="#000000" font-family="sans-serif" font-size="7" lengthAdjust="spacing" textLength="37.5" x="657.25" y="442.0215">SystemUser</text><line style="stroke:#181818;stroke-width:0.25;" x1="643.25" x2="695.75" y1="446.2783" y2="446.2783"/></g><!--class Username--><g id="elem_Username"><rect codeLine="45" fill="#F1F1F1" height="34.2715" id="Username" rx="1.25" ry="1.25" style="stroke:#181818;stroke-width:0.25;" width="54.5" x="753.75" y="481.0068"/><ellipse cx="761.25" cy="496.1426" fill="#ADD1B2" rx="5.5" ry="5.5" style="stroke:#181818;stroke-width:0.5;"/><path d="M762.6328,494.0801 Q762.7109,493.9707 762.8047,493.916 Q762.8984,493.8613 763.0078,493.8613 Q763.1953,493.8613 763.3125,493.9941 Q763.4297,494.1191 763.4297,494.4238 L763.4297,495.1504 Q763.4297,495.4551 763.3125,495.5879 Q763.1953,495.7207 763.0078,495.7207 Q762.8359,495.7207 762.7344,495.6191 Q762.6328,495.5254 762.5781,495.2676 Q762.5547,495.0879 762.4609,494.9941 Q762.2969,494.8066 761.9922,494.6973 Q761.6875,494.5879 761.375,494.5879 Q760.9922,494.5879 760.6719,494.752 Q760.3594,494.916 760.1094,495.291 Q759.8672,495.666 759.8672,496.1816 L759.8672,496.7285 Q759.8672,497.3457 760.3125,497.7598 Q760.7578,498.166 761.5547,498.166 Q762.0234,498.166 762.3516,498.041 Q762.5469,497.9629 762.7578,497.7441 Q762.8906,497.6113 762.9609,497.5723 Q763.0391,497.5332 763.1406,497.5332 Q763.3047,497.5332 763.4297,497.666 Q763.5625,497.791 763.5625,497.9629 Q763.5625,498.1348 763.3906,498.3379 Q763.1406,498.627 762.7422,498.791 Q762.2031,499.0176 761.5547,499.0176 Q760.7969,499.0176 760.1953,498.7051 Q759.7031,498.4551 759.3594,497.9238 Q759.0156,497.3848 759.0156,496.7441 L759.0156,496.166 Q759.0156,495.502 759.3203,494.9316 Q759.6328,494.3535 760.1797,494.0488 Q760.7266,493.7363 761.3438,493.7363 Q761.7109,493.7363 762.0313,493.8223 Q762.3594,493.9004 762.6328,494.0801 Z " fill="#000000"/><text fill="#000000" font-family="sans-serif" font-size="6" font-style="italic" lengthAdjust="spacing" textLength="40.5" x="767.25" y="489.9814">&#171;value object&#187;</text><text fill="#000000" font-family="sans-serif" font-size="6" font-style="italic" lengthAdjust="spacing" textLength="12" x="781.5" y="497.9619">&#171;id&#187;</text><text fill="#000000" font-family="sans-serif" font-size="7" lengthAdjust="spacing" textLength="32" x="771.5" y="507.0215">Username</text><line style="stroke:#181818;stroke-width:0.25;" x1="754.25" x2="807.75" y1="511.2783" y2="511.2783"/></g><!--class UserSession--><g id="elem_UserSession"><rect codeLine="48" fill="#F1F1F1" height="26.291" id="UserSession" rx="1.25" ry="1.25" style="stroke:#181818;stroke-width:0.25;" width="55.5" x="557.25" y="359.0068"/><ellipse cx="564.75" cy="370.1523" fill="#ADD1B2" rx="5.5" ry="5.5" style="stroke:#181818;stroke-width:0.5;"/><path d="M566.1328,368.0898 Q566.2109,367.9805 566.3047,367.9258 Q566.3984,367.8711 566.5078,367.8711 Q566.6953,367.8711 566.8125,368.0039 Q566.9297,368.1289 566.9297,368.4336 L566.9297,369.1602 Q566.9297,369.4648 566.8125,369.5977 Q566.6953,369.7305 566.5078,369.7305 Q566.3359,369.7305 566.2344,369.6289 Q566.1328,369.5352 566.0781,369.2773 Q566.0547,369.0977 565.9609,369.0039 Q565.7969,368.8164 565.4922,368.707 Q565.1875,368.5977 564.875,368.5977 Q564.4922,368.5977 564.1719,368.7617 Q563.8594,368.9258 563.6094,369.3008 Q563.3672,369.6758 563.3672,370.1914 L563.3672,370.7383 Q563.3672,371.3555 563.8125,371.7695 Q564.2578,372.1758 565.0547,372.1758 Q565.5234,372.1758 565.8516,372.0508 Q566.0469,371.9727 566.2578,371.7539 Q566.3906,371.6211 566.4609,371.582 Q566.5391,371.543 566.6406,371.543 Q566.8047,371.543 566.9297,371.6758 Q567.0625,371.8008 567.0625,371.9727 Q567.0625,372.1445 566.8906,372.3477 Q566.6406,372.6367 566.2422,372.8008 Q565.7031,373.0273 565.0547,373.0273 Q564.2969,373.0273 563.6953,372.7148 Q563.2031,372.4648 562.8594,371.9336 Q562.5156,371.3945 562.5156,370.7539 L562.5156,370.1758 Q562.5156,369.5117 562.8203,368.9414 Q563.1328,368.3633 563.6797,368.0586 Q564.2266,367.7461 564.8438,367.7461 Q565.2109,367.7461 565.5313,367.832 Q565.8594,367.9102 566.1328,368.0898 Z " fill="#000000"/><text fill="#000000" font-family="sans-serif" font-size="6" font-style="italic" lengthAdjust="spacing" textLength="40.5" x="571.25" y="367.9814">&#171;value object&#187;</text><text fill="#000000" font-family="sans-serif" font-size="7" lengthAdjust="spacing" textLength="39.5" x="571.75" y="377.041">UserSession</text><line style="stroke:#181818;stroke-width:0.25;" x1="557.75" x2="612.25" y1="381.2979" y2="381.2979"/></g><!--class Password--><g id="elem_Password"><rect codeLine="51" fill="#F1F1F1" height="26.291" id="Password" rx="1.25" ry="1.25" style="stroke:#181818;stroke-width:0.25;" width="54.5" x="825.75" y="485.0068"/><ellipse cx="833.25" cy="496.1523" fill="#ADD1B2" rx="5.5" ry="5.5" style="stroke:#181818;stroke-width:0.5;"/><path d="M834.6328,494.0898 Q834.7109,493.9805 834.8047,493.9258 Q834.8984,493.8711 835.0078,493.8711 Q835.1953,493.8711 835.3125,494.0039 Q835.4297,494.1289 835.4297,494.4336 L835.4297,495.1602 Q835.4297,495.4648 835.3125,495.5977 Q835.1953,495.7305 835.0078,495.7305 Q834.8359,495.7305 834.7344,495.6289 Q834.6328,495.5352 834.5781,495.2773 Q834.5547,495.0977 834.4609,495.0039 Q834.2969,494.8164 833.9922,494.707 Q833.6875,494.5977 833.375,494.5977 Q832.9922,494.5977 832.6719,494.7617 Q832.3594,494.9258 832.1094,495.3008 Q831.8672,495.6758 831.8672,496.1914 L831.8672,496.7383 Q831.8672,497.3555 832.3125,497.7695 Q832.7578,498.1758 833.5547,498.1758 Q834.0234,498.1758 834.3516,498.0508 Q834.5469,497.9727 834.7578,497.7539 Q834.8906,497.6211 834.9609,497.582 Q835.0391,497.543 835.1406,497.543 Q835.3047,497.543 835.4297,497.6758 Q835.5625,497.8008 835.5625,497.9727 Q835.5625,498.1445 835.3906,498.3477 Q835.1406,498.6367 834.7422,498.8008 Q834.2031,499.0273 833.5547,499.0273 Q832.7969,499.0273 832.1953,498.7148 Q831.7031,498.4648 831.3594,497.9336 Q831.0156,497.3945 831.0156,496.7539 L831.0156,496.1758 Q831.0156,495.5117 831.3203,494.9414 Q831.6328,494.3633 832.1797,494.0586 Q832.7266,493.7461 833.3438,493.7461 Q833.7109,493.7461 834.0313,493.832 Q834.3594,493.9102 834.6328,494.0898 Z " fill="#000000"/><text fill="#000000" font-family="sans-serif" font-size="6" font-style="italic" lengthAdjust="spacing" textLength="40.5" x="839.25" y="493.9814">&#171;value object&#187;</text><text fill="#000000" font-family="sans-serif" font-size="7" lengthAdjust="spacing" textLength="30.5" x="844.25" y="503.041">Password</text><line style="stroke:#181818;stroke-width:0.25;" x1="826.25" x2="879.75" y1="507.2979" y2="507.2979"/></g><!--class Name--><g id="elem_Name"><rect codeLine="54" fill="#F1F1F1" height="26.291" id="Name" rx="1.25" ry="1.25" style="stroke:#181818;stroke-width:0.25;" width="54.5" x="681.75" y="485.0068"/><ellipse cx="689.25" cy="496.1523" fill="#ADD1B2" rx="5.5" ry="5.5" style="stroke:#181818;stroke-width:0.5;"/><path d="M690.6328,494.0898 Q690.7109,493.9805 690.8047,493.9258 Q690.8984,493.8711 691.0078,493.8711 Q691.1953,493.8711 691.3125,494.0039 Q691.4297,494.1289 691.4297,494.4336 L691.4297,495.1602 Q691.4297,495.4648 691.3125,495.5977 Q691.1953,495.7305 691.0078,495.7305 Q690.8359,495.7305 690.7344,495.6289 Q690.6328,495.5352 690.5781,495.2773 Q690.5547,495.0977 690.4609,495.0039 Q690.2969,494.8164 689.9922,494.707 Q689.6875,494.5977 689.375,494.5977 Q688.9922,494.5977 688.6719,494.7617 Q688.3594,494.9258 688.1094,495.3008 Q687.8672,495.6758 687.8672,496.1914 L687.8672,496.7383 Q687.8672,497.3555 688.3125,497.7695 Q688.7578,498.1758 689.5547,498.1758 Q690.0234,498.1758 690.3516,498.0508 Q690.5469,497.9727 690.7578,497.7539 Q690.8906,497.6211 690.9609,497.582 Q691.0391,497.543 691.1406,497.543 Q691.3047,497.543 691.4297,497.6758 Q691.5625,497.8008 691.5625,497.9727 Q691.5625,498.1445 691.3906,498.3477 Q691.1406,498.6367 690.7422,498.8008 Q690.2031,499.0273 689.5547,499.0273 Q688.7969,499.0273 688.1953,498.7148 Q687.7031,498.4648 687.3594,497.9336 Q687.0156,497.3945 687.0156,496.7539 L687.0156,496.1758 Q687.0156,495.5117 687.3203,494.9414 Q687.6328,494.3633 688.1797,494.0586 Q688.7266,493.7461 689.3438,493.7461 Q689.7109,493.7461 690.0313,493.832 Q690.3594,493.9102 690.6328,494.0898 Z " fill="#000000"/><text fill="#000000" font-family="sans-serif" font-size="6" font-style="italic" lengthAdjust="spacing" textLength="40.5" x="695.25" y="493.9814">&#171;value object&#187;</text><text fill="#000000" font-family="sans-serif" font-size="7" lengthAdjust="spacing" textLength="18" x="706.5" y="503.041">Name</text><line style="stroke:#181818;stroke-width:0.25;" x1="682.25" x2="735.75" y1="507.2979" y2="507.2979"/></g><!--class EmailAddress--><g id="elem_EmailAddress"><rect codeLine="57" fill="#F1F1F1" height="26.291" id="EmailAddress" rx="1.25" ry="1.25" style="stroke:#181818;stroke-width:0.25;" width="59" x="546.5" y="485.0068"/><ellipse cx="554" cy="496.1523" fill="#ADD1B2" rx="5.5" ry="5.5" style="stroke:#181818;stroke-width:0.5;"/><path d="M555.3828,494.0898 Q555.4609,493.9805 555.5547,493.9258 Q555.6484,493.8711 555.7578,493.8711 Q555.9453,493.8711 556.0625,494.0039 Q556.1797,494.1289 556.1797,494.4336 L556.1797,495.1602 Q556.1797,495.4648 556.0625,495.5977 Q555.9453,495.7305 555.7578,495.7305 Q555.5859,495.7305 555.4844,495.6289 Q555.3828,495.5352 555.3281,495.2773 Q555.3047,495.0977 555.2109,495.0039 Q555.0469,494.8164 554.7422,494.707 Q554.4375,494.5977 554.125,494.5977 Q553.7422,494.5977 553.4219,494.7617 Q553.1094,494.9258 552.8594,495.3008 Q552.6172,495.6758 552.6172,496.1914 L552.6172,496.7383 Q552.6172,497.3555 553.0625,497.7695 Q553.5078,498.1758 554.3047,498.1758 Q554.7734,498.1758 555.1016,498.0508 Q555.2969,497.9727 555.5078,497.7539 Q555.6406,497.6211 555.7109,497.582 Q555.7891,497.543 555.8906,497.543 Q556.0547,497.543 556.1797,497.6758 Q556.3125,497.8008 556.3125,497.9727 Q556.3125,498.1445 556.1406,498.3477 Q555.8906,498.6367 555.4922,498.8008 Q554.9531,499.0273 554.3047,499.0273 Q553.5469,499.0273 552.9453,498.7148 Q552.4531,498.4648 552.1094,497.9336 Q551.7656,497.3945 551.7656,496.7539 L551.7656,496.1758 Q551.7656,495.5117 552.0703,494.9414 Q552.3828,494.3633 552.9297,494.0586 Q553.4766,493.7461 554.0938,493.7461 Q554.4609,493.7461 554.7813,493.832 Q555.1094,493.9102 555.3828,494.0898 Z " fill="#000000"/><text fill="#000000" font-family="sans-serif" font-size="6" font-style="italic" lengthAdjust="spacing" textLength="40.5" x="562.25" y="493.9814">&#171;value object&#187;</text><text fill="#000000" font-family="sans-serif" font-size="7" lengthAdjust="spacing" textLength="43" x="561" y="503.041">EmailAddress</text><line style="stroke:#181818;stroke-width:0.25;" x1="547" x2="605" y1="507.2979" y2="507.2979"/></g><!--class RoleSet--><g id="elem_RoleSet"><rect codeLine="60" fill="#F1F1F1" height="20" id="RoleSet" rx="1.25" ry="1.25" style="stroke:#181818;stroke-width:0.25;" width="41" x="623" y="488.2568"/><ellipse cx="630.5" cy="496.2568" fill="#ADD1B2" rx="5.5" ry="5.5" style="stroke:#181818;stroke-width:0.5;"/><path d="M631.8828,494.1943 Q631.9609,494.085 632.0547,494.0303 Q632.1484,493.9756 632.2578,493.9756 Q632.4453,493.9756 632.5625,494.1084 Q632.6797,494.2334 632.6797,494.5381 L632.6797,495.2646 Q632.6797,495.5693 632.5625,495.7021 Q632.4453,495.835 632.2578,495.835 Q632.0859,495.835 631.9844,495.7334 Q631.8828,495.6396 631.8281,495.3818 Q631.8047,495.2021 631.7109,495.1084 Q631.5469,494.9209 631.2422,494.8115 Q630.9375,494.7021 630.625,494.7021 Q630.2422,494.7021 629.9219,494.8662 Q629.6094,495.0303 629.3594,495.4053 Q629.1172,495.7803 629.1172,496.2959 L629.1172,496.8428 Q629.1172,497.46 629.5625,497.874 Q630.0078,498.2803 630.8047,498.2803 Q631.2734,498.2803 631.6016,498.1553 Q631.7969,498.0771 632.0078,497.8584 Q632.1406,497.7256 632.2109,497.6865 Q632.2891,497.6475 632.3906,497.6475 Q632.5547,497.6475 632.6797,497.7803 Q632.8125,497.9053 632.8125,498.0771 Q632.8125,498.249 632.6406,498.4521 Q632.3906,498.7412 631.9922,498.9053 Q631.4531,499.1318 630.8047,499.1318 Q630.0469,499.1318 629.4453,498.8193 Q628.9531,498.5693 628.6094,498.0381 Q628.2656,497.499 628.2656,496.8584 L628.2656,496.2803 Q628.2656,495.6162 628.5703,495.0459 Q628.8828,494.4678 629.4297,494.1631 Q629.9766,493.8506 630.5938,493.8506 Q630.9609,493.8506 631.2813,493.9365 Q631.6094,494.0146 631.8828,494.1943 Z " fill="#000000"/><text fill="#000000" font-family="sans-serif" font-size="7" lengthAdjust="spacing" textLength="25" x="637.5" y="499.1553">RoleSet</text><line style="stroke:#181818;stroke-width:0.25;" x1="623.5" x2="663.5" y1="504.2568" y2="504.2568"/></g><!--class Set--><g id="elem_Set"><rect codeLine="63" fill="#F1F1F1" height="26.291" id="Set" rx="1.25" ry="1.25" style="stroke:#181818;stroke-width:0.25;" width="44.5" x="621.25" y="546.0068"/><ellipse cx="628.75" cy="557.1523" fill="#B4A7E5" rx="5.5" ry="5.5" style="stroke:#181818;stroke-width:0.5;"/><path d="M629.2266,555.4727 L629.2266,558.8008 L630.0859,558.8008 Q630.3906,558.8008 630.5234,558.918 Q630.6563,559.0352 630.6563,559.2305 Q630.6563,559.418 630.5234,559.5352 Q630.3906,559.6523 630.0859,559.6523 L627.5156,559.6523 Q627.2109,559.6523 627.0781,559.5352 Q626.9453,559.418 626.9453,559.2227 Q626.9453,559.0352 627.0781,558.918 Q627.2109,558.8008 627.5156,558.8008 L628.375,558.8008 L628.375,555.4727 L627.5156,555.4727 Q627.2109,555.4727 627.0781,555.3555 Q626.9453,555.2383 626.9453,555.043 Q626.9453,554.8555 627.0781,554.7383 Q627.2109,554.6211 627.5156,554.6211 L630.0859,554.6211 Q630.3906,554.6211 630.5234,554.7383 Q630.6563,554.8555 630.6563,555.043 Q630.6563,555.2383 630.5234,555.3555 Q630.3906,555.4727 630.0859,555.4727 L629.2266,555.4727 Z " fill="#000000"/><text fill="#000000" font-family="sans-serif" font-size="6" font-style="italic" lengthAdjust="spacing" textLength="30.5" x="634.75" y="554.9814">&#171;interface&#187;</text><text fill="#000000" font-family="sans-serif" font-size="7" font-style="italic" lengthAdjust="spacing" textLength="10.5" x="644.75" y="564.041">Set</text><line style="stroke:#181818;stroke-width:0.25;" x1="621.75" x2="665.25" y1="568.2979" y2="568.2979"/></g><!--class RoleAssigment--><g id="elem_RoleAssigment"><rect codeLine="66" fill="#F1F1F1" height="26.291" id="RoleAssigment" rx="1.25" ry="1.25" style="stroke:#181818;stroke-width:0.25;" width="63" x="612" y="603.0068"/><ellipse cx="619.5" cy="614.1523" fill="#ADD1B2" rx="5.5" ry="5.5" style="stroke:#181818;stroke-width:0.5;"/><path d="M620.8828,612.0898 Q620.9609,611.9805 621.0547,611.9258 Q621.1484,611.8711 621.2578,611.8711 Q621.4453,611.8711 621.5625,612.0039 Q621.6797,612.1289 621.6797,612.4336 L621.6797,613.1602 Q621.6797,613.4648 621.5625,613.5977 Q621.4453,613.7305 621.2578,613.7305 Q621.0859,613.7305 620.9844,613.6289 Q620.8828,613.5352 620.8281,613.2773 Q620.8047,613.0977 620.7109,613.0039 Q620.5469,612.8164 620.2422,612.707 Q619.9375,612.5977 619.625,612.5977 Q619.2422,612.5977 618.9219,612.7617 Q618.6094,612.9258 618.3594,613.3008 Q618.1172,613.6758 618.1172,614.1914 L618.1172,614.7383 Q618.1172,615.3555 618.5625,615.7695 Q619.0078,616.1758 619.8047,616.1758 Q620.2734,616.1758 620.6016,616.0508 Q620.7969,615.9727 621.0078,615.7539 Q621.1406,615.6211 621.2109,615.582 Q621.2891,615.543 621.3906,615.543 Q621.5547,615.543 621.6797,615.6758 Q621.8125,615.8008 621.8125,615.9727 Q621.8125,616.1445 621.6406,616.3477 Q621.3906,616.6367 620.9922,616.8008 Q620.4531,617.0273 619.8047,617.0273 Q619.0469,617.0273 618.4453,616.7148 Q617.9531,616.4648 617.6094,615.9336 Q617.2656,615.3945 617.2656,614.7539 L617.2656,614.1758 Q617.2656,613.5117 617.5703,612.9414 Q617.8828,612.3633 618.4297,612.0586 Q618.9766,611.7461 619.5938,611.7461 Q619.9609,611.7461 620.2813,611.832 Q620.6094,611.9102 620.8828,612.0898 Z " fill="#000000"/><text fill="#000000" font-family="sans-serif" font-size="6" font-style="italic" lengthAdjust="spacing" textLength="21.5" x="639.25" y="611.9814">&#171;entity&#187;</text><text fill="#000000" font-family="sans-serif" font-size="7" lengthAdjust="spacing" textLength="47" x="626.5" y="621.041">RoleAssigment</text><line style="stroke:#181818;stroke-width:0.25;" x1="612.5" x2="674.5" y1="625.2979" y2="625.2979"/></g><!--class Role--><g id="elem_Role"><rect codeLine="69" fill="#F1F1F1" height="26.291" id="Role" rx="1.25" ry="1.25" style="stroke:#181818;stroke-width:0.25;" width="54.5" x="616.25" y="660.0068"/><ellipse cx="623.75" cy="671.1523" fill="#ADD1B2" rx="5.5" ry="5.5" style="stroke:#181818;stroke-width:0.5;"/><path d="M625.1328,669.0898 Q625.2109,668.9805 625.3047,668.9258 Q625.3984,668.8711 625.5078,668.8711 Q625.6953,668.8711 625.8125,669.0039 Q625.9297,669.1289 625.9297,669.4336 L625.9297,670.1602 Q625.9297,670.4648 625.8125,670.5977 Q625.6953,670.7305 625.5078,670.7305 Q625.3359,670.7305 625.2344,670.6289 Q625.1328,670.5352 625.0781,670.2773 Q625.0547,670.0977 624.9609,670.0039 Q624.7969,669.8164 624.4922,669.707 Q624.1875,669.5977 623.875,669.5977 Q623.4922,669.5977 623.1719,669.7617 Q622.8594,669.9258 622.6094,670.3008 Q622.3672,670.6758 622.3672,671.1914 L622.3672,671.7383 Q622.3672,672.3555 622.8125,672.7695 Q623.2578,673.1758 624.0547,673.1758 Q624.5234,673.1758 624.8516,673.0508 Q625.0469,672.9727 625.2578,672.7539 Q625.3906,672.6211 625.4609,672.582 Q625.5391,672.543 625.6406,672.543 Q625.8047,672.543 625.9297,672.6758 Q626.0625,672.8008 626.0625,672.9727 Q626.0625,673.1445 625.8906,673.3477 Q625.6406,673.6367 625.2422,673.8008 Q624.7031,674.0273 624.0547,674.0273 Q623.2969,674.0273 622.6953,673.7148 Q622.2031,673.4648 621.8594,672.9336 Q621.5156,672.3945 621.5156,671.7539 L621.5156,671.1758 Q621.5156,670.5117 621.8203,669.9414 Q622.1328,669.3633 622.6797,669.0586 Q623.2266,668.7461 623.8438,668.7461 Q624.2109,668.7461 624.5313,668.832 Q624.8594,668.9102 625.1328,669.0898 Z " fill="#000000"/><text fill="#000000" font-family="sans-serif" font-size="6" font-style="italic" lengthAdjust="spacing" textLength="40.5" x="629.75" y="668.9814">&#171;value object&#187;</text><text fill="#000000" font-family="sans-serif" font-size="7" lengthAdjust="spacing" textLength="14.5" x="642.75" y="678.041">Role</text><line style="stroke:#181818;stroke-width:0.25;" x1="616.75" x2="670.25" y1="682.2979" y2="682.2979"/></g><!--link LoginUI to CredentialHandler--><g id="link_LoginUI_CredentialHandler"><path codeLine="75" d="M62.23,52.6068 C69.765,56.5518 78.175,60.8268 86,64.5068 C102.935,72.4718 119.0992,79.4567 135.6142,86.3117 " fill="none" id="LoginUI-to-CredentialHandler" style="stroke:#181818;stroke-width:0.5;"/><polygon fill="#181818" points="138.385,87.4618,134.9955,83.8895,136.076,86.5034,133.4621,87.5839,138.385,87.4618" style="stroke:#181818;stroke-width:0.5;"/></g><!--link AuthenticationCredentialHandler to CredentialHandler--><g id="link_AuthenticationCredentialHandler_CredentialHandler"><path codeLine="76" d="M316.065,57.0918 C289.525,66.4918 265.3036,75.072 238.7786,84.467 " fill="none" id="AuthenticationCredentialHandler-to-CredentialHandler" style="stroke:#181818;stroke-width:0.5;stroke-dasharray:7.0,7.0;"/><polygon fill="none" points="230.295,87.4718,239.7802,87.2949,237.777,81.6391,230.295,87.4718" style="stroke:#181818;stroke-width:0.5;"/></g><!--link AuthenticationCredentialHandler to AuthenticationService--><g id="link_AuthenticationCredentialHandler_AuthenticationService"><path codeLine="77" d="M411.685,57.0818 C426.45,64.5118 441.715,74.5318 452.5,87.5068 C470.18,108.7768 480.45,122.3318 469,147.5068 C466.46,153.0918 464.5879,156.0131 460.0979,160.3081 " fill="none" id="AuthenticationCredentialHandler-to-AuthenticationService" style="stroke:#181818;stroke-width:0.5;stroke-dasharray:7.0,7.0;"/><polygon fill="#181818" points="457.93,162.3818,462.5643,160.7165,459.7366,160.6537,459.7993,157.826,457.93,162.3818" style="stroke:#181818;stroke-width:0.5;"/><text fill="#000000" font-family="sans-serif" font-size="6.5" lengthAdjust="spacing" textLength="61.5" x="473.5" y="108.021">authenticationService</text></g><!--link AuthenticationCredentialHandler to AuthzRegistry--><g id="link_AuthenticationCredentialHandler_AuthzRegistry"><path codeLine="78" d="M365,57.1768 C365,66.5018 365,74.9568 365,84.2918 " fill="none" id="AuthenticationCredentialHandler-to-AuthzRegistry" style="stroke:#181818;stroke-width:0.5;stroke-dasharray:7.0,7.0;"/><polygon fill="#181818" points="365,87.2918,367,82.7918,365,84.7918,363,82.7918,365,87.2918" style="stroke:#181818;stroke-width:0.5;"/></g><!--link AuthzRegistry to AuthenticationService--><g id="link_AuthzRegistry_AuthenticationService"><path codeLine="79" d="M380.71,123.1068 C391.42,134.9418 403.541,148.3284 414.261,160.1634 " fill="none" id="AuthzRegistry-to-AuthenticationService" style="stroke:#181818;stroke-width:0.5;"/><polygon fill="#181818" points="416.275,162.3868,414.7363,157.709,414.5967,160.5339,411.7717,160.3943,416.275,162.3868" style="stroke:#181818;stroke-width:0.5;"/><text fill="#000000" font-family="sans-serif" font-size="6.5" lengthAdjust="spacing" textLength="61.5" x="403" y="145.521">authenticationService</text></g><!--link AuthenticationService to UserRepository--><g id="link_AuthenticationService_UserRepository"><path codeLine="80" d="M476.995,198.0418 C498.91,206.5168 525.625,216.9418 549.5,226.5068 C567.58,233.7518 584.7229,240.7749 601.7379,247.8149 " fill="none" id="AuthenticationService-to-UserRepository" style="stroke:#181818;stroke-width:0.5;stroke-dasharray:7.0,7.0;"/><polygon fill="#181818" points="604.51,248.9618,601.1165,245.3933,602.1999,248.006,599.5872,249.0895,604.51,248.9618" style="stroke:#181818;stroke-width:0.5;"/><text fill="#000000" font-family="sans-serif" font-size="6.5" lengthAdjust="spacing" textLength="12.5" x="537" y="220.521">repo</text></g><!--link AuthenticationService to SystemUser--><g id="link_AuthenticationService_SystemUser"><path codeLine="81" d="M541.65,183.0468 C616.435,187.1968 706.17,198.1618 730.5,226.5068 C779.265,283.3168 716.0954,375.3063 685.6054,413.5413 " fill="none" id="AuthenticationService-to-SystemUser" style="stroke:#181818;stroke-width:0.5;stroke-dasharray:7.0,7.0;"/><polygon fill="#181818" points="683.735,415.8868,688.1043,413.6155,685.2937,413.9322,684.9769,411.1216,683.735,415.8868" style="stroke:#181818;stroke-width:0.5;"/><text fill="#000000" font-family="sans-serif" font-size="6.5" lengthAdjust="spacing" textLength="12.5" x="745.5" y="308.021">user</text></g><!--link AuthenticationService to AuthorizationService--><g id="link_AuthenticationService_AuthorizationService"><path codeLine="82" d="M434.935,198.0568 C437.45,212.8918 440.5534,231.1941 443.0684,246.0241 " fill="none" id="AuthenticationService-to-AuthorizationService" style="stroke:#181818;stroke-width:0.5;stroke-dasharray:7.0,7.0;"/><polygon fill="#181818" points="443.57,248.9818,444.7894,244.2108,443.152,246.517,440.8457,244.8796,443.57,248.9818" style="stroke:#181818;stroke-width:0.5;"/><text fill="#000000" font-family="sans-serif" font-size="6.5" lengthAdjust="spacing" textLength="16" x="439" y="220.521">authz</text></g><!--link AuthorizationService to UserSession--><g id="link_AuthorizationService_UserSession"><path codeLine="83" d="M469.37,284.5118 C497.105,305.4418 540.8202,338.42 565.6052,357.12 " fill="none" id="AuthorizationService-to-UserSession" style="stroke:#181818;stroke-width:0.5;"/><polygon fill="#181818" points="568,358.9268,565.6123,354.62,566.0043,357.4211,563.2032,357.8131,568,358.9268" style="stroke:#181818;stroke-width:0.5;"/><text fill="#000000" font-family="sans-serif" font-size="6.5" lengthAdjust="spacing" textLength="22.5" x="499.5" y="308.021">session</text></g><!--link UserSession to SystemUser--><g id="link_UserSession_SystemUser"><path codeLine="84" d="M603.125,385.6268 C615.59,394.4768 629.8192,404.5795 643.3342,414.1795 " fill="none" id="UserSession-to-SystemUser" style="stroke:#181818;stroke-width:0.5;"/><polygon fill="#181818" points="645.78,415.9168,643.2695,411.6804,643.7419,414.4691,640.9531,414.9414,645.78,415.9168" style="stroke:#181818;stroke-width:0.5;"/></g><!--link AuthenticationService to Username--><g id="link_AuthenticationService_Username"><path codeLine="86" d="M541.67,187.0018 C612.605,192.1068 697.865,200.5318 732,213.0068 C764.41,224.8518 788.5,231.7518 788.5,266.2568 C788.5,266.2568 788.5,266.2568 788.5,433.7568 C788.5,449.8668 786.6023,465.1401 784.5273,478.0151 " fill="none" id="AuthenticationService-to-Username" style="stroke:#181818;stroke-width:0.5;stroke-dasharray:7.0,7.0;"/><polygon fill="#181818" points="784.05,480.9768,786.7405,476.8524,784.4478,478.5087,782.7915,476.2159,784.05,480.9768" style="stroke:#181818;stroke-width:0.5;"/><text fill="#000000" font-family="sans-serif" font-size="6.5" lengthAdjust="spacing" textLength="28.5" x="789" y="375.021">username</text></g><!--link AuthenticationService to Password--><g id="link_AuthenticationService_Password"><path codeLine="87" d="M541.515,181.7218 C666.255,185.8618 853,202.6768 853,266.2568 C853,266.2568 853,266.2568 853,433.7568 C853,451.4218 853,468.8318 853,481.7618 " fill="none" id="AuthenticationService-to-Password" style="stroke:#181818;stroke-width:0.5;stroke-dasharray:7.0,7.0;"/><polygon fill="#181818" points="853,484.7618,855,480.2618,853,482.2618,851,480.2618,853,484.7618" style="stroke:#181818;stroke-width:0.5;"/><text fill="#000000" font-family="sans-serif" font-size="6.5" lengthAdjust="spacing" textLength="27.5" x="853.5" y="375.021">password</text></g><!--link UserRepository to SystemUser--><g id="link_UserRepository_SystemUser"><path codeLine="88" d="M648.47,284.6568 C653.005,316.6068 662.1878,381.2767 666.6778,412.8667 " fill="none" id="UserRepository-to-SystemUser" style="stroke:#181818;stroke-width:0.5;"/><polygon fill="#181818" points="667.1,415.8368,668.4469,411.1002,666.7482,413.3617,664.4867,411.6631,667.1,415.8368" style="stroke:#181818;stroke-width:0.5;"/></g><!--link SystemUser to Username--><g id="link_SystemUser_Username"><path codeLine="90" d="M696.35,449.1668 C713.685,459.1168 733.5681,470.5334 751.0081,480.5434 " fill="none" id="SystemUser-to-Username" style="stroke:#181818;stroke-width:0.5;"/><polygon fill="#181818" points="753.61,482.0368,750.7028,478.0622,751.4418,480.7923,748.7116,481.5313,753.61,482.0368" style="stroke:#181818;stroke-width:0.5;"/></g><!--link SystemUser to Password--><g id="link_SystemUser_Password"><path codeLine="91" d="M696.365,441.2618 C726.2,449.8468 775.615,464.8268 817,481.0068 C820.08,482.2118 820.5287,482.3444 823.6787,483.7294 " fill="none" id="SystemUser-to-Password" style="stroke:#181818;stroke-width:0.5;"/><polygon fill="#181818" points="826.425,484.9368,823.1106,481.2948,824.1364,483.9306,821.5006,484.9565,826.425,484.9368" style="stroke:#181818;stroke-width:0.5;"/></g><!--link SystemUser to Name--><g id="link_SystemUser_Name"><path codeLine="92" d="M679.88,450.5718 C686.505,461.3118 693.3953,472.4684 699.4853,482.3434 " fill="none" id="SystemUser-to-Name" style="stroke:#181818;stroke-width:0.5;"/><polygon fill="#181818" points="701.06,484.8968,700.4002,480.0168,699.7477,482.7689,696.9956,482.1165,701.06,484.8968" style="stroke:#181818;stroke-width:0.5;"/></g><!--link SystemUser to EmailAddress--><g id="link_SystemUser_EmailAddress"><path codeLine="93" d="M644.935,450.5718 C629.19,461.3518 611.5506,473.4224 597.1156,483.3024 " fill="none" id="SystemUser-to-EmailAddress" style="stroke:#181818;stroke-width:0.5;"/><polygon fill="#181818" points="594.64,484.9968,599.4831,484.1056,596.703,483.5848,597.2238,480.8047,594.64,484.9968" style="stroke:#181818;stroke-width:0.5;"/></g><!--link SystemUser to RoleSet--><g id="link_SystemUser_RoleSet"><path codeLine="94" d="M662.67,450.5718 C657.795,462.5718 652.5446,475.5026 648.5146,485.4176 " fill="none" id="SystemUser-to-RoleSet" style="stroke:#181818;stroke-width:0.5;"/><polygon fill="#181818" points="647.385,488.1968,650.9322,484.7811,648.3263,485.8808,647.2266,483.275,647.385,488.1968" style="stroke:#181818;stroke-width:0.5;"/></g><!--link RoleSet to Set--><g id="link_RoleSet_Set"><path codeLine="95" d="M643.5,508.2618 C643.5,518.4418 643.5,525.6468 643.5,536.9418 " fill="none" id="RoleSet-to-Set" style="stroke:#181818;stroke-width:0.5;stroke-dasharray:7.0,7.0;"/><polygon fill="none" points="643.5,545.9418,646.5,536.9418,640.5,536.9418,643.5,545.9418" style="stroke:#181818;stroke-width:0.5;"/></g><!--link Set to RoleAssigment--><g id="link_Set_RoleAssigment"><path codeLine="96" d="M643.5,572.6068 C643.5,581.7118 643.5,590.8768 643.5,599.9668 " fill="none" id="Set-to-RoleAssigment" style="stroke:#181818;stroke-width:0.5;stroke-dasharray:7.0,7.0;"/><polygon fill="#181818" points="643.5,602.9668,645.5,598.4668,643.5,600.4668,641.5,598.4668,643.5,602.9668" style="stroke:#181818;stroke-width:0.5;"/></g><!--link RoleAssigment to Role--><g id="link_RoleAssigment_Role"><path codeLine="97" d="M643.5,629.6068 C643.5,638.7118 643.5,647.8768 643.5,656.9668 " fill="none" id="RoleAssigment-to-Role" style="stroke:#181818;stroke-width:0.5;"/><polygon fill="#181818" points="643.5,659.9668,645.5,655.4668,643.5,657.4668,641.5,655.4668,643.5,659.9668" style="stroke:#181818;stroke-width:0.5;"/></g><!--SRC=[jLJRRfmm47ttLrXvIjKaoZD2IAWNTQKeNItQ3_32XBW1Z6oJYctttplcQeWNDgtA4zXdpZapp8nwuKN99Cjfd36bGgqbFrGQDh4e8du4Ua-UUG8KybBNbFNNYf2InIyi1NgrbQ2Wq4npKLpHNuJYqv3H1v7oOh-XlbzQc23eG2ToicZ2iinuF67XXGRvn6AWdoGa6CzPzeqLIGOIEOVRWT0y7rcbdmqKgI2vhXJ8WkLmGqjqz5F8v8PAaO7wG3rw4FZ6YiwCPJmSET2EInnfN_d_aZxk8ELAong5AiqphkkpGkWlQhrS6zxGTREMO0Ux9AtbhBwNXevb_XvH4IXbVhTRNKX-l4Gybe2o7TTN8GrpOs9LpswkBKY55OKYXccBci0Tb49nBPfwo-5ZwaCyRPecqFLGWec3g4RwtD05ZkR-B7B6XxuUZdsVfQc453D4jP7200VfrkXuYIPR8nY2VeNG4wUdUUI-iulWLvPLGCNX1yIwYUR9UcnNrxVX2t7RhZVU5VJeDBaGy0MBceL9Wij5lIjmXmqRWNP3ngrZ8EVsZ9Cpn4gbEVuT-n-jn5nWlEcbVfdUtWPlro5PsrXtTx__BYmuioiywbn25pCEEuvCDvv9xryKUxJHcGstHyrmB-2j6VEecV85h7E7jHQFn7bfChFdoQEgVIFsgK6DFiXATirSjrxDwm9wc4XlMDnaLf-vj5MEtdiZCZllcUVdZmwiFR7pksueIJ-SJSkQW_OZc4uOcSvRJq3-0000]--></g></svg>