<?xml version="1.0" encoding="us-ascii" standalone="no"?><svg xmlns="http://www.w3.org/2000/svg" xmlns:xlink="http://www.w3.org/1999/xlink" contentStyleType="text/css" height="429.6px" preserveAspectRatio="none" style="width:427px;height:429px;background:#FFFFFF;" version="1.1" viewBox="0 0 427 429" width="427.8px" zoomAndPan="magnify"><defs/><g><!--cluster <<aggregate>> SystemUser--><g id="cluster_&lt;&lt;aggregate&gt;&gt; SystemUser"><path d="M5.1,3.6082 L110.7,3.6082 A2.25,2.25 0 0 1 112.2,5.1082 L116.4,18.3809 L422.1,18.3809 A1.5,1.5 0 0 1 423.6,19.8809 L423.6,423.9082 A1.5,1.5 0 0 1 422.1,425.4082 L5.1,425.4082 A1.5,1.5 0 0 1 3.6,423.9082 L3.6,5.1082 A1.5,1.5 0 0 1 5.1,3.6082 " fill="none" style="stroke:#000000;stroke-width:0.8999999999999999;"/><line style="stroke:#000000;stroke-width:0.8999999999999999;" x1="3.6" x2="116.4" y1="18.3809" y2="18.3809"/><text fill="#000000" font-family="sans-serif" font-size="8.4" font-weight="bold" lengthAdjust="spacing" textLength="105" x="6" y="13.8727">&#171;aggregate&#187; SystemUser</text></g><!--class SystemUser--><g id="elem_SystemUser"><rect codeLine="7" fill="#F1F1F1" height="41.1258" id="SystemUser" rx="1.5" ry="1.5" style="stroke:#181818;stroke-width:0.3;" width="64.2" x="186.9" y="93.6082"/><ellipse cx="195.9" cy="111.7711" fill="#ADD1B2" rx="6.6" ry="6.6" style="stroke:#181818;stroke-width:0.6;"/><path d="M197.5594,109.2961 Q197.6531,109.1648 197.7656,109.0992 Q197.8781,109.0336 198.0094,109.0336 Q198.2344,109.0336 198.375,109.193 Q198.5156,109.343 198.5156,109.7086 L198.5156,110.5805 Q198.5156,110.9461 198.375,111.1055 Q198.2344,111.2648 198.0094,111.2648 Q197.8031,111.2648 197.6813,111.143 Q197.5594,111.0305 197.4938,110.7211 Q197.4656,110.5055 197.3531,110.393 Q197.1563,110.168 196.7906,110.0367 Q196.425,109.9055 196.05,109.9055 Q195.5906,109.9055 195.2062,110.1023 Q194.8312,110.2992 194.5313,110.7492 Q194.2406,111.1992 194.2406,111.818 L194.2406,112.4742 Q194.2406,113.2148 194.775,113.7117 Q195.3094,114.1992 196.2656,114.1992 Q196.8281,114.1992 197.2219,114.0492 Q197.4562,113.9555 197.7094,113.693 Q197.8688,113.5336 197.9531,113.4867 Q198.0469,113.4398 198.1688,113.4398 Q198.3656,113.4398 198.5156,113.5992 Q198.675,113.7492 198.675,113.9555 Q198.675,114.1617 198.4688,114.4055 Q198.1688,114.7523 197.6906,114.9492 Q197.0438,115.2211 196.2656,115.2211 Q195.3563,115.2211 194.6344,114.8461 Q194.0438,114.5461 193.6313,113.9086 Q193.2188,113.2617 193.2188,112.493 L193.2188,111.7992 Q193.2188,111.0023 193.5844,110.318 Q193.9594,109.6242 194.6156,109.2586 Q195.2719,108.8836 196.0125,108.8836 Q196.4531,108.8836 196.8375,108.9867 Q197.2313,109.0805 197.5594,109.2961 Z " fill="#000000"/><text fill="#000000" font-family="sans-serif" font-size="7.2" font-style="italic" lengthAdjust="spacing" textLength="25.8" x="213.9" y="104.3777">&#171;entity&#187;</text><text fill="#000000" font-family="sans-serif" font-size="7.2" font-style="italic" lengthAdjust="spacing" textLength="21" x="216.3" y="113.9543">&#171;root&#187;</text><text fill="#000000" font-family="sans-serif" font-size="8.4" lengthAdjust="spacing" textLength="45" x="204.3" y="124.8258">SystemUser</text><line style="stroke:#181818;stroke-width:0.3;" x1="187.5" x2="250.5" y1="129.934" y2="129.934"/></g><!--class Username--><g id="elem_Username"><rect codeLine="10" fill="#F1F1F1" height="41.1258" id="Username" rx="1.5" ry="1.5" style="stroke:#181818;stroke-width:0.3;" width="65.4" x="13.5" y="171.0082"/><ellipse cx="22.5" cy="189.1711" fill="#ADD1B2" rx="6.6" ry="6.6" style="stroke:#181818;stroke-width:0.6;"/><path d="M24.1594,186.6961 Q24.2531,186.5648 24.3656,186.4992 Q24.4781,186.4336 24.6094,186.4336 Q24.8344,186.4336 24.975,186.593 Q25.1156,186.743 25.1156,187.1086 L25.1156,187.9805 Q25.1156,188.3461 24.975,188.5055 Q24.8344,188.6648 24.6094,188.6648 Q24.4031,188.6648 24.2813,188.543 Q24.1594,188.4305 24.0938,188.1211 Q24.0656,187.9055 23.9531,187.793 Q23.7562,187.568 23.3906,187.4367 Q23.025,187.3055 22.65,187.3055 Q22.1906,187.3055 21.8063,187.5023 Q21.4313,187.6992 21.1312,188.1492 Q20.8406,188.5992 20.8406,189.218 L20.8406,189.8742 Q20.8406,190.6148 21.375,191.1117 Q21.9094,191.5992 22.8656,191.5992 Q23.4281,191.5992 23.8219,191.4492 Q24.0563,191.3555 24.3094,191.093 Q24.4688,190.9336 24.5531,190.8867 Q24.6469,190.8398 24.7688,190.8398 Q24.9656,190.8398 25.1156,190.9992 Q25.275,191.1492 25.275,191.3555 Q25.275,191.5617 25.0687,191.8055 Q24.7688,192.1523 24.2906,192.3492 Q23.6438,192.6211 22.8656,192.6211 Q21.9563,192.6211 21.2344,192.2461 Q20.6438,191.9461 20.2313,191.3086 Q19.8187,190.6617 19.8187,189.893 L19.8187,189.1992 Q19.8187,188.4023 20.1844,187.718 Q20.5594,187.0242 21.2156,186.6586 Q21.8719,186.2836 22.6125,186.2836 Q23.0531,186.2836 23.4375,186.3867 Q23.8313,186.4805 24.1594,186.6961 Z " fill="#000000"/><text fill="#000000" font-family="sans-serif" font-size="7.2" font-style="italic" lengthAdjust="spacing" textLength="48.6" x="29.7" y="181.7777">&#171;value object&#187;</text><text fill="#000000" font-family="sans-serif" font-size="7.2" font-style="italic" lengthAdjust="spacing" textLength="14.4" x="46.8" y="191.3543">&#171;id&#187;</text><text fill="#000000" font-family="sans-serif" font-size="8.4" lengthAdjust="spacing" textLength="38.4" x="34.8" y="202.2258">Username</text><line style="stroke:#181818;stroke-width:0.3;" x1="14.1" x2="78.3" y1="207.334" y2="207.334"/></g><!--class UserSession--><g id="elem_UserSession"><rect codeLine="13" fill="#F1F1F1" height="31.5492" id="UserSession" rx="1.5" ry="1.5" style="stroke:#181818;stroke-width:0.3;" width="66.6" x="185.7" y="25.8082"/><ellipse cx="194.7" cy="39.1828" fill="#ADD1B2" rx="6.6" ry="6.6" style="stroke:#181818;stroke-width:0.6;"/><path d="M196.3594,36.7078 Q196.4531,36.5766 196.5656,36.5109 Q196.6781,36.4453 196.8094,36.4453 Q197.0344,36.4453 197.175,36.6047 Q197.3156,36.7547 197.3156,37.1203 L197.3156,37.9922 Q197.3156,38.3578 197.175,38.5172 Q197.0344,38.6766 196.8094,38.6766 Q196.6031,38.6766 196.4813,38.5547 Q196.3594,38.4422 196.2938,38.1328 Q196.2656,37.9172 196.1531,37.8047 Q195.9562,37.5797 195.5906,37.4484 Q195.225,37.3172 194.85,37.3172 Q194.3906,37.3172 194.0063,37.5141 Q193.6313,37.7109 193.3312,38.1609 Q193.0406,38.6109 193.0406,39.2297 L193.0406,39.8859 Q193.0406,40.6266 193.575,41.1234 Q194.1094,41.6109 195.0656,41.6109 Q195.6281,41.6109 196.0219,41.4609 Q196.2563,41.3672 196.5094,41.1047 Q196.6688,40.9453 196.7531,40.8984 Q196.8469,40.8516 196.9688,40.8516 Q197.1656,40.8516 197.3156,41.0109 Q197.475,41.1609 197.475,41.3672 Q197.475,41.5734 197.2687,41.8172 Q196.9688,42.1641 196.4906,42.3609 Q195.8438,42.6328 195.0656,42.6328 Q194.1563,42.6328 193.4344,42.2578 Q192.8438,41.9578 192.4313,41.3203 Q192.0187,40.6734 192.0187,39.9047 L192.0187,39.2109 Q192.0187,38.4141 192.3844,37.7297 Q192.7594,37.0359 193.4156,36.6703 Q194.0719,36.2953 194.8125,36.2953 Q195.2531,36.2953 195.6375,36.3984 Q196.0313,36.4922 196.3594,36.7078 Z " fill="#000000"/><text fill="#000000" font-family="sans-serif" font-size="7.2" font-style="italic" lengthAdjust="spacing" textLength="48.6" x="202.5" y="36.5777">&#171;value object&#187;</text><text fill="#000000" font-family="sans-serif" font-size="8.4" lengthAdjust="spacing" textLength="47.4" x="203.1" y="47.4492">UserSession</text><line style="stroke:#181818;stroke-width:0.3;" x1="186.3" x2="251.7" y1="52.5574" y2="52.5574"/></g><!--class Password--><g id="elem_Password"><rect codeLine="16" fill="#F1F1F1" height="31.5492" id="Password" rx="1.5" ry="1.5" style="stroke:#181818;stroke-width:0.3;" width="65.4" x="99.9" y="175.8082"/><ellipse cx="108.9" cy="189.1828" fill="#ADD1B2" rx="6.6" ry="6.6" style="stroke:#181818;stroke-width:0.6;"/><path d="M110.5594,186.7078 Q110.6531,186.5766 110.7656,186.5109 Q110.8781,186.4453 111.0094,186.4453 Q111.2344,186.4453 111.375,186.6047 Q111.5156,186.7547 111.5156,187.1203 L111.5156,187.9922 Q111.5156,188.3578 111.375,188.5172 Q111.2344,188.6766 111.0094,188.6766 Q110.8031,188.6766 110.6812,188.5547 Q110.5594,188.4422 110.4937,188.1328 Q110.4656,187.9172 110.3531,187.8047 Q110.1563,187.5797 109.7906,187.4484 Q109.425,187.3172 109.05,187.3172 Q108.5906,187.3172 108.2063,187.5141 Q107.8313,187.7109 107.5313,188.1609 Q107.2406,188.6109 107.2406,189.2297 L107.2406,189.8859 Q107.2406,190.6266 107.775,191.1234 Q108.3094,191.6109 109.2656,191.6109 Q109.8281,191.6109 110.2219,191.4609 Q110.4563,191.3672 110.7094,191.1047 Q110.8687,190.9453 110.9531,190.8984 Q111.0469,190.8516 111.1688,190.8516 Q111.3656,190.8516 111.5156,191.0109 Q111.675,191.1609 111.675,191.3672 Q111.675,191.5734 111.4688,191.8172 Q111.1688,192.1641 110.6906,192.3609 Q110.0438,192.6328 109.2656,192.6328 Q108.3563,192.6328 107.6344,192.2578 Q107.0438,191.9578 106.6313,191.3203 Q106.2188,190.6734 106.2188,189.9047 L106.2188,189.2109 Q106.2188,188.4141 106.5844,187.7297 Q106.9594,187.0359 107.6156,186.6703 Q108.2719,186.2953 109.0125,186.2953 Q109.4531,186.2953 109.8375,186.3984 Q110.2313,186.4922 110.5594,186.7078 Z " fill="#000000"/><text fill="#000000" font-family="sans-serif" font-size="7.2" font-style="italic" lengthAdjust="spacing" textLength="48.6" x="116.1" y="186.5777">&#171;value object&#187;</text><text fill="#000000" font-family="sans-serif" font-size="8.4" lengthAdjust="spacing" textLength="36.6" x="122.1" y="197.4492">Password</text><line style="stroke:#181818;stroke-width:0.3;" x1="100.5" x2="164.7" y1="202.5574" y2="202.5574"/></g><!--class Name--><g id="elem_Name"><rect codeLine="19" fill="#F1F1F1" height="31.5492" id="Name" rx="1.5" ry="1.5" style="stroke:#181818;stroke-width:0.3;" width="65.4" x="186.3" y="175.8082"/><ellipse cx="195.3" cy="189.1828" fill="#ADD1B2" rx="6.6" ry="6.6" style="stroke:#181818;stroke-width:0.6;"/><path d="M196.9594,186.7078 Q197.0531,186.5766 197.1656,186.5109 Q197.2781,186.4453 197.4094,186.4453 Q197.6344,186.4453 197.775,186.6047 Q197.9156,186.7547 197.9156,187.1203 L197.9156,187.9922 Q197.9156,188.3578 197.775,188.5172 Q197.6344,188.6766 197.4094,188.6766 Q197.2031,188.6766 197.0812,188.5547 Q196.9594,188.4422 196.8937,188.1328 Q196.8656,187.9172 196.7531,187.8047 Q196.5563,187.5797 196.1906,187.4484 Q195.825,187.3172 195.45,187.3172 Q194.9906,187.3172 194.6063,187.5141 Q194.2313,187.7109 193.9313,188.1609 Q193.6406,188.6109 193.6406,189.2297 L193.6406,189.8859 Q193.6406,190.6266 194.175,191.1234 Q194.7094,191.6109 195.6656,191.6109 Q196.2281,191.6109 196.6219,191.4609 Q196.8563,191.3672 197.1094,191.1047 Q197.2687,190.9453 197.3531,190.8984 Q197.4469,190.8516 197.5688,190.8516 Q197.7656,190.8516 197.9156,191.0109 Q198.075,191.1609 198.075,191.3672 Q198.075,191.5734 197.8688,191.8172 Q197.5688,192.1641 197.0906,192.3609 Q196.4438,192.6328 195.6656,192.6328 Q194.7563,192.6328 194.0344,192.2578 Q193.4438,191.9578 193.0313,191.3203 Q192.6188,190.6734 192.6188,189.9047 L192.6188,189.2109 Q192.6188,188.4141 192.9844,187.7297 Q193.3594,187.0359 194.0156,186.6703 Q194.6719,186.2953 195.4125,186.2953 Q195.8531,186.2953 196.2375,186.3984 Q196.6313,186.4922 196.9594,186.7078 Z " fill="#000000"/><text fill="#000000" font-family="sans-serif" font-size="7.2" font-style="italic" lengthAdjust="spacing" textLength="48.6" x="202.5" y="186.5777">&#171;value object&#187;</text><text fill="#000000" font-family="sans-serif" font-size="8.4" lengthAdjust="spacing" textLength="21.6" x="216" y="197.4492">Name</text><line style="stroke:#181818;stroke-width:0.3;" x1="186.9" x2="251.1" y1="202.5574" y2="202.5574"/></g><!--class EmailAddress--><g id="elem_EmailAddress"><rect codeLine="22" fill="#F1F1F1" height="31.5492" id="EmailAddress" rx="1.5" ry="1.5" style="stroke:#181818;stroke-width:0.3;" width="70.8" x="273" y="175.8082"/><ellipse cx="282" cy="189.1828" fill="#ADD1B2" rx="6.6" ry="6.6" style="stroke:#181818;stroke-width:0.6;"/><path d="M283.6594,186.7078 Q283.7531,186.5766 283.8656,186.5109 Q283.9781,186.4453 284.1094,186.4453 Q284.3344,186.4453 284.475,186.6047 Q284.6156,186.7547 284.6156,187.1203 L284.6156,187.9922 Q284.6156,188.3578 284.475,188.5172 Q284.3344,188.6766 284.1094,188.6766 Q283.9031,188.6766 283.7813,188.5547 Q283.6594,188.4422 283.5938,188.1328 Q283.5656,187.9172 283.4531,187.8047 Q283.2562,187.5797 282.8906,187.4484 Q282.525,187.3172 282.15,187.3172 Q281.6906,187.3172 281.3063,187.5141 Q280.9313,187.7109 280.6312,188.1609 Q280.3406,188.6109 280.3406,189.2297 L280.3406,189.8859 Q280.3406,190.6266 280.875,191.1234 Q281.4094,191.6109 282.3656,191.6109 Q282.9281,191.6109 283.3219,191.4609 Q283.5563,191.3672 283.8094,191.1047 Q283.9688,190.9453 284.0531,190.8984 Q284.1469,190.8516 284.2688,190.8516 Q284.4656,190.8516 284.6156,191.0109 Q284.775,191.1609 284.775,191.3672 Q284.775,191.5734 284.5687,191.8172 Q284.2688,192.1641 283.7906,192.3609 Q283.1438,192.6328 282.3656,192.6328 Q281.4563,192.6328 280.7344,192.2578 Q280.1438,191.9578 279.7313,191.3203 Q279.3187,190.6734 279.3187,189.9047 L279.3187,189.2109 Q279.3187,188.4141 279.6844,187.7297 Q280.0594,187.0359 280.7156,186.6703 Q281.3719,186.2953 282.1125,186.2953 Q282.5531,186.2953 282.9375,186.3984 Q283.3313,186.4922 283.6594,186.7078 Z " fill="#000000"/><text fill="#000000" font-family="sans-serif" font-size="7.2" font-style="italic" lengthAdjust="spacing" textLength="48.6" x="291.9" y="186.5777">&#171;value object&#187;</text><text fill="#000000" font-family="sans-serif" font-size="8.4" lengthAdjust="spacing" textLength="51.6" x="290.4" y="197.4492">EmailAddress</text><line style="stroke:#181818;stroke-width:0.3;" x1="273.6" x2="343.2" y1="202.5574" y2="202.5574"/></g><!--class RoleSet--><g id="elem_RoleSet"><rect codeLine="25" fill="#F1F1F1" height="24" id="RoleSet" rx="1.5" ry="1.5" style="stroke:#181818;stroke-width:0.3;" width="49.2" x="364.8" y="179.7082"/><ellipse cx="373.8" cy="189.3082" fill="#ADD1B2" rx="6.6" ry="6.6" style="stroke:#181818;stroke-width:0.6;"/><path d="M375.4594,186.8332 Q375.5531,186.702 375.6656,186.6363 Q375.7781,186.5707 375.9094,186.5707 Q376.1344,186.5707 376.275,186.7301 Q376.4156,186.8801 376.4156,187.2457 L376.4156,188.1176 Q376.4156,188.4832 376.275,188.6426 Q376.1344,188.802 375.9094,188.802 Q375.7031,188.802 375.5813,188.6801 Q375.4594,188.5676 375.3938,188.2582 Q375.3656,188.0426 375.2531,187.9301 Q375.0563,187.7051 374.6906,187.5738 Q374.325,187.4426 373.95,187.4426 Q373.4906,187.4426 373.1063,187.6395 Q372.7313,187.8363 372.4313,188.2863 Q372.1406,188.7363 372.1406,189.3551 L372.1406,190.0113 Q372.1406,190.752 372.675,191.2488 Q373.2094,191.7363 374.1656,191.7363 Q374.7281,191.7363 375.1219,191.5863 Q375.3563,191.4926 375.6094,191.2301 Q375.7688,191.0707 375.8531,191.0238 Q375.9469,190.977 376.0687,190.977 Q376.2656,190.977 376.4156,191.1363 Q376.575,191.2863 376.575,191.4926 Q376.575,191.6988 376.3688,191.9426 Q376.0687,192.2895 375.5906,192.4863 Q374.9437,192.7582 374.1656,192.7582 Q373.2562,192.7582 372.5344,192.3832 Q371.9437,192.0832 371.5313,191.4457 Q371.1188,190.7988 371.1188,190.0301 L371.1188,189.3363 Q371.1188,188.5395 371.4844,187.8551 Q371.8594,187.1613 372.5156,186.7957 Q373.1719,186.4207 373.9125,186.4207 Q374.3531,186.4207 374.7375,186.5238 Q375.1312,186.6176 375.4594,186.8332 Z " fill="#000000"/><text fill="#000000" font-family="sans-serif" font-size="8.4" lengthAdjust="spacing" textLength="30" x="382.2" y="192.7863">RoleSet</text><line style="stroke:#181818;stroke-width:0.3;" x1="365.4" x2="413.4" y1="198.9082" y2="198.9082"/></g><!--class Set--><g id="elem_Set"><rect codeLine="28" fill="#F1F1F1" height="31.5492" id="Set" rx="1.5" ry="1.5" style="stroke:#181818;stroke-width:0.3;" width="53.4" x="354.9" y="248.4082"/><ellipse cx="363.9" cy="261.7828" fill="#B4A7E5" rx="6.6" ry="6.6" style="stroke:#181818;stroke-width:0.6;"/><path d="M364.4719,259.7672 L364.4719,263.7609 L365.5031,263.7609 Q365.8688,263.7609 366.0281,263.9016 Q366.1875,264.0422 366.1875,264.2766 Q366.1875,264.5016 366.0281,264.6422 Q365.8688,264.7828 365.5031,264.7828 L362.4188,264.7828 Q362.0531,264.7828 361.8938,264.6422 Q361.7344,264.5016 361.7344,264.2672 Q361.7344,264.0422 361.8938,263.9016 Q362.0531,263.7609 362.4188,263.7609 L363.45,263.7609 L363.45,259.7672 L362.4188,259.7672 Q362.0531,259.7672 361.8938,259.6266 Q361.7344,259.4859 361.7344,259.2516 Q361.7344,259.0266 361.8938,258.8859 Q362.0531,258.7453 362.4188,258.7453 L365.5031,258.7453 Q365.8688,258.7453 366.0281,258.8859 Q366.1875,259.0266 366.1875,259.2516 Q366.1875,259.4859 366.0281,259.6266 Q365.8688,259.7672 365.5031,259.7672 L364.4719,259.7672 Z " fill="#000000"/><text fill="#000000" font-family="sans-serif" font-size="7.2" font-style="italic" lengthAdjust="spacing" textLength="36.6" x="371.1" y="259.1777">&#171;interface&#187;</text><text fill="#000000" font-family="sans-serif" font-size="8.4" font-style="italic" lengthAdjust="spacing" textLength="12.6" x="383.1" y="270.0492">Set</text><line style="stroke:#181818;stroke-width:0.3;" x1="355.5" x2="407.7" y1="275.1574" y2="275.1574"/></g><!--class RoleAssigment--><g id="elem_RoleAssigment"><rect codeLine="31" fill="#F1F1F1" height="31.5492" id="RoleAssigment" rx="1.5" ry="1.5" style="stroke:#181818;stroke-width:0.3;" width="75.6" x="338.4" y="316.2082"/><ellipse cx="347.4" cy="329.5828" fill="#ADD1B2" rx="6.6" ry="6.6" style="stroke:#181818;stroke-width:0.6;"/><path d="M349.0594,327.1078 Q349.1531,326.9766 349.2656,326.9109 Q349.3781,326.8453 349.5094,326.8453 Q349.7344,326.8453 349.875,327.0047 Q350.0156,327.1547 350.0156,327.5203 L350.0156,328.3922 Q350.0156,328.7578 349.875,328.9172 Q349.7344,329.0766 349.5094,329.0766 Q349.3031,329.0766 349.1813,328.9547 Q349.0594,328.8422 348.9938,328.5328 Q348.9656,328.3172 348.8531,328.2047 Q348.6563,327.9797 348.2906,327.8484 Q347.925,327.7172 347.55,327.7172 Q347.0906,327.7172 346.7063,327.9141 Q346.3313,328.1109 346.0313,328.5609 Q345.7406,329.0109 345.7406,329.6297 L345.7406,330.2859 Q345.7406,331.0266 346.275,331.5234 Q346.8094,332.0109 347.7656,332.0109 Q348.3281,332.0109 348.7219,331.8609 Q348.9563,331.7672 349.2094,331.5047 Q349.3688,331.3453 349.4531,331.2984 Q349.5469,331.2516 349.6688,331.2516 Q349.8656,331.2516 350.0156,331.4109 Q350.175,331.5609 350.175,331.7672 Q350.175,331.9734 349.9688,332.2172 Q349.6688,332.5641 349.1906,332.7609 Q348.5438,333.0328 347.7656,333.0328 Q346.8563,333.0328 346.1344,332.6578 Q345.5438,332.3578 345.1312,331.7203 Q344.7188,331.0734 344.7188,330.3047 L344.7188,329.6109 Q344.7188,328.8141 345.0844,328.1297 Q345.4594,327.4359 346.1156,327.0703 Q346.7719,326.6953 347.5125,326.6953 Q347.9531,326.6953 348.3375,326.7984 Q348.7313,326.8922 349.0594,327.1078 Z " fill="#000000"/><text fill="#000000" font-family="sans-serif" font-size="7.2" font-style="italic" lengthAdjust="spacing" textLength="25.8" x="371.1" y="326.9777">&#171;entity&#187;</text><text fill="#000000" font-family="sans-serif" font-size="8.4" lengthAdjust="spacing" textLength="56.4" x="355.8" y="337.8492">RoleAssigment</text><line style="stroke:#181818;stroke-width:0.3;" x1="339" x2="413.4" y1="342.9574" y2="342.9574"/></g><!--class Role--><g id="elem_Role"><rect codeLine="34" fill="#F1F1F1" height="31.5492" id="Role" rx="1.5" ry="1.5" style="stroke:#181818;stroke-width:0.3;" width="65.4" x="343.5" y="384.0082"/><ellipse cx="352.5" cy="397.3828" fill="#ADD1B2" rx="6.6" ry="6.6" style="stroke:#181818;stroke-width:0.6;"/><path d="M354.1594,394.9078 Q354.2531,394.7766 354.3656,394.7109 Q354.4781,394.6453 354.6094,394.6453 Q354.8344,394.6453 354.975,394.8047 Q355.1156,394.9547 355.1156,395.3203 L355.1156,396.1922 Q355.1156,396.5578 354.975,396.7172 Q354.8344,396.8766 354.6094,396.8766 Q354.4031,396.8766 354.2813,396.7547 Q354.1594,396.6422 354.0938,396.3328 Q354.0656,396.1172 353.9531,396.0047 Q353.7562,395.7797 353.3906,395.6484 Q353.025,395.5172 352.65,395.5172 Q352.1906,395.5172 351.8063,395.7141 Q351.4313,395.9109 351.1312,396.3609 Q350.8406,396.8109 350.8406,397.4297 L350.8406,398.0859 Q350.8406,398.8266 351.375,399.3234 Q351.9094,399.8109 352.8656,399.8109 Q353.4281,399.8109 353.8219,399.6609 Q354.0563,399.5672 354.3094,399.3047 Q354.4688,399.1453 354.5531,399.0984 Q354.6469,399.0516 354.7688,399.0516 Q354.9656,399.0516 355.1156,399.2109 Q355.275,399.3609 355.275,399.5672 Q355.275,399.7734 355.0687,400.0172 Q354.7688,400.3641 354.2906,400.5609 Q353.6438,400.8328 352.8656,400.8328 Q351.9563,400.8328 351.2344,400.4578 Q350.6438,400.1578 350.2313,399.5203 Q349.8187,398.8734 349.8187,398.1047 L349.8187,397.4109 Q349.8187,396.6141 350.1844,395.9297 Q350.5594,395.2359 351.2156,394.8703 Q351.8719,394.4953 352.6125,394.4953 Q353.0531,394.4953 353.4375,394.5984 Q353.8313,394.6922 354.1594,394.9078 Z " fill="#000000"/><text fill="#000000" font-family="sans-serif" font-size="7.2" font-style="italic" lengthAdjust="spacing" textLength="48.6" x="359.7" y="394.7777">&#171;value object&#187;</text><text fill="#000000" font-family="sans-serif" font-size="8.4" lengthAdjust="spacing" textLength="17.4" x="375.3" y="405.6492">Role</text><line style="stroke:#181818;stroke-width:0.3;" x1="344.1" x2="408.3" y1="410.7574" y2="410.7574"/></g><!--link UserSession to SystemUser--><g id="link_UserSession_SystemUser"><path codeLine="39" d="M219,57.6262 C219,68.1142 219,78.5362 219,89.9362 " fill="none" id="UserSession-to-SystemUser" style="stroke:#181818;stroke-width:0.6;"/><polygon fill="#181818" points="219,93.5362,221.4,88.1362,219,90.5362,216.6,88.1362,219,93.5362" style="stroke:#181818;stroke-width:0.6;"/></g><!--link SystemUser to Username--><g id="link_SystemUser_Username"><path codeLine="40" d="M186.672,128.6182 C160.386,139.8262 122.388,156.1942 89.4,171.0082 C86.004,172.5322 85.7416,172.6379 82.2136,174.2579 " fill="none" id="SystemUser-to-Username" style="stroke:#181818;stroke-width:0.6;"/><polygon fill="#181818" points="78.942,175.7602,84.8509,175.6879,81.6683,174.5083,82.8479,171.3258,78.942,175.7602" style="stroke:#181818;stroke-width:0.6;"/></g><!--link SystemUser to Password--><g id="link_SystemUser_Password"><path codeLine="41" d="M196.074,135.1282 C181.674,147.8242 166.0922,161.5713 152.8502,173.2473 " fill="none" id="SystemUser-to-Password" style="stroke:#181818;stroke-width:0.6;"/><polygon fill="#181818" points="150.15,175.6282,155.7876,173.857,152.4002,173.6441,152.6131,170.2567,150.15,175.6282" style="stroke:#181818;stroke-width:0.6;"/></g><!--link SystemUser to Name--><g id="link_SystemUser_Name"><path codeLine="42" d="M219,135.1282 C219,147.8242 219,160.3522 219,172.0282 " fill="none" id="SystemUser-to-Name" style="stroke:#181818;stroke-width:0.6;"/><polygon fill="#181818" points="219,175.6282,221.4,170.2282,219,172.6282,216.6,170.2282,219,175.6282" style="stroke:#181818;stroke-width:0.6;"/></g><!--link SystemUser to EmailAddress--><g id="link_SystemUser_EmailAddress"><path codeLine="43" d="M242.724,135.1282 C257.622,147.8242 273.7997,161.6175 287.5037,173.2935 " fill="none" id="SystemUser-to-EmailAddress" style="stroke:#181818;stroke-width:0.6;"/><polygon fill="#181818" points="290.244,175.6282,287.6901,170.2993,287.9605,173.6826,284.5771,173.9529,290.244,175.6282" style="stroke:#181818;stroke-width:0.6;"/></g><!--link SystemUser to RoleSet--><g id="link_SystemUser_RoleSet"><path codeLine="44" d="M251.31,126.8962 C279.12,137.5342 320.094,153.9982 354.6,171.0082 C359.922,173.6302 362.4276,174.9241 367.5636,177.8941 " fill="none" id="SystemUser-to-RoleSet" style="stroke:#181818;stroke-width:0.6;"/><polygon fill="#181818" points="370.68,179.6962,367.2068,174.9153,368.083,178.1944,364.8039,179.0706,370.68,179.6962" style="stroke:#181818;stroke-width:0.6;"/></g><!--link RoleSet to Set--><g id="link_RoleSet_Set"><path codeLine="45" d="M388.146,203.7802 C386.832,215.8402 385.9247,224.1543 384.4607,237.5343 " fill="none" id="RoleSet-to-Set" style="stroke:#181818;stroke-width:0.6;stroke-dasharray:7.0,7.0;"/><polygon fill="none" points="383.286,248.2702,388.0393,237.9258,380.8821,237.1427,383.286,248.2702" style="stroke:#181818;stroke-width:0.6;"/></g><!--link Set to RoleAssigment--><g id="link_Set_RoleAssigment"><path codeLine="46" d="M380.346,280.3522 C379.476,291.1162 378.6087,301.814 377.7387,312.554 " fill="none" id="Set-to-RoleAssigment" style="stroke:#181818;stroke-width:0.6;stroke-dasharray:7.0,7.0;"/><polygon fill="#181818" points="377.448,316.1422,380.2762,310.9536,377.6902,313.152,375.4918,310.5661,377.448,316.1422" style="stroke:#181818;stroke-width:0.6;"/></g><!--link RoleAssigment to Role--><g id="link_RoleAssigment_Role"><path codeLine="47" d="M376.2,348.1522 C376.2,358.9162 376.2,369.6022 376.2,380.3422 " fill="none" id="RoleAssigment-to-Role" style="stroke:#181818;stroke-width:0.6;"/><polygon fill="#181818" points="376.2,383.9422,378.6,378.5422,376.2,380.9422,373.8,378.5422,376.2,383.9422" style="stroke:#181818;stroke-width:0.6;"/></g><!--SRC=[bP91RiCW44Ntd6AKVQ8U05doeejkegfM3Z31KvV6W0MJLaxIknSdfIAk5JSim33_uT7_X9ss7Neqe5eCeMJsUhjdUbBELlf0y23UT4r0fkCUC9M34117Xsg73S52IcmQJmqo5GLKVM0ocq1-0SUBSXZdFsH5a98iQ-uZ8gLtZkF7yLV-DIO7ngAXAFx0Ta_Wjk-a-4phUfwjA0Jjx5_y1lSSfq_dwxkWzMIJDu17Wxejwzh73ky2NrnB5V6qH5ic_ugAO914Zz9-_iuoEjMOc4wUqGppZyRZaWUnNEPlHMGlOwYakCVdAPBn-Nf2cnixhlru9vA7gzMf69mIbqrnROIujYLT8Bu1]--></g></svg>