<?xml version="1.0" encoding="us-ascii" standalone="no"?><svg xmlns="http://www.w3.org/2000/svg" xmlns:xlink="http://www.w3.org/1999/xlink" contentStyleType="text/css" height="560.7px" preserveAspectRatio="none" style="width:891px;height:560px;background:#FFFFFF;" version="1.1" viewBox="0 0 891 560" width="891.8px" zoomAndPan="magnify"><defs/><g><polygon fill="#FFFFFF" points="150.85,81.8385,150.85,81.8875,152.25,81.7418,153.65,81.8836,155.05,81.9317,156.45,81.672,157.85,81.8385,157.8319,81.8385,157.7505,86.2192,157.7605,90.6,157.8341,94.9807,157.6887,99.3614,157.85,103.7422,157.85,103.8714,156.45,103.5951,155.05,103.696,153.65,103.843,152.25,103.7222,150.85,103.7422,150.8659,103.7422,150.8425,99.3614,150.8917,94.9807,150.9058,90.6,150.9867,86.2192,150.85,81.8385" style="stroke:#181818;stroke-width:0.6999999999999998;"/><polygon fill="#FFFFFF" points="150.85,125.6459,150.85,125.6949,152.25,125.5492,153.65,125.691,155.05,125.7392,156.45,125.4794,157.85,125.6459,157.7956,125.6459,157.5515,132.6547,157.5816,139.6636,157.8023,146.6724,157.366,153.6812,158.2375,160.6901,157.4088,167.6989,157.7116,174.7077,158.1524,181.7166,157.79,188.7254,157.8978,195.7342,157.8276,202.7431,157.975,209.7519,158.0174,216.7607,158.26,223.7696,158.3197,230.7784,158.3255,237.7872,158.0282,244.7961,158.1745,251.8049,158.3416,258.8137,157.3452,265.8226,158.325,272.8314,157.6424,279.8402,158.2237,286.8491,157.5035,293.8579,157.8021,300.8668,158.3691,307.8756,157.8159,314.8844,157.9237,321.8933,158.087,328.9021,158.1414,335.9109,157.8473,342.9198,158.051,349.9286,157.4493,356.9374,158.0491,363.9463,158.2337,370.9551,158.1612,377.9639,158.2791,384.9728,157.5118,391.9816,157.3935,398.9904,157.415,405.9993,157.8088,413.0081,157.7124,420.0169,158.327,427.0258,157.7277,434.0346,157.6099,441.0434,158.0098,448.0523,157.3832,455.0611,157.4866,462.0699,158.3043,469.0788,158.155,476.0876,158.3641,483.0964,157.85,490.1053,157.85,490.0302,156.45,490.1798,155.05,490.243,153.65,489.995,152.25,490.0829,150.85,490.1053,150.9382,490.1053,151.3062,483.0964,150.8471,476.0876,151.1738,469.0788,150.4624,462.0699,150.3759,455.0611,151.2025,448.0523,150.3481,441.0434,151.2063,434.0346,150.9946,427.0258,150.6625,420.0169,150.6024,413.0081,151.1711,405.9993,150.6405,398.9904,151.2643,391.9816,150.4631,384.9728,151.2822,377.9639,151.189,370.9551,151.0215,363.9463,150.8831,356.9374,151.3586,349.9286,151.2795,342.9198,150.9685,335.9109,151.0377,328.9021,150.7588,321.8933,151.3515,314.8844,150.9584,307.8756,150.9708,300.8668,150.4242,293.8579,150.5663,286.8491,151.2215,279.8402,151.1508,272.8314,150.8199,265.8226,150.6245,258.8137,150.6968,251.8049,150.3697,244.7961,151.1403,237.7872,151.3677,230.7784,151.2185,223.7696,151.3365,216.7607,150.7543,209.7519,150.9111,202.7431,150.5787,195.7342,151.0488,188.7254,151.0227,181.7166,151.2367,174.7077,150.6892,167.6989,150.7559,160.6901,151.1604,153.6812,151.2471,146.6724,150.4912,139.6636,150.7143,132.6547,150.85,125.6459" style="stroke:#181818;stroke-width:0.6999999999999998;"/><polygon fill="#FFFFFF" points="262.85,147.5496,262.85,147.5987,264.25,147.4529,265.65,147.5947,267.05,147.6429,268.45,147.3832,269.85,147.5496,269.8319,147.5496,269.7505,151.9304,269.7605,156.3111,269.8341,160.6918,269.6887,165.0726,269.85,169.4533,269.85,169.5825,268.45,169.3063,267.05,169.4072,265.65,169.5541,264.25,169.4333,262.85,169.4533,262.8659,169.4533,262.8425,165.0726,262.8917,160.6918,262.9058,156.3111,262.9867,151.9304,262.85,147.5496" style="stroke:#181818;stroke-width:0.6999999999999998;"/><polygon fill="#FFFFFF" points="358.05,191.357,358.05,191.4061,359.45,191.2604,360.85,191.4021,362.25,191.4503,363.65,191.1906,365.05,191.357,364.9956,191.357,364.7515,198.2781,364.7816,205.1993,365.0023,212.1204,364.566,219.0415,365.4375,225.9626,364.6088,232.8837,364.9116,239.8048,365.3524,246.7259,364.99,253.6471,365.0978,260.5682,365.0276,267.4893,365.175,274.4104,365.2174,281.3315,365.46,288.2526,365.5197,295.1737,365.5255,302.0948,365.2282,309.016,365.3745,315.9371,365.5416,322.8582,364.5452,329.7793,365.525,336.7004,364.8424,343.6215,365.4237,350.5426,364.7035,357.4637,365.0021,364.3849,365.5691,371.306,365.0159,378.2271,365.1237,385.1482,365.287,392.0693,365.3414,398.9904,365.0473,405.9115,365.251,412.8327,364.6493,419.7538,365.2491,426.6749,365.4337,433.596,365.3612,440.5171,365.4791,447.4382,364.7118,454.3593,364.5935,461.2804,365.05,468.2016,365.05,468.0566,363.65,468.1878,362.25,468.1557,360.85,468.3606,359.45,468.1608,358.05,468.2016,357.8099,468.2016,358.2098,461.2804,357.5832,454.3593,357.6866,447.4382,358.5043,440.5171,358.355,433.596,358.5641,426.6749,357.8247,419.7538,358.2734,412.8327,358.4633,405.9115,357.7193,398.9904,357.9829,392.0693,358.1382,385.1482,358.5062,378.2271,358.0471,371.306,358.3738,364.3849,357.6624,357.4637,357.5759,350.5426,358.4025,343.6215,357.5481,336.7004,358.4063,329.7793,358.1946,322.8582,357.8625,315.9371,357.8024,309.016,358.3711,302.0948,357.8405,295.1737,358.4643,288.2526,357.6631,281.3315,358.4822,274.4104,358.389,267.4893,358.2215,260.5682,358.0831,253.6471,358.5586,246.7259,358.4795,239.8048,358.1685,232.8837,358.2377,225.9626,357.9588,219.0415,358.5515,212.1204,358.1584,205.1993,358.1708,198.2781,358.05,191.357" style="stroke:#181818;stroke-width:0.6999999999999998;"/><polygon fill="#FFFFFF" points="467.95,239.3645,467.95,239.4135,469.35,239.2678,470.75,239.4096,472.15,239.4577,473.55,239.198,474.95,239.3645,474.9319,239.3645,474.8505,243.7452,474.8605,248.1259,474.9341,252.5067,474.7887,256.8874,474.95,261.2682,474.95,261.3973,473.55,261.1211,472.15,261.222,470.75,261.369,469.35,261.2481,467.95,261.2682,467.9659,261.2682,467.9425,256.8874,467.9917,252.5067,468.0058,248.1259,468.0867,243.7452,467.95,239.3645" style="stroke:#181818;stroke-width:0.6999999999999998;"/><polygon fill="#FFFFFF" points="670.95,283.1719,670.95,283.2209,672.35,283.0752,673.75,283.217,675.15,283.2651,676.55,283.0054,677.95,283.1719,677.9319,283.1719,677.8505,287.5526,677.8605,291.9334,677.9341,296.3141,677.7887,300.6948,677.95,305.0756,677.95,305.2048,676.55,304.9285,675.15,305.0294,673.75,305.1764,672.35,305.0556,670.95,305.0756,670.9659,305.0756,670.9425,300.6948,670.9917,296.3141,671.0058,291.9334,671.0867,287.5526,670.95,283.1719" style="stroke:#181818;stroke-width:0.6999999999999998;"/><polygon fill="#FFFFFF" points="781.55,326.9793,781.55,327.0283,782.95,326.8826,784.35,327.0244,785.75,327.0726,787.15,326.8128,788.55,326.9793,788.5319,326.9793,788.4505,331.36,788.4605,335.7408,788.5341,340.1215,788.3887,344.5023,788.55,348.883,788.55,349.0122,787.15,348.7359,785.75,348.8369,784.35,348.9838,782.95,348.863,781.55,348.883,781.5659,348.883,781.5425,344.5023,781.5917,340.1215,781.6058,335.7408,781.6867,331.36,781.55,326.9793" style="stroke:#181818;stroke-width:0.6999999999999998;"/><polygon fill="#FFFFFF" points="781.55,414.5941,781.55,414.6432,782.95,414.4975,784.35,414.6392,785.75,414.6874,787.15,414.4277,788.55,414.5941,788.5319,414.5941,788.4505,416.5541,788.4605,418.5141,788.5341,420.4741,788.3887,422.4341,788.55,424.3941,788.55,424.5233,787.15,424.2471,785.75,424.348,784.35,424.4949,782.95,424.3741,781.55,424.3941,781.5659,424.3941,781.5425,422.4341,781.5917,420.4741,781.6058,418.5141,781.6867,416.5541,781.55,414.5941" style="stroke:#181818;stroke-width:0.6999999999999998;"/><polygon fill="#FFFFFF" points="857.5,370.7867,857.5,370.8358,858.9,370.69,860.3,370.8318,861.7,370.88,863.1,370.6203,864.5,370.7867,864.4819,370.7867,864.4005,375.1675,864.4105,379.5482,864.4841,383.9289,864.3387,388.3097,864.5,392.6904,864.5,392.8196,863.1,392.5434,861.7,392.6443,860.3,392.7912,858.9,392.6704,857.5,392.6904,857.5159,392.6904,857.4925,388.3097,857.5417,383.9289,857.5558,379.5482,857.6367,375.1675,857.5,370.7867" style="stroke:#181818;stroke-width:0.6999999999999998;"/><path d="M15.4,58.5348 L15.5962,58.5348 L15.0133,65.5851 L15.5804,72.6354 L15.773,79.6857 L14.7342,86.7361 L15.3275,93.7864 L15.0019,100.8367 L15.0421,107.887 L15.3364,114.9374 L14.7547,121.9877 L15.9167,129.038 L14.8117,136.0883 L15.2154,143.1387 L15.8032,150.189 L15.3199,157.2393 L15.4637,164.2896 L15.3702,171.34 L15.5666,178.3903 L15.6232,185.4406 L15.9466,192.491 L16.0263,199.5413 L16.034,206.5916 L15.6377,213.6419 L15.8327,220.6923 L16.0554,227.7426 L14.7269,234.7929 L16.0333,241.8432 L15.1233,248.8936 L15.8982,255.9439 L14.938,262.9942 L15.3361,270.0445 L16.0922,277.0949 L15.3545,284.1452 L15.4983,291.1955 L15.7161,298.2458 L15.7885,305.2962 L15.3964,312.3465 L15.6681,319.3968 L14.8657,326.4471 L15.6654,333.4975 L15.9116,340.5478 L15.8149,347.5981 L15.9722,354.6484 L14.9491,361.6988 L14.7913,368.7491 L14.82,375.7994 L15.345,382.8497 L15.2166,389.9001 L16.036,396.9504 L15.237,404.0007 L15.0798,411.051 L15.6131,418.1014 L14.7776,425.1517 L14.9155,432.202 L16.0057,439.2523 L15.8066,446.3027 L16.0855,453.353 L15.0997,460.4033 L15.6979,467.4536 L15.9511,474.504 L14.9591,481.5543 L15.3105,488.6046 L15.5176,495.6549 L15.4,502.7053 " fill="none" style="stroke:#181818;stroke-width:0.3499999999999999;stroke-dasharray:5.0,5.0;"/><path d="M154,58.5348 L154.1962,58.5348 L153.6133,65.5851 L154.1804,72.6354 L154.373,79.6857 L153.3342,86.7361 L153.9275,93.7864 L153.6019,100.8367 L153.6421,107.887 L153.9364,114.9374 L153.3547,121.9877 L154.5167,129.038 L153.4117,136.0883 L153.8154,143.1387 L154.4032,150.189 L153.9199,157.2393 L154.0637,164.2896 L153.9702,171.34 L154.1666,178.3903 L154.2232,185.4406 L154.5466,192.491 L154.6263,199.5413 L154.634,206.5916 L154.2377,213.6419 L154.4327,220.6923 L154.6554,227.7426 L153.3269,234.7929 L154.6333,241.8432 L153.7233,248.8936 L154.4982,255.9439 L153.538,262.9942 L153.9361,270.0445 L154.6922,277.0949 L153.9545,284.1452 L154.0983,291.1955 L154.3161,298.2458 L154.3885,305.2962 L153.9964,312.3465 L154.2681,319.3968 L153.4657,326.4471 L154.2654,333.4975 L154.5116,340.5478 L154.4149,347.5981 L154.5722,354.6484 L153.5491,361.6988 L153.3913,368.7491 L153.42,375.7994 L153.945,382.8497 L153.8166,389.9001 L154.636,396.9504 L153.837,404.0007 L153.6798,411.051 L154.2131,418.1014 L153.3776,425.1517 L153.5155,432.202 L154.6057,439.2523 L154.4066,446.3027 L154.6855,453.353 L153.6997,460.4033 L154.2979,467.4536 L154.5511,474.504 L153.5591,481.5543 L153.9105,488.6046 L154.1176,495.6549 L154,502.7053 " fill="none" style="stroke:#181818;stroke-width:0.3499999999999999;stroke-dasharray:5.0,5.0;"/><path d="M266,58.5348 L266.1962,58.5348 L265.6133,65.5851 L266.1804,72.6354 L266.373,79.6857 L265.3342,86.7361 L265.9275,93.7864 L265.6019,100.8367 L265.6421,107.887 L265.9364,114.9374 L265.3547,121.9877 L266.5167,129.038 L265.4117,136.0883 L265.8154,143.1387 L266.4032,150.189 L265.9199,157.2393 L266.0637,164.2896 L265.9702,171.34 L266.1666,178.3903 L266.2232,185.4406 L266.5466,192.491 L266.6263,199.5413 L266.634,206.5916 L266.2377,213.6419 L266.4327,220.6923 L266.6554,227.7426 L265.3269,234.7929 L266.6333,241.8432 L265.7233,248.8936 L266.4982,255.9439 L265.538,262.9942 L265.9361,270.0445 L266.6922,277.0949 L265.9545,284.1452 L266.0983,291.1955 L266.3161,298.2458 L266.3885,305.2962 L265.9964,312.3465 L266.2681,319.3968 L265.4657,326.4471 L266.2654,333.4975 L266.5116,340.5478 L266.4149,347.5981 L266.5722,354.6484 L265.5491,361.6988 L265.3913,368.7491 L265.42,375.7994 L265.945,382.8497 L265.8166,389.9001 L266.636,396.9504 L265.837,404.0007 L265.6798,411.051 L266.2131,418.1014 L265.3776,425.1517 L265.5155,432.202 L266.6057,439.2523 L266.4066,446.3027 L266.6855,453.353 L265.6997,460.4033 L266.2979,467.4536 L266.5511,474.504 L265.5591,481.5543 L265.9105,488.6046 L266.1176,495.6549 L266,502.7053 " fill="none" style="stroke:#181818;stroke-width:0.3499999999999999;stroke-dasharray:5.0,5.0;"/><path d="M361.2,58.5348 L361.3962,58.5348 L360.8133,65.5851 L361.3804,72.6354 L361.573,79.6857 L360.5342,86.7361 L361.1275,93.7864 L360.8019,100.8367 L360.8421,107.887 L361.1364,114.9374 L360.5547,121.9877 L361.7167,129.038 L360.6117,136.0883 L361.0154,143.1387 L361.6032,150.189 L361.1199,157.2393 L361.2637,164.2896 L361.1702,171.34 L361.3666,178.3903 L361.4232,185.4406 L361.7466,192.491 L361.8263,199.5413 L361.834,206.5916 L361.4377,213.6419 L361.6327,220.6923 L361.8554,227.7426 L360.5269,234.7929 L361.8333,241.8432 L360.9233,248.8936 L361.6982,255.9439 L360.738,262.9942 L361.1361,270.0445 L361.8922,277.0949 L361.1545,284.1452 L361.2983,291.1955 L361.5161,298.2458 L361.5885,305.2962 L361.1964,312.3465 L361.4681,319.3968 L360.6657,326.4471 L361.4654,333.4975 L361.7116,340.5478 L361.6149,347.5981 L361.7722,354.6484 L360.7491,361.6988 L360.5913,368.7491 L360.62,375.7994 L361.145,382.8497 L361.0166,389.9001 L361.836,396.9504 L361.037,404.0007 L360.8798,411.051 L361.4131,418.1014 L360.5776,425.1517 L360.7155,432.202 L361.8057,439.2523 L361.6066,446.3027 L361.8855,453.353 L360.8997,460.4033 L361.4979,467.4536 L361.7511,474.504 L360.7591,481.5543 L361.1105,488.6046 L361.3176,495.6549 L361.2,502.7053 " fill="none" style="stroke:#181818;stroke-width:0.3499999999999999;stroke-dasharray:5.0,5.0;"/><path d="M471.1,58.5348 L471.2962,58.5348 L470.7133,65.5851 L471.2804,72.6354 L471.473,79.6857 L470.4342,86.7361 L471.0275,93.7864 L470.7019,100.8367 L470.7421,107.887 L471.0364,114.9374 L470.4547,121.9877 L471.6167,129.038 L470.5117,136.0883 L470.9154,143.1387 L471.5032,150.189 L471.0199,157.2393 L471.1637,164.2896 L471.0702,171.34 L471.2666,178.3903 L471.3232,185.4406 L471.6466,192.491 L471.7263,199.5413 L471.734,206.5916 L471.3377,213.6419 L471.5327,220.6923 L471.7554,227.7426 L470.4269,234.7929 L471.7333,241.8432 L470.8233,248.8936 L471.5982,255.9439 L470.638,262.9942 L471.0361,270.0445 L471.7922,277.0949 L471.0545,284.1452 L471.1983,291.1955 L471.4161,298.2458 L471.4885,305.2962 L471.0964,312.3465 L471.3681,319.3968 L470.5657,326.4471 L471.3654,333.4975 L471.6116,340.5478 L471.5149,347.5981 L471.6722,354.6484 L470.6491,361.6988 L470.4913,368.7491 L470.52,375.7994 L471.045,382.8497 L470.9166,389.9001 L471.736,396.9504 L470.937,404.0007 L470.7798,411.051 L471.3131,418.1014 L470.4776,425.1517 L470.6155,432.202 L471.7057,439.2523 L471.5066,446.3027 L471.7855,453.353 L470.7997,460.4033 L471.3979,467.4536 L471.6511,474.504 L470.6591,481.5543 L471.0105,488.6046 L471.2176,495.6549 L471.1,502.7053 " fill="none" style="stroke:#181818;stroke-width:0.3499999999999999;stroke-dasharray:5.0,5.0;"/><path d="M567,58.5348 L567.1962,58.5348 L566.6133,65.5851 L567.1804,72.6354 L567.373,79.6857 L566.3342,86.7361 L566.9275,93.7864 L566.6019,100.8367 L566.6421,107.887 L566.9364,114.9374 L566.3547,121.9877 L567.5167,129.038 L566.4117,136.0883 L566.8154,143.1387 L567.4032,150.189 L566.9199,157.2393 L567.0637,164.2896 L566.9702,171.34 L567.1666,178.3903 L567.2232,185.4406 L567.5466,192.491 L567.6263,199.5413 L567.634,206.5916 L567.2377,213.6419 L567.4327,220.6923 L567.6554,227.7426 L566.3269,234.7929 L567.6333,241.8432 L566.7233,248.8936 L567.4982,255.9439 L566.538,262.9942 L566.9361,270.0445 L567.6922,277.0949 L566.9545,284.1452 L567.0983,291.1955 L567.3161,298.2458 L567.3885,305.2962 L566.9964,312.3465 L567.2681,319.3968 L566.4657,326.4471 L567.2654,333.4975 L567.5116,340.5478 L567.4149,347.5981 L567.5722,354.6484 L566.5491,361.6988 L566.3913,368.7491 L566.42,375.7994 L566.945,382.8497 L566.8166,389.9001 L567.636,396.9504 L566.837,404.0007 L566.6798,411.051 L567.2131,418.1014 L566.3776,425.1517 L566.5155,432.202 L567.6057,439.2523 L567.4066,446.3027 L567.6855,453.353 L566.6997,460.4033 L567.2979,467.4536 L567.5511,474.504 L566.5591,481.5543 L566.9105,488.6046 L567.1176,495.6549 L567,502.7053 " fill="none" style="stroke:#181818;stroke-width:0.3499999999999999;stroke-dasharray:5.0,5.0;"/><path d="M674.1,58.5348 L674.2962,58.5348 L673.7133,65.5851 L674.2804,72.6354 L674.473,79.6857 L673.4342,86.7361 L674.0275,93.7864 L673.7019,100.8367 L673.7421,107.887 L674.0364,114.9374 L673.4547,121.9877 L674.6167,129.038 L673.5117,136.0883 L673.9154,143.1387 L674.5032,150.189 L674.0199,157.2393 L674.1637,164.2896 L674.0702,171.34 L674.2666,178.3903 L674.3232,185.4406 L674.6466,192.491 L674.7263,199.5413 L674.734,206.5916 L674.3377,213.6419 L674.5327,220.6923 L674.7554,227.7426 L673.4269,234.7929 L674.7333,241.8432 L673.8233,248.8936 L674.5982,255.9439 L673.638,262.9942 L674.0361,270.0445 L674.7922,277.0949 L674.0545,284.1452 L674.1983,291.1955 L674.4161,298.2458 L674.4885,305.2962 L674.0964,312.3465 L674.3681,319.3968 L673.5657,326.4471 L674.3654,333.4975 L674.6116,340.5478 L674.5149,347.5981 L674.6722,354.6484 L673.6491,361.6988 L673.4913,368.7491 L673.52,375.7994 L674.045,382.8497 L673.9166,389.9001 L674.736,396.9504 L673.937,404.0007 L673.7798,411.051 L674.3131,418.1014 L673.4776,425.1517 L673.6155,432.202 L674.7057,439.2523 L674.5066,446.3027 L674.7855,453.353 L673.7997,460.4033 L674.3979,467.4536 L674.6511,474.504 L673.6591,481.5543 L674.0105,488.6046 L674.2176,495.6549 L674.1,502.7053 " fill="none" style="stroke:#181818;stroke-width:0.3499999999999999;stroke-dasharray:5.0,5.0;"/><path d="M784.7,58.5348 L784.8962,58.5348 L784.3133,65.5851 L784.8804,72.6354 L785.073,79.6857 L784.0342,86.7361 L784.6275,93.7864 L784.3019,100.8367 L784.3421,107.887 L784.6364,114.9374 L784.0547,121.9877 L785.2167,129.038 L784.1117,136.0883 L784.5154,143.1387 L785.1032,150.189 L784.6199,157.2393 L784.7637,164.2896 L784.6702,171.34 L784.8666,178.3903 L784.9232,185.4406 L785.2466,192.491 L785.3263,199.5413 L785.334,206.5916 L784.9377,213.6419 L785.1327,220.6923 L785.3554,227.7426 L784.0269,234.7929 L785.3333,241.8432 L784.4233,248.8936 L785.1982,255.9439 L784.238,262.9942 L784.6361,270.0445 L785.3922,277.0949 L784.6545,284.1452 L784.7983,291.1955 L785.0161,298.2458 L785.0885,305.2962 L784.6964,312.3465 L784.9681,319.3968 L784.1657,326.4471 L784.9654,333.4975 L785.2116,340.5478 L785.1149,347.5981 L785.2722,354.6484 L784.2491,361.6988 L784.0913,368.7491 L784.12,375.7994 L784.645,382.8497 L784.5166,389.9001 L785.336,396.9504 L784.537,404.0007 L784.3798,411.051 L784.9131,418.1014 L784.0776,425.1517 L784.2155,432.202 L785.3057,439.2523 L785.1066,446.3027 L785.3855,453.353 L784.3997,460.4033 L784.9979,467.4536 L785.2511,474.504 L784.2591,481.5543 L784.6105,488.6046 L784.8176,495.6549 L784.7,502.7053 " fill="none" style="stroke:#181818;stroke-width:0.3499999999999999;stroke-dasharray:5.0,5.0;"/><path d="M861,58.5348 L861.1962,58.5348 L860.6133,65.5851 L861.1804,72.6354 L861.373,79.6857 L860.3342,86.7361 L860.9275,93.7864 L860.6019,100.8367 L860.6421,107.887 L860.9364,114.9374 L860.3547,121.9877 L861.5167,129.038 L860.4117,136.0883 L860.8154,143.1387 L861.4032,150.189 L860.9199,157.2393 L861.0637,164.2896 L860.9702,171.34 L861.1666,178.3903 L861.2232,185.4406 L861.5466,192.491 L861.6263,199.5413 L861.634,206.5916 L861.2377,213.6419 L861.4327,220.6923 L861.6554,227.7426 L860.3269,234.7929 L861.6333,241.8432 L860.7233,248.8936 L861.4982,255.9439 L860.538,262.9942 L860.9361,270.0445 L861.6922,277.0949 L860.9545,284.1452 L861.0983,291.1955 L861.3161,298.2458 L861.3885,305.2962 L860.9964,312.3465 L861.2681,319.3968 L860.4657,326.4471 L861.2654,333.4975 L861.5116,340.5478 L861.4149,347.5981 L861.5722,354.6484 L860.5491,361.6988 L860.3913,368.7491 L860.42,375.7994 L860.945,382.8497 L860.8166,389.9001 L861.636,396.9504 L860.837,404.0007 L860.6798,411.051 L861.2131,418.1014 L860.3776,425.1517 L860.5155,432.202 L861.6057,439.2523 L861.4066,446.3027 L861.6855,453.353 L860.6997,460.4033 L861.2979,467.4536 L861.5511,474.504 L860.5591,481.5543 L860.9105,488.6046 L861.1176,495.6549 L861,502.7053 " fill="none" style="stroke:#181818;stroke-width:0.3499999999999999;stroke-dasharray:5.0,5.0;"/><text fill="#000000" font-family="FG Virgil" font-size="9.8" lengthAdjust="spacing" textLength="20.3" x="3.5" y="56.0752">User</text><polygon fill="#E3E3E3" points="21.3809,10.8121,20.5601,11.9337,19.5892,13.5765,18.2006,14.6837,16.7414,15.2891,15.5779,15.3416,14.0826,14.5845,12.6716,14.0898,11.6007,13.0855,11.0389,11.9358,10.7058,11.0203,10.3794,9.8245,9.8496,8.7955,10.2567,7.7909,10.6134,6.6903,11.9518,5.8199,12.8935,4.6906,14.059,4.3155,15.4446,3.9926,17.2215,4.1845,18.1947,4.6434,19.3262,4.8515,20.702,6.261,21.1816,7.7491,21.39,8.7644,21.154,10.4376" style="stroke:#181818;stroke-width:0.3499999999999999;"/><path d="M15.75,15.05 L15.8808,15.05 L15.4922,18.83 L15.8703,22.61 L15.9987,26.39 L15.3061,30.17 L15.75,33.95 M6.65,20.65 L6.65,20.6016 L10.29,20.3846 L13.93,20.4114 L17.57,20.6076 L21.21,20.2198 L24.85,20.65 M15.75,33.95 L16.0103,34.1756 L13.6336,35.7932 L12.017,38.0694 L10.4931,40.426 L8.4297,42.315 L6.65,44.45 M15.75,33.95 L15.7821,33.9778 L17.555,36.037 L19.4739,38.2228 L21.3224,40.3474 L23.3054,42.5887 L24.85,44.45 " fill="none" style="stroke:#181818;stroke-width:0.3499999999999999;"/><text fill="#000000" font-family="FG Virgil" font-size="9.8" lengthAdjust="spacing" textLength="20.3" x="3.5" y="512.5805">User</text><polygon fill="#E3E3E3" points="21.3809,522.3522,20.5601,523.4738,19.5892,525.1166,18.2006,526.2237,16.7414,526.8291,15.5779,526.8817,14.0826,526.1245,12.6716,525.6299,11.6007,524.6255,11.0389,523.4758,10.7058,522.5603,10.3794,521.3646,9.8496,520.3356,10.2567,519.3309,10.6134,518.2304,11.9518,517.36,12.8935,516.2306,14.059,515.8556,15.4446,515.5326,17.2215,515.7245,18.1947,516.1835,19.3262,516.3915,20.702,517.8011,21.1816,519.2891,21.39,520.3045,21.154,521.9776" style="stroke:#181818;stroke-width:0.3499999999999999;"/><path d="M15.75,526.59 L15.8808,526.59 L15.4922,530.37 L15.8703,534.15 L15.9987,537.93 L15.3061,541.71 L15.75,545.49 M6.65,532.19 L6.65,532.1417 L10.29,531.9247 L13.93,531.9514 L17.57,532.1476 L21.21,531.7599 L24.85,532.19 M15.75,545.49 L16.0103,545.7157 L13.6336,547.3332 L12.017,549.6094 L10.4931,551.9661 L8.4297,553.8551 L6.65,555.99 M15.75,545.49 L15.7821,545.5178 L17.555,547.577 L19.4739,549.7628 L21.3224,551.8875 L23.3054,554.1287 L24.85,555.99 " fill="none" style="stroke:#181818;stroke-width:0.3499999999999999;"/><polygon fill="#E3E3E3" points="108.15,21.9652,108.15,22.1124,115.2577,21.6752,122.3654,22.1005,129.4731,22.245,136.5808,21.4659,143.6885,21.9108,150.7962,21.6667,157.9038,21.6968,165.0115,21.9175,172.1192,21.4813,179.2269,22.3528,186.3346,21.524,193.4423,21.8268,200.55,21.9652,200.5886,22.0584,200.7898,22.0493,201.0511,22.185,201.2896,22.2659,201.5559,22.4138,201.7874,22.4778,201.839,22.4992,202.0162,22.7776,202.1371,23.0327,202.2414,23.2809,202.2524,23.4905,202.3,23.7152,202.6245,23.7152,202.7916,30.1891,201.7952,36.663,202.775,43.137,202.0924,49.6109,202.3,56.0848,202.4151,56.1324,202.0908,56.2881,202.0802,56.5736,202.1523,56.8934,201.8794,57.0704,201.7874,57.3222,201.7968,57.3449,201.5702,57.4977,201.3296,57.617,201.0446,57.6289,200.8231,57.7942,200.55,57.8348,200.55,57.4341,193.4423,58.0338,186.3346,58.2185,179.2269,58.1459,172.1192,58.2639,165.0115,57.4966,157.9038,57.3782,150.7962,57.3998,143.6885,57.7935,136.5808,57.6972,129.4731,58.3118,122.3654,57.7125,115.2577,57.5946,108.15,57.8348,108.1704,57.884,107.843,57.5885,107.6087,57.5178,107.4655,57.6671,107.199,57.5186,106.9126,57.3222,107.0709,57.3878,106.7407,57.046,106.7763,56.8557,106.7323,56.6325,106.4007,56.2901,106.4,56.0848,106.3329,56.0848,106.4882,49.6109,106.8562,43.137,106.3971,36.663,106.7238,30.1891,106.4,23.7152,106.2806,23.6658,106.3565,23.4073,106.7136,23.2652,106.553,22.9088,106.9198,22.7707,106.9126,22.4778,106.931,22.5223,107.1361,22.3175,107.3759,22.1965,107.696,22.2692,107.8758,22.0032,108.15,21.9652" style="stroke:#181818;stroke-width:0.3499999999999999;"/><text fill="#000000" font-family="FG Virgil" font-size="9.8" font-style="italic" lengthAdjust="spacing" textLength="66.5" x="121.1" y="37.4404">&#171;presentation&#187;</text><text fill="#000000" font-family="FG Virgil" font-size="9.8" lengthAdjust="spacing" textLength="86.1" x="111.3" y="50.4752">ChangePasswordUI</text><polygon fill="#E3E3E3" points="108.15,502.0053,108.15,502.1524,115.2577,501.7152,122.3654,502.1406,129.4731,502.285,136.5808,501.5059,143.6885,501.9509,150.7962,501.7067,157.9038,501.7368,165.0115,501.9576,172.1192,501.5213,179.2269,502.3928,186.3346,501.5641,193.4423,501.8668,200.55,502.0053,200.5886,502.0984,200.7898,502.0893,201.0511,502.225,201.2896,502.3059,201.5559,502.4538,201.7874,502.5178,201.839,502.5392,202.0162,502.8176,202.1371,503.0727,202.2414,503.321,202.2524,503.5305,202.3,503.7553,202.6245,503.7553,202.7916,510.2292,201.7952,516.7031,202.775,523.177,202.0924,529.6509,202.3,536.1248,202.4151,536.1725,202.0908,536.3281,202.0802,536.6137,202.1523,536.9335,201.8794,537.1104,201.7874,537.3622,201.7968,537.3849,201.5702,537.5378,201.3296,537.657,201.0446,537.6689,200.8231,537.8342,200.55,537.8748,200.55,537.4741,193.4423,538.0739,186.3346,538.2585,179.2269,538.186,172.1192,538.3039,165.0115,537.5366,157.9038,537.4183,150.7962,537.4398,143.6885,537.8336,136.5808,537.7372,129.4731,538.3518,122.3654,537.7525,115.2577,537.6347,108.15,537.8748,108.1704,537.924,107.843,537.6285,107.6087,537.5579,107.4655,537.7072,107.199,537.5587,106.9126,537.3622,107.0709,537.4278,106.7407,537.086,106.7763,536.8958,106.7323,536.6725,106.4007,536.3301,106.4,536.1248,106.3329,536.1248,106.4882,529.6509,106.8562,523.177,106.3971,516.7031,106.7238,510.2292,106.4,503.7553,106.2806,503.7058,106.3565,503.4473,106.7136,503.3053,106.553,502.9488,106.9198,502.8108,106.9126,502.5178,106.931,502.5624,107.1361,502.3576,107.3759,502.2365,107.696,502.3092,107.8758,502.0433,108.15,502.0053" style="stroke:#181818;stroke-width:0.3499999999999999;"/><text fill="#000000" font-family="FG Virgil" font-size="9.8" font-style="italic" lengthAdjust="spacing" textLength="66.5" x="121.1" y="517.4805">&#171;presentation&#187;</text><text fill="#000000" font-family="FG Virgil" font-size="9.8" lengthAdjust="spacing" textLength="86.1" x="111.3" y="530.5152">ChangePasswordUI</text><polygon fill="#E3E3E3" points="232.75,21.9652,232.75,22.1124,239.47,21.6752,246.19,22.1005,252.91,22.245,259.63,21.4659,266.35,21.9108,273.07,21.6667,279.79,21.6968,286.51,21.9175,293.23,21.4813,299.95,21.9652,299.9994,22.0846,300.1412,21.9319,300.4273,22.1276,300.731,22.3659,300.9323,22.3568,301.1874,22.4778,301.2021,22.4839,301.2831,22.7224,301.4309,22.9887,301.5465,23.2416,301.7237,23.52,301.7,23.7152,302.1697,23.7152,302.1755,30.1891,301.8782,36.663,302.0245,43.137,302.1916,49.6109,301.7,56.0848,301.5445,56.0204,301.7438,56.3928,301.4311,56.5533,301.5075,56.8749,301.1832,57.0305,301.1874,57.3222,301.1813,57.3074,301.0062,57.5846,300.6881,57.5167,300.4544,57.6524,300.2277,57.8053,299.95,57.8348,299.95,58.1261,293.23,57.832,286.51,58.0358,279.79,57.4341,273.07,58.0338,266.35,58.2185,259.63,58.1459,252.91,58.2639,246.19,57.4966,239.47,57.3782,232.75,57.8348,232.6945,57.7008,232.4973,57.7196,232.2375,57.5874,232.0684,57.6741,231.7445,57.3871,231.5126,57.3222,231.4386,57.2916,231.4593,57.0951,231.1638,56.7677,231.0931,56.5334,231.2424,56.3902,231,56.0848,231.305,56.0848,231.5141,49.6109,230.7747,43.137,231.2234,36.663,231.4133,30.1891,231,23.7152,230.8982,23.6731,231.0818,23.4592,231.2322,23.2315,231.448,23.031,231.4091,22.7249,231.5126,22.4778,231.5539,22.5775,231.7106,22.2559,231.9471,22.1268,232.3,22.2788,232.4385,21.9132,232.75,21.9652" style="stroke:#181818;stroke-width:0.3499999999999999;"/><text fill="#000000" font-family="FG Virgil" font-size="9.8" font-style="italic" lengthAdjust="spacing" textLength="33.6" x="249.55" y="37.4404">&#171;utility&#187;</text><text fill="#000000" font-family="FG Virgil" font-size="9.8" lengthAdjust="spacing" textLength="60.9" x="235.9" y="50.4752">AuthzRegistry</text><polygon fill="#E3E3E3" points="232.75,502.0053,232.75,502.1524,239.47,501.7152,246.19,502.1406,252.91,502.285,259.63,501.5059,266.35,501.9509,273.07,501.7067,279.79,501.7368,286.51,501.9576,293.23,501.5213,299.95,502.0053,299.9994,502.1246,300.1412,501.9719,300.4273,502.1677,300.731,502.4059,300.9323,502.3968,301.1874,502.5178,301.2021,502.5239,301.2831,502.7625,301.4309,503.0288,301.5465,503.2817,301.7237,503.5601,301.7,503.7553,302.1697,503.7553,302.1755,510.2292,301.8782,516.7031,302.0245,523.177,302.1916,529.6509,301.7,536.1248,301.5445,536.0604,301.7438,536.4329,301.4311,536.5933,301.5075,536.9149,301.1832,537.0706,301.1874,537.3622,301.1813,537.3475,301.0062,537.6246,300.6881,537.5568,300.4544,537.6925,300.2277,537.8453,299.95,537.8748,299.95,538.1662,293.23,537.8721,286.51,538.0759,279.79,537.4741,273.07,538.0739,266.35,538.2585,259.63,538.186,252.91,538.3039,246.19,537.5366,239.47,537.4183,232.75,537.8748,232.6945,537.7408,232.4973,537.7596,232.2375,537.6274,232.0684,537.7142,231.7445,537.4271,231.5126,537.3622,231.4386,537.3316,231.4593,537.1351,231.1638,536.8077,231.0931,536.5734,231.2424,536.4302,231,536.1248,231.305,536.1248,231.5141,529.6509,230.7747,523.177,231.2234,516.7031,231.4133,510.2292,231,503.7553,230.8982,503.7131,231.0818,503.4992,231.2322,503.2715,231.448,503.071,231.4091,502.7649,231.5126,502.5178,231.5539,502.6176,231.7106,502.2959,231.9471,502.1668,232.3,502.3189,232.4385,501.9532,232.75,502.0053" style="stroke:#181818;stroke-width:0.3499999999999999;"/><text fill="#000000" font-family="FG Virgil" font-size="9.8" font-style="italic" lengthAdjust="spacing" textLength="33.6" x="249.55" y="517.4805">&#171;utility&#187;</text><text fill="#000000" font-family="FG Virgil" font-size="9.8" lengthAdjust="spacing" textLength="60.9" x="235.9" y="530.5152">AuthzRegistry</text><polygon fill="#E3E3E3" points="310.45,21.9652,310.45,22.1124,317.2633,21.6752,324.0767,22.1005,330.89,22.245,337.7033,21.4659,344.5167,21.9108,351.33,21.6667,358.1433,21.6968,364.9567,21.9175,371.77,21.4813,378.5833,22.3528,385.3967,21.524,392.21,21.8268,399.0233,22.2676,405.8367,21.9052,412.65,21.9652,412.6561,21.9799,412.8946,22.0609,413.1609,22.2087,413.4138,22.3243,413.6922,22.5015,413.8874,22.4778,414.0321,22.5377,414.1364,22.7859,414.1474,22.9955,414.2949,23.2617,414.4489,23.5305,414.4,23.7152,413.8952,23.7152,414.875,30.1891,414.1924,36.663,414.7737,43.137,414.0535,49.6109,414.4,56.0848,414.3852,56.0786,414.4574,56.3985,414.1845,56.5754,414.1152,56.8366,414.0629,57.105,413.8874,57.3222,413.9246,57.4119,413.6396,57.4239,413.4181,57.5891,413.0939,57.5063,412.9229,57.7936,412.65,57.8348,412.65,58.2185,405.8367,58.1459,399.0233,58.2639,392.21,57.4966,385.3967,57.3782,378.5833,57.3998,371.77,57.7935,364.9567,57.6972,358.1433,58.3118,351.33,57.7125,344.5167,57.5946,337.7033,57.9946,330.89,57.368,324.0767,57.4714,317.2633,58.289,310.45,57.8348,310.4889,57.9287,310.2681,57.8906,309.9263,57.5604,309.736,57.596,309.5128,57.552,309.2126,57.3222,309.1107,57.28,309.0894,57.0662,309.0347,56.8385,309.0455,56.6379,308.8016,56.3319,308.7,56.0848,309.0238,56.0848,308.3124,49.6109,308.2259,43.137,309.0525,36.663,308.1981,30.1891,308.7,23.7152,308.8097,23.7607,308.8471,23.4862,308.8473,23.1963,308.9313,22.9412,309.2089,22.7662,309.2126,22.4778,309.1858,22.4133,309.5129,22.5029,309.6582,22.1536,310.0102,22.3034,310.2458,22.1721,310.45,21.9652" style="stroke:#181818;stroke-width:0.3499999999999999;"/><text fill="#000000" font-family="FG Virgil" font-size="9.8" font-style="italic" lengthAdjust="spacing" textLength="58.8" x="332.15" y="37.4404">&#171;application&#187;</text><text fill="#000000" font-family="FG Virgil" font-size="9.8" lengthAdjust="spacing" textLength="95.9" x="313.6" y="50.4752">AuthenticationService</text><polygon fill="#E3E3E3" points="310.45,502.0053,310.45,502.1524,317.2633,501.7152,324.0767,502.1406,330.89,502.285,337.7033,501.5059,344.5167,501.9509,351.33,501.7067,358.1433,501.7368,364.9567,501.9576,371.77,501.5213,378.5833,502.3928,385.3967,501.5641,392.21,501.8668,399.0233,502.3076,405.8367,501.9452,412.65,502.0053,412.6561,502.02,412.8946,502.1009,413.1609,502.2488,413.4138,502.3644,413.6922,502.5416,413.8874,502.5178,414.0321,502.5778,414.1364,502.826,414.1474,503.0355,414.2949,503.3017,414.4489,503.5705,414.4,503.7553,413.8952,503.7553,414.875,510.2292,414.1924,516.7031,414.7737,523.177,414.0535,529.6509,414.4,536.1248,414.3852,536.1187,414.4574,536.4385,414.1845,536.6154,414.1152,536.8767,414.0629,537.145,413.8874,537.3622,413.9246,537.452,413.6396,537.4639,413.4181,537.6292,413.0939,537.5464,412.9229,537.8336,412.65,537.8748,412.65,538.2585,405.8367,538.186,399.0233,538.3039,392.21,537.5366,385.3967,537.4183,378.5833,537.4398,371.77,537.8336,364.9567,537.7372,358.1433,538.3518,351.33,537.7525,344.5167,537.6347,337.7033,538.0346,330.89,537.408,324.0767,537.5114,317.2633,538.3291,310.45,537.8748,310.4889,537.9687,310.2681,537.9306,309.9263,537.6004,309.736,537.6361,309.5128,537.592,309.2126,537.3622,309.1107,537.3201,309.0894,537.1062,309.0347,536.8785,309.0455,536.678,308.8016,536.3719,308.7,536.1248,309.0238,536.1248,308.3124,529.6509,308.2259,523.177,309.0525,516.7031,308.1981,510.2292,308.7,503.7553,308.8097,503.8007,308.8471,503.5262,308.8473,503.2364,308.9313,502.9812,309.2089,502.8063,309.2126,502.5178,309.1858,502.4533,309.5129,502.5429,309.6582,502.1937,310.0102,502.3434,310.2458,502.2122,310.45,502.0053" style="stroke:#181818;stroke-width:0.3499999999999999;"/><text fill="#000000" font-family="FG Virgil" font-size="9.8" font-style="italic" lengthAdjust="spacing" textLength="58.8" x="332.15" y="517.4805">&#171;application&#187;</text><text fill="#000000" font-family="FG Virgil" font-size="9.8" lengthAdjust="spacing" textLength="95.9" x="313.6" y="530.5152">AuthenticationService</text><polygon fill="#E3E3E3" points="423.15,21.9652,423.15,22.1124,430.05,21.6752,436.95,22.1005,443.85,22.245,450.75,21.4659,457.65,21.9108,464.55,21.6667,471.45,21.6968,478.35,21.9175,485.25,21.4813,492.15,22.3528,499.05,21.524,505.95,21.8268,512.85,22.2676,519.75,21.9652,519.7423,21.9467,520.0036,22.0825,520.2421,22.1634,520.5084,22.3113,520.7613,22.4268,520.9874,22.4778,521.1137,22.5301,521.2346,22.7852,521.3389,23.0334,521.3499,23.243,521.4974,23.5091,521.5,23.7152,521.9916,23.7152,520.9952,30.1891,521.975,36.663,521.2924,43.137,521.8737,49.6109,521.5,56.0848,521.3933,56.0406,521.3827,56.3261,521.4548,56.646,521.182,56.8229,521.1126,57.0841,520.9874,57.3222,521.0177,57.3952,520.7771,57.5144,520.4921,57.5264,520.2706,57.6917,519.9464,57.6089,519.75,57.8348,519.75,58.0338,512.85,58.2185,505.95,58.1459,499.05,58.2639,492.15,57.4966,485.25,57.3782,478.35,57.3998,471.45,57.7935,464.55,57.6972,457.65,58.3118,450.75,57.7125,443.85,57.5946,436.95,57.9946,430.05,57.368,423.15,57.8348,423.1036,57.7229,422.9605,57.8721,422.6939,57.7237,422.4731,57.6856,422.1313,57.3553,421.9126,57.3222,421.9814,57.3507,421.9373,57.1274,421.6057,56.785,421.5844,56.5712,421.5297,56.3435,421.4,56.0848,421.8562,56.0848,421.3971,49.6109,421.7238,43.137,421.0124,36.663,420.9259,30.1891,421.4,23.7152,421.5086,23.7602,421.348,23.4037,421.7147,23.2657,421.7521,22.9912,421.7523,22.7014,421.9126,22.4778,421.881,22.4015,422.201,22.4742,422.3808,22.2082,422.7079,22.2978,422.8532,21.9486,423.15,21.9652" style="stroke:#181818;stroke-width:0.3499999999999999;"/><text fill="#000000" font-family="FG Virgil" font-size="9.8" font-style="italic" lengthAdjust="spacing" textLength="58.8" x="442.05" y="37.4404">&#171;application&#187;</text><text fill="#000000" font-family="FG Virgil" font-size="9.8" lengthAdjust="spacing" textLength="90.3" x="426.3" y="50.4752">AuthorizationService</text><polygon fill="#E3E3E3" points="423.15,502.0053,423.15,502.1524,430.05,501.7152,436.95,502.1406,443.85,502.285,450.75,501.5059,457.65,501.9509,464.55,501.7067,471.45,501.7368,478.35,501.9576,485.25,501.5213,492.15,502.3928,499.05,501.5641,505.95,501.8668,512.85,502.3076,519.75,502.0053,519.7423,501.9868,520.0036,502.1225,520.2421,502.2034,520.5084,502.3513,520.7613,502.4669,520.9874,502.5178,521.1137,502.5701,521.2346,502.8252,521.3389,503.0735,521.3499,503.283,521.4974,503.5492,521.5,503.7553,521.9916,503.7553,520.9952,510.2292,521.975,516.7031,521.2924,523.177,521.8737,529.6509,521.5,536.1248,521.3933,536.0806,521.3827,536.3662,521.4548,536.686,521.182,536.8629,521.1126,537.1242,520.9874,537.3622,521.0177,537.4352,520.7771,537.5545,520.4921,537.5664,520.2706,537.7317,519.9464,537.6489,519.75,537.8748,519.75,538.0739,512.85,538.2585,505.95,538.186,499.05,538.3039,492.15,537.5366,485.25,537.4183,478.35,537.4398,471.45,537.8336,464.55,537.7372,457.65,538.3518,450.75,537.7525,443.85,537.6347,436.95,538.0346,430.05,537.408,423.15,537.8748,423.1036,537.7629,422.9605,537.9122,422.6939,537.7637,422.4731,537.7256,422.1313,537.3954,421.9126,537.3622,421.9814,537.3907,421.9373,537.1675,421.6057,536.8251,421.5844,536.6112,421.5297,536.3835,421.4,536.1248,421.8562,536.1248,421.3971,529.6509,421.7238,523.177,421.0124,516.7031,420.9259,510.2292,421.4,503.7553,421.5086,503.8002,421.348,503.4438,421.7147,503.3057,421.7521,503.0313,421.7523,502.7414,421.9126,502.5178,421.881,502.4416,422.201,502.5142,422.3808,502.2483,422.7079,502.3379,422.8532,501.9886,423.15,502.0053" style="stroke:#181818;stroke-width:0.3499999999999999;"/><text fill="#000000" font-family="FG Virgil" font-size="9.8" font-style="italic" lengthAdjust="spacing" textLength="58.8" x="442.05" y="517.4805">&#171;application&#187;</text><text fill="#000000" font-family="FG Virgil" font-size="9.8" lengthAdjust="spacing" textLength="90.3" x="426.3" y="530.5152">AuthorizationService</text><polygon fill="#E3E3E3" points="530.25,21.9652,530.25,22.1124,536.9955,21.6752,543.7409,22.1005,550.4864,22.245,557.2318,21.4659,563.9773,21.9108,570.7227,21.6667,577.4682,21.6968,584.2136,21.9175,590.9591,21.4813,597.7045,22.3528,604.45,21.9652,604.3937,21.8294,604.6798,22.0251,604.9835,22.2634,605.1848,22.2543,605.446,22.39,605.6874,22.4778,605.6805,22.4749,605.8284,22.7412,605.944,22.9941,606.1212,23.2726,606.2421,23.5277,606.2,23.7152,606.6755,23.7152,606.3782,30.1891,606.5245,36.663,606.6916,43.137,605.6952,49.6109,606.2,56.0848,606.3463,56.1454,606.0336,56.3058,606.11,56.6274,605.7857,56.783,605.7752,57.0686,605.6874,57.3222,605.7537,57.4821,605.4356,57.4142,605.2019,57.5499,604.9752,57.7027,604.7347,57.822,604.45,57.8348,604.45,57.832,597.7045,58.0358,590.9591,57.4341,584.2136,58.0338,577.4682,58.2185,570.7227,58.1459,563.9773,58.2639,557.2318,57.4966,550.4864,57.3782,543.7409,57.3998,536.9955,57.7935,530.25,57.8348,530.2325,57.7924,530.0634,57.8791,529.7394,57.5921,529.4769,57.4533,529.2804,57.4739,529.0126,57.3222,528.8688,57.2627,528.7981,57.0284,528.9474,56.8852,528.7989,56.6186,528.7608,56.3978,528.5,56.0848,528.2747,56.0848,528.7234,49.6109,528.9133,43.137,528.1693,36.663,528.4329,30.1891,528.5,23.7152,528.5272,23.7265,528.743,23.5259,528.7041,23.2199,528.9073,23.0141,528.7907,22.6758,529.0126,22.4778,528.9521,22.3318,529.305,22.4838,529.4435,22.1182,529.8005,22.28,530.021,22.1123,530.25,21.9652" style="stroke:#181818;stroke-width:0.3499999999999999;"/><text fill="#000000" font-family="FG Virgil" font-size="9.8" font-style="italic" lengthAdjust="spacing" textLength="55.3" x="539.7" y="37.4404">&#171;repository&#187;</text><text fill="#000000" font-family="FG Virgil" font-size="9.8" lengthAdjust="spacing" textLength="67.9" x="533.4" y="50.4752">UserRepository</text><polygon fill="#E3E3E3" points="530.25,502.0053,530.25,502.1524,536.9955,501.7152,543.7409,502.1406,550.4864,502.285,557.2318,501.5059,563.9773,501.9509,570.7227,501.7067,577.4682,501.7368,584.2136,501.9576,590.9591,501.5213,597.7045,502.3928,604.45,502.0053,604.3937,501.8694,604.6798,502.0652,604.9835,502.3034,605.1848,502.2943,605.446,502.43,605.6874,502.5178,605.6805,502.515,605.8284,502.7813,605.944,503.0342,606.1212,503.3126,606.2421,503.5677,606.2,503.7553,606.6755,503.7553,606.3782,510.2292,606.5245,516.7031,606.6916,523.177,605.6952,529.6509,606.2,536.1248,606.3463,536.1854,606.0336,536.3458,606.11,536.6674,605.7857,536.8231,605.7752,537.1086,605.6874,537.3622,605.7537,537.5221,605.4356,537.4542,605.2019,537.59,604.9752,537.7428,604.7347,537.862,604.45,537.8748,604.45,537.8721,597.7045,538.0759,590.9591,537.4741,584.2136,538.0739,577.4682,538.2585,570.7227,538.186,563.9773,538.3039,557.2318,537.5366,550.4864,537.4183,543.7409,537.4398,536.9955,537.8336,530.25,537.8748,530.2325,537.8324,530.0634,537.9192,529.7394,537.6321,529.4769,537.4933,529.2804,537.514,529.0126,537.3622,528.8688,537.3027,528.7981,537.0684,528.9474,536.9252,528.7989,536.6587,528.7608,536.4379,528.5,536.1248,528.2747,536.1248,528.7234,529.6509,528.9133,523.177,528.1693,516.7031,528.4329,510.2292,528.5,503.7553,528.5272,503.7665,528.743,503.566,528.7041,503.2599,528.9073,503.0541,528.7907,502.7159,529.0126,502.5178,528.9521,502.3718,529.305,502.5239,529.4435,502.1583,529.8005,502.32,530.021,502.1523,530.25,502.0053" style="stroke:#181818;stroke-width:0.3499999999999999;"/><text fill="#000000" font-family="FG Virgil" font-size="9.8" font-style="italic" lengthAdjust="spacing" textLength="55.3" x="539.7" y="517.4805">&#171;repository&#187;</text><text fill="#000000" font-family="FG Virgil" font-size="9.8" lengthAdjust="spacing" textLength="67.9" x="533.4" y="530.5152">UserRepository</text><polygon fill="#E3E3E3" points="614.95,21.9652,614.95,22.1124,621.95,21.6752,628.95,22.1005,635.95,22.245,642.95,21.4659,649.95,21.9108,656.95,21.6667,663.95,21.6968,670.95,21.9175,677.95,21.4813,684.95,22.3528,691.95,21.524,698.95,21.8268,705.95,22.2676,712.95,21.9052,719.95,22.013,726.95,21.9429,733.95,21.9652,733.9659,22.0037,734.2188,22.1193,734.4973,22.2965,734.7524,22.4174,735.0006,22.5217,735.1874,22.4778,735.2423,22.5005,735.3899,22.7667,735.5438,23.0355,735.3395,23.1559,735.7438,23.5283,735.7,23.7152,735.4924,23.7152,736.0737,30.1891,735.3535,36.663,735.6521,43.137,736.2191,49.6109,735.7,56.0848,735.6895,56.0804,735.6202,56.3417,735.568,56.61,735.4822,56.8644,735.2891,57.0744,735.1874,57.3222,735.2131,57.3841,734.8888,57.3013,734.7179,57.5885,734.4939,57.7479,734.2372,57.8281,733.95,57.8348,733.95,58.2639,726.95,57.4966,719.95,57.3782,712.95,57.3998,705.95,57.7935,698.95,57.6972,691.95,58.3118,684.95,57.7125,677.95,57.5946,670.95,57.9946,663.95,57.368,656.95,57.4714,649.95,58.289,642.95,58.1397,635.95,58.3489,628.95,57.6095,621.95,58.0582,614.95,57.8348,615.0027,57.962,614.6603,57.6304,614.4465,57.6091,614.2188,57.5544,614.0182,57.5652,613.7126,57.3222,613.7117,57.3218,613.7098,57.116,613.3882,56.7778,613.259,56.5193,613.4111,56.3772,613.2,56.0848,612.6981,56.0848,613.5563,49.6109,613.3446,43.137,613.0125,36.663,612.9524,30.1891,613.2,23.7152,613.2989,23.7562,613.238,23.441,613.5326,23.2731,613.3884,22.9234,613.7432,22.7804,613.7126,22.4778,613.7558,22.5822,613.9819,22.4281,614.2118,22.283,614.5199,22.3269,614.7573,22.2,614.95,21.9652" style="stroke:#181818;stroke-width:0.3499999999999999;"/><text fill="#000000" font-family="FG Virgil" font-size="9.8" font-style="italic" lengthAdjust="spacing" textLength="43.4" x="652.75" y="37.4404">&#171;domain&#187;</text><text fill="#000000" font-family="FG Virgil" font-size="9.8" lengthAdjust="spacing" textLength="112.7" x="618.1" y="50.4752">userSession:UserSession</text><polygon fill="#E3E3E3" points="614.95,502.0053,614.95,502.1524,621.95,501.7152,628.95,502.1406,635.95,502.285,642.95,501.5059,649.95,501.9509,656.95,501.7067,663.95,501.7368,670.95,501.9576,677.95,501.5213,684.95,502.3928,691.95,501.5641,698.95,501.8668,705.95,502.3076,712.95,501.9452,719.95,502.053,726.95,501.9829,733.95,502.0053,733.9659,502.0438,734.2188,502.1593,734.4973,502.3366,734.7524,502.4575,735.0006,502.5618,735.1874,502.5178,735.2423,502.5406,735.3899,502.8067,735.5438,503.0755,735.3395,503.1959,735.7438,503.5684,735.7,503.7553,735.4924,503.7553,736.0737,510.2292,735.3535,516.7031,735.6521,523.177,736.2191,529.6509,735.7,536.1248,735.6895,536.1205,735.6202,536.3817,735.568,536.65,735.4822,536.9044,735.2891,537.1144,735.1874,537.3622,735.2131,537.4242,734.8888,537.3414,734.7179,537.6286,734.4939,537.788,734.2372,537.8681,733.95,537.8748,733.95,538.3039,726.95,537.5366,719.95,537.4183,712.95,537.4398,705.95,537.8336,698.95,537.7372,691.95,538.3518,684.95,537.7525,677.95,537.6347,670.95,538.0346,663.95,537.408,656.95,537.5114,649.95,538.3291,642.95,538.1798,635.95,538.3889,628.95,537.6495,621.95,538.0982,614.95,537.8748,615.0027,538.0021,614.6603,537.6705,614.4465,537.6491,614.2188,537.5944,614.0182,537.6053,613.7126,537.3622,613.7117,537.3619,613.7098,537.1561,613.3882,536.8178,613.259,536.5593,613.4111,536.4173,613.2,536.1248,612.6981,536.1248,613.5563,529.6509,613.3446,523.177,613.0125,516.7031,612.9524,510.2292,613.2,503.7553,613.2989,503.7962,613.238,503.4811,613.5326,503.3131,613.3884,502.9635,613.7432,502.8205,613.7126,502.5178,613.7558,502.6222,613.9819,502.4681,614.2118,502.323,614.5199,502.3669,614.7573,502.2401,614.95,502.0053" style="stroke:#181818;stroke-width:0.3499999999999999;"/><text fill="#000000" font-family="FG Virgil" font-size="9.8" font-style="italic" lengthAdjust="spacing" textLength="43.4" x="652.75" y="517.4805">&#171;domain&#187;</text><text fill="#000000" font-family="FG Virgil" font-size="9.8" lengthAdjust="spacing" textLength="112.7" x="618.1" y="530.5152">userSession:UserSession</text><polygon fill="#E3E3E3" points="744.45,21.9652,744.45,22.1124,751.2167,21.6752,757.9833,22.1005,764.75,22.245,771.5167,21.4659,778.2833,21.9108,785.05,21.6667,791.8167,21.6968,798.5833,21.9175,805.35,21.4813,812.1167,22.3528,818.8833,21.524,825.65,21.9652,825.6323,21.9226,825.9361,22.1609,826.1373,22.1518,826.3986,22.2875,826.6371,22.3684,826.8874,22.4778,826.9259,22.4937,827.0415,22.7466,827.2187,23.0251,827.3396,23.2802,827.4439,23.5284,827.4,23.7152,827.5782,23.7152,827.7245,30.1891,827.8916,36.663,826.8952,43.137,827.875,49.6109,827.4,56.0848,827.3361,56.0583,827.4126,56.3799,827.0883,56.5355,827.0777,56.8211,827.1498,57.1409,826.8874,57.3222,826.8831,57.3117,826.6494,57.4474,826.4227,57.6002,826.1821,57.7195,825.8971,57.7314,825.65,57.8348,825.65,58.0358,818.8833,57.4341,812.1167,58.0338,805.35,58.2185,798.5833,58.1459,791.8167,58.2639,785.05,57.4966,778.2833,57.3782,771.5167,57.3998,764.75,57.7935,757.9833,57.6972,751.2167,58.3118,744.45,57.8348,744.4344,57.7971,744.1719,57.6583,743.9754,57.6789,743.648,57.3835,743.4137,57.3128,743.2126,57.3222,743.3525,57.3801,743.204,57.1136,743.1659,56.8928,742.8357,56.551,742.8713,56.3608,742.7,56.0848,743.1133,56.0848,742.3693,49.6109,742.6329,43.137,742.7882,36.663,743.1562,30.1891,742.7,23.7152,742.6991,23.7149,742.9022,23.5091,742.7856,23.1708,742.8615,22.9123,743.2186,22.7703,743.2126,22.4778,743.1485,22.3232,743.5055,22.485,743.726,22.3173,743.9311,22.1125,744.1709,21.9915,744.45,21.9652" style="stroke:#181818;stroke-width:0.3499999999999999;"/><text fill="#000000" font-family="FG Virgil" font-size="9.8" font-style="italic" lengthAdjust="spacing" textLength="43.4" x="763.35" y="37.4404">&#171;domain&#187;</text><text fill="#000000" font-family="FG Virgil" font-size="9.8" lengthAdjust="spacing" textLength="74.9" x="747.6" y="50.4752">user:SystemUser</text><polygon fill="#E3E3E3" points="744.45,502.0053,744.45,502.1524,751.2167,501.7152,757.9833,502.1406,764.75,502.285,771.5167,501.5059,778.2833,501.9509,785.05,501.7067,791.8167,501.7368,798.5833,501.9576,805.35,501.5213,812.1167,502.3928,818.8833,501.5641,825.65,502.0053,825.6323,501.9626,825.9361,502.2009,826.1373,502.1918,826.3986,502.3275,826.6371,502.4084,826.8874,502.5178,826.9259,502.5338,827.0415,502.7867,827.2187,503.0651,827.3396,503.3202,827.4439,503.5684,827.4,503.7553,827.5782,503.7553,827.7245,510.2292,827.8916,516.7031,826.8952,523.177,827.875,529.6509,827.4,536.1248,827.3361,536.0983,827.4126,536.42,827.0883,536.5756,827.0777,536.8612,827.1498,537.181,826.8874,537.3622,826.8831,537.3517,826.6494,537.4875,826.4227,537.6403,826.1821,537.7595,825.8971,537.7715,825.65,537.8748,825.65,538.0759,818.8833,537.4741,812.1167,538.0739,805.35,538.2585,798.5833,538.186,791.8167,538.3039,785.05,537.5366,778.2833,537.4183,771.5167,537.4398,764.75,537.8336,757.9833,537.7372,751.2167,538.3518,744.45,537.8748,744.4344,537.8371,744.1719,537.6983,743.9754,537.719,743.648,537.4235,743.4137,537.3528,743.2126,537.3622,743.3525,537.4202,743.204,537.1537,743.1659,536.9329,742.8357,536.591,742.8713,536.4008,742.7,536.1248,743.1133,536.1248,742.3693,529.6509,742.6329,523.177,742.7882,516.7031,743.1562,510.2292,742.7,503.7553,742.6991,503.7549,742.9022,503.5491,742.7856,503.2108,742.8615,502.9523,743.2186,502.8103,743.2126,502.5178,743.1485,502.3633,743.5055,502.525,743.726,502.3574,743.9311,502.1525,744.1709,502.0315,744.45,502.0053" style="stroke:#181818;stroke-width:0.3499999999999999;"/><text fill="#000000" font-family="FG Virgil" font-size="9.8" font-style="italic" lengthAdjust="spacing" textLength="43.4" x="763.35" y="517.4805">&#171;domain&#187;</text><text fill="#000000" font-family="FG Virgil" font-size="9.8" lengthAdjust="spacing" textLength="74.9" x="747.6" y="530.5152">user:SystemUser</text><polygon fill="#E3E3E3" points="836.15,21.9652,836.15,22.1124,843.25,21.6752,850.35,22.1005,857.45,22.245,864.55,21.4659,871.65,21.9108,878.75,21.6667,885.85,21.9652,885.8158,21.8826,886.0914,22.0531,886.2832,22.0212,886.6419,22.3921,886.7837,22.2394,887.0874,22.4778,887.0448,22.4601,887.2831,22.7639,887.274,22.9651,887.4097,23.2264,887.4906,23.4649,887.6,23.7152,887.725,23.7152,887.7674,30.1891,888.01,36.663,888.0697,43.137,888.0755,49.6109,887.6,56.0848,887.6549,56.1075,887.5974,56.3736,887.5464,56.6424,887.137,56.7628,887.3362,57.1353,887.0874,57.3222,887.061,57.2583,886.8876,57.5398,886.5483,57.4205,886.3389,57.615,886.1637,57.8921,885.85,57.8348,885.85,57.8007,878.75,57.9085,871.65,58.0718,864.55,58.1261,857.45,57.832,850.35,58.0358,843.25,57.4341,836.15,57.8348,836.1754,57.8961,835.9515,57.8504,835.6947,57.7256,835.4623,57.6594,835.1169,57.3206,834.9126,57.3222,834.772,57.264,834.6761,57.0192,834.6948,56.822,834.5627,56.5622,834.6494,56.3931,834.4,56.0848,834.2777,56.0848,834.1599,49.6109,834.5598,43.137,833.9332,36.663,834.0366,30.1891,834.4,23.7152,834.5399,23.7732,834.5964,23.5066,834.7634,23.2858,834.6382,22.944,834.8789,22.7538,834.9126,22.4778,834.9653,22.6051,835.1179,22.2734,835.399,22.2521,835.6663,22.1974,835.9607,22.2082,836.15,21.9652" style="stroke:#181818;stroke-width:0.3499999999999999;"/><text fill="#000000" font-family="FG Virgil" font-size="9.8" font-style="italic" lengthAdjust="spacing" textLength="43.4" x="839.3" y="37.4404">&#171;domain&#187;</text><text fill="#000000" font-family="FG Virgil" font-size="9.8" lengthAdjust="spacing" textLength="42.7" x="839.65" y="50.4752">Password</text><polygon fill="#E3E3E3" points="836.15,502.0053,836.15,502.1524,843.25,501.7152,850.35,502.1406,857.45,502.285,864.55,501.5059,871.65,501.9509,878.75,501.7067,885.85,502.0053,885.8158,501.9226,886.0914,502.0931,886.2832,502.0613,886.6419,502.4322,886.7837,502.2795,887.0874,502.5178,887.0448,502.5002,887.2831,502.8039,887.274,503.0052,887.4097,503.2664,887.4906,503.5049,887.6,503.7553,887.725,503.7553,887.7674,510.2292,888.01,516.7031,888.0697,523.177,888.0755,529.6509,887.6,536.1248,887.6549,536.1475,887.5974,536.4137,887.5464,536.6825,887.137,536.8029,887.3362,537.1753,887.0874,537.3622,887.061,537.2983,886.8876,537.5798,886.5483,537.4606,886.3389,537.655,886.1637,537.9322,885.85,537.8748,885.85,537.8407,878.75,537.9485,871.65,538.1118,864.55,538.1662,857.45,537.8721,850.35,538.0759,843.25,537.4741,836.15,537.8748,836.1754,537.9361,835.9515,537.8905,835.6947,537.7656,835.4623,537.6994,835.1169,537.3606,834.9126,537.3622,834.772,537.304,834.6761,537.0593,834.6948,536.862,834.5627,536.6022,834.6494,536.4331,834.4,536.1248,834.2777,536.1248,834.1599,529.6509,834.5598,523.177,833.9332,516.7031,834.0366,510.2292,834.4,503.7553,834.5399,503.8132,834.5964,503.5467,834.7634,503.3259,834.6382,502.9841,834.8789,502.7938,834.9126,502.5178,834.9653,502.6451,835.1179,502.3135,835.399,502.2921,835.6663,502.2375,835.9607,502.2483,836.15,502.0053" style="stroke:#181818;stroke-width:0.3499999999999999;"/><text fill="#000000" font-family="FG Virgil" font-size="9.8" font-style="italic" lengthAdjust="spacing" textLength="43.4" x="839.3" y="517.4805">&#171;domain&#187;</text><text fill="#000000" font-family="FG Virgil" font-size="9.8" lengthAdjust="spacing" textLength="42.7" x="839.65" y="530.5152">Password</text><polygon fill="#FFFFFF" points="150.85,81.8385,150.85,81.8875,152.25,81.7418,153.65,81.8836,155.05,81.9317,156.45,81.672,157.85,81.8385,157.8319,81.8385,157.7505,86.2192,157.7605,90.6,157.8341,94.9807,157.6887,99.3614,157.85,103.7422,157.85,103.8714,156.45,103.5951,155.05,103.696,153.65,103.843,152.25,103.7222,150.85,103.7422,150.8659,103.7422,150.8425,99.3614,150.8917,94.9807,150.9058,90.6,150.9867,86.2192,150.85,81.8385" style="stroke:#181818;stroke-width:0.6999999999999998;"/><polygon fill="#FFFFFF" points="150.85,125.6459,150.85,125.6949,152.25,125.5492,153.65,125.691,155.05,125.7392,156.45,125.4794,157.85,125.6459,157.7956,125.6459,157.5515,132.6547,157.5816,139.6636,157.8023,146.6724,157.366,153.6812,158.2375,160.6901,157.4088,167.6989,157.7116,174.7077,158.1524,181.7166,157.79,188.7254,157.8978,195.7342,157.8276,202.7431,157.975,209.7519,158.0174,216.7607,158.26,223.7696,158.3197,230.7784,158.3255,237.7872,158.0282,244.7961,158.1745,251.8049,158.3416,258.8137,157.3452,265.8226,158.325,272.8314,157.6424,279.8402,158.2237,286.8491,157.5035,293.8579,157.8021,300.8668,158.3691,307.8756,157.8159,314.8844,157.9237,321.8933,158.087,328.9021,158.1414,335.9109,157.8473,342.9198,158.051,349.9286,157.4493,356.9374,158.0491,363.9463,158.2337,370.9551,158.1612,377.9639,158.2791,384.9728,157.5118,391.9816,157.3935,398.9904,157.415,405.9993,157.8088,413.0081,157.7124,420.0169,158.327,427.0258,157.7277,434.0346,157.6099,441.0434,158.0098,448.0523,157.3832,455.0611,157.4866,462.0699,158.3043,469.0788,158.155,476.0876,158.3641,483.0964,157.85,490.1053,157.85,490.0302,156.45,490.1798,155.05,490.243,153.65,489.995,152.25,490.0829,150.85,490.1053,150.9382,490.1053,151.3062,483.0964,150.8471,476.0876,151.1738,469.0788,150.4624,462.0699,150.3759,455.0611,151.2025,448.0523,150.3481,441.0434,151.2063,434.0346,150.9946,427.0258,150.6625,420.0169,150.6024,413.0081,151.1711,405.9993,150.6405,398.9904,151.2643,391.9816,150.4631,384.9728,151.2822,377.9639,151.189,370.9551,151.0215,363.9463,150.8831,356.9374,151.3586,349.9286,151.2795,342.9198,150.9685,335.9109,151.0377,328.9021,150.7588,321.8933,151.3515,314.8844,150.9584,307.8756,150.9708,300.8668,150.4242,293.8579,150.5663,286.8491,151.2215,279.8402,151.1508,272.8314,150.8199,265.8226,150.6245,258.8137,150.6968,251.8049,150.3697,244.7961,151.1403,237.7872,151.3677,230.7784,151.2185,223.7696,151.3365,216.7607,150.7543,209.7519,150.9111,202.7431,150.5787,195.7342,151.0488,188.7254,151.0227,181.7166,151.2367,174.7077,150.6892,167.6989,150.7559,160.6901,151.1604,153.6812,151.2471,146.6724,150.4912,139.6636,150.7143,132.6547,150.85,125.6459" style="stroke:#181818;stroke-width:0.6999999999999998;"/><polygon fill="#FFFFFF" points="262.85,147.5496,262.85,147.5987,264.25,147.4529,265.65,147.5947,267.05,147.6429,268.45,147.3832,269.85,147.5496,269.8319,147.5496,269.7505,151.9304,269.7605,156.3111,269.8341,160.6918,269.6887,165.0726,269.85,169.4533,269.85,169.5825,268.45,169.3063,267.05,169.4072,265.65,169.5541,264.25,169.4333,262.85,169.4533,262.8659,169.4533,262.8425,165.0726,262.8917,160.6918,262.9058,156.3111,262.9867,151.9304,262.85,147.5496" style="stroke:#181818;stroke-width:0.6999999999999998;"/><polygon fill="#FFFFFF" points="358.05,191.357,358.05,191.4061,359.45,191.2604,360.85,191.4021,362.25,191.4503,363.65,191.1906,365.05,191.357,364.9956,191.357,364.7515,198.2781,364.7816,205.1993,365.0023,212.1204,364.566,219.0415,365.4375,225.9626,364.6088,232.8837,364.9116,239.8048,365.3524,246.7259,364.99,253.6471,365.0978,260.5682,365.0276,267.4893,365.175,274.4104,365.2174,281.3315,365.46,288.2526,365.5197,295.1737,365.5255,302.0948,365.2282,309.016,365.3745,315.9371,365.5416,322.8582,364.5452,329.7793,365.525,336.7004,364.8424,343.6215,365.4237,350.5426,364.7035,357.4637,365.0021,364.3849,365.5691,371.306,365.0159,378.2271,365.1237,385.1482,365.287,392.0693,365.3414,398.9904,365.0473,405.9115,365.251,412.8327,364.6493,419.7538,365.2491,426.6749,365.4337,433.596,365.3612,440.5171,365.4791,447.4382,364.7118,454.3593,364.5935,461.2804,365.05,468.2016,365.05,468.0566,363.65,468.1878,362.25,468.1557,360.85,468.3606,359.45,468.1608,358.05,468.2016,357.8099,468.2016,358.2098,461.2804,357.5832,454.3593,357.6866,447.4382,358.5043,440.5171,358.355,433.596,358.5641,426.6749,357.8247,419.7538,358.2734,412.8327,358.4633,405.9115,357.7193,398.9904,357.9829,392.0693,358.1382,385.1482,358.5062,378.2271,358.0471,371.306,358.3738,364.3849,357.6624,357.4637,357.5759,350.5426,358.4025,343.6215,357.5481,336.7004,358.4063,329.7793,358.1946,322.8582,357.8625,315.9371,357.8024,309.016,358.3711,302.0948,357.8405,295.1737,358.4643,288.2526,357.6631,281.3315,358.4822,274.4104,358.389,267.4893,358.2215,260.5682,358.0831,253.6471,358.5586,246.7259,358.4795,239.8048,358.1685,232.8837,358.2377,225.9626,357.9588,219.0415,358.5515,212.1204,358.1584,205.1993,358.1708,198.2781,358.05,191.357" style="stroke:#181818;stroke-width:0.6999999999999998;"/><polygon fill="#FFFFFF" points="467.95,239.3645,467.95,239.4135,469.35,239.2678,470.75,239.4096,472.15,239.4577,473.55,239.198,474.95,239.3645,474.9319,239.3645,474.8505,243.7452,474.8605,248.1259,474.9341,252.5067,474.7887,256.8874,474.95,261.2682,474.95,261.3973,473.55,261.1211,472.15,261.222,470.75,261.369,469.35,261.2481,467.95,261.2682,467.9659,261.2682,467.9425,256.8874,467.9917,252.5067,468.0058,248.1259,468.0867,243.7452,467.95,239.3645" style="stroke:#181818;stroke-width:0.6999999999999998;"/><polygon fill="#FFFFFF" points="670.95,283.1719,670.95,283.2209,672.35,283.0752,673.75,283.217,675.15,283.2651,676.55,283.0054,677.95,283.1719,677.9319,283.1719,677.8505,287.5526,677.8605,291.9334,677.9341,296.3141,677.7887,300.6948,677.95,305.0756,677.95,305.2048,676.55,304.9285,675.15,305.0294,673.75,305.1764,672.35,305.0556,670.95,305.0756,670.9659,305.0756,670.9425,300.6948,670.9917,296.3141,671.0058,291.9334,671.0867,287.5526,670.95,283.1719" style="stroke:#181818;stroke-width:0.6999999999999998;"/><polygon fill="#FFFFFF" points="781.55,326.9793,781.55,327.0283,782.95,326.8826,784.35,327.0244,785.75,327.0726,787.15,326.8128,788.55,326.9793,788.5319,326.9793,788.4505,331.36,788.4605,335.7408,788.5341,340.1215,788.3887,344.5023,788.55,348.883,788.55,349.0122,787.15,348.7359,785.75,348.8369,784.35,348.9838,782.95,348.863,781.55,348.883,781.5659,348.883,781.5425,344.5023,781.5917,340.1215,781.6058,335.7408,781.6867,331.36,781.55,326.9793" style="stroke:#181818;stroke-width:0.6999999999999998;"/><polygon fill="#FFFFFF" points="781.55,414.5941,781.55,414.6432,782.95,414.4975,784.35,414.6392,785.75,414.6874,787.15,414.4277,788.55,414.5941,788.5319,414.5941,788.4505,416.5541,788.4605,418.5141,788.5341,420.4741,788.3887,422.4341,788.55,424.3941,788.55,424.5233,787.15,424.2471,785.75,424.348,784.35,424.4949,782.95,424.3741,781.55,424.3941,781.5659,424.3941,781.5425,422.4341,781.5917,420.4741,781.6058,418.5141,781.6867,416.5541,781.55,414.5941" style="stroke:#181818;stroke-width:0.6999999999999998;"/><polygon fill="#FFFFFF" points="857.5,370.7867,857.5,370.8358,858.9,370.69,860.3,370.8318,861.7,370.88,863.1,370.6203,864.5,370.7867,864.4819,370.7867,864.4005,375.1675,864.4105,379.5482,864.4841,383.9289,864.3387,388.3097,864.5,392.6904,864.5,392.8196,863.1,392.5434,861.7,392.6443,860.3,392.7912,858.9,392.6704,857.5,392.6904,857.5159,392.6904,857.4925,388.3097,857.5417,383.9289,857.5558,379.5482,857.6367,375.1675,857.5,370.7867" style="stroke:#181818;stroke-width:0.6999999999999998;"/><polygon fill="#181818" points="142.45,79.0385,142.4682,79.084,143.8141,79.5087,145.2667,80.2004,146.6846,80.8051,147.9882,81.1239,149.45,81.8385,149.4433,81.8216,148.013,82.3061,146.6168,82.8754,145.2441,83.5037,143.7901,83.9287,142.45,84.6385,142.5413,84.7298,142.906,83.9745,143.5374,83.4858,144.2013,83.0297,144.6758,82.3843,145.25,81.8385,145.2613,81.8497,144.6847,81.2732,144.1595,80.7479,143.6095,80.1979,143.1066,79.6951,142.45,79.0385" style="stroke:#181818;stroke-width:0.6999999999999998;"/><path d="M15.75,81.8385 L15.75,82.0346 L22.6395,81.4518 L29.5289,82.0189 L36.4184,82.2115 L43.3079,81.1726 L50.1974,81.7659 L57.0868,81.4404 L63.9763,81.4805 L70.8658,81.7749 L77.7553,81.1932 L84.6447,82.3552 L91.5342,81.2502 L98.4237,81.6539 L105.3132,82.2416 L112.2026,81.7584 L119.0921,81.9022 L125.9816,81.8087 L132.8711,82.0051 L139.7605,82.0617 L146.65,81.8385 " fill="none" style="stroke:#181818;stroke-width:0.6999999999999998;"/><text fill="#000000" font-family="FG Virgil" font-size="9.1" lengthAdjust="spacing" textLength="107.1" x="20.65" y="78.1546">Request change password</text><polygon fill="#181818" points="23.45,100.9422,23.4682,100.9877,22.0141,101.4124,20.6667,102.1041,19.2846,102.7088,17.7882,103.0276,16.45,103.7422,16.4433,103.7254,17.813,104.2098,19.2168,104.7791,20.6441,105.4074,21.9901,105.8324,23.45,106.5422,23.5413,106.6335,22.786,105.8782,22.2974,105.3896,21.8413,104.9335,21.1958,104.288,20.65,103.7422,20.6613,103.7534,21.2047,103.1769,21.7995,102.6516,22.3695,102.1016,22.9866,101.5988,23.45,100.9422" style="stroke:#181818;stroke-width:0.6999999999999998;"/><path d="M19.25,103.7422 L19.25,103.9384 L26.3237,103.3555 L33.3974,103.9226 L40.4711,104.1152 L47.5447,103.0764 L54.6184,103.6697 L61.6921,103.3441 L68.7658,103.3843 L75.8395,103.6786 L82.9132,103.0969 L89.9868,104.2589 L97.0605,103.1539 L104.1342,103.5576 L111.2079,104.1453 L118.2816,103.6621 L125.3553,103.8059 L132.4289,103.7124 L139.5026,103.9088 L146.5763,103.9654 L153.65,103.7422 " fill="none" style="stroke:#181818;stroke-width:0.6999999999999998;stroke-dasharray:2.0,2.0;"/><text fill="#000000" font-family="FG Virgil" font-size="9.1" lengthAdjust="spacing" textLength="113.4" x="27.65" y="100.0583">Asks old and new password</text><polygon fill="#181818" points="142.45,122.8459,142.4682,122.8914,143.8141,123.3161,145.2667,124.0078,146.6846,124.6125,147.9882,124.9313,149.45,125.6459,149.4433,125.6291,148.013,126.1135,146.6168,126.6828,145.2441,127.3111,143.7901,127.7361,142.45,128.4459,142.5413,128.5372,142.906,127.7819,143.5374,127.2933,144.2013,126.8372,144.6758,126.1917,145.25,125.6459,145.2613,125.6572,144.6847,125.0806,144.1595,124.5554,143.6095,124.0054,143.1066,123.5025,142.45,122.8459" style="stroke:#181818;stroke-width:0.6999999999999998;"/><path d="M15.75,125.6459 L15.75,125.8421 L22.6395,125.2592 L29.5289,125.8263 L36.4184,126.0189 L43.3079,124.9801 L50.1974,125.5734 L57.0868,125.2478 L63.9763,125.288 L70.8658,125.5823 L77.7553,125.0006 L84.6447,126.1626 L91.5342,125.0576 L98.4237,125.4613 L105.3132,126.049 L112.2026,125.5658 L119.0921,125.7096 L125.9816,125.6161 L132.8711,125.8125 L139.7605,125.8691 L146.65,125.6459 " fill="none" style="stroke:#181818;stroke-width:0.6999999999999998;"/><text fill="#000000" font-family="FG Virgil" font-size="9.1" lengthAdjust="spacing" textLength="121.8" x="20.65" y="121.962">Provide old and new password</text><polygon fill="#181818" points="254.45,144.7496,254.4682,144.7951,255.8141,145.2198,257.2667,145.9115,258.6846,146.5162,259.9882,146.8351,261.45,147.5496,261.4433,147.5328,260.013,148.0172,258.6168,148.5865,257.2441,149.2148,255.7901,149.6398,254.45,150.3496,254.5413,150.441,254.906,149.6856,255.5374,149.197,256.2013,148.7409,256.6758,148.0955,257.25,147.5496,257.2613,147.5609,256.6847,146.9843,256.1595,146.4591,255.6095,145.9091,255.1066,145.4062,254.45,144.7496" style="stroke:#181818;stroke-width:0.6999999999999998;"/><path d="M157.85,147.5496 L157.85,147.7458 L165.05,147.1629 L172.25,147.73 L179.45,147.9226 L186.65,146.8838 L193.85,147.4771 L201.05,147.1515 L208.25,147.1917 L215.45,147.486 L222.65,146.9043 L229.85,148.0663 L237.05,146.9613 L244.25,147.365 L251.45,147.9528 L258.65,147.5496 " fill="none" style="stroke:#181818;stroke-width:0.6999999999999998;"/><text fill="#000000" font-family="FG Virgil" font-size="9.1" lengthAdjust="spacing" textLength="91.7" x="162.75" y="143.8657">authenticationService()</text><polygon fill="#181818" points="165.55,166.6533,165.5682,166.6989,164.1141,167.1236,162.7667,167.8152,161.3846,168.4199,159.8882,168.7388,158.55,169.4533,158.5433,169.4365,159.913,169.9209,161.3168,170.4902,162.7441,171.1186,164.0901,171.5435,165.55,172.2533,165.6413,172.3447,164.886,171.5893,164.3974,171.1007,163.9413,170.6446,163.2958,169.9992,162.75,169.4533,162.7613,169.4646,163.3047,168.888,163.8995,168.3628,164.4695,167.8128,165.0866,167.31,165.55,166.6533" style="stroke:#181818;stroke-width:0.6999999999999998;"/><path d="M161.35,169.4533 L161.35,169.6495 L168.3033,169.0666 L175.2567,169.6337 L182.21,169.8264 L189.1633,168.7875 L196.1167,169.3808 L203.07,169.0553 L210.0233,169.0954 L216.9767,169.3897 L223.93,168.808 L230.8833,169.9701 L237.8367,168.8651 L244.79,169.2687 L251.7433,169.8565 L258.6967,169.3733 L265.65,169.4533 " fill="none" style="stroke:#181818;stroke-width:0.6999999999999998;stroke-dasharray:2.0,2.0;"/><text fill="#000000" font-family="FG Virgil" font-size="9.1" lengthAdjust="spacing" textLength="48.3" x="169.75" y="165.7694">AuthService</text><polygon fill="#181818" points="349.65,188.557,349.6682,188.6026,351.0141,189.0273,352.4667,189.7189,353.8846,190.3236,355.1882,190.6425,356.65,191.357,356.6433,191.3402,355.213,191.8246,353.8168,192.3939,352.4441,193.0223,350.9901,193.4472,349.65,194.157,349.7413,194.2484,350.106,193.493,350.7374,193.0044,351.4013,192.5483,351.8758,191.9029,352.45,191.357,352.4613,191.3683,351.8847,190.7918,351.3595,190.2665,350.8095,189.7165,350.3066,189.2137,349.65,188.557" style="stroke:#181818;stroke-width:0.6999999999999998;"/><path d="M157.85,191.357 L157.85,191.5532 L164.85,190.9703 L171.85,191.5374 L178.85,191.7301 L185.85,190.6912 L192.85,191.2845 L199.85,190.959 L206.85,190.9991 L213.85,191.2934 L220.85,190.7118 L227.85,191.8738 L234.85,190.7688 L241.85,191.1724 L248.85,191.7602 L255.85,191.277 L262.85,191.4207 L269.85,191.3272 L276.85,191.5237 L283.85,191.5802 L290.85,191.9037 L297.85,191.9833 L304.85,191.991 L311.85,191.5947 L318.85,191.7897 L325.85,192.0124 L332.85,190.6839 L339.85,191.9903 L346.85,191.0803 L353.85,191.357 " fill="none" style="stroke:#181818;stroke-width:0.6999999999999998;"/><text fill="#000000" font-family="FG Virgil" font-size="9.1" lengthAdjust="spacing" textLength="143.5" x="162.75" y="187.6731">changePassword(oldPwd, newPwd)</text><path d="M368.2,200.457 L368.3308,200.457 L367.9422,204.237 L368.3203,208.017 L368.4487,211.797 L367.7561,215.577 L368.2,219.357 L368.2,219.212 L375.2,218.5609 L382.2,218.6412 L389.2,219.2298 L396.2,218.0665 L403.2,220.3905 L410.2,218.1805 L417.2,218.9879 L424.2,220.1633 L431.2,219.1969 L438.2,219.4844 L445.2,219.2974 L452.2,219.6903 L459.2,219.8034 L466.2,220.4503 L473.2,220.6097 L480.2,220.625 L487.2,219.8323 L494.2,220.2224 L501.2,220.6679 L508.2,218.0108 L515.2,220.6236 L522.2,218.8036 L529.2,219.357 L529.5321,219.357 L528.892,216.977 L529.1574,214.597 L529.6614,212.217 L529.1697,209.837 L529.2,207.457 L529.2463,207.5034 L527.949,206.206 L526.5831,204.8402 L524.9983,203.2553 L523.7264,201.9834 L522.2,200.457 L522.2,199.3885 L515.2,200.9879 L508.2,201.4803 L501.2,201.2868 L494.2,201.6013 L487.2,199.5553 L480.2,199.2396 L473.2,199.2971 L466.2,200.3471 L459.2,200.0902 L452.2,201.729 L445.2,200.131 L438.2,199.8167 L431.2,200.8831 L424.2,199.2123 L417.2,199.488 L410.2,201.6684 L403.2,201.2703 L396.2,201.8281 L389.2,199.8563 L382.2,201.0529 L375.2,201.5591 L368.2,200.457 " fill="#FAFAFA" style="stroke:#181818;stroke-width:0.3499999999999999;"/><path d="M522.2,200.457 L521.9061,200.457 L522.1404,201.857 L522.2784,203.257 L522.6055,204.657 L522.1974,206.057 L522.2,207.457 L522.2,207.7449 L523.6,207.1125 L525,207.0356 L526.4,207.7704 L527.8,207.0109 L529.2,207.457 L529.4239,207.681 L527.8909,206.1479 L526.2821,204.5392 L524.8443,203.1014 L523.8018,202.0589 L522.2,200.457 " fill="#FAFAFA" style="stroke:#181818;stroke-width:0.3499999999999999;"/><text fill="#000000" font-family="FG Virgil" font-size="9.1" lengthAdjust="spacing" textLength="146.3" x="372.4" y="213.7769">simplified framework implementation</text><polygon fill="#181818" points="459.55,236.5645,459.5682,236.61,460.9141,237.0347,462.3667,237.7263,463.7846,238.331,465.0882,238.6499,466.55,239.3645,466.5433,239.3476,465.113,239.8321,463.7168,240.4014,462.3441,241.0297,460.8901,241.4547,459.55,242.1645,459.6413,242.2558,460.006,241.5005,460.6374,241.0118,461.3013,240.5557,461.7758,239.9103,462.35,239.3645,462.3613,239.3757,461.7847,238.7992,461.2595,238.2739,460.7095,237.7239,460.2066,237.2211,459.55,236.5645" style="stroke:#181818;stroke-width:0.6999999999999998;"/><path d="M365.05,239.3645 L365.05,239.5606 L372.1,238.9778 L379.15,239.5449 L386.2,239.7375 L393.25,238.6986 L400.3,239.2919 L407.35,238.9664 L414.4,239.0065 L421.45,239.3008 L428.5,238.7192 L435.55,239.8812 L442.6,238.7762 L449.65,239.1799 L456.7,239.7676 L463.75,239.3645 " fill="none" style="stroke:#181818;stroke-width:0.6999999999999998;"/><text fill="#000000" font-family="FG Virgil" font-size="9.1" lengthAdjust="spacing" textLength="37.1" x="369.95" y="235.6806">session()</text><polygon fill="#181818" points="372.75,258.4682,372.7682,258.5137,371.3141,258.9384,369.9667,259.63,368.5846,260.2348,367.0882,260.5536,365.75,261.2682,365.7433,261.2513,367.113,261.7358,368.5168,262.3051,369.9441,262.9334,371.2901,263.3584,372.75,264.0682,372.8413,264.1595,372.086,263.4042,371.5974,262.9155,371.1413,262.4594,370.4958,261.814,369.95,261.2682,369.9613,261.2794,370.5047,260.7029,371.0995,260.1776,371.6695,259.6276,372.2866,259.1248,372.75,258.4682" style="stroke:#181818;stroke-width:0.6999999999999998;"/><path d="M368.55,261.2682 L368.55,261.4643 L375.3633,260.8815 L382.1767,261.4486 L388.99,261.6412 L395.8033,260.6023 L402.6167,261.1956 L409.43,260.8701 L416.2433,260.9102 L423.0567,261.2046 L429.87,260.6229 L436.6833,261.7849 L443.4967,260.6799 L450.31,261.0836 L457.1233,261.6713 L463.9367,261.1881 L470.75,261.2682 " fill="none" style="stroke:#181818;stroke-width:0.6999999999999998;stroke-dasharray:2.0,2.0;"/><text fill="#000000" font-family="FG Virgil" font-size="9.1" lengthAdjust="spacing" textLength="50.4" x="376.95" y="257.5843">userSession</text><polygon fill="#181818" points="662.55,280.3719,662.5682,280.4174,663.9141,280.8421,665.3667,281.5337,666.7846,282.1385,668.0882,282.4573,669.55,283.1719,669.5433,283.155,668.113,283.6395,666.7168,284.2088,665.3441,284.8371,663.8901,285.2621,662.55,285.9719,662.6413,286.0632,663.006,285.3079,663.6374,284.8192,664.3013,284.3631,664.7758,283.7177,665.35,283.1719,665.3613,283.1831,664.7847,282.6066,664.2595,282.0813,663.7095,281.5313,663.2066,281.0285,662.55,280.3719" style="stroke:#181818;stroke-width:0.6999999999999998;"/><path d="M365.05,283.1719 L365.05,283.368 L372.0663,282.7852 L379.0826,283.3523 L386.0988,283.5449 L393.1151,282.506 L400.1314,283.0993 L407.1477,282.7738 L414.164,282.8139 L421.1802,283.1083 L428.1965,282.5266 L435.2128,283.6886 L442.2291,282.5836 L449.2453,282.9873 L456.2616,283.575 L463.2779,283.0918 L470.2942,283.2356 L477.3105,283.1421 L484.3267,283.3385 L491.343,283.3951 L498.3593,283.7185 L505.3756,283.7982 L512.3919,283.8058 L519.4081,283.4095 L526.4244,283.6046 L533.4407,283.8273 L540.457,282.4988 L547.4733,283.8052 L554.4895,282.8951 L561.5058,283.6701 L568.5221,282.7099 L575.5384,283.1079 L582.5547,283.864 L589.5709,283.1264 L596.5872,283.2702 L603.6035,283.4879 L610.6198,283.5604 L617.636,283.1682 L624.6523,283.4399 L631.6686,282.6376 L638.6849,283.4373 L645.7012,283.6835 L652.7174,283.5868 L659.7337,283.744 L666.75,283.1719 " fill="none" style="stroke:#181818;stroke-width:0.6999999999999998;"/><text fill="#000000" font-family="FG Virgil" font-size="9.1" lengthAdjust="spacing" textLength="79.1" x="369.95" y="279.488">authenticatedUser()</text><polygon fill="#181818" points="372.75,302.2756,372.7682,302.3211,371.3141,302.7458,369.9667,303.4375,368.5846,304.0422,367.0882,304.361,365.75,305.0756,365.7433,305.0587,367.113,305.5432,368.5168,306.1125,369.9441,306.7408,371.2901,307.1658,372.75,307.8756,372.8413,307.9669,372.086,307.2116,371.5974,306.723,371.1413,306.2669,370.4958,305.6214,369.95,305.0756,369.9613,305.0868,370.5047,304.5103,371.0995,303.985,371.6695,303.435,372.2866,302.9322,372.75,302.2756" style="stroke:#181818;stroke-width:0.6999999999999998;"/><path d="M368.55,305.0756 L368.55,305.2718 L375.4864,304.6889 L382.4227,305.256 L389.3591,305.4486 L396.2955,304.4098 L403.2318,305.0031 L410.1682,304.6775 L417.1045,304.7177 L424.0409,305.012 L430.9773,304.4303 L437.9136,305.5923 L444.85,304.4873 L451.7864,304.891 L458.7227,305.4787 L465.6591,304.9955 L472.5955,305.1393 L479.5318,305.0458 L486.4682,305.2422 L493.4045,305.2988 L500.3409,305.6222 L507.2773,305.7019 L514.2136,305.7096 L521.15,305.3132 L528.0864,305.5083 L535.0227,305.731 L541.9591,304.4025 L548.8955,305.7089 L555.8318,304.7988 L562.7682,305.5738 L569.7045,304.6136 L576.6409,305.0117 L583.5773,305.7678 L590.5136,305.0301 L597.45,305.1739 L604.3864,305.3916 L611.3227,305.4641 L618.2591,305.0719 L625.1955,305.3437 L632.1318,304.5413 L639.0682,305.341 L646.0045,305.5872 L652.9409,305.4905 L659.8773,305.6477 L666.8136,304.6247 L673.75,305.0756 " fill="none" style="stroke:#181818;stroke-width:0.6999999999999998;stroke-dasharray:2.0,2.0;"/><text fill="#000000" font-family="FG Virgil" font-size="9.1" lengthAdjust="spacing" textLength="17.5" x="376.95" y="301.3917">user</text><polygon fill="#181818" points="773.15,324.1793,773.1682,324.2248,774.5141,324.6495,775.9667,325.3412,777.3846,325.9459,778.6882,326.2647,780.15,326.9793,780.1433,326.9625,778.713,327.4469,777.3168,328.0162,775.9441,328.6445,774.4901,329.0695,773.15,329.7793,773.2413,329.8706,773.606,329.1153,774.2374,328.6267,774.9013,328.1706,775.3758,327.5251,775.95,326.9793,775.9613,326.9906,775.3847,326.414,774.8595,325.8888,774.3095,325.3388,773.8066,324.8359,773.15,324.1793" style="stroke:#181818;stroke-width:0.6999999999999998;"/><path d="M365.05,326.9793 L365.05,327.1755 L372.0381,326.5926 L379.0263,327.1597 L386.0144,327.3523 L393.0025,326.3135 L399.9907,326.9068 L406.9788,326.5812 L413.9669,326.6214 L420.9551,326.9157 L427.9432,326.334 L434.9314,327.496 L441.9195,326.391 L448.9076,326.7947 L455.8958,327.3824 L462.8839,326.8992 L469.872,327.043 L476.8602,326.9495 L483.8483,327.1459 L490.8364,327.2025 L497.8246,327.5259 L504.8127,327.6056 L511.8008,327.6133 L518.789,327.2169 L525.7771,327.412 L532.7653,327.6347 L539.7534,326.3062 L546.7415,327.6126 L553.7297,326.7026 L560.7178,327.4775 L567.7059,326.5173 L574.6941,326.9154 L581.6822,327.6715 L588.6703,326.9338 L595.6585,327.0776 L602.6466,327.2953 L609.6347,327.3678 L616.6229,326.9757 L623.611,327.2474 L630.5992,326.445 L637.5873,327.2447 L644.5754,327.4909 L651.5636,327.3942 L658.5517,327.5515 L665.5398,326.5284 L672.528,326.3706 L679.5161,326.3993 L686.5042,326.9243 L693.4924,326.7959 L700.4805,327.6153 L707.4686,326.8163 L714.4568,326.6591 L721.4449,327.1923 L728.4331,326.3569 L735.4212,326.4948 L742.4093,327.585 L749.3975,327.3859 L756.3856,327.6648 L763.3737,326.679 L770.3619,327.2772 L777.35,326.9793 " fill="none" style="stroke:#181818;stroke-width:0.6999999999999998;"/><text fill="#000000" font-family="FG Virgil" font-size="9.1" lengthAdjust="spacing" textLength="146.3" x="369.95" y="323.2954">passwordMatches(oldPwd, encoder)</text><polygon fill="#181818" points="372.75,346.083,372.7682,346.1285,371.3141,346.5532,369.9667,347.2449,368.5846,347.8496,367.0882,348.1685,365.75,348.883,365.7433,348.8662,367.113,349.3506,368.5168,349.9199,369.9441,350.5482,371.2901,350.9732,372.75,351.683,372.8413,351.7744,372.086,351.019,371.5974,350.5304,371.1413,350.0743,370.4958,349.4289,369.95,348.883,369.9613,348.8943,370.5047,348.3177,371.0995,347.7925,371.6695,347.2425,372.2866,346.7396,372.75,346.083" style="stroke:#181818;stroke-width:0.6999999999999998;"/><path d="M368.55,348.883 L368.55,349.0792 L375.5975,348.4963 L382.6449,349.0634 L389.6924,349.256 L396.7398,348.2172 L403.7873,348.8105 L410.8347,348.4849 L417.8822,348.5251 L424.9297,348.8194 L431.9771,348.2377 L439.0246,349.3997 L446.072,348.2947 L453.1195,348.6984 L460.1669,349.2862 L467.2144,348.8029 L474.2619,348.9467 L481.3093,348.8532 L488.3568,349.0496 L495.4042,349.1062 L502.4517,349.4297 L509.4992,349.5093 L516.5466,349.517 L523.5941,349.1207 L530.6415,349.3157 L537.689,349.5384 L544.7364,348.2099 L551.7839,349.5163 L558.8314,348.6063 L565.8788,349.3812 L572.9263,348.421 L579.9737,348.8191 L587.0212,349.5752 L594.0686,348.8375 L601.1161,348.9813 L608.1636,349.1991 L615.211,349.2715 L622.2585,348.8794 L629.3059,349.1511 L636.3534,348.3488 L643.4008,349.1484 L650.4483,349.3947 L657.4958,349.2979 L664.5432,349.4552 L671.5907,348.4321 L678.6381,348.2743 L685.6856,348.303 L692.7331,348.8281 L699.7805,348.6996 L706.828,349.519 L713.8754,348.72 L720.9229,348.5628 L727.9703,349.0961 L735.0178,348.2606 L742.0653,348.3985 L749.1127,349.4887 L756.1602,349.2896 L763.2076,349.5685 L770.2551,348.5827 L777.3025,349.1809 L784.35,348.883 " fill="none" style="stroke:#181818;stroke-width:0.6999999999999998;stroke-dasharray:2.0,2.0;"/><text fill="#000000" font-family="FG Virgil" font-size="9.1" lengthAdjust="spacing" textLength="47.6" x="376.95" y="345.1991">true or false</text><polygon fill="#181818" points="849.1,367.9867,849.1182,368.0323,850.4641,368.457,851.9167,369.1486,853.3346,369.7533,854.6382,370.0722,856.1,370.7867,856.0933,370.7699,854.663,371.2543,853.2668,371.8236,851.8941,372.452,850.4401,372.8769,849.1,373.5867,849.1913,373.6781,849.556,372.9227,850.1874,372.4341,850.8513,371.978,851.3258,371.3326,851.9,370.7867,851.9113,370.798,851.3347,370.2214,850.8095,369.6962,850.2595,369.1462,849.7566,368.6434,849.1,367.9867" style="stroke:#181818;stroke-width:0.6999999999999998;"/><path d="M365.05,370.7867 L365.05,370.9829 L372.025,370.4 L379,370.9671 L385.975,371.1598 L392.95,370.1209 L399.925,370.7142 L406.9,370.3887 L413.875,370.4288 L420.85,370.7231 L427.825,370.1414 L434.8,371.3035 L441.775,370.1985 L448.75,370.6021 L455.725,371.1899 L462.7,370.7067 L469.675,370.8504 L476.65,370.7569 L483.625,370.9533 L490.6,371.0099 L497.575,371.3334 L504.55,371.413 L511.525,371.4207 L518.5,371.0244 L525.475,371.2194 L532.45,371.4421 L539.425,370.1136 L546.4,371.42 L553.375,370.51 L560.35,371.2849 L567.325,370.3247 L574.3,370.7228 L581.275,371.4789 L588.25,370.7412 L595.225,370.885 L602.2,371.1028 L609.175,371.1752 L616.15,370.7831 L623.125,371.0548 L630.1,370.2525 L637.075,371.0521 L644.05,371.2984 L651.025,371.2016 L658,371.3589 L664.975,370.3358 L671.95,370.178 L678.925,370.2067 L685.9,370.7318 L692.875,370.6033 L699.85,371.4227 L706.825,370.6237 L713.8,370.4665 L720.775,370.9998 L727.75,370.1643 L734.725,370.3022 L741.7,371.3924 L748.675,371.1933 L755.65,371.4722 L762.625,370.4864 L769.6,371.0846 L776.575,371.3378 L783.55,370.3458 L790.525,370.6972 L797.5,370.9043 L804.475,371.395 L811.45,370.7828 L818.425,371.2184 L825.4,370.2699 L832.375,370.1546 L839.35,371.2568 L846.325,370.1176 L853.3,370.7867 " fill="none" style="stroke:#181818;stroke-width:0.6999999999999998;"/><text fill="#000000" font-family="FG Virgil" font-size="9.1" lengthAdjust="spacing" textLength="171.5" x="369.95" y="367.1028">encodedAndValid(newPwd,policy,encoder)</text><polygon fill="#181818" points="372.75,389.8904,372.7682,389.936,371.3141,390.3607,369.9667,391.0523,368.5846,391.657,367.0882,391.9759,365.75,392.6904,365.7433,392.6736,367.113,393.158,368.5168,393.7273,369.9441,394.3557,371.2901,394.7806,372.75,395.4904,372.8413,395.5818,372.086,394.8264,371.5974,394.3378,371.1413,393.8817,370.4958,393.2363,369.95,392.6904,369.9613,392.7017,370.5047,392.1252,371.0995,391.5999,371.6695,391.0499,372.2866,390.5471,372.75,389.8904" style="stroke:#181818;stroke-width:0.6999999999999998;"/><path d="M368.55,392.6904 L368.55,392.8866 L375.575,392.3037 L382.6,392.8708 L389.625,393.0635 L396.65,392.0246 L403.675,392.6179 L410.7,392.2924 L417.725,392.3325 L424.75,392.6268 L431.775,392.0452 L438.8,393.2072 L445.825,392.1022 L452.85,392.5058 L459.875,393.0936 L466.9,392.6104 L473.925,392.7541 L480.95,392.6606 L487.975,392.8571 L495,392.9136 L502.025,393.2371 L509.05,393.3167 L516.075,393.3244 L523.1,392.9281 L530.125,393.1231 L537.15,393.3458 L544.175,392.0173 L551.2,393.3237 L558.225,392.4137 L565.25,393.1887 L572.275,392.2284 L579.3,392.6265 L586.325,393.3826 L593.35,392.6449 L600.375,392.7887 L607.4,393.0065 L614.425,393.0789 L621.45,392.6868 L628.475,392.9585 L635.5,392.1562 L642.525,392.9559 L649.55,393.2021 L656.575,393.1053 L663.6,393.2626 L670.625,392.2396 L677.65,392.0817 L684.675,392.1105 L691.7,392.6355 L698.725,392.507 L705.75,393.3264 L712.775,392.5274 L719.8,392.3702 L726.825,392.9035 L733.85,392.068 L740.875,392.2059 L747.9,393.2961 L754.925,393.0971 L761.95,393.376 L768.975,392.3901 L776,392.9883 L783.025,393.2415 L790.05,392.2495 L797.075,392.601 L804.1,392.808 L811.125,393.2987 L818.15,392.6865 L825.175,393.1222 L832.2,392.1736 L839.225,392.0583 L846.25,393.1605 L853.275,392.0213 L860.3,392.6904 " fill="none" style="stroke:#181818;stroke-width:0.6999999999999998;stroke-dasharray:2.0,2.0;"/><text fill="#000000" font-family="FG Virgil" font-size="9.1" lengthAdjust="spacing" textLength="33.6" x="376.95" y="389.0065">newPwd</text><polygon fill="#181818" points="773.15,411.7941,773.1682,411.8397,774.5141,412.2644,775.9667,412.956,777.3846,413.5607,778.6882,413.8796,780.15,414.5941,780.1433,414.5773,778.713,415.0617,777.3168,415.6311,775.9441,416.2594,774.4901,416.6844,773.15,417.3941,773.2413,417.4855,773.606,416.7301,774.2374,416.2415,774.9013,415.7854,775.3758,415.14,775.95,414.5941,775.9613,414.6054,775.3847,414.0289,774.8595,413.5036,774.3095,412.9536,773.8066,412.4508,773.15,411.7941" style="stroke:#181818;stroke-width:0.6999999999999998;"/><path d="M365.05,414.5941 L365.05,414.7903 L372.0381,414.2074 L379.0263,414.7745 L386.0144,414.9672 L393.0025,413.9283 L399.9907,414.5216 L406.9788,414.1961 L413.9669,414.2362 L420.9551,414.5305 L427.9432,413.9489 L434.9314,415.1109 L441.9195,414.0059 L448.9076,414.4096 L455.8958,414.9973 L462.8839,414.5141 L469.872,414.6578 L476.8602,414.5643 L483.8483,414.7608 L490.8364,414.8173 L497.8246,415.1408 L504.8127,415.2205 L511.8008,415.2281 L518.789,414.8318 L525.7771,415.0268 L532.7653,415.2496 L539.7534,413.921 L546.7415,415.2274 L553.7297,414.3174 L560.7178,415.0924 L567.7059,414.1321 L574.6941,414.5302 L581.6822,415.2863 L588.6703,414.5487 L595.6585,414.6924 L602.6466,414.9102 L609.6347,414.9826 L616.6229,414.5905 L623.611,414.8622 L630.5992,414.0599 L637.5873,414.8596 L644.5754,415.1058 L651.5636,415.009 L658.5517,415.1663 L665.5398,414.1433 L672.528,413.9854 L679.5161,414.0142 L686.5042,414.5392 L693.4924,414.4107 L700.4805,415.2301 L707.4686,414.4311 L714.4568,414.274 L721.4449,414.8072 L728.4331,413.9718 L735.4212,414.1096 L742.4093,415.1998 L749.3975,415.0008 L756.3856,415.2797 L763.3737,414.2938 L770.3619,414.8921 L777.35,414.5941 " fill="none" style="stroke:#181818;stroke-width:0.6999999999999998;"/><text fill="#000000" font-family="FG Virgil" font-size="9.1" lengthAdjust="spacing" textLength="108.5" x="369.95" y="410.9103">changePassword(newPwd)</text><polygon fill="#181818" points="372.75,421.5941,372.7682,421.6397,371.3141,422.0644,369.9667,422.756,368.5846,423.3607,367.0882,423.6796,365.75,424.3941,365.7433,424.3773,367.113,424.8617,368.5168,425.4311,369.9441,426.0594,371.2901,426.4844,372.75,427.1941,372.8413,427.2855,372.086,426.5301,371.5974,426.0415,371.1413,425.5854,370.4958,424.94,369.95,424.3941,369.9613,424.4054,370.5047,423.8289,371.0995,423.3036,371.6695,422.7536,372.2866,422.2508,372.75,421.5941" style="stroke:#181818;stroke-width:0.6999999999999998;"/><path d="M368.55,424.3941 L368.55,424.5903 L375.5975,424.0074 L382.6449,424.5745 L389.6924,424.7672 L396.7398,423.7283 L403.7873,424.3216 L410.8347,423.9961 L417.8822,424.0362 L424.9297,424.3305 L431.9771,423.7489 L439.0246,424.9109 L446.072,423.8059 L453.1195,424.2096 L460.1669,424.7973 L467.2144,424.3141 L474.2619,424.4578 L481.3093,424.3643 L488.3568,424.5608 L495.4042,424.6173 L502.4517,424.9408 L509.4992,425.0205 L516.5466,425.0281 L523.5941,424.6318 L530.6415,424.8268 L537.689,425.0496 L544.7364,423.721 L551.7839,425.0274 L558.8314,424.1174 L565.8788,424.8924 L572.9263,423.9321 L579.9737,424.3302 L587.0212,425.0863 L594.0686,424.3487 L601.1161,424.4924 L608.1636,424.7102 L615.211,424.7826 L622.2585,424.3905 L629.3059,424.6622 L636.3534,423.8599 L643.4008,424.6596 L650.4483,424.9058 L657.4958,424.809 L664.5432,424.9663 L671.5907,423.9433 L678.6381,423.7854 L685.6856,423.8142 L692.7331,424.3392 L699.7805,424.2107 L706.828,425.0301 L713.8754,424.2311 L720.9229,424.074 L727.9703,424.6072 L735.0178,423.7718 L742.0653,423.9096 L749.1127,424.9998 L756.1602,424.8008 L763.2076,425.0797 L770.2551,424.0938 L777.3025,424.6921 L784.35,424.3941 " fill="none" style="stroke:#181818;stroke-width:0.6999999999999998;stroke-dasharray:2.0,2.0;"/><polygon fill="#181818" points="558.95,443.4979,558.9682,443.5434,560.3141,443.9681,561.7667,444.6597,563.1846,445.2644,564.4882,445.5833,565.95,446.2979,565.9433,446.281,564.513,446.7655,563.1168,447.3348,561.7441,447.9631,560.2901,448.3881,558.95,449.0979,559.0413,449.1892,559.406,448.4339,560.0374,447.9452,560.7013,447.4891,561.1758,446.8437,561.75,446.2979,561.7613,446.3091,561.1847,445.7326,560.6595,445.2073,560.1095,444.6573,559.6066,444.1545,558.95,443.4979" style="stroke:#181818;stroke-width:0.6999999999999998;"/><path d="M365.05,446.2979 L365.05,446.494 L372.125,445.9112 L379.2,446.4783 L386.275,446.6709 L393.35,445.632 L400.425,446.2253 L407.5,445.8998 L414.575,445.9399 L421.65,446.2342 L428.725,445.6526 L435.8,446.8146 L442.875,445.7096 L449.95,446.1133 L457.025,446.701 L464.1,446.2178 L471.175,446.3615 L478.25,446.268 L485.325,446.4645 L492.4,446.521 L499.475,446.8445 L506.55,446.9242 L513.625,446.9318 L520.7,446.5355 L527.775,446.7305 L534.85,446.9533 L541.925,445.6247 L549,446.9311 L556.075,446.0211 L563.15,446.2979 " fill="none" style="stroke:#181818;stroke-width:0.6999999999999998;"/><text fill="#000000" font-family="FG Virgil" font-size="9.1" lengthAdjust="spacing" textLength="41.3" x="369.95" y="442.614">save(user)</text><polygon fill="#181818" points="165.55,465.4016,165.5682,465.4471,164.1141,465.8718,162.7667,466.5634,161.3846,467.1682,159.8882,467.487,158.55,468.2016,158.5433,468.1847,159.913,468.6692,161.3168,469.2385,162.7441,469.8668,164.0901,470.2918,165.55,471.0016,165.6413,471.0929,164.886,470.3376,164.3974,469.8489,163.9413,469.3928,163.2958,468.7474,162.75,468.2016,162.7613,468.2128,163.3047,467.6363,163.8995,467.111,164.4695,466.561,165.0866,466.0582,165.55,465.4016" style="stroke:#181818;stroke-width:0.6999999999999998;"/><path d="M161.35,468.2016 L161.35,468.3977 L168.2293,467.8149 L175.1086,468.382 L181.9879,468.5746 L188.8672,467.5357 L195.7466,468.129 L202.6259,467.8035 L209.5052,467.8436 L216.3845,468.1379 L223.2638,467.5563 L230.1431,468.7183 L237.0224,467.6133 L243.9017,468.017 L250.781,468.6047 L257.6603,468.1215 L264.5397,468.2653 L271.419,468.1717 L278.2983,468.3682 L285.1776,468.4248 L292.0569,468.7482 L298.9362,468.8279 L305.8155,468.8355 L312.6948,468.4392 L319.5741,468.6342 L326.4534,468.857 L333.3328,467.5285 L340.2121,468.8348 L347.0914,467.9248 L353.9707,468.6998 L360.85,468.2016 " fill="none" style="stroke:#181818;stroke-width:0.6999999999999998;stroke-dasharray:2.0,2.0;"/><text fill="#000000" font-family="FG Virgil" font-size="9.1" lengthAdjust="spacing" textLength="47.6" x="169.75" y="464.5177">true or false</text><polygon fill="#181818" points="23.45,487.3053,23.4682,487.3508,22.0141,487.7755,20.6667,488.4671,19.2846,489.0719,17.7882,489.3907,16.45,490.1053,16.4433,490.0884,17.813,490.5729,19.2168,491.1422,20.6441,491.7705,21.9901,492.1955,23.45,492.9053,23.5413,492.9966,22.786,492.2413,22.2974,491.7526,21.8413,491.2965,21.1958,490.6511,20.65,490.1053,20.6613,490.1165,21.2047,489.54,21.7995,489.0147,22.3695,488.4647,22.9866,487.9619,23.45,487.3053" style="stroke:#181818;stroke-width:0.6999999999999998;"/><path d="M19.25,490.1053 L19.25,490.3014 L26.3237,489.7186 L33.3974,490.2857 L40.4711,490.4783 L47.5447,489.4394 L54.6184,490.0327 L61.6921,489.7072 L68.7658,489.7473 L75.8395,490.0417 L82.9132,489.46 L89.9868,490.622 L97.0605,489.517 L104.1342,489.9207 L111.2079,490.5084 L118.2816,490.0252 L125.3553,490.169 L132.4289,490.0755 L139.5026,490.2719 L146.5763,490.3285 L153.65,490.1053 " fill="none" style="stroke:#181818;stroke-width:0.6999999999999998;stroke-dasharray:2.0,2.0;"/><text fill="#000000" font-family="FG Virgil" font-size="9.1" lengthAdjust="spacing" textLength="96.6" x="27.65" y="486.4214">Show success or failure</text><!--SRC=[ZPJHhk8W48RlUGhYbIVH5sWQ4xFPi_7YR8oDvvx0s19Rw0ArqQVVeIsLrfhTAx7CD_ymyuEzIbKpmofQC2LQ8vq3HPrfWDXngz9AyyBe2kOxDUDNbaFcxYLG0zn5Um8kh2dTfrRkDqFqynVzbYQNPHHZ2oPqArLEBwoqG0ZZJXkwEbimAyeiFMS_JmHZdUIoPihH7rXd3aTcRQkDE1-we0DDqzg01UMOarhjTXDctxZYSO9SMcVk7XZNQTeuMKftNo0mcUHTkWpCJNBmfDy8VzEKrNKvn2maq4O-blZ7_oJm7JX1hQt4XWn5rneHCtwS4Qi6aGoinMJ9-Rdk-ZYiaHUwOb8jiKbsjmwgP-znyGu80_1nnrR4OSJFZ6vtVYm9Llsd0Uiex-Q6XkavFsXvOmum2ea3tNh0WmdTswkbkiJSIb05xHCICCLYeQFHDobW6NnHspqza52sDEtrnvCAiMI4ja4sCaHStaWCQh5lag4PeOThB1bxkF4bus-a6oSdIkCN8_F2KNsP9RIoGYDT90XwmNi5cFPA_JUemfqW94Q6aXvHYjuXwvbyY22JyEtBaIBpnNsOf9XN44mvcG08xxkuZ90sX2-Bnwg1c0jsZav6MtmnnmkmO_z1SIt0HD8U81trAkgVGegFLVzonTRqq5pQNv9aK11x9RvPASMwd_YcrlWAt3Ul-hX9FFcgtfEnhF_xvi0plxtuxEqn_tcixb52yx0RhFqKFcOHuPgyRTR4ujDt82jqIst3EKwpPsNP69Yz0dy1]--></g></svg>