<?xml version="1.0" encoding="us-ascii" standalone="no"?><svg xmlns="http://www.w3.org/2000/svg" xmlns:xlink="http://www.w3.org/1999/xlink" contentStyleType="text/css" height="290.7px" preserveAspectRatio="none" style="width:418px;height:290px;background:#FFFFFF;" version="1.1" viewBox="0 0 418 290" width="418.5px" zoomAndPan="magnify"><defs/><g><polygon fill="#FFFFFF" points="44.1,65.918,44.1,65.981,45.9,65.7937,47.7,65.976,49.5,66.0379,51.3,65.704,53.1,65.918,53.0301,65.918,52.7162,74.7407,52.7549,83.5635,53.0387,92.3862,52.4778,101.209,53.5983,110.0317,52.5327,118.8545,52.922,127.6772,53.4888,136.5,53.0228,145.3228,53.1614,154.1455,53.0712,162.9683,53.2607,171.791,53.3152,180.6138,53.6271,189.4365,53.7039,198.2593,53.7113,207.082,53.3292,215.9048,53.1,224.7275,53.1,224.8666,51.3,224.9382,49.5,224.5112,47.7,224.9311,45.9,224.6386,44.1,224.7275,44.5804,224.7275,43.6545,215.9048,44.0384,207.082,44.7674,198.2593,44.0561,189.4365,44.1948,180.6138,44.4048,171.791,44.4746,162.9683,44.0965,154.1455,44.3585,145.3228,43.5848,136.5,44.3559,127.6772,44.5934,118.8545,44.5001,110.0317,44.6517,101.209,43.6652,92.3862,43.513,83.5635,43.5407,74.7407,44.1,65.918" style="stroke:#181818;stroke-width:0.9;"/><polygon fill="#FFFFFF" points="181.8,94.0799,181.8,94.1429,183.6,93.9556,185.4,94.1379,187.2,94.1998,189,93.8659,190.8,94.0799,190.7767,94.0799,190.6721,99.7123,190.685,105.3446,190.7796,110.977,190.5926,116.6094,190.8,122.2418,190.8,122.4079,189,122.0527,187.2,122.1825,185.4,122.3714,183.6,122.2161,181.8,122.2418,181.8205,122.2418,181.7904,116.6094,181.8536,110.977,181.8717,105.3446,181.9757,99.7123,181.8,94.0799" style="stroke:#181818;stroke-width:0.9;"/><polygon fill="#FFFFFF" points="300.6,150.4037,300.6,150.4668,302.4,150.2794,304.2,150.4617,306,150.5236,307.8,150.1897,309.6,150.4037,309.5301,150.4037,309.2162,159.2214,309.2549,168.0391,309.5387,176.8568,308.9778,185.6745,310.0983,194.4922,309.0327,203.3098,309.6,212.1275,309.6,212.0682,307.8,212.2571,306,212.1018,304.2,212.148,302.4,212.118,300.6,212.1275,300.7607,212.1275,300.8152,203.3098,301.1271,194.4922,301.2039,185.6745,301.2113,176.8568,300.8292,168.0391,301.0172,159.2214,300.6,150.4037" style="stroke:#181818;stroke-width:0.9;"/><path d="M48.6,51.518 L48.8522,51.518 L48.1028,60.5375 L48.8319,69.557 L49.0796,78.5765 L47.7439,87.596 L48.5067,96.6155 L48.0882,105.635 L48.1398,114.6545 L48.5182,123.674 L47.7704,132.6935 L49.2644,141.713 L47.8437,150.7325 L48.3627,159.752 L49.1183,168.7715 L48.4971,177.791 L48.6819,186.8105 L48.5617,195.83 L48.8142,204.8495 L48.887,213.869 L49.3028,222.8885 L49.4053,231.908 L48.6,240.9275 " fill="none" style="stroke:#181818;stroke-width:0.45;stroke-dasharray:5.0,5.0;"/><path d="M185.85,51.518 L186.1022,51.518 L185.3528,60.5375 L186.0819,69.557 L186.3296,78.5765 L184.9939,87.596 L185.7567,96.6155 L185.3382,105.635 L185.3898,114.6545 L185.7682,123.674 L185.0204,132.6935 L186.5144,141.713 L185.0937,150.7325 L185.6127,159.752 L186.3683,168.7715 L185.7471,177.791 L185.9319,186.8105 L185.8117,195.83 L186.0642,204.8495 L186.137,213.869 L186.5528,222.8885 L186.6553,231.908 L185.85,240.9275 " fill="none" style="stroke:#181818;stroke-width:0.45;stroke-dasharray:5.0,5.0;"/><path d="M304.65,51.518 L304.9022,51.518 L304.1528,60.5375 L304.8819,69.557 L305.1296,78.5765 L303.7939,87.596 L304.5567,96.6155 L304.1382,105.635 L304.1898,114.6545 L304.5682,123.674 L303.8204,132.6935 L305.3144,141.713 L303.8937,150.7325 L304.4127,159.752 L305.1683,168.7715 L304.5471,177.791 L304.7319,186.8105 L304.6117,195.83 L304.8642,204.8495 L304.937,213.869 L305.3528,222.8885 L305.4553,231.908 L304.65,240.9275 " fill="none" style="stroke:#181818;stroke-width:0.45;stroke-dasharray:5.0,5.0;"/><polygon fill="#E3E3E3" points="6.75,4.5,6.75,4.6892,16.05,4.1271,25.35,4.674,34.65,4.8597,43.95,3.8579,53.25,4.4301,62.55,4.1162,71.85,4.1549,81.15,4.4387,90.45,4.5,90.3706,4.3084,90.8318,4.7853,91.014,4.5889,91.3819,4.8406,91.7724,5.1469,92.041,5.159,92.0172,5.1492,92.1917,5.485,92.2957,5.7917,92.4859,6.1341,92.6345,6.4593,92.7,6.75,93.2271,6.75,93.3039,15.0736,93.3113,23.3972,92.9292,31.7208,93.1172,40.0444,92.7,48.368,92.8946,48.4486,92.3683,48.6034,92.6245,49.0823,92.2224,49.2885,92.3207,49.702,92.041,49.959,91.9842,49.8218,91.7149,50.0718,91.4897,50.4281,91.0808,50.3409,90.7803,50.5154,90.45,50.618,90.45,50.9227,81.15,50.9926,71.85,50.6145,62.55,50.8765,53.25,50.1028,43.95,50.8739,34.65,51.1113,25.35,51.018,16.05,51.1697,6.75,50.618,6.6945,50.4841,6.3569,50.3054,6.0423,50.1821,5.7886,50.2062,5.4546,50.0363,5.159,49.959,5.3479,50.0372,4.9788,49.6207,4.8003,49.2832,4.8269,49.0306,4.447,48.6096,4.5,48.368,4.0328,48.368,5.0841,40.0444,4.8921,31.7208,5.161,23.3972,4.2104,15.0736,4.5,6.75,4.5885,6.7866,4.7954,6.4996,4.6327,6.0594,4.8688,5.7844,5.0621,5.4917,5.159,5.159,5.2338,5.3397,5.4767,5.026,5.8485,5.0236,6.05,4.6101,6.354,4.4441,6.75,4.5" style="stroke:#181818;stroke-width:0.45;"/><text fill="#000000" font-family="FG Virgil" font-size="12.6" font-style="italic" lengthAdjust="spacing" textLength="75.6" x="10.8" y="24.3967">&#171;application&#187;</text><text fill="#000000" font-family="FG Virgil" font-size="12.6" lengthAdjust="spacing" textLength="75.6" x="10.8" y="41.1557">{NameofUS}X</text><polygon fill="#E3E3E3" points="6.75,240.0275,6.75,240.2167,16.05,239.6547,25.35,240.2015,34.65,240.3873,43.95,239.3855,53.25,239.9576,62.55,239.6437,71.85,239.6824,81.15,239.9662,90.45,240.0275,90.3706,239.8359,90.8318,240.3128,91.014,240.1165,91.3819,240.3681,91.7724,240.6745,92.041,240.6865,92.0172,240.6767,92.1917,241.0126,92.2957,241.3193,92.4859,241.6616,92.6345,241.9868,92.7,242.2775,93.2271,242.2775,93.3039,250.6011,93.3113,258.9247,92.9292,267.2483,93.1172,275.5719,92.7,283.8955,92.8946,283.9761,92.3683,284.1309,92.6245,284.6098,92.2224,284.8161,92.3207,285.2296,92.041,285.4865,91.9842,285.3493,91.7149,285.5993,91.4897,285.9556,91.0808,285.8684,90.7803,286.0429,90.45,286.1455,90.45,286.4503,81.15,286.5201,71.85,286.142,62.55,286.404,53.25,285.6303,43.95,286.4015,34.65,286.6389,25.35,286.5456,16.05,286.6972,6.75,286.1455,6.6945,286.0116,6.3569,285.8329,6.0423,285.7097,5.7886,285.7338,5.4546,285.5638,5.159,285.4865,5.3479,285.5647,4.9788,285.1482,4.8003,284.8107,4.8269,284.5581,4.447,284.1371,4.5,283.8955,4.0328,283.8955,5.0841,275.5719,4.8921,267.2483,5.161,258.9247,4.2104,250.6011,4.5,242.2775,4.5885,242.3142,4.7954,242.0271,4.6327,241.5869,4.8688,241.3119,5.0621,241.0192,5.159,240.6865,5.2338,240.8672,5.4767,240.5536,5.8485,240.5512,6.05,240.1377,6.354,239.9716,6.75,240.0275" style="stroke:#181818;stroke-width:0.45;"/><text fill="#000000" font-family="FG Virgil" font-size="12.6" font-style="italic" lengthAdjust="spacing" textLength="75.6" x="10.8" y="259.9242">&#171;application&#187;</text><text fill="#000000" font-family="FG Virgil" font-size="12.6" lengthAdjust="spacing" textLength="75.6" x="10.8" y="276.6832">{NameofUS}X</text><polygon fill="#E3E3E3" points="143.1,4.5,143.1,4.6892,151.74,4.1271,160.38,4.674,169.02,4.8597,177.66,3.8579,186.3,4.4301,194.94,4.1162,203.58,4.1549,212.22,4.4387,220.86,3.8778,229.5,4.5,229.5636,4.6534,229.7458,4.4571,230.1137,4.7088,230.5042,5.0151,230.7629,5.0034,231.091,5.159,231.1099,5.1668,231.2139,5.4735,231.4041,5.8159,231.5527,6.1411,231.7805,6.499,231.75,6.75,232.3539,6.75,232.3613,15.0736,231.9792,23.3972,232.1672,31.7208,232.382,40.0444,231.75,48.368,231.5501,48.2852,231.8063,48.7641,231.4042,48.9703,231.5025,49.3838,231.0856,49.5839,231.091,49.959,231.0831,49.94,230.8579,50.2963,230.449,50.2091,230.1485,50.3836,229.8571,50.58,229.5,50.618,229.5,50.9926,220.86,50.6145,212.22,50.8765,203.58,50.1028,194.94,50.8739,186.3,51.1113,177.66,51.018,169.02,51.1697,160.38,50.1832,151.74,50.031,143.1,50.618,143.0287,50.4457,142.775,50.4698,142.441,50.2999,142.2236,50.4114,141.8072,50.0423,141.509,49.959,141.4139,49.9196,141.4405,49.667,141.0606,49.246,140.9697,48.9448,141.1617,48.7607,140.85,48.368,141.2421,48.368,141.511,40.0444,140.5604,31.7208,141.1373,23.3972,141.3814,15.0736,140.85,6.75,140.7191,6.6958,140.9552,6.4208,141.1485,6.1281,141.4261,5.8702,141.376,5.4767,141.509,5.159,141.5621,5.2872,141.7636,4.8737,142.0677,4.7077,142.5214,4.9032,142.6995,4.4331,143.1,4.5" style="stroke:#181818;stroke-width:0.45;"/><text fill="#000000" font-family="FG Virgil" font-size="12.6" font-style="italic" lengthAdjust="spacing" textLength="43.2" x="164.7" y="24.3967">&#171;utility&#187;</text><text fill="#000000" font-family="FG Virgil" font-size="12.6" lengthAdjust="spacing" textLength="78.3" x="147.15" y="41.1557">AuthzRegistry</text><polygon fill="#E3E3E3" points="143.1,240.0275,143.1,240.2167,151.74,239.6547,160.38,240.2015,169.02,240.3873,177.66,239.3855,186.3,239.9576,194.94,239.6437,203.58,239.6824,212.22,239.9662,220.86,239.4053,229.5,240.0275,229.5636,240.181,229.7458,239.9846,230.1137,240.2363,230.5042,240.5427,230.7629,240.531,231.091,240.6865,231.1099,240.6944,231.2139,241.0011,231.4041,241.3434,231.5527,241.6686,231.7805,242.0266,231.75,242.2775,232.3539,242.2775,232.3613,250.6011,231.9792,258.9247,232.1672,267.2483,232.382,275.5719,231.75,283.8955,231.5501,283.8127,231.8063,284.2916,231.4042,284.4979,231.5025,284.9114,231.0856,285.1115,231.091,285.4865,231.0831,285.4675,230.8579,285.8238,230.449,285.7366,230.1485,285.9111,229.8571,286.1076,229.5,286.1455,229.5,286.5201,220.86,286.142,212.22,286.404,203.58,285.6303,194.94,286.4015,186.3,286.6389,177.66,286.5456,169.02,286.6972,160.38,285.7107,151.74,285.5585,143.1,286.1455,143.0287,285.9733,142.775,285.9974,142.441,285.8274,142.2236,285.939,141.8072,285.5699,141.509,285.4865,141.4139,285.4471,141.4405,285.1945,141.0606,284.7735,140.9697,284.4723,141.1617,284.2882,140.85,283.8955,141.2421,283.8955,141.511,275.5719,140.5604,267.2483,141.1373,258.9247,141.3814,250.6011,140.85,242.2775,140.7191,242.2233,140.9552,241.9483,141.1485,241.6556,141.4261,241.3978,141.376,241.0043,141.509,240.6865,141.5621,240.8148,141.7636,240.4013,142.0677,240.2352,142.5214,240.4307,142.6995,239.9606,143.1,240.0275" style="stroke:#181818;stroke-width:0.45;"/><text fill="#000000" font-family="FG Virgil" font-size="12.6" font-style="italic" lengthAdjust="spacing" textLength="43.2" x="164.7" y="259.9242">&#171;utility&#187;</text><text fill="#000000" font-family="FG Virgil" font-size="12.6" lengthAdjust="spacing" textLength="78.3" x="147.15" y="276.6832">AuthzRegistry</text><polygon fill="#E3E3E3" points="243,4.5,243,4.6892,251.8714,4.1271,260.7429,4.674,269.6143,4.8597,278.4857,3.8579,287.3571,4.4301,296.2286,4.1162,305.1,4.1549,313.9714,4.4387,322.8429,3.8778,331.7143,4.9983,340.5857,3.9327,349.4571,4.322,358.3286,4.8888,367.2,4.5,367.1902,4.4762,367.526,4.6507,367.8327,4.7547,368.1751,4.9449,368.5002,5.0935,368.791,5.159,368.9533,5.2262,369.1088,5.5542,369.2429,5.8734,369.257,6.1428,369.4467,6.485,369.45,6.75,370.082,6.75,368.8009,15.0736,370.0607,23.3972,369.1831,31.7208,369.9304,40.0444,369.45,48.368,369.3128,48.3111,369.2992,48.6783,369.3919,49.0895,369.0411,49.317,368.952,49.6529,368.791,49.959,368.8299,50.0528,368.5206,50.2061,368.1541,50.2215,367.8694,50.434,367.4525,50.3275,367.2,50.618,367.2,50.8739,358.3286,51.1113,349.4571,51.018,340.5857,51.1697,331.7143,50.1832,322.8429,50.031,313.9714,50.0587,305.1,50.565,296.2286,50.4411,287.3571,51.2312,278.4857,50.4608,269.6143,50.3092,260.7429,50.8234,251.8714,50.0178,243,50.618,242.9404,50.4741,242.7563,50.666,242.4136,50.4751,242.1297,50.4261,241.6903,50.0016,241.409,49.959,241.4975,49.9956,241.4409,49.7085,241.0145,49.2683,240.987,48.9934,240.9167,48.7006,240.75,48.368,241.3366,48.368,240.7462,40.0444,241.1663,31.7208,240.2516,23.3972,240.1405,15.0736,240.75,6.75,240.8896,6.8078,240.6831,6.3495,241.1547,6.172,241.2027,5.8191,241.203,5.4464,241.409,5.159,241.3684,5.061,241.7799,5.1544,242.011,4.8124,242.4316,4.9276,242.6183,4.4786,243,4.5" style="stroke:#181818;stroke-width:0.45;"/><text fill="#000000" font-family="FG Virgil" font-size="12.6" font-style="italic" lengthAdjust="spacing" textLength="75.6" x="267.3" y="24.3967">&#171;application&#187;</text><text fill="#000000" font-family="FG Virgil" font-size="12.6" lengthAdjust="spacing" textLength="116.1" x="247.05" y="41.1557">AuthorizationService</text><polygon fill="#E3E3E3" points="243,240.0275,243,240.2167,251.8714,239.6547,260.7429,240.2015,269.6143,240.3873,278.4857,239.3855,287.3571,239.9576,296.2286,239.6437,305.1,239.6824,313.9714,239.9662,322.8429,239.4053,331.7143,240.5258,340.5857,239.4603,349.4571,239.8495,358.3286,240.4163,367.2,240.0275,367.1902,240.0038,367.526,240.1783,367.8327,240.2823,368.1751,240.4724,368.5002,240.621,368.791,240.6865,368.9533,240.7538,369.1088,241.0818,369.2429,241.4009,369.257,241.6704,369.4467,242.0126,369.45,242.2775,370.082,242.2775,368.8009,250.6011,370.0607,258.9247,369.1831,267.2483,369.9304,275.5719,369.45,283.8955,369.3128,283.8387,369.2992,284.2058,369.3919,284.617,369.0411,284.8445,368.952,285.1804,368.791,285.4865,368.8299,285.5804,368.5206,285.7337,368.1541,285.749,367.8694,285.9615,367.4525,285.8551,367.2,286.1455,367.2,286.4015,358.3286,286.6389,349.4571,286.5456,340.5857,286.6972,331.7143,285.7107,322.8429,285.5585,313.9714,285.5862,305.1,286.0925,296.2286,285.9686,287.3571,286.7588,278.4857,285.9883,269.6143,285.8368,260.7429,286.3509,251.8714,285.5454,243,286.1455,242.9404,286.0016,242.7563,286.1936,242.4136,286.0027,242.1297,285.9537,241.6903,285.5291,241.409,285.4865,241.4975,285.5231,241.4409,285.2361,241.0145,284.7959,240.987,284.5209,240.9167,284.2282,240.75,283.8955,241.3366,283.8955,240.7462,275.5719,241.1663,267.2483,240.2516,258.9247,240.1405,250.6011,240.75,242.2775,240.8896,242.3354,240.6831,241.877,241.1547,241.6996,241.2027,241.3467,241.203,240.974,241.409,240.6865,241.3684,240.5885,241.7799,240.6819,242.011,240.34,242.4316,240.4552,242.6183,240.0061,243,240.0275" style="stroke:#181818;stroke-width:0.45;"/><text fill="#000000" font-family="FG Virgil" font-size="12.6" font-style="italic" lengthAdjust="spacing" textLength="75.6" x="267.3" y="259.9242">&#171;application&#187;</text><text fill="#000000" font-family="FG Virgil" font-size="12.6" lengthAdjust="spacing" textLength="116.1" x="247.05" y="276.6832">AuthorizationService</text><polygon fill="#FFFFFF" points="44.1,65.918,44.1,65.981,45.9,65.7937,47.7,65.976,49.5,66.0379,51.3,65.704,53.1,65.918,53.0301,65.918,52.7162,74.7407,52.7549,83.5635,53.0387,92.3862,52.4778,101.209,53.5983,110.0317,52.5327,118.8545,52.922,127.6772,53.4888,136.5,53.0228,145.3228,53.1614,154.1455,53.0712,162.9683,53.2607,171.791,53.3152,180.6138,53.6271,189.4365,53.7039,198.2593,53.7113,207.082,53.3292,215.9048,53.1,224.7275,53.1,224.8666,51.3,224.9382,49.5,224.5112,47.7,224.9311,45.9,224.6386,44.1,224.7275,44.5804,224.7275,43.6545,215.9048,44.0384,207.082,44.7674,198.2593,44.0561,189.4365,44.1948,180.6138,44.4048,171.791,44.4746,162.9683,44.0965,154.1455,44.3585,145.3228,43.5848,136.5,44.3559,127.6772,44.5934,118.8545,44.5001,110.0317,44.6517,101.209,43.6652,92.3862,43.513,83.5635,43.5407,74.7407,44.1,65.918" style="stroke:#181818;stroke-width:0.9;"/><polygon fill="#FFFFFF" points="181.8,94.0799,181.8,94.1429,183.6,93.9556,185.4,94.1379,187.2,94.1998,189,93.8659,190.8,94.0799,190.7767,94.0799,190.6721,99.7123,190.685,105.3446,190.7796,110.977,190.5926,116.6094,190.8,122.2418,190.8,122.4079,189,122.0527,187.2,122.1825,185.4,122.3714,183.6,122.2161,181.8,122.2418,181.8205,122.2418,181.7904,116.6094,181.8536,110.977,181.8717,105.3446,181.9757,99.7123,181.8,94.0799" style="stroke:#181818;stroke-width:0.9;"/><polygon fill="#FFFFFF" points="300.6,150.4037,300.6,150.4668,302.4,150.2794,304.2,150.4617,306,150.5236,307.8,150.1897,309.6,150.4037,309.5301,150.4037,309.2162,159.2214,309.2549,168.0391,309.5387,176.8568,308.9778,185.6745,310.0983,194.4922,309.0327,203.3098,309.6,212.1275,309.6,212.0682,307.8,212.2571,306,212.1018,304.2,212.148,302.4,212.118,300.6,212.1275,300.7607,212.1275,300.8152,203.3098,301.1271,194.4922,301.2039,185.6745,301.2113,176.8568,300.8292,168.0391,301.0172,159.2214,300.6,150.4037" style="stroke:#181818;stroke-width:0.9;"/><polygon fill="#181818" points="33.3,62.318,33.3234,62.3765,35.0538,62.9226,36.9215,63.8118,38.7445,64.5893,40.4205,64.9993,42.3,65.918,42.2913,65.8963,40.4525,66.5192,38.6573,67.2511,36.8924,68.059,35.023,68.6054,33.3,69.518,33.4174,69.6354,33.8863,68.6643,34.698,68.036,35.5516,67.4496,36.1618,66.6198,36.9,65.918,36.9145,65.9324,36.1732,65.1912,35.4979,64.5158,34.7907,63.8087,34.1442,63.1622,33.3,62.318" style="stroke:#181818;stroke-width:0.9;"/><path d="M0,65.918 L0,66.002 L7.74,65.7522 L15.48,65.9953 L23.22,66.0778 L30.96,65.6326 L38.7,65.918 " fill="none" style="stroke:#181818;stroke-width:0.9;"/><polygon fill="#181818" points="171,90.4799,171.0234,90.5384,172.7538,91.0845,174.6215,91.9737,176.4445,92.7512,178.1205,93.1612,180,94.0799,179.9913,94.0582,178.1525,94.6811,176.3573,95.4131,174.5924,96.2209,172.723,96.7673,171,97.6799,171.1174,97.7973,171.5863,96.8262,172.398,96.1979,173.2516,95.6115,173.8618,94.7817,174.6,94.0799,174.6145,94.0944,173.8732,93.3531,173.1979,92.6778,172.4907,91.9706,171.8442,91.3241,171,90.4799" style="stroke:#181818;stroke-width:0.9;"/><path d="M53.1,94.0799 L53.1,94.3321 L61.9071,93.5827 L70.7143,94.3118 L79.5214,94.5595 L88.3286,93.2238 L97.1357,93.9866 L105.9429,93.5681 L114.75,93.6197 L123.5571,93.9981 L132.3643,93.2502 L141.1714,94.7443 L149.9786,93.3235 L158.7857,93.8426 L167.5929,94.5982 L176.4,94.0799 " fill="none" style="stroke:#181818;stroke-width:0.9;"/><text fill="#000000" font-family="FG Virgil" font-size="11.7" lengthAdjust="spacing" textLength="111.6" x="59.4" y="89.3435">authorizationService()</text><polygon fill="#181818" points="63,118.6418,63.0234,118.7003,61.1538,119.2464,59.4215,120.1356,57.6445,120.9131,55.7205,121.3231,54,122.2418,53.9913,122.2202,55.7525,122.843,57.5573,123.575,59.3924,124.3828,61.123,124.9292,63,125.8418,63.1174,125.9592,62.1463,124.9881,61.518,124.3598,60.9316,123.7734,60.1018,122.9436,59.4,122.2418,59.4145,122.2563,60.1132,121.515,60.8779,120.8397,61.6107,120.1325,62.4042,119.486,63,118.6418" style="stroke:#181818;stroke-width:0.9;"/><path d="M57.6,122.2418 L57.6,122.494 L66.7286,121.7446 L75.8571,122.4737 L84.9857,122.7214 L94.1143,121.3857 L103.2429,122.1485 L112.3714,121.73 L121.5,121.7816 L130.6286,122.16 L139.7571,121.4122 L148.8857,122.9062 L158.0143,121.4855 L167.1429,122.0045 L176.2714,122.7601 L185.4,122.2418 " fill="none" style="stroke:#181818;stroke-width:0.9;stroke-dasharray:2.0,2.0;"/><text fill="#000000" font-family="FG Virgil" font-size="11.7" lengthAdjust="spacing" textLength="104.4" x="68.4" y="117.5054">authorizationService</text><polygon fill="#181818" points="289.8,146.8037,289.8234,146.8623,291.5538,147.4083,293.4215,148.2975,295.2445,149.075,296.9205,149.485,298.8,150.4037,298.7913,150.3821,296.9525,151.0049,295.1573,151.7369,293.3924,152.5447,291.523,153.0911,289.8,154.0037,289.9174,154.1212,290.3863,153.15,291.198,152.5218,292.0516,151.9353,292.6618,151.1055,293.4,150.4037,293.4145,150.4182,292.6732,149.6769,291.9979,149.0016,291.2907,148.2944,290.6442,147.648,289.8,146.8037" style="stroke:#181818;stroke-width:0.9;"/><path d="M53.1,150.4037 L53.1,150.6559 L62.0667,149.9065 L71.0333,150.6357 L80,150.8833 L88.9667,149.5476 L97.9333,150.3105 L106.9,149.8919 L115.8667,149.9435 L124.8333,150.3219 L133.8,149.5741 L142.7667,151.0681 L151.7333,149.6474 L160.7,150.1664 L169.6667,150.922 L178.6333,150.3008 L187.6,150.4856 L196.5667,150.3654 L205.5333,150.6179 L214.5,150.6907 L223.4667,151.1065 L232.4333,151.209 L241.4,151.2188 L250.3667,150.7093 L259.3333,150.96 L268.3,151.2464 L277.2667,149.5383 L286.2333,151.2179 L295.2,150.4037 " fill="none" style="stroke:#181818;stroke-width:0.9;"/><text fill="#000000" font-family="FG Virgil" font-size="11.7" lengthAdjust="spacing" textLength="216.9" x="59.4" y="145.6673">ensureAuthenticatedUserHasAnyOf(roles)</text><path d="M314.1,162.1037 L314.2681,162.1037 L313.7685,170.0237 L314.2546,177.9437 L314.4197,185.8637 L313.5293,193.7837 L314.1,201.7037 L314.1,201.5172 L323.0182,200.6801 L331.9364,200.7833 L340.8545,201.5401 L349.7727,200.0444 L358.6909,203.0325 L367.6091,200.191 L376.5273,201.2291 L385.4455,202.7404 L394.3636,201.4978 L403.2818,201.8675 L412.2,201.7037 L412.1744,201.7037 L412.3428,195.5837 L412.3913,189.4637 L412.6686,183.3437 L412.7368,177.2237 L412.2,171.1037 L412.5842,171.488 L410.544,169.4477 L408.8622,167.766 L407.1972,166.101 L404.592,163.4957 L403.2,162.1037 L403.2,163.7321 L394.29,161.3921 L385.38,163.3849 L376.47,160.9157 L367.56,161.9393 L358.65,163.8836 L349.74,161.9867 L340.83,162.3564 L331.92,162.9164 L323.01,163.1027 L314.1,162.1037 " fill="#FAFAFA" style="stroke:#181818;stroke-width:0.45;"/><path d="M403.2,162.1037 L403.1969,162.1037 L403.4298,163.9037 L402.7421,165.7037 L403.4275,167.5037 L403.6386,169.3037 L403.2,171.1037 L403.2,171.4593 L405,171.5941 L406.8,170.7172 L408.6,170.582 L410.4,170.6066 L412.2,171.1037 L412.1667,171.0704 L410.2888,169.1925 L408.9855,167.8892 L406.7012,165.6049 L404.8059,163.7097 L403.2,162.1037 " fill="#FAFAFA" style="stroke:#181818;stroke-width:0.45;"/><text fill="#000000" font-family="FG Virgil" font-size="11.7" lengthAdjust="spacing" textLength="53.1" x="319.5" y="179.2292">framework</text><text fill="#000000" font-family="FG Virgil" font-size="11.7" lengthAdjust="spacing" textLength="79.2" x="319.5" y="194.7911">implementation</text><polygon fill="#181818" points="63,208.5275,63.0234,208.5861,61.1538,209.1321,59.4215,210.0214,57.6445,210.7989,55.7205,211.2088,54,212.1275,53.9913,212.1059,55.7525,212.7287,57.5573,213.4607,59.3924,214.2686,61.123,214.815,63,215.7275,63.1174,215.845,62.1463,214.8738,61.518,214.2456,60.9316,213.6592,60.1018,212.8293,59.4,212.1275,59.4145,212.142,60.1132,211.4008,60.8779,210.7254,61.6107,210.0183,62.4042,209.3718,63,208.5275" style="stroke:#181818;stroke-width:0.9;"/><path d="M57.6,212.1275 L57.6,212.3798 L66.7333,211.6304 L75.8667,212.3595 L85,212.6072 L94.1333,211.2715 L103.2667,212.0343 L112.4,211.6157 L121.5333,211.6673 L130.6667,212.0458 L139.8,211.2979 L148.9333,212.7919 L158.0667,211.3712 L167.2,211.8902 L176.3333,212.6459 L185.4667,212.0246 L194.6,212.2094 L203.7333,212.0892 L212.8667,212.3418 L222,212.4145 L231.1333,212.8304 L240.2667,212.9328 L249.4,212.9426 L258.5333,212.4331 L267.6667,212.6838 L276.8,212.9702 L285.9333,211.2621 L295.0667,212.9418 L304.2,212.1275 " fill="none" style="stroke:#181818;stroke-width:0.9;stroke-dasharray:2.0,2.0;"/><polygon fill="#181818" points="9.9,221.1275,9.9234,221.1861,8.0538,221.7321,6.3215,222.6214,4.5445,223.3989,2.6205,223.8088,0.9,224.7275,0.8913,224.7059,2.6525,225.3287,4.4573,226.0607,6.2924,226.8686,8.023,227.415,9.9,228.3275,10.0174,228.445,9.0463,227.4738,8.418,226.8456,7.8316,226.2592,7.0018,225.4293,6.3,224.7275,6.3145,224.742,7.0132,224.0008,7.7779,223.3254,8.5107,222.6183,9.3042,221.9718,9.9,221.1275" style="stroke:#181818;stroke-width:0.9;"/><path d="M4.5,224.7275 L4.5,224.9798 L13.14,224.2304 L21.78,224.9595 L30.42,225.2072 L39.06,223.8715 L47.7,224.7275 " fill="none" style="stroke:#181818;stroke-width:0.9;stroke-dasharray:2.0,2.0;"/><!--SRC=[RP7FQiCm3CRlVWhJKtV82vGGA8DkfmqMMdROHJXA8khOGLPQqh5tNzpHpFrpipxfz-b33djoFJ1qkWLN7Pb4q6dX0LMOMvrtthJiExpjz63sq60feqNDQ2JfLLZ3O6NZdRp1X6vUz8wu8PlCX1OgVoJNw1fiGAKcMSXG3qxquZjoljwMFvyB3K6NksUTvz3tbWm8ULSKLy1waFRqWGq5uJ42yplF1o5BCZuWFDFfx5OY7yXW1AD-AMytggmu9rafC48748obKb6RMlFEbOO7xikdV-mogcOc-_D-ZAeAxz7BsZJnIgCB0sFKq4cCZjKs8Bz2MBlnlLwojnYI90cjbFEJmjIqedrzOrnFluP7p_ilHrrliPlypncLIWUp-KP9vgibUPRTJyGx_W80]--></g></svg>