<?xml version="1.0" encoding="us-ascii" standalone="no"?><svg xmlns="http://www.w3.org/2000/svg" xmlns:xlink="http://www.w3.org/1999/xlink" contentStyleType="text/css" height="513.6px" preserveAspectRatio="none" style="width:814px;height:513px;background:#FFFFFF;" version="1.1" viewBox="0 0 814 513" width="814.2px" zoomAndPan="magnify"><defs/><g><polygon fill="#FFFFFF" points="117.9,70.1473,117.9,70.1893,119.1,70.0644,120.3,70.1859,121.5,70.2272,122.7,70.0046,123.9,70.1473,123.8845,70.1473,123.8147,73.9022,123.8233,77.6571,123.8864,81.412,123.7617,85.167,123.9,88.9219,123.9,89.0326,122.7,88.7958,121.5,88.8823,120.3,89.0083,119.1,88.9047,117.9,88.9219,117.9136,88.9219,117.8936,85.167,117.9357,81.412,117.9478,77.6571,118.0171,73.9022,117.9,70.1473" style="stroke:#181818;stroke-width:0.6;"/><polygon fill="#FFFFFF" points="117.9,118.0711,117.9,118.1131,119.1,117.9882,120.3,118.1098,121.5,118.151,122.7,117.9284,123.9,118.0711,123.8534,118.0711,123.6441,124.0553,123.6699,130.0396,123.8591,136.0238,123.4852,142.0081,124.2322,147.9923,123.5218,153.9765,123.7813,159.9608,124.1592,165.945,123.8485,171.9293,123.9409,177.9135,123.8808,183.8978,124.0071,189.882,124.0435,195.8662,124.2514,201.8505,124.3026,207.8347,124.3076,213.819,124.0528,219.8032,124.1782,225.7875,124.3213,231.7717,123.4673,237.7559,124.3071,243.7402,123.7221,249.7244,124.2203,255.7087,123.603,261.6929,123.8589,267.6772,124.345,273.6614,123.8708,279.6456,123.9632,285.6299,124.1032,291.6141,124.1497,297.5984,123.8977,303.5826,124.0723,309.5669,123.5565,315.5511,124.0706,321.5353,124.2289,327.5196,124.1667,333.5038,124.2678,339.4881,123.6102,345.4723,123.5087,351.4565,123.5272,357.4408,123.8647,363.425,123.7821,369.4093,124.3088,375.3935,123.7952,381.3778,123.6942,387.362,124.037,393.3462,123.4999,399.3305,123.5885,405.3147,124.2894,411.299,124.1614,417.2832,124.3407,423.2675,123.7069,429.2517,124.0915,435.2359,124.2543,441.2202,123.6166,447.2044,123.9,453.1887,123.9,453.1695,122.7,453.2139,121.5,453.319,120.3,453.1878,119.1,453.2812,117.9,453.1887,117.5677,453.1887,117.4936,447.2044,118.2022,441.2202,117.4698,435.2359,118.2054,429.2517,118.024,423.2675,117.7392,417.2832,117.6877,411.299,118.1753,405.3147,117.7204,399.3305,118.2551,393.3462,117.5684,387.362,118.2705,381.3778,118.1906,375.3935,118.047,369.4093,117.9283,363.425,118.336,357.4408,118.2681,351.4565,118.0016,345.4723,118.0609,339.4881,117.8218,333.5038,118.3299,327.5196,117.9929,321.5353,118.0035,315.5511,117.535,309.5669,117.6569,303.5826,118.2184,297.5984,118.1579,291.6141,117.8742,285.6299,117.7067,279.6456,117.7686,273.6614,117.4883,267.6772,118.1488,261.6929,118.3437,255.7087,118.2158,249.7244,118.317,243.7402,117.818,237.7559,117.9523,231.7717,117.6674,225.7875,118.0704,219.8032,118.0481,213.819,118.2314,207.8347,117.7622,201.8505,117.8194,195.8662,118.1661,189.882,118.2404,183.8978,117.5925,177.9135,117.7837,171.9293,117.9896,165.945,117.5335,159.9608,118.112,153.9765,118.0548,147.9923,117.8395,142.0081,117.9853,136.0238,118.3372,130.0396,117.7123,124.0553,117.9,118.0711" style="stroke:#181818;stroke-width:0.6;"/><polygon fill="#FFFFFF" points="222.9,147.2203,222.9,147.2623,224.1,147.1374,225.3,147.259,226.5,147.3002,227.7,147.0776,228.9,147.2203,228.8534,147.2203,228.6441,153.2035,228.6699,159.1867,228.8591,165.1699,228.4852,171.1531,229.2322,177.1363,228.5218,183.1195,228.7813,189.1027,229.1592,195.0859,228.8485,201.0691,228.9409,207.0523,228.8808,213.0355,229.0071,219.0187,229.0435,225.002,229.2514,230.9852,229.3026,236.9684,229.3076,242.9516,229.0528,248.9348,229.1782,254.918,229.3213,260.9012,228.4673,266.8844,229.3071,272.8676,228.7221,278.8508,229.2203,284.834,228.603,290.8172,228.8589,296.8004,229.345,302.7836,228.8708,308.7668,228.9632,314.75,229.1032,320.7332,229.1497,326.7164,228.8977,332.6996,229.0723,338.6828,228.5565,344.666,229.0706,350.6492,229.2289,356.6324,229.1667,362.6156,229.2678,368.5988,228.6102,374.582,228.5087,380.5652,228.5272,386.5484,228.8647,392.5316,228.7821,398.5148,229.3088,404.498,228.7952,410.4813,228.6942,416.4645,229.037,422.4477,228.4999,428.4309,228.9,434.4141,228.9,434.3102,227.7,434.5439,226.5,434.5012,225.3,434.561,224.1,434.3497,222.9,434.4141,223.0915,434.4141,223.2543,428.4309,222.6166,422.4477,222.8425,416.4645,222.9756,410.4813,223.2911,404.498,222.8975,398.5148,223.1775,392.5316,222.5677,386.5484,222.4936,380.5652,223.2022,374.582,222.4698,368.5988,223.2054,362.6156,223.024,356.6324,222.7392,350.6492,222.6877,344.666,223.1753,338.6828,222.7204,332.6996,223.2551,326.7164,222.5684,320.7332,223.2705,314.75,223.1906,308.7668,223.047,302.7836,222.9283,296.8004,223.336,290.8172,223.2681,284.834,223.0016,278.8508,223.0609,272.8676,222.8218,266.8844,223.3299,260.9012,222.9929,254.918,223.0035,248.9348,222.535,242.9516,222.6569,236.9684,223.2184,230.9852,223.1579,225.002,222.8742,219.0187,222.7067,213.0355,222.7686,207.0523,222.4883,201.0691,223.1488,195.0859,223.3437,189.1027,223.2158,183.1195,223.317,177.1363,222.818,171.1531,222.9523,165.1699,222.6674,159.1867,223.0704,153.2035,222.9,147.2203" style="stroke:#181818;stroke-width:0.6;"/><polygon fill="#FFFFFF" points="324.6,165.9949,324.6,166.037,325.8,165.9121,327,166.0336,328.2,166.0749,329.4,165.8522,330.6,165.9949,330.5845,165.9949,330.5147,169.7498,330.5233,173.5048,330.5864,177.2597,330.4617,181.0146,330.6,184.7695,330.6,184.8803,329.4,184.6435,328.2,184.73,327,184.8559,325.8,184.7524,324.6,184.7695,324.6136,184.7695,324.5936,181.0146,324.6357,177.2597,324.6478,173.5048,324.7171,169.7498,324.6,165.9949" style="stroke:#181818;stroke-width:0.6;"/><polygon fill="#FFFFFF" points="406.2,213.9188,406.2,213.9608,407.4,213.8359,408.6,213.9574,409.8,213.9987,411,213.7761,412.2,213.9188,412.1534,213.9188,411.9441,219.8517,411.9699,225.7847,412.1591,231.7176,411.7852,237.6506,412.5322,243.5836,411.8218,249.5165,412.0813,255.4495,412.4592,261.3824,412.1485,267.3154,412.2409,273.2484,412.1808,279.1813,412.3071,285.1143,412.3435,291.0473,412.5514,296.9802,412.6026,302.9132,412.6076,308.8461,412.3528,314.7791,412.4782,320.7121,412.6213,326.645,411.7673,332.578,412.6071,338.5109,412.0221,344.4439,412.5203,350.3769,411.903,356.3098,412.1589,362.2428,412.645,368.1758,412.1708,374.1087,412.2632,380.0417,412.4032,385.9746,412.4497,391.9076,412.1977,397.8406,412.3723,403.7735,411.8565,409.7065,412.2,415.6395,412.2,415.6963,411,415.7491,409.8,415.7284,408.6,415.7621,407.4,415.5428,406.2,415.6395,405.8087,415.6395,405.8272,409.7065,406.1647,403.7735,406.0821,397.8406,406.6088,391.9076,406.0952,385.9746,405.9942,380.0417,406.337,374.1087,405.7999,368.1758,405.8885,362.2428,406.5894,356.3098,406.4614,350.3769,406.6407,344.4439,406.0069,338.5109,406.3915,332.578,406.5543,326.645,405.9166,320.7121,406.1425,314.7791,406.2756,308.8461,406.5911,302.9132,406.1975,296.9802,406.4775,291.0473,405.8677,285.1143,405.7936,279.1813,406.5022,273.2484,405.7698,267.3154,406.5054,261.3824,406.324,255.4495,406.0392,249.5165,405.9877,243.5836,406.4753,237.6506,406.0204,231.7176,406.5551,225.7847,405.8684,219.8517,406.2,213.9188" style="stroke:#181818;stroke-width:0.6;"/><polygon fill="#FFFFFF" points="520.8,340.541,520.8,340.5831,522,340.4582,523.2,340.5797,524.4,340.621,525.6,340.3983,526.8,340.541,526.7534,340.541,526.5441,346.7992,526.5699,353.0574,526.7591,359.3156,526.3852,365.5738,527.1322,371.832,526.4218,378.0902,526.6813,384.3484,527.0592,390.6066,526.8,396.8648,526.8,396.8477,525.6,396.8785,524.4,396.8585,523.2,396.9005,522,396.9127,520.8,396.8648,521.1514,396.8648,521.2026,390.6066,521.2076,384.3484,520.9528,378.0902,521.0782,371.832,521.2213,365.5738,520.3673,359.3156,521.2071,353.0574,520.6221,346.7992,520.8,340.541" style="stroke:#181818;stroke-width:0.6;"/><polygon fill="#FFFFFF" points="603,255.068,603,255.11,604.2,254.9851,605.4,255.1066,606.6,255.1479,607.8,254.9253,609,255.068,608.9845,255.068,608.9147,258.8229,608.9233,262.5778,608.9864,266.3327,608.8617,270.0877,609,273.8426,609,273.9533,607.8,273.7165,606.6,273.803,605.4,273.929,604.2,273.8254,603,273.8426,603.0136,273.8426,602.9936,270.0877,603.0357,266.3327,603.0478,262.5778,603.1171,258.8229,603,255.068" style="stroke:#181818;stroke-width:0.6;"/><polygon fill="#FFFFFF" points="678.6,302.9918,678.6,303.0338,679.8,302.9089,681,303.0305,682.2,303.0717,683.4,302.8491,684.6,302.9918,684.5845,302.9918,684.5147,306.7467,684.5233,310.5016,684.5864,314.2566,684.4617,318.0115,684.6,321.7664,684.6,321.8771,683.4,321.6404,682.2,321.7269,681,321.8528,679.8,321.7493,678.6,321.7664,678.6136,321.7664,678.5936,318.0115,678.6357,314.2566,678.6478,310.5016,678.7171,306.7467,678.6,302.9918" style="stroke:#181818;stroke-width:0.6;"/><polygon fill="#FFFFFF" points="764.4,359.3156,764.4,359.3577,765.6,359.2328,766.8,359.3543,768,359.3956,769.2,359.1729,770.4,359.3156,770.3845,359.3156,770.3147,363.0705,770.3233,366.8255,770.3864,370.5804,770.2617,374.3353,770.4,378.0902,770.4,378.201,769.2,377.9642,768,378.0507,766.8,378.1766,765.6,378.0731,764.4,378.0902,764.4136,378.0902,764.3936,374.3353,764.4357,370.5804,764.4478,366.8255,764.5171,363.0705,764.4,359.3156" style="stroke:#181818;stroke-width:0.6;"/><path d="M13.2,50.1727 L13.3681,50.1727 L12.8685,56.17 L13.3546,62.1673 L13.5197,68.1647 L12.6293,74.162 L13.1378,80.1593 L12.8588,86.1567 L12.8932,92.154 L13.1455,98.1513 L12.6469,104.1487 L13.6429,110.146 L12.6958,116.1433 L13.0418,122.1407 L13.5456,128.138 L13.1314,134.1353 L13.2546,140.1327 L13.1744,146.13 L13.3428,152.1273 L13.3913,158.1247 L13.6686,164.122 L13.7368,170.1193 L13.7434,176.1167 L13.4037,182.114 L13.5709,188.1113 L13.7618,194.1087 L12.6231,200.106 L13.7428,206.1033 L12.9628,212.1007 L13.627,218.098 L12.804,224.0953 L13.1452,230.0927 L13.7933,236.09 L13.161,242.0873 L13.2842,248.0847 L13.4709,254.082 L13.533,260.0793 L13.1969,266.0767 L13.4298,272.074 L12.7421,278.0713 L13.4275,284.0687 L13.6386,290.066 L13.5556,296.0633 L13.6904,302.0607 L12.8135,308.058 L12.6783,314.0553 L12.7029,320.0527 L13.1529,326.05 L13.0428,332.0473 L13.7451,338.0447 L13.0603,344.042 L12.9256,350.0393 L13.3826,356.0367 L12.6665,362.034 L12.7847,368.0313 L13.7192,374.0287 L13.5485,380.026 L13.7876,386.0233 L12.9426,392.0207 L13.4554,398.018 L13.6723,404.0153 L12.8221,410.0127 L13.1233,416.01 L13.3008,422.0073 L13.7214,428.0047 L13.1966,434.002 L13.5701,439.9993 L12.757,445.9967 L12.6582,451.994 L13.6029,457.9913 L13.2,463.9887 " fill="none" style="stroke:#181818;stroke-width:0.3;stroke-dasharray:5.0,5.0;"/><path d="M120.6,50.1727 L120.7681,50.1727 L120.2685,56.17 L120.7546,62.1673 L120.9197,68.1647 L120.0293,74.162 L120.5378,80.1593 L120.2588,86.1567 L120.2932,92.154 L120.5455,98.1513 L120.0469,104.1487 L121.0429,110.146 L120.0958,116.1433 L120.4418,122.1407 L120.9456,128.138 L120.5314,134.1353 L120.6546,140.1327 L120.5744,146.13 L120.7428,152.1273 L120.7913,158.1247 L121.0686,164.122 L121.1368,170.1193 L121.1434,176.1167 L120.8037,182.114 L120.9709,188.1113 L121.1618,194.1087 L120.0231,200.106 L121.1428,206.1033 L120.3628,212.1007 L121.027,218.098 L120.204,224.0953 L120.5452,230.0927 L121.1933,236.09 L120.561,242.0873 L120.6842,248.0847 L120.8709,254.082 L120.933,260.0793 L120.5969,266.0767 L120.8298,272.074 L120.1421,278.0713 L120.8275,284.0687 L121.0386,290.066 L120.9556,296.0633 L121.0904,302.0607 L120.2135,308.058 L120.0783,314.0553 L120.1029,320.0527 L120.5529,326.05 L120.4428,332.0473 L121.1451,338.0447 L120.4603,344.042 L120.3256,350.0393 L120.7826,356.0367 L120.0665,362.034 L120.1847,368.0313 L121.1192,374.0287 L120.9485,380.026 L121.1876,386.0233 L120.3426,392.0207 L120.8554,398.018 L121.0723,404.0153 L120.2221,410.0127 L120.5233,416.01 L120.7008,422.0073 L121.1214,428.0047 L120.5966,434.002 L120.9701,439.9993 L120.157,445.9967 L120.0582,451.994 L121.0029,457.9913 L120.6,463.9887 " fill="none" style="stroke:#181818;stroke-width:0.3;stroke-dasharray:5.0,5.0;"/><path d="M225.9,50.1727 L226.0681,50.1727 L225.5685,56.17 L226.0546,62.1673 L226.2197,68.1647 L225.3293,74.162 L225.8378,80.1593 L225.5588,86.1567 L225.5932,92.154 L225.8455,98.1513 L225.3469,104.1487 L226.3429,110.146 L225.3958,116.1433 L225.7418,122.1407 L226.2456,128.138 L225.8314,134.1353 L225.9546,140.1327 L225.8744,146.13 L226.0428,152.1273 L226.0913,158.1247 L226.3686,164.122 L226.4368,170.1193 L226.4434,176.1167 L226.1037,182.114 L226.2709,188.1113 L226.4618,194.1087 L225.3231,200.106 L226.4428,206.1033 L225.6628,212.1007 L226.327,218.098 L225.504,224.0953 L225.8452,230.0927 L226.4933,236.09 L225.861,242.0873 L225.9842,248.0847 L226.1709,254.082 L226.233,260.0793 L225.8969,266.0767 L226.1298,272.074 L225.4421,278.0713 L226.1275,284.0687 L226.3386,290.066 L226.2556,296.0633 L226.3904,302.0607 L225.5135,308.058 L225.3783,314.0553 L225.4029,320.0527 L225.8529,326.05 L225.7428,332.0473 L226.4451,338.0447 L225.7603,344.042 L225.6256,350.0393 L226.0826,356.0367 L225.3665,362.034 L225.4847,368.0313 L226.4192,374.0287 L226.2485,380.026 L226.4876,386.0233 L225.6426,392.0207 L226.1554,398.018 L226.3723,404.0153 L225.5221,410.0127 L225.8233,416.01 L226.0008,422.0073 L226.4214,428.0047 L225.8966,434.002 L226.2701,439.9993 L225.457,445.9967 L225.3582,451.994 L226.3029,457.9913 L225.9,463.9887 " fill="none" style="stroke:#181818;stroke-width:0.3;stroke-dasharray:5.0,5.0;"/><path d="M327.3,50.1727 L327.4681,50.1727 L326.9685,56.17 L327.4546,62.1673 L327.6197,68.1647 L326.7293,74.162 L327.2378,80.1593 L326.9588,86.1567 L326.9932,92.154 L327.2455,98.1513 L326.7469,104.1487 L327.7429,110.146 L326.7958,116.1433 L327.1418,122.1407 L327.6456,128.138 L327.2314,134.1353 L327.3546,140.1327 L327.2744,146.13 L327.4428,152.1273 L327.4913,158.1247 L327.7686,164.122 L327.8368,170.1193 L327.8434,176.1167 L327.5037,182.114 L327.6709,188.1113 L327.8618,194.1087 L326.7231,200.106 L327.8428,206.1033 L327.0628,212.1007 L327.727,218.098 L326.904,224.0953 L327.2452,230.0927 L327.8933,236.09 L327.261,242.0873 L327.3842,248.0847 L327.5709,254.082 L327.633,260.0793 L327.2969,266.0767 L327.5298,272.074 L326.8421,278.0713 L327.5275,284.0687 L327.7386,290.066 L327.6556,296.0633 L327.7904,302.0607 L326.9135,308.058 L326.7783,314.0553 L326.8029,320.0527 L327.2529,326.05 L327.1428,332.0473 L327.8451,338.0447 L327.1603,344.042 L327.0256,350.0393 L327.4826,356.0367 L326.7665,362.034 L326.8847,368.0313 L327.8192,374.0287 L327.6485,380.026 L327.8876,386.0233 L327.0426,392.0207 L327.5554,398.018 L327.7723,404.0153 L326.9221,410.0127 L327.2233,416.01 L327.4008,422.0073 L327.8214,428.0047 L327.2966,434.002 L327.6701,439.9993 L326.857,445.9967 L326.7582,451.994 L327.7029,457.9913 L327.3,463.9887 " fill="none" style="stroke:#181818;stroke-width:0.3;stroke-dasharray:5.0,5.0;"/><path d="M408.9,50.1727 L409.0681,50.1727 L408.5685,56.17 L409.0546,62.1673 L409.2197,68.1647 L408.3293,74.162 L408.8378,80.1593 L408.5588,86.1567 L408.5932,92.154 L408.8455,98.1513 L408.3469,104.1487 L409.3429,110.146 L408.3958,116.1433 L408.7418,122.1407 L409.2456,128.138 L408.8314,134.1353 L408.9546,140.1327 L408.8744,146.13 L409.0428,152.1273 L409.0913,158.1247 L409.3686,164.122 L409.4368,170.1193 L409.4434,176.1167 L409.1037,182.114 L409.2709,188.1113 L409.4618,194.1087 L408.3231,200.106 L409.4428,206.1033 L408.6628,212.1007 L409.327,218.098 L408.504,224.0953 L408.8452,230.0927 L409.4933,236.09 L408.861,242.0873 L408.9842,248.0847 L409.1709,254.082 L409.233,260.0793 L408.8969,266.0767 L409.1298,272.074 L408.4421,278.0713 L409.1275,284.0687 L409.3386,290.066 L409.2556,296.0633 L409.3904,302.0607 L408.5135,308.058 L408.3783,314.0553 L408.4029,320.0527 L408.8529,326.05 L408.7428,332.0473 L409.4451,338.0447 L408.7603,344.042 L408.6256,350.0393 L409.0826,356.0367 L408.3665,362.034 L408.4847,368.0313 L409.4192,374.0287 L409.2485,380.026 L409.4876,386.0233 L408.6426,392.0207 L409.1554,398.018 L409.3723,404.0153 L408.5221,410.0127 L408.8233,416.01 L409.0008,422.0073 L409.4214,428.0047 L408.8966,434.002 L409.2701,439.9993 L408.457,445.9967 L408.3582,451.994 L409.3029,457.9913 L408.9,463.9887 " fill="none" style="stroke:#181818;stroke-width:0.3;stroke-dasharray:5.0,5.0;"/><path d="M523.5,50.1727 L523.6681,50.1727 L523.1685,56.17 L523.6546,62.1673 L523.8197,68.1647 L522.9293,74.162 L523.4378,80.1593 L523.1588,86.1567 L523.1932,92.154 L523.4455,98.1513 L522.9469,104.1487 L523.9429,110.146 L522.9958,116.1433 L523.3418,122.1407 L523.8456,128.138 L523.4314,134.1353 L523.5546,140.1327 L523.4744,146.13 L523.6428,152.1273 L523.6913,158.1247 L523.9686,164.122 L524.0368,170.1193 L524.0434,176.1167 L523.7037,182.114 L523.8709,188.1113 L524.0618,194.1087 L522.9231,200.106 L524.0428,206.1033 L523.2628,212.1007 L523.927,218.098 L523.104,224.0953 L523.4452,230.0927 L524.0933,236.09 L523.461,242.0873 L523.5842,248.0847 L523.7709,254.082 L523.833,260.0793 L523.4969,266.0767 L523.7298,272.074 L523.0421,278.0713 L523.7275,284.0687 L523.9386,290.066 L523.8556,296.0633 L523.9904,302.0607 L523.1135,308.058 L522.9783,314.0553 L523.0029,320.0527 L523.4529,326.05 L523.3428,332.0473 L524.0451,338.0447 L523.3603,344.042 L523.2256,350.0393 L523.6826,356.0367 L522.9665,362.034 L523.0847,368.0313 L524.0192,374.0287 L523.8485,380.026 L524.0876,386.0233 L523.2426,392.0207 L523.7554,398.018 L523.9723,404.0153 L523.1221,410.0127 L523.4233,416.01 L523.6008,422.0073 L524.0214,428.0047 L523.4966,434.002 L523.8701,439.9993 L523.057,445.9967 L522.9582,451.994 L523.9029,457.9913 L523.5,463.9887 " fill="none" style="stroke:#181818;stroke-width:0.3;stroke-dasharray:5.0,5.0;"/><path d="M605.7,50.1727 L605.8681,50.1727 L605.3685,56.17 L605.8546,62.1673 L606.0197,68.1647 L605.1293,74.162 L605.6378,80.1593 L605.3588,86.1567 L605.3932,92.154 L605.6455,98.1513 L605.1469,104.1487 L606.1429,110.146 L605.1958,116.1433 L605.5418,122.1407 L606.0456,128.138 L605.6314,134.1353 L605.7546,140.1327 L605.6744,146.13 L605.8428,152.1273 L605.8913,158.1247 L606.1686,164.122 L606.2368,170.1193 L606.2434,176.1167 L605.9037,182.114 L606.0709,188.1113 L606.2618,194.1087 L605.1231,200.106 L606.2428,206.1033 L605.4628,212.1007 L606.127,218.098 L605.304,224.0953 L605.6452,230.0927 L606.2933,236.09 L605.661,242.0873 L605.7842,248.0847 L605.9709,254.082 L606.033,260.0793 L605.6969,266.0767 L605.9298,272.074 L605.2421,278.0713 L605.9275,284.0687 L606.1386,290.066 L606.0556,296.0633 L606.1904,302.0607 L605.3135,308.058 L605.1783,314.0553 L605.2029,320.0527 L605.6529,326.05 L605.5428,332.0473 L606.2451,338.0447 L605.5603,344.042 L605.4256,350.0393 L605.8826,356.0367 L605.1665,362.034 L605.2847,368.0313 L606.2192,374.0287 L606.0485,380.026 L606.2876,386.0233 L605.4426,392.0207 L605.9554,398.018 L606.1723,404.0153 L605.3221,410.0127 L605.6233,416.01 L605.8008,422.0073 L606.2214,428.0047 L605.6966,434.002 L606.0701,439.9993 L605.257,445.9967 L605.1582,451.994 L606.1029,457.9913 L605.7,463.9887 " fill="none" style="stroke:#181818;stroke-width:0.3;stroke-dasharray:5.0,5.0;"/><path d="M681.3,50.1727 L681.4681,50.1727 L680.9685,56.17 L681.4546,62.1673 L681.6197,68.1647 L680.7293,74.162 L681.2378,80.1593 L680.9588,86.1567 L680.9932,92.154 L681.2455,98.1513 L680.7469,104.1487 L681.7429,110.146 L680.7958,116.1433 L681.1418,122.1407 L681.6456,128.138 L681.2314,134.1353 L681.3546,140.1327 L681.2744,146.13 L681.4428,152.1273 L681.4913,158.1247 L681.7686,164.122 L681.8368,170.1193 L681.8434,176.1167 L681.5037,182.114 L681.6709,188.1113 L681.8618,194.1087 L680.7231,200.106 L681.8428,206.1033 L681.0628,212.1007 L681.727,218.098 L680.904,224.0953 L681.2452,230.0927 L681.8933,236.09 L681.261,242.0873 L681.3842,248.0847 L681.5709,254.082 L681.633,260.0793 L681.2969,266.0767 L681.5298,272.074 L680.8421,278.0713 L681.5275,284.0687 L681.7386,290.066 L681.6556,296.0633 L681.7904,302.0607 L680.9135,308.058 L680.7783,314.0553 L680.8029,320.0527 L681.2529,326.05 L681.1428,332.0473 L681.8451,338.0447 L681.1603,344.042 L681.0256,350.0393 L681.4826,356.0367 L680.7665,362.034 L680.8847,368.0313 L681.8192,374.0287 L681.6485,380.026 L681.8876,386.0233 L681.0426,392.0207 L681.5554,398.018 L681.7723,404.0153 L680.9221,410.0127 L681.2233,416.01 L681.4008,422.0073 L681.8214,428.0047 L681.2966,434.002 L681.6701,439.9993 L680.857,445.9967 L680.7582,451.994 L681.7029,457.9913 L681.3,463.9887 " fill="none" style="stroke:#181818;stroke-width:0.3;stroke-dasharray:5.0,5.0;"/><path d="M767.1,50.1727 L767.2681,50.1727 L766.7685,56.17 L767.2546,62.1673 L767.4197,68.1647 L766.5293,74.162 L767.0378,80.1593 L766.7588,86.1567 L766.7932,92.154 L767.0455,98.1513 L766.5469,104.1487 L767.5429,110.146 L766.5958,116.1433 L766.9418,122.1407 L767.4456,128.138 L767.0314,134.1353 L767.1546,140.1327 L767.0744,146.13 L767.2428,152.1273 L767.2913,158.1247 L767.5686,164.122 L767.6368,170.1193 L767.6434,176.1167 L767.3037,182.114 L767.4709,188.1113 L767.6618,194.1087 L766.5231,200.106 L767.6428,206.1033 L766.8628,212.1007 L767.527,218.098 L766.704,224.0953 L767.0452,230.0927 L767.6933,236.09 L767.061,242.0873 L767.1842,248.0847 L767.3709,254.082 L767.433,260.0793 L767.0969,266.0767 L767.3298,272.074 L766.6421,278.0713 L767.3275,284.0687 L767.5386,290.066 L767.4556,296.0633 L767.5904,302.0607 L766.7135,308.058 L766.5783,314.0553 L766.6029,320.0527 L767.0529,326.05 L766.9428,332.0473 L767.6451,338.0447 L766.9603,344.042 L766.8256,350.0393 L767.2826,356.0367 L766.5665,362.034 L766.6847,368.0313 L767.6192,374.0287 L767.4485,380.026 L767.6876,386.0233 L766.8426,392.0207 L767.3554,398.018 L767.5723,404.0153 L766.7221,410.0127 L767.0233,416.01 L767.2008,422.0073 L767.6214,428.0047 L767.0966,434.002 L767.4701,439.9993 L766.657,445.9967 L766.5582,451.994 L767.5029,457.9913 L767.1,463.9887 " fill="none" style="stroke:#181818;stroke-width:0.3;stroke-dasharray:5.0,5.0;"/><text fill="#000000" font-family="FG Virgil" font-size="8.4" lengthAdjust="spacing" textLength="17.4" x="3" y="48.0645">User</text><polygon fill="#E3E3E3" points="18.3265,9.2675,17.6229,10.2289,16.7907,11.637,15.6005,12.586,14.3498,13.1049,13.3525,13.15,12.0708,12.501,10.8614,12.077,9.9434,11.2162,9.4619,10.2307,9.1764,9.446,8.8966,8.421,8.4425,7.539,8.7915,6.6779,9.0972,5.7346,10.2444,4.9885,11.0515,4.0205,12.0506,3.699,13.2382,3.4222,14.7613,3.5867,15.5955,3.9801,16.5653,4.1584,17.7446,5.3666,18.1557,6.6421,18.3343,7.5124,18.132,8.9465" style="stroke:#181818;stroke-width:0.3;"/><path d="M13.5,12.9 L13.6121,12.9 L13.279,16.14 L13.6031,19.38 L13.7132,22.62 L13.1195,25.86 L13.5,29.1 M5.7,17.7 L5.7,17.6586 L8.82,17.4725 L11.94,17.4955 L15.06,17.6636 L18.18,17.3313 L21.3,17.7 M13.5,29.1 L13.7231,29.2934 L11.686,30.6798 L10.3003,32.6309 L8.9941,34.6509 L7.2254,36.27 L5.7,38.1 M13.5,29.1 L13.5275,29.1238 L15.0471,30.8888 L16.692,32.7624 L18.2764,34.5835 L19.9761,36.5046 L21.3,38.1 " fill="none" style="stroke:#181818;stroke-width:0.3;"/><text fill="#000000" font-family="FG Virgil" font-size="8.4" lengthAdjust="spacing" textLength="17.4" x="3" y="472.4531">User</text><polygon fill="#E3E3E3" points="18.3265,480.8289,17.6229,481.7903,16.7907,483.1984,15.6005,484.1473,14.3498,484.6662,13.3525,484.7113,12.0708,484.0623,10.8614,483.6383,9.9434,482.7775,9.4619,481.792,9.1764,481.0073,8.8966,479.9824,8.4425,479.1004,8.7915,478.2392,9.0972,477.2959,10.2444,476.5498,11.0515,475.5818,12.0506,475.2604,13.2382,474.9835,14.7613,475.148,15.5955,475.5414,16.5653,475.7197,17.7446,476.9279,18.1557,478.2034,18.3343,479.0737,18.132,480.5078" style="stroke:#181818;stroke-width:0.3;"/><path d="M13.5,484.4613 L13.6121,484.4613 L13.279,487.7013 L13.6031,490.9413 L13.7132,494.1813 L13.1195,497.4213 L13.5,500.6613 M5.7,489.2613 L5.7,489.2199 L8.82,489.0339 L11.94,489.0568 L15.06,489.225 L18.18,488.8926 L21.3,489.2613 M13.5,500.6613 L13.7231,500.8547 L11.686,502.2412 L10.3003,504.1922 L8.9941,506.2122 L7.2254,507.8314 L5.7,509.6613 M13.5,500.6613 L13.5275,500.6852 L15.0471,502.4502 L16.692,504.3237 L18.2764,506.1449 L19.9761,508.0659 L21.3,509.6613 " fill="none" style="stroke:#181818;stroke-width:0.3;"/><polygon fill="#E3E3E3" points="89.7,18.8273,89.7,18.9535,95.94,18.5788,102.18,18.9433,108.42,19.0672,114.66,18.3993,120.9,18.7807,127.14,18.5714,133.38,18.5972,139.62,18.7864,145.86,18.4125,152.1,18.8273,152.1424,18.9296,152.2639,18.7988,152.5091,18.9665,152.7695,19.1708,152.942,19.163,153.1607,19.2667,153.1733,19.2719,153.2426,19.4764,153.3694,19.7046,153.4685,19.9214,153.6204,20.16,153.6,20.3273,154.0026,20.3273,154.0076,25.8764,153.7528,31.4255,153.8782,36.9745,154.0213,42.5236,153.6,48.0727,153.4667,48.0175,153.6375,48.3367,153.3695,48.4742,153.435,48.7499,153.1571,48.8833,153.1607,49.1333,153.1554,49.1207,153.0053,49.3582,152.7327,49.3,152.5323,49.4164,152.338,49.5474,152.1,49.5727,152.1,49.8224,145.86,49.5703,139.62,49.745,133.38,49.2292,127.14,49.7433,120.9,49.9016,114.66,49.8394,108.42,49.9405,102.18,49.2828,95.94,49.1813,89.7,49.5727,89.6524,49.4578,89.4834,49.4739,89.2607,49.3606,89.1158,49.435,88.8381,49.1889,88.6393,49.1333,88.576,49.1071,88.5937,48.9387,88.3404,48.658,88.2798,48.4572,88.4078,48.3345,88.2,48.0727,88.4614,48.0727,88.6407,42.5236,88.0069,36.9745,88.3915,31.4255,88.5543,25.8764,88.2,20.3273,88.1127,20.2912,88.2702,20.1079,88.399,19.9127,88.584,19.7408,88.5507,19.4785,88.6393,19.2667,88.6747,19.3522,88.8091,19.0765,89.0118,18.9658,89.3143,19.0961,89.433,18.7827,89.7,18.8273" style="stroke:#181818;stroke-width:0.3;"/><text fill="#000000" font-family="FG Virgil" font-size="8.4" font-style="italic" lengthAdjust="spacing" textLength="57" x="92.4" y="32.0918">&#171;presentation&#187;</text><text fill="#000000" font-family="FG Virgil" font-size="8.4" lengthAdjust="spacing" textLength="28.2" x="106.8" y="43.2645">LoginUI</text><polygon fill="#E3E3E3" points="89.7,463.3887,89.7,463.5148,95.94,463.1401,102.18,463.5046,108.42,463.6285,114.66,462.9606,120.9,463.342,127.14,463.1328,133.38,463.1586,139.62,463.3478,145.86,462.9739,152.1,463.3887,152.1424,463.491,152.2639,463.3601,152.5091,463.5279,152.7695,463.7321,152.942,463.7243,153.1607,463.828,153.1733,463.8332,153.2426,464.0377,153.3694,464.2659,153.4685,464.4827,153.6204,464.7214,153.6,464.8887,154.0026,464.8887,154.0076,470.4377,153.7528,475.9868,153.8782,481.5359,154.0213,487.0849,153.6,492.634,153.4667,492.5788,153.6375,492.898,153.3695,493.0356,153.435,493.3112,153.1571,493.4446,153.1607,493.6946,153.1554,493.682,153.0053,493.9195,152.7327,493.8614,152.5323,493.9777,152.338,494.1087,152.1,494.134,152.1,494.3837,145.86,494.1316,139.62,494.3063,133.38,493.7905,127.14,494.3046,120.9,494.4629,114.66,494.4007,108.42,494.5018,102.18,493.8441,95.94,493.7427,89.7,494.134,89.6524,494.0192,89.4834,494.0352,89.2607,493.9219,89.1158,493.9963,88.8381,493.7502,88.6393,493.6946,88.576,493.6684,88.5937,493.5,88.3404,493.2193,88.2798,493.0185,88.4078,492.8958,88.2,492.634,88.4614,492.634,88.6407,487.0849,88.0069,481.5359,88.3915,475.9868,88.5543,470.4377,88.2,464.8887,88.1127,464.8525,88.2702,464.6692,88.399,464.4741,88.584,464.3022,88.5507,464.0398,88.6393,463.828,88.6747,463.9135,88.8091,463.6378,89.0118,463.5271,89.3143,463.6575,89.433,463.3441,89.7,463.3887" style="stroke:#181818;stroke-width:0.3;"/><text fill="#000000" font-family="FG Virgil" font-size="8.4" font-style="italic" lengthAdjust="spacing" textLength="57" x="92.4" y="476.6531">&#171;presentation&#187;</text><text fill="#000000" font-family="FG Virgil" font-size="8.4" lengthAdjust="spacing" textLength="28.2" x="106.8" y="487.8258">LoginUI</text><polygon fill="#E3E3E3" points="162,18.8273,162,18.9535,168.0857,18.5788,174.1714,18.9433,180.2571,19.0672,186.3429,18.3993,192.4286,18.7807,198.5143,18.5714,204.6,18.5972,210.6857,18.7864,216.7714,18.4125,222.8571,19.1595,228.9429,18.4492,235.0286,18.7087,241.1143,19.0865,247.2,18.7759,253.2857,18.8683,259.3714,18.8082,265.4571,18.9345,271.5429,18.9708,277.6286,19.1788,283.7143,19.23,289.8,18.8273,289.852,18.9529,290.0316,18.9623,290.2597,19.0887,290.4901,19.2207,290.5933,19.0456,290.8607,19.2667,290.986,19.3186,290.8937,19.4561,291.135,19.7318,291.0328,19.8652,291.1995,20.11,291.3,20.3273,291.745,20.3273,291.2708,25.8764,291.3632,31.4255,291.5032,36.9745,291.5497,42.5236,291.3,48.0727,291.2993,48.0724,291.2652,48.3068,291.0185,48.4531,291.0889,48.7308,291.0498,48.9631,290.8607,49.1333,290.8947,49.2155,290.6954,49.3345,290.3994,49.2198,290.1743,49.2764,289.9646,49.37,289.8,49.5727,289.8,49.5373,283.7143,49.4547,277.6286,49.9815,271.5429,49.4678,265.4571,49.3668,259.3714,49.7096,253.2857,49.1726,247.2,49.2612,241.1143,49.962,235.0286,49.8341,228.9429,50.0134,222.8571,49.3796,216.7714,49.7642,210.6857,49.9269,204.6,49.2892,198.5143,49.5151,192.4286,49.6482,186.3429,49.9637,180.2571,49.5701,174.1714,49.8502,168.0857,49.2404,162,49.5727,161.9482,49.4475,161.8264,49.5778,161.5209,49.2644,161.4026,49.4031,161.1673,49.2594,160.9393,49.1333,160.8898,49.1128,160.7861,48.8941,160.8484,48.7442,160.6204,48.474,160.6972,48.3301,160.5,48.0727,160.1684,48.0727,160.8705,42.5236,160.7906,36.9745,160.647,31.4255,160.5283,25.8764,160.5,20.3273,160.6343,20.383,160.7012,20.1622,160.707,19.916,160.8132,19.7115,160.8274,19.4688,160.9393,19.2667,160.9942,19.3991,161.1633,19.2074,161.3768,19.1228,161.5292,18.8907,161.7569,18.8403,162,18.8273" style="stroke:#181818;stroke-width:0.3;"/><text fill="#000000" font-family="FG Virgil" font-size="8.4" font-style="italic" lengthAdjust="spacing" textLength="50.4" x="200.7" y="32.0918">&#171;application&#187;</text><text fill="#000000" font-family="FG Virgil" font-size="8.4" lengthAdjust="spacing" textLength="122.4" x="164.7" y="43.2645">AuthenticationCredentialHandler</text><polygon fill="#E3E3E3" points="162,463.3887,162,463.5148,168.0857,463.1401,174.1714,463.5046,180.2571,463.6285,186.3429,462.9606,192.4286,463.342,198.5143,463.1328,204.6,463.1586,210.6857,463.3478,216.7714,462.9739,222.8571,463.7209,228.9429,463.0105,235.0286,463.27,241.1143,463.6478,247.2,463.3372,253.2857,463.4296,259.3714,463.3695,265.4571,463.4958,271.5429,463.5322,277.6286,463.7401,283.7143,463.7913,289.8,463.3887,289.852,463.5142,290.0316,463.5236,290.2597,463.6501,290.4901,463.782,290.5933,463.6069,290.8607,463.828,290.986,463.8799,290.8937,464.0175,291.135,464.2931,291.0328,464.4265,291.1995,464.6713,291.3,464.8887,291.745,464.8887,291.2708,470.4377,291.3632,475.9868,291.5032,481.5359,291.5497,487.0849,291.3,492.634,291.2993,492.6337,291.2652,492.8681,291.0185,493.0144,291.0889,493.2921,291.0498,493.5245,290.8607,493.6946,290.8947,493.7768,290.6954,493.8958,290.3994,493.7811,290.1743,493.8377,289.9646,493.9313,289.8,494.134,289.8,494.0987,283.7143,494.0161,277.6286,494.5428,271.5429,494.0292,265.4571,493.9282,259.3714,494.2709,253.2857,493.7339,247.2,493.8225,241.1143,494.5234,235.0286,494.3954,228.9429,494.5747,222.8571,493.9409,216.7714,494.3255,210.6857,494.4882,204.6,493.8505,198.5143,494.0765,192.4286,494.2096,186.3429,494.525,180.2571,494.1315,174.1714,494.4115,168.0857,493.8017,162,494.134,161.9482,494.0088,161.8264,494.1392,161.5209,493.8258,161.4026,493.9644,161.1673,493.8207,160.9393,493.6946,160.8898,493.6741,160.7861,493.4554,160.8484,493.3055,160.6204,493.0353,160.6972,492.8914,160.5,492.634,160.1684,492.634,160.8705,487.0849,160.7906,481.5359,160.647,475.9868,160.5283,470.4377,160.5,464.8887,160.6343,464.9443,160.7012,464.7235,160.707,464.4774,160.8132,464.2728,160.8274,464.0302,160.9393,463.828,160.9942,463.9604,161.1633,463.7688,161.3768,463.6842,161.5292,463.452,161.7569,463.4017,162,463.3887" style="stroke:#181818;stroke-width:0.3;"/><text fill="#000000" font-family="FG Virgil" font-size="8.4" font-style="italic" lengthAdjust="spacing" textLength="50.4" x="200.7" y="476.6531">&#171;application&#187;</text><text fill="#000000" font-family="FG Virgil" font-size="8.4" lengthAdjust="spacing" textLength="122.4" x="164.7" y="487.8258">AuthenticationCredentialHandler</text><polygon fill="#E3E3E3" points="298.8,18.8273,298.8,18.9535,304.56,18.5788,310.32,18.9433,316.08,19.0672,321.84,18.3993,327.6,18.7807,333.36,18.5714,339.12,18.5972,344.88,18.7864,350.64,18.4125,356.4,18.8273,356.4424,18.9296,356.5639,18.7988,356.8091,18.9665,357.0695,19.1708,357.242,19.163,357.4607,19.2667,357.4733,19.2719,357.5426,19.4764,357.6694,19.7046,357.7685,19.9214,357.9204,20.16,357.9,20.3273,358.3026,20.3273,358.3076,25.8764,358.0528,31.4255,358.1782,36.9745,358.3213,42.5236,357.9,48.0727,357.7667,48.0175,357.9375,48.3367,357.6695,48.4742,357.735,48.7499,357.4571,48.8833,357.4607,49.1333,357.4554,49.1207,357.3053,49.3582,357.0327,49.3,356.8323,49.4164,356.638,49.5474,356.4,49.5727,356.4,49.8224,350.64,49.5703,344.88,49.745,339.12,49.2292,333.36,49.7433,327.6,49.9016,321.84,49.8394,316.08,49.9405,310.32,49.2828,304.56,49.1813,298.8,49.5727,298.7524,49.4578,298.5834,49.4739,298.3607,49.3606,298.2158,49.435,297.9381,49.1889,297.7393,49.1333,297.676,49.1071,297.6937,48.9387,297.4404,48.658,297.3798,48.4572,297.5078,48.3345,297.3,48.0727,297.5614,48.0727,297.7407,42.5236,297.1069,36.9745,297.4915,31.4255,297.6543,25.8764,297.3,20.3273,297.2127,20.2912,297.3702,20.1079,297.499,19.9127,297.684,19.7408,297.6507,19.4785,297.7393,19.2667,297.7747,19.3522,297.9091,19.0765,298.1118,18.9658,298.4143,19.0961,298.533,18.7827,298.8,18.8273" style="stroke:#181818;stroke-width:0.3;"/><text fill="#000000" font-family="FG Virgil" font-size="8.4" font-style="italic" lengthAdjust="spacing" textLength="28.8" x="313.2" y="32.0918">&#171;utility&#187;</text><text fill="#000000" font-family="FG Virgil" font-size="8.4" lengthAdjust="spacing" textLength="52.2" x="301.5" y="43.2645">AuthzRegistry</text><polygon fill="#E3E3E3" points="298.8,463.3887,298.8,463.5148,304.56,463.1401,310.32,463.5046,316.08,463.6285,321.84,462.9606,327.6,463.342,333.36,463.1328,339.12,463.1586,344.88,463.3478,350.64,462.9739,356.4,463.3887,356.4424,463.491,356.5639,463.3601,356.8091,463.5279,357.0695,463.7321,357.242,463.7243,357.4607,463.828,357.4733,463.8332,357.5426,464.0377,357.6694,464.2659,357.7685,464.4827,357.9204,464.7214,357.9,464.8887,358.3026,464.8887,358.3076,470.4377,358.0528,475.9868,358.1782,481.5359,358.3213,487.0849,357.9,492.634,357.7667,492.5788,357.9375,492.898,357.6695,493.0356,357.735,493.3112,357.4571,493.4446,357.4607,493.6946,357.4554,493.682,357.3053,493.9195,357.0327,493.8614,356.8323,493.9777,356.638,494.1087,356.4,494.134,356.4,494.3837,350.64,494.1316,344.88,494.3063,339.12,493.7905,333.36,494.3046,327.6,494.4629,321.84,494.4007,316.08,494.5018,310.32,493.8441,304.56,493.7427,298.8,494.134,298.7524,494.0192,298.5834,494.0352,298.3607,493.9219,298.2158,493.9963,297.9381,493.7502,297.7393,493.6946,297.676,493.6684,297.6937,493.5,297.4404,493.2193,297.3798,493.0185,297.5078,492.8958,297.3,492.634,297.5614,492.634,297.7407,487.0849,297.1069,481.5359,297.4915,475.9868,297.6543,470.4377,297.3,464.8887,297.2127,464.8525,297.3702,464.6692,297.499,464.4741,297.684,464.3022,297.6507,464.0398,297.7393,463.828,297.7747,463.9135,297.9091,463.6378,298.1118,463.5271,298.4143,463.6575,298.533,463.3441,298.8,463.3887" style="stroke:#181818;stroke-width:0.3;"/><text fill="#000000" font-family="FG Virgil" font-size="8.4" font-style="italic" lengthAdjust="spacing" textLength="28.8" x="313.2" y="476.6531">&#171;utility&#187;</text><text fill="#000000" font-family="FG Virgil" font-size="8.4" lengthAdjust="spacing" textLength="52.2" x="301.5" y="487.8258">AuthzRegistry</text><polygon fill="#E3E3E3" points="365.4,18.8273,365.4,18.9535,371.24,18.5788,377.08,18.9433,382.92,19.0672,388.76,18.3993,394.6,18.7807,400.44,18.5714,406.28,18.5972,412.12,18.7864,417.96,18.4125,423.8,19.1595,429.64,18.4492,435.48,18.7087,441.32,19.0865,447.16,18.7759,453,18.8273,453.0052,18.84,453.2097,18.9093,453.4379,19.0361,453.6547,19.1351,453.8934,19.287,454.0607,19.2667,454.1847,19.318,454.274,19.5308,454.2834,19.7104,454.4099,19.9386,454.5419,20.169,454.5,20.3273,454.0673,20.3273,454.9071,25.8764,454.3221,31.4255,454.8203,36.9745,454.203,42.5236,454.5,48.0727,454.4873,48.0674,454.5492,48.3415,454.3153,48.4932,454.2559,48.7171,454.2111,48.9471,454.0607,49.1333,454.0925,49.2102,453.8482,49.2205,453.6584,49.3621,453.3805,49.2912,453.2339,49.5373,453,49.5727,453,49.9016,447.16,49.8394,441.32,49.9405,435.48,49.2828,429.64,49.1813,423.8,49.1998,417.96,49.5373,412.12,49.4547,406.28,49.9815,400.44,49.4678,394.6,49.3668,388.76,49.7096,382.92,49.1726,377.08,49.2612,371.24,49.962,365.4,49.5727,365.4333,49.6532,365.2441,49.6205,364.9511,49.3375,364.788,49.368,364.5967,49.3303,364.3393,49.1333,364.2521,49.0972,364.2338,48.9138,364.1869,48.7187,364.1962,48.5468,363.9871,48.2845,363.9,48.0727,364.1775,48.0727,363.5677,42.5236,363.4936,36.9745,364.2022,31.4255,363.4698,25.8764,363.9,20.3273,363.994,20.3663,364.026,20.131,364.0262,19.8826,364.0982,19.6639,364.3362,19.5139,364.3393,19.2667,364.3164,19.2114,364.5968,19.2882,364.7213,18.9888,365.023,19.1172,365.2249,19.0047,365.4,18.8273" style="stroke:#181818;stroke-width:0.3;"/><text fill="#000000" font-family="FG Virgil" font-size="8.4" font-style="italic" lengthAdjust="spacing" textLength="50.4" x="384" y="32.0918">&#171;application&#187;</text><text fill="#000000" font-family="FG Virgil" font-size="8.4" lengthAdjust="spacing" textLength="82.2" x="368.1" y="43.2645">AuthenticationService</text><polygon fill="#E3E3E3" points="365.4,463.3887,365.4,463.5148,371.24,463.1401,377.08,463.5046,382.92,463.6285,388.76,462.9606,394.6,463.342,400.44,463.1328,406.28,463.1586,412.12,463.3478,417.96,462.9739,423.8,463.7209,429.64,463.0105,435.48,463.27,441.32,463.6478,447.16,463.3372,453,463.3887,453.0052,463.4013,453.2097,463.4706,453.4379,463.5974,453.6547,463.6965,453.8934,463.8484,454.0607,463.828,454.1847,463.8794,454.274,464.0921,454.2834,464.2718,454.4099,464.4999,454.5419,464.7303,454.5,464.8887,454.0673,464.8887,454.9071,470.4377,454.3221,475.9868,454.8203,481.5359,454.203,487.0849,454.5,492.634,454.4873,492.6287,454.5492,492.9029,454.3153,493.0545,454.2559,493.2784,454.2111,493.5084,454.0607,493.6946,454.0925,493.7716,453.8482,493.7818,453.6584,493.9235,453.3805,493.8525,453.2339,494.0987,453,494.134,453,494.4629,447.16,494.4007,441.32,494.5018,435.48,493.8441,429.64,493.7427,423.8,493.7611,417.96,494.0987,412.12,494.0161,406.28,494.5428,400.44,494.0292,394.6,493.9282,388.76,494.2709,382.92,493.7339,377.08,493.8225,371.24,494.5234,365.4,494.134,365.4333,494.2145,365.2441,494.1818,364.9511,493.8988,364.788,493.9294,364.5967,493.8916,364.3393,493.6946,364.2521,493.6585,364.2338,493.4752,364.1869,493.28,364.1962,493.1081,363.9871,492.8458,363.9,492.634,364.1775,492.634,363.5677,487.0849,363.4936,481.5359,364.2022,475.9868,363.4698,470.4377,363.9,464.8887,363.994,464.9276,364.026,464.6924,364.0262,464.4439,364.0982,464.2252,364.3362,464.0753,364.3393,463.828,364.3164,463.7727,364.5968,463.8495,364.7213,463.5501,365.023,463.6785,365.2249,463.566,365.4,463.3887" style="stroke:#181818;stroke-width:0.3;"/><text fill="#000000" font-family="FG Virgil" font-size="8.4" font-style="italic" lengthAdjust="spacing" textLength="50.4" x="384" y="476.6531">&#171;application&#187;</text><text fill="#000000" font-family="FG Virgil" font-size="8.4" lengthAdjust="spacing" textLength="82.2" x="368.1" y="487.8258">AuthenticationService</text><polygon fill="#E3E3E3" points="482.4,18.8273,482.4,18.9535,488.3143,18.5788,494.2286,18.9433,500.1429,19.0672,506.0571,18.3993,511.9714,18.7807,517.8857,18.5714,523.8,18.5972,529.7143,18.7864,535.6286,18.4125,541.5429,19.1595,547.4571,18.4492,553.3714,18.7087,559.2857,19.0865,565.2,18.8273,565.1934,18.8115,565.4174,18.9278,565.6218,18.9972,565.8501,19.1239,566.0668,19.223,566.2607,19.2667,566.3689,19.3115,566.4725,19.5302,566.5619,19.7429,566.5713,19.9226,566.6978,20.1507,566.7,20.3273,567.1213,20.3273,566.2673,25.8764,567.1071,31.4255,566.5221,36.9745,567.0203,42.5236,566.7,48.0727,566.6085,48.0348,566.5995,48.2795,566.6613,48.5537,566.4274,48.7053,566.368,48.9292,566.2607,49.1333,566.2866,49.1959,566.0804,49.2981,565.8361,49.3083,565.6462,49.45,565.3683,49.379,565.2,49.5727,565.2,49.7433,559.2857,49.9016,553.3714,49.8394,547.4571,49.9405,541.5429,49.2828,535.6286,49.1813,529.7143,49.1998,523.8,49.5373,517.8857,49.4547,511.9714,49.9815,506.0571,49.4678,500.1429,49.3668,494.2286,49.7096,488.3143,49.1726,482.4,49.5727,482.3603,49.4767,482.2375,49.6047,482.0091,49.4774,481.8198,49.4448,481.5268,49.1617,481.3393,49.1333,481.3983,49.1577,481.3606,48.9664,481.0763,48.6729,481.058,48.4896,481.0111,48.2944,480.9,48.0727,481.2911,48.0727,480.8975,42.5236,481.1775,36.9745,480.5677,31.4255,480.4936,25.8764,480.9,20.3273,480.9931,20.3659,480.8554,20.0603,481.1698,19.942,481.2018,19.7068,481.202,19.4583,481.3393,19.2667,481.3123,19.2013,481.5866,19.2636,481.7407,19.0356,482.021,19.1124,482.1456,18.8131,482.4,18.8273" style="stroke:#181818;stroke-width:0.3;"/><text fill="#000000" font-family="FG Virgil" font-size="8.4" font-style="italic" lengthAdjust="spacing" textLength="50.4" x="498.6" y="32.0918">&#171;application&#187;</text><text fill="#000000" font-family="FG Virgil" font-size="8.4" lengthAdjust="spacing" textLength="77.4" x="485.1" y="43.2645">AuthorizationService</text><polygon fill="#E3E3E3" points="482.4,463.3887,482.4,463.5148,488.3143,463.1401,494.2286,463.5046,500.1429,463.6285,506.0571,462.9606,511.9714,463.342,517.8857,463.1328,523.8,463.1586,529.7143,463.3478,535.6286,462.9739,541.5429,463.7209,547.4571,463.0105,553.3714,463.27,559.2857,463.6478,565.2,463.3887,565.1934,463.3728,565.4174,463.4891,565.6218,463.5585,565.8501,463.6853,566.0668,463.7843,566.2607,463.828,566.3689,463.8728,566.4725,464.0915,566.5619,464.3043,566.5713,464.4839,566.6978,464.712,566.7,464.8887,567.1213,464.8887,566.2673,470.4377,567.1071,475.9868,566.5221,481.5359,567.0203,487.0849,566.7,492.634,566.6085,492.5961,566.5995,492.8409,566.6613,493.115,566.4274,493.2667,566.368,493.4906,566.2607,493.6946,566.2866,493.7572,566.0804,493.8594,565.8361,493.8697,565.6462,494.0113,565.3683,493.9403,565.2,494.134,565.2,494.3046,559.2857,494.4629,553.3714,494.4007,547.4571,494.5018,541.5429,493.8441,535.6286,493.7427,529.7143,493.7611,523.8,494.0987,517.8857,494.0161,511.9714,494.5428,506.0571,494.0292,500.1429,493.9282,494.2286,494.2709,488.3143,493.7339,482.4,494.134,482.3603,494.0381,482.2375,494.166,482.0091,494.0387,481.8198,494.0061,481.5268,493.7231,481.3393,493.6946,481.3983,493.7191,481.3606,493.5277,481.0763,493.2342,481.058,493.0509,481.0111,492.8558,480.9,492.634,481.2911,492.634,480.8975,487.0849,481.1775,481.5359,480.5677,475.9868,480.4936,470.4377,480.9,464.8887,480.9931,464.9272,480.8554,464.6217,481.1698,464.5034,481.2018,464.2681,481.202,464.0196,481.3393,463.828,481.3123,463.7626,481.5866,463.8249,481.7407,463.597,482.021,463.6738,482.1456,463.3744,482.4,463.3887" style="stroke:#181818;stroke-width:0.3;"/><text fill="#000000" font-family="FG Virgil" font-size="8.4" font-style="italic" lengthAdjust="spacing" textLength="50.4" x="498.6" y="476.6531">&#171;application&#187;</text><text fill="#000000" font-family="FG Virgil" font-size="8.4" lengthAdjust="spacing" textLength="77.4" x="485.1" y="487.8258">AuthorizationService</text><polygon fill="#E3E3E3" points="574.2,18.8273,574.2,18.9535,579.9818,18.5788,585.7636,18.9433,591.5455,19.0672,597.3273,18.3993,603.1091,18.7807,608.8909,18.5714,614.6727,18.5972,620.4545,18.7864,626.2364,18.4125,632.0182,19.1595,637.8,18.8273,637.7518,18.7109,637.997,18.8787,638.2573,19.0829,638.4298,19.0751,638.6538,19.1914,638.8607,19.2667,638.8548,19.2642,638.9815,19.4925,639.0806,19.7093,639.2325,19.9479,639.3361,20.1666,639.3,20.3273,639.7076,20.3273,639.4528,25.8764,639.5782,31.4255,639.7213,36.9745,638.8673,42.5236,639.3,48.0727,639.4254,48.1246,639.1573,48.2621,639.2229,48.5378,638.9449,48.6712,638.9359,48.9159,638.8607,49.1333,638.9174,49.2703,638.6448,49.2122,638.4445,49.3285,638.2502,49.4595,638.044,49.5617,637.8,49.5727,637.8,49.5703,632.0182,49.745,626.2364,49.2292,620.4545,49.7433,614.6727,49.9016,608.8909,49.8394,603.1091,49.9405,597.3273,49.2828,591.5455,49.1813,585.7636,49.1998,579.9818,49.5373,574.2,49.5727,574.185,49.5363,574.04,49.6107,573.7624,49.3646,573.5373,49.2457,573.3689,49.2634,573.1393,49.1333,573.0161,49.0823,572.9556,48.8815,573.0835,48.7587,572.9562,48.5303,572.9236,48.341,572.7,48.0727,572.5069,48.0727,572.8915,42.5236,573.0543,36.9745,572.4166,31.4255,572.6425,25.8764,572.7,20.3273,572.7233,20.337,572.9083,20.1651,572.875,19.9028,573.0491,19.7264,572.9491,19.4364,573.1393,19.2667,573.0875,19.1415,573.39,19.2719,573.5087,18.9585,573.8147,19.0971,574.0037,18.9534,574.2,18.8273" style="stroke:#181818;stroke-width:0.3;"/><text fill="#000000" font-family="FG Virgil" font-size="8.4" font-style="italic" lengthAdjust="spacing" textLength="47.4" x="582.3" y="32.0918">&#171;repository&#187;</text><text fill="#000000" font-family="FG Virgil" font-size="8.4" lengthAdjust="spacing" textLength="58.2" x="576.9" y="43.2645">UserRepository</text><polygon fill="#E3E3E3" points="574.2,463.3887,574.2,463.5148,579.9818,463.1401,585.7636,463.5046,591.5455,463.6285,597.3273,462.9606,603.1091,463.342,608.8909,463.1328,614.6727,463.1586,620.4545,463.3478,626.2364,462.9739,632.0182,463.7209,637.8,463.3887,637.7518,463.2722,637.997,463.44,638.2573,463.6442,638.4298,463.6364,638.6538,463.7528,638.8607,463.828,638.8548,463.8256,638.9815,464.0538,639.0806,464.2706,639.2325,464.5092,639.3361,464.7279,639.3,464.8887,639.7076,464.8887,639.4528,470.4377,639.5782,475.9868,639.7213,481.5359,638.8673,487.0849,639.3,492.634,639.4254,492.6859,639.1573,492.8234,639.2229,493.0991,638.9449,493.2325,638.9359,493.4773,638.8607,493.6946,638.9174,493.8317,638.6448,493.7735,638.4445,493.8898,638.2502,494.0208,638.044,494.123,637.8,494.134,637.8,494.1316,632.0182,494.3063,626.2364,493.7905,620.4545,494.3046,614.6727,494.4629,608.8909,494.4007,603.1091,494.5018,597.3273,493.8441,591.5455,493.7427,585.7636,493.7611,579.9818,494.0987,574.2,494.134,574.185,494.0977,574.04,494.172,573.7624,493.926,573.5373,493.807,573.3689,493.8247,573.1393,493.6946,573.0161,493.6436,572.9556,493.4428,573.0835,493.32,572.9562,493.0916,572.9236,492.9023,572.7,492.634,572.5069,492.634,572.8915,487.0849,573.0543,481.5359,572.4166,475.9868,572.6425,470.4377,572.7,464.8887,572.7233,464.8983,572.9083,464.7264,572.875,464.4641,573.0491,464.2877,572.9491,463.9978,573.1393,463.828,573.0875,463.7029,573.39,463.8332,573.5087,463.5198,573.8147,463.6585,574.0037,463.5147,574.2,463.3887" style="stroke:#181818;stroke-width:0.3;"/><text fill="#000000" font-family="FG Virgil" font-size="8.4" font-style="italic" lengthAdjust="spacing" textLength="47.4" x="582.3" y="476.6531">&#171;repository&#187;</text><text fill="#000000" font-family="FG Virgil" font-size="8.4" lengthAdjust="spacing" textLength="58.2" x="576.9" y="487.8258">UserRepository</text><polygon fill="#E3E3E3" points="646.8,18.8273,646.8,18.9535,652.6,18.5788,658.4,18.9433,664.2,19.0672,670,18.3993,675.8,18.7807,681.6,18.5714,687.4,18.5972,693.2,18.7864,699,18.4125,704.8,19.1595,710.6,18.4492,716.4,18.8273,716.3849,18.7908,716.6452,18.995,716.8177,18.9872,717.0416,19.1036,717.2461,19.1729,717.4607,19.2667,717.4936,19.2803,717.5927,19.4971,717.7446,19.7358,717.8483,19.9544,717.9376,20.1672,717.9,20.3273,718.0528,20.3273,718.1782,25.8764,718.3213,31.4255,717.4673,36.9745,718.3071,42.5236,717.9,48.0727,717.8452,48.05,717.9108,48.3256,717.6328,48.459,717.6237,48.7038,717.6856,48.9779,717.4607,49.1333,717.4569,49.1243,717.2566,49.2406,717.0623,49.3716,716.8561,49.4738,716.6118,49.4841,716.4,49.5727,716.4,49.745,710.6,49.2292,704.8,49.7433,699,49.9016,693.2,49.8394,687.4,49.9405,681.6,49.2828,675.8,49.1813,670,49.1998,664.2,49.5373,658.4,49.4547,652.6,49.9815,646.8,49.5727,646.7866,49.5404,646.5616,49.4214,646.3932,49.4391,646.1126,49.1858,645.9117,49.1253,645.7393,49.1333,645.8593,49.183,645.732,48.9545,645.6993,48.7653,645.4163,48.4723,645.4468,48.3092,645.3,48.0727,645.6543,48.0727,645.0166,42.5236,645.2425,36.9745,645.3756,31.4255,645.6911,25.8764,645.3,20.3273,645.2992,20.327,645.4733,20.1506,645.3734,19.8607,645.4385,19.6391,645.7445,19.5174,645.7393,19.2667,645.6845,19.1342,645.9904,19.2729,646.1794,19.1291,646.3552,18.9536,646.5608,18.8498,646.8,18.8273" style="stroke:#181818;stroke-width:0.3;"/><text fill="#000000" font-family="FG Virgil" font-size="8.4" font-style="italic" lengthAdjust="spacing" textLength="37.2" x="663" y="32.0918">&#171;domain&#187;</text><text fill="#000000" font-family="FG Virgil" font-size="8.4" lengthAdjust="spacing" textLength="64.2" x="649.5" y="43.2645">user:SystemUser</text><polygon fill="#E3E3E3" points="646.8,463.3887,646.8,463.5148,652.6,463.1401,658.4,463.5046,664.2,463.6285,670,462.9606,675.8,463.342,681.6,463.1328,687.4,463.1586,693.2,463.3478,699,462.9739,704.8,463.7209,710.6,463.0105,716.4,463.3887,716.3849,463.3521,716.6452,463.5564,716.8177,463.5486,717.0416,463.6649,717.2461,463.7342,717.4607,463.828,717.4936,463.8417,717.5927,464.0584,717.7446,464.2971,717.8483,464.5158,717.9376,464.7285,717.9,464.8887,718.0528,464.8887,718.1782,470.4377,718.3213,475.9868,717.4673,481.5359,718.3071,487.0849,717.9,492.634,717.8452,492.6113,717.9108,492.887,717.6328,493.0204,717.6237,493.2651,717.6856,493.5393,717.4607,493.6946,717.4569,493.6856,717.2566,493.802,717.0623,493.933,716.8561,494.0352,716.6118,494.0454,716.4,494.134,716.4,494.3063,710.6,493.7905,704.8,494.3046,699,494.4629,693.2,494.4007,687.4,494.5018,681.6,493.8441,675.8,493.7427,670,493.7611,664.2,494.0987,658.4,494.0161,652.6,494.5428,646.8,494.134,646.7866,494.1017,646.5616,493.9827,646.3932,494.0004,646.1126,493.7472,645.9117,493.6866,645.7393,493.6946,645.8593,493.7443,645.732,493.5159,645.6993,493.3266,645.4163,493.0336,645.4468,492.8705,645.3,492.634,645.6543,492.634,645.0166,487.0849,645.2425,481.5359,645.3756,475.9868,645.6911,470.4377,645.3,464.8887,645.2992,464.8884,645.4733,464.7119,645.3734,464.422,645.4385,464.2004,645.7445,464.0787,645.7393,463.828,645.6845,463.6955,645.9904,463.8342,646.1794,463.6905,646.3552,463.5149,646.5608,463.4112,646.8,463.3887" style="stroke:#181818;stroke-width:0.3;"/><text fill="#000000" font-family="FG Virgil" font-size="8.4" font-style="italic" lengthAdjust="spacing" textLength="37.2" x="663" y="476.6531">&#171;domain&#187;</text><text fill="#000000" font-family="FG Virgil" font-size="8.4" lengthAdjust="spacing" textLength="64.2" x="649.5" y="487.8258">user:SystemUser</text><polygon fill="#E3E3E3" points="725.4,18.8273,725.4,18.9535,731.4,18.5788,737.4,18.9433,743.4,19.0672,749.4,18.3993,755.4,18.7807,761.4,18.5714,767.4,18.5972,773.4,18.7864,779.4,18.4125,785.4,19.1595,791.4,18.4492,797.4,18.7087,803.4,19.0865,809.4,18.8273,809.3934,18.8115,809.6174,18.9278,809.8218,18.9972,810.0501,19.1239,810.2668,19.223,810.4607,19.2667,810.5689,19.3115,810.6725,19.5302,810.7619,19.7429,810.7713,19.9226,810.8978,20.1507,810.9,20.3273,811.3213,20.3273,810.4673,25.8764,811.3071,31.4255,810.7221,36.9745,811.2203,42.5236,810.9,48.0727,810.8085,48.0348,810.7995,48.2795,810.8613,48.5537,810.6274,48.7053,810.568,48.9292,810.4607,49.1333,810.4866,49.1959,810.2804,49.2981,810.0361,49.3083,809.8462,49.45,809.5683,49.379,809.4,49.5727,809.4,49.7433,803.4,49.9016,797.4,49.8394,791.4,49.9405,785.4,49.2828,779.4,49.1813,773.4,49.1998,767.4,49.5373,761.4,49.4547,755.4,49.9815,749.4,49.4678,743.4,49.3668,737.4,49.7096,731.4,49.1726,725.4,49.5727,725.3603,49.4767,725.2375,49.6047,725.0091,49.4774,724.8198,49.4448,724.5268,49.1617,724.3393,49.1333,724.3983,49.1577,724.3606,48.9664,724.0763,48.6729,724.058,48.4896,724.0111,48.2944,723.9,48.0727,724.2911,48.0727,723.8975,42.5236,724.1775,36.9745,723.5677,31.4255,723.4936,25.8764,723.9,20.3273,723.9931,20.3659,723.8554,20.0603,724.1698,19.942,724.2018,19.7068,724.202,19.4583,724.3393,19.2667,724.3123,19.2013,724.5866,19.2636,724.7407,19.0356,725.021,19.1124,725.1456,18.8131,725.4,18.8273" style="stroke:#181818;stroke-width:0.3;"/><text fill="#000000" font-family="FG Virgil" font-size="8.4" font-style="italic" lengthAdjust="spacing" textLength="37.2" x="748.8" y="32.0918">&#171;domain&#187;</text><text fill="#000000" font-family="FG Virgil" font-size="8.4" lengthAdjust="spacing" textLength="78.6" x="728.1" y="43.2645">session:UserSession</text><polygon fill="#E3E3E3" points="725.4,463.3887,725.4,463.5148,731.4,463.1401,737.4,463.5046,743.4,463.6285,749.4,462.9606,755.4,463.342,761.4,463.1328,767.4,463.1586,773.4,463.3478,779.4,462.9739,785.4,463.7209,791.4,463.0105,797.4,463.27,803.4,463.6478,809.4,463.3887,809.3934,463.3728,809.6174,463.4891,809.8218,463.5585,810.0501,463.6853,810.2668,463.7843,810.4607,463.828,810.5689,463.8728,810.6725,464.0915,810.7619,464.3043,810.7713,464.4839,810.8978,464.712,810.9,464.8887,811.3213,464.8887,810.4673,470.4377,811.3071,475.9868,810.7221,481.5359,811.2203,487.0849,810.9,492.634,810.8085,492.5961,810.7995,492.8409,810.8613,493.115,810.6274,493.2667,810.568,493.4906,810.4607,493.6946,810.4866,493.7572,810.2804,493.8594,810.0361,493.8697,809.8462,494.0113,809.5683,493.9403,809.4,494.134,809.4,494.3046,803.4,494.4629,797.4,494.4007,791.4,494.5018,785.4,493.8441,779.4,493.7427,773.4,493.7611,767.4,494.0987,761.4,494.0161,755.4,494.5428,749.4,494.0292,743.4,493.9282,737.4,494.2709,731.4,493.7339,725.4,494.134,725.3603,494.0381,725.2375,494.166,725.0091,494.0387,724.8198,494.0061,724.5268,493.7231,724.3393,493.6946,724.3983,493.7191,724.3606,493.5277,724.0763,493.2342,724.058,493.0509,724.0111,492.8558,723.9,492.634,724.2911,492.634,723.8975,487.0849,724.1775,481.5359,723.5677,475.9868,723.4936,470.4377,723.9,464.8887,723.9931,464.9272,723.8554,464.6217,724.1698,464.5034,724.2018,464.2681,724.202,464.0196,724.3393,463.828,724.3123,463.7626,724.5866,463.8249,724.7407,463.597,725.021,463.6738,725.1456,463.3744,725.4,463.3887" style="stroke:#181818;stroke-width:0.3;"/><text fill="#000000" font-family="FG Virgil" font-size="8.4" font-style="italic" lengthAdjust="spacing" textLength="37.2" x="748.8" y="476.6531">&#171;domain&#187;</text><text fill="#000000" font-family="FG Virgil" font-size="8.4" lengthAdjust="spacing" textLength="78.6" x="728.1" y="487.8258">session:UserSession</text><polygon fill="#FFFFFF" points="117.9,70.1473,117.9,70.1893,119.1,70.0644,120.3,70.1859,121.5,70.2272,122.7,70.0046,123.9,70.1473,123.8845,70.1473,123.8147,73.9022,123.8233,77.6571,123.8864,81.412,123.7617,85.167,123.9,88.9219,123.9,89.0326,122.7,88.7958,121.5,88.8823,120.3,89.0083,119.1,88.9047,117.9,88.9219,117.9136,88.9219,117.8936,85.167,117.9357,81.412,117.9478,77.6571,118.0171,73.9022,117.9,70.1473" style="stroke:#181818;stroke-width:0.6;"/><polygon fill="#FFFFFF" points="117.9,118.0711,117.9,118.1131,119.1,117.9882,120.3,118.1098,121.5,118.151,122.7,117.9284,123.9,118.0711,123.8534,118.0711,123.6441,124.0553,123.6699,130.0396,123.8591,136.0238,123.4852,142.0081,124.2322,147.9923,123.5218,153.9765,123.7813,159.9608,124.1592,165.945,123.8485,171.9293,123.9409,177.9135,123.8808,183.8978,124.0071,189.882,124.0435,195.8662,124.2514,201.8505,124.3026,207.8347,124.3076,213.819,124.0528,219.8032,124.1782,225.7875,124.3213,231.7717,123.4673,237.7559,124.3071,243.7402,123.7221,249.7244,124.2203,255.7087,123.603,261.6929,123.8589,267.6772,124.345,273.6614,123.8708,279.6456,123.9632,285.6299,124.1032,291.6141,124.1497,297.5984,123.8977,303.5826,124.0723,309.5669,123.5565,315.5511,124.0706,321.5353,124.2289,327.5196,124.1667,333.5038,124.2678,339.4881,123.6102,345.4723,123.5087,351.4565,123.5272,357.4408,123.8647,363.425,123.7821,369.4093,124.3088,375.3935,123.7952,381.3778,123.6942,387.362,124.037,393.3462,123.4999,399.3305,123.5885,405.3147,124.2894,411.299,124.1614,417.2832,124.3407,423.2675,123.7069,429.2517,124.0915,435.2359,124.2543,441.2202,123.6166,447.2044,123.9,453.1887,123.9,453.1695,122.7,453.2139,121.5,453.319,120.3,453.1878,119.1,453.2812,117.9,453.1887,117.5677,453.1887,117.4936,447.2044,118.2022,441.2202,117.4698,435.2359,118.2054,429.2517,118.024,423.2675,117.7392,417.2832,117.6877,411.299,118.1753,405.3147,117.7204,399.3305,118.2551,393.3462,117.5684,387.362,118.2705,381.3778,118.1906,375.3935,118.047,369.4093,117.9283,363.425,118.336,357.4408,118.2681,351.4565,118.0016,345.4723,118.0609,339.4881,117.8218,333.5038,118.3299,327.5196,117.9929,321.5353,118.0035,315.5511,117.535,309.5669,117.6569,303.5826,118.2184,297.5984,118.1579,291.6141,117.8742,285.6299,117.7067,279.6456,117.7686,273.6614,117.4883,267.6772,118.1488,261.6929,118.3437,255.7087,118.2158,249.7244,118.317,243.7402,117.818,237.7559,117.9523,231.7717,117.6674,225.7875,118.0704,219.8032,118.0481,213.819,118.2314,207.8347,117.7622,201.8505,117.8194,195.8662,118.1661,189.882,118.2404,183.8978,117.5925,177.9135,117.7837,171.9293,117.9896,165.945,117.5335,159.9608,118.112,153.9765,118.0548,147.9923,117.8395,142.0081,117.9853,136.0238,118.3372,130.0396,117.7123,124.0553,117.9,118.0711" style="stroke:#181818;stroke-width:0.6;"/><polygon fill="#FFFFFF" points="222.9,147.2203,222.9,147.2623,224.1,147.1374,225.3,147.259,226.5,147.3002,227.7,147.0776,228.9,147.2203,228.8534,147.2203,228.6441,153.2035,228.6699,159.1867,228.8591,165.1699,228.4852,171.1531,229.2322,177.1363,228.5218,183.1195,228.7813,189.1027,229.1592,195.0859,228.8485,201.0691,228.9409,207.0523,228.8808,213.0355,229.0071,219.0187,229.0435,225.002,229.2514,230.9852,229.3026,236.9684,229.3076,242.9516,229.0528,248.9348,229.1782,254.918,229.3213,260.9012,228.4673,266.8844,229.3071,272.8676,228.7221,278.8508,229.2203,284.834,228.603,290.8172,228.8589,296.8004,229.345,302.7836,228.8708,308.7668,228.9632,314.75,229.1032,320.7332,229.1497,326.7164,228.8977,332.6996,229.0723,338.6828,228.5565,344.666,229.0706,350.6492,229.2289,356.6324,229.1667,362.6156,229.2678,368.5988,228.6102,374.582,228.5087,380.5652,228.5272,386.5484,228.8647,392.5316,228.7821,398.5148,229.3088,404.498,228.7952,410.4813,228.6942,416.4645,229.037,422.4477,228.4999,428.4309,228.9,434.4141,228.9,434.3102,227.7,434.5439,226.5,434.5012,225.3,434.561,224.1,434.3497,222.9,434.4141,223.0915,434.4141,223.2543,428.4309,222.6166,422.4477,222.8425,416.4645,222.9756,410.4813,223.2911,404.498,222.8975,398.5148,223.1775,392.5316,222.5677,386.5484,222.4936,380.5652,223.2022,374.582,222.4698,368.5988,223.2054,362.6156,223.024,356.6324,222.7392,350.6492,222.6877,344.666,223.1753,338.6828,222.7204,332.6996,223.2551,326.7164,222.5684,320.7332,223.2705,314.75,223.1906,308.7668,223.047,302.7836,222.9283,296.8004,223.336,290.8172,223.2681,284.834,223.0016,278.8508,223.0609,272.8676,222.8218,266.8844,223.3299,260.9012,222.9929,254.918,223.0035,248.9348,222.535,242.9516,222.6569,236.9684,223.2184,230.9852,223.1579,225.002,222.8742,219.0187,222.7067,213.0355,222.7686,207.0523,222.4883,201.0691,223.1488,195.0859,223.3437,189.1027,223.2158,183.1195,223.317,177.1363,222.818,171.1531,222.9523,165.1699,222.6674,159.1867,223.0704,153.2035,222.9,147.2203" style="stroke:#181818;stroke-width:0.6;"/><polygon fill="#FFFFFF" points="324.6,165.9949,324.6,166.037,325.8,165.9121,327,166.0336,328.2,166.0749,329.4,165.8522,330.6,165.9949,330.5845,165.9949,330.5147,169.7498,330.5233,173.5048,330.5864,177.2597,330.4617,181.0146,330.6,184.7695,330.6,184.8803,329.4,184.6435,328.2,184.73,327,184.8559,325.8,184.7524,324.6,184.7695,324.6136,184.7695,324.5936,181.0146,324.6357,177.2597,324.6478,173.5048,324.7171,169.7498,324.6,165.9949" style="stroke:#181818;stroke-width:0.6;"/><polygon fill="#FFFFFF" points="406.2,213.9188,406.2,213.9608,407.4,213.8359,408.6,213.9574,409.8,213.9987,411,213.7761,412.2,213.9188,412.1534,213.9188,411.9441,219.8517,411.9699,225.7847,412.1591,231.7176,411.7852,237.6506,412.5322,243.5836,411.8218,249.5165,412.0813,255.4495,412.4592,261.3824,412.1485,267.3154,412.2409,273.2484,412.1808,279.1813,412.3071,285.1143,412.3435,291.0473,412.5514,296.9802,412.6026,302.9132,412.6076,308.8461,412.3528,314.7791,412.4782,320.7121,412.6213,326.645,411.7673,332.578,412.6071,338.5109,412.0221,344.4439,412.5203,350.3769,411.903,356.3098,412.1589,362.2428,412.645,368.1758,412.1708,374.1087,412.2632,380.0417,412.4032,385.9746,412.4497,391.9076,412.1977,397.8406,412.3723,403.7735,411.8565,409.7065,412.2,415.6395,412.2,415.6963,411,415.7491,409.8,415.7284,408.6,415.7621,407.4,415.5428,406.2,415.6395,405.8087,415.6395,405.8272,409.7065,406.1647,403.7735,406.0821,397.8406,406.6088,391.9076,406.0952,385.9746,405.9942,380.0417,406.337,374.1087,405.7999,368.1758,405.8885,362.2428,406.5894,356.3098,406.4614,350.3769,406.6407,344.4439,406.0069,338.5109,406.3915,332.578,406.5543,326.645,405.9166,320.7121,406.1425,314.7791,406.2756,308.8461,406.5911,302.9132,406.1975,296.9802,406.4775,291.0473,405.8677,285.1143,405.7936,279.1813,406.5022,273.2484,405.7698,267.3154,406.5054,261.3824,406.324,255.4495,406.0392,249.5165,405.9877,243.5836,406.4753,237.6506,406.0204,231.7176,406.5551,225.7847,405.8684,219.8517,406.2,213.9188" style="stroke:#181818;stroke-width:0.6;"/><polygon fill="#FFFFFF" points="520.8,340.541,520.8,340.5831,522,340.4582,523.2,340.5797,524.4,340.621,525.6,340.3983,526.8,340.541,526.7534,340.541,526.5441,346.7992,526.5699,353.0574,526.7591,359.3156,526.3852,365.5738,527.1322,371.832,526.4218,378.0902,526.6813,384.3484,527.0592,390.6066,526.8,396.8648,526.8,396.8477,525.6,396.8785,524.4,396.8585,523.2,396.9005,522,396.9127,520.8,396.8648,521.1514,396.8648,521.2026,390.6066,521.2076,384.3484,520.9528,378.0902,521.0782,371.832,521.2213,365.5738,520.3673,359.3156,521.2071,353.0574,520.6221,346.7992,520.8,340.541" style="stroke:#181818;stroke-width:0.6;"/><polygon fill="#FFFFFF" points="603,255.068,603,255.11,604.2,254.9851,605.4,255.1066,606.6,255.1479,607.8,254.9253,609,255.068,608.9845,255.068,608.9147,258.8229,608.9233,262.5778,608.9864,266.3327,608.8617,270.0877,609,273.8426,609,273.9533,607.8,273.7165,606.6,273.803,605.4,273.929,604.2,273.8254,603,273.8426,603.0136,273.8426,602.9936,270.0877,603.0357,266.3327,603.0478,262.5778,603.1171,258.8229,603,255.068" style="stroke:#181818;stroke-width:0.6;"/><polygon fill="#FFFFFF" points="678.6,302.9918,678.6,303.0338,679.8,302.9089,681,303.0305,682.2,303.0717,683.4,302.8491,684.6,302.9918,684.5845,302.9918,684.5147,306.7467,684.5233,310.5016,684.5864,314.2566,684.4617,318.0115,684.6,321.7664,684.6,321.8771,683.4,321.6404,682.2,321.7269,681,321.8528,679.8,321.7493,678.6,321.7664,678.6136,321.7664,678.5936,318.0115,678.6357,314.2566,678.6478,310.5016,678.7171,306.7467,678.6,302.9918" style="stroke:#181818;stroke-width:0.6;"/><polygon fill="#FFFFFF" points="764.4,359.3156,764.4,359.3577,765.6,359.2328,766.8,359.3543,768,359.3956,769.2,359.1729,770.4,359.3156,770.3845,359.3156,770.3147,363.0705,770.3233,366.8255,770.3864,370.5804,770.2617,374.3353,770.4,378.0902,770.4,378.201,769.2,377.9642,768,378.0507,766.8,378.1766,765.6,378.0731,764.4,378.0902,764.4136,378.0902,764.3936,374.3353,764.4357,370.5804,764.4478,366.8255,764.5171,363.0705,764.4,359.3156" style="stroke:#181818;stroke-width:0.6;"/><polygon fill="#181818" points="110.7,67.7473,110.7156,67.7863,111.8692,68.1503,113.1144,68.7432,114.3297,69.2615,115.447,69.5348,116.7,70.1473,116.6942,70.1328,115.4683,70.5481,114.2715,71.0361,113.0949,71.5746,111.8486,71.9389,110.7,72.5473,110.7783,72.6256,111.0909,71.9781,111.632,71.5593,112.2011,71.1684,112.6079,70.6151,113.1,70.1473,113.1097,70.1569,112.6155,69.6627,112.1652,69.2125,111.6938,68.7411,111.2628,68.3101,110.7,67.7473" style="stroke:#181818;stroke-width:0.6;"/><path d="M13.5,70.1473 L13.5,70.3154 L19.4294,69.8158 L25.3588,70.3019 L31.2882,70.467 L37.2176,69.5765 L43.1471,70.0851 L49.0765,69.8061 L55.0059,69.8405 L60.9353,70.0927 L66.8647,69.5942 L72.7941,70.5902 L78.7235,69.643 L84.6529,69.9891 L90.5824,70.4928 L96.5118,70.0786 L102.4412,70.2019 L108.3706,70.1217 L114.3,70.1473 " fill="none" style="stroke:#181818;stroke-width:0.6;"/><text fill="#000000" font-family="FG Virgil" font-size="7.8" lengthAdjust="spacing" textLength="49.8" x="17.7" y="66.9896">Request Login</text><polygon fill="#181818" points="20.1,86.5219,20.1156,86.5609,18.8692,86.9249,17.7144,87.5178,16.5297,88.0361,15.247,88.3094,14.1,88.9219,14.0942,88.9074,15.2683,89.3227,16.4715,89.8107,17.6949,90.3492,18.8486,90.7135,20.1,91.3219,20.1783,91.4002,19.5309,90.7527,19.112,90.3339,18.7211,89.943,18.1679,89.3897,17.7,88.9219,17.7097,88.9315,18.1755,88.4374,18.6852,87.9871,19.1738,87.5157,19.7028,87.0847,20.1,86.5219" style="stroke:#181818;stroke-width:0.6;"/><path d="M16.5,88.9219 L16.5,89.09 L22.6059,88.5904 L28.7118,89.0765 L34.8176,89.2416 L40.9235,88.3512 L47.0294,88.8597 L53.1353,88.5807 L59.2412,88.6151 L65.3471,88.8673 L71.4529,88.3688 L77.5588,89.3648 L83.6647,88.4177 L89.7706,88.7637 L95.8765,89.2674 L101.9824,88.8533 L108.0882,88.9765 L114.1941,88.8963 L120.3,88.9219 " fill="none" style="stroke:#181818;stroke-width:0.6;stroke-dasharray:2.0,2.0;"/><text fill="#000000" font-family="FG Virgil" font-size="7.8" lengthAdjust="spacing" textLength="72.6" x="23.7" y="85.7643">Ask login information</text><polygon fill="#181818" points="110.7,115.6711,110.7156,115.7101,111.8692,116.0742,113.1144,116.667,114.3297,117.1853,115.447,117.4586,116.7,118.0711,116.6942,118.0567,115.4683,118.4719,114.2715,118.9599,113.0949,119.4984,111.8486,119.8627,110.7,120.4711,110.7783,120.5494,111.0909,119.902,111.632,119.4831,112.2011,119.0922,112.6079,118.539,113.1,118.0711,113.1097,118.0807,112.6155,117.5866,112.1652,117.1363,111.6938,116.6649,111.2628,116.2339,110.7,115.6711" style="stroke:#181818;stroke-width:0.6;"/><path d="M13.5,118.0711 L13.5,118.2392 L19.4294,117.7396 L25.3588,118.2257 L31.2882,118.3908 L37.2176,117.5004 L43.1471,118.0089 L49.0765,117.7299 L55.0059,117.7643 L60.9353,118.0166 L66.8647,117.518 L72.7941,118.514 L78.7235,117.5669 L84.6529,117.9129 L90.5824,118.4167 L96.5118,118.0025 L102.4412,118.1257 L108.3706,118.0455 L114.3,118.0711 " fill="none" style="stroke:#181818;stroke-width:0.6;"/><text fill="#000000" font-family="FG Virgil" font-size="7.8" lengthAdjust="spacing" textLength="64.2" x="17.7" y="104.5389">Provide username,</text><text fill="#000000" font-family="FG Virgil" font-size="7.8" lengthAdjust="spacing" textLength="54.6" x="17.7" y="114.9135">password, roles</text><polygon fill="#181818" points="215.7,144.8203,215.7156,144.8593,216.8692,145.2234,218.1144,145.8162,219.3297,146.3345,220.447,146.6078,221.7,147.2203,221.6942,147.2059,220.4683,147.6211,219.2715,148.1091,218.0949,148.6477,216.8486,149.0119,215.7,149.6203,215.7783,149.6986,216.0909,149.0512,216.632,148.6323,217.2011,148.2414,217.6079,147.6882,218.1,147.2203,218.1097,147.23,217.6155,146.7358,217.1652,146.2856,216.6938,145.8141,216.2628,145.3831,215.7,144.8203" style="stroke:#181818;stroke-width:0.6;"/><path d="M123.9,147.2203 L123.9,147.3885 L129.8625,146.8889 L135.825,147.3749 L141.7875,147.5401 L147.75,146.6496 L153.7125,147.1581 L159.675,146.8791 L165.6375,146.9135 L171.6,147.1658 L177.5625,146.6672 L183.525,147.6632 L189.4875,146.7161 L195.45,147.0621 L201.4125,147.5659 L207.375,147.1517 L213.3375,147.2749 L219.3,147.2203 " fill="none" style="stroke:#181818;stroke-width:0.6;"/><text fill="#000000" font-family="FG Virgil" font-size="7.8" lengthAdjust="spacing" textLength="85.8" x="128.1" y="133.6881">authenticated(username,</text><text fill="#000000" font-family="FG Virgil" font-size="7.8" lengthAdjust="spacing" textLength="87.6" x="128.1" y="144.0627">password, requiredRoles)</text><polygon fill="#181818" points="317.4,163.5949,317.4156,163.634,318.5692,163.998,319.8144,164.5908,321.0297,165.1091,322.147,165.3824,323.4,165.9949,323.3942,165.9805,322.1683,166.3957,320.9715,166.8837,319.7949,167.4223,318.5486,167.7865,317.4,168.3949,317.4783,168.4732,317.7909,167.8258,318.332,167.407,318.9011,167.016,319.3079,166.4628,319.8,165.9949,319.8097,166.0046,319.3155,165.5104,318.8652,165.0602,318.3938,164.5887,317.9628,164.1578,317.4,163.5949" style="stroke:#181818;stroke-width:0.6;"/><path d="M228.9,165.9949 L228.9,166.1631 L235.04,165.6635 L241.18,166.1496 L247.32,166.3147 L253.46,165.4242 L259.6,165.9328 L265.74,165.6537 L271.88,165.6881 L278.02,165.9404 L284.16,165.4418 L290.3,166.4378 L296.44,165.4907 L302.58,165.8367 L308.72,166.3405 L314.86,165.9263 L321,165.9949 " fill="none" style="stroke:#181818;stroke-width:0.6;"/><text fill="#000000" font-family="FG Virgil" font-size="7.8" lengthAdjust="spacing" textLength="78.6" x="233.1" y="162.8373">authenticationService()</text><polygon fill="#181818" points="235.5,182.3695,235.5156,182.4086,234.2692,182.7726,233.1144,183.3654,231.9297,183.8837,230.647,184.1571,229.5,184.7695,229.4942,184.7551,230.6683,185.1703,231.8715,185.6583,233.0949,186.1969,234.2486,186.5611,235.5,187.1695,235.5783,187.2478,234.9309,186.6004,234.512,186.1816,234.1211,185.7906,233.5679,185.2374,233.1,184.7695,233.1097,184.7792,233.5755,184.285,234.0852,183.8348,234.5738,183.3633,235.1028,182.9324,235.5,182.3695" style="stroke:#181818;stroke-width:0.6;"/><path d="M231.9,184.7695 L231.9,184.9377 L237.8438,184.4381 L243.7875,184.9242 L249.7313,185.0893 L255.675,184.1988 L261.6188,184.7074 L267.5625,184.4283 L273.5062,184.4627 L279.45,184.715 L285.3938,184.2164 L291.3375,185.2124 L297.2813,184.2653 L303.225,184.6113 L309.1688,185.1151 L315.1125,184.7009 L321.0563,184.8241 L327,184.7695 " fill="none" style="stroke:#181818;stroke-width:0.6;stroke-dasharray:2.0,2.0;"/><text fill="#000000" font-family="FG Virgil" font-size="7.8" lengthAdjust="spacing" textLength="73.8" x="239.1" y="181.6119">authenticationService</text><polygon fill="#181818" points="399,211.5187,399.0156,211.5578,400.1692,211.9218,401.4144,212.5146,402.6297,213.033,403.747,213.3063,405,213.9188,404.9942,213.9043,403.7683,214.3196,402.5715,214.8075,401.3949,215.3461,400.1486,215.7104,399,216.3188,399.0783,216.397,399.3909,215.7496,399.932,215.3308,400.5011,214.9398,400.9079,214.3866,401.4,213.9188,401.4097,213.9284,400.9155,213.4342,400.4652,212.984,399.9938,212.5126,399.5628,212.0816,399,211.5187" style="stroke:#181818;stroke-width:0.6;"/><path d="M228.9,213.9188 L228.9,214.0869 L234.8897,213.5873 L240.8793,214.0734 L246.869,214.2385 L252.8586,213.348 L258.8483,213.8566 L264.8379,213.5776 L270.8276,213.612 L276.8172,213.8642 L282.8069,213.3657 L288.7966,214.3617 L294.7862,213.4145 L300.7759,213.7605 L306.7655,214.2643 L312.7552,213.8501 L318.7448,213.9733 L324.7345,213.8932 L330.7241,214.0616 L336.7138,214.1101 L342.7034,214.3873 L348.6931,214.4556 L354.6828,214.4622 L360.6724,214.1225 L366.6621,214.2896 L372.6517,214.4805 L378.6414,213.3418 L384.631,214.4616 L390.6207,213.6815 L396.6103,214.3458 L402.6,213.9188 " fill="none" style="stroke:#181818;stroke-width:0.6;"/><text fill="#000000" font-family="FG Virgil" font-size="7.8" lengthAdjust="spacing" textLength="81.6" x="233.1" y="200.3865">authenticate(username,</text><text fill="#000000" font-family="FG Virgil" font-size="7.8" lengthAdjust="spacing" textLength="87.6" x="233.1" y="210.7611">password, requiredRoles)</text><path d="M415.2,221.7188 L415.3121,221.7188 L414.979,224.9587 L415.3031,228.1988 L415.4132,231.4387 L414.8195,234.6788 L415.2,237.9188 L415.2,237.7944 L421.2,237.2364 L427.2,237.3052 L433.2,237.8097 L439.2,236.8126 L445.2,238.8046 L451.2,236.9103 L457.2,237.6023 L463.2,238.6099 L469.2,237.7815 L475.2,238.0279 L481.2,237.8676 L487.2,238.2044 L493.2,238.3014 L499.2,238.8559 L505.2,238.9924 L511.2,239.0056 L517.2,238.3262 L523.2,238.6605 L529.2,239.0423 L535.2,236.7649 L541.2,239.0044 L547.2,237.4443 L553.2,237.9188 L553.4847,237.9188 L552.936,235.8788 L553.1635,233.8387 L553.5955,231.7987 L553.174,229.7588 L553.2,227.7188 L553.2397,227.7585 L552.1277,226.6465 L550.957,225.4757 L549.5985,224.1173 L548.5083,223.0271 L547.2,221.7188 L547.2,220.8029 L541.2,222.1738 L535.2,222.5959 L529.2,222.43 L523.2,222.6996 L517.2,220.9458 L511.2,220.6753 L505.2,220.7245 L499.2,221.6245 L493.2,221.4043 L487.2,222.809 L481.2,221.4393 L475.2,221.1699 L469.2,222.084 L463.2,220.6518 L457.2,220.8881 L451.2,222.7571 L445.2,222.4158 L439.2,222.8939 L433.2,221.2039 L427.2,222.2295 L421.2,222.6634 L415.2,221.7188 " fill="#FAFAFA" style="stroke:#181818;stroke-width:0.3;"/><path d="M547.2,221.7188 L546.9481,221.7188 L547.1489,222.9188 L547.2672,224.1188 L547.5476,225.3188 L547.1978,226.5187 L547.2,227.7188 L547.2,227.9655 L548.4,227.4234 L549.6,227.3575 L550.8,227.9873 L552,227.3364 L553.2,227.7188 L553.3919,227.9107 L552.0779,226.5967 L550.699,225.2177 L549.4666,223.9853 L548.573,223.0918 L547.2,221.7188 " fill="#FAFAFA" style="stroke:#181818;stroke-width:0.3;"/><text fill="#000000" font-family="FG Virgil" font-size="7.8" lengthAdjust="spacing" textLength="125.4" x="418.8" y="233.1357">simplified framework implementation</text><polygon fill="#181818" points="595.8,252.668,595.8156,252.707,596.9692,253.071,598.2144,253.6639,599.4297,254.1822,600.547,254.4555,601.8,255.068,601.7942,255.0535,600.5683,255.4688,599.3715,255.9568,598.1949,256.4953,596.9486,256.8596,595.8,257.468,595.8783,257.5463,596.1909,256.8988,596.732,256.48,597.3011,256.0891,597.7079,255.5358,598.2,255.068,598.2097,255.0776,597.7155,254.5835,597.2652,254.1332,596.7938,253.6618,596.3628,253.2308,595.8,252.668" style="stroke:#181818;stroke-width:0.6;"/><path d="M412.2,255.068 L412.2,255.2361 L418.2387,254.7365 L424.2774,255.2226 L430.3161,255.3877 L436.3548,254.4973 L442.3935,255.0058 L448.4323,254.7268 L454.471,254.7612 L460.5097,255.0134 L466.5484,254.5149 L472.5871,255.5109 L478.6258,254.5637 L484.6645,254.9098 L490.7032,255.4135 L496.7419,254.9993 L502.7806,255.1226 L508.8194,255.0424 L514.8581,255.2108 L520.8968,255.2593 L526.9355,255.5365 L532.9742,255.6048 L539.0129,255.6114 L545.0516,255.2717 L551.0903,255.4388 L557.129,255.6298 L563.1677,254.491 L569.2065,255.6108 L575.2452,254.8308 L581.2839,255.495 L587.3226,254.672 L593.3613,255.0132 L599.4,255.068 " fill="none" style="stroke:#181818;stroke-width:0.6;"/><text fill="#000000" font-family="FG Virgil" font-size="7.8" lengthAdjust="spacing" textLength="70.2" x="416.4" y="251.9104">ofIdentity(username)</text><polygon fill="#181818" points="418.8,271.4426,418.8156,271.4816,417.5692,271.8456,416.4144,272.4385,415.2297,272.9568,413.947,273.2301,412.8,273.8426,412.7942,273.8281,413.9683,274.2434,415.1715,274.7314,416.3949,275.2699,417.5486,275.6342,418.8,276.2426,418.8783,276.3209,418.2309,275.6734,417.812,275.2546,417.4211,274.8637,416.8679,274.3104,416.4,273.8426,416.4097,273.8522,416.8755,273.3581,417.3852,272.9078,417.8738,272.4364,418.4028,272.0054,418.8,271.4426" style="stroke:#181818;stroke-width:0.6;"/><path d="M415.2,273.8426 L415.2,274.0107 L421.1438,273.5111 L427.0875,273.9972 L433.0313,274.1623 L438.975,273.2719 L444.9188,273.7804 L450.8625,273.5014 L456.8063,273.5358 L462.75,273.7881 L468.6937,273.2895 L474.6375,274.2855 L480.5812,273.3384 L486.525,273.6844 L492.4688,274.1881 L498.4125,273.774 L504.3563,273.8972 L510.3,273.817 L516.2438,273.9854 L522.1875,274.0339 L528.1313,274.3111 L534.075,274.3794 L540.0188,274.386 L545.9625,274.0463 L551.9063,274.2134 L557.85,274.4044 L563.7937,273.2656 L569.7375,274.3854 L575.6813,273.6054 L581.625,274.2696 L587.5688,273.4466 L593.5125,273.7878 L599.4563,274.4359 L605.4,273.8426 " fill="none" style="stroke:#181818;stroke-width:0.6;stroke-dasharray:2.0,2.0;"/><text fill="#000000" font-family="FG Virgil" font-size="7.8" lengthAdjust="spacing" textLength="15" x="422.4" y="270.685">user</text><polygon fill="#181818" points="671.4,300.5918,671.4156,300.6308,672.5692,300.9949,673.8144,301.5877,675.0297,302.106,676.147,302.3793,677.4,302.9918,677.3942,302.9774,676.1683,303.3926,674.9715,303.8806,673.7949,304.4191,672.5486,304.7834,671.4,305.3918,671.4783,305.4701,671.7909,304.8227,672.332,304.4038,672.9011,304.0129,673.3079,303.4597,673.8,302.9918,673.8097,303.0014,673.3155,302.5073,672.8652,302.057,672.3938,301.5856,671.9628,301.1546,671.4,300.5918" style="stroke:#181818;stroke-width:0.6;"/><path d="M412.2,302.9918 L412.2,303.1599 L418.1727,302.6603 L424.1455,303.1464 L430.1182,303.3115 L436.0909,302.4211 L442.0636,302.9296 L448.0364,302.6506 L454.0091,302.685 L459.9818,302.9373 L465.9545,302.4387 L471.9273,303.4347 L477.9,302.4876 L483.8727,302.8336 L489.8455,303.3374 L495.8182,302.9232 L501.7909,303.0464 L507.7636,302.9662 L513.7364,303.1346 L519.7091,303.1831 L525.6818,303.4603 L531.6545,303.5286 L537.6273,303.5352 L543.6,303.1955 L549.5727,303.3627 L555.5455,303.5536 L561.5182,302.4148 L567.4909,303.5346 L573.4636,302.7546 L579.4364,303.4188 L585.4091,302.5958 L591.3818,302.937 L597.3545,303.5851 L603.3273,302.9528 L609.3,303.076 L615.2727,303.2627 L621.2455,303.3248 L627.2182,302.9887 L633.1909,303.2216 L639.1636,302.5339 L645.1364,303.2193 L651.1091,303.4304 L657.0818,303.3474 L663.0545,303.4822 L669.0273,302.6053 L675,302.9918 " fill="none" style="stroke:#181818;stroke-width:0.6;"/><text fill="#000000" font-family="FG Virgil" font-size="7.8" lengthAdjust="spacing" textLength="146.4" x="416.4" y="289.4596">passwordMatches(rawPassword, encoder)</text><text fill="#000000" font-family="FG Virgil" font-size="7.8" lengthAdjust="spacing" textLength="139.2" x="416.4" y="299.8342">&amp;&amp; isActive() &amp;&amp; hasAny(requiredRoles)</text><polygon fill="#181818" points="418.8,319.3664,418.8156,319.4054,417.5692,319.7695,416.4144,320.3623,415.2297,320.8806,413.947,321.1539,412.8,321.7664,412.7942,321.752,413.9683,322.1672,415.1715,322.6552,416.3949,323.1937,417.5486,323.558,418.8,324.1664,418.8783,324.2447,418.2309,323.5973,417.812,323.1784,417.4211,322.7875,416.8679,322.2343,416.4,321.7664,416.4097,321.7761,416.8755,321.2819,417.3852,320.8317,417.8738,320.3602,418.4028,319.9292,418.8,319.3664" style="stroke:#181818;stroke-width:0.6;"/><path d="M415.2,321.7664 L415.2,321.9346 L421.2409,321.4349 L427.2818,321.921 L433.3227,322.0861 L439.3636,321.1957 L445.4045,321.7042 L451.4455,321.4252 L457.4864,321.4596 L463.5273,321.7119 L469.5682,321.2133 L475.6091,322.2093 L481.65,321.2622 L487.6909,321.6082 L493.7318,322.112 L499.7727,321.6978 L505.8136,321.821 L511.8545,321.7408 L517.8955,321.9092 L523.9364,321.9577 L529.9773,322.235 L536.0182,322.3032 L542.0591,322.3098 L548.1,321.9701 L554.1409,322.1373 L560.1818,322.3282 L566.2227,321.1895 L572.2636,322.3092 L578.3045,321.5292 L584.3455,322.1935 L590.3864,321.3704 L596.4273,321.7116 L602.4682,322.3597 L608.5091,321.7274 L614.55,321.8506 L620.5909,322.0373 L626.6318,322.0994 L632.6727,321.7633 L638.7136,321.9962 L644.7545,321.3085 L650.7955,321.9939 L656.8364,322.205 L662.8773,322.122 L668.9182,322.2568 L674.9591,321.3799 L681,321.7664 " fill="none" style="stroke:#181818;stroke-width:0.6;stroke-dasharray:2.0,2.0;"/><text fill="#000000" font-family="FG Virgil" font-size="7.8" lengthAdjust="spacing" textLength="40.8" x="422.4" y="318.6088">true or false</text><polygon fill="#181818" points="513.6,338.141,513.6156,338.18,514.7692,338.5441,516.0144,339.1369,517.2297,339.6552,518.347,339.9285,519.6,340.541,519.5942,340.5266,518.3683,340.9418,517.1715,341.4298,515.9949,341.9684,514.7486,342.3326,513.6,342.941,513.6783,343.0193,513.9909,342.3719,514.532,341.953,515.1011,341.5621,515.5079,341.0089,516,340.541,516.0097,340.5507,515.5155,340.0565,515.0652,339.6063,514.5938,339.1348,514.1628,338.7038,513.6,338.141" style="stroke:#181818;stroke-width:0.6;"/><path d="M412.2,340.541 L412.2,340.7092 L418.0333,340.2096 L423.8667,340.6956 L429.7,340.8608 L435.5333,339.9703 L441.3667,340.4788 L447.2,340.1998 L453.0333,340.2342 L458.8667,340.4865 L464.7,339.9879 L470.5333,340.9839 L476.3667,340.0368 L482.2,340.3828 L488.0333,340.8866 L493.8667,340.4724 L499.7,340.5956 L505.5333,340.5155 L511.3667,340.6838 L517.2,340.541 " fill="none" style="stroke:#181818;stroke-width:0.6;"/><text fill="#000000" font-family="FG Virgil" font-size="7.8" lengthAdjust="spacing" textLength="97.2" x="416.4" y="337.3834">createSessionForUser(user)</text><polygon fill="#181818" points="757.2,356.9156,757.2156,356.9547,758.3692,357.3187,759.6144,357.9115,760.8297,358.4298,761.947,358.7032,763.2,359.3156,763.1942,359.3012,761.9683,359.7164,760.7715,360.2044,759.5949,360.743,758.3486,361.1072,757.2,361.7156,757.2783,361.7939,757.5909,361.1465,758.132,360.7277,758.7011,360.3367,759.1079,359.7835,759.6,359.3156,759.6097,359.3253,759.1155,358.8311,758.6652,358.3809,758.1938,357.9094,757.7628,357.4785,757.2,356.9156" style="stroke:#181818;stroke-width:0.6;"/><path d="M526.8,359.3156 L526.8,359.4838 L532.8,358.9842 L538.8,359.4703 L544.8,359.6354 L550.8,358.7449 L556.8,359.2535 L562.8,358.9744 L568.8,359.0088 L574.8,359.2611 L580.8,358.7625 L586.8,359.7585 L592.8,358.8114 L598.8,359.1574 L604.8,359.6612 L610.8,359.247 L616.8,359.3702 L622.8,359.2901 L628.8,359.4584 L634.8,359.5069 L640.8,359.7842 L646.8,359.8525 L652.8,359.859 L658.8,359.5193 L664.8,359.6865 L670.8,359.8774 L676.8,358.7387 L682.8,359.8584 L688.8,359.0784 L694.8,359.7427 L700.8,358.9196 L706.8,359.2608 L712.8,359.9089 L718.8,359.2766 L724.8,359.3999 L730.8,359.5865 L736.8,359.6486 L742.8,359.3125 L748.8,359.5454 L754.8,358.8577 L760.8,359.3156 " fill="none" style="stroke:#181818;stroke-width:0.6;"/><text fill="#000000" font-family="FG Virgil" font-size="7.8" lengthAdjust="spacing" textLength="41.4" x="531" y="356.158">create(user)</text><polygon fill="#181818" points="533.4,375.6902,533.4156,375.7293,532.1692,376.0933,531.0144,376.6861,529.8297,377.2045,528.547,377.4778,527.4,378.0902,527.3942,378.0758,528.5683,378.491,529.7715,378.979,530.9949,379.5176,532.1486,379.8819,533.4,380.4902,533.4783,380.5685,532.8309,379.9211,532.412,379.5023,532.0211,379.1113,531.4679,378.5581,531,378.0902,531.0097,378.0999,531.4755,377.6057,531.9852,377.1555,532.4738,376.6841,533.0028,376.2531,533.4,375.6902" style="stroke:#181818;stroke-width:0.6;"/><path d="M529.8,378.0902 L529.8,378.2584 L535.725,377.7588 L541.65,378.2449 L547.575,378.41 L553.5,377.5195 L559.425,378.0281 L565.35,377.749 L571.275,377.7834 L577.2,378.0357 L583.125,377.5371 L589.05,378.5331 L594.975,377.586 L600.9,377.932 L606.825,378.4358 L612.75,378.0216 L618.675,378.1448 L624.6,378.0647 L630.525,378.2331 L636.45,378.2815 L642.375,378.5588 L648.3,378.6271 L654.225,378.6336 L660.15,378.2939 L666.075,378.4611 L672,378.652 L677.925,377.5133 L683.85,378.633 L689.775,377.853 L695.7,378.5173 L701.625,377.6942 L707.55,378.0354 L713.475,378.6835 L719.4,378.0512 L725.325,378.1745 L731.25,378.3611 L737.175,378.4232 L743.1,378.0871 L749.025,378.32 L754.95,377.6323 L760.875,378.3177 L766.8,378.0902 " fill="none" style="stroke:#181818;stroke-width:0.6;stroke-dasharray:2.0,2.0;"/><text fill="#000000" font-family="FG Virgil" font-size="7.8" lengthAdjust="spacing" textLength="27" x="537" y="374.9326">session</text><polygon fill="#181818" points="418.8,394.4648,418.8156,394.5039,417.5692,394.8679,416.4144,395.4607,415.2297,395.9791,413.947,396.2524,412.8,396.8648,412.7942,396.8504,413.9683,397.2656,415.1715,397.7536,416.3949,398.2922,417.5486,398.6565,418.8,399.2648,418.8783,399.3431,418.2309,398.6957,417.812,398.2769,417.4211,397.8859,416.8679,397.3327,416.4,396.8648,416.4097,396.8745,416.8755,396.3803,417.3852,395.9301,417.8738,395.4587,418.4028,395.0277,418.8,394.4648" style="stroke:#181818;stroke-width:0.6;"/><path d="M415.2,396.8648 L415.2,397.033 L421.2,396.5334 L427.2,397.0195 L433.2,397.1846 L439.2,396.2941 L445.2,396.8027 L451.2,396.5236 L457.2,396.558 L463.2,396.8103 L469.2,396.3117 L475.2,397.3078 L481.2,396.3606 L487.2,396.7066 L493.2,397.2104 L499.2,396.7962 L505.2,396.9194 L511.2,396.8393 L517.2,397.0077 L523.2,396.8648 " fill="none" style="stroke:#181818;stroke-width:0.6;stroke-dasharray:2.0,2.0;"/><text fill="#000000" font-family="FG Virgil" font-size="7.8" lengthAdjust="spacing" textLength="15" x="422.4" y="393.7072">user</text><polygon fill="#181818" points="235.5,413.2395,235.5156,413.2785,234.2692,413.6425,233.1144,414.2353,231.9297,414.7537,230.647,415.027,229.5,415.6395,229.4942,415.625,230.6683,416.0403,231.8715,416.5282,233.0949,417.0668,234.2486,417.4311,235.5,418.0395,235.5783,418.1177,234.9309,417.4703,234.512,417.0515,234.1211,416.6605,233.5679,416.1073,233.1,415.6395,233.1097,415.6491,233.5755,415.1549,234.0852,414.7047,234.5738,414.2333,235.1028,413.8023,235.5,413.2395" style="stroke:#181818;stroke-width:0.6;"/><path d="M231.9,415.6395 L231.9,415.8076 L237.9931,415.308 L244.0862,415.7941 L250.1793,415.9592 L256.2724,415.0687 L262.3655,415.5773 L268.4586,415.2983 L274.5517,415.3327 L280.6448,415.5849 L286.7379,415.0864 L292.831,416.0824 L298.9241,415.1352 L305.0172,415.4812 L311.1103,415.985 L317.2034,415.5708 L323.2966,415.694 L329.3897,415.6139 L335.4828,415.7823 L341.5759,415.8308 L347.669,416.108 L353.7621,416.1763 L359.8552,416.1829 L365.9483,415.8432 L372.0414,416.0103 L378.1345,416.2012 L384.2276,415.0625 L390.3207,416.1823 L396.4138,415.4023 L402.5069,416.0665 L408.6,415.6395 " fill="none" style="stroke:#181818;stroke-width:0.6;stroke-dasharray:2.0,2.0;"/><text fill="#000000" font-family="FG Virgil" font-size="7.8" lengthAdjust="spacing" textLength="15" x="239.1" y="412.4818">user</text><polygon fill="#181818" points="130.5,432.0141,130.5156,432.0531,129.2692,432.4171,128.1144,433.01,126.9297,433.5283,125.647,433.8016,124.5,434.4141,124.4942,434.3996,125.6683,434.8149,126.8715,435.3028,128.0949,435.8414,129.2486,436.2057,130.5,436.8141,130.5783,436.8924,129.9309,436.2449,129.512,435.8261,129.1211,435.4351,128.5679,434.8819,128.1,434.4141,128.1097,434.4237,128.5755,433.9295,129.0852,433.4793,129.5738,433.0079,130.1028,432.5769,130.5,432.0141" style="stroke:#181818;stroke-width:0.6;"/><path d="M126.9,434.4141 L126.9,434.5822 L133.05,434.0826 L139.2,434.5687 L145.35,434.7338 L151.5,433.8433 L157.65,434.3519 L163.8,434.0729 L169.95,434.1073 L176.1,434.3595 L182.25,433.861 L188.4,434.857 L194.55,433.9098 L200.7,434.2558 L206.85,434.7596 L213,434.3454 L219.15,434.4687 L225.3,434.4141 " fill="none" style="stroke:#181818;stroke-width:0.6;stroke-dasharray:2.0,2.0;"/><text fill="#000000" font-family="FG Virgil" font-size="7.8" lengthAdjust="spacing" textLength="15" x="134.1" y="431.2564">user</text><polygon fill="#181818" points="20.1,450.7887,20.1156,450.8277,18.8692,451.1917,17.7144,451.7846,16.5297,452.3029,15.247,452.5762,14.1,453.1887,14.0942,453.1742,15.2683,453.5895,16.4715,454.0775,17.6949,454.616,18.8486,454.9803,20.1,455.5887,20.1783,455.667,19.5309,455.0195,19.112,454.6007,18.7211,454.2098,18.1679,453.6565,17.7,453.1887,17.7097,453.1983,18.1755,452.7042,18.6852,452.2539,19.1738,451.7825,19.7028,451.3515,20.1,450.7887" style="stroke:#181818;stroke-width:0.6;"/><path d="M16.5,453.1887 L16.5,453.3568 L22.6059,452.8572 L28.7118,453.3433 L34.8176,453.5084 L40.9235,452.618 L47.0294,453.1265 L53.1353,452.8475 L59.2412,452.8819 L65.3471,453.1341 L71.4529,452.6356 L77.5588,453.6316 L83.6647,452.6844 L89.7706,453.0305 L95.8765,453.5342 L101.9824,453.1201 L108.0882,453.2433 L114.1941,453.1631 L120.3,453.1887 " fill="none" style="stroke:#181818;stroke-width:0.6;stroke-dasharray:2.0,2.0;"/><text fill="#000000" font-family="FG Virgil" font-size="7.8" lengthAdjust="spacing" textLength="90" x="23.7" y="450.0311">Show session info or error</text><!--SRC=[bLJBRjim4BppAnO-10uG_u1W632AfZNG5e6Dz9GB8QsjXILINT8sxA_lKX5bKN6IzaPoPsRVT7ioZMPTGwbDSMBo7WruFg1olQcsnkObsnh7baRdUxt3ZJzN28ov7zWAtEf3vH-jyR-qK1-_mM_Y7LK3Z2jrOKzaTh3LbKEbTEujm-JP8Kz0EtZUV5qhmNhAgT76mm-x8_EyQcqhcCyRHeV6Qq_MB1O9T7dmfPWeRurV68jmqzLtoRH23XBnE9_hfgawv0sPonftv3oV0wa_p-S7JnNvyuUEDyX7oZ4mWo5UFtDfcIwt-9T_4GZrMsDZ7Kavkw0RAnJk7qUCoK4esURiFDRNwhksDeMjDOrTJ1mw9vwp0DgydbjITnxoL6WZp1QXPPc4ykU0hcjbw3WTjKUnAJ7F0YgWCrYwFLG10sIsbkisKLNWa94gFx4zKe4GSZ4oSmylCcVEdImN3y2sGgTIyYfGun1aeA-Dms9wMqM29ncbTL2xlyfr8af5DH7k1oLHlhPqEk17hEf9i_T2kmeCYz4B32CO3boQtlzbDz1HobXvOTgL7knsvC9HBJEv9InWAmkE8hk7y8Prt5AbXfIsJ3AQcMYjsWNrvpwsf3wDLIrozYQl04zB8TYnbtQMCuYv_jG-Bz5DMP-U-lJHvBP0ldynTtT0RXa4fKiWjrAxfJbFtojGK5UjYxVXXJyJv5Tx_UA6ynj8upYJ7SyWPnHejrEFbWEdhS-eEv6Y4hxenNMCKcDoPrSHDtiRGxVfmz0ZA_NsQMUIIDFCasc_nUjf_Np7jH-Z-rrC_vDDQKynb_PB2Kr1PikZJ-Kl]--></g></svg>