<?xml version="1.0" encoding="us-ascii" standalone="no"?><svg xmlns="http://www.w3.org/2000/svg" xmlns:xlink="http://www.w3.org/1999/xlink" contentStyleType="text/css" height="411px" preserveAspectRatio="none" style="width:646px;height:411px;background:#FFFFFF;" version="1.1" viewBox="0 0 646 411" width="646px" zoomAndPan="magnify"><defs/><g><polygon fill="#FFFFFF" points="219.5,116.9121,219.5,116.9822,221.5,116.774,223.5,116.9765,225.5,117.0453,227.5,116.6743,229.5,116.9121,229.4223,116.9121,229.0735,127.1093,229.1165,137.3064,229.4318,147.5036,228.8086,157.7008,230.0536,167.8979,228.8697,178.0951,229.3022,188.2922,229.9319,198.4894,229.4142,208.6866,229.5682,218.8837,229.4681,229.0809,229.6785,239.2781,229.7391,249.4752,230.0857,259.6724,230.1711,269.8696,230.1793,280.0667,229.7546,290.2639,229.9636,300.461,229.5,310.6582,229.5,310.8923,227.5,310.4178,225.5,310.8844,223.5,310.5594,221.5,310.8361,219.5,310.6582,219.005,310.6582,219.4315,300.461,220.2416,290.2639,219.4513,280.0667,219.6053,269.8696,219.8386,259.6724,219.9162,249.4752,219.4961,239.2781,219.7872,229.0809,218.9276,218.8837,219.7844,208.6866,220.0482,198.4894,219.9445,188.2922,220.113,178.0951,219.0169,167.8979,218.8478,157.7008,218.8786,147.5036,219.4411,137.3064,219.3035,127.1093,219.5,116.9121" style="stroke:#181818;stroke-width:1.0;"/><polygon fill="#FFFFFF" points="379.5,148.2031,379.5,148.2732,381.5,148.065,383.5,148.2676,385.5,148.3364,387.5,147.9653,389.5,148.2031,389.4741,148.2031,389.3578,154.4613,389.3722,160.7195,389.4773,166.9777,389.2695,173.2359,389.5,179.4941,389.5,179.6787,387.5,179.284,385.5,179.4282,383.5,179.6381,381.5,179.4655,379.5,179.4941,379.5227,179.4941,379.4894,173.2359,379.5595,166.9777,379.5797,160.7195,379.6952,154.4613,379.5,148.2031" style="stroke:#181818;stroke-width:1.0;"/><polygon fill="#FFFFFF" points="515.5,210.7852,515.5,210.8552,517.5,210.647,519.5,210.8496,521.5,210.9184,523.5,210.5474,525.5,210.7852,525.4223,210.7852,525.0735,220.5826,525.1165,230.38,525.4318,240.1775,524.8086,249.9749,526.0536,259.7723,524.8697,269.5698,525.5,279.3672,525.5,279.3013,523.5,279.5112,521.5,279.3386,519.5,279.3899,517.5,279.3565,515.5,279.3672,515.6785,279.3672,515.7391,269.5698,516.0857,259.7723,516.1711,249.9749,516.1793,240.1775,515.7546,230.38,515.9636,220.5826,515.5,210.7852" style="stroke:#181818;stroke-width:1.0;"/><path d="M22,83.6211 L22.2802,83.6211 L21.4476,93.4226 L22.2577,103.2241 L22.5329,113.0255 L21.0488,122.827 L21.8964,132.6285 L21.4313,142.43 L21.4887,152.2315 L21.9091,162.033 L21.0782,171.8345 L22.7382,181.6359 L21.1596,191.4374 L21.7363,201.2389 L22.5759,211.0404 L21.8856,220.8419 L22.091,230.6434 L21.9574,240.4448 L22.238,250.2463 L22.3188,260.0478 L22.7809,269.8493 L22.8947,279.6508 L22.9057,289.4523 L22.3395,299.2537 L22.6181,309.0552 L22.9363,318.8567 L22,328.6582 " fill="none" style="stroke:#181818;stroke-width:0.5;stroke-dasharray:5.0,5.0;"/><path d="M224,83.6211 L224.2802,83.6211 L223.4476,93.4226 L224.2577,103.2241 L224.5329,113.0255 L223.0488,122.827 L223.8964,132.6285 L223.4313,142.43 L223.4887,152.2315 L223.9091,162.033 L223.0782,171.8345 L224.7382,181.6359 L223.1596,191.4374 L223.7363,201.2389 L224.5759,211.0404 L223.8856,220.8419 L224.091,230.6434 L223.9574,240.4448 L224.238,250.2463 L224.3188,260.0478 L224.7809,269.8493 L224.8947,279.6508 L224.9057,289.4523 L224.3395,299.2537 L224.6181,309.0552 L224.9363,318.8567 L224,328.6582 " fill="none" style="stroke:#181818;stroke-width:0.5;stroke-dasharray:5.0,5.0;"/><path d="M384,83.6211 L384.2802,83.6211 L383.4476,93.4226 L384.2577,103.2241 L384.5329,113.0255 L383.0488,122.827 L383.8964,132.6285 L383.4313,142.43 L383.4887,152.2315 L383.9091,162.033 L383.0782,171.8345 L384.7382,181.6359 L383.1596,191.4374 L383.7363,201.2389 L384.5759,211.0404 L383.8856,220.8419 L384.091,230.6434 L383.9574,240.4448 L384.238,250.2463 L384.3188,260.0478 L384.7809,269.8493 L384.8947,279.6508 L384.9057,289.4523 L384.3395,299.2537 L384.6181,309.0552 L384.9363,318.8567 L384,328.6582 " fill="none" style="stroke:#181818;stroke-width:0.5;stroke-dasharray:5.0,5.0;"/><path d="M520,83.6211 L520.2802,83.6211 L519.4476,93.4226 L520.2577,103.2241 L520.5329,113.0255 L519.0488,122.827 L519.8964,132.6285 L519.4313,142.43 L519.4887,152.2315 L519.9091,162.033 L519.0782,171.8345 L520.7382,181.6359 L519.1596,191.4374 L519.7363,201.2389 L520.5759,211.0404 L519.8856,220.8419 L520.091,230.6434 L519.9574,240.4448 L520.238,250.2463 L520.3188,260.0478 L520.7809,269.8493 L520.8947,279.6508 L520.9057,289.4523 L520.3395,299.2537 L520.6181,309.0552 L520.9363,318.8567 L520,328.6582 " fill="none" style="stroke:#181818;stroke-width:0.5;stroke-dasharray:5.0,5.0;"/><text fill="#000000" font-family="FG Virgil" font-size="14" lengthAdjust="spacing" textLength="29" x="5" y="80.1074">User</text><polygon fill="#E3E3E3" points="30.5442,15.4459,29.3715,17.0482,27.9845,19.3951,26.0008,20.9767,23.9163,21.8415,22.2542,21.9166,20.118,20.8349,18.1023,20.1283,16.5724,18.6936,15.7699,17.0511,15.2939,15.7433,14.8277,14.0351,14.0709,12.5651,14.6525,11.1298,15.162,9.5576,17.074,8.3142,18.4192,6.7008,20.0843,6.165,22.0637,5.7037,24.6021,5.9778,25.9924,6.6335,27.6089,6.9307,29.5743,8.9443,30.2595,11.0701,30.5571,12.5206,30.22,14.9108" style="stroke:#181818;stroke-width:0.5;"/><path d="M22.5,21.5 L22.6868,21.5 L22.1317,26.9 L22.6718,32.3 L22.8553,37.7 L21.8659,43.1 L22.5,48.5 M9.5,29.5 L9.5,29.4309 L14.7,29.1209 L19.9,29.1591 L25.1,29.4394 L30.3,28.8854 L35.5,29.5 M22.5,48.5 L22.8719,48.8223 L19.4766,51.1331 L17.1672,54.3849 L14.9901,57.7515 L12.0424,60.4501 L9.5,63.5 M22.5,48.5 L22.5458,48.5397 L25.0785,51.4814 L27.8199,54.6039 L30.4606,57.6392 L33.2934,60.841 L35.5,63.5 " fill="none" style="stroke:#181818;stroke-width:0.5;"/><text fill="#000000" font-family="FG Virgil" font-size="14" lengthAdjust="spacing" textLength="29" x="5" y="342.7656">User</text><polygon fill="#E3E3E3" points="30.5442,356.7252,29.3715,358.3275,27.9845,360.6744,26.0008,362.2559,23.9163,363.1208,22.2542,363.1959,20.118,362.1142,18.1023,361.4076,16.5724,359.9729,15.7699,358.3304,15.2939,357.0226,14.8277,355.3144,14.0709,353.8444,14.6525,352.4091,15.162,350.8369,17.074,349.5935,18.4192,347.9801,20.0843,347.4443,22.0637,346.983,24.6021,347.2571,25.9924,347.9128,27.6089,348.21,29.5743,350.2236,30.2595,352.3494,30.5571,353.7999,30.22,356.1901" style="stroke:#181818;stroke-width:0.5;"/><path d="M22.5,362.7793 L22.6868,362.7793 L22.1317,368.1793 L22.6718,373.5793 L22.8553,378.9793 L21.8659,384.3793 L22.5,389.7793 M9.5,370.7793 L9.5,370.7102 L14.7,370.4002 L19.9,370.4384 L25.1,370.7187 L30.3,370.1647 L35.5,370.7793 M22.5,389.7793 L22.8719,390.1016 L19.4766,392.4124 L17.1672,395.6642 L14.9901,399.0308 L12.0424,401.7294 L9.5,404.7793 M22.5,389.7793 L22.5458,389.819 L25.0785,392.7607 L27.8199,395.8832 L30.4606,398.9185 L33.2934,402.1203 L35.5,404.7793 " fill="none" style="stroke:#181818;stroke-width:0.5;"/><polygon fill="#E3E3E3" points="172.5,31.3789,172.5,31.5891,182.9,30.9646,193.3,31.5722,203.7,31.7786,214.1,30.6655,224.5,31.3012,234.9,30.9524,245.3,30.9954,255.7,31.3107,266.1,30.6875,276.5,31.3789,276.5706,31.5494,276.7732,31.3313,277.1819,31.6109,277.6158,31.9513,277.9033,31.9383,278.2678,32.1111,278.2888,32.1198,278.4044,32.4606,278.6156,32.841,278.7808,33.2023,279.0339,33.6001,279,33.8789,279.6711,33.8789,279.6793,43.1273,279.2546,52.3758,279.4636,61.6242,279.7022,70.8727,279,80.1211,278.7779,80.0291,279.0625,80.5612,278.6158,80.7904,278.7251,81.2498,278.2618,81.4722,278.2678,81.8889,278.259,81.8678,278.0088,82.2637,277.5544,82.1667,277.2205,82.3606,276.8967,82.5789,276.5,82.6211,276.5,83.0373,266.1,82.6172,255.7,82.9083,245.3,82.0487,234.9,82.9055,224.5,83.1693,214.1,83.0656,203.7,83.2341,193.3,82.138,182.9,81.9689,172.5,82.6211,172.4207,82.4297,172.1389,82.4565,171.7678,82.2677,171.5263,82.3916,171.0635,81.9815,170.7322,81.8889,170.6266,81.8451,170.6561,81.5644,170.234,81.0967,170.133,80.762,170.3463,80.5574,170,80.1211,170.4357,80.1211,170.7345,70.8727,169.6782,61.6242,170.3192,52.3758,170.5904,43.1273,170,33.8789,169.8545,33.8186,170.1169,33.5131,170.3317,33.1879,170.6401,32.9014,170.5845,32.4642,170.7322,32.1111,170.7912,32.2536,171.0151,31.7941,171.3529,31.6097,171.8571,31.8269,172.055,31.3046,172.5,31.3789" style="stroke:#181818;stroke-width:0.5;"/><text fill="#000000" font-family="FG Virgil" font-size="14" font-style="italic" lengthAdjust="spacing" textLength="95" x="177" y="53.4863">&#171;presentation&#187;</text><text fill="#000000" font-family="FG Virgil" font-size="14" lengthAdjust="spacing" textLength="56" x="196.5" y="72.1074">LogoutUI</text><polygon fill="#E3E3E3" points="172.5,327.6582,172.5,327.8684,182.9,327.2439,193.3,327.8515,203.7,328.0579,214.1,326.9448,224.5,327.5805,234.9,327.2317,245.3,327.2747,255.7,327.59,266.1,326.9668,276.5,327.6582,276.5706,327.8287,276.7732,327.6105,277.1819,327.8902,277.6158,328.2306,277.9033,328.2176,278.2678,328.3904,278.2888,328.3991,278.4044,328.7399,278.6156,329.1203,278.7808,329.4816,279.0339,329.8794,279,330.1582,279.6711,330.1582,279.6793,339.4066,279.2546,348.6551,279.4636,357.9035,279.7022,367.152,279,376.4004,278.7779,376.3084,279.0625,376.8405,278.6158,377.0697,278.7251,377.5291,278.2618,377.7515,278.2678,378.1682,278.259,378.1471,278.0088,378.543,277.5544,378.446,277.2205,378.6399,276.8967,378.8582,276.5,378.9004,276.5,379.3166,266.1,378.8965,255.7,379.1876,245.3,378.328,234.9,379.1848,224.5,379.4486,214.1,379.3449,203.7,379.5134,193.3,378.4173,182.9,378.2482,172.5,378.9004,172.4207,378.709,172.1389,378.7358,171.7678,378.547,171.5263,378.6709,171.0635,378.2608,170.7322,378.1682,170.6266,378.1244,170.6561,377.8437,170.234,377.376,170.133,377.0413,170.3463,376.8367,170,376.4004,170.4357,376.4004,170.7345,367.152,169.6782,357.9035,170.3192,348.6551,170.5904,339.4066,170,330.1582,169.8545,330.0979,170.1169,329.7924,170.3317,329.4672,170.6401,329.1807,170.5845,328.7435,170.7322,328.3904,170.7912,328.5329,171.0151,328.0734,171.3529,327.889,171.8571,328.1062,172.055,327.5839,172.5,327.6582" style="stroke:#181818;stroke-width:0.5;"/><text fill="#000000" font-family="FG Virgil" font-size="14" font-style="italic" lengthAdjust="spacing" textLength="95" x="177" y="349.7656">&#171;presentation&#187;</text><text fill="#000000" font-family="FG Virgil" font-size="14" lengthAdjust="spacing" textLength="56" x="196.5" y="368.3867">LogoutUI</text><polygon fill="#E3E3E3" points="336.5,31.3789,336.5,31.5891,346.1,30.9646,355.7,31.5722,365.3,31.7786,374.9,30.6655,384.5,31.3012,394.1,30.9524,403.7,30.9954,413.3,31.3107,422.9,30.6875,432.5,31.3789,432.5706,31.5494,432.7732,31.3313,433.1819,31.6109,433.6158,31.9513,433.9033,31.9383,434.2678,32.1111,434.2888,32.1198,434.4044,32.4606,434.6156,32.841,434.7808,33.2023,435.0339,33.6001,435,33.8789,435.6711,33.8789,435.6793,43.1273,435.2546,52.3758,435.4636,61.6242,435.7022,70.8727,435,80.1211,434.7779,80.0291,435.0625,80.5612,434.6158,80.7904,434.7251,81.2498,434.2618,81.4722,434.2678,81.8889,434.259,81.8678,434.0088,82.2637,433.5544,82.1667,433.2205,82.3606,432.8967,82.5789,432.5,82.6211,432.5,83.0373,422.9,82.6172,413.3,82.9083,403.7,82.0487,394.1,82.9055,384.5,83.1693,374.9,83.0656,365.3,83.2341,355.7,82.138,346.1,81.9689,336.5,82.6211,336.4207,82.4297,336.1389,82.4565,335.7678,82.2677,335.5263,82.3916,335.0635,81.9815,334.7322,81.8889,334.6266,81.8451,334.6561,81.5644,334.234,81.0967,334.133,80.762,334.3463,80.5574,334,80.1211,334.4357,80.1211,334.7345,70.8727,333.6782,61.6242,334.3192,52.3758,334.5904,43.1273,334,33.8789,333.8545,33.8186,334.1169,33.5131,334.3317,33.1879,334.6401,32.9014,334.5845,32.4642,334.7322,32.1111,334.7912,32.2536,335.0151,31.7941,335.3529,31.6097,335.8571,31.8269,336.055,31.3046,336.5,31.3789" style="stroke:#181818;stroke-width:0.5;"/><text fill="#000000" font-family="FG Virgil" font-size="14" font-style="italic" lengthAdjust="spacing" textLength="48" x="360.5" y="53.4863">&#171;utility&#187;</text><text fill="#000000" font-family="FG Virgil" font-size="14" lengthAdjust="spacing" textLength="87" x="341" y="72.1074">AuthzRegistry</text><polygon fill="#E3E3E3" points="336.5,327.6582,336.5,327.8684,346.1,327.2439,355.7,327.8515,365.3,328.0579,374.9,326.9448,384.5,327.5805,394.1,327.2317,403.7,327.2747,413.3,327.59,422.9,326.9668,432.5,327.6582,432.5706,327.8287,432.7732,327.6105,433.1819,327.8902,433.6158,328.2306,433.9033,328.2176,434.2678,328.3904,434.2888,328.3991,434.4044,328.7399,434.6156,329.1203,434.7808,329.4816,435.0339,329.8794,435,330.1582,435.6711,330.1582,435.6793,339.4066,435.2546,348.6551,435.4636,357.9035,435.7022,367.152,435,376.4004,434.7779,376.3084,435.0625,376.8405,434.6158,377.0697,434.7251,377.5291,434.2618,377.7515,434.2678,378.1682,434.259,378.1471,434.0088,378.543,433.5544,378.446,433.2205,378.6399,432.8967,378.8582,432.5,378.9004,432.5,379.3166,422.9,378.8965,413.3,379.1876,403.7,378.328,394.1,379.1848,384.5,379.4486,374.9,379.3449,365.3,379.5134,355.7,378.4173,346.1,378.2482,336.5,378.9004,336.4207,378.709,336.1389,378.7358,335.7678,378.547,335.5263,378.6709,335.0635,378.2608,334.7322,378.1682,334.6266,378.1244,334.6561,377.8437,334.234,377.376,334.133,377.0413,334.3463,376.8367,334,376.4004,334.4357,376.4004,334.7345,367.152,333.6782,357.9035,334.3192,348.6551,334.5904,339.4066,334,330.1582,333.8545,330.0979,334.1169,329.7924,334.3317,329.4672,334.6401,329.1807,334.5845,328.7435,334.7322,328.3904,334.7912,328.5329,335.0151,328.0734,335.3529,327.889,335.8571,328.1062,336.055,327.5839,336.5,327.6582" style="stroke:#181818;stroke-width:0.5;"/><text fill="#000000" font-family="FG Virgil" font-size="14" font-style="italic" lengthAdjust="spacing" textLength="48" x="360.5" y="349.7656">&#171;utility&#187;</text><text fill="#000000" font-family="FG Virgil" font-size="14" lengthAdjust="spacing" textLength="87" x="341" y="368.3867">AuthzRegistry</text><polygon fill="#E3E3E3" points="447.5,31.3789,447.5,31.5891,457.2333,30.9646,466.9667,31.5722,476.7,31.7786,486.4333,30.6655,496.1667,31.3012,505.9,30.9524,515.6333,30.9954,525.3667,31.3107,535.1,30.6875,544.8333,31.9325,554.5667,30.7486,564.3,31.1811,574.0333,31.8109,583.7667,31.2931,593.5,31.3789,593.5087,31.3999,593.8495,31.5155,594.2299,31.7268,594.5912,31.8919,594.9889,32.1451,595.2678,32.1111,595.4744,32.1967,595.6234,32.5513,595.6391,32.8507,595.8499,33.2309,596.0698,33.6149,596,33.8789,595.2788,33.8789,596.6785,43.1273,595.7035,52.3758,596.5338,61.6242,595.505,70.8727,596,80.1211,595.9789,80.1124,596.0819,80.5692,595.6921,80.822,595.5931,81.1952,595.5185,81.5785,595.2678,81.8889,595.3209,82.017,594.9137,82.0341,594.5973,82.2702,594.1341,82.1519,593.8898,82.5622,593.5,82.6211,593.5,83.1693,583.7667,83.0656,574.0333,83.2341,564.3,82.138,554.5667,81.9689,544.8333,81.9997,535.1,82.5622,525.3667,82.4246,515.6333,83.3025,505.9,82.4464,496.1667,82.278,486.4333,82.8494,476.7,81.9543,466.9667,82.102,457.2333,83.27,447.5,82.6211,447.5556,82.7553,447.2401,82.7008,446.7518,82.2291,446.4801,82.2801,446.1611,82.2171,445.7322,81.8889,445.5868,81.8286,445.5563,81.5231,445.4781,81.1978,445.4936,80.9113,445.1452,80.4741,445,80.1211,445.4626,80.1211,444.4462,70.8727,444.3227,61.6242,445.5036,52.3758,444.2831,43.1273,445,33.8789,445.1567,33.9438,445.2101,33.5517,445.2104,33.1376,445.3304,32.7731,445.7271,32.5232,445.7322,32.1111,445.694,32.019,446.1613,32.147,446.3688,31.648,446.8717,31.8619,447.2082,31.6745,447.5,31.3789" style="stroke:#181818;stroke-width:0.5;"/><text fill="#000000" font-family="FG Virgil" font-size="14" font-style="italic" lengthAdjust="spacing" textLength="84" x="478.5" y="53.4863">&#171;application&#187;</text><text fill="#000000" font-family="FG Virgil" font-size="14" lengthAdjust="spacing" textLength="137" x="452" y="72.1074">AuthenticationService</text><polygon fill="#E3E3E3" points="447.5,327.6582,447.5,327.8684,457.2333,327.2439,466.9667,327.8515,476.7,328.0579,486.4333,326.9448,496.1667,327.5805,505.9,327.2317,515.6333,327.2747,525.3667,327.59,535.1,326.9668,544.8333,328.2118,554.5667,327.0279,564.3,327.4604,574.0333,328.0902,583.7667,327.5724,593.5,327.6582,593.5087,327.6792,593.8495,327.7948,594.2299,328.0061,594.5912,328.1712,594.9889,328.4244,595.2678,328.3904,595.4744,328.476,595.6234,328.8306,595.6391,329.13,595.8499,329.5102,596.0698,329.8942,596,330.1582,595.2788,330.1582,596.6785,339.4066,595.7035,348.6551,596.5338,357.9035,595.505,367.152,596,376.4004,595.9789,376.3917,596.0819,376.8485,595.6921,377.1013,595.5931,377.4745,595.5185,377.8578,595.2678,378.1682,595.3209,378.2963,594.9137,378.3134,594.5973,378.5495,594.1341,378.4312,593.8898,378.8415,593.5,378.9004,593.5,379.4486,583.7667,379.3449,574.0333,379.5134,564.3,378.4173,554.5667,378.2482,544.8333,378.279,535.1,378.8415,525.3667,378.7039,515.6333,379.5818,505.9,378.7257,496.1667,378.5573,486.4333,379.1287,476.7,378.2336,466.9667,378.3813,457.2333,379.5493,447.5,378.9004,447.5556,379.0346,447.2401,378.9801,446.7518,378.5084,446.4801,378.5594,446.1611,378.4964,445.7322,378.1682,445.5868,378.1079,445.5563,377.8024,445.4781,377.4771,445.4936,377.1906,445.1452,376.7534,445,376.4004,445.4626,376.4004,444.4462,367.152,444.3227,357.9035,445.5036,348.6551,444.2831,339.4066,445,330.1582,445.1567,330.2231,445.2101,329.831,445.2104,329.4169,445.3304,329.0524,445.7271,328.8025,445.7322,328.3904,445.694,328.2983,446.1613,328.4263,446.3688,327.9273,446.8717,328.1412,447.2082,327.9538,447.5,327.6582" style="stroke:#181818;stroke-width:0.5;"/><text fill="#000000" font-family="FG Virgil" font-size="14" font-style="italic" lengthAdjust="spacing" textLength="84" x="478.5" y="349.7656">&#171;application&#187;</text><text fill="#000000" font-family="FG Virgil" font-size="14" lengthAdjust="spacing" textLength="137" x="452" y="368.3867">AuthenticationService</text><polygon fill="#FFFFFF" points="219.5,116.9121,219.5,116.9822,221.5,116.774,223.5,116.9765,225.5,117.0453,227.5,116.6743,229.5,116.9121,229.4223,116.9121,229.0735,127.1093,229.1165,137.3064,229.4318,147.5036,228.8086,157.7008,230.0536,167.8979,228.8697,178.0951,229.3022,188.2922,229.9319,198.4894,229.4142,208.6866,229.5682,218.8837,229.4681,229.0809,229.6785,239.2781,229.7391,249.4752,230.0857,259.6724,230.1711,269.8696,230.1793,280.0667,229.7546,290.2639,229.9636,300.461,229.5,310.6582,229.5,310.8923,227.5,310.4178,225.5,310.8844,223.5,310.5594,221.5,310.8361,219.5,310.6582,219.005,310.6582,219.4315,300.461,220.2416,290.2639,219.4513,280.0667,219.6053,269.8696,219.8386,259.6724,219.9162,249.4752,219.4961,239.2781,219.7872,229.0809,218.9276,218.8837,219.7844,208.6866,220.0482,198.4894,219.9445,188.2922,220.113,178.0951,219.0169,167.8979,218.8478,157.7008,218.8786,147.5036,219.4411,137.3064,219.3035,127.1093,219.5,116.9121" style="stroke:#181818;stroke-width:1.0;"/><polygon fill="#FFFFFF" points="379.5,148.2031,379.5,148.2732,381.5,148.065,383.5,148.2676,385.5,148.3364,387.5,147.9653,389.5,148.2031,389.4741,148.2031,389.3578,154.4613,389.3722,160.7195,389.4773,166.9777,389.2695,173.2359,389.5,179.4941,389.5,179.6787,387.5,179.284,385.5,179.4282,383.5,179.6381,381.5,179.4655,379.5,179.4941,379.5227,179.4941,379.4894,173.2359,379.5595,166.9777,379.5797,160.7195,379.6952,154.4613,379.5,148.2031" style="stroke:#181818;stroke-width:1.0;"/><polygon fill="#FFFFFF" points="515.5,210.7852,515.5,210.8552,517.5,210.647,519.5,210.8496,521.5,210.9184,523.5,210.5474,525.5,210.7852,525.4223,210.7852,525.0735,220.5826,525.1165,230.38,525.4318,240.1775,524.8086,249.9749,526.0536,259.7723,524.8697,269.5698,525.5,279.3672,525.5,279.3013,523.5,279.5112,521.5,279.3386,519.5,279.3899,517.5,279.3565,515.5,279.3672,515.6785,279.3672,515.7391,269.5698,516.0857,259.7723,516.1711,249.9749,516.1793,240.1775,515.7546,230.38,515.9636,220.5826,515.5,210.7852" style="stroke:#181818;stroke-width:1.0;"/><polygon fill="#181818" points="207.5,112.9121,207.526,112.9772,209.4487,113.5839,211.5239,114.5719,213.5495,115.4358,215.4117,115.8913,217.5,116.9121,217.4904,116.8881,215.4472,117.5801,213.4525,118.3934,211.4916,119.291,209.4144,119.8981,207.5,120.9121,207.6305,121.0426,208.1514,119.9636,209.0534,119.2655,210.0018,118.6139,210.6798,117.6919,211.5,116.9121,211.5161,116.9282,210.6925,116.1046,209.9421,115.3542,209.1564,114.5685,208.438,113.8502,207.5,112.9121" style="stroke:#181818;stroke-width:1.0;"/><path d="M22.5,116.9121 L22.5,117.1924 L32.5526,116.3597 L42.6053,117.1698 L52.6579,117.445 L62.7105,115.9609 L72.7632,116.8085 L82.8158,116.3435 L92.8684,116.4008 L102.9211,116.8212 L112.9737,115.9903 L123.0263,117.6503 L133.0789,116.0717 L143.1316,116.6484 L153.1842,117.488 L163.2368,116.7977 L173.2895,117.0031 L183.3421,116.8695 L193.3947,117.1501 L203.4474,117.231 L213.5,116.9121 " fill="none" style="stroke:#181818;stroke-width:1.0;"/><text fill="#000000" font-family="FG Virgil" font-size="13" lengthAdjust="spacing" textLength="91" x="29.5" y="111.6494">Request Logout</text><polygon fill="#181818" points="367.5,144.2031,367.526,144.2682,369.4487,144.8749,371.5239,145.8629,373.5495,146.7268,375.4117,147.1823,377.5,148.2031,377.4904,148.1791,375.4472,148.8711,373.4525,149.6844,371.4916,150.582,369.4144,151.1892,367.5,152.2031,367.6305,152.3336,368.1514,151.2546,369.0534,150.5565,370.0018,149.9049,370.6798,148.9829,371.5,148.2031,371.5161,148.2192,370.6925,147.3956,369.9421,146.6452,369.1564,145.8595,368.438,145.1412,367.5,144.2031" style="stroke:#181818;stroke-width:1.0;"/><path d="M229.5,148.2031 L229.5,148.4834 L239.7857,147.6507 L250.0714,148.4608 L260.3571,148.736 L270.6429,147.2519 L280.9286,148.0995 L291.2143,147.6345 L301.5,147.6918 L311.7857,148.1122 L322.0714,147.2813 L332.3571,148.9413 L342.6429,147.3628 L352.9286,147.9394 L363.2143,148.7791 L373.5,148.2031 " fill="none" style="stroke:#181818;stroke-width:1.0;"/><text fill="#000000" font-family="FG Virgil" font-size="13" lengthAdjust="spacing" textLength="131" x="236.5" y="142.9404">authenticationService()</text><polygon fill="#181818" points="240.5,175.4941,240.526,175.5592,238.4487,176.1659,236.5239,177.154,234.5495,178.0178,232.4117,178.4734,230.5,179.4941,230.4904,179.4701,232.4472,180.1621,234.4525,180.9755,236.4916,181.873,238.4144,182.4802,240.5,183.4941,240.6305,183.6246,239.5514,182.5456,238.8534,181.8475,238.2018,181.196,237.2798,180.2739,236.5,179.4941,236.5161,179.5102,237.2925,178.6866,238.1421,177.9362,238.9564,177.1505,239.838,176.4322,240.5,175.4941" style="stroke:#181818;stroke-width:1.0;"/><path d="M234.5,179.4941 L234.5,179.7744 L244.4333,178.9417 L254.3667,179.7519 L264.3,180.027 L274.2333,178.5429 L284.1667,179.3905 L294.1,178.9255 L304.0333,178.9828 L313.9667,179.4033 L323.9,178.5723 L333.8333,180.2323 L343.7667,178.6538 L353.7,179.2305 L363.6333,180.0701 L373.5667,179.3798 L383.5,179.4941 " fill="none" style="stroke:#181818;stroke-width:1.0;stroke-dasharray:2.0,2.0;"/><text fill="#000000" font-family="FG Virgil" font-size="13" lengthAdjust="spacing" textLength="123" x="246.5" y="174.2314">authenticationService</text><polygon fill="#181818" points="503.5,206.7852,503.526,206.8502,505.4487,207.4569,507.5239,208.445,509.5495,209.3089,511.4117,209.7644,513.5,210.7852,513.4904,210.7611,511.4472,211.4532,509.4525,212.2665,507.4916,213.1641,505.4144,213.7712,503.5,214.7852,503.6305,214.9157,504.1514,213.8366,505.0534,213.1385,506.0018,212.487,506.6798,211.5649,507.5,210.7852,507.5161,210.8012,506.6925,209.9776,505.9421,209.2272,505.1564,208.4415,504.438,207.7232,503.5,206.7852" style="stroke:#181818;stroke-width:1.0;"/><path d="M229.5,210.7852 L229.5,211.0654 L239.5,210.2327 L249.5,211.0429 L259.5,211.3181 L269.5,209.834 L279.5,210.6815 L289.5,210.2165 L299.5,210.2738 L309.5,210.6943 L319.5,209.8633 L329.5,211.5233 L339.5,209.9448 L349.5,210.5215 L359.5,211.3611 L369.5,210.6708 L379.5,210.8761 L389.5,210.7426 L399.5,211.0232 L409.5,211.104 L419.5,211.5661 L429.5,211.6799 L439.5,211.6908 L449.5,211.1247 L459.5,211.4033 L469.5,211.7215 L479.5,209.8236 L489.5,211.6898 L499.5,210.3898 L509.5,210.7852 " fill="none" style="stroke:#181818;stroke-width:1.0;"/><text fill="#000000" font-family="FG Virgil" font-size="13" lengthAdjust="spacing" textLength="83" x="236.5" y="205.5225">clearSession()</text><path d="M530,223.7852 L530.1868,223.7852 L529.6317,232.5852 L530.1718,241.3852 L530.3553,250.1852 L529.3659,258.9852 L530,267.7852 L530,267.5779 L539.9091,266.6478 L549.8182,266.7625 L559.7273,267.6034 L569.6364,265.9415 L579.5455,269.2615 L589.4545,266.1044 L599.3636,267.2578 L609.2727,268.937 L619.1818,267.5564 L629.0909,267.9671 L639,267.7852 L638.9716,267.7852 L639.1587,260.9852 L639.2126,254.1852 L639.5206,247.3852 L639.5965,240.5852 L639,233.7852 L639.4269,234.2121 L637.16,231.9452 L635.2914,230.0765 L633.4414,228.2265 L630.5467,225.3319 L629,223.7852 L629,225.5945 L619.1,222.9945 L609.2,225.2087 L599.3,222.4651 L589.4,223.6025 L579.5,225.7628 L569.6,223.6552 L559.7,224.066 L549.8,224.6882 L539.9,224.8951 L530,223.7852 " fill="#FAFAFA" style="stroke:#181818;stroke-width:0.5;"/><path d="M629,223.7852 L628.9965,223.7852 L629.2553,225.7852 L628.4912,227.7852 L629.2528,229.7852 L629.4873,231.7852 L629,233.7852 L629,234.1803 L631,234.3301 L633,233.3558 L635,233.2054 L637,233.2328 L639,233.7852 L638.963,233.7481 L636.8765,231.6616 L635.4283,230.2135 L632.8902,227.6754 L630.7844,225.5695 L629,223.7852 " fill="#FAFAFA" style="stroke:#181818;stroke-width:0.5;"/><text fill="#000000" font-family="FG Virgil" font-size="13" lengthAdjust="spacing" textLength="59" x="536" y="242.8135">framework</text><text fill="#000000" font-family="FG Virgil" font-size="13" lengthAdjust="spacing" textLength="88" x="536" y="260.1045">implementation</text><polygon fill="#181818" points="240.5,275.3672,240.526,275.4322,238.4487,276.039,236.5239,277.027,234.5495,277.8909,232.4117,278.3464,230.5,279.3672,230.4904,279.3431,232.4472,280.0352,234.4525,280.8485,236.4916,281.7461,238.4144,282.3532,240.5,283.3672,240.6305,283.4977,239.5514,282.4186,238.8534,281.7206,238.2018,281.069,237.2798,280.147,236.5,279.3672,236.5161,279.3833,237.2925,278.5597,238.1421,277.8093,238.9564,277.0236,239.838,276.3052,240.5,275.3672" style="stroke:#181818;stroke-width:1.0;"/><path d="M234.5,279.3672 L234.5,279.6474 L244.3276,278.8148 L254.1552,279.6249 L263.9828,279.9001 L273.8103,278.416 L283.6379,279.2636 L293.4655,278.7985 L303.2931,278.8559 L313.1207,279.2763 L322.9483,278.4454 L332.7759,280.1054 L342.6034,278.5268 L352.431,279.1035 L362.2586,279.9431 L372.0862,279.2528 L381.9138,279.4582 L391.7414,279.3246 L401.569,279.6052 L411.3966,279.686 L421.2241,280.1481 L431.0517,280.2619 L440.8793,280.2729 L450.7069,279.7067 L460.5345,279.9853 L470.3621,280.3035 L480.1897,278.4056 L490.0172,280.2719 L499.8448,278.9718 L509.6724,280.0789 L519.5,279.3672 " fill="none" style="stroke:#181818;stroke-width:1.0;stroke-dasharray:2.0,2.0;"/><polygon fill="#181818" points="33.5,306.6582,33.526,306.7233,31.4487,307.33,29.5239,308.318,27.5495,309.1819,25.4117,309.6374,23.5,310.6582,23.4904,310.6342,25.4472,311.3262,27.4525,312.1395,29.4916,313.0371,31.4144,313.6442,33.5,314.6582,33.6305,314.7887,32.5514,313.7096,31.8534,313.0116,31.2018,312.36,30.2798,311.438,29.5,310.6582,29.5161,310.6743,30.2925,309.8507,31.1421,309.1003,31.9564,308.3146,32.838,307.5963,33.5,306.6582" style="stroke:#181818;stroke-width:1.0;"/><path d="M27.5,310.6582 L27.5,310.9384 L37.3,310.1058 L47.1,310.9159 L56.9,311.1911 L66.7,309.707 L76.5,310.5546 L86.3,310.0895 L96.1,310.1469 L105.9,310.5673 L115.7,309.7364 L125.5,311.3964 L135.3,309.8178 L145.1,310.3945 L154.9,311.2341 L164.7,310.5438 L174.5,310.7492 L184.3,310.6156 L194.1,310.8962 L203.9,310.977 L213.7,311.4391 L223.5,310.6582 " fill="none" style="stroke:#181818;stroke-width:1.0;stroke-dasharray:2.0,2.0;"/><text fill="#000000" font-family="FG Virgil" font-size="13" lengthAdjust="spacing" textLength="173" x="39.5" y="305.3955">Show logout message or error</text><!--SRC=[RLAzRiCW4DvvYbEcTiWBM5Qa3aqLgUeGAvswdF3PHi7W7kTOwTCNejWbQJRW- -KW78qRaB673bqziH4X1y8ZgR10lNTUT-nxkaS6r4TigPAp9M3Iac4rDJXQsNed7nYbspVuDDmQct52XxMVZ6kXGHj8ATJY6LQ7GBm2372eNlSgSiLeCw0JUFUj7-Mmku0xACk1AP0J5EFTPdF3VHcb-zbJQuBmEGcMTLcEOgoHymD5D3FwObSHduocf4p0l2rB70PxvKG3bKh2UfFw537ZUwGm5qqNCYSKYc0axX9jQL40FifxUlvJpLorYDPpq4Ejgkc_zfgRtw40RGcveX2YE4_CM4ev7q_Oj9s0R-uCclY0D7a-VZdJ3vRw-HMKoebptxpPJKOgbpXfY0LKdP_0NcO7VMmNVnV47q7CddEBECvV]--></g></svg>