<?xml version="1.0" encoding="us-ascii" standalone="no"?><svg xmlns="http://www.w3.org/2000/svg" xmlns:xlink="http://www.w3.org/1999/xlink" contentStyleType="text/css" height="598px" preserveAspectRatio="none" style="width:861px;height:598px;background:#FFFFFF;" version="1.1" viewBox="0 0 861 598" width="861px" zoomAndPan="magnify"><defs/><g><polygon fill="#FFFFFF" points="215.5,121.5332,215.5,121.6033,217.5,121.3951,219.5,121.5976,221.5,121.6664,223.5,121.2954,225.5,121.5332,225.4223,121.5332,225.0735,131.5191,225.1165,141.505,225.4318,151.4909,224.8086,161.4768,226.0536,171.4627,224.8697,181.4486,225.3022,191.4345,225.9319,201.4204,225.4142,211.4063,225.5682,221.3921,225.4681,231.378,225.6785,241.3639,225.7391,251.3498,226.0857,261.3357,226.1711,271.3216,226.1793,281.3075,225.7546,291.2934,225.9636,301.2793,226.2022,311.2652,224.7788,321.2511,226.1785,331.237,225.2035,341.2229,226.0338,351.2088,225.005,361.1947,225.4315,371.1806,226.2416,381.1664,225.4513,391.1523,225.6053,401.1382,225.8386,411.1241,225.9162,421.11,225.4961,431.0959,225.7872,441.0818,224.9276,451.0677,225.7844,461.0536,226.0482,471.0395,225.5,481.0254,225.5,481.1736,223.5,481.2297,221.5,480.8644,219.5,480.808,217.5,480.8183,215.5,481.0254,215.4411,481.0254,215.3035,471.0395,216.1814,461.0536,215.3253,451.0677,215.1569,441.0818,215.7283,431.0959,214.8332,421.11,214.9809,411.1241,216.149,401.1382,215.9357,391.1523,216.2345,381.1664,215.1782,371.1806,215.8192,361.1947,216.0904,351.2088,215.0276,341.2229,215.4041,331.237,215.626,321.2511,216.1518,311.2652,215.4958,301.2793,215.9626,291.2934,214.9462,281.3075,214.8227,271.3216,216.0036,261.3357,214.7831,251.3498,216.009,241.3639,215.7066,231.378,215.2321,221.3921,215.1462,211.4063,215.9588,201.4204,215.2007,191.4345,216.0919,181.4486,214.9473,171.4627,216.1174,161.4768,215.9843,151.4909,215.745,141.505,215.5472,131.5191,215.5,121.5332" style="stroke:#181818;stroke-width:1.0;"/><polygon fill="#FFFFFF" points="424.5,184.1152,424.5,184.1853,426.5,183.9771,428.5,184.1797,430.5,184.2485,432.5,183.8774,434.5,184.1152,434.4223,184.1152,434.0735,193.953,434.1165,203.7907,434.4318,213.6285,433.8086,223.4662,435.0536,233.304,433.8697,243.1417,434.3022,252.9795,434.9319,262.8172,434.4142,272.6549,434.5682,282.4927,434.4681,292.3304,434.6785,302.1682,434.7391,312.0059,435.0857,321.8437,435.1711,331.6814,435.1793,341.5192,434.7546,351.3569,434.9636,361.1947,435.2022,371.0324,433.7788,380.8702,435.1785,390.7079,434.2035,400.5456,435.0338,410.3834,434.005,420.2211,434.4315,430.0589,435.2416,439.8966,434.5,449.7344,434.5,449.7181,432.5,449.7695,430.5,449.8473,428.5,449.8731,426.5,449.7331,424.5,449.7344,424.7872,449.7344,423.9276,439.8966,424.7844,430.0589,425.0482,420.2211,424.9445,410.3834,425.113,400.5456,424.0169,390.7079,423.8478,380.8702,423.8786,371.0324,424.4411,361.1947,424.3035,351.3569,425.1814,341.5192,424.3253,331.6814,424.1569,321.8437,424.7283,312.0059,423.8332,302.1682,423.9809,292.3304,425.149,282.4927,424.9357,272.6549,425.2345,262.8172,424.1782,252.9795,424.8192,243.1417,425.0904,233.304,424.0276,223.4662,424.4041,213.6285,424.626,203.7907,425.1518,193.953,424.5,184.1152" style="stroke:#181818;stroke-width:1.0;"/><polygon fill="#FFFFFF" points="602,269.9883,602,270.0583,604,269.8502,606,270.0527,608,270.1215,610,269.7505,612,269.9883,611.9223,269.9883,611.5735,279.8853,611.6165,289.7823,611.9318,299.6793,611.3086,309.5763,612.5536,319.4733,611.3697,329.3703,611.8022,339.2673,612.4319,349.1643,611.9142,359.0613,612.0682,368.9583,611.9681,378.8553,612.1785,388.7523,612.2391,398.6493,612.5857,408.5464,612,418.4434,612,418.667,610,418.6698,608,418.5282,606,418.5979,604,418.6774,602,418.4434,601.2788,418.4434,602.6785,408.5464,601.7035,398.6493,602.5338,388.7523,601.505,378.8553,601.9315,368.9583,602.7416,359.0613,601.9513,349.1643,602.1053,339.2673,602.3386,329.3703,602.4162,319.4733,601.9961,309.5763,602.2872,299.6793,601.4276,289.7823,602.2844,279.8853,602,269.9883" style="stroke:#181818;stroke-width:1.0;"/><polygon fill="#FFFFFF" points="804.5,355.8613,804.5,355.9314,806.5,355.7232,808.5,355.9258,810.5,355.9946,812.5,355.6235,814.5,355.8613,814.4741,355.8613,814.3578,362.1195,814.3722,368.3777,814.4773,374.6359,814.2695,380.8941,814.5,387.1523,814.5,387.3369,812.5,386.9423,810.5,387.0864,808.5,387.2963,806.5,387.1238,804.5,387.1523,804.5227,387.1523,804.4894,380.8941,804.5595,374.6359,804.5797,368.3777,804.6952,362.1195,804.5,355.8613" style="stroke:#181818;stroke-width:1.0;"/><path d="M53,88.2422 L53.2802,88.2422 L52.4476,98.2613 L53.2577,108.2804 L53.5329,118.2995 L52.0488,128.3186 L52.8964,138.3377 L52.4313,148.3568 L52.4887,158.3759 L52.9091,168.395 L52.0782,178.4141 L53.7382,188.4332 L52.1596,198.4523 L52.7363,208.4714 L53.5759,218.4905 L52.8856,228.5096 L53.091,238.5287 L52.9574,248.5478 L53.238,258.5669 L53.3188,268.586 L53.7809,278.6051 L53.8947,288.6242 L53.9057,298.6433 L53.3395,308.6624 L53.6181,318.6815 L53.9363,328.7006 L52.0384,338.7198 L53.9047,348.7389 L52.6047,358.758 L53.7117,368.7771 L52.34,378.7962 L52.9087,388.8153 L53.9888,398.8344 L52.935,408.8535 L53.1404,418.8726 L53.4515,428.8917 L53.555,438.9108 L52.9948,448.9299 L53.383,458.949 L52.2368,468.9681 L53.3792,478.9872 L53.7309,489.0063 L53,499.0254 " fill="none" style="stroke:#181818;stroke-width:0.5;stroke-dasharray:5.0,5.0;"/><path d="M220.5,88.2422 L220.7802,88.2422 L219.9476,98.2613 L220.7577,108.2804 L221.0329,118.2995 L219.5488,128.3186 L220.3964,138.3377 L219.9313,148.3568 L219.9887,158.3759 L220.4091,168.395 L219.5782,178.4141 L221.2382,188.4332 L219.6596,198.4523 L220.2363,208.4714 L221.0759,218.4905 L220.3856,228.5096 L220.591,238.5287 L220.4574,248.5478 L220.738,258.5669 L220.8188,268.586 L221.2809,278.6051 L221.3947,288.6242 L221.4057,298.6433 L220.8395,308.6624 L221.1181,318.6815 L221.4363,328.7006 L219.5384,338.7198 L221.4047,348.7389 L220.1047,358.758 L221.2117,368.7771 L219.84,378.7962 L220.4087,388.8153 L221.4888,398.8344 L220.435,408.8535 L220.6404,418.8726 L220.9515,428.8917 L221.055,438.9108 L220.4948,448.9299 L220.883,458.949 L219.7368,468.9681 L220.8792,478.9872 L221.2309,489.0063 L220.5,499.0254 " fill="none" style="stroke:#181818;stroke-width:0.5;stroke-dasharray:5.0,5.0;"/><path d="M429.5,88.2422 L429.7802,88.2422 L428.9476,98.2613 L429.7577,108.2804 L430.0329,118.2995 L428.5488,128.3186 L429.3964,138.3377 L428.9313,148.3568 L428.9887,158.3759 L429.4091,168.395 L428.5782,178.4141 L430.2382,188.4332 L428.6596,198.4523 L429.2363,208.4714 L430.0759,218.4905 L429.3856,228.5096 L429.591,238.5287 L429.4574,248.5478 L429.738,258.5669 L429.8188,268.586 L430.2809,278.6051 L430.3947,288.6242 L430.4057,298.6433 L429.8395,308.6624 L430.1181,318.6815 L430.4363,328.7006 L428.5384,338.7198 L430.4047,348.7389 L429.1047,358.758 L430.2117,368.7771 L428.84,378.7962 L429.4087,388.8153 L430.4888,398.8344 L429.435,408.8535 L429.6404,418.8726 L429.9515,428.8917 L430.055,438.9108 L429.4948,448.9299 L429.883,458.949 L428.7368,468.9681 L429.8792,478.9872 L430.2309,489.0063 L429.5,499.0254 " fill="none" style="stroke:#181818;stroke-width:0.5;stroke-dasharray:5.0,5.0;"/><path d="M606.5,88.2422 L606.7802,88.2422 L605.9476,98.2613 L606.7577,108.2804 L607.0329,118.2995 L605.5488,128.3186 L606.3964,138.3377 L605.9313,148.3568 L605.9887,158.3759 L606.4091,168.395 L605.5782,178.4141 L607.2382,188.4332 L605.6596,198.4523 L606.2363,208.4714 L607.0759,218.4905 L606.3856,228.5096 L606.591,238.5287 L606.4574,248.5478 L606.738,258.5669 L606.8188,268.586 L607.2809,278.6051 L607.3947,288.6242 L607.4057,298.6433 L606.8395,308.6624 L607.1181,318.6815 L607.4363,328.7006 L605.5384,338.7198 L607.4047,348.7389 L606.1047,358.758 L607.2117,368.7771 L605.84,378.7962 L606.4087,388.8153 L607.4888,398.8344 L606.435,408.8535 L606.6404,418.8726 L606.9515,428.8917 L607.055,438.9108 L606.4948,448.9299 L606.883,458.949 L605.7368,468.9681 L606.8792,478.9872 L607.2309,489.0063 L606.5,499.0254 " fill="none" style="stroke:#181818;stroke-width:0.5;stroke-dasharray:5.0,5.0;"/><path d="M710.5,88.2422 L710.7802,88.2422 L709.9476,98.2613 L710.7577,108.2804 L711.0329,118.2995 L709.5488,128.3186 L710.3964,138.3377 L709.9313,148.3568 L709.9887,158.3759 L710.4091,168.395 L709.5782,178.4141 L711.2382,188.4332 L709.6596,198.4523 L710.2363,208.4714 L711.0759,218.4905 L710.3856,228.5096 L710.591,238.5287 L710.4574,248.5478 L710.738,258.5669 L710.8188,268.586 L711.2809,278.6051 L711.3947,288.6242 L711.4057,298.6433 L710.8395,308.6624 L711.1181,318.6815 L711.4363,328.7006 L709.5384,338.7198 L711.4047,348.7389 L710.1047,358.758 L711.2117,368.7771 L709.84,378.7962 L710.4087,388.8153 L711.4888,398.8344 L710.435,408.8535 L710.6404,418.8726 L710.9515,428.8917 L711.055,438.9108 L710.4948,448.9299 L710.883,458.949 L709.7368,468.9681 L710.8792,478.9872 L711.2309,489.0063 L710.5,499.0254 " fill="none" style="stroke:#181818;stroke-width:0.5;stroke-dasharray:5.0,5.0;"/><path d="M809.5,88.2422 L809.7802,88.2422 L808.9476,98.2613 L809.7577,108.2804 L810.0329,118.2995 L808.5488,128.3186 L809.3964,138.3377 L808.9313,148.3568 L808.9887,158.3759 L809.4091,168.395 L808.5782,178.4141 L810.2382,188.4332 L808.6596,198.4523 L809.2363,208.4714 L810.0759,218.4905 L809.3856,228.5096 L809.591,238.5287 L809.4574,248.5478 L809.738,258.5669 L809.8188,268.586 L810.2809,278.6051 L810.3947,288.6242 L810.4057,298.6433 L809.8395,308.6624 L810.1181,318.6815 L810.4363,328.7006 L808.5384,338.7198 L810.4047,348.7389 L809.1047,358.758 L810.2117,368.7771 L808.84,378.7962 L809.4087,388.8153 L810.4888,398.8344 L809.435,408.8535 L809.6404,418.8726 L809.9515,428.8917 L810.055,438.9108 L809.4948,448.9299 L809.883,458.949 L808.7368,468.9681 L809.8792,478.9872 L810.2309,489.0063 L809.5,499.0254 " fill="none" style="stroke:#181818;stroke-width:0.5;stroke-dasharray:5.0,5.0;"/><text fill="#000000" font-family="FG Virgil" font-size="14" lengthAdjust="spacing" textLength="91" x="5" y="84.7285">MenuManager</text><polygon fill="#E3E3E3" points="61.5442,20.067,60.3715,21.6693,58.9845,24.0162,57.0008,25.5977,54.9163,26.4626,53.2542,26.5377,51.118,25.456,49.1023,24.7494,47.5724,23.3147,46.7699,21.6722,46.2939,20.3644,45.8277,18.6561,45.0709,17.1862,45.6525,15.7509,46.162,14.1787,48.074,12.9353,49.4192,11.3219,51.0843,10.7861,53.0637,10.3248,55.6021,10.5989,56.9924,11.2546,58.6089,11.5518,60.5743,13.5654,61.2595,15.6912,61.5571,17.1417,61.22,19.5319" style="stroke:#181818;stroke-width:0.5;"/><path d="M53.5,26.1211 L53.6868,26.1211 L53.1317,31.5211 L53.6718,36.9211 L53.8553,42.3211 L52.8659,47.7211 L53.5,53.1211 M40.5,34.1211 L40.5,34.052 L45.7,33.742 L50.9,33.7802 L56.1,34.0605 L61.3,33.5065 L66.5,34.1211 M53.5,53.1211 L53.8719,53.4434 L50.4766,55.7542 L48.1672,59.006 L45.9901,62.3726 L43.0424,65.0712 L40.5,68.1211 M53.5,53.1211 L53.5458,53.1608 L56.0785,56.1025 L58.8199,59.225 L61.4606,62.2603 L64.2934,65.4621 L66.5,68.1211 " fill="none" style="stroke:#181818;stroke-width:0.5;"/><text fill="#000000" font-family="FG Virgil" font-size="14" lengthAdjust="spacing" textLength="91" x="5" y="513.1328">MenuManager</text><polygon fill="#E3E3E3" points="61.5442,527.0924,60.3715,528.6947,58.9845,531.0415,57.0008,532.6231,54.9163,533.488,53.2542,533.5631,51.118,532.4814,49.1023,531.7748,47.5724,530.3401,46.7699,528.6976,46.2939,527.3898,45.8277,525.6815,45.0709,524.2116,45.6525,522.7763,46.162,521.2041,48.074,519.9606,49.4192,518.3473,51.0843,517.8115,53.0637,517.3502,55.6021,517.6243,56.9924,518.28,58.6089,518.5772,60.5743,520.5908,61.2595,522.7166,61.5571,524.1671,61.22,526.5573" style="stroke:#181818;stroke-width:0.5;"/><path d="M53.5,533.1465 L53.6868,533.1465 L53.1317,538.5465 L53.6718,543.9465 L53.8553,549.3465 L52.8659,554.7465 L53.5,560.1465 M40.5,541.1465 L40.5,541.0774 L45.7,540.7674 L50.9,540.8056 L56.1,541.0859 L61.3,540.5319 L66.5,541.1465 M53.5,560.1465 L53.8719,560.4688 L50.4766,562.7796 L48.1672,566.0314 L45.9901,569.3979 L43.0424,572.0965 L40.5,575.1465 M53.5,560.1465 L53.5458,560.1862 L56.0785,563.1279 L58.8199,566.2504 L61.4606,569.2857 L64.2934,572.4874 L66.5,575.1465 " fill="none" style="stroke:#181818;stroke-width:0.5;"/><polygon fill="#E3E3E3" points="136,36,136,36.2102,145.9412,35.5857,155.8824,36.1933,165.8235,36.3997,175.7647,35.2866,185.7059,35.9223,195.6471,35.5735,205.5882,35.6165,215.5294,35.9318,225.4706,35.3086,235.4118,36.5536,245.3529,35.3697,255.2941,35.8022,265.2353,36.4319,275.1765,35.9142,285.1176,36.0682,295.0588,35.9681,305,36,305.0228,36.055,305.3841,36.2201,305.7818,36.4733,306.1463,36.646,306.5009,36.795,306.7678,36.7322,306.8462,36.7647,307.057,37.1449,307.2769,37.5289,306.985,37.7009,307.5625,38.233,307.5,38.5,307.2035,38.5,308.0338,47.7484,307.005,56.9969,307.4315,66.2453,308.2416,75.4938,307.5,84.7422,307.485,84.736,307.386,85.1092,307.3114,85.4925,307.1888,85.8559,306.913,86.1559,306.7678,86.51,306.8044,86.5984,306.3412,86.4801,306.0969,86.8904,305.777,87.1181,305.4103,87.2326,305,87.2422,305,87.8552,295.0588,86.7591,285.1176,86.59,275.1765,86.6208,265.2353,87.1833,255.2941,87.0457,245.3529,87.9236,235.4118,87.0675,225.4706,86.8991,215.5294,87.4705,205.5882,86.5753,195.6471,86.7231,185.7059,87.8911,175.7647,87.6779,165.8235,87.9767,155.8824,86.9204,145.9412,87.5614,136,87.2422,136.0753,87.424,135.5862,86.9503,135.2807,86.9198,134.9554,86.8416,134.6689,86.8571,134.2322,86.51,134.2309,86.5094,134.2282,86.2154,133.7688,85.7322,133.5843,85.3629,133.8015,85.16,133.5,84.7422,132.7831,84.7422,134.009,75.4938,133.7066,66.2453,133.2321,56.9969,133.1462,47.7484,133.5,38.5,133.6413,38.5585,133.5543,38.1083,133.9752,37.8684,133.7691,37.3688,134.2759,37.1645,134.2322,36.7322,134.294,36.8814,134.617,36.6612,134.9454,36.4539,135.3856,36.5167,135.7247,36.3354,136,36" style="stroke:#181818;stroke-width:0.5;"/><text fill="#000000" font-family="FG Virgil" font-size="14" font-style="italic" lengthAdjust="spacing" textLength="95" x="173" y="58.1074">&#171;presentation&#187;</text><text fill="#000000" font-family="FG Virgil" font-size="14" lengthAdjust="spacing" textLength="160" x="140.5" y="76.7285">ConsultAvailableDishesUI</text><polygon fill="#E3E3E3" points="136,498.0254,136,498.2356,145.9412,497.6111,155.8824,498.2187,165.8235,498.4251,175.7647,497.312,185.7059,497.9477,195.6471,497.5989,205.5882,497.6419,215.5294,497.9572,225.4706,497.334,235.4118,498.579,245.3529,497.3951,255.2941,497.8276,265.2353,498.4573,275.1765,497.9396,285.1176,498.0936,295.0588,497.9934,305,498.0254,305.0228,498.0804,305.3841,498.2455,305.7818,498.4987,306.1463,498.6714,306.5009,498.8204,306.7678,498.7576,306.8462,498.7901,307.057,499.1703,307.2769,499.5543,306.985,499.7263,307.5625,500.2584,307.5,500.5254,307.2035,500.5254,308.0338,509.7738,307.005,519.0223,307.4315,528.2707,308.2416,537.5191,307.5,546.7676,307.485,546.7614,307.386,547.1346,307.3114,547.5179,307.1888,547.8813,306.913,548.1813,306.7678,548.5353,306.8044,548.6238,306.3412,548.5055,306.0969,548.9158,305.777,549.1435,305.4103,549.258,305,549.2676,305,549.8806,295.0588,548.7845,285.1176,548.6154,275.1765,548.6462,265.2353,549.2087,255.2941,549.071,245.3529,549.949,235.4118,549.0929,225.4706,548.9245,215.5294,549.4958,205.5882,548.6007,195.6471,548.7485,185.7059,549.9165,175.7647,549.7032,165.8235,550.0021,155.8824,548.9458,145.9412,549.5868,136,549.2676,136.0753,549.4494,135.5862,548.9756,135.2807,548.9452,134.9554,548.867,134.6689,548.8825,134.2322,548.5353,134.2309,548.5348,134.2282,548.2408,133.7688,547.7576,133.5843,547.3883,133.8015,547.1854,133.5,546.7676,132.7831,546.7676,134.009,537.5191,133.7066,528.2707,133.2321,519.0223,133.1462,509.7738,133.5,500.5254,133.6413,500.5839,133.5543,500.1337,133.9752,499.8938,133.7691,499.3942,134.2759,499.1899,134.2322,498.7576,134.294,498.9068,134.617,498.6866,134.9454,498.4793,135.3856,498.5421,135.7247,498.3608,136,498.0254" style="stroke:#181818;stroke-width:0.5;"/><text fill="#000000" font-family="FG Virgil" font-size="14" font-style="italic" lengthAdjust="spacing" textLength="95" x="173" y="520.1328">&#171;presentation&#187;</text><text fill="#000000" font-family="FG Virgil" font-size="14" lengthAdjust="spacing" textLength="160" x="140.5" y="538.7539">ConsultAvailableDishesUI</text><polygon fill="#E3E3E3" points="320,36,320,36.2102,329.9545,35.5857,339.9091,36.1933,349.8636,36.3997,359.8182,35.2866,369.7727,35.9223,379.7273,35.5735,389.6818,35.6165,399.6364,35.9318,409.5909,35.3086,419.5455,36.5536,429.5,35.3697,439.4545,35.8022,449.4091,36.4319,459.3636,35.9142,469.3182,36.0682,479.2727,35.9681,489.2273,36.1785,499.1818,36.2391,509.1364,36.5857,519.0909,36.6711,529.0455,36.6793,539,36,539.0325,36.0784,539.4127,36.2892,539.7967,36.5092,539.9687,36.2172,540.5008,36.7947,540.7678,36.7322,540.6765,36.6944,541.0786,37.1539,540.9082,37.3762,541.186,37.7842,541.5819,38.241,541.5,38.5,541.4513,38.5,541.6053,47.7484,541.8386,56.9969,541.9162,66.2453,541.4961,75.4938,541.5,84.7422,541.5885,84.7788,541.1773,85.0227,541.2947,85.4856,541.2295,85.8728,541.0511,86.2131,540.7678,86.51,540.846,86.6987,540.3526,86.5076,539.9775,86.602,539.6278,86.7579,539.346,87.0776,539,87.2422,539,87.0457,529.0455,87.9236,519.0909,87.0675,509.1364,86.8991,499.1818,87.4705,489.2273,86.5753,479.2727,86.7231,469.3182,87.8911,459.3636,87.6779,449.4091,87.9767,439.4545,86.9204,429.5,87.5614,419.5455,87.8326,409.5909,86.7698,399.6364,87.1463,389.6818,87.3682,379.7273,87.8939,369.7727,87.238,359.8182,87.7048,349.8636,86.6884,339.9091,86.5649,329.9545,87.7458,320,87.2422,319.9085,87.0214,319.7114,87.2525,319.3193,87.0129,318.9052,86.7203,318.5407,86.5475,318.2322,86.51,318.3735,86.5685,317.9936,86.1182,318.1216,85.8783,317.6227,85.3788,317.8366,85.1745,317.5,84.7422,317.9843,84.7422,317.745,75.4938,317.5472,66.2453,318.2266,56.9969,318.1136,47.7484,317.5,38.5,317.5521,38.5216,317.729,38.1807,317.7528,37.7763,318.16,37.5307,318.1335,37.1055,318.2322,36.7322,318.2542,36.7854,318.5082,36.3984,318.8876,36.3145,319.3606,36.4563,319.7013,36.2788,320,36" style="stroke:#181818;stroke-width:0.5;"/><text fill="#000000" font-family="FG Virgil" font-size="14" font-style="italic" lengthAdjust="spacing" textLength="84" x="387.5" y="58.1074">&#171;application&#187;</text><text fill="#000000" font-family="FG Virgil" font-size="14" lengthAdjust="spacing" textLength="210" x="324.5" y="76.7285">ConsultAvailableDishesController</text><polygon fill="#E3E3E3" points="320,498.0254,320,498.2356,329.9545,497.6111,339.9091,498.2187,349.8636,498.4251,359.8182,497.312,369.7727,497.9477,379.7273,497.5989,389.6818,497.6419,399.6364,497.9572,409.5909,497.334,419.5455,498.579,429.5,497.3951,439.4545,497.8276,449.4091,498.4573,459.3636,497.9396,469.3182,498.0936,479.2727,497.9934,489.2273,498.2039,499.1818,498.2645,509.1364,498.6111,519.0909,498.6964,529.0455,498.7046,539,498.0254,539.0325,498.1038,539.4127,498.3146,539.7967,498.5345,539.9687,498.2426,540.5008,498.8201,540.7678,498.7576,540.6765,498.7198,541.0786,499.1793,540.9082,499.4016,541.186,499.8095,541.5819,500.2664,541.5,500.5254,541.4513,500.5254,541.6053,509.7738,541.8386,519.0223,541.9162,528.2707,541.4961,537.5191,541.5,546.7676,541.5885,546.8042,541.1773,547.0481,541.2947,547.511,541.2295,547.8982,541.0511,548.2385,540.7678,548.5353,540.846,548.7241,540.3526,548.533,539.9775,548.6274,539.6278,548.7833,539.346,549.103,539,549.2676,539,549.071,529.0455,549.949,519.0909,549.0929,509.1364,548.9245,499.1818,549.4958,489.2273,548.6007,479.2727,548.7485,469.3182,549.9165,459.3636,549.7032,449.4091,550.0021,439.4545,548.9458,429.5,549.5868,419.5455,549.858,409.5909,548.7952,399.6364,549.1717,389.6818,549.3936,379.7273,549.9193,369.7727,549.2634,359.8182,549.7301,349.8636,548.7138,339.9091,548.5903,329.9545,549.7712,320,549.2676,319.9085,549.0468,319.7114,549.2779,319.3193,549.0383,318.9052,548.7457,318.5407,548.5728,318.2322,548.5353,318.3735,548.5939,317.9936,548.1436,318.1216,547.9037,317.6227,547.4042,317.8366,547.1999,317.5,546.7676,317.9843,546.7676,317.745,537.5191,317.5472,528.2707,318.2266,519.0223,318.1136,509.7738,317.5,500.5254,317.5521,500.547,317.729,500.206,317.7528,499.8017,318.16,499.5561,318.1335,499.1309,318.2322,498.7576,318.2542,498.8108,318.5082,498.4238,318.8876,498.3399,319.3606,498.4817,319.7013,498.3042,320,498.0254" style="stroke:#181818;stroke-width:0.5;"/><text fill="#000000" font-family="FG Virgil" font-size="14" font-style="italic" lengthAdjust="spacing" textLength="84" x="387.5" y="520.1328">&#171;application&#187;</text><text fill="#000000" font-family="FG Virgil" font-size="14" lengthAdjust="spacing" textLength="210" x="324.5" y="538.7539">ConsultAvailableDishesController</text><polygon fill="#E3E3E3" points="554,36,554,36.2102,563.6364,35.5857,573.2727,36.1933,582.9091,36.3997,592.5455,35.2866,602.1818,35.9223,611.8182,35.5735,621.4545,35.6165,631.0909,35.9318,640.7273,35.3086,650.3636,36.5536,660,36,659.9196,35.8059,660.3283,36.0855,660.7622,36.4259,661.0497,36.4129,661.4229,36.6068,661.7678,36.7322,661.7579,36.7282,661.9692,37.1086,662.1343,37.4698,662.3875,37.8676,662.5602,38.232,662.5,38.5,663.1793,38.5,662.7546,47.7484,662.9636,56.9969,663.2022,66.2453,661.7788,75.4938,662.5,84.7422,662.709,84.8287,662.2622,85.0579,662.3715,85.5174,661.9082,85.7397,661.8931,86.1477,661.7678,86.51,661.8624,86.7383,661.408,86.6414,661.0741,86.8353,660.7503,87.0536,660.4066,87.2239,660,87.2422,660,87.2383,650.3636,87.5294,640.7273,86.6698,631.0909,87.5266,621.4545,87.7904,611.8182,87.6867,602.1818,87.8552,592.5455,86.7591,582.9091,86.59,573.2727,86.6208,563.6364,87.1833,554,87.2422,553.9749,87.1817,553.7334,87.3056,553.2706,86.8955,552.8956,86.6972,552.6149,86.7267,552.2322,86.51,552.0269,86.4249,551.9259,86.0902,552.1392,85.8856,551.9271,85.5049,551.8726,85.1894,551.5,84.7422,551.1782,84.7422,551.8192,75.4938,552.0904,66.2453,551.0276,56.9969,551.4041,47.7484,551.5,38.5,551.5388,38.5161,551.8472,38.2296,551.7916,37.7924,552.0818,37.4983,551.9152,37.0151,552.2322,36.7322,552.1458,36.5237,552.65,36.7409,552.8479,36.2186,553.3578,36.4496,553.6728,36.2101,554,36" style="stroke:#181818;stroke-width:0.5;"/><text fill="#000000" font-family="FG Virgil" font-size="14" font-style="italic" lengthAdjust="spacing" textLength="84" x="565" y="58.1074">&#171;application&#187;</text><text fill="#000000" font-family="FG Virgil" font-size="14" lengthAdjust="spacing" textLength="97" x="558.5" y="76.7285">ListDishService</text><polygon fill="#E3E3E3" points="554,498.0254,554,498.2356,563.6364,497.6111,573.2727,498.2187,582.9091,498.4251,592.5455,497.312,602.1818,497.9477,611.8182,497.5989,621.4545,497.6419,631.0909,497.9572,640.7273,497.334,650.3636,498.579,660,498.0254,659.9196,497.8313,660.3283,498.1109,660.7622,498.4513,661.0497,498.4383,661.4229,498.6322,661.7678,498.7576,661.7579,498.7535,661.9692,499.134,662.1343,499.4952,662.3875,499.893,662.5602,500.2574,662.5,500.5254,663.1793,500.5254,662.7546,509.7738,662.9636,519.0223,663.2022,528.2707,661.7788,537.5191,662.5,546.7676,662.709,546.8541,662.2622,547.0833,662.3715,547.5428,661.9082,547.7651,661.8931,548.1731,661.7678,548.5353,661.8624,548.7637,661.408,548.6668,661.0741,548.8607,660.7503,549.079,660.4066,549.2493,660,549.2676,660,549.2637,650.3636,549.5548,640.7273,548.6952,631.0909,549.552,621.4545,549.8158,611.8182,549.7121,602.1818,549.8806,592.5455,548.7845,582.9091,548.6154,573.2727,548.6462,563.6364,549.2087,554,549.2676,553.9749,549.2071,553.7334,549.331,553.2706,548.9209,552.8956,548.7226,552.6149,548.7521,552.2322,548.5353,552.0269,548.4503,551.9259,548.1156,552.1392,547.911,551.9271,547.5303,551.8726,547.2148,551.5,546.7676,551.1782,546.7676,551.8192,537.5191,552.0904,528.2707,551.0276,519.0223,551.4041,509.7738,551.5,500.5254,551.5388,500.5415,551.8472,500.255,551.7916,499.8177,552.0818,499.5237,551.9152,499.0405,552.2322,498.7576,552.1458,498.5491,552.65,498.7663,552.8479,498.2439,553.3578,498.475,553.6728,498.2355,554,498.0254" style="stroke:#181818;stroke-width:0.5;"/><text fill="#000000" font-family="FG Virgil" font-size="14" font-style="italic" lengthAdjust="spacing" textLength="84" x="565" y="520.1328">&#171;application&#187;</text><text fill="#000000" font-family="FG Virgil" font-size="14" lengthAdjust="spacing" textLength="97" x="558.5" y="538.7539">ListDishService</text><polygon fill="#E3E3E3" points="675,36,675,36.2102,685.1429,35.5857,695.2857,36.1933,705.4286,36.3997,715.5714,35.2866,725.7143,35.9223,735.8571,35.5735,746,36,745.9511,35.8819,746.3449,36.1255,746.6189,36.08,747.1313,36.6098,747.3338,36.3917,747.7678,36.7322,747.7069,36.707,748.0472,37.1409,748.0342,37.4284,748.2281,37.8016,748.3437,38.1424,748.5,38.5,748.6785,38.5,748.7391,47.7484,749.0857,56.9969,749.1711,66.2453,749.1793,75.4938,748.5,84.7422,748.5784,84.7747,748.4963,85.1549,748.4234,85.5389,747.8386,85.7109,748.1232,86.243,747.7678,86.51,747.7299,86.4186,747.4823,86.8208,746.9975,86.6504,746.6984,86.9282,746.4482,87.3241,746,87.2422,746,87.1935,735.8571,87.3475,725.7143,87.5808,715.5714,87.6584,705.4286,87.2383,695.2857,87.5294,685.1429,86.6698,675,87.2422,675.0363,87.3298,674.7164,87.2646,674.3496,87.0862,674.0175,86.9916,673.5242,86.5076,673.2322,86.51,673.0314,86.4268,672.8944,86.0771,672.9212,85.7953,672.7324,85.4242,672.8563,85.1827,672.5,84.7422,672.3253,84.7422,672.1569,75.4938,672.7283,66.2453,671.8332,56.9969,671.9809,47.7484,672.5,38.5,672.6999,38.5828,672.7806,38.202,673.0191,37.8866,672.8402,37.3983,673.1841,37.1265,673.2322,36.7322,673.3075,36.9141,673.5255,36.4403,673.9271,36.4098,674.309,36.3317,674.7296,36.3472,675,36" style="stroke:#181818;stroke-width:0.5;"/><text fill="#000000" font-family="FG Virgil" font-size="14" font-style="italic" lengthAdjust="spacing" textLength="62" x="679.5" y="58.1074">&#171;domain&#187;</text><text fill="#000000" font-family="FG Virgil" font-size="14" lengthAdjust="spacing" textLength="58" x="681.5" y="76.7285">dish:Dish</text><polygon fill="#E3E3E3" points="675,498.0254,675,498.2356,685.1429,497.6111,695.2857,498.2187,705.4286,498.4251,715.5714,497.312,725.7143,497.9477,735.8571,497.5989,746,498.0254,745.9511,497.9073,746.3449,498.1508,746.6189,498.1054,747.1313,498.6352,747.3338,498.4171,747.7678,498.7576,747.7069,498.7324,748.0472,499.1663,748.0342,499.4538,748.2281,499.827,748.3437,500.1678,748.5,500.5254,748.6785,500.5254,748.7391,509.7738,749.0857,519.0223,749.1711,528.2707,749.1793,537.5191,748.5,546.7676,748.5784,546.8001,748.4963,547.1803,748.4234,547.5643,747.8386,547.7362,748.1232,548.2683,747.7678,548.5353,747.7299,548.444,747.4823,548.8462,746.9975,548.6758,746.6984,548.9536,746.4482,549.3495,746,549.2676,746,549.2188,735.8571,549.3729,725.7143,549.6062,715.5714,549.6838,705.4286,549.2637,695.2857,549.5548,685.1429,548.6952,675,549.2676,675.0363,549.3552,674.7164,549.29,674.3496,549.1116,674.0175,549.017,673.5242,548.533,673.2322,548.5353,673.0314,548.4522,672.8944,548.1025,672.9212,547.8207,672.7324,547.4496,672.8563,547.2081,672.5,546.7676,672.3253,546.7676,672.1569,537.5191,672.7283,528.2707,671.8332,519.0223,671.9809,509.7738,672.5,500.5254,672.6999,500.6082,672.7806,500.2274,673.0191,499.912,672.8402,499.4237,673.1841,499.1519,673.2322,498.7576,673.3075,498.9394,673.5255,498.4657,673.9271,498.4352,674.309,498.3571,674.7296,498.3726,675,498.0254" style="stroke:#181818;stroke-width:0.5;"/><text fill="#000000" font-family="FG Virgil" font-size="14" font-style="italic" lengthAdjust="spacing" textLength="62" x="679.5" y="520.1328">&#171;domain&#187;</text><text fill="#000000" font-family="FG Virgil" font-size="14" lengthAdjust="spacing" textLength="58" x="681.5" y="538.7539">dish:Dish</text><text fill="#000000" font-family="FG Virgil" font-size="14" font-style="italic" lengthAdjust="spacing" textLength="79" x="767" y="66.1074">&#171;repository&#187;</text><text fill="#000000" font-family="FG Virgil" font-size="14" lengthAdjust="spacing" textLength="96" x="758.5" y="84.7285">DishRepository</text><path d="M791.5,15 L791.5,15 L791.5651,15.067 L793.1716,13.118 L795.1599,11.5616 L797.0238,9.8774 L798.479,7.7727 L800.5,6.25 L800.4952,6.2158 L802.2739,5.8122 L804.0766,5.5812 L805.8958,5.47 L807.6577,4.9456 L809.5,5 L809.5,5 L809.5339,5.2437 L811.2615,4.9725 L813.0879,5.4129 L814.9264,5.9402 L816.6948,5.9622 L818.5,6.25 L818.5211,6.2717 L820.2901,7.9898 L822.1553,9.8069 L823.9741,11.5762 L825.8815,13.4366 L827.5,15 L828.0965,15 L828.1038,20.2 L827.7263,25.4 L827.9121,30.6 L828.1242,35.8 L827.5,41 L827.5,41 L827.2766,40.7702 L825.9102,42.9662 L823.8081,44.4055 L822.2654,46.4201 L820.1466,47.8423 L818.5,49.75 L818.4958,49.7198 L816.7453,50.3265 L814.897,50.2285 L813.1064,50.5464 L811.3207,50.8991 L809.5,51 L809.5,51 L809.5254,51.1832 L807.6998,50.7483 L805.9176,50.6264 L804.065,49.998 L802.3174,50.1252 L800.5,49.75 L800.6698,49.9247 L798.8377,48.1417 L797.0899,46.4453 L794.9503,44.3461 L793.0979,42.5422 L791.5,41 L790.9476,41 L791.4477,35.8 L791.3253,30.6 L792.1057,25.4 L791.3447,20.2 L791.5,15 " fill="#E3E3E3" style="stroke:#181818;stroke-width:1.5;"/><path d="M791.5,15 L791.5,15 L791.5651,15.067 L793.1716,16.618 L795.1599,18.5616 L797.0238,20.3774 L798.479,21.7727 L800.5,23.75 L800.4952,23.7158 L802.2739,23.8122 L804.0766,24.0812 L805.8958,24.47 L807.6577,24.4456 L809.5,25 L809.5,25 L809.5339,25.2437 L811.2615,24.4725 L813.0879,24.4129 L814.9264,24.4402 L816.6948,23.9622 L818.5,23.75 L818.5211,23.7717 L820.2901,21.9898 L822.1553,20.3069 L823.9741,18.5762 L825.8815,16.9366 L827.5,15 " fill="none" style="stroke:#181818;stroke-width:1.5;"/><text fill="#000000" font-family="FG Virgil" font-size="14" font-style="italic" lengthAdjust="spacing" textLength="79" x="767" y="513.1328">&#171;repository&#187;</text><text fill="#000000" font-family="FG Virgil" font-size="14" lengthAdjust="spacing" textLength="96" x="758.5" y="531.7539">DishRepository</text><path d="M791.5,545.2676 L791.5,545.2676 L791.5651,545.3346 L793.1716,543.3855 L795.1599,541.8292 L797.0238,540.1449 L798.479,538.0402 L800.5,536.5176 L800.4952,536.4834 L802.2739,536.0798 L804.0766,535.8488 L805.8958,535.7376 L807.6577,535.2132 L809.5,535.2676 L809.5,535.2676 L809.5339,535.5113 L811.2615,535.2401 L813.0879,535.6805 L814.9264,536.2077 L816.6948,536.2298 L818.5,536.5176 L818.5211,536.5393 L820.2901,538.2574 L822.1553,540.0745 L823.9741,541.8438 L825.8815,543.7042 L827.5,545.2676 L828.0965,545.2676 L828.1038,550.4676 L827.7263,555.6676 L827.9121,560.8676 L828.1242,566.0676 L827.5,571.2676 L827.5,571.2676 L827.2766,571.0378 L825.9102,573.2338 L823.8081,574.6731 L822.2654,576.6877 L820.1466,578.1098 L818.5,580.0176 L818.4958,579.9874 L816.7453,580.594 L814.897,580.4961 L813.1064,580.8139 L811.3207,581.1666 L809.5,581.2676 L809.5,581.2676 L809.5254,581.4508 L807.6998,581.0159 L805.9176,580.894 L804.065,580.2656 L802.3174,580.3928 L800.5,580.0176 L800.6698,580.1923 L798.8377,578.4092 L797.0899,576.7129 L794.9503,574.6136 L793.0979,572.8098 L791.5,571.2676 L790.9476,571.2676 L791.4477,566.0676 L791.3253,560.8676 L792.1057,555.6676 L791.3447,550.4676 L791.5,545.2676 " fill="#E3E3E3" style="stroke:#181818;stroke-width:1.5;"/><path d="M791.5,545.2676 L791.5,545.2676 L791.5651,545.3346 L793.1716,546.8855 L795.1599,548.8292 L797.0238,550.6449 L798.479,552.0402 L800.5,554.0176 L800.4952,553.9834 L802.2739,554.0798 L804.0766,554.3488 L805.8958,554.7376 L807.6577,554.7132 L809.5,555.2676 L809.5,555.2676 L809.5339,555.5113 L811.2615,554.7401 L813.0879,554.6805 L814.9264,554.7077 L816.6948,554.2298 L818.5,554.0176 L818.5211,554.0393 L820.2901,552.2574 L822.1553,550.5745 L823.9741,548.8438 L825.8815,547.2042 L827.5,545.2676 " fill="none" style="stroke:#181818;stroke-width:1.5;"/><polygon fill="#FFFFFF" points="215.5,121.5332,215.5,121.6033,217.5,121.3951,219.5,121.5976,221.5,121.6664,223.5,121.2954,225.5,121.5332,225.4223,121.5332,225.0735,131.5191,225.1165,141.505,225.4318,151.4909,224.8086,161.4768,226.0536,171.4627,224.8697,181.4486,225.3022,191.4345,225.9319,201.4204,225.4142,211.4063,225.5682,221.3921,225.4681,231.378,225.6785,241.3639,225.7391,251.3498,226.0857,261.3357,226.1711,271.3216,226.1793,281.3075,225.7546,291.2934,225.9636,301.2793,226.2022,311.2652,224.7788,321.2511,226.1785,331.237,225.2035,341.2229,226.0338,351.2088,225.005,361.1947,225.4315,371.1806,226.2416,381.1664,225.4513,391.1523,225.6053,401.1382,225.8386,411.1241,225.9162,421.11,225.4961,431.0959,225.7872,441.0818,224.9276,451.0677,225.7844,461.0536,226.0482,471.0395,225.5,481.0254,225.5,481.1736,223.5,481.2297,221.5,480.8644,219.5,480.808,217.5,480.8183,215.5,481.0254,215.4411,481.0254,215.3035,471.0395,216.1814,461.0536,215.3253,451.0677,215.1569,441.0818,215.7283,431.0959,214.8332,421.11,214.9809,411.1241,216.149,401.1382,215.9357,391.1523,216.2345,381.1664,215.1782,371.1806,215.8192,361.1947,216.0904,351.2088,215.0276,341.2229,215.4041,331.237,215.626,321.2511,216.1518,311.2652,215.4958,301.2793,215.9626,291.2934,214.9462,281.3075,214.8227,271.3216,216.0036,261.3357,214.7831,251.3498,216.009,241.3639,215.7066,231.378,215.2321,221.3921,215.1462,211.4063,215.9588,201.4204,215.2007,191.4345,216.0919,181.4486,214.9473,171.4627,216.1174,161.4768,215.9843,151.4909,215.745,141.505,215.5472,131.5191,215.5,121.5332" style="stroke:#181818;stroke-width:1.0;"/><polygon fill="#FFFFFF" points="424.5,184.1152,424.5,184.1853,426.5,183.9771,428.5,184.1797,430.5,184.2485,432.5,183.8774,434.5,184.1152,434.4223,184.1152,434.0735,193.953,434.1165,203.7907,434.4318,213.6285,433.8086,223.4662,435.0536,233.304,433.8697,243.1417,434.3022,252.9795,434.9319,262.8172,434.4142,272.6549,434.5682,282.4927,434.4681,292.3304,434.6785,302.1682,434.7391,312.0059,435.0857,321.8437,435.1711,331.6814,435.1793,341.5192,434.7546,351.3569,434.9636,361.1947,435.2022,371.0324,433.7788,380.8702,435.1785,390.7079,434.2035,400.5456,435.0338,410.3834,434.005,420.2211,434.4315,430.0589,435.2416,439.8966,434.5,449.7344,434.5,449.7181,432.5,449.7695,430.5,449.8473,428.5,449.8731,426.5,449.7331,424.5,449.7344,424.7872,449.7344,423.9276,439.8966,424.7844,430.0589,425.0482,420.2211,424.9445,410.3834,425.113,400.5456,424.0169,390.7079,423.8478,380.8702,423.8786,371.0324,424.4411,361.1947,424.3035,351.3569,425.1814,341.5192,424.3253,331.6814,424.1569,321.8437,424.7283,312.0059,423.8332,302.1682,423.9809,292.3304,425.149,282.4927,424.9357,272.6549,425.2345,262.8172,424.1782,252.9795,424.8192,243.1417,425.0904,233.304,424.0276,223.4662,424.4041,213.6285,424.626,203.7907,425.1518,193.953,424.5,184.1152" style="stroke:#181818;stroke-width:1.0;"/><polygon fill="#FFFFFF" points="602,269.9883,602,270.0583,604,269.8502,606,270.0527,608,270.1215,610,269.7505,612,269.9883,611.9223,269.9883,611.5735,279.8853,611.6165,289.7823,611.9318,299.6793,611.3086,309.5763,612.5536,319.4733,611.3697,329.3703,611.8022,339.2673,612.4319,349.1643,611.9142,359.0613,612.0682,368.9583,611.9681,378.8553,612.1785,388.7523,612.2391,398.6493,612.5857,408.5464,612,418.4434,612,418.667,610,418.6698,608,418.5282,606,418.5979,604,418.6774,602,418.4434,601.2788,418.4434,602.6785,408.5464,601.7035,398.6493,602.5338,388.7523,601.505,378.8553,601.9315,368.9583,602.7416,359.0613,601.9513,349.1643,602.1053,339.2673,602.3386,329.3703,602.4162,319.4733,601.9961,309.5763,602.2872,299.6793,601.4276,289.7823,602.2844,279.8853,602,269.9883" style="stroke:#181818;stroke-width:1.0;"/><polygon fill="#FFFFFF" points="804.5,355.8613,804.5,355.9314,806.5,355.7232,808.5,355.9258,810.5,355.9946,812.5,355.6235,814.5,355.8613,814.4741,355.8613,814.3578,362.1195,814.3722,368.3777,814.4773,374.6359,814.2695,380.8941,814.5,387.1523,814.5,387.3369,812.5,386.9423,810.5,387.0864,808.5,387.2963,806.5,387.1238,804.5,387.1523,804.5227,387.1523,804.4894,380.8941,804.5595,374.6359,804.5797,368.3777,804.6952,362.1195,804.5,355.8613" style="stroke:#181818;stroke-width:1.0;"/><polygon fill="#181818" points="203.5,117.5332,203.526,117.5983,205.4487,118.205,207.5239,119.193,209.5495,120.0569,211.4117,120.5124,213.5,121.5332,213.4904,121.5092,211.4472,122.2012,209.4525,123.0145,207.4916,123.9121,205.4144,124.5192,203.5,125.5332,203.6305,125.6637,204.1514,124.5846,205.0534,123.8866,206.0018,123.235,206.6798,122.313,207.5,121.5332,207.5161,121.5493,206.6925,120.7257,205.9421,119.9753,205.1564,119.1896,204.438,118.4713,203.5,117.5332" style="stroke:#181818;stroke-width:1.0;"/><path d="M53.5,121.5332 L53.5,121.8134 L63.25,120.9808 L73,121.7909 L82.75,122.0661 L92.5,120.582 L102.25,121.4296 L112,120.9645 L121.75,121.0219 L131.5,121.4423 L141.25,120.6114 L151,122.2714 L160.75,120.6928 L170.5,121.2695 L180.25,122.1091 L190,121.4188 L199.75,121.6242 L209.5,121.5332 " fill="none" style="stroke:#181818;stroke-width:1.0;stroke-dasharray:2.0,2.0;"/><text fill="#000000" font-family="FG Virgil" font-size="13" lengthAdjust="spacing" textLength="143" x="60.5" y="116.2705">Consult Available Dishes</text><polygon fill="#181818" points="417.5,148.8242,417.526,148.8893,419.4487,149.496,421.5239,150.484,423.5495,151.3479,425.4117,151.8034,427.5,152.8242,427.4904,152.8002,425.4472,153.4922,423.4525,154.3055,421.4916,155.2031,419.4144,155.8102,417.5,156.8242,417.6305,156.9547,418.1514,155.8757,419.0534,155.1776,420.0018,154.526,420.6798,153.604,421.5,152.8242,421.5161,152.8403,420.6925,152.0167,419.9421,151.2663,419.1564,150.4806,418.438,149.7623,417.5,148.8242" style="stroke:#181818;stroke-width:1.0;"/><path d="M225.5,152.8242 L225.5,153.1045 L235.4,152.2718 L245.3,153.0819 L255.2,153.3571 L265.1,151.873 L275,152.7206 L284.9,152.2556 L294.8,152.3129 L304.7,152.7333 L314.6,151.9024 L324.5,153.5624 L334.4,151.9838 L344.3,152.5605 L354.2,153.4001 L364.1,152.7098 L374,152.9152 L383.9,152.7816 L393.8,153.0623 L403.7,153.1431 L413.6,153.6051 L423.5,152.8242 " fill="none" style="stroke:#181818;stroke-width:1.0;"/><text fill="#000000" font-family="FG Virgil" font-size="13" lengthAdjust="spacing" textLength="36" x="232.5" y="147.5615">create</text><polygon fill="#181818" points="412.5,180.1152,412.526,180.1803,414.4487,180.787,416.5239,181.7751,418.5495,182.6389,420.4117,183.0944,422.5,184.1152,422.4904,184.0912,420.4472,184.7832,418.4525,185.5965,416.4916,186.4941,414.4144,187.1013,412.5,188.1152,412.6305,188.2457,413.1514,187.1667,414.0534,186.4686,415.0018,185.817,415.6798,184.895,416.5,184.1152,416.5161,184.1313,415.6925,183.3077,414.9421,182.5573,414.1564,181.7716,413.438,181.0533,412.5,180.1152" style="stroke:#181818;stroke-width:1.0;"/><path d="M225.5,184.1152 L225.5,184.3955 L235.6579,183.5628 L245.8158,184.3729 L255.9737,184.6481 L266.1316,183.164 L276.2895,184.0116 L286.4474,183.5466 L296.6053,183.6039 L306.7632,184.0244 L316.9211,183.1934 L327.0789,184.8534 L337.2368,183.2749 L347.3947,183.8515 L357.5526,184.6912 L367.7105,184.0009 L377.8684,184.2062 L388.0263,184.0726 L398.1842,184.3533 L408.3421,184.4341 L418.5,184.1152 " fill="none" style="stroke:#181818;stroke-width:1.0;"/><text fill="#000000" font-family="FG Virgil" font-size="13" lengthAdjust="spacing" textLength="81" x="232.5" y="178.8525">activeDishes()</text><path d="M439,197.1152 L439.1868,197.1152 L438.6317,205.9152 L439.1718,214.7152 L439.3553,223.5152 L438.3659,232.3152 L439,241.1152 L439,240.908 L449.0435,239.9779 L459.087,240.0926 L469.1304,240.9335 L479.1739,239.2716 L489.2174,242.5916 L499.2609,239.4345 L509.3043,240.5879 L519.3478,242.2671 L529.3913,240.8865 L539.4348,241.2972 L549.4783,241.03 L559.5217,241.5913 L569.5652,241.7529 L579.6087,242.6771 L589.6522,242.9047 L599.6957,242.9266 L609.7391,241.7942 L619.7826,242.3515 L629.8261,242.9879 L639.8696,239.1921 L649.913,242.9246 L659.9565,240.3246 L670,241.1152 L670.4745,241.1152 L669.56,234.3152 L669.9391,227.5152 L670.6592,220.7152 L669.9567,213.9152 L670,207.1152 L670.0662,207.1814 L668.2128,205.3281 L666.2616,203.3769 L663.9975,201.1128 L662.1805,199.2958 L660,197.1152 L660,195.5888 L649.9545,197.8736 L639.9091,198.5771 L629.8636,198.3007 L619.8182,198.75 L609.7727,195.827 L599.7273,195.3761 L589.6818,195.4582 L579.6364,196.9582 L569.5909,196.5912 L559.5455,198.9323 L549.5,196.6494 L539.4545,196.2004 L529.4091,197.7239 L519.3636,195.337 L509.3182,195.7309 L499.2727,198.8458 L489.2273,198.277 L479.1818,199.0739 L469.1364,196.2571 L459.0909,197.9664 L449.0455,198.6897 L439,197.1152 " fill="#FAFAFA" style="stroke:#181818;stroke-width:0.5;"/><path d="M660,197.1152 L659.5801,197.1152 L659.9148,199.1152 L660.112,201.1152 L660.5793,203.1152 L659.9963,205.1152 L660,207.1152 L660,207.5264 L662,206.623 L664,206.5132 L666,207.5629 L668,206.478 L670,207.1152 L670.3199,207.4351 L668.1299,205.2451 L665.8316,202.9468 L663.7776,200.8929 L662.2883,199.4036 L660,197.1152 " fill="#FAFAFA" style="stroke:#181818;stroke-width:0.5;"/><text fill="#000000" font-family="FG Virgil" font-size="13" lengthAdjust="spacing" textLength="206" x="445" y="216.1436">hidden authorization user guarantee</text><text fill="#000000" font-family="FG Virgil" font-size="13" lengthAdjust="spacing" textLength="127" x="445" y="233.4346">(see specific diagram)</text><polygon fill="#181818" points="590,265.9883,590.026,266.0533,591.9487,266.6601,594.0239,267.6481,596.0495,268.512,597.9117,268.9675,600,269.9883,599.9904,269.9642,597.9472,270.6563,595.9525,271.4696,593.9916,272.3672,591.9144,272.9743,590,273.9883,590.1305,274.1188,590.6514,273.0397,591.5534,272.3417,592.5018,271.6901,593.1798,270.7681,594,269.9883,594.0161,270.0044,593.1925,269.1808,592.4421,268.4304,591.6564,267.6446,590.938,266.9263,590,265.9883" style="stroke:#181818;stroke-width:1.0;"/><path d="M434.5,269.9883 L434.5,270.2685 L444.5938,269.4359 L454.6875,270.246 L464.7813,270.5212 L474.875,269.0371 L484.9688,269.8847 L495.0625,269.4196 L505.1563,269.4769 L515.25,269.8974 L525.3438,269.0665 L535.4375,270.7265 L545.5313,269.1479 L555.625,269.7246 L565.7188,270.5642 L575.8125,269.8739 L585.9063,270.0793 L596,269.9883 " fill="none" style="stroke:#181818;stroke-width:1.0;"/><text fill="#000000" font-family="FG Virgil" font-size="13" lengthAdjust="spacing" textLength="96" x="441.5" y="264.7256">allActiveDishes()</text><path d="M617,282.9883 L617.1868,282.9883 L616.6317,291.7883 L617.1718,300.5883 L617.3553,309.3883 L616.3659,318.1883 L617,326.9883 L617,326.781 L626.8667,325.851 L636.7333,325.9656 L646.6,326.8065 L656.4667,325.1446 L666.3333,328.4647 L676.2,325.3075 L686.0667,326.4609 L695.9333,328.1401 L705.8,326.7595 L715.6667,327.1703 L725.5333,326.9031 L735.4,327.4644 L745.2667,327.626 L755.1333,328.5501 L765,326.9883 L765.5965,326.9883 L765.6038,320.1883 L765.2263,313.3883 L765.4121,306.5883 L765.6242,299.7883 L765,292.9883 L764.5467,292.535 L763.4265,291.4148 L760.8136,288.8019 L759.3355,287.3238 L756.6889,284.6771 L755,282.9883 L755,282.8056 L745.1429,284.9659 L735.2857,282.8583 L725.4286,283.2691 L715.5714,283.8913 L705.7143,284.0982 L695.8571,282.9779 L686,283.7542 L676.1429,281.4618 L666.2857,283.7466 L656.4286,284.4501 L646.5714,284.1737 L636.7143,284.623 L626.8571,281.7001 L617,282.9883 " fill="#FAFAFA" style="stroke:#181818;stroke-width:0.5;"/><path d="M755,282.9883 L754.4203,282.9883 L754.4476,284.9883 L754.9477,286.9883 L754.8253,288.9883 L755.6057,290.9883 L755,292.9883 L755,292.833 L757,292.6833 L759,293.1912 L761,292.3955 L763,292.5268 L765,292.9883 L765.4079,293.3962 L763.2738,291.2621 L761.4617,289.4499 L758.7977,286.786 L757.2006,285.1889 L755,282.9883 " fill="#FAFAFA" style="stroke:#181818;stroke-width:0.5;"/><text fill="#000000" font-family="FG Virgil" font-size="13" lengthAdjust="spacing" textLength="127" x="623" y="302.0166">Simplified persistence</text><text fill="#000000" font-family="FG Virgil" font-size="13" lengthAdjust="spacing" textLength="127" x="623" y="319.3076">(see specific diagram)</text><polygon fill="#181818" points="792.5,351.8613,792.526,351.9264,794.4487,352.5331,796.5239,353.5211,798.5495,354.385,800.4117,354.8405,802.5,355.8613,802.4904,355.8373,800.4472,356.5293,798.4525,357.3426,796.4916,358.2402,794.4144,358.8474,792.5,359.8613,792.6305,359.9918,793.1514,358.9128,794.0534,358.2147,795.0018,357.5631,795.6798,356.6411,796.5,355.8613,796.5161,355.8774,795.6925,355.0538,794.9421,354.3034,794.1564,353.5177,793.438,352.7994,792.5,351.8613" style="stroke:#181818;stroke-width:1.0;"/><path d="M612,355.8613 L612,356.1416 L621.8158,355.3089 L631.6316,356.119 L641.4474,356.3942 L651.2632,354.9101 L661.0789,355.7577 L670.8947,355.2927 L680.7105,355.35 L690.5263,355.7705 L700.3421,354.9395 L710.1579,356.5995 L719.9737,355.021 L729.7895,355.5976 L739.6053,356.4373 L749.4211,355.747 L759.2368,355.9523 L769.0526,355.8187 L778.8684,356.0994 L788.6842,356.1802 L798.5,355.8613 " fill="none" style="stroke:#181818;stroke-width:1.0;"/><text fill="#000000" font-family="FG Virgil" font-size="13" lengthAdjust="spacing" textLength="78" x="619" y="350.5986">findAllActive()</text><polygon fill="#181818" points="623,383.1523,623.026,383.2174,620.9487,383.8241,619.0239,384.8122,617.0495,385.676,614.9117,386.1316,613,387.1523,612.9904,387.1283,614.9472,387.8203,616.9525,388.6337,618.9916,389.5312,620.9144,390.1384,623,391.1523,623.1305,391.2828,622.0514,390.2038,621.3534,389.5057,620.7018,388.8542,619.7798,387.9321,619,387.1523,619.0161,387.1684,619.7925,386.3448,620.6421,385.5944,621.4564,384.8087,622.338,384.0904,623,383.1523" style="stroke:#181818;stroke-width:1.0;"/><path d="M617,387.1523 L617,387.4326 L627.0789,386.5999 L637.1579,387.4101 L647.2368,387.6852 L657.3158,386.2012 L667.3947,387.0487 L677.4737,386.5837 L687.5526,386.641 L697.6316,387.0615 L707.7105,386.2305 L717.7895,387.8905 L727.8684,386.312 L737.9474,386.8887 L748.0263,387.7283 L758.1053,387.038 L768.1842,387.2433 L778.2632,387.1097 L788.3421,387.3904 L798.4211,387.4712 L808.5,387.1523 " fill="none" style="stroke:#181818;stroke-width:1.0;stroke-dasharray:2.0,2.0;"/><text fill="#000000" font-family="FG Virgil" font-size="13" lengthAdjust="spacing" textLength="38" x="629" y="381.8896">dishes</text><polygon fill="#181818" points="445.5,414.4434,445.526,414.5084,443.4487,415.1151,441.5239,416.1032,439.5495,416.9671,437.4117,417.4226,435.5,418.4434,435.4904,418.4193,437.4472,419.1114,439.4525,419.9247,441.4916,420.8223,443.4144,421.4294,445.5,422.4434,445.6305,422.5739,444.5514,421.4948,443.8534,420.7967,443.2018,420.1452,442.2798,419.2231,441.5,418.4434,441.5161,418.4594,442.2925,417.6358,443.1421,416.8854,443.9564,416.0997,444.838,415.3814,445.5,414.4434" style="stroke:#181818;stroke-width:1.0;"/><path d="M439.5,418.4434 L439.5,418.7236 L449.2941,417.8909 L459.0882,418.7011 L468.8824,418.9763 L478.6765,417.4922 L488.4706,418.3397 L498.2647,417.8747 L508.0588,417.932 L517.8529,418.3525 L527.6471,417.5215 L537.4412,419.1815 L547.2353,417.603 L557.0294,418.1797 L566.8235,419.0193 L576.6176,418.329 L586.4118,418.5343 L596.2059,418.4008 L606,418.4434 " fill="none" style="stroke:#181818;stroke-width:1.0;stroke-dasharray:2.0,2.0;"/><text fill="#000000" font-family="FG Virgil" font-size="13" lengthAdjust="spacing" textLength="38" x="451.5" y="413.1807">dishes</text><polygon fill="#181818" points="236.5,445.7344,236.526,445.7994,234.4487,446.4061,232.5239,447.3942,230.5495,448.2581,228.4117,448.7136,226.5,449.7344,226.4904,449.7103,228.4472,450.4024,230.4525,451.2157,232.4916,452.1133,234.4144,452.7204,236.5,453.7344,236.6305,453.8649,235.5514,452.7858,234.8534,452.0878,234.2018,451.4362,233.2798,450.5142,232.5,449.7344,232.5161,449.7505,233.2925,448.9268,234.1421,448.1765,234.9564,447.3907,235.838,446.6724,236.5,445.7344" style="stroke:#181818;stroke-width:1.0;"/><path d="M230.5,449.7344 L230.5,450.0146 L240.4,449.1819 L250.3,449.9921 L260.2,450.2673 L270.1,448.7832 L280,449.6308 L289.9,449.1657 L299.8,449.223 L309.7,449.6435 L319.6,448.8125 L329.5,450.4726 L339.4,448.894 L349.3,449.4707 L359.2,450.3103 L369.1,449.62 L379,449.8254 L388.9,449.6918 L398.8,449.9724 L408.7,450.0532 L418.6,450.5153 L428.5,449.7344 " fill="none" style="stroke:#181818;stroke-width:1.0;"/><text fill="#000000" font-family="FG Virgil" font-size="13" lengthAdjust="spacing" textLength="38" x="242.5" y="444.4717">dishes</text><polygon fill="#181818" points="64.5,477.0254,64.526,477.0904,62.4487,477.6972,60.5239,478.6852,58.5495,479.5491,56.4117,480.0046,54.5,481.0254,54.4904,481.0013,56.4472,481.6934,58.4525,482.5067,60.4916,483.4043,62.4144,484.0114,64.5,485.0254,64.6305,485.1559,63.5514,484.0768,62.8534,483.3788,62.2018,482.7272,61.2798,481.8052,60.5,481.0254,60.5161,481.0415,61.2925,480.2179,62.1421,479.4675,62.9564,478.6818,63.838,477.9634,64.5,477.0254" style="stroke:#181818;stroke-width:1.0;"/><path d="M58.5,481.0254 L58.5,481.3056 L68.5625,480.473 L78.625,481.2831 L88.6875,481.5583 L98.75,480.0742 L108.8125,480.9218 L118.875,480.4567 L128.9375,480.5141 L139,480.9345 L149.0625,480.1036 L159.125,481.7636 L169.1875,480.185 L179.25,480.7617 L189.3125,481.6013 L199.375,480.911 L209.4375,481.1164 L219.5,481.0254 " fill="none" style="stroke:#181818;stroke-width:1.0;stroke-dasharray:2.0,2.0;"/><text fill="#000000" font-family="FG Virgil" font-size="13" lengthAdjust="spacing" textLength="87" x="70.5" y="475.7627">Display Dishes</text><!--SRC=[ZLBBRjim4BphAnOv9GV_W20OC1gaCD3qKCCzzR8XLz8Y54cGb0FtwxkKAubEapHxa4Jjp73s4P_PUWmuG8zMlmHEYIoaC58LbzJWh5DzS0EzpdXKpzZH8PqDGI2LYfoc5aUJ7fnDtr6e3r_X9uUEJO69FMhtmhQ35asagaALN817ikCZMb4EW15s-MSbZCIAFTe4NvoDehqx8HjyCdJFiQTut6UqF9l61ufa4oPsThlz15V-fk2CkTnOd9e6lJUitfAw-SOnPVw1meaLtMJkuQG-9caXr9armU_TW6o5eQSF0MjC-8IH86D-a7UHfVvp1XUdfWdBGKZLr2JORBRIW7ek4fOguL9cRZ2VC96WAf2GRWbbhRS65KZorJlPYV-tPxTt4sYHN74NTWxh916uwnEujknh3JrhBSk6O-fTuDzJhs2Cakj6sGwRYE2NlOtoYfuKjwn0CtQoE7Vh1JaAMR4h0n2Vnkp-jJh7ObcmrrBNVlCiQpZm8CDicJHu2b5cJbRHvwnb1V6q3gw6bgtUpVRUCxOIhlMA3TZCjUhBQ4kOflygJSvUJVTZfQjchRJDDczSGIqeRwt4SI_NJkjQvwtq1i_pTXRCu_uF]--></g></svg>