<?xml version="1.0" encoding="us-ascii" standalone="no"?><svg xmlns="http://www.w3.org/2000/svg" xmlns:xlink="http://www.w3.org/1999/xlink" contentStyleType="text/css" height="578px" preserveAspectRatio="none" style="width:416px;height:578px;background:#FFFFFF;" version="1.1" viewBox="0 0 416 578" width="416px" zoomAndPan="magnify"><defs/><g><!--class {NameOfUC}X--><g id="elem_{NameOfUC}X"><rect codeLine="5" fill="#F1F1F1" height="52.582" id="{NameOfUC}X" rx="2.5" ry="2.5" style="stroke:#181818;stroke-width:0.5;" width="120" x="206" y="7"/><ellipse cx="221" cy="29.291" fill="#ADD1B2" rx="11" ry="11" style="stroke:#181818;stroke-width:1.0;"/><path d="M223.7656,25.166 Q223.9219,24.9473 224.1094,24.8379 Q224.2969,24.7285 224.5156,24.7285 Q224.8906,24.7285 225.125,24.9941 Q225.3594,25.2441 225.3594,25.8535 L225.3594,27.3066 Q225.3594,27.916 225.125,28.1816 Q224.8906,28.4473 224.5156,28.4473 Q224.1719,28.4473 223.9688,28.2441 Q223.7656,28.0566 223.6563,27.541 Q223.6094,27.1816 223.4219,26.9941 Q223.0938,26.6191 222.4844,26.4004 Q221.875,26.1816 221.25,26.1816 Q220.4844,26.1816 219.8438,26.5098 Q219.2188,26.8379 218.7188,27.5879 Q218.2344,28.3379 218.2344,29.3691 L218.2344,30.4629 Q218.2344,31.6973 219.125,32.5254 Q220.0156,33.3379 221.6094,33.3379 Q222.5469,33.3379 223.2031,33.0879 Q223.5938,32.9316 224.0156,32.4941 Q224.2813,32.2285 224.4219,32.1504 Q224.5781,32.0723 224.7813,32.0723 Q225.1094,32.0723 225.3594,32.3379 Q225.625,32.5879 225.625,32.9316 Q225.625,33.2754 225.2813,33.6816 Q224.7813,34.2598 223.9844,34.5879 Q222.9063,35.041 221.6094,35.041 Q220.0938,35.041 218.8906,34.416 Q217.9063,33.916 217.2188,32.8535 Q216.5313,31.7754 216.5313,30.4941 L216.5313,29.3379 Q216.5313,28.0098 217.1406,26.8691 Q217.7656,25.7129 218.8594,25.1035 Q219.9531,24.4785 221.1875,24.4785 Q221.9219,24.4785 222.5625,24.6504 Q223.2188,24.8066 223.7656,25.166 Z " fill="#000000"/><text fill="#000000" font-family="sans-serif" font-size="12" font-style="italic" lengthAdjust="spacing" textLength="74" x="242" y="24.9492">&#171;application&#187;</text><text fill="#000000" font-family="sans-serif" font-size="14" lengthAdjust="spacing" textLength="88" x="235" y="43.0684">{NameOfUC}X</text><line style="stroke:#181818;stroke-width:0.5;" x1="207" x2="325" y1="51.582" y2="51.582"/></g><!--class PersistenceContext--><g id="elem_PersistenceContext"><rect codeLine="8" fill="#F1F1F1" height="71.2031" id="PersistenceContext" rx="2.5" ry="2.5" style="stroke:#181818;stroke-width:0.5;" width="228" x="53" y="120"/><ellipse cx="101.75" cy="142.291" fill="#ADD1B2" rx="11" ry="11" style="stroke:#181818;stroke-width:1.0;"/><path d="M104.5156,138.166 Q104.6719,137.9473 104.8594,137.8379 Q105.0469,137.7285 105.2656,137.7285 Q105.6406,137.7285 105.875,137.9941 Q106.1094,138.2441 106.1094,138.8535 L106.1094,140.3066 Q106.1094,140.916 105.875,141.1816 Q105.6406,141.4473 105.2656,141.4473 Q104.9219,141.4473 104.7188,141.2441 Q104.5156,141.0566 104.4063,140.541 Q104.3594,140.1816 104.1719,139.9941 Q103.8438,139.6191 103.2344,139.4004 Q102.625,139.1816 102,139.1816 Q101.2344,139.1816 100.5938,139.5098 Q99.9688,139.8379 99.4688,140.5879 Q98.9844,141.3379 98.9844,142.3691 L98.9844,143.4629 Q98.9844,144.6973 99.875,145.5254 Q100.7656,146.3379 102.3594,146.3379 Q103.2969,146.3379 103.9531,146.0879 Q104.3438,145.9316 104.7656,145.4941 Q105.0313,145.2285 105.1719,145.1504 Q105.3281,145.0723 105.5313,145.0723 Q105.8594,145.0723 106.1094,145.3379 Q106.375,145.5879 106.375,145.9316 Q106.375,146.2754 106.0313,146.6816 Q105.5313,147.2598 104.7344,147.5879 Q103.6563,148.041 102.3594,148.041 Q100.8438,148.041 99.6406,147.416 Q98.6563,146.916 97.9688,145.8535 Q97.2813,144.7754 97.2813,143.4941 L97.2813,142.3379 Q97.2813,141.0098 97.8906,139.8691 Q98.5156,138.7129 99.6094,138.1035 Q100.7031,137.4785 101.9375,137.4785 Q102.6719,137.4785 103.3125,137.6504 Q103.9688,137.8066 104.5156,138.166 Z " fill="#000000"/><text fill="#000000" font-family="sans-serif" font-size="12" font-style="italic" lengthAdjust="spacing" textLength="77" x="144.75" y="137.9492">&#171;persistence&#187;</text><text fill="#000000" font-family="sans-serif" font-size="14" lengthAdjust="spacing" textLength="122" x="122.25" y="156.0684">PersistenceContext</text><line style="stroke:#181818;stroke-width:0.5;" x1="54" x2="280" y1="164.582" y2="164.582"/><text fill="#000000" font-family="sans-serif" font-size="14" lengthAdjust="spacing" textLength="216" x="59" y="183.6895">+repositories(): RepositoryFactory</text></g><!--class AppSettings--><g id="elem_AppSettings"><rect codeLine="12" fill="#F1F1F1" height="77.2422" id="AppSettings" rx="2.5" ry="2.5" style="stroke:#181818;stroke-width:0.5;" width="290" x="7" y="251"/><ellipse cx="109.75" cy="267" fill="#ADD1B2" rx="11" ry="11" style="stroke:#181818;stroke-width:1.0;"/><path d="M112.5156,262.875 Q112.6719,262.6563 112.8594,262.5469 Q113.0469,262.4375 113.2656,262.4375 Q113.6406,262.4375 113.875,262.7031 Q114.1094,262.9531 114.1094,263.5625 L114.1094,265.0156 Q114.1094,265.625 113.875,265.8906 Q113.6406,266.1563 113.2656,266.1563 Q112.9219,266.1563 112.7188,265.9531 Q112.5156,265.7656 112.4063,265.25 Q112.3594,264.8906 112.1719,264.7031 Q111.8438,264.3281 111.2344,264.1094 Q110.625,263.8906 110,263.8906 Q109.2344,263.8906 108.5938,264.2188 Q107.9688,264.5469 107.4688,265.2969 Q106.9844,266.0469 106.9844,267.0781 L106.9844,268.1719 Q106.9844,269.4063 107.875,270.2344 Q108.7656,271.0469 110.3594,271.0469 Q111.2969,271.0469 111.9531,270.7969 Q112.3438,270.6406 112.7656,270.2031 Q113.0313,269.9375 113.1719,269.8594 Q113.3281,269.7813 113.5313,269.7813 Q113.8594,269.7813 114.1094,270.0469 Q114.375,270.2969 114.375,270.6406 Q114.375,270.9844 114.0313,271.3906 Q113.5313,271.9688 112.7344,272.2969 Q111.6563,272.75 110.3594,272.75 Q108.8438,272.75 107.6406,272.125 Q106.6563,271.625 105.9688,270.5625 Q105.2813,269.4844 105.2813,268.2031 L105.2813,267.0469 Q105.2813,265.7188 105.8906,264.5781 Q106.5156,263.4219 107.6094,262.8125 Q108.7031,262.1875 109.9375,262.1875 Q110.6719,262.1875 111.3125,262.3594 Q111.9688,262.5156 112.5156,262.875 Z " fill="#000000"/><text fill="#000000" font-family="sans-serif" font-size="14" lengthAdjust="spacing" textLength="76" x="130.25" y="272.7969">AppSettings</text><line style="stroke:#181818;stroke-width:0.5;" x1="8" x2="296" y1="283" y2="283"/><text fill="#000000" font-family="sans-serif" font-size="14" lengthAdjust="spacing" textLength="155" x="13" y="302.1074">+instance(): AppSettings</text><text fill="#000000" font-family="sans-serif" font-size="14" lengthAdjust="spacing" textLength="278" x="13" y="320.7285">+getRepositoryFactory(): RepositoryFactory</text></g><!--class RepositoryFactory--><g id="elem_RepositoryFactory"><rect codeLine="17" fill="#F1F1F1" height="71.2031" id="RepositoryFactory" rx="2.5" ry="2.5" style="stroke:#181818;stroke-width:0.5;" width="316" x="93" y="388"/><ellipse cx="188.75" cy="410.291" fill="#ADD1B2" rx="11" ry="11" style="stroke:#181818;stroke-width:1.0;"/><path d="M191.5156,406.166 Q191.6719,405.9473 191.8594,405.8379 Q192.0469,405.7285 192.2656,405.7285 Q192.6406,405.7285 192.875,405.9941 Q193.1094,406.2441 193.1094,406.8535 L193.1094,408.3066 Q193.1094,408.916 192.875,409.1816 Q192.6406,409.4473 192.2656,409.4473 Q191.9219,409.4473 191.7188,409.2441 Q191.5156,409.0566 191.4063,408.541 Q191.3594,408.1816 191.1719,407.9941 Q190.8438,407.6191 190.2344,407.4004 Q189.625,407.1816 189,407.1816 Q188.2344,407.1816 187.5938,407.5098 Q186.9688,407.8379 186.4688,408.5879 Q185.9844,409.3379 185.9844,410.3691 L185.9844,411.4629 Q185.9844,412.6973 186.875,413.5254 Q187.7656,414.3379 189.3594,414.3379 Q190.2969,414.3379 190.9531,414.0879 Q191.3438,413.9316 191.7656,413.4941 Q192.0313,413.2285 192.1719,413.1504 Q192.3281,413.0723 192.5313,413.0723 Q192.8594,413.0723 193.1094,413.3379 Q193.375,413.5879 193.375,413.9316 Q193.375,414.2754 193.0313,414.6816 Q192.5313,415.2598 191.7344,415.5879 Q190.6563,416.041 189.3594,416.041 Q187.8438,416.041 186.6406,415.416 Q185.6563,414.916 184.9688,413.8535 Q184.2813,412.7754 184.2813,411.4941 L184.2813,410.3379 Q184.2813,409.0098 184.8906,407.8691 Q185.5156,406.7129 186.6094,406.1035 Q187.7031,405.4785 188.9375,405.4785 Q189.6719,405.4785 190.3125,405.6504 Q190.9688,405.8066 191.5156,406.166 Z " fill="#000000"/><text fill="#000000" font-family="sans-serif" font-size="12" font-style="italic" lengthAdjust="spacing" textLength="50" x="242.25" y="405.9492">&#171;factory&#187;</text><text fill="#000000" font-family="sans-serif" font-size="14" lengthAdjust="spacing" textLength="116" x="209.25" y="424.0684">RepositoryFactory</text><line style="stroke:#181818;stroke-width:0.5;" x1="94" x2="408" y1="432.582" y2="432.582"/><text fill="#000000" font-family="sans-serif" font-size="14" lengthAdjust="spacing" textLength="304" x="99" y="451.6895">+{nameOfObjects}(): {NameOfObject}Repository</text></g><!--class {NameOfObject}Repository--><g id="elem_{NameOfObject}Repository"><rect codeLine="21" fill="#F1F1F1" height="52.582" id="{NameOfObject}Repository" rx="2.5" ry="2.5" style="stroke:#181818;stroke-width:0.5;" width="202" x="150" y="519"/><ellipse cx="165" cy="541.291" fill="#ADD1B2" rx="11" ry="11" style="stroke:#181818;stroke-width:1.0;"/><path d="M167.7656,537.166 Q167.9219,536.9473 168.1094,536.8379 Q168.2969,536.7285 168.5156,536.7285 Q168.8906,536.7285 169.125,536.9941 Q169.3594,537.2441 169.3594,537.8535 L169.3594,539.3066 Q169.3594,539.916 169.125,540.1816 Q168.8906,540.4473 168.5156,540.4473 Q168.1719,540.4473 167.9688,540.2441 Q167.7656,540.0566 167.6563,539.541 Q167.6094,539.1816 167.4219,538.9941 Q167.0938,538.6191 166.4844,538.4004 Q165.875,538.1816 165.25,538.1816 Q164.4844,538.1816 163.8438,538.5098 Q163.2188,538.8379 162.7188,539.5879 Q162.2344,540.3379 162.2344,541.3691 L162.2344,542.4629 Q162.2344,543.6973 163.125,544.5254 Q164.0156,545.3379 165.6094,545.3379 Q166.5469,545.3379 167.2031,545.0879 Q167.5938,544.9316 168.0156,544.4941 Q168.2813,544.2285 168.4219,544.1504 Q168.5781,544.0723 168.7813,544.0723 Q169.1094,544.0723 169.3594,544.3379 Q169.625,544.5879 169.625,544.9316 Q169.625,545.2754 169.2813,545.6816 Q168.7813,546.2598 167.9844,546.5879 Q166.9063,547.041 165.6094,547.041 Q164.0938,547.041 162.8906,546.416 Q161.9063,545.916 161.2188,544.8535 Q160.5313,543.7754 160.5313,542.4941 L160.5313,541.3379 Q160.5313,540.0098 161.1406,538.8691 Q161.7656,537.7129 162.8594,537.1035 Q163.9531,536.4785 165.1875,536.4785 Q165.9219,536.4785 166.5625,536.6504 Q167.2188,536.8066 167.7656,537.166 Z " fill="#000000"/><text fill="#000000" font-family="sans-serif" font-size="12" font-style="italic" lengthAdjust="spacing" textLength="68" x="230" y="536.9492">&#171;repository&#187;</text><text fill="#000000" font-family="sans-serif" font-size="14" lengthAdjust="spacing" textLength="170" x="179" y="555.0684">{NameOfObject}Repository</text><line style="stroke:#181818;stroke-width:0.5;" x1="151" x2="351" y1="563.582" y2="563.582"/></g><!--link {NameOfUC}X to PersistenceContext--><g id="link_{NameOfUC}X_PersistenceContext"><path codeLine="24" d="M244.76,60.24 C230.44,77.6 215.1973,96.071 199.5373,115.061 " fill="none" id="{NameOfUC}X-to-PersistenceContext" style="stroke:#181818;stroke-width:1.0;stroke-dasharray:7.0,7.0;"/><polygon fill="#181818" points="195.72,119.69,204.532,115.2913,198.9011,115.8325,198.3599,110.2016,195.72,119.69" style="stroke:#181818;stroke-width:1.0;"/></g><!--link PersistenceContext to AppSettings--><g id="link_PersistenceContext_AppSettings"><path codeLine="25" d="M163.06,191.18 C160.98,209.51 159.0997,226.0786 156.9597,244.8486 " fill="none" id="PersistenceContext-to-AppSettings" style="stroke:#181818;stroke-width:1.0;stroke-dasharray:7.0,7.0;"/><polygon fill="#181818" points="156.28,250.81,161.2738,242.321,156.8464,245.8422,153.3252,241.4148,156.28,250.81" style="stroke:#181818;stroke-width:1.0;"/></g><!--link AppSettings to RepositoryFactory--><g id="link_AppSettings_RepositoryFactory"><path codeLine="26" d="M180.37,328.33 C194.43,347.07 207.6796,364.7403 221.3996,383.0303 " fill="none" id="AppSettings-to-RepositoryFactory" style="stroke:#181818;stroke-width:1.0;stroke-dasharray:7.0,7.0;"/><polygon fill="#181818" points="225,387.83,222.7992,378.2302,221.9997,383.8303,216.3996,383.0308,225,387.83" style="stroke:#181818;stroke-width:1.0;"/></g><!--link {NameOfUC}X to RepositoryFactory--><g id="link_{NameOfUC}X_RepositoryFactory"><path codeLine="27" d="M278.05,60.15 C300.65,111.81 344.54,231.69 315,328 C308.32,349.78 298.3772,366.3134 285.4372,383.1434 " fill="none" id="{NameOfUC}X-to-RepositoryFactory" style="stroke:#181818;stroke-width:1.0;stroke-dasharray:7.0,7.0;"/><polygon fill="#181818" points="281.78,387.9,290.4368,383.2032,284.8276,383.9362,284.0947,378.327,281.78,387.9" style="stroke:#181818;stroke-width:1.0;"/></g><!--link RepositoryFactory to {NameOfObject}Repository--><g id="link_RepositoryFactory_{NameOfObject}Repository"><path codeLine="28" d="M251,459.21 C251,478.18 251,495.27 251,512.64 " fill="none" id="RepositoryFactory-to-{NameOfObject}Repository" style="stroke:#181818;stroke-width:1.0;stroke-dasharray:7.0,7.0;"/><polygon fill="#181818" points="251,518.64,255,509.64,251,513.64,247,509.64,251,518.64" style="stroke:#181818;stroke-width:1.0;"/></g><!--SRC=[XL11QiCm4Bph5OjF2ONGSmY642ZqqfI6GgwAkactZIMXtK9Tux_7igFQnGuzIPgP7UqCVvBrEkW2p5aphqK27Ru47uspE_f1k5Vlz8Q0XPSITA9PgLOFMVMa2zmUNpVrFeFLIdj_9gE5dCrpg5ITXCyOc5ZG6jmuA_WjZThtOAi6k0le7PEuGCYp-H9Uqhjyq2OUlUNQ-nsAa3rnDqkMHJTUSMv0Hkg4CdBwntv4DGiVkrjQjh9j-EtX0urm7GslVNHGtNlqljajIUplDtwPwllRy6AHJrMf9h0e7ROmh2joutmJVqs8nb0KtawbBW00]--></g></svg>