<?xml version="1.0" encoding="us-ascii" standalone="no"?><svg xmlns="http://www.w3.org/2000/svg" xmlns:xlink="http://www.w3.org/1999/xlink" contentStyleType="text/css" height="554px" preserveAspectRatio="none" style="width:719px;height:554px;background:#FFFFFF;" version="1.1" viewBox="0 0 719 554" width="719px" zoomAndPan="magnify"><defs/><g><polygon fill="#FFFFFF" points="49,104.2422,49,104.3122,51,104.1041,53,104.3066,55,104.3754,57,104.0044,59,104.2422,58.9223,104.2422,58.5735,114.3304,58.6165,124.4186,58.9318,134.5067,58.3086,144.5949,59.5536,154.6831,58.3697,164.7713,58.8022,174.8595,59.4319,184.9477,58.9142,195.0359,59.0682,205.1241,58.9681,215.2122,59.1785,225.3004,59.2391,235.3886,59.5857,245.4768,59.6711,255.565,59.6793,265.6532,59.2546,275.7414,59.4636,285.8295,59.7022,295.9177,58.2788,306.0059,59.6785,316.0941,58.7035,326.1823,59.5338,336.2705,58.505,346.3587,58.9315,356.4469,59.7416,366.535,58.9513,376.6232,59.1053,386.7114,59.3386,396.7996,59.4162,406.8878,58.9961,416.976,59.2872,427.0642,59,437.1523,59,436.9615,57,437.2471,55,437.3351,53,437.3005,51,437.3567,49,437.1523,48.5169,437.1523,48.3478,427.0642,48.3786,416.976,48.9411,406.8878,48.8035,396.7996,49.6814,386.7114,48.8253,376.6232,48.6569,366.535,49.2283,356.4469,48.3332,346.3587,48.4809,336.2705,49.649,326.1823,49.4357,316.0941,49.7345,306.0059,48.6782,295.9177,49.3192,285.8295,49.5904,275.7414,48.5276,265.6532,48.9041,255.565,49.126,245.4768,49.6518,235.3886,48.9958,225.3004,49.4626,215.2122,48.4462,205.1241,48.3227,195.0359,49.5036,184.9477,48.2831,174.8595,49.509,164.7713,49.2066,154.6831,48.7321,144.5949,48.6462,134.5067,49.4588,124.4186,48.7007,114.3304,49,104.2422" style="stroke:#181818;stroke-width:1.0;"/><polygon fill="#FFFFFF" points="176,135.5332,176,135.6033,178,135.3951,180,135.5976,182,135.6664,184,135.2954,186,135.5332,185.9223,135.5332,185.5735,145.7304,185.6165,155.9275,185.9318,166.1247,185.3086,176.3219,186.5536,186.519,185.3697,196.7162,185.8022,206.9133,186.4319,217.1105,185.9142,227.3077,186.0682,237.5048,185.9681,247.702,186.1785,257.8992,186.2391,268.0963,186.5857,278.2935,186.6711,288.4906,186.6793,298.6878,186.2546,308.885,186.4636,319.0821,186,329.2793,186,329.5134,184,329.0389,182,329.5055,180,329.1805,178,329.4572,176,329.2793,175.505,329.2793,175.9315,319.0821,176.7416,308.885,175.9513,298.6878,176.1053,288.4906,176.3386,278.2935,176.4162,268.0963,175.9961,257.8992,176.2872,247.702,175.4276,237.5048,176.2844,227.3077,176.5482,217.1105,176.4445,206.9133,176.613,196.7162,175.5169,186.519,175.3478,176.3219,175.3786,166.1247,175.9411,155.9275,175.8035,145.7304,176,135.5332" style="stroke:#181818;stroke-width:1.0;"/><polygon fill="#FFFFFF" points="342,166.8242,342,166.8943,344,166.6861,346,166.8886,348,166.9574,350,166.5864,352,166.8242,351.9223,166.8242,351.5735,176.9138,351.6165,187.0033,351.9318,197.0928,351.3086,207.1824,352.5536,217.2719,351.3697,227.3615,351.8022,237.451,352.4319,247.5406,351.9142,257.6301,352.0682,267.7197,351.9681,277.8092,352.1785,287.8987,352,297.9883,352,298.068,350,298.1835,348,298.212,346,298.2147,344,298.0732,342,297.9883,342.4636,297.9883,342.7022,287.8987,341.2788,277.8092,342.6785,267.7197,341.7035,257.6301,342.5338,247.5406,341.505,237.451,341.9315,227.3615,342.7416,217.2719,341.9513,207.1824,342.1053,197.0928,342.3386,187.0033,342.4162,176.9138,342,166.8242" style="stroke:#181818;stroke-width:1.0;"/><polygon fill="#FFFFFF" points="462,360.5703,462,360.6404,464,360.4322,466,360.6347,468,360.7035,470,360.3325,472,360.5703,471.9223,360.5703,471.5735,371.0007,471.6165,381.431,471.9318,391.8613,471.3086,402.2917,472.5536,412.722,472,423.1523,472,422.9423,470,423.0864,468,423.2963,466,423.1238,464,423.1751,462,423.1523,461.9681,423.1523,462.1785,412.722,462.2391,402.2917,462.5857,391.8613,462.6711,381.431,462.6793,371.0007,462,360.5703" style="stroke:#181818;stroke-width:1.0;"/><path d="M54,88.2422 L54.2802,88.2422 L53.4476,98.1587 L54.2577,108.0752 L54.5329,117.9917 L53.0488,127.9082 L53.8964,137.8246 L53.4313,147.7411 L53.4887,157.6576 L53.9091,167.5741 L53.0782,177.4906 L54.7382,187.4071 L53.1596,197.3236 L53.7363,207.2401 L54.5759,217.1566 L53.8856,227.0731 L54.091,236.9895 L53.9574,246.906 L54.238,256.8225 L54.3188,266.739 L54.7809,276.6555 L54.8947,286.572 L54.9057,296.4885 L54.3395,306.405 L54.6181,316.3215 L54.9363,326.238 L53.0384,336.1545 L54.9047,346.0709 L53.6047,355.9874 L54.7117,365.9039 L53.34,375.8204 L53.9087,385.7369 L54.9888,395.6534 L53.935,405.5699 L54.1404,415.4864 L54.4515,425.4029 L54.555,435.3194 L53.9948,445.2359 L54,455.1523 " fill="none" style="stroke:#181818;stroke-width:0.5;stroke-dasharray:5.0,5.0;"/><path d="M181,88.2422 L181.2802,88.2422 L180.4476,98.1587 L181.2577,108.0752 L181.5329,117.9917 L180.0488,127.9082 L180.8964,137.8246 L180.4313,147.7411 L180.4887,157.6576 L180.9091,167.5741 L180.0782,177.4906 L181.7382,187.4071 L180.1596,197.3236 L180.7363,207.2401 L181.5759,217.1566 L180.8856,227.0731 L181.091,236.9895 L180.9574,246.906 L181.238,256.8225 L181.3188,266.739 L181.7809,276.6555 L181.8947,286.572 L181.9057,296.4885 L181.3395,306.405 L181.6181,316.3215 L181.9363,326.238 L180.0384,336.1545 L181.9047,346.0709 L180.6047,355.9874 L181.7117,365.9039 L180.34,375.8204 L180.9087,385.7369 L181.9888,395.6534 L180.935,405.5699 L181.1404,415.4864 L181.4515,425.4029 L181.555,435.3194 L180.9948,445.2359 L181,455.1523 " fill="none" style="stroke:#181818;stroke-width:0.5;stroke-dasharray:5.0,5.0;"/><path d="M347,88.2422 L347.2802,88.2422 L346.4476,98.1587 L347.2577,108.0752 L347.5329,117.9917 L346.0488,127.9082 L346.8964,137.8246 L346.4313,147.7411 L346.4887,157.6576 L346.9091,167.5741 L346.0782,177.4906 L347.7382,187.4071 L346.1596,197.3236 L346.7363,207.2401 L347.5759,217.1566 L346.8856,227.0731 L347.091,236.9895 L346.9574,246.906 L347.238,256.8225 L347.3188,266.739 L347.7809,276.6555 L347.8947,286.572 L347.9057,296.4885 L347.3395,306.405 L347.6181,316.3215 L347.9363,326.238 L346.0384,336.1545 L347.9047,346.0709 L346.6047,355.9874 L347.7117,365.9039 L346.34,375.8204 L346.9087,385.7369 L347.9888,395.6534 L346.935,405.5699 L347.1404,415.4864 L347.4515,425.4029 L347.555,435.3194 L346.9948,445.2359 L347,455.1523 " fill="none" style="stroke:#181818;stroke-width:0.5;stroke-dasharray:5.0,5.0;"/><path d="M467,88.2422 L467.2802,88.2422 L466.4476,98.1587 L467.2577,108.0752 L467.5329,117.9917 L466.0488,127.9082 L466.8964,137.8246 L466.4313,147.7411 L466.4887,157.6576 L466.9091,167.5741 L466.0782,177.4906 L467.7382,187.4071 L466.1596,197.3236 L466.7363,207.2401 L467.5759,217.1566 L466.8856,227.0731 L467.091,236.9895 L466.9574,246.906 L467.238,256.8225 L467.3188,266.739 L467.7809,276.6555 L467.8947,286.572 L467.9057,296.4885 L467.3395,306.405 L467.6181,316.3215 L467.9363,326.238 L466.0384,336.1545 L467.9047,346.0709 L466.6047,355.9874 L467.7117,365.9039 L466.34,375.8204 L466.9087,385.7369 L467.9888,395.6534 L466.935,405.5699 L467.1404,415.4864 L467.4515,425.4029 L467.555,435.3194 L466.9948,445.2359 L467,455.1523 " fill="none" style="stroke:#181818;stroke-width:0.5;stroke-dasharray:5.0,5.0;"/><path d="M630,88.2422 L630.2802,88.2422 L629.4476,98.1587 L630.2577,108.0752 L630.5329,117.9917 L629.0488,127.9082 L629.8964,137.8246 L629.4313,147.7411 L629.4887,157.6576 L629.9091,167.5741 L629.0782,177.4906 L630.7382,187.4071 L629.1596,197.3236 L629.7363,207.2401 L630.5759,217.1566 L629.8856,227.0731 L630.091,236.9895 L629.9574,246.906 L630.238,256.8225 L630.3188,266.739 L630.7809,276.6555 L630.8947,286.572 L630.9057,296.4885 L630.3395,306.405 L630.6181,316.3215 L630.9363,326.238 L629.0384,336.1545 L630.9047,346.0709 L629.6047,355.9874 L630.7117,365.9039 L629.34,375.8204 L629.9087,385.7369 L630.9888,395.6534 L629.935,405.5699 L630.1404,415.4864 L630.4515,425.4029 L630.555,435.3194 L629.9948,445.2359 L630,455.1523 " fill="none" style="stroke:#181818;stroke-width:0.5;stroke-dasharray:5.0,5.0;"/><polygon fill="#E3E3E3" points="7.5,36,7.5,36.2102,17.8333,35.5857,28.1667,36.1933,38.5,36.3997,48.8333,35.2866,59.1667,35.9223,69.5,35.5735,79.8333,35.6165,90.1667,35.9318,100.5,36,100.4118,35.7871,100.9242,36.3169,101.1267,36.0988,101.5354,36.3784,101.9693,36.7188,102.2678,36.7322,102.2414,36.7213,102.4352,37.0945,102.5508,37.4353,102.7621,37.8157,102.9272,38.177,103,38.5,103.5857,38.5,103.6711,47.7484,103.6793,56.9969,103.2546,66.2453,103.4636,75.4938,103,84.7422,103.2163,84.8318,102.6315,85.0037,102.9161,85.5358,102.4693,85.765,102.5786,86.2245,102.2678,86.51,102.2046,86.3575,101.9055,86.6353,101.6553,87.0312,101.2009,86.9343,100.867,87.1282,100.5,87.2422,100.5,87.5808,90.1667,87.6584,79.8333,87.2383,69.5,87.5294,59.1667,86.6698,48.8333,87.5266,38.5,87.7904,28.1667,87.6867,17.8333,87.8552,7.5,87.2422,7.4384,87.0934,7.0633,86.8949,6.7136,86.7579,6.4318,86.7847,6.0607,86.5959,5.7322,86.51,5.9421,86.5969,5.532,86.1341,5.3337,85.7591,5.3632,85.4784,4.9411,85.0107,5,84.7422,4.4809,84.7422,5.649,75.4938,5.4357,66.2453,5.7345,56.9969,4.6782,47.7484,5,38.5,5.0983,38.5407,5.3283,38.2218,5.1474,37.7326,5.4098,37.4271,5.6246,37.1019,5.7322,36.7322,5.8154,36.9329,6.0853,36.5845,6.4983,36.5818,6.7223,36.1223,7.0601,35.9379,7.5,36" style="stroke:#181818;stroke-width:0.5;"/><text fill="#000000" font-family="FG Virgil" font-size="14" font-style="italic" lengthAdjust="spacing" textLength="84" x="12" y="58.1074">&#171;application&#187;</text><text fill="#000000" font-family="FG Virgil" font-size="14" lengthAdjust="spacing" textLength="84" x="12" y="76.7285">{NameofUS}X</text><polygon fill="#E3E3E3" points="7.5,454.1523,7.5,454.3625,17.8333,453.738,28.1667,454.3456,38.5,454.552,48.8333,453.4389,59.1667,454.0746,69.5,453.7259,79.8333,453.7688,90.1667,454.0842,100.5,454.1523,100.4118,453.9394,100.9242,454.4693,101.1267,454.2511,101.5354,454.5308,101.9693,454.8712,102.2678,454.8846,102.2414,454.8736,102.4352,455.2468,102.5508,455.5876,102.7621,455.968,102.9272,456.3293,103,456.6523,103.5857,456.6523,103.6711,465.9008,103.6793,475.1492,103.2546,484.3977,103.4636,493.6461,103,502.8945,103.2163,502.9841,102.6315,503.1561,102.9161,503.6882,102.4693,503.9174,102.5786,504.3768,102.2678,504.6623,102.2046,504.5099,101.9055,504.7876,101.6553,505.1836,101.2009,505.0866,100.867,505.2805,100.5,505.3945,100.5,505.7332,90.1667,505.8108,79.8333,505.3906,69.5,505.6817,59.1667,504.8221,48.8333,505.6789,38.5,505.9427,28.1667,505.8391,17.8333,506.0076,7.5,505.3945,7.4384,505.2458,7.0633,505.0472,6.7136,504.9103,6.4318,504.9371,6.0607,504.7482,5.7322,504.6623,5.9421,504.7492,5.532,504.2865,5.3337,503.9114,5.3632,503.6308,4.9411,503.163,5,502.8945,4.4809,502.8945,5.649,493.6461,5.4357,484.3977,5.7345,475.1492,4.6782,465.9008,5,456.6523,5.0983,456.6931,5.3283,456.3741,5.1474,455.885,5.4098,455.5795,5.6246,455.2542,5.7322,454.8846,5.8154,455.0853,6.0853,454.7368,6.4983,454.7341,6.7223,454.2747,7.0601,454.0902,7.5,454.1523" style="stroke:#181818;stroke-width:0.5;"/><text fill="#000000" font-family="FG Virgil" font-size="14" font-style="italic" lengthAdjust="spacing" textLength="84" x="12" y="476.2598">&#171;application&#187;</text><text fill="#000000" font-family="FG Virgil" font-size="14" lengthAdjust="spacing" textLength="84" x="12" y="494.8809">{NameofUS}X</text><polygon fill="#E3E3E3" points="115.5,36,115.5,36.2102,125.5769,35.5857,135.6538,36.1933,145.7308,36.3997,155.8077,35.2866,165.8846,35.9223,175.9615,35.5735,186.0385,35.6165,196.1154,35.9318,206.1923,35.3086,216.2692,36.5536,226.3462,35.3697,236.4231,35.8022,246.5,36,246.5551,36.133,246.8426,36.12,247.2158,36.3139,247.5566,36.4295,247.937,36.6408,248.2678,36.7322,248.3414,36.7627,248.5946,37.1605,248.7673,37.5249,248.9163,37.8795,248.932,38.1789,249,38.5,249.4636,38.5,249.7022,47.7484,248.2788,56.9969,249.6785,66.2453,248.7035,75.4938,249,84.7422,249.1644,84.8103,248.7011,85.0326,248.686,85.4406,248.789,85.8974,248.3992,86.1502,248.2678,86.51,248.2812,86.5424,247.9574,86.7607,247.6138,86.931,247.2066,86.9481,246.8902,87.1842,246.5,87.2422,246.5,86.6698,236.4231,87.5266,226.3462,87.7904,216.2692,87.6867,206.1923,87.8552,196.1154,86.7591,186.0385,86.59,175.9615,86.6208,165.8846,87.1833,155.8077,87.0457,145.7308,87.9236,135.6538,87.0675,125.5769,86.8991,115.5,87.2422,115.5291,87.3125,115.0614,86.8904,114.7267,86.7894,114.5221,87.0027,114.1414,86.7906,113.7322,86.51,113.9584,86.6036,113.4867,86.1154,113.5376,85.8436,113.4747,85.5246,113.001,85.0355,113,84.7422,112.9041,84.7422,113.126,75.4938,113.6518,66.2453,112.9958,56.9969,113.4626,47.7484,113,38.5,112.8295,38.4294,112.9379,38.0601,113.448,37.8571,113.2186,37.3479,113.7425,37.1507,113.7322,36.7322,113.7586,36.7959,114.0516,36.5033,114.3942,36.3304,114.8514,36.4342,115.1083,36.0543,115.5,36" style="stroke:#181818;stroke-width:0.5;"/><text fill="#000000" font-family="FG Virgil" font-size="14" font-style="italic" lengthAdjust="spacing" textLength="89" x="136.5" y="58.1074">&#171;persistence&#187;</text><text fill="#000000" font-family="FG Virgil" font-size="14" lengthAdjust="spacing" textLength="122" x="120" y="76.7285">PersistenceContext</text><polygon fill="#E3E3E3" points="115.5,454.1523,115.5,454.3625,125.5769,453.738,135.6538,454.3456,145.7308,454.552,155.8077,453.4389,165.8846,454.0746,175.9615,453.7259,186.0385,453.7688,196.1154,454.0842,206.1923,453.461,216.2692,454.706,226.3462,453.5221,236.4231,453.9546,246.5,454.1523,246.5551,454.2854,246.8426,454.2724,247.2158,454.4663,247.5566,454.5818,247.937,454.7931,248.2678,454.8846,248.3414,454.9151,248.5946,455.3128,248.7673,455.6773,248.9163,456.0319,248.932,456.3313,249,456.6523,249.4636,456.6523,249.7022,465.9008,248.2788,475.1492,249.6785,484.3977,248.7035,493.6461,249,502.8945,249.1644,502.9626,248.7011,503.1849,248.686,503.5929,248.789,504.0498,248.3992,504.3025,248.2678,504.6623,248.2812,504.6947,247.9574,504.913,247.6138,505.0834,247.2066,505.1004,246.8902,505.3365,246.5,505.3945,246.5,504.8221,236.4231,505.6789,226.3462,505.9427,216.2692,505.8391,206.1923,506.0076,196.1154,504.9115,186.0385,504.7423,175.9615,504.7731,165.8846,505.3357,155.8077,505.198,145.7308,506.0759,135.6538,505.2199,125.5769,505.0515,115.5,505.3945,115.5291,505.4648,115.0614,505.0427,114.7267,504.9418,114.5221,505.155,114.1414,504.9429,113.7322,504.6623,113.9584,504.756,113.4867,504.2677,113.5376,503.9959,113.4747,503.677,113.001,503.1878,113,502.8945,112.9041,502.8945,113.126,493.6461,113.6518,484.3977,112.9958,475.1492,113.4626,465.9008,113,456.6523,112.8295,456.5817,112.9379,456.2124,113.448,456.0095,113.2186,455.5002,113.7425,455.3031,113.7322,454.8846,113.7586,454.9482,114.0516,454.6556,114.3942,454.4827,114.8514,454.5865,115.1083,454.2066,115.5,454.1523" style="stroke:#181818;stroke-width:0.5;"/><text fill="#000000" font-family="FG Virgil" font-size="14" font-style="italic" lengthAdjust="spacing" textLength="89" x="136.5" y="476.2598">&#171;persistence&#187;</text><text fill="#000000" font-family="FG Virgil" font-size="14" lengthAdjust="spacing" textLength="122" x="120" y="494.8809">PersistenceContext</text><polygon fill="#E3E3E3" points="304.5,54.6211,304.5,54.8313,313.9444,54.2068,323.3889,54.8144,332.8333,55.0208,342.2778,53.9077,351.7222,54.5434,361.1667,54.1946,370.6111,54.2376,380.0556,54.5529,389.5,54.6211,389.4118,54.4082,389.9242,54.938,390.1267,54.7199,390.5354,54.9995,390.9693,55.3399,391.2678,55.3533,391.2414,55.3424,391.4352,55.7156,391.5508,56.0564,391.7621,56.4368,391.9272,56.798,392,57.1211,392.1952,57.1211,392.2237,62.6453,392.2264,68.1695,392.0849,73.6938,392.1545,79.218,392,84.7422,392.2163,84.8318,391.6315,85.0037,391.9161,85.5358,391.4693,85.765,391.5786,86.2245,391.2678,86.51,391.2046,86.3575,390.9055,86.6353,390.6553,87.0312,390.2009,86.9343,389.867,87.1282,389.5,87.2422,389.5,87.5808,380.0556,87.6584,370.6111,87.2383,361.1667,87.5294,351.7222,86.6698,342.2778,87.5266,332.8333,87.7904,323.3889,87.6867,313.9444,87.8552,304.5,87.2422,304.4384,87.0934,304.0633,86.8949,303.7136,86.7579,303.4318,86.7847,303.0607,86.5959,302.7322,86.51,302.9421,86.5969,302.532,86.1341,302.3337,85.7591,302.3632,85.4784,301.9411,85.0107,302,84.7422,301.827,84.7422,302.2163,79.218,302.1452,73.6938,302.2448,68.1695,301.8927,62.6453,302,57.1211,302.0983,57.1618,302.3283,56.8429,302.1474,56.3537,302.4098,56.0482,302.6246,55.723,302.7322,55.3533,302.8154,55.554,303.0853,55.2056,303.4983,55.2029,303.7223,54.7434,304.0601,54.559,304.5,54.6211" style="stroke:#181818;stroke-width:0.5;"/><text fill="#000000" font-family="FG Virgil" font-size="14" lengthAdjust="spacing" textLength="76" x="309" y="76.7285">AppSettings</text><polygon fill="#E3E3E3" points="304.5,454.1523,304.5,454.3625,313.9444,453.738,323.3889,454.3456,332.8333,454.552,342.2778,453.4389,351.7222,454.0746,361.1667,453.7259,370.6111,453.7688,380.0556,454.0842,389.5,454.1523,389.4118,453.9394,389.9242,454.4693,390.1267,454.2511,390.5354,454.5308,390.9693,454.8712,391.2678,454.8846,391.2414,454.8736,391.4352,455.2468,391.5508,455.5876,391.7621,455.968,391.9272,456.3293,392,456.6523,392.1952,456.6523,392.2237,462.1766,392.2264,467.7008,392.0849,473.225,392.1545,478.7492,392,484.2734,392.2163,484.363,391.6315,484.535,391.9161,485.0671,391.4693,485.2963,391.5786,485.7557,391.2678,486.0412,391.2046,485.8888,390.9055,486.1666,390.6553,486.5625,390.2009,486.4655,389.867,486.6594,389.5,486.7734,389.5,487.1121,380.0556,487.1897,370.6111,486.7695,361.1667,487.0607,351.7222,486.201,342.2778,487.0578,332.8333,487.3216,323.3889,487.218,313.9444,487.3865,304.5,486.7734,304.4384,486.6247,304.0633,486.4261,303.7136,486.2892,303.4318,486.316,303.0607,486.1271,302.7322,486.0412,302.9421,486.1281,302.532,485.6654,302.3337,485.2903,302.3632,485.0097,301.9411,484.5419,302,484.2734,301.827,484.2734,302.2163,478.7492,302.1452,473.225,302.2448,467.7008,301.8927,462.1766,302,456.6523,302.0983,456.6931,302.3283,456.3741,302.1474,455.885,302.4098,455.5795,302.6246,455.2542,302.7322,454.8846,302.8154,455.0853,303.0853,454.7368,303.4983,454.7341,303.7223,454.2747,304.0601,454.0902,304.5,454.1523" style="stroke:#181818;stroke-width:0.5;"/><text fill="#000000" font-family="FG Virgil" font-size="14" lengthAdjust="spacing" textLength="76" x="309" y="476.2598">AppSettings</text><polygon fill="#E3E3E3" points="404.5,36,404.5,36.2102,414.1154,35.5857,423.7308,36.1933,433.3462,36.3997,442.9615,35.2866,452.5769,35.9223,462.1923,35.5735,471.8077,35.6165,481.4231,35.9318,491.0385,35.3086,500.6538,36.5536,510.2692,35.3697,519.8846,35.8022,529.5,36,529.5551,36.133,529.8426,36.12,530.2158,36.3139,530.5566,36.4295,530.937,36.6408,531.2678,36.7322,531.3414,36.7627,531.5946,37.1605,531.7673,37.5249,531.9163,37.8795,531.932,38.1789,532,38.5,532.4636,38.5,532.7022,47.7484,531.2788,56.9969,532.6785,66.2453,531.7035,75.4938,532,84.7422,532.1644,84.8103,531.7011,85.0326,531.686,85.4406,531.789,85.8974,531.3992,86.1502,531.2678,86.51,531.2812,86.5424,530.9574,86.7607,530.6138,86.931,530.2066,86.9481,529.8902,87.1842,529.5,87.2422,529.5,86.6698,519.8846,87.5266,510.2692,87.7904,500.6538,87.6867,491.0385,87.8552,481.4231,86.7591,471.8077,86.59,462.1923,86.6208,452.5769,87.1833,442.9615,87.0457,433.3462,87.9236,423.7308,87.0675,414.1154,86.8991,404.5,87.2422,404.5291,87.3125,404.0614,86.8904,403.7267,86.7894,403.5221,87.0027,403.1414,86.7906,402.7322,86.51,402.9584,86.6036,402.4867,86.1154,402.5376,85.8436,402.4747,85.5246,402.001,85.0355,402,84.7422,401.9041,84.7422,402.126,75.4938,402.6518,66.2453,401.9958,56.9969,402.4626,47.7484,402,38.5,401.8295,38.4294,401.9379,38.0601,402.448,37.8571,402.2186,37.3479,402.7425,37.1507,402.7322,36.7322,402.7586,36.7959,403.0516,36.5033,403.3942,36.3304,403.8514,36.4342,404.1083,36.0543,404.5,36" style="stroke:#181818;stroke-width:0.5;"/><text fill="#000000" font-family="FG Virgil" font-size="14" font-style="italic" lengthAdjust="spacing" textLength="59" x="437.5" y="58.1074">&#171;factory&#187;</text><text fill="#000000" font-family="FG Virgil" font-size="14" lengthAdjust="spacing" textLength="116" x="409" y="76.7285">RepositoryFactory</text><polygon fill="#E3E3E3" points="404.5,454.1523,404.5,454.3625,414.1154,453.738,423.7308,454.3456,433.3462,454.552,442.9615,453.4389,452.5769,454.0746,462.1923,453.7259,471.8077,453.7688,481.4231,454.0842,491.0385,453.461,500.6538,454.706,510.2692,453.5221,519.8846,453.9546,529.5,454.1523,529.5551,454.2854,529.8426,454.2724,530.2158,454.4663,530.5566,454.5818,530.937,454.7931,531.2678,454.8846,531.3414,454.9151,531.5946,455.3128,531.7673,455.6773,531.9163,456.0319,531.932,456.3313,532,456.6523,532.4636,456.6523,532.7022,465.9008,531.2788,475.1492,532.6785,484.3977,531.7035,493.6461,532,502.8945,532.1644,502.9626,531.7011,503.1849,531.686,503.5929,531.789,504.0498,531.3992,504.3025,531.2678,504.6623,531.2812,504.6947,530.9574,504.913,530.6138,505.0834,530.2066,505.1004,529.8902,505.3365,529.5,505.3945,529.5,504.8221,519.8846,505.6789,510.2692,505.9427,500.6538,505.8391,491.0385,506.0076,481.4231,504.9115,471.8077,504.7423,462.1923,504.7731,452.5769,505.3357,442.9615,505.198,433.3462,506.0759,423.7308,505.2199,414.1154,505.0515,404.5,505.3945,404.5291,505.4648,404.0614,505.0427,403.7267,504.9418,403.5221,505.155,403.1414,504.9429,402.7322,504.6623,402.9584,504.756,402.4867,504.2677,402.5376,503.9959,402.4747,503.677,402.001,503.1878,402,502.8945,401.9041,502.8945,402.126,493.6461,402.6518,484.3977,401.9958,475.1492,402.4626,465.9008,402,456.6523,401.8295,456.5817,401.9379,456.2124,402.448,456.0095,402.2186,455.5002,402.7425,455.3031,402.7322,454.8846,402.7586,454.9482,403.0516,454.6556,403.3942,454.4827,403.8514,454.5865,404.1083,454.2066,404.5,454.1523" style="stroke:#181818;stroke-width:0.5;"/><text fill="#000000" font-family="FG Virgil" font-size="14" font-style="italic" lengthAdjust="spacing" textLength="59" x="437.5" y="476.2598">&#171;factory&#187;</text><text fill="#000000" font-family="FG Virgil" font-size="14" lengthAdjust="spacing" textLength="116" x="409" y="494.8809">RepositoryFactory</text><text fill="#000000" font-family="FG Virgil" font-size="14" font-style="italic" lengthAdjust="spacing" textLength="79" x="587.5" y="66.1074">&#171;repository&#187;</text><text fill="#000000" font-family="FG Virgil" font-size="14" lengthAdjust="spacing" textLength="170" x="542" y="84.7285">{NameOfObject}Repository</text><path d="M612,15 L612,15 L612.0651,15.067 L613.6716,13.118 L615.6599,11.5616 L617.5238,9.8774 L618.979,7.7727 L621,6.25 L620.9952,6.2158 L622.7739,5.8122 L624.5766,5.5812 L626.3958,5.47 L628.1577,4.9456 L630,5 L630,5 L630.0339,5.2437 L631.7615,4.9725 L633.5879,5.4129 L635.4264,5.9402 L637.1948,5.9622 L639,6.25 L639.0211,6.2717 L640.7901,7.9898 L642.6553,9.8069 L644.4741,11.5762 L646.3815,13.4366 L648,15 L648.5965,15 L648.6038,20.2 L648.2263,25.4 L648.4121,30.6 L648.6242,35.8 L648,41 L648,41 L647.7766,40.7702 L646.4102,42.9662 L644.3081,44.4055 L642.7654,46.4201 L640.6466,47.8423 L639,49.75 L638.9958,49.7198 L637.2453,50.3265 L635.397,50.2285 L633.6064,50.5464 L631.8207,50.8991 L630,51 L630,51 L630.0254,51.1832 L628.1998,50.7483 L626.4176,50.6264 L624.565,49.998 L622.8174,50.1252 L621,49.75 L621.1698,49.9247 L619.3377,48.1417 L617.5899,46.4453 L615.4503,44.3461 L613.5979,42.5422 L612,41 L611.4476,41 L611.9477,35.8 L611.8253,30.6 L612.6057,25.4 L611.8447,20.2 L612,15 " fill="#E3E3E3" style="stroke:#181818;stroke-width:1.5;"/><path d="M612,15 L612,15 L612.0651,15.067 L613.6716,16.618 L615.6599,18.5616 L617.5238,20.3774 L618.979,21.7727 L621,23.75 L620.9952,23.7158 L622.7739,23.8122 L624.5766,24.0812 L626.3958,24.47 L628.1577,24.4456 L630,25 L630,25 L630.0339,25.2437 L631.7615,24.4725 L633.5879,24.4129 L635.4264,24.4402 L637.1948,23.9622 L639,23.75 L639.0211,23.7717 L640.7901,21.9898 L642.6553,20.3069 L644.4741,18.5762 L646.3815,16.9366 L648,15 " fill="none" style="stroke:#181818;stroke-width:1.5;"/><text fill="#000000" font-family="FG Virgil" font-size="14" font-style="italic" lengthAdjust="spacing" textLength="79" x="587.5" y="469.2598">&#171;repository&#187;</text><text fill="#000000" font-family="FG Virgil" font-size="14" lengthAdjust="spacing" textLength="170" x="542" y="487.8809">{NameOfObject}Repository</text><path d="M612,501.3945 L612,501.3945 L612.0651,501.4615 L613.6716,499.5125 L615.6599,497.9561 L617.5238,496.2719 L618.979,494.1672 L621,492.6445 L620.9952,492.6103 L622.7739,492.2068 L624.5766,491.9757 L626.3958,491.8645 L628.1577,491.3402 L630,491.3945 L630,491.3945 L630.0339,491.6383 L631.7615,491.3671 L633.5879,491.8075 L635.4264,492.3347 L637.1948,492.3568 L639,492.6445 L639.0211,492.6663 L640.7901,494.3844 L642.6553,496.2014 L644.4741,497.9707 L646.3815,499.8312 L648,501.3945 L648.5965,501.3945 L648.6038,506.5945 L648.2263,511.7945 L648.4121,516.9945 L648.6242,522.1945 L648,527.3945 L648,527.3945 L647.7766,527.1647 L646.4102,529.3607 L644.3081,530.8 L642.7654,532.8146 L640.6466,534.2368 L639,536.1445 L638.9958,536.1144 L637.2453,536.721 L635.397,536.6231 L633.6064,536.9409 L631.8207,537.2936 L630,537.3945 L630,537.3945 L630.0254,537.5778 L628.1998,537.1428 L626.4176,537.021 L624.565,536.3925 L622.8174,536.5197 L621,536.1445 L621.1698,536.3192 L619.3377,534.5362 L617.5899,532.8399 L615.4503,530.7406 L613.5979,528.9367 L612,527.3945 L611.4476,527.3945 L611.9477,522.1945 L611.8253,516.9945 L612.6057,511.7945 L611.8447,506.5945 L612,501.3945 " fill="#E3E3E3" style="stroke:#181818;stroke-width:1.5;"/><path d="M612,501.3945 L612,501.3945 L612.0651,501.4615 L613.6716,503.0125 L615.6599,504.9561 L617.5238,506.7719 L618.979,508.1672 L621,510.1445 L620.9952,510.1103 L622.7739,510.2068 L624.5766,510.4757 L626.3958,510.8645 L628.1577,510.8402 L630,511.3945 L630,511.3945 L630.0339,511.6383 L631.7615,510.8671 L633.5879,510.8075 L635.4264,510.8347 L637.1948,510.3568 L639,510.1445 L639.0211,510.1663 L640.7901,508.3844 L642.6553,506.7014 L644.4741,504.9707 L646.3815,503.3312 L648,501.3945 " fill="none" style="stroke:#181818;stroke-width:1.5;"/><polygon fill="#FFFFFF" points="49,104.2422,49,104.3122,51,104.1041,53,104.3066,55,104.3754,57,104.0044,59,104.2422,58.9223,104.2422,58.5735,114.3304,58.6165,124.4186,58.9318,134.5067,58.3086,144.5949,59.5536,154.6831,58.3697,164.7713,58.8022,174.8595,59.4319,184.9477,58.9142,195.0359,59.0682,205.1241,58.9681,215.2122,59.1785,225.3004,59.2391,235.3886,59.5857,245.4768,59.6711,255.565,59.6793,265.6532,59.2546,275.7414,59.4636,285.8295,59.7022,295.9177,58.2788,306.0059,59.6785,316.0941,58.7035,326.1823,59.5338,336.2705,58.505,346.3587,58.9315,356.4469,59.7416,366.535,58.9513,376.6232,59.1053,386.7114,59.3386,396.7996,59.4162,406.8878,58.9961,416.976,59.2872,427.0642,59,437.1523,59,436.9615,57,437.2471,55,437.3351,53,437.3005,51,437.3567,49,437.1523,48.5169,437.1523,48.3478,427.0642,48.3786,416.976,48.9411,406.8878,48.8035,396.7996,49.6814,386.7114,48.8253,376.6232,48.6569,366.535,49.2283,356.4469,48.3332,346.3587,48.4809,336.2705,49.649,326.1823,49.4357,316.0941,49.7345,306.0059,48.6782,295.9177,49.3192,285.8295,49.5904,275.7414,48.5276,265.6532,48.9041,255.565,49.126,245.4768,49.6518,235.3886,48.9958,225.3004,49.4626,215.2122,48.4462,205.1241,48.3227,195.0359,49.5036,184.9477,48.2831,174.8595,49.509,164.7713,49.2066,154.6831,48.7321,144.5949,48.6462,134.5067,49.4588,124.4186,48.7007,114.3304,49,104.2422" style="stroke:#181818;stroke-width:1.0;"/><polygon fill="#FFFFFF" points="176,135.5332,176,135.6033,178,135.3951,180,135.5976,182,135.6664,184,135.2954,186,135.5332,185.9223,135.5332,185.5735,145.7304,185.6165,155.9275,185.9318,166.1247,185.3086,176.3219,186.5536,186.519,185.3697,196.7162,185.8022,206.9133,186.4319,217.1105,185.9142,227.3077,186.0682,237.5048,185.9681,247.702,186.1785,257.8992,186.2391,268.0963,186.5857,278.2935,186.6711,288.4906,186.6793,298.6878,186.2546,308.885,186.4636,319.0821,186,329.2793,186,329.5134,184,329.0389,182,329.5055,180,329.1805,178,329.4572,176,329.2793,175.505,329.2793,175.9315,319.0821,176.7416,308.885,175.9513,298.6878,176.1053,288.4906,176.3386,278.2935,176.4162,268.0963,175.9961,257.8992,176.2872,247.702,175.4276,237.5048,176.2844,227.3077,176.5482,217.1105,176.4445,206.9133,176.613,196.7162,175.5169,186.519,175.3478,176.3219,175.3786,166.1247,175.9411,155.9275,175.8035,145.7304,176,135.5332" style="stroke:#181818;stroke-width:1.0;"/><polygon fill="#FFFFFF" points="342,166.8242,342,166.8943,344,166.6861,346,166.8886,348,166.9574,350,166.5864,352,166.8242,351.9223,166.8242,351.5735,176.9138,351.6165,187.0033,351.9318,197.0928,351.3086,207.1824,352.5536,217.2719,351.3697,227.3615,351.8022,237.451,352.4319,247.5406,351.9142,257.6301,352.0682,267.7197,351.9681,277.8092,352.1785,287.8987,352,297.9883,352,298.068,350,298.1835,348,298.212,346,298.2147,344,298.0732,342,297.9883,342.4636,297.9883,342.7022,287.8987,341.2788,277.8092,342.6785,267.7197,341.7035,257.6301,342.5338,247.5406,341.505,237.451,341.9315,227.3615,342.7416,217.2719,341.9513,207.1824,342.1053,197.0928,342.3386,187.0033,342.4162,176.9138,342,166.8242" style="stroke:#181818;stroke-width:1.0;"/><polygon fill="#FFFFFF" points="462,360.5703,462,360.6404,464,360.4322,466,360.6347,468,360.7035,470,360.3325,472,360.5703,471.9223,360.5703,471.5735,371.0007,471.6165,381.431,471.9318,391.8613,471.3086,402.2917,472.5536,412.722,472,423.1523,472,422.9423,470,423.0864,468,423.2963,466,423.1238,464,423.1751,462,423.1523,461.9681,423.1523,462.1785,412.722,462.2391,402.2917,462.5857,391.8613,462.6711,381.431,462.6793,371.0007,462,360.5703" style="stroke:#181818;stroke-width:1.0;"/><polygon fill="#181818" points="37,100.2422,37.026,100.3072,38.9487,100.914,41.0239,101.902,43.0495,102.7659,44.9117,103.2214,47,104.2422,46.9904,104.2181,44.9472,104.9102,42.9525,105.7235,40.9916,106.6211,38.9144,107.2282,37,108.2422,37.1305,108.3727,37.6514,107.2936,38.5534,106.5956,39.5018,105.944,40.1798,105.022,41,104.2422,41.0161,104.2583,40.1925,103.4347,39.4421,102.6843,38.6564,101.8986,37.938,101.1802,37,100.2422" style="stroke:#181818;stroke-width:1.0;"/><path d="M0,104.2422 L0,104.3356 L8.6,104.058 L17.2,104.3281 L25.8,104.4198 L34.4,103.9251 L43,104.2422 " fill="none" style="stroke:#181818;stroke-width:1.0;"/><polygon fill="#181818" points="164,131.5332,164.026,131.5983,165.9487,132.205,168.0239,133.193,170.0495,134.0569,171.9117,134.5124,174,135.5332,173.9904,135.5092,171.9472,136.2012,169.9525,137.0145,167.9916,137.9121,165.9144,138.5192,164,139.5332,164.1305,139.6637,164.6514,138.5846,165.5534,137.8866,166.5018,137.235,167.1798,136.313,168,135.5332,168.0161,135.5493,167.1925,134.7257,166.4421,133.9753,165.6564,133.1896,164.938,132.4713,164,131.5332" style="stroke:#181818;stroke-width:1.0;"/><path d="M59,135.5332 L59,135.8134 L69.0909,134.9808 L79.1818,135.7909 L89.2727,136.0661 L99.3636,134.582 L109.4545,135.4296 L119.5455,134.9645 L129.6364,135.0219 L139.7273,135.4423 L149.8182,134.6114 L159.9091,136.2714 L170,135.5332 " fill="none" style="stroke:#181818;stroke-width:1.0;"/><text fill="#000000" font-family="FG Virgil" font-size="13" lengthAdjust="spacing" textLength="75" x="66" y="130.2705">repositories()</text><polygon fill="#181818" points="330,162.8242,330.026,162.8893,331.9487,163.496,334.0239,164.484,336.0495,165.3479,337.9117,165.8034,340,166.8242,339.9904,166.8002,337.9472,167.4922,335.9525,168.3055,333.9916,169.2031,331.9144,169.8102,330,170.8242,330.1305,170.9547,330.6514,169.8757,331.5534,169.1776,332.5018,168.526,333.1798,167.604,334,166.8242,334.0161,166.8403,333.1925,166.0167,332.4421,165.2663,331.6564,164.4806,330.938,163.7623,330,162.8242" style="stroke:#181818;stroke-width:1.0;"/><path d="M186,166.8242 L186,167.1045 L196,166.2718 L206,167.0819 L216,167.3571 L226,165.873 L236,166.7206 L246,166.2556 L256,166.3129 L266,166.7333 L276,165.9024 L286,167.5624 L296,165.9838 L306,166.5605 L316,167.4001 L326,166.7098 L336,166.8242 " fill="none" style="stroke:#181818;stroke-width:1.0;"/><text fill="#000000" font-family="FG Virgil" font-size="13" lengthAdjust="spacing" textLength="57" x="193" y="161.5615">instance()</text><polygon fill="#181818" points="330,194.1152,330.026,194.1803,331.9487,194.787,334.0239,195.7751,336.0495,196.6389,337.9117,197.0944,340,198.1152,339.9904,198.0912,337.9472,198.7832,335.9525,199.5965,333.9916,200.4941,331.9144,201.1013,330,202.1152,330.1305,202.2457,330.6514,201.1667,331.5534,200.4686,332.5018,199.817,333.1798,198.895,334,198.1152,334.0161,198.1313,333.1925,197.3077,332.4421,196.5573,331.6564,195.7716,330.938,195.0533,330,194.1152" style="stroke:#181818;stroke-width:1.0;"/><path d="M186,198.1152 L186,198.3955 L196,197.5628 L206,198.3729 L216,198.6481 L226,197.164 L236,198.0116 L246,197.5466 L256,197.6039 L266,198.0244 L276,197.1934 L286,198.8534 L296,197.2749 L306,197.8515 L316,198.6912 L326,198.0009 L336,198.1152 " fill="none" style="stroke:#181818;stroke-width:1.0;"/><text fill="#000000" font-family="FG Virgil" font-size="13" lengthAdjust="spacing" textLength="132" x="193" y="192.8525">getRepositoryFactory()</text><path d="M357,211.1152 L357.1868,211.1152 L356.6317,216.5152 L357.1718,221.9152 L357.3553,227.3152 L356.3659,232.7152 L357,238.1152 L357,237.908 L367.04,236.9779 L377.08,237.0926 L387.12,237.9335 L397.16,236.2716 L407.2,239.5916 L417.24,236.4345 L427.28,237.5879 L437.32,239.2671 L447.36,237.8865 L457.4,238.2972 L467.44,238.03 L477.48,238.5913 L487.52,238.7529 L497.56,239.6771 L507.6,239.9047 L517.64,239.9266 L527.68,238.7942 L537.72,239.3515 L547.76,239.9879 L557.8,236.1921 L567.84,239.9246 L577.88,237.3246 L587.92,239.5387 L597.96,236.7952 L608,238.1152 L607.9391,238.1152 L608.6592,234.7152 L607.9567,231.3152 L608.0936,227.9152 L608.301,224.5152 L608,221.1152 L608.2616,221.3769 L605.9975,219.1128 L604.1805,217.2958 L601.6402,214.7554 L600.1787,213.294 L598,211.1152 L598,212.5771 L587.9583,212.3007 L577.9167,212.75 L567.875,209.827 L557.8333,209.3761 L547.7917,209.4582 L537.75,210.9582 L527.7083,210.5912 L517.6667,212.9323 L507.625,210.6494 L497.5833,210.2004 L487.5417,211.7239 L477.5,209.337 L467.4583,209.7309 L457.4167,212.8458 L447.375,212.277 L437.3333,213.0739 L427.2917,210.2571 L417.25,211.9664 L407.2083,212.6897 L397.1667,209.8555 L387.125,210.8596 L377.0833,211.4512 L367.0417,212.8533 L357,211.1152 " fill="#FAFAFA" style="stroke:#181818;stroke-width:0.5;"/><path d="M598,211.1152 L597.9963,211.1152 L598.4112,213.1152 L597.5077,215.1152 L597.398,217.1152 L598.4477,219.1152 L598,221.1152 L598,220.478 L600,221.5676 L602,221.2989 L604,220.8771 L606,220.8008 L608,221.1152 L608.2883,221.4036 L605.8119,218.9271 L604.372,217.4872 L601.6526,214.7678 L600.3881,213.5033 L598,211.1152 " fill="#FAFAFA" style="stroke:#181818;stroke-width:0.5;"/><text fill="#000000" font-family="FG Virgil" font-size="13" lengthAdjust="spacing" textLength="230" x="363" y="230.1436">can create repository in memory or JPA</text><polygon fill="#181818" points="455,262.6973,455.026,262.7623,456.9487,263.369,459.0239,264.3571,461.0495,265.221,462.9117,265.6765,465,266.6973,464.9904,266.6732,462.9472,267.3653,460.9525,268.1786,458.9916,269.0762,456.9144,269.6833,455,270.6973,455.1305,270.8278,455.6514,269.7487,456.5534,269.0507,457.5018,268.3991,458.1798,267.477,459,266.6973,459.0161,266.7133,458.1925,265.8897,457.4421,265.1393,456.6564,264.3536,455.938,263.6353,455,262.6973" style="stroke:#181818;stroke-width:1.0;"/><path d="M352,266.6973 L352,266.9775 L361.9091,266.1448 L371.8182,266.955 L381.7273,267.2302 L391.6364,265.7461 L401.5455,266.5936 L411.4545,266.1286 L421.3636,266.1859 L431.2727,266.6064 L441.1818,265.7754 L451.0909,267.4355 L461,266.6973 " fill="none" style="stroke:#181818;stroke-width:1.0;"/><text fill="#000000" font-family="FG Virgil" font-size="13" lengthAdjust="spacing" textLength="36" x="359" y="261.4346">create</text><polygon fill="#181818" points="197,293.9883,197.026,294.0533,194.9487,294.6601,193.0239,295.6481,191.0495,296.512,188.9117,296.9675,187,297.9883,186.9904,297.9642,188.9472,298.6563,190.9525,299.4696,192.9916,300.3672,194.9144,300.9743,197,301.9883,197.1305,302.1188,196.0514,301.0397,195.3534,300.3417,194.7018,299.6901,193.7798,298.7681,193,297.9883,193.0161,298.0044,193.7925,297.1808,194.6421,296.4304,195.4564,295.6446,196.338,294.9263,197,293.9883" style="stroke:#181818;stroke-width:1.0;"/><path d="M191,297.9883 L191,298.2685 L200.6875,297.4359 L210.375,298.246 L220.0625,298.5212 L229.75,297.0371 L239.4375,297.8847 L249.125,297.4196 L258.8125,297.4769 L268.5,297.8974 L278.1875,297.0665 L287.875,298.7265 L297.5625,297.1479 L307.25,297.7246 L316.9375,298.5642 L326.625,297.8739 L336.3125,298.0793 L346,297.9883 " fill="none" style="stroke:#181818;stroke-width:1.0;stroke-dasharray:2.0,2.0;"/><text fill="#000000" font-family="FG Virgil" font-size="13" lengthAdjust="spacing" textLength="39" x="203" y="292.7256">factory</text><polygon fill="#181818" points="70,325.2793,70.026,325.3443,67.9487,325.9511,66.0239,326.9391,64.0495,327.803,61.9117,328.2585,60,329.2793,59.9904,329.2552,61.9472,329.9473,63.9525,330.7606,65.9916,331.6582,67.9144,332.2653,70,333.2793,70.1305,333.4098,69.0514,332.3307,68.3534,331.6327,67.7018,330.9811,66.7798,330.0591,66,329.2793,66.0161,329.2954,66.7925,328.4718,67.6421,327.7214,68.4564,326.9357,69.338,326.2173,70,325.2793" style="stroke:#181818;stroke-width:1.0;"/><path d="M64,329.2793 L64,329.5595 L73.6667,328.7269 L83.3333,329.537 L93,329.8122 L102.6667,328.3281 L112.3333,329.1757 L122,328.7106 L131.6667,328.768 L141.3333,329.1884 L151,328.3575 L160.6667,330.0175 L170.3333,328.4389 L180,329.2793 " fill="none" style="stroke:#181818;stroke-width:1.0;stroke-dasharray:2.0,2.0;"/><text fill="#000000" font-family="FG Virgil" font-size="13" lengthAdjust="spacing" textLength="39" x="76" y="324.0166">factory</text><polygon fill="#181818" points="450,356.5703,450.026,356.6354,451.9487,357.2421,454.0239,358.2301,456.0495,359.094,457.9117,359.5495,460,360.5703,459.9904,360.5463,457.9472,361.2383,455.9525,362.0516,453.9916,362.9492,451.9144,363.5563,450,364.5703,450.1305,364.7008,450.6514,363.6218,451.5534,362.9237,452.5018,362.2721,453.1798,361.3501,454,360.5703,454.0161,360.5864,453.1925,359.7628,452.4421,359.0124,451.6564,358.2267,450.938,357.5084,450,356.5703" style="stroke:#181818;stroke-width:1.0;"/><path d="M59,360.5703 L59,360.8506 L68.925,360.0179 L78.85,360.828 L88.775,361.1032 L98.7,359.6191 L108.625,360.4667 L118.55,360.0017 L128.475,360.059 L138.4,360.4794 L148.325,359.6485 L158.25,361.3085 L168.175,359.7299 L178.1,360.3066 L188.025,361.1462 L197.95,360.4559 L207.875,360.6613 L217.8,360.5277 L227.725,360.8083 L237.65,360.8892 L247.575,361.3512 L257.5,361.4651 L267.425,361.476 L277.35,360.9098 L287.275,361.1884 L297.2,361.5066 L307.125,359.6087 L317.05,361.475 L326.975,360.175 L336.9,361.2821 L346.825,359.9103 L356.75,360.479 L366.675,361.5591 L376.6,360.5053 L386.525,360.7107 L396.45,361.0218 L406.375,361.1253 L416.3,360.5651 L426.225,360.9533 L436.15,359.8071 L446.075,360.9495 L456,360.5703 " fill="none" style="stroke:#181818;stroke-width:1.0;"/><text fill="#000000" font-family="FG Virgil" font-size="13" lengthAdjust="spacing" textLength="106" x="66" y="355.3076">{nameOfObjects}()</text><polygon fill="#181818" points="618,387.8613,618.026,387.9264,619.9487,388.5331,622.0239,389.5211,624.0495,390.385,625.9117,390.8405,628,391.8613,627.9904,391.8373,625.9472,392.5293,623.9525,393.3426,621.9916,394.2402,619.9144,394.8474,618,395.8613,618.1305,395.9918,618.6514,394.9128,619.5534,394.2147,620.5018,393.5631,621.1798,392.6411,622,391.8613,622.0161,391.8774,621.1925,391.0538,620.4421,390.3034,619.6564,389.5177,618.938,388.7994,618,387.8613" style="stroke:#181818;stroke-width:1.0;"/><path d="M472,391.8613 L472,392.1416 L482.1333,391.3089 L492.2667,392.119 L502.4,392.3942 L512.5333,390.9101 L522.6667,391.7577 L532.8,391.2927 L542.9333,391.35 L553.0667,391.7705 L563.2,390.9395 L573.3333,392.5995 L583.4667,391.021 L593.6,391.5976 L603.7333,392.4373 L613.8667,391.747 L624,391.8613 " fill="none" style="stroke:#181818;stroke-width:1.0;"/><text fill="#000000" font-family="FG Virgil" font-size="13" lengthAdjust="spacing" textLength="36" x="479" y="386.5986">create</text><polygon fill="#181818" points="70,419.1523,70.026,419.2174,67.9487,419.8241,66.0239,420.8122,64.0495,421.676,61.9117,422.1316,60,423.1523,59.9904,423.1283,61.9472,423.8203,63.9525,424.6337,65.9916,425.5312,67.9144,426.1384,70,427.1523,70.1305,427.2828,69.0514,426.2038,68.3534,425.5057,67.7018,424.8542,66.7798,423.9321,66,423.1523,66.0161,423.1684,66.7925,422.3448,67.6421,421.5944,68.4564,420.8087,69.338,420.0904,70,419.1523" style="stroke:#181818;stroke-width:1.0;"/><path d="M64,423.1523 L64,423.4326 L74.05,422.5999 L84.1,423.4101 L94.15,423.6852 L104.2,422.2012 L114.25,423.0487 L124.3,422.5837 L134.35,422.641 L144.4,423.0615 L154.45,422.2305 L164.5,423.8905 L174.55,422.312 L184.6,422.8887 L194.65,423.7283 L204.7,423.038 L214.75,423.2433 L224.8,423.1097 L234.85,423.3904 L244.9,423.4712 L254.95,423.9333 L265,424.0471 L275.05,424.058 L285.1,423.4918 L295.15,423.7705 L305.2,424.0887 L315.25,422.1908 L325.3,424.057 L335.35,422.757 L345.4,423.8641 L355.45,422.4923 L365.5,423.061 L375.55,424.1412 L385.6,423.0874 L395.65,423.2927 L405.7,423.6038 L415.75,423.7073 L425.8,423.1471 L435.85,423.5353 L445.9,422.3891 L455.95,423.5315 L466,423.1523 " fill="none" style="stroke:#181818;stroke-width:1.0;"/><text fill="#000000" font-family="FG Virgil" font-size="13" lengthAdjust="spacing" textLength="153" x="76" y="417.8896">{nameOfObject}Repository</text><polygon fill="#181818" points="11,433.1523,11.026,433.2174,8.9487,433.8241,7.0239,434.8122,5.0495,435.676,2.9117,436.1316,1,437.1523,0.9904,437.1283,2.9472,437.8203,4.9525,438.6337,6.9916,439.5312,8.9144,440.1384,11,441.1523,11.1305,441.2828,10.0514,440.2038,9.3534,439.5057,8.7018,438.8542,7.7798,437.9321,7,437.1523,7.0161,437.1684,7.7925,436.3448,8.6421,435.5944,9.4564,434.8087,10.338,434.0904,11,433.1523" style="stroke:#181818;stroke-width:1.0;"/><path d="M5,437.1523 L5,437.4326 L14.6,436.5999 L24.2,437.4101 L33.8,437.6852 L43.4,436.2012 L53,437.1523 " fill="none" style="stroke:#181818;stroke-width:1.0;stroke-dasharray:2.0,2.0;"/><!--SRC=[VLB1Ri8m3BttAwoTjWC_K5L84nAJTXZJqAPTJUgMZ3Q94cyC8Vvz3fGsGBLSMiT-ptul3Xjj77fiOOsct7hDJ0ROVrCM-bHhZLLhRrkwpZXK6wnfoRk6m9FY95TIXTyDpwtX5nJe_0a-jAzrazI4DPPsgqqD5JQ1iaokMIljq33SxIFELk_Bm-STO83bnmoA0frhj4BMraod5u1Nya474Q1e9btfboCgkHMq6w8hzADpIsAMOKA4INYHVYDdWsRhTtDKyHEBphz5KPt-XBD4nXK6wkPVL8lLbpXp60YEOePGqBuFX22RJ8zIyqmuzGyonJ3Be3in9oM9hXnw0atX_g4lxGcIue4eTKO8HJ7ae4rWb9inbkZ9l-2Q-CQdX2WUOuN8wthDOAi8oq6X0UKfTXYCa46WfJR-MG_FhuyNBB6TTErQv1tyjkJQf-wP-iAIHiNT23mzoR_uKOkxj-hdt9ja9S9XpEJvLOjupdicL8E_ewgJokF05msJ7HnJSEwS5PD9ju59DkxW7m00]--></g></svg>