<?xml version="1.0" encoding="us-ascii" standalone="no"?><svg xmlns="http://www.w3.org/2000/svg" xmlns:xlink="http://www.w3.org/1999/xlink" contentStyleType="text/css" height="438px" preserveAspectRatio="none" style="width:1454px;height:438px;background:#FFFFFF;" version="1.1" viewBox="0 0 1454 438" width="1454px" zoomAndPan="magnify"><defs/><g><!--cluster <<aggregate>> CafeteriaUser--><g id="cluster_&lt;&lt;aggregate&gt;&gt; CafeteriaUser"><path d="M640.5,177.0137 L830.5,177.0137 A3.75,3.75 0 0 1 833,179.5137 L840,201.6348 L990.5,201.6348 A2.5,2.5 0 0 1 993,204.1348 L993,428.5137 A2.5,2.5 0 0 1 990.5,431.0137 L640.5,431.0137 A2.5,2.5 0 0 1 638,428.5137 L638,179.5137 A2.5,2.5 0 0 1 640.5,177.0137 " fill="none" style="stroke:#000000;stroke-width:1.5;"/><line style="stroke:#000000;stroke-width:1.5;" x1="638" x2="840" y1="201.6348" y2="201.6348"/><text fill="#000000" font-family="sans-serif" font-size="14" font-weight="bold" lengthAdjust="spacing" textLength="189" x="642" y="194.1211">&#171;aggregate&#187; CafeteriaUser</text></g><!--cluster <<aggregate>> CardMovement--><g id="cluster_&lt;&lt;aggregate&gt;&gt; CardMovement"><path d="M8.5,6.0137 L209.5,6.0137 A3.75,3.75 0 0 1 212,8.5137 L219,30.6348 L611.5,30.6348 A2.5,2.5 0 0 1 614,33.1348 L614,296.5137 A2.5,2.5 0 0 1 611.5,299.0137 L8.5,299.0137 A2.5,2.5 0 0 1 6,296.5137 L6,8.5137 A2.5,2.5 0 0 1 8.5,6.0137 " fill="none" style="stroke:#000000;stroke-width:1.5;"/><line style="stroke:#000000;stroke-width:1.5;" x1="6" x2="219" y1="30.6348" y2="30.6348"/><text fill="#000000" font-family="sans-serif" font-size="14" font-weight="bold" lengthAdjust="spacing" textLength="200" x="10" y="23.1211">&#171;aggregate&#187; CardMovement</text></g><!--cluster <<aggregate>> CardBalance--><g id="cluster_&lt;&lt;aggregate&gt;&gt; CardBalance"><path d="M1019.5,6.0137 L1201.5,6.0137 A3.75,3.75 0 0 1 1204,8.5137 L1211,30.6348 L1444.5,30.6348 A2.5,2.5 0 0 1 1447,33.1348 L1447,296.5137 A2.5,2.5 0 0 1 1444.5,299.0137 L1019.5,299.0137 A2.5,2.5 0 0 1 1017,296.5137 L1017,8.5137 A2.5,2.5 0 0 1 1019.5,6.0137 " fill="none" style="stroke:#000000;stroke-width:1.5;"/><line style="stroke:#000000;stroke-width:1.5;" x1="1017" x2="1211" y1="30.6348" y2="30.6348"/><text fill="#000000" font-family="sans-serif" font-size="14" font-weight="bold" lengthAdjust="spacing" textLength="181" x="1021" y="23.1211">&#171;aggregate&#187; CardBalance</text></g><!--class CafeteriaUser--><g id="elem_CafeteriaUser"><rect codeLine="6" fill="#F1F1F1" height="68.543" id="CafeteriaUser" rx="2.5" ry="2.5" style="stroke:#181818;stroke-width:0.5;" width="119" x="739.5" y="214.0137"/><ellipse cx="754.5" cy="244.2852" fill="#ADD1B2" rx="11" ry="11" style="stroke:#181818;stroke-width:1.0;"/><path d="M757.2656,240.1602 Q757.4219,239.9414 757.6094,239.832 Q757.7969,239.7227 758.0156,239.7227 Q758.3906,239.7227 758.625,239.9883 Q758.8594,240.2383 758.8594,240.8477 L758.8594,242.3008 Q758.8594,242.9102 758.625,243.1758 Q758.3906,243.4414 758.0156,243.4414 Q757.6719,243.4414 757.4688,243.2383 Q757.2656,243.0508 757.1563,242.5352 Q757.1094,242.1758 756.9219,241.9883 Q756.5938,241.6133 755.9844,241.3945 Q755.375,241.1758 754.75,241.1758 Q753.9844,241.1758 753.3438,241.5039 Q752.7188,241.832 752.2188,242.582 Q751.7344,243.332 751.7344,244.3633 L751.7344,245.457 Q751.7344,246.6914 752.625,247.5195 Q753.5156,248.332 755.1094,248.332 Q756.0469,248.332 756.7031,248.082 Q757.0938,247.9258 757.5156,247.4883 Q757.7813,247.2227 757.9219,247.1445 Q758.0781,247.0664 758.2813,247.0664 Q758.6094,247.0664 758.8594,247.332 Q759.125,247.582 759.125,247.9258 Q759.125,248.2695 758.7813,248.6758 Q758.2813,249.2539 757.4844,249.582 Q756.4063,250.0352 755.1094,250.0352 Q753.5938,250.0352 752.3906,249.4102 Q751.4063,248.9102 750.7188,247.8477 Q750.0313,246.7695 750.0313,245.4883 L750.0313,244.332 Q750.0313,243.0039 750.6406,241.8633 Q751.2656,240.707 752.3594,240.0977 Q753.4531,239.4727 754.6875,239.4727 Q755.4219,239.4727 756.0625,239.6445 Q756.7188,239.8008 757.2656,240.1602 Z " fill="#000000"/><text fill="#000000" font-family="sans-serif" font-size="12" font-style="italic" lengthAdjust="spacing" textLength="43" x="790.5" y="231.9629">&#171;entity&#187;</text><text fill="#000000" font-family="sans-serif" font-size="12" font-style="italic" lengthAdjust="spacing" textLength="35" x="794.5" y="247.9238">&#171;root&#187;</text><text fill="#000000" font-family="sans-serif" font-size="14" lengthAdjust="spacing" textLength="87" x="768.5" y="266.043">CafeteriaUser</text><line style="stroke:#181818;stroke-width:0.5;" x1="740.5" x2="857.5" y1="274.5566" y2="274.5566"/></g><!--class Role--><g id="elem_Role"><rect codeLine="9" fill="#F1F1F1" height="52.582" id="Role" rx="2.5" ry="2.5" style="stroke:#181818;stroke-width:0.5;" width="109" x="654.5" y="354.0137"/><ellipse cx="669.5" cy="376.3047" fill="#ADD1B2" rx="11" ry="11" style="stroke:#181818;stroke-width:1.0;"/><path d="M672.2656,372.1797 Q672.4219,371.9609 672.6094,371.8516 Q672.7969,371.7422 673.0156,371.7422 Q673.3906,371.7422 673.625,372.0078 Q673.8594,372.2578 673.8594,372.8672 L673.8594,374.3203 Q673.8594,374.9297 673.625,375.1953 Q673.3906,375.4609 673.0156,375.4609 Q672.6719,375.4609 672.4688,375.2578 Q672.2656,375.0703 672.1563,374.5547 Q672.1094,374.1953 671.9219,374.0078 Q671.5938,373.6328 670.9844,373.4141 Q670.375,373.1953 669.75,373.1953 Q668.9844,373.1953 668.3438,373.5234 Q667.7188,373.8516 667.2188,374.6016 Q666.7344,375.3516 666.7344,376.3828 L666.7344,377.4766 Q666.7344,378.7109 667.625,379.5391 Q668.5156,380.3516 670.1094,380.3516 Q671.0469,380.3516 671.7031,380.1016 Q672.0938,379.9453 672.5156,379.5078 Q672.7813,379.2422 672.9219,379.1641 Q673.0781,379.0859 673.2813,379.0859 Q673.6094,379.0859 673.8594,379.3516 Q674.125,379.6016 674.125,379.9453 Q674.125,380.2891 673.7813,380.6953 Q673.2813,381.2734 672.4844,381.6016 Q671.4063,382.0547 670.1094,382.0547 Q668.5938,382.0547 667.3906,381.4297 Q666.4063,380.9297 665.7188,379.8672 Q665.0313,378.7891 665.0313,377.5078 L665.0313,376.3516 Q665.0313,375.0234 665.6406,373.8828 Q666.2656,372.7266 667.3594,372.1172 Q668.4531,371.4922 669.6875,371.4922 Q670.4219,371.4922 671.0625,371.6641 Q671.7188,371.8203 672.2656,372.1797 Z " fill="#000000"/><text fill="#000000" font-family="sans-serif" font-size="12" font-style="italic" lengthAdjust="spacing" textLength="81" x="681.5" y="371.9629">&#171;value object&#187;</text><text fill="#000000" font-family="sans-serif" font-size="14" lengthAdjust="spacing" textLength="29" x="707.5" y="390.082">Role</text><line style="stroke:#181818;stroke-width:0.5;" x1="655.5" x2="762.5" y1="398.5957" y2="398.5957"/></g><!--class MecanographicNumber--><g id="elem_MecanographicNumber"><rect codeLine="12" fill="#F1F1F1" height="68.543" id="MecanographicNumber" rx="2.5" ry="2.5" style="stroke:#181818;stroke-width:0.5;" width="178" x="799" y="346.0137"/><ellipse cx="814" cy="376.2852" fill="#ADD1B2" rx="11" ry="11" style="stroke:#181818;stroke-width:1.0;"/><path d="M816.7656,372.1602 Q816.9219,371.9414 817.1094,371.832 Q817.2969,371.7227 817.5156,371.7227 Q817.8906,371.7227 818.125,371.9883 Q818.3594,372.2383 818.3594,372.8477 L818.3594,374.3008 Q818.3594,374.9102 818.125,375.1758 Q817.8906,375.4414 817.5156,375.4414 Q817.1719,375.4414 816.9688,375.2383 Q816.7656,375.0508 816.6563,374.5352 Q816.6094,374.1758 816.4219,373.9883 Q816.0938,373.6133 815.4844,373.3945 Q814.875,373.1758 814.25,373.1758 Q813.4844,373.1758 812.8438,373.5039 Q812.2188,373.832 811.7188,374.582 Q811.2344,375.332 811.2344,376.3633 L811.2344,377.457 Q811.2344,378.6914 812.125,379.5195 Q813.0156,380.332 814.6094,380.332 Q815.5469,380.332 816.2031,380.082 Q816.5938,379.9258 817.0156,379.4883 Q817.2813,379.2227 817.4219,379.1445 Q817.5781,379.0664 817.7813,379.0664 Q818.1094,379.0664 818.3594,379.332 Q818.625,379.582 818.625,379.9258 Q818.625,380.2695 818.2813,380.6758 Q817.7813,381.2539 816.9844,381.582 Q815.9063,382.0352 814.6094,382.0352 Q813.0938,382.0352 811.8906,381.4102 Q810.9063,380.9102 810.2188,379.8477 Q809.5313,378.7695 809.5313,377.4883 L809.5313,376.332 Q809.5313,375.0039 810.1406,373.8633 Q810.7656,372.707 811.8594,372.0977 Q812.9531,371.4727 814.1875,371.4727 Q814.9219,371.4727 815.5625,371.6445 Q816.2188,371.8008 816.7656,372.1602 Z " fill="#000000"/><text fill="#000000" font-family="sans-serif" font-size="12" font-style="italic" lengthAdjust="spacing" textLength="81" x="860.5" y="363.9629">&#171;value object&#187;</text><text fill="#000000" font-family="sans-serif" font-size="12" font-style="italic" lengthAdjust="spacing" textLength="24" x="889" y="379.9238">&#171;id&#187;</text><text fill="#000000" font-family="sans-serif" font-size="14" lengthAdjust="spacing" textLength="146" x="828" y="398.043">MecanographicNumber</text><line style="stroke:#181818;stroke-width:0.5;" x1="800" x2="976" y1="406.5566" y2="406.5566"/></g><!--class CardMovement--><g id="elem_CardMovement"><rect codeLine="20" fill="#F1F1F1" height="68.543" id="CardMovement" rx="2.5" ry="2.5" style="stroke:#181818;stroke-width:0.5;" width="128" x="312" y="43.0137"/><ellipse cx="327" cy="73.2852" fill="#ADD1B2" rx="11" ry="11" style="stroke:#181818;stroke-width:1.0;"/><path d="M329.7656,69.1602 Q329.9219,68.9414 330.1094,68.832 Q330.2969,68.7227 330.5156,68.7227 Q330.8906,68.7227 331.125,68.9883 Q331.3594,69.2383 331.3594,69.8477 L331.3594,71.3008 Q331.3594,71.9102 331.125,72.1758 Q330.8906,72.4414 330.5156,72.4414 Q330.1719,72.4414 329.9688,72.2383 Q329.7656,72.0508 329.6563,71.5352 Q329.6094,71.1758 329.4219,70.9883 Q329.0938,70.6133 328.4844,70.3945 Q327.875,70.1758 327.25,70.1758 Q326.4844,70.1758 325.8438,70.5039 Q325.2188,70.832 324.7188,71.582 Q324.2344,72.332 324.2344,73.3633 L324.2344,74.457 Q324.2344,75.6914 325.125,76.5195 Q326.0156,77.332 327.6094,77.332 Q328.5469,77.332 329.2031,77.082 Q329.5938,76.9258 330.0156,76.4883 Q330.2813,76.2227 330.4219,76.1445 Q330.5781,76.0664 330.7813,76.0664 Q331.1094,76.0664 331.3594,76.332 Q331.625,76.582 331.625,76.9258 Q331.625,77.2695 331.2813,77.6758 Q330.7813,78.2539 329.9844,78.582 Q328.9063,79.0352 327.6094,79.0352 Q326.0938,79.0352 324.8906,78.4102 Q323.9063,77.9102 323.2188,76.8477 Q322.5313,75.7695 322.5313,74.4883 L322.5313,73.332 Q322.5313,72.0039 323.1406,70.8633 Q323.7656,69.707 324.8594,69.0977 Q325.9531,68.4727 327.1875,68.4727 Q327.9219,68.4727 328.5625,68.6445 Q329.2188,68.8008 329.7656,69.1602 Z " fill="#000000"/><text fill="#000000" font-family="sans-serif" font-size="12" font-style="italic" lengthAdjust="spacing" textLength="43" x="367.5" y="60.9629">&#171;entity&#187;</text><text fill="#000000" font-family="sans-serif" font-size="12" font-style="italic" lengthAdjust="spacing" textLength="35" x="371.5" y="76.9238">&#171;root&#187;</text><text fill="#000000" font-family="sans-serif" font-size="14" lengthAdjust="spacing" textLength="96" x="341" y="95.043">CardMovement</text><line style="stroke:#181818;stroke-width:0.5;" x1="313" x2="439" y1="103.5566" y2="103.5566"/></g><!--class MovementType--><g id="elem_MovementType"><rect codeLine="23" fill="#F1F1F1" height="52.582" id="MovementType" rx="2.5" ry="2.5" style="stroke:#181818;stroke-width:0.5;" width="129" x="22.5" y="222.0137"/><ellipse cx="37.5" cy="244.3047" fill="#ADD1B2" rx="11" ry="11" style="stroke:#181818;stroke-width:1.0;"/><path d="M40.2656,240.1797 Q40.4219,239.9609 40.6094,239.8516 Q40.7969,239.7422 41.0156,239.7422 Q41.3906,239.7422 41.625,240.0078 Q41.8594,240.2578 41.8594,240.8672 L41.8594,242.3203 Q41.8594,242.9297 41.625,243.1953 Q41.3906,243.4609 41.0156,243.4609 Q40.6719,243.4609 40.4688,243.2578 Q40.2656,243.0703 40.1563,242.5547 Q40.1094,242.1953 39.9219,242.0078 Q39.5938,241.6328 38.9844,241.4141 Q38.375,241.1953 37.75,241.1953 Q36.9844,241.1953 36.3438,241.5234 Q35.7188,241.8516 35.2188,242.6016 Q34.7344,243.3516 34.7344,244.3828 L34.7344,245.4766 Q34.7344,246.7109 35.625,247.5391 Q36.5156,248.3516 38.1094,248.3516 Q39.0469,248.3516 39.7031,248.1016 Q40.0938,247.9453 40.5156,247.5078 Q40.7813,247.2422 40.9219,247.1641 Q41.0781,247.0859 41.2813,247.0859 Q41.6094,247.0859 41.8594,247.3516 Q42.125,247.6016 42.125,247.9453 Q42.125,248.2891 41.7813,248.6953 Q41.2813,249.2734 40.4844,249.6016 Q39.4063,250.0547 38.1094,250.0547 Q36.5938,250.0547 35.3906,249.4297 Q34.4063,248.9297 33.7188,247.8672 Q33.0313,246.7891 33.0313,245.5078 L33.0313,244.3516 Q33.0313,243.0234 33.6406,241.8828 Q34.2656,240.7266 35.3594,240.1172 Q36.4531,239.4922 37.6875,239.4922 Q38.4219,239.4922 39.0625,239.6641 Q39.7188,239.8203 40.2656,240.1797 Z " fill="#000000"/><text fill="#000000" font-family="sans-serif" font-size="12" font-style="italic" lengthAdjust="spacing" textLength="81" x="59.5" y="239.9629">&#171;value object&#187;</text><text fill="#000000" font-family="sans-serif" font-size="14" lengthAdjust="spacing" textLength="97" x="51.5" y="258.082">MovementType</text><line style="stroke:#181818;stroke-width:0.5;" x1="23.5" x2="150.5" y1="266.5957" y2="266.5957"/></g><!--class Money--><g id="elem_Money"><rect codeLine="26" fill="#F1F1F1" height="52.582" id="Money" rx="2.5" ry="2.5" style="stroke:#181818;stroke-width:0.5;" width="109" x="186.5" y="222.0137"/><ellipse cx="201.5" cy="244.3047" fill="#ADD1B2" rx="11" ry="11" style="stroke:#181818;stroke-width:1.0;"/><path d="M204.2656,240.1797 Q204.4219,239.9609 204.6094,239.8516 Q204.7969,239.7422 205.0156,239.7422 Q205.3906,239.7422 205.625,240.0078 Q205.8594,240.2578 205.8594,240.8672 L205.8594,242.3203 Q205.8594,242.9297 205.625,243.1953 Q205.3906,243.4609 205.0156,243.4609 Q204.6719,243.4609 204.4688,243.2578 Q204.2656,243.0703 204.1563,242.5547 Q204.1094,242.1953 203.9219,242.0078 Q203.5938,241.6328 202.9844,241.4141 Q202.375,241.1953 201.75,241.1953 Q200.9844,241.1953 200.3438,241.5234 Q199.7188,241.8516 199.2188,242.6016 Q198.7344,243.3516 198.7344,244.3828 L198.7344,245.4766 Q198.7344,246.7109 199.625,247.5391 Q200.5156,248.3516 202.1094,248.3516 Q203.0469,248.3516 203.7031,248.1016 Q204.0938,247.9453 204.5156,247.5078 Q204.7813,247.2422 204.9219,247.1641 Q205.0781,247.0859 205.2813,247.0859 Q205.6094,247.0859 205.8594,247.3516 Q206.125,247.6016 206.125,247.9453 Q206.125,248.2891 205.7813,248.6953 Q205.2813,249.2734 204.4844,249.6016 Q203.4063,250.0547 202.1094,250.0547 Q200.5938,250.0547 199.3906,249.4297 Q198.4063,248.9297 197.7188,247.8672 Q197.0313,246.7891 197.0313,245.5078 L197.0313,244.3516 Q197.0313,243.0234 197.6406,241.8828 Q198.2656,240.7266 199.3594,240.1172 Q200.4531,239.4922 201.6875,239.4922 Q202.4219,239.4922 203.0625,239.6641 Q203.7188,239.8203 204.2656,240.1797 Z " fill="#000000"/><text fill="#000000" font-family="sans-serif" font-size="12" font-style="italic" lengthAdjust="spacing" textLength="81" x="213.5" y="239.9629">&#171;value object&#187;</text><text fill="#000000" font-family="sans-serif" font-size="14" lengthAdjust="spacing" textLength="42" x="233" y="258.082">Money</text><line style="stroke:#181818;stroke-width:0.5;" x1="187.5" x2="294.5" y1="266.5957" y2="266.5957"/></g><!--class Calender--><g id="elem_Calender"><rect codeLine="29" fill="#F1F1F1" height="40" id="Calender" rx="2.5" ry="2.5" style="stroke:#181818;stroke-width:0.5;" width="90" x="331" y="228.5137"/><ellipse cx="346" cy="244.5137" fill="#ADD1B2" rx="11" ry="11" style="stroke:#181818;stroke-width:1.0;"/><path d="M348.7656,240.3887 Q348.9219,240.1699 349.1094,240.0605 Q349.2969,239.9512 349.5156,239.9512 Q349.8906,239.9512 350.125,240.2168 Q350.3594,240.4668 350.3594,241.0762 L350.3594,242.5293 Q350.3594,243.1387 350.125,243.4043 Q349.8906,243.6699 349.5156,243.6699 Q349.1719,243.6699 348.9688,243.4668 Q348.7656,243.2793 348.6563,242.7637 Q348.6094,242.4043 348.4219,242.2168 Q348.0938,241.8418 347.4844,241.623 Q346.875,241.4043 346.25,241.4043 Q345.4844,241.4043 344.8438,241.7324 Q344.2188,242.0605 343.7188,242.8105 Q343.2344,243.5605 343.2344,244.5918 L343.2344,245.6855 Q343.2344,246.9199 344.125,247.748 Q345.0156,248.5605 346.6094,248.5605 Q347.5469,248.5605 348.2031,248.3105 Q348.5938,248.1543 349.0156,247.7168 Q349.2813,247.4512 349.4219,247.373 Q349.5781,247.2949 349.7813,247.2949 Q350.1094,247.2949 350.3594,247.5605 Q350.625,247.8105 350.625,248.1543 Q350.625,248.498 350.2813,248.9043 Q349.7813,249.4824 348.9844,249.8105 Q347.9063,250.2637 346.6094,250.2637 Q345.0938,250.2637 343.8906,249.6387 Q342.9063,249.1387 342.2188,248.0762 Q341.5313,246.998 341.5313,245.7168 L341.5313,244.5605 Q341.5313,243.2324 342.1406,242.0918 Q342.7656,240.9355 343.8594,240.3262 Q344.9531,239.7012 346.1875,239.7012 Q346.9219,239.7012 347.5625,239.873 Q348.2188,240.0293 348.7656,240.3887 Z " fill="#000000"/><text fill="#000000" font-family="sans-serif" font-size="14" lengthAdjust="spacing" textLength="58" x="360" y="250.3105">Calender</text><line style="stroke:#181818;stroke-width:0.5;" x1="332" x2="420" y1="260.5137" y2="260.5137"/></g><!--class CardMovementID--><g id="elem_CardMovementID"><rect codeLine="32" fill="#F1F1F1" height="68.543" id="CardMovementID" rx="2.5" ry="2.5" style="stroke:#181818;stroke-width:0.5;" width="141" x="456.5" y="214.0137"/><ellipse cx="471.5" cy="244.2852" fill="#ADD1B2" rx="11" ry="11" style="stroke:#181818;stroke-width:1.0;"/><path d="M474.2656,240.1602 Q474.4219,239.9414 474.6094,239.832 Q474.7969,239.7227 475.0156,239.7227 Q475.3906,239.7227 475.625,239.9883 Q475.8594,240.2383 475.8594,240.8477 L475.8594,242.3008 Q475.8594,242.9102 475.625,243.1758 Q475.3906,243.4414 475.0156,243.4414 Q474.6719,243.4414 474.4688,243.2383 Q474.2656,243.0508 474.1563,242.5352 Q474.1094,242.1758 473.9219,241.9883 Q473.5938,241.6133 472.9844,241.3945 Q472.375,241.1758 471.75,241.1758 Q470.9844,241.1758 470.3438,241.5039 Q469.7188,241.832 469.2188,242.582 Q468.7344,243.332 468.7344,244.3633 L468.7344,245.457 Q468.7344,246.6914 469.625,247.5195 Q470.5156,248.332 472.1094,248.332 Q473.0469,248.332 473.7031,248.082 Q474.0938,247.9258 474.5156,247.4883 Q474.7813,247.2227 474.9219,247.1445 Q475.0781,247.0664 475.2813,247.0664 Q475.6094,247.0664 475.8594,247.332 Q476.125,247.582 476.125,247.9258 Q476.125,248.2695 475.7813,248.6758 Q475.2813,249.2539 474.4844,249.582 Q473.4063,250.0352 472.1094,250.0352 Q470.5938,250.0352 469.3906,249.4102 Q468.4063,248.9102 467.7188,247.8477 Q467.0313,246.7695 467.0313,245.4883 L467.0313,244.332 Q467.0313,243.0039 467.6406,241.8633 Q468.2656,240.707 469.3594,240.0977 Q470.4531,239.4727 471.6875,239.4727 Q472.4219,239.4727 473.0625,239.6445 Q473.7188,239.8008 474.2656,240.1602 Z " fill="#000000"/><text fill="#000000" font-family="sans-serif" font-size="12" font-style="italic" lengthAdjust="spacing" textLength="81" x="499.5" y="231.9629">&#171;value object&#187;</text><text fill="#000000" font-family="sans-serif" font-size="12" font-style="italic" lengthAdjust="spacing" textLength="24" x="528" y="247.9238">&#171;id&#187;</text><text fill="#000000" font-family="sans-serif" font-size="14" lengthAdjust="spacing" textLength="109" x="485.5" y="266.043">CardMovementID</text><line style="stroke:#181818;stroke-width:0.5;" x1="457.5" x2="596.5" y1="274.5566" y2="274.5566"/></g><!--class CardBalance--><g id="elem_CardBalance"><rect codeLine="42" fill="#F1F1F1" height="68.543" id="CardBalance" rx="2.5" ry="2.5" style="stroke:#181818;stroke-width:0.5;" width="114" x="1099" y="43.0137"/><ellipse cx="1114" cy="73.2852" fill="#ADD1B2" rx="11" ry="11" style="stroke:#181818;stroke-width:1.0;"/><path d="M1116.7656,69.1602 Q1116.9219,68.9414 1117.1094,68.832 Q1117.2969,68.7227 1117.5156,68.7227 Q1117.8906,68.7227 1118.125,68.9883 Q1118.3594,69.2383 1118.3594,69.8477 L1118.3594,71.3008 Q1118.3594,71.9102 1118.125,72.1758 Q1117.8906,72.4414 1117.5156,72.4414 Q1117.1719,72.4414 1116.9688,72.2383 Q1116.7656,72.0508 1116.6563,71.5352 Q1116.6094,71.1758 1116.4219,70.9883 Q1116.0938,70.6133 1115.4844,70.3945 Q1114.875,70.1758 1114.25,70.1758 Q1113.4844,70.1758 1112.8438,70.5039 Q1112.2188,70.832 1111.7188,71.582 Q1111.2344,72.332 1111.2344,73.3633 L1111.2344,74.457 Q1111.2344,75.6914 1112.125,76.5195 Q1113.0156,77.332 1114.6094,77.332 Q1115.5469,77.332 1116.2031,77.082 Q1116.5938,76.9258 1117.0156,76.4883 Q1117.2813,76.2227 1117.4219,76.1445 Q1117.5781,76.0664 1117.7813,76.0664 Q1118.1094,76.0664 1118.3594,76.332 Q1118.625,76.582 1118.625,76.9258 Q1118.625,77.2695 1118.2813,77.6758 Q1117.7813,78.2539 1116.9844,78.582 Q1115.9063,79.0352 1114.6094,79.0352 Q1113.0938,79.0352 1111.8906,78.4102 Q1110.9063,77.9102 1110.2188,76.8477 Q1109.5313,75.7695 1109.5313,74.4883 L1109.5313,73.332 Q1109.5313,72.0039 1110.1406,70.8633 Q1110.7656,69.707 1111.8594,69.0977 Q1112.9531,68.4727 1114.1875,68.4727 Q1114.9219,68.4727 1115.5625,68.6445 Q1116.2188,68.8008 1116.7656,69.1602 Z " fill="#000000"/><text fill="#000000" font-family="sans-serif" font-size="12" font-style="italic" lengthAdjust="spacing" textLength="43" x="1147.5" y="60.9629">&#171;entity&#187;</text><text fill="#000000" font-family="sans-serif" font-size="12" font-style="italic" lengthAdjust="spacing" textLength="35" x="1151.5" y="76.9238">&#171;root&#187;</text><text fill="#000000" font-family="sans-serif" font-size="14" lengthAdjust="spacing" textLength="82" x="1128" y="95.043">CardBalance</text><line style="stroke:#181818;stroke-width:0.5;" x1="1100" x2="1212" y1="103.5566" y2="103.5566"/></g><!--class Money--><g id="elem_Money"><rect codeLine="45" fill="#F1F1F1" height="52.582" id="Money" rx="2.5" ry="2.5" style="stroke:#181818;stroke-width:0.5;" width="109" x="1033.5" y="222.0137"/><ellipse cx="1048.5" cy="244.3047" fill="#ADD1B2" rx="11" ry="11" style="stroke:#181818;stroke-width:1.0;"/><path d="M1051.2656,240.1797 Q1051.4219,239.9609 1051.6094,239.8516 Q1051.7969,239.7422 1052.0156,239.7422 Q1052.3906,239.7422 1052.625,240.0078 Q1052.8594,240.2578 1052.8594,240.8672 L1052.8594,242.3203 Q1052.8594,242.9297 1052.625,243.1953 Q1052.3906,243.4609 1052.0156,243.4609 Q1051.6719,243.4609 1051.4688,243.2578 Q1051.2656,243.0703 1051.1563,242.5547 Q1051.1094,242.1953 1050.9219,242.0078 Q1050.5938,241.6328 1049.9844,241.4141 Q1049.375,241.1953 1048.75,241.1953 Q1047.9844,241.1953 1047.3438,241.5234 Q1046.7188,241.8516 1046.2188,242.6016 Q1045.7344,243.3516 1045.7344,244.3828 L1045.7344,245.4766 Q1045.7344,246.7109 1046.625,247.5391 Q1047.5156,248.3516 1049.1094,248.3516 Q1050.0469,248.3516 1050.7031,248.1016 Q1051.0938,247.9453 1051.5156,247.5078 Q1051.7813,247.2422 1051.9219,247.1641 Q1052.0781,247.0859 1052.2813,247.0859 Q1052.6094,247.0859 1052.8594,247.3516 Q1053.125,247.6016 1053.125,247.9453 Q1053.125,248.2891 1052.7813,248.6953 Q1052.2813,249.2734 1051.4844,249.6016 Q1050.4063,250.0547 1049.1094,250.0547 Q1047.5938,250.0547 1046.3906,249.4297 Q1045.4063,248.9297 1044.7188,247.8672 Q1044.0313,246.7891 1044.0313,245.5078 L1044.0313,244.3516 Q1044.0313,243.0234 1044.6406,241.8828 Q1045.2656,240.7266 1046.3594,240.1172 Q1047.4531,239.4922 1048.6875,239.4922 Q1049.4219,239.4922 1050.0625,239.6641 Q1050.7188,239.8203 1051.2656,240.1797 Z " fill="#000000"/><text fill="#000000" font-family="sans-serif" font-size="12" font-style="italic" lengthAdjust="spacing" textLength="81" x="1060.5" y="239.9629">&#171;value object&#187;</text><text fill="#000000" font-family="sans-serif" font-size="14" lengthAdjust="spacing" textLength="42" x="1080" y="258.082">Money</text><line style="stroke:#181818;stroke-width:0.5;" x1="1034.5" x2="1141.5" y1="266.5957" y2="266.5957"/></g><!--class Calender--><g id="elem_Calender"><rect codeLine="48" fill="#F1F1F1" height="40" id="Calender" rx="2.5" ry="2.5" style="stroke:#181818;stroke-width:0.5;" width="90" x="1178" y="228.5137"/><ellipse cx="1193" cy="244.5137" fill="#ADD1B2" rx="11" ry="11" style="stroke:#181818;stroke-width:1.0;"/><path d="M1195.7656,240.3887 Q1195.9219,240.1699 1196.1094,240.0605 Q1196.2969,239.9512 1196.5156,239.9512 Q1196.8906,239.9512 1197.125,240.2168 Q1197.3594,240.4668 1197.3594,241.0762 L1197.3594,242.5293 Q1197.3594,243.1387 1197.125,243.4043 Q1196.8906,243.6699 1196.5156,243.6699 Q1196.1719,243.6699 1195.9688,243.4668 Q1195.7656,243.2793 1195.6563,242.7637 Q1195.6094,242.4043 1195.4219,242.2168 Q1195.0938,241.8418 1194.4844,241.623 Q1193.875,241.4043 1193.25,241.4043 Q1192.4844,241.4043 1191.8438,241.7324 Q1191.2188,242.0605 1190.7188,242.8105 Q1190.2344,243.5605 1190.2344,244.5918 L1190.2344,245.6855 Q1190.2344,246.9199 1191.125,247.748 Q1192.0156,248.5605 1193.6094,248.5605 Q1194.5469,248.5605 1195.2031,248.3105 Q1195.5938,248.1543 1196.0156,247.7168 Q1196.2813,247.4512 1196.4219,247.373 Q1196.5781,247.2949 1196.7813,247.2949 Q1197.1094,247.2949 1197.3594,247.5605 Q1197.625,247.8105 1197.625,248.1543 Q1197.625,248.498 1197.2813,248.9043 Q1196.7813,249.4824 1195.9844,249.8105 Q1194.9063,250.2637 1193.6094,250.2637 Q1192.0938,250.2637 1190.8906,249.6387 Q1189.9063,249.1387 1189.2188,248.0762 Q1188.5313,246.998 1188.5313,245.7168 L1188.5313,244.5605 Q1188.5313,243.2324 1189.1406,242.0918 Q1189.7656,240.9355 1190.8594,240.3262 Q1191.9531,239.7012 1193.1875,239.7012 Q1193.9219,239.7012 1194.5625,239.873 Q1195.2188,240.0293 1195.7656,240.3887 Z " fill="#000000"/><text fill="#000000" font-family="sans-serif" font-size="14" lengthAdjust="spacing" textLength="58" x="1207" y="250.3105">Calender</text><line style="stroke:#181818;stroke-width:0.5;" x1="1179" x2="1267" y1="260.5137" y2="260.5137"/></g><!--class CardBalanceID--><g id="elem_CardBalanceID"><rect codeLine="51" fill="#F1F1F1" height="68.543" id="CardBalanceID" rx="2.5" ry="2.5" style="stroke:#181818;stroke-width:0.5;" width="127" x="1303.5" y="214.0137"/><ellipse cx="1318.5" cy="244.2852" fill="#ADD1B2" rx="11" ry="11" style="stroke:#181818;stroke-width:1.0;"/><path d="M1321.2656,240.1602 Q1321.4219,239.9414 1321.6094,239.832 Q1321.7969,239.7227 1322.0156,239.7227 Q1322.3906,239.7227 1322.625,239.9883 Q1322.8594,240.2383 1322.8594,240.8477 L1322.8594,242.3008 Q1322.8594,242.9102 1322.625,243.1758 Q1322.3906,243.4414 1322.0156,243.4414 Q1321.6719,243.4414 1321.4688,243.2383 Q1321.2656,243.0508 1321.1563,242.5352 Q1321.1094,242.1758 1320.9219,241.9883 Q1320.5938,241.6133 1319.9844,241.3945 Q1319.375,241.1758 1318.75,241.1758 Q1317.9844,241.1758 1317.3438,241.5039 Q1316.7188,241.832 1316.2188,242.582 Q1315.7344,243.332 1315.7344,244.3633 L1315.7344,245.457 Q1315.7344,246.6914 1316.625,247.5195 Q1317.5156,248.332 1319.1094,248.332 Q1320.0469,248.332 1320.7031,248.082 Q1321.0938,247.9258 1321.5156,247.4883 Q1321.7813,247.2227 1321.9219,247.1445 Q1322.0781,247.0664 1322.2813,247.0664 Q1322.6094,247.0664 1322.8594,247.332 Q1323.125,247.582 1323.125,247.9258 Q1323.125,248.2695 1322.7813,248.6758 Q1322.2813,249.2539 1321.4844,249.582 Q1320.4063,250.0352 1319.1094,250.0352 Q1317.5938,250.0352 1316.3906,249.4102 Q1315.4063,248.9102 1314.7188,247.8477 Q1314.0313,246.7695 1314.0313,245.4883 L1314.0313,244.332 Q1314.0313,243.0039 1314.6406,241.8633 Q1315.2656,240.707 1316.3594,240.0977 Q1317.4531,239.4727 1318.6875,239.4727 Q1319.4219,239.4727 1320.0625,239.6445 Q1320.7188,239.8008 1321.2656,240.1602 Z " fill="#000000"/><text fill="#000000" font-family="sans-serif" font-size="12" font-style="italic" lengthAdjust="spacing" textLength="81" x="1339.5" y="231.9629">&#171;value object&#187;</text><text fill="#000000" font-family="sans-serif" font-size="12" font-style="italic" lengthAdjust="spacing" textLength="24" x="1368" y="247.9238">&#171;id&#187;</text><text fill="#000000" font-family="sans-serif" font-size="14" lengthAdjust="spacing" textLength="95" x="1332.5" y="266.043">CardBalanceID</text><line style="stroke:#181818;stroke-width:0.5;" x1="1304.5" x2="1429.5" y1="274.5566" y2="274.5566"/></g><!--link CafeteriaUser to Role--><g id="link_CafeteriaUser_Role"><path codeLine="15" d="M775.59,283.3337 C760.38,305.2937 744.2763,328.5612 730.3063,348.7312 " fill="none" id="CafeteriaUser-to-Role" style="stroke:#181818;stroke-width:1.0;"/><polygon fill="#181818" points="726.89,353.6637,735.3027,348.5425,729.7369,349.5533,728.7261,343.9875,726.89,353.6637" style="stroke:#181818;stroke-width:1.0;"/><text fill="#000000" font-family="sans-serif" font-size="13" lengthAdjust="spacing" textLength="7" x="723.2177" y="342.5993">1</text></g><!--link CafeteriaUser to MecanographicNumber--><g id="link_CafeteriaUser_MecanographicNumber"><path codeLine="16" d="M822.15,283.3337 C835.34,302.5937 848.4114,321.6821 861.5714,340.9121 " fill="none" id="CafeteriaUser-to-MecanographicNumber" style="stroke:#181818;stroke-width:1.0;"/><polygon fill="#181818" points="864.96,345.8637,863.1782,336.1773,862.1362,341.7374,856.5761,340.6954,864.96,345.8637" style="stroke:#181818;stroke-width:1.0;"/><text fill="#000000" font-family="sans-serif" font-size="13" lengthAdjust="spacing" textLength="7" x="852.9008" y="334.7378">1</text></g><!--link CardMovement to MovementType--><g id="link_CardMovement_MovementType"><path codeLine="35" d="M311.92,99.8537 C269.44,115.5637 213.55,139.3237 169,169.0137 C146.7,183.8737 129.0395,200.7132 113.5495,217.3432 " fill="none" id="CardMovement-to-MovementType" style="stroke:#181818;stroke-width:1.0;"/><polygon fill="#181818" points="109.46,221.7337,118.5212,217.8743,112.8679,218.075,112.6673,212.4217,109.46,221.7337" style="stroke:#181818;stroke-width:1.0;"/><text fill="#000000" font-family="sans-serif" font-size="13" lengthAdjust="spacing" textLength="7" x="106.8445" y="210.6855">1</text></g><!--link CardMovement to Money--><g id="link_CardMovement_Money"><path codeLine="36" d="M349.01,112.3037 C323.23,144.5737 288.6949,187.8158 265.3049,217.0958 " fill="none" id="CardMovement-to-Money" style="stroke:#181818;stroke-width:1.0;"/><polygon fill="#181818" points="261.56,221.7837,270.3025,217.2484,264.6807,217.8771,264.052,212.2553,261.56,221.7837" style="stroke:#181818;stroke-width:1.0;"/><text fill="#000000" font-family="sans-serif" font-size="13" lengthAdjust="spacing" textLength="7" x="258.5051" y="210.747">1</text></g><!--link CardMovement to Calender--><g id="link_CardMovement_Calender"><path codeLine="37" d="M376,112.3037 C376,147.1737 376,194.3237 376,222.4737 " fill="none" id="CardMovement-to-Calender" style="stroke:#181818;stroke-width:1.0;"/><polygon fill="#181818" points="376,228.4737,380,219.4737,376,223.4737,372,219.4737,376,228.4737" style="stroke:#181818;stroke-width:1.0;"/><text fill="#000000" font-family="sans-serif" font-size="13" lengthAdjust="spacing" textLength="7" x="367.9719" y="217.1611">1</text></g><!--link CardMovement to CardMovementID--><g id="link_CardMovement_CardMovementID"><path codeLine="38" d="M406.19,112.3037 C432.53,141.7837 466.5425,179.8493 492.8625,209.3093 " fill="none" id="CardMovement-to-CardMovementID" style="stroke:#181818;stroke-width:1.0;"/><polygon fill="#181818" points="496.86,213.7837,493.8467,204.4071,493.5288,210.055,487.8809,209.7371,496.86,213.7837" style="stroke:#181818;stroke-width:1.0;"/><text fill="#000000" font-family="sans-serif" font-size="13" lengthAdjust="spacing" textLength="7" x="483.4474" y="202.6426">1</text></g><!--link CardBalance to Money--><g id="link_CardBalance_Money"><path codeLine="54" d="M1142.4,112.3037 C1129.42,144.5737 1112.3811,186.9379 1100.5911,216.2179 " fill="none" id="CardBalance-to-Money" style="stroke:#181818;stroke-width:1.0;"/><polygon fill="#181818" points="1098.35,221.7837,1105.4222,214.9292,1100.2176,217.1456,1098.0012,211.941,1098.35,221.7837" style="stroke:#181818;stroke-width:1.0;"/><text fill="#000000" font-family="sans-serif" font-size="13" lengthAdjust="spacing" textLength="7" x="1092.9341" y="210.747">1</text></g><!--link CardBalance to Calender--><g id="link_CardBalance_Calender"><path codeLine="55" d="M1169.4,112.3037 C1183.22,147.1737 1202.0787,194.746 1213.2387,222.896 " fill="none" id="CardBalance-to-Calender" style="stroke:#181818;stroke-width:1.0;"/><polygon fill="#181818" points="1215.45,228.4737,1215.8516,218.633,1213.6073,223.8256,1208.4147,221.5813,1215.45,228.4737" style="stroke:#181818;stroke-width:1.0;"/><text fill="#000000" font-family="sans-serif" font-size="13" lengthAdjust="spacing" textLength="7" x="1205.2041" y="217.1611">1</text></g><!--link CardBalance to CardBalanceID--><g id="link_CardBalance_CardBalanceID"><path codeLine="56" d="M1208.34,112.1237 C1232.63,128.4237 1261.48,148.8237 1286,169.0137 C1302.78,182.8337 1315.9944,195.184 1330.3844,209.554 " fill="none" id="CardBalance-to-CardBalanceID" style="stroke:#181818;stroke-width:1.0;"/><polygon fill="#181818" points="1334.63,213.7937,1331.0881,204.6037,1331.092,210.2606,1325.4352,210.2645,1334.63,213.7937" style="stroke:#181818;stroke-width:1.0;"/><text fill="#000000" font-family="sans-serif" font-size="13" lengthAdjust="spacing" textLength="7" x="1320.7923" y="202.6545">1</text></g><!--link CardMovement to CafeteriaUser--><g id="link_CardMovement_CafeteriaUser"><path codeLine="59" d="M440.15,102.1537 C488.2,120.0437 555.45,145.4737 614,169.0137 C656.08,185.9337 697.6201,203.5386 733.7401,219.1086 " fill="none" id="CardMovement-to-CafeteriaUser" style="stroke:#181818;stroke-width:1.0;"/><polygon fill="#181818" points="739.25,221.4837,732.5686,214.2478,734.6584,219.5044,729.4018,221.5943,739.25,221.4837" style="stroke:#181818;stroke-width:1.0;"/><text fill="#000000" font-family="sans-serif" font-size="13" lengthAdjust="spacing" textLength="75" x="590" y="157.042">performed by</text><text fill="#000000" font-family="sans-serif" font-size="13" lengthAdjust="spacing" textLength="5" x="447.8564" y="101.0914">*</text><text fill="#000000" font-family="sans-serif" font-size="13" lengthAdjust="spacing" textLength="7" x="724.5414" y="214.2274">1</text></g><!--link CardBalance to CafeteriaUser--><g id="link_CardBalance_CafeteriaUser"><path codeLine="60" d="M1098.64,105.6637 C1032.81,136.8337 930.7727,185.1257 864.0227,216.7357 " fill="none" id="CardBalance-to-CafeteriaUser" style="stroke:#181818;stroke-width:1.0;"/><polygon fill="#181818" points="858.6,219.3037,868.446,219.0669,863.1189,217.1637,865.0221,211.8366,858.6,219.3037" style="stroke:#181818;stroke-width:1.0;"/><text fill="#000000" font-family="sans-serif" font-size="13" lengthAdjust="spacing" textLength="70" x="1020" y="157.042">has balance</text><text fill="#000000" font-family="sans-serif" font-size="13" lengthAdjust="spacing" textLength="7" x="1083.8423" y="105.2576">1</text><text fill="#000000" font-family="sans-serif" font-size="13" lengthAdjust="spacing" textLength="7" x="866.6847" y="211.5483">1</text></g><!--SRC=[hPFBQiCm44Nt-eh1oqAWtHPXQDDD5kcYZmyOonDRZIqPMGwu9VzUnOaR-LaNgfNWtj7SEOFAlLG56in1P5YM3zOQ6LMMDaAhL_b9SCjI6HDGNjWQi9LBnWeKUqm80iunIGmbQ2aCOOqxicGalfTa0lXYu4xpTbS2pabPQMjNmxdHshhBsNraNj6BpiWP3fXL13hw835Xt990fHE3HIh5SvL7JOzU7USoxfTtOwrM8GHtGTDtHXxfneupK4oyrGVAtSXz9bTbAPBM_rON2z5eHVKYvnepKh6RSrIxHjqyBMNhZVV3pii_vtAXf-KswPp3p_lBTXunGoLek9oBi7mt_uNwqlWlfDkiumZxwe3WqE2bEF7hO0vk0i_f_v5xACZijCafXgXc_jCdyrHHYYL4Pn_x1W00]--></g></svg>