<?xml version="1.0" encoding="us-ascii" standalone="no"?><svg xmlns="http://www.w3.org/2000/svg" xmlns:xlink="http://www.w3.org/1999/xlink" contentStyleType="text/css" height="612.5px" preserveAspectRatio="none" style="width:868px;height:612px;background:#FFFFFF;" version="1.1" viewBox="0 0 868 612" width="868.7px" zoomAndPan="magnify"><defs/><g><polygon fill="#FFFFFF" points="163.45,85.0732,163.45,85.1223,164.85,84.9766,166.25,85.1183,167.65,85.1665,169.05,84.9068,170.45,85.0732,170.3956,85.0732,170.1515,92.0339,170.1816,98.9945,170.4023,105.9552,169.966,112.9158,170.8375,119.8765,170.0088,126.8371,170.3116,133.7978,170.7524,140.7584,170.39,147.7191,170.4978,154.6797,170.4276,161.6404,170.575,168.601,170.6174,175.5617,170.86,182.5224,170.9197,189.483,170.9255,196.4437,170.6282,203.4043,170.7745,210.365,170.9416,217.3256,169.9452,224.2863,170.925,231.2469,170.2424,238.2076,170.8237,245.1682,170.1035,252.1289,170.4021,259.0895,170.9691,266.0502,170.4159,273.0108,170.5237,279.9715,170.687,286.9321,170.7414,293.8928,170.4473,300.8534,170.651,307.8141,170.0493,314.7747,170.6491,321.7354,170.8337,328.696,170.7612,335.6567,170.8791,342.6173,170.1118,349.578,169.9935,356.5386,170.015,363.4993,170.4088,370.4599,170.3124,377.4206,170.927,384.3812,170.3277,391.3419,170.2099,398.3025,170.6098,405.2632,169.9832,412.2238,170.0866,419.1845,170.9043,426.1451,170.755,433.1058,170.9641,440.0664,170.2247,447.0271,170.6734,453.9877,170.8633,460.9484,170.1193,467.909,170.3829,474.8697,170.5382,481.8303,170.9062,488.791,170.4471,495.7516,170.7738,502.7123,170.0624,509.6729,169.9759,516.6336,170.8025,523.5942,170.45,530.5549,170.45,530.3876,169.05,530.6736,167.65,530.6031,166.25,530.4924,164.85,530.4723,163.45,530.5549,163.7711,530.5549,163.2405,523.5942,163.8643,516.6336,163.0631,509.6729,163.8822,502.7123,163.789,495.7516,163.6215,488.791,163.4831,481.8303,163.9586,474.8697,163.8795,467.909,163.5685,460.9484,163.6377,453.9877,163.3588,447.0271,163.9515,440.0664,163.5584,433.1058,163.5708,426.1451,163.0242,419.1845,163.1663,412.2238,163.8215,405.2632,163.7508,398.3025,163.4199,391.3419,163.2245,384.3812,163.2968,377.4206,162.9697,370.4599,163.7403,363.4993,163.9677,356.5386,163.8185,349.578,163.9365,342.6173,163.3543,335.6567,163.5111,328.696,163.1787,321.7354,163.6488,314.7747,163.6227,307.8141,163.8367,300.8534,163.2892,293.8928,163.3559,286.9321,163.7604,279.9715,163.8471,273.0108,163.0912,266.0502,163.3143,259.0895,163.5545,252.1289,163.0224,245.1682,163.6974,238.2076,163.6306,231.2469,163.3795,224.2863,163.5496,217.3256,163.9601,210.365,163.231,203.4043,163.6705,196.4437,163.65,189.483,163.531,182.5224,163.5486,175.5617,163.5294,168.601,163.0131,161.6404,163.1694,154.6797,163.1269,147.7191,163.4947,140.7584,163.5117,133.7978,163.5632,126.8371,163.2463,119.8765,163.4027,112.9158,163.3658,105.9552,163.8538,98.9945,163.7486,92.0339,163.45,85.0732" style="stroke:#181818;stroke-width:0.6999999999999998;"/><polygon fill="#FFFFFF" points="343.35,240.7029,343.35,240.752,344.75,240.6063,346.15,240.748,347.55,240.7962,348.95,240.5365,350.35,240.7029,350.2956,240.7029,350.0515,247.7542,350.0816,254.8055,350.3023,261.8567,349.866,268.908,350.7375,275.9593,349.9088,283.0105,350.2116,290.0618,350.6524,297.1131,350.29,304.1644,350.3978,311.2156,350.3276,318.2669,350.475,325.3182,350.5174,332.3694,350.76,339.4207,350.8197,346.472,350.8255,353.5232,350.5282,360.5745,350.6745,367.6258,350.8416,374.6771,349.8452,381.7283,350.825,388.7796,350.1424,395.8309,350.7237,402.8821,350.0035,409.9334,350.3021,416.9847,350.8691,424.0359,350.3159,431.0872,350.4237,438.1385,350.587,445.1897,350.6414,452.241,350.3473,459.2923,350.551,466.3436,349.9493,473.3948,350.5491,480.4461,350.7337,487.4974,350.6612,494.5486,350.7791,501.5999,350.35,508.6512,350.35,508.5385,348.95,508.499,347.55,508.5062,346.15,508.6374,344.75,508.6053,343.35,508.6512,343.827,508.6512,343.2277,501.5999,343.1099,494.5486,343.5098,487.4974,342.8832,480.4461,342.9866,473.3948,343.8043,466.3436,343.655,459.2923,343.8641,452.241,343.1247,445.1897,343.5734,438.1385,343.7633,431.0872,343.0193,424.0359,343.2829,416.9847,343.4382,409.9334,343.8062,402.8821,343.3471,395.8309,343.6738,388.7796,342.9624,381.7283,342.8759,374.6771,343.7025,367.6258,342.8481,360.5745,343.7063,353.5232,343.4946,346.472,343.1625,339.4207,343.1024,332.3694,343.6711,325.3182,343.1405,318.2669,343.7643,311.2156,342.9631,304.1644,343.7822,297.1131,343.689,290.0618,343.5215,283.0105,343.3831,275.9593,343.8586,268.908,343.7795,261.8567,343.4685,254.8055,343.5377,247.7542,343.35,240.7029" style="stroke:#181818;stroke-width:0.6999999999999998;"/><polygon fill="#FFFFFF" points="431.2,300.8141,431.2,300.8631,432.6,300.7174,434,300.8592,435.4,300.9073,436.8,300.6476,438.2,300.8141,438.1819,300.8141,438.1005,305.1948,438.1105,309.5755,438.1841,313.9563,438.0387,318.337,438.2,322.7178,438.2,322.847,436.8,322.5707,435.4,322.6716,434,322.8186,432.6,322.6978,431.2,322.7178,431.2159,322.7178,431.1925,318.337,431.2417,313.9563,431.2558,309.5755,431.3367,305.1948,431.2,300.8141" style="stroke:#181818;stroke-width:0.6999999999999998;"/><polygon fill="#FFFFFF" points="575.75,356.7252,575.75,356.7742,577.15,356.6285,578.55,356.7703,579.95,356.8185,581.35,356.5587,582.75,356.7252,582.6956,356.7252,582.4515,363.5834,582.4816,370.4416,582.7023,377.2998,582.266,384.158,583.1375,391.0162,582.3088,397.8744,582.75,404.7326,582.75,404.6865,581.35,404.8334,579.95,404.7126,578.55,404.7485,577.15,404.7252,575.75,404.7326,575.875,404.7326,575.9174,397.8744,576.16,391.0162,576.2197,384.158,576.2255,377.2998,575.9282,370.4416,576.0745,363.5834,575.75,356.7252" style="stroke:#181818;stroke-width:0.6999999999999998;"/><path d="M18.9,61.7695 L19.0962,61.7695 L18.5133,68.7461 L19.0804,75.7227 L19.273,82.6993 L18.2342,89.6759 L18.8275,96.6525 L18.5019,103.6291 L18.5421,110.6057 L18.8364,117.5823 L18.2547,124.5589 L19.4167,131.5355 L18.3117,138.5121 L18.7154,145.4887 L19.3032,152.4653 L18.8199,159.4419 L18.9637,166.4185 L18.8702,173.3951 L19.0666,180.3717 L19.1232,187.3483 L19.4466,194.3249 L19.5263,201.3015 L19.534,208.2781 L19.1377,215.2547 L19.3327,222.2313 L19.5554,229.2079 L18.2269,236.1845 L19.5333,243.1611 L18.6233,250.1377 L19.3982,257.1143 L18.438,264.0909 L18.8361,271.0675 L19.5922,278.0441 L18.8545,285.0207 L18.9983,291.9973 L19.2161,298.9739 L19.2885,305.9505 L18.8964,312.9271 L19.1681,319.9037 L18.3657,326.8803 L19.1654,333.8569 L19.4116,340.8335 L19.3149,347.8101 L19.4722,354.7867 L18.4491,361.7633 L18.2913,368.7399 L18.32,375.7165 L18.845,382.6931 L18.7166,389.6697 L19.536,396.6463 L18.737,403.6229 L18.5798,410.5995 L19.1131,417.5761 L18.2776,424.5527 L18.4155,431.5293 L19.5057,438.5059 L19.3066,445.4825 L19.5855,452.4591 L18.5997,459.4357 L19.1979,466.4123 L19.4511,473.3889 L18.4591,480.3655 L18.8105,487.3421 L19.0176,494.3187 L19.5083,501.2953 L18.8961,508.2719 L19.3317,515.2485 L18.3831,522.2251 L18.2679,529.2017 L19.37,536.1783 L18.9,543.1549 " fill="none" style="stroke:#181818;stroke-width:0.3499999999999999;stroke-dasharray:5.0,5.0;"/><path d="M166.6,61.7695 L166.7962,61.7695 L166.2133,68.7461 L166.7804,75.7227 L166.973,82.6993 L165.9342,89.6759 L166.5275,96.6525 L166.2019,103.6291 L166.2421,110.6057 L166.5364,117.5823 L165.9547,124.5589 L167.1167,131.5355 L166.0117,138.5121 L166.4154,145.4887 L167.0032,152.4653 L166.5199,159.4419 L166.6637,166.4185 L166.5702,173.3951 L166.7666,180.3717 L166.8232,187.3483 L167.1466,194.3249 L167.2263,201.3015 L167.234,208.2781 L166.8377,215.2547 L167.0327,222.2313 L167.2554,229.2079 L165.9269,236.1845 L167.2333,243.1611 L166.3233,250.1377 L167.0982,257.1143 L166.138,264.0909 L166.5361,271.0675 L167.2922,278.0441 L166.5545,285.0207 L166.6983,291.9973 L166.9161,298.9739 L166.9885,305.9505 L166.5964,312.9271 L166.8681,319.9037 L166.0657,326.8803 L166.8654,333.8569 L167.1116,340.8335 L167.0149,347.8101 L167.1722,354.7867 L166.1491,361.7633 L165.9913,368.7399 L166.02,375.7165 L166.545,382.6931 L166.4166,389.6697 L167.236,396.6463 L166.437,403.6229 L166.2798,410.5995 L166.8131,417.5761 L165.9776,424.5527 L166.1155,431.5293 L167.2057,438.5059 L167.0066,445.4825 L167.2855,452.4591 L166.2997,459.4357 L166.8979,466.4123 L167.1511,473.3889 L166.1591,480.3655 L166.5105,487.3421 L166.7176,494.3187 L167.2083,501.2953 L166.5961,508.2719 L167.0317,515.2485 L166.0831,522.2251 L165.9679,529.2017 L167.07,536.1783 L166.6,543.1549 " fill="none" style="stroke:#181818;stroke-width:0.3499999999999999;stroke-dasharray:5.0,5.0;"/><path d="M346.85,61.7695 L347.0462,61.7695 L346.4633,68.7461 L347.0304,75.7227 L347.223,82.6993 L346.1842,89.6759 L346.7775,96.6525 L346.4519,103.6291 L346.4921,110.6057 L346.7864,117.5823 L346.2047,124.5589 L347.3667,131.5355 L346.2617,138.5121 L346.6654,145.4887 L347.2532,152.4653 L346.7699,159.4419 L346.9137,166.4185 L346.8202,173.3951 L347.0166,180.3717 L347.0732,187.3483 L347.3966,194.3249 L347.4763,201.3015 L347.484,208.2781 L347.0877,215.2547 L347.2827,222.2313 L347.5054,229.2079 L346.1769,236.1845 L347.4833,243.1611 L346.5733,250.1377 L347.3482,257.1143 L346.388,264.0909 L346.7861,271.0675 L347.5422,278.0441 L346.8045,285.0207 L346.9483,291.9973 L347.1661,298.9739 L347.2385,305.9505 L346.8464,312.9271 L347.1181,319.9037 L346.3157,326.8803 L347.1154,333.8569 L347.3616,340.8335 L347.2649,347.8101 L347.4222,354.7867 L346.3991,361.7633 L346.2413,368.7399 L346.27,375.7165 L346.795,382.6931 L346.6666,389.6697 L347.486,396.6463 L346.687,403.6229 L346.5298,410.5995 L347.0631,417.5761 L346.2276,424.5527 L346.3655,431.5293 L347.4557,438.5059 L347.2566,445.4825 L347.5355,452.4591 L346.5497,459.4357 L347.1479,466.4123 L347.4011,473.3889 L346.4091,480.3655 L346.7605,487.3421 L346.9676,494.3187 L347.4583,501.2953 L346.8461,508.2719 L347.2817,515.2485 L346.3331,522.2251 L346.2179,529.2017 L347.32,536.1783 L346.85,543.1549 " fill="none" style="stroke:#181818;stroke-width:0.3499999999999999;stroke-dasharray:5.0,5.0;"/><path d="M434.35,61.7695 L434.5462,61.7695 L433.9633,68.7461 L434.5304,75.7227 L434.723,82.6993 L433.6842,89.6759 L434.2775,96.6525 L433.9519,103.6291 L433.9921,110.6057 L434.2864,117.5823 L433.7047,124.5589 L434.8667,131.5355 L433.7617,138.5121 L434.1654,145.4887 L434.7532,152.4653 L434.2699,159.4419 L434.4137,166.4185 L434.3202,173.3951 L434.5166,180.3717 L434.5732,187.3483 L434.8966,194.3249 L434.9763,201.3015 L434.984,208.2781 L434.5877,215.2547 L434.7827,222.2313 L435.0054,229.2079 L433.6769,236.1845 L434.9833,243.1611 L434.0733,250.1377 L434.8482,257.1143 L433.888,264.0909 L434.2861,271.0675 L435.0422,278.0441 L434.3045,285.0207 L434.4483,291.9973 L434.6661,298.9739 L434.7385,305.9505 L434.3464,312.9271 L434.6181,319.9037 L433.8157,326.8803 L434.6154,333.8569 L434.8616,340.8335 L434.7649,347.8101 L434.9222,354.7867 L433.8991,361.7633 L433.7413,368.7399 L433.77,375.7165 L434.295,382.6931 L434.1666,389.6697 L434.986,396.6463 L434.187,403.6229 L434.0298,410.5995 L434.5631,417.5761 L433.7276,424.5527 L433.8655,431.5293 L434.9557,438.5059 L434.7566,445.4825 L435.0355,452.4591 L434.0497,459.4357 L434.6479,466.4123 L434.9011,473.3889 L433.9091,480.3655 L434.2605,487.3421 L434.4676,494.3187 L434.9583,501.2953 L434.3461,508.2719 L434.7817,515.2485 L433.8331,522.2251 L433.7179,529.2017 L434.82,536.1783 L434.35,543.1549 " fill="none" style="stroke:#181818;stroke-width:0.3499999999999999;stroke-dasharray:5.0,5.0;"/><path d="M578.9,61.7695 L579.0962,61.7695 L578.5133,68.7461 L579.0804,75.7227 L579.273,82.6993 L578.2342,89.6759 L578.8275,96.6525 L578.5019,103.6291 L578.5421,110.6057 L578.8364,117.5823 L578.2547,124.5589 L579.4167,131.5355 L578.3117,138.5121 L578.7154,145.4887 L579.3032,152.4653 L578.8199,159.4419 L578.9637,166.4185 L578.8702,173.3951 L579.0666,180.3717 L579.1232,187.3483 L579.4466,194.3249 L579.5263,201.3015 L579.534,208.2781 L579.1377,215.2547 L579.3327,222.2313 L579.5554,229.2079 L578.2269,236.1845 L579.5333,243.1611 L578.6233,250.1377 L579.3982,257.1143 L578.438,264.0909 L578.8361,271.0675 L579.5922,278.0441 L578.8545,285.0207 L578.9983,291.9973 L579.2161,298.9739 L579.2885,305.9505 L578.8964,312.9271 L579.1681,319.9037 L578.3657,326.8803 L579.1654,333.8569 L579.4116,340.8335 L579.3149,347.8101 L579.4722,354.7867 L578.4491,361.7633 L578.2913,368.7399 L578.32,375.7165 L578.845,382.6931 L578.7166,389.6697 L579.536,396.6463 L578.737,403.6229 L578.5798,410.5995 L579.1131,417.5761 L578.2776,424.5527 L578.4155,431.5293 L579.5057,438.5059 L579.3066,445.4825 L579.5855,452.4591 L578.5997,459.4357 L579.1979,466.4123 L579.4511,473.3889 L578.4591,480.3655 L578.8105,487.3421 L579.0176,494.3187 L579.5083,501.2953 L578.8961,508.2719 L579.3317,515.2485 L578.3831,522.2251 L578.2679,529.2017 L579.37,536.1783 L578.9,543.1549 " fill="none" style="stroke:#181818;stroke-width:0.3499999999999999;stroke-dasharray:5.0,5.0;"/><path d="M701.4,61.7695 L701.5962,61.7695 L701.0133,68.7461 L701.5804,75.7227 L701.773,82.6993 L700.7342,89.6759 L701.3275,96.6525 L701.0019,103.6291 L701.0421,110.6057 L701.3364,117.5823 L700.7547,124.5589 L701.9167,131.5355 L700.8117,138.5121 L701.2154,145.4887 L701.8032,152.4653 L701.3199,159.4419 L701.4637,166.4185 L701.3702,173.3951 L701.5666,180.3717 L701.6232,187.3483 L701.9466,194.3249 L702.0263,201.3015 L702.034,208.2781 L701.6377,215.2547 L701.8327,222.2313 L702.0554,229.2079 L700.7269,236.1845 L702.0333,243.1611 L701.1233,250.1377 L701.8982,257.1143 L700.938,264.0909 L701.3361,271.0675 L702.0922,278.0441 L701.3545,285.0207 L701.4983,291.9973 L701.7161,298.9739 L701.7885,305.9505 L701.3964,312.9271 L701.6681,319.9037 L700.8657,326.8803 L701.6654,333.8569 L701.9116,340.8335 L701.8149,347.8101 L701.9722,354.7867 L700.9491,361.7633 L700.7913,368.7399 L700.82,375.7165 L701.345,382.6931 L701.2166,389.6697 L702.036,396.6463 L701.237,403.6229 L701.0798,410.5995 L701.6131,417.5761 L700.7776,424.5527 L700.9155,431.5293 L702.0057,438.5059 L701.8066,445.4825 L702.0855,452.4591 L701.0997,459.4357 L701.6979,466.4123 L701.9511,473.3889 L700.9591,480.3655 L701.3105,487.3421 L701.5176,494.3187 L702.0083,501.2953 L701.3961,508.2719 L701.8317,515.2485 L700.8831,522.2251 L700.7679,529.2017 L701.87,536.1783 L701.4,543.1549 " fill="none" style="stroke:#181818;stroke-width:0.3499999999999999;stroke-dasharray:5.0,5.0;"/><path d="M811.3,61.7695 L811.4962,61.7695 L810.9133,68.7461 L811.4804,75.7227 L811.673,82.6993 L810.6342,89.6759 L811.2275,96.6525 L810.9019,103.6291 L810.9421,110.6057 L811.2364,117.5823 L810.6547,124.5589 L811.8167,131.5355 L810.7117,138.5121 L811.1154,145.4887 L811.7032,152.4653 L811.2199,159.4419 L811.3637,166.4185 L811.2702,173.3951 L811.4666,180.3717 L811.5232,187.3483 L811.8466,194.3249 L811.9263,201.3015 L811.934,208.2781 L811.5377,215.2547 L811.7327,222.2313 L811.9554,229.2079 L810.6269,236.1845 L811.9333,243.1611 L811.0233,250.1377 L811.7982,257.1143 L810.838,264.0909 L811.2361,271.0675 L811.9922,278.0441 L811.2545,285.0207 L811.3983,291.9973 L811.6161,298.9739 L811.6885,305.9505 L811.2964,312.9271 L811.5681,319.9037 L810.7657,326.8803 L811.5654,333.8569 L811.8116,340.8335 L811.7149,347.8101 L811.8722,354.7867 L810.8491,361.7633 L810.6913,368.7399 L810.72,375.7165 L811.245,382.6931 L811.1166,389.6697 L811.936,396.6463 L811.137,403.6229 L810.9798,410.5995 L811.5131,417.5761 L810.6776,424.5527 L810.8155,431.5293 L811.9057,438.5059 L811.7066,445.4825 L811.9855,452.4591 L810.9997,459.4357 L811.5979,466.4123 L811.8511,473.3889 L810.8591,480.3655 L811.2105,487.3421 L811.4176,494.3187 L811.9083,501.2953 L811.2961,508.2719 L811.7317,515.2485 L810.7831,522.2251 L810.6679,529.2017 L811.77,536.1783 L811.3,543.1549 " fill="none" style="stroke:#181818;stroke-width:0.3499999999999999;stroke-dasharray:5.0,5.0;"/><text fill="#000000" font-family="FG Virgil" font-size="9.8" lengthAdjust="spacing" textLength="27.3" x="3.5" y="59.31">Admin</text><polygon fill="#E3E3E3" points="24.8809,14.0469,24.0601,15.1685,23.0892,16.8113,21.7006,17.9184,20.2414,18.5238,19.0779,18.5764,17.5826,17.8192,16.1716,17.3246,15.1007,16.3203,14.5389,15.1705,14.2058,14.2551,13.8794,13.0593,13.3496,12.0303,13.7567,11.0256,14.1134,9.9251,15.4518,9.0547,16.3935,7.9253,17.559,7.5503,18.9446,7.2273,20.7215,7.4192,21.6947,7.8782,22.8262,8.0862,24.202,9.4958,24.6816,10.9839,24.89,11.9992,24.654,13.6723" style="stroke:#181818;stroke-width:0.3499999999999999;"/><path d="M19.25,18.2848 L19.3808,18.2848 L18.9922,22.0648 L19.3703,25.8448 L19.4987,29.6248 L18.8061,33.4048 L19.25,37.1848 M10.15,23.8848 L10.15,23.8364 L13.79,23.6194 L17.43,23.6461 L21.07,23.8424 L24.71,23.4546 L28.35,23.8848 M19.25,37.1848 L19.5103,37.4104 L17.1336,39.0279 L15.517,41.3042 L13.9931,43.6608 L11.9297,45.5498 L10.15,47.6848 M19.25,37.1848 L19.2821,37.2126 L21.055,39.2717 L22.9739,41.4575 L24.8224,43.5822 L26.8054,45.8234 L28.35,47.6848 " fill="none" style="stroke:#181818;stroke-width:0.3499999999999999;"/><text fill="#000000" font-family="FG Virgil" font-size="9.8" lengthAdjust="spacing" textLength="27.3" x="3.5" y="553.0301">Admin</text><polygon fill="#E3E3E3" points="24.8809,562.8018,24.0601,563.9234,23.0892,565.5662,21.7006,566.6733,20.2414,567.2787,19.0779,567.3313,17.5826,566.5741,16.1716,566.0795,15.1007,565.0752,14.5389,563.9254,14.2058,563.01,13.8794,561.8142,13.3496,560.7852,13.7567,559.7805,14.1134,558.68,15.4518,557.8096,16.3935,556.6802,17.559,556.3052,18.9446,555.9822,20.7215,556.1741,21.6947,556.6331,22.8262,556.8411,24.202,558.2507,24.6816,559.7388,24.89,560.7541,24.654,562.4272" style="stroke:#181818;stroke-width:0.3499999999999999;"/><path d="M19.25,567.0396 L19.3808,567.0396 L18.9922,570.8196 L19.3703,574.5996 L19.4987,578.3796 L18.8061,582.1596 L19.25,585.9396 M10.15,572.6396 L10.15,572.5913 L13.79,572.3743 L17.43,572.401 L21.07,572.5972 L24.71,572.2095 L28.35,572.6396 M19.25,585.9396 L19.5103,586.1653 L17.1336,587.7828 L15.517,590.0591 L13.9931,592.4157 L11.9297,594.3047 L10.15,596.4396 M19.25,585.9396 L19.2821,585.9675 L21.055,588.0266 L22.9739,590.2124 L24.8224,592.3371 L26.8054,594.5783 L28.35,596.4396 " fill="none" style="stroke:#181818;stroke-width:0.3499999999999999;"/><polygon fill="#E3E3E3" points="130.55,25.2,130.55,25.3471,137.83,24.91,145.11,25.3353,152.39,25.4798,159.67,24.7006,166.95,25.1456,174.23,24.9015,181.51,24.9316,188.79,25.1523,196.07,24.716,203.35,25.2,203.3994,25.3193,203.5412,25.1666,203.8273,25.3624,204.131,25.6007,204.3323,25.5916,204.5874,25.7126,204.6021,25.7187,204.6831,25.9572,204.8309,26.2235,204.9465,26.4764,205.1237,26.7548,205.1,26.95,205.5697,26.95,205.5755,33.4239,205.2782,39.8978,205.4245,46.3717,205.5916,52.8456,205.1,59.3195,204.9445,59.2551,205.1438,59.6276,204.8311,59.788,204.9075,60.1097,204.5832,60.2653,204.5874,60.557,204.5813,60.5422,204.4062,60.8194,204.0881,60.7515,203.8544,60.8872,203.6277,61.04,203.35,61.0695,203.35,61.3609,196.07,61.0668,188.79,61.2706,181.51,60.6688,174.23,61.2686,166.95,61.4533,159.67,61.3807,152.39,61.4986,145.11,60.7314,137.83,60.613,130.55,61.0695,130.4945,60.9356,130.2973,60.9543,130.0375,60.8221,129.8684,60.9089,129.5445,60.6218,129.3126,60.557,129.2386,60.5263,129.2593,60.3299,128.9638,60.0024,128.8931,59.7682,129.0424,59.625,128.8,59.3195,129.105,59.3195,129.3141,52.8456,128.5747,46.3717,129.0234,39.8978,129.2133,33.4239,128.8,26.95,128.6982,26.9078,128.8818,26.694,129.0322,26.4663,129.248,26.2657,129.2091,25.9597,129.3126,25.7126,129.3539,25.8123,129.5106,25.4907,129.7471,25.3615,130.1,25.5136,130.2385,25.148,130.55,25.2" style="stroke:#181818;stroke-width:0.3499999999999999;"/><text fill="#000000" font-family="FG Virgil" font-size="9.8" font-style="italic" lengthAdjust="spacing" textLength="66.5" x="133.7" y="40.6752">&#171;presentation&#187;</text><text fill="#000000" font-family="FG Virgil" font-size="9.8" lengthAdjust="spacing" textLength="46.2" x="143.85" y="53.71">AddUserUI</text><polygon fill="#E3E3E3" points="130.55,542.4549,130.55,542.602,137.83,542.1649,145.11,542.5902,152.39,542.7347,159.67,541.9555,166.95,542.4005,174.23,542.1563,181.51,542.1864,188.79,542.4072,196.07,541.9709,203.35,542.4549,203.3994,542.5742,203.5412,542.4215,203.8273,542.6173,204.131,542.8555,204.3323,542.8464,204.5874,542.9674,204.6021,542.9735,204.6831,543.2121,204.8309,543.4784,204.9465,543.7313,205.1237,544.0097,205.1,544.2049,205.5697,544.2049,205.5755,550.6788,205.2782,557.1527,205.4245,563.6266,205.5916,570.1005,205.1,576.5744,204.9445,576.51,205.1438,576.8825,204.8311,577.0429,204.9075,577.3645,204.5832,577.5202,204.5874,577.8119,204.5813,577.7971,204.4062,578.0742,204.0881,578.0064,203.8544,578.1421,203.6277,578.2949,203.35,578.3244,203.35,578.6158,196.07,578.3217,188.79,578.5255,181.51,577.9237,174.23,578.5235,166.95,578.7082,159.67,578.6356,152.39,578.7535,145.11,577.9863,137.83,577.8679,130.55,578.3244,130.4945,578.1905,130.2973,578.2092,130.0375,578.077,129.8684,578.1638,129.5445,577.8767,129.3126,577.8119,129.2386,577.7812,129.2593,577.5847,128.9638,577.2573,128.8931,577.023,129.0424,576.8798,128.8,576.5744,129.105,576.5744,129.3141,570.1005,128.5747,563.6266,129.0234,557.1527,129.2133,550.6788,128.8,544.2049,128.6982,544.1627,128.8818,543.9488,129.0322,543.7212,129.248,543.5206,129.2091,543.2146,129.3126,542.9674,129.3539,543.0672,129.5106,542.7456,129.7471,542.6164,130.1,542.7685,130.2385,542.4028,130.55,542.4549" style="stroke:#181818;stroke-width:0.3499999999999999;"/><text fill="#000000" font-family="FG Virgil" font-size="9.8" font-style="italic" lengthAdjust="spacing" textLength="66.5" x="133.7" y="557.9301">&#171;presentation&#187;</text><text fill="#000000" font-family="FG Virgil" font-size="9.8" lengthAdjust="spacing" textLength="46.2" x="143.85" y="570.9648">AddUserUI</text><polygon fill="#E3E3E3" points="303.1,25.2,303.1,25.3471,309.8308,24.91,316.5615,25.3353,323.2923,25.4798,330.0231,24.7006,336.7538,25.1456,343.4846,24.9015,350.2154,24.9316,356.9462,25.1523,363.6769,24.716,370.4077,25.5875,377.1385,24.7588,383.8692,25.0616,390.6,25.2,390.6386,25.2931,390.8398,25.284,391.1011,25.4197,391.3396,25.5007,391.6059,25.6485,391.8374,25.7126,391.889,25.7339,392.0662,26.0123,392.1871,26.2675,392.2914,26.5157,392.3024,26.7252,392.35,26.95,392.6745,26.95,392.8416,33.4239,391.8452,39.8978,392.825,46.3717,392.1424,52.8456,392.35,59.3195,392.4651,59.3672,392.1408,59.5228,392.1302,59.8084,392.2023,60.1282,391.9294,60.3051,391.8374,60.557,391.8468,60.5797,391.6202,60.7325,391.3796,60.8517,391.0946,60.8637,390.8731,61.0289,390.6,61.0695,390.6,60.6688,383.8692,61.2686,377.1385,61.4533,370.4077,61.3807,363.6769,61.4986,356.9462,60.7314,350.2154,60.613,343.4846,60.6346,336.7538,61.0283,330.0231,60.932,323.2923,61.5465,316.5615,60.9473,309.8308,60.8294,303.1,61.0695,303.1204,61.1187,302.793,60.8233,302.5587,60.7526,302.4155,60.9019,302.149,60.7534,301.8626,60.557,302.0209,60.6226,301.6907,60.2807,301.7263,60.0905,301.6823,59.8672,301.3507,59.5248,301.35,59.3195,301.2829,59.3195,301.4382,52.8456,301.8062,46.3717,301.3471,39.8978,301.6738,33.4239,301.35,26.95,301.2306,26.9006,301.3065,26.642,301.6636,26.5,301.503,26.1435,301.8698,26.0055,301.8626,25.7126,301.881,25.7571,302.0861,25.5523,302.3259,25.4313,302.646,25.5039,302.8258,25.238,303.1,25.2" style="stroke:#181818;stroke-width:0.3499999999999999;"/><text fill="#000000" font-family="FG Virgil" font-size="9.8" font-style="italic" lengthAdjust="spacing" textLength="58.8" x="317.45" y="40.6752">&#171;application&#187;</text><text fill="#000000" font-family="FG Virgil" font-size="9.8" lengthAdjust="spacing" textLength="81.2" x="306.25" y="53.71">AddUserController</text><polygon fill="#E3E3E3" points="303.1,542.4549,303.1,542.602,309.8308,542.1649,316.5615,542.5902,323.2923,542.7347,330.0231,541.9555,336.7538,542.4005,343.4846,542.1563,350.2154,542.1864,356.9462,542.4072,363.6769,541.9709,370.4077,542.8424,377.1385,542.0137,383.8692,542.3164,390.6,542.4549,390.6386,542.548,390.8398,542.5389,391.1011,542.6746,391.3396,542.7555,391.6059,542.9034,391.8374,542.9674,391.889,542.9888,392.0662,543.2672,392.1871,543.5223,392.2914,543.7706,392.3024,543.9801,392.35,544.2049,392.6745,544.2049,392.8416,550.6788,391.8452,557.1527,392.825,563.6266,392.1424,570.1005,392.35,576.5744,392.4651,576.6221,392.1408,576.7777,392.1302,577.0633,392.2023,577.3831,391.9294,577.56,391.8374,577.8119,391.8468,577.8346,391.6202,577.9874,391.3796,578.1066,391.0946,578.1185,390.8731,578.2838,390.6,578.3244,390.6,577.9237,383.8692,578.5235,377.1385,578.7082,370.4077,578.6356,363.6769,578.7535,356.9462,577.9863,350.2154,577.8679,343.4846,577.8894,336.7538,578.2832,330.0231,578.1868,323.2923,578.8014,316.5615,578.2021,309.8308,578.0843,303.1,578.3244,303.1204,578.3736,302.793,578.0781,302.5587,578.0075,302.4155,578.1568,302.149,578.0083,301.8626,577.8119,302.0209,577.8774,301.6907,577.5356,301.7263,577.3454,301.6823,577.1221,301.3507,576.7797,301.35,576.5744,301.2829,576.5744,301.4382,570.1005,301.8062,563.6266,301.3471,557.1527,301.6738,550.6788,301.35,544.2049,301.2306,544.1554,301.3065,543.8969,301.6636,543.7549,301.503,543.3984,301.8698,543.2604,301.8626,542.9674,301.881,543.012,302.0861,542.8072,302.3259,542.6862,302.646,542.7588,302.8258,542.4929,303.1,542.4549" style="stroke:#181818;stroke-width:0.3499999999999999;"/><text fill="#000000" font-family="FG Virgil" font-size="9.8" font-style="italic" lengthAdjust="spacing" textLength="58.8" x="317.45" y="557.9301">&#171;application&#187;</text><text fill="#000000" font-family="FG Virgil" font-size="9.8" lengthAdjust="spacing" textLength="81.2" x="306.25" y="570.9648">AddUserController</text><polygon fill="#E3E3E3" points="401.1,25.2,401.1,25.3471,407.82,24.91,414.54,25.3353,421.26,25.4798,427.98,24.7006,434.7,25.1456,441.42,24.9015,448.14,24.9316,454.86,25.1523,461.58,24.716,468.3,25.2,468.3494,25.3193,468.4912,25.1666,468.7773,25.3624,469.081,25.6007,469.2823,25.5916,469.5374,25.7126,469.5521,25.7187,469.6331,25.9572,469.7809,26.2235,469.8965,26.4764,470.0737,26.7548,470.05,26.95,470.5197,26.95,470.5255,33.4239,470.2282,39.8978,470.3745,46.3717,470.5416,52.8456,470.05,59.3195,469.8945,59.2551,470.0938,59.6276,469.7811,59.788,469.8575,60.1097,469.5332,60.2653,469.5374,60.557,469.5313,60.5422,469.3562,60.8194,469.0381,60.7515,468.8044,60.8872,468.5777,61.04,468.3,61.0695,468.3,61.3609,461.58,61.0668,454.86,61.2706,448.14,60.6688,441.42,61.2686,434.7,61.4533,427.98,61.3807,421.26,61.4986,414.54,60.7314,407.82,60.613,401.1,61.0695,401.0445,60.9356,400.8473,60.9543,400.5875,60.8221,400.4184,60.9089,400.0945,60.6218,399.8626,60.557,399.7886,60.5263,399.8093,60.3299,399.5138,60.0024,399.4431,59.7682,399.5924,59.625,399.35,59.3195,399.655,59.3195,399.8641,52.8456,399.1247,46.3717,399.5734,39.8978,399.7633,33.4239,399.35,26.95,399.2482,26.9078,399.4318,26.694,399.5822,26.4663,399.798,26.2657,399.7591,25.9597,399.8626,25.7126,399.9039,25.8123,400.0606,25.4907,400.2971,25.3615,400.65,25.5136,400.7885,25.148,401.1,25.2" style="stroke:#181818;stroke-width:0.3499999999999999;"/><text fill="#000000" font-family="FG Virgil" font-size="9.8" font-style="italic" lengthAdjust="spacing" textLength="33.6" x="417.9" y="40.6752">&#171;utility&#187;</text><text fill="#000000" font-family="FG Virgil" font-size="9.8" lengthAdjust="spacing" textLength="60.9" x="404.25" y="53.71">AuthzRegistry</text><polygon fill="#E3E3E3" points="401.1,542.4549,401.1,542.602,407.82,542.1649,414.54,542.5902,421.26,542.7347,427.98,541.9555,434.7,542.4005,441.42,542.1563,448.14,542.1864,454.86,542.4072,461.58,541.9709,468.3,542.4549,468.3494,542.5742,468.4912,542.4215,468.7773,542.6173,469.081,542.8555,469.2823,542.8464,469.5374,542.9674,469.5521,542.9735,469.6331,543.2121,469.7809,543.4784,469.8965,543.7313,470.0737,544.0097,470.05,544.2049,470.5197,544.2049,470.5255,550.6788,470.2282,557.1527,470.3745,563.6266,470.5416,570.1005,470.05,576.5744,469.8945,576.51,470.0938,576.8825,469.7811,577.0429,469.8575,577.3645,469.5332,577.5202,469.5374,577.8119,469.5313,577.7971,469.3562,578.0742,469.0381,578.0064,468.8044,578.1421,468.5777,578.2949,468.3,578.3244,468.3,578.6158,461.58,578.3217,454.86,578.5255,448.14,577.9237,441.42,578.5235,434.7,578.7082,427.98,578.6356,421.26,578.7535,414.54,577.9863,407.82,577.8679,401.1,578.3244,401.0445,578.1905,400.8473,578.2092,400.5875,578.077,400.4184,578.1638,400.0945,577.8767,399.8626,577.8119,399.7886,577.7812,399.8093,577.5847,399.5138,577.2573,399.4431,577.023,399.5924,576.8798,399.35,576.5744,399.655,576.5744,399.8641,570.1005,399.1247,563.6266,399.5734,557.1527,399.7633,550.6788,399.35,544.2049,399.2482,544.1627,399.4318,543.9488,399.5822,543.7212,399.798,543.5206,399.7591,543.2146,399.8626,542.9674,399.9039,543.0672,400.0606,542.7456,400.2971,542.6164,400.65,542.7685,400.7885,542.4028,401.1,542.4549" style="stroke:#181818;stroke-width:0.3499999999999999;"/><text fill="#000000" font-family="FG Virgil" font-size="9.8" font-style="italic" lengthAdjust="spacing" textLength="33.6" x="417.9" y="557.9301">&#171;utility&#187;</text><text fill="#000000" font-family="FG Virgil" font-size="9.8" lengthAdjust="spacing" textLength="60.9" x="404.25" y="570.9648">AuthzRegistry</text><polygon fill="#E3E3E3" points="512.05,25.2,512.05,25.3471,519.1237,24.91,526.1974,25.3353,533.2711,25.4798,540.3447,24.7006,547.4184,25.1456,554.4921,24.9015,561.5658,24.9316,568.6395,25.1523,575.7132,24.716,582.7868,25.5875,589.8605,24.7588,596.9342,25.0616,604.0079,25.5024,611.0816,25.14,618.1553,25.2478,625.2289,25.1776,632.3026,25.325,639.3763,25.3674,646.45,25.2,646.5023,25.3263,646.7574,25.4472,647.0056,25.5515,647.2152,25.5624,647.4813,25.71,647.6874,25.7126,647.8388,25.7753,647.6345,25.8957,648.0387,26.2681,647.9311,26.4285,648.2126,26.7502,648.2,26.95,647.8535,26.95,648.1521,33.4239,648.7191,39.8978,648.1659,46.3717,648.2737,52.8456,648.2,59.3195,648.273,59.3498,648.1872,59.6042,647.9941,59.8142,647.9544,60.0876,647.6666,60.2584,647.6874,60.557,647.7128,60.6183,647.4889,60.7777,647.2322,60.8578,646.9997,60.9967,646.6544,60.8629,646.45,61.0695,646.45,60.613,639.3763,60.6346,632.3026,61.0283,625.2289,60.932,618.1553,61.5465,611.0816,60.9473,604.0079,60.8294,596.9342,61.2293,589.8605,60.6027,582.7868,60.7061,575.7132,61.5238,568.6395,61.3745,561.5658,61.5837,554.4921,60.8443,547.4184,61.293,540.3447,61.4828,533.2711,60.7388,526.1974,61.0024,519.1237,61.1577,512.05,61.0695,512.1082,61.21,511.8021,60.9661,511.5963,60.9642,511.2581,60.6426,510.9996,60.5135,510.8126,60.557,510.9211,60.6019,510.5555,60.2455,510.7173,60.1074,510.5496,59.833,510.3448,59.5431,510.3,59.3195,510.0524,59.3195,510.6211,52.8456,510.0905,46.3717,510.7143,39.8978,509.9131,33.4239,510.3,26.95,510.4331,27.0051,510.5069,26.7458,510.5578,26.4769,510.6177,26.2118,510.8667,26.0249,510.8126,25.7126,510.8674,25.8448,511.0752,25.6465,511.3315,25.5654,511.5434,25.3769,511.8665,25.457,512.05,25.2" style="stroke:#181818;stroke-width:0.3499999999999999;"/><text fill="#000000" font-family="FG Virgil" font-size="9.8" font-style="italic" lengthAdjust="spacing" textLength="58.8" x="549.85" y="40.6752">&#171;application&#187;</text><text fill="#000000" font-family="FG Virgil" font-size="9.8" lengthAdjust="spacing" textLength="128.1" x="515.2" y="53.71">svc:UserManagementService</text><polygon fill="#E3E3E3" points="512.05,542.4549,512.05,542.602,519.1237,542.1649,526.1974,542.5902,533.2711,542.7347,540.3447,541.9555,547.4184,542.4005,554.4921,542.1563,561.5658,542.1864,568.6395,542.4072,575.7132,541.9709,582.7868,542.8424,589.8605,542.0137,596.9342,542.3164,604.0079,542.7572,611.0816,542.3948,618.1553,542.5026,625.2289,542.4325,632.3026,542.5799,639.3763,542.6223,646.45,542.4549,646.5023,542.5811,646.7574,542.7021,647.0056,542.8063,647.2152,542.8173,647.4813,542.9649,647.6874,542.9674,647.8388,543.0302,647.6345,543.1505,648.0387,543.523,647.9311,543.6834,648.2126,544.0051,648.2,544.2049,647.8535,544.2049,648.1521,550.6788,648.7191,557.1527,648.1659,563.6266,648.2737,570.1005,648.2,576.5744,648.273,576.6047,648.1872,576.8591,647.9941,577.069,647.9544,577.3425,647.6666,577.5133,647.6874,577.8119,647.7128,577.8732,647.4889,578.0325,647.2322,578.1127,646.9997,578.2515,646.6544,578.1178,646.45,578.3244,646.45,577.8679,639.3763,577.8894,632.3026,578.2832,625.2289,578.1868,618.1553,578.8014,611.0816,578.2021,604.0079,578.0843,596.9342,578.4842,589.8605,577.8576,582.7868,577.961,575.7132,578.7787,568.6395,578.6294,561.5658,578.8386,554.4921,578.0992,547.4184,578.5479,540.3447,578.7377,533.2711,577.9937,526.1974,578.2573,519.1237,578.4126,512.05,578.3244,512.1082,578.4649,511.8021,578.221,511.5963,578.2191,511.2581,577.8975,510.9996,577.7684,510.8126,577.8119,510.9211,577.8568,510.5555,577.5003,510.7173,577.3623,510.5496,577.0878,510.3448,576.798,510.3,576.5744,510.0524,576.5744,510.6211,570.1005,510.0905,563.6266,510.7143,557.1527,509.9131,550.6788,510.3,544.2049,510.4331,544.26,510.5069,544.0006,510.5578,543.7318,510.6177,543.4666,510.8667,543.2798,510.8126,542.9674,510.8674,543.0997,511.0752,542.9014,511.3315,542.8202,511.5434,542.6318,511.8665,542.7118,512.05,542.4549" style="stroke:#181818;stroke-width:0.3499999999999999;"/><text fill="#000000" font-family="FG Virgil" font-size="9.8" font-style="italic" lengthAdjust="spacing" textLength="58.8" x="549.85" y="557.9301">&#171;application&#187;</text><text fill="#000000" font-family="FG Virgil" font-size="9.8" lengthAdjust="spacing" textLength="128.1" x="515.2" y="570.9648">svc:UserManagementService</text><polygon fill="#E3E3E3" points="656.95,25.2,656.95,25.3471,663.8423,24.91,670.7346,25.3353,677.6269,25.4798,684.5192,24.7006,691.4115,25.1456,698.3038,24.9015,705.1962,24.9316,712.0885,25.1523,718.9808,24.716,725.8731,25.5875,732.7654,24.7588,739.6577,25.0616,746.55,25.2,746.5886,25.2931,746.7898,25.284,747.0511,25.4197,747.2896,25.5007,747.5559,25.6485,747.7874,25.7126,747.839,25.7339,748.0162,26.0123,748.1371,26.2675,748.2414,26.5157,748.2524,26.7252,748.3,26.95,748.6245,26.95,748.7916,33.4239,747.7952,39.8978,748.775,46.3717,748.0924,52.8456,748.3,59.3195,748.4151,59.3672,748.0908,59.5228,748.0802,59.8084,748.1523,60.1282,747.8794,60.3051,747.7874,60.557,747.7968,60.5797,747.5702,60.7325,747.3296,60.8517,747.0446,60.8637,746.8231,61.0289,746.55,61.0695,746.55,60.6688,739.6577,61.2686,732.7654,61.4533,725.8731,61.3807,718.9808,61.4986,712.0885,60.7314,705.1962,60.613,698.3038,60.6346,691.4115,61.0283,684.5192,60.932,677.6269,61.5465,670.7346,60.9473,663.8423,60.8294,656.95,61.0695,656.9704,61.1187,656.643,60.8233,656.4087,60.7526,656.2655,60.9019,655.999,60.7534,655.7126,60.557,655.8709,60.6226,655.5407,60.2807,655.5763,60.0905,655.5323,59.8672,655.2007,59.5248,655.2,59.3195,655.1329,59.3195,655.2882,52.8456,655.6562,46.3717,655.1971,39.8978,655.5238,33.4239,655.2,26.95,655.0806,26.9006,655.1565,26.642,655.5136,26.5,655.353,26.1435,655.7198,26.0055,655.7126,25.7126,655.731,25.7571,655.9361,25.5523,656.1759,25.4313,656.496,25.5039,656.6758,25.238,656.95,25.2" style="stroke:#181818;stroke-width:0.3499999999999999;"/><text fill="#000000" font-family="FG Virgil" font-size="9.8" font-style="italic" lengthAdjust="spacing" textLength="43.4" x="680.05" y="40.6752">&#171;domain&#187;</text><text fill="#000000" font-family="FG Virgil" font-size="9.8" lengthAdjust="spacing" textLength="83.3" x="660.1" y="53.71">user:CafeteriaUser</text><polygon fill="#E3E3E3" points="656.95,542.4549,656.95,542.602,663.8423,542.1649,670.7346,542.5902,677.6269,542.7347,684.5192,541.9555,691.4115,542.4005,698.3038,542.1563,705.1962,542.1864,712.0885,542.4072,718.9808,541.9709,725.8731,542.8424,732.7654,542.0137,739.6577,542.3164,746.55,542.4549,746.5886,542.548,746.7898,542.5389,747.0511,542.6746,747.2896,542.7555,747.5559,542.9034,747.7874,542.9674,747.839,542.9888,748.0162,543.2672,748.1371,543.5223,748.2414,543.7706,748.2524,543.9801,748.3,544.2049,748.6245,544.2049,748.7916,550.6788,747.7952,557.1527,748.775,563.6266,748.0924,570.1005,748.3,576.5744,748.4151,576.6221,748.0908,576.7777,748.0802,577.0633,748.1523,577.3831,747.8794,577.56,747.7874,577.8119,747.7968,577.8346,747.5702,577.9874,747.3296,578.1066,747.0446,578.1185,746.8231,578.2838,746.55,578.3244,746.55,577.9237,739.6577,578.5235,732.7654,578.7082,725.8731,578.6356,718.9808,578.7535,712.0885,577.9863,705.1962,577.8679,698.3038,577.8894,691.4115,578.2832,684.5192,578.1868,677.6269,578.8014,670.7346,578.2021,663.8423,578.0843,656.95,578.3244,656.9704,578.3736,656.643,578.0781,656.4087,578.0075,656.2655,578.1568,655.999,578.0083,655.7126,577.8119,655.8709,577.8774,655.5407,577.5356,655.5763,577.3454,655.5323,577.1221,655.2007,576.7797,655.2,576.5744,655.1329,576.5744,655.2882,570.1005,655.6562,563.6266,655.1971,557.1527,655.5238,550.6788,655.2,544.2049,655.0806,544.1554,655.1565,543.8969,655.5136,543.7549,655.353,543.3984,655.7198,543.2604,655.7126,542.9674,655.731,543.012,655.9361,542.8072,656.1759,542.6862,656.496,542.7588,656.6758,542.4929,656.95,542.4549" style="stroke:#181818;stroke-width:0.3499999999999999;"/><text fill="#000000" font-family="FG Virgil" font-size="9.8" font-style="italic" lengthAdjust="spacing" textLength="43.4" x="680.05" y="557.9301">&#171;domain&#187;</text><text fill="#000000" font-family="FG Virgil" font-size="9.8" lengthAdjust="spacing" textLength="83.3" x="660.1" y="570.9648">user:CafeteriaUser</text><text fill="#000000" font-family="FG Virgil" font-size="9.8" font-style="italic" lengthAdjust="spacing" textLength="55.3" x="781.9" y="46.2752">&#171;repository&#187;</text><text fill="#000000" font-family="FG Virgil" font-size="9.8" lengthAdjust="spacing" textLength="108.5" x="755.3" y="59.31">CafeteriaUserRepository</text><path d="M799.05,10.5 L799.05,10.5 L799.0956,10.5469 L800.2201,9.1826 L801.6119,8.0931 L802.9167,6.9142 L803.9353,5.4409 L805.35,4.375 L805.3467,4.3511 L806.5917,4.0686 L807.8536,3.9068 L809.1271,3.829 L810.3604,3.462 L811.65,3.5 L811.65,3.5 L811.6737,3.6706 L812.883,3.4808 L814.1615,3.7891 L815.4485,4.1581 L816.6863,4.1736 L817.95,4.375 L817.9648,4.3902 L819.2031,5.5929 L820.5087,6.8648 L821.7819,8.1033 L823.117,9.4056 L824.25,10.5 L824.6675,10.5 L824.6726,14.14 L824.4084,17.78 L824.5385,21.42 L824.6869,25.06 L824.25,28.7 L824.25,28.7 L824.0936,28.5391 L823.1371,30.0764 L821.6657,31.0839 L820.5858,32.4941 L819.1026,33.4896 L817.95,34.825 L817.9471,34.8039 L816.7217,35.2285 L815.4279,35.16 L814.1745,35.3824 L812.9245,35.6293 L811.65,35.7 L811.65,35.7 L811.6678,35.8283 L810.3898,35.5238 L809.1423,35.4385 L807.8455,34.9986 L806.6222,35.0876 L805.35,34.825 L805.4689,34.9473 L804.1864,33.6992 L802.9629,32.5117 L801.4652,31.0422 L800.1686,29.7795 L799.05,28.7 L798.6634,28.7 L799.0134,25.06 L798.9277,21.42 L799.474,17.78 L798.9413,14.14 L799.05,10.5 " fill="#E3E3E3" style="stroke:#181818;stroke-width:1.0499999999999998;"/><path d="M799.05,10.5 L799.05,10.5 L799.0956,10.5469 L800.2201,11.6326 L801.6119,12.9931 L802.9167,14.2642 L803.9353,15.2409 L805.35,16.625 L805.3467,16.6011 L806.5917,16.6686 L807.8536,16.8568 L809.1271,17.129 L810.3604,17.112 L811.65,17.5 L811.65,17.5 L811.6737,17.6706 L812.883,17.1308 L814.1615,17.0891 L815.4485,17.1081 L816.6863,16.7736 L817.95,16.625 L817.9648,16.6402 L819.2031,15.3929 L820.5087,14.2148 L821.7819,13.0033 L823.117,11.8556 L824.25,10.5 " fill="none" style="stroke:#181818;stroke-width:1.0499999999999998;"/><text fill="#000000" font-family="FG Virgil" font-size="9.8" font-style="italic" lengthAdjust="spacing" textLength="55.3" x="781.9" y="553.0301">&#171;repository&#187;</text><text fill="#000000" font-family="FG Virgil" font-size="9.8" lengthAdjust="spacing" textLength="108.5" x="755.3" y="566.0648">CafeteriaUserRepository</text><path d="M799.05,575.5244 L799.05,575.5244 L799.0956,575.5713 L800.2201,574.207 L801.6119,573.1175 L802.9167,571.9386 L803.9353,570.4653 L805.35,569.3994 L805.3467,569.3755 L806.5917,569.093 L807.8536,568.9312 L809.1271,568.8534 L810.3604,568.4864 L811.65,568.5244 L811.65,568.5244 L811.6737,568.695 L812.883,568.5052 L814.1615,568.8135 L815.4485,569.1825 L816.6863,569.198 L817.95,569.3994 L817.9648,569.4146 L819.2031,570.6173 L820.5087,571.8892 L821.7819,573.1278 L823.117,574.4301 L824.25,575.5244 L824.6675,575.5244 L824.6726,579.1644 L824.4084,582.8044 L824.5385,586.4444 L824.6869,590.0844 L824.25,593.7244 L824.25,593.7244 L824.0936,593.5635 L823.1371,595.1008 L821.6657,596.1083 L820.5858,597.5185 L819.1026,598.514 L817.95,599.8494 L817.9471,599.8283 L816.7217,600.2529 L815.4279,600.1844 L814.1745,600.4069 L812.9245,600.6538 L811.65,600.7244 L811.65,600.7244 L811.6678,600.8527 L810.3898,600.5482 L809.1423,600.4629 L807.8455,600.023 L806.6222,600.112 L805.35,599.8494 L805.4689,599.9717 L804.1864,598.7236 L802.9629,597.5362 L801.4652,596.0667 L800.1686,594.8039 L799.05,593.7244 L798.6634,593.7244 L799.0134,590.0844 L798.9277,586.4444 L799.474,582.8044 L798.9413,579.1644 L799.05,575.5244 " fill="#E3E3E3" style="stroke:#181818;stroke-width:1.0499999999999998;"/><path d="M799.05,575.5244 L799.05,575.5244 L799.0956,575.5713 L800.2201,576.657 L801.6119,578.0175 L802.9167,579.2886 L803.9353,580.2653 L805.35,581.6494 L805.3467,581.6255 L806.5917,581.693 L807.8536,581.8812 L809.1271,582.1534 L810.3604,582.1364 L811.65,582.5244 L811.65,582.5244 L811.6737,582.695 L812.883,582.1552 L814.1615,582.1135 L815.4485,582.1325 L816.6863,581.798 L817.95,581.6494 L817.9648,581.6646 L819.2031,580.4173 L820.5087,579.2392 L821.7819,578.0278 L823.117,576.8801 L824.25,575.5244 " fill="none" style="stroke:#181818;stroke-width:1.0499999999999998;"/><polygon fill="#FFFFFF" points="163.45,85.0732,163.45,85.1223,164.85,84.9766,166.25,85.1183,167.65,85.1665,169.05,84.9068,170.45,85.0732,170.3956,85.0732,170.1515,92.0339,170.1816,98.9945,170.4023,105.9552,169.966,112.9158,170.8375,119.8765,170.0088,126.8371,170.3116,133.7978,170.7524,140.7584,170.39,147.7191,170.4978,154.6797,170.4276,161.6404,170.575,168.601,170.6174,175.5617,170.86,182.5224,170.9197,189.483,170.9255,196.4437,170.6282,203.4043,170.7745,210.365,170.9416,217.3256,169.9452,224.2863,170.925,231.2469,170.2424,238.2076,170.8237,245.1682,170.1035,252.1289,170.4021,259.0895,170.9691,266.0502,170.4159,273.0108,170.5237,279.9715,170.687,286.9321,170.7414,293.8928,170.4473,300.8534,170.651,307.8141,170.0493,314.7747,170.6491,321.7354,170.8337,328.696,170.7612,335.6567,170.8791,342.6173,170.1118,349.578,169.9935,356.5386,170.015,363.4993,170.4088,370.4599,170.3124,377.4206,170.927,384.3812,170.3277,391.3419,170.2099,398.3025,170.6098,405.2632,169.9832,412.2238,170.0866,419.1845,170.9043,426.1451,170.755,433.1058,170.9641,440.0664,170.2247,447.0271,170.6734,453.9877,170.8633,460.9484,170.1193,467.909,170.3829,474.8697,170.5382,481.8303,170.9062,488.791,170.4471,495.7516,170.7738,502.7123,170.0624,509.6729,169.9759,516.6336,170.8025,523.5942,170.45,530.5549,170.45,530.3876,169.05,530.6736,167.65,530.6031,166.25,530.4924,164.85,530.4723,163.45,530.5549,163.7711,530.5549,163.2405,523.5942,163.8643,516.6336,163.0631,509.6729,163.8822,502.7123,163.789,495.7516,163.6215,488.791,163.4831,481.8303,163.9586,474.8697,163.8795,467.909,163.5685,460.9484,163.6377,453.9877,163.3588,447.0271,163.9515,440.0664,163.5584,433.1058,163.5708,426.1451,163.0242,419.1845,163.1663,412.2238,163.8215,405.2632,163.7508,398.3025,163.4199,391.3419,163.2245,384.3812,163.2968,377.4206,162.9697,370.4599,163.7403,363.4993,163.9677,356.5386,163.8185,349.578,163.9365,342.6173,163.3543,335.6567,163.5111,328.696,163.1787,321.7354,163.6488,314.7747,163.6227,307.8141,163.8367,300.8534,163.2892,293.8928,163.3559,286.9321,163.7604,279.9715,163.8471,273.0108,163.0912,266.0502,163.3143,259.0895,163.5545,252.1289,163.0224,245.1682,163.6974,238.2076,163.6306,231.2469,163.3795,224.2863,163.5496,217.3256,163.9601,210.365,163.231,203.4043,163.6705,196.4437,163.65,189.483,163.531,182.5224,163.5486,175.5617,163.5294,168.601,163.0131,161.6404,163.1694,154.6797,163.1269,147.7191,163.4947,140.7584,163.5117,133.7978,163.5632,126.8371,163.2463,119.8765,163.4027,112.9158,163.3658,105.9552,163.8538,98.9945,163.7486,92.0339,163.45,85.0732" style="stroke:#181818;stroke-width:0.6999999999999998;"/><polygon fill="#FFFFFF" points="343.35,240.7029,343.35,240.752,344.75,240.6063,346.15,240.748,347.55,240.7962,348.95,240.5365,350.35,240.7029,350.2956,240.7029,350.0515,247.7542,350.0816,254.8055,350.3023,261.8567,349.866,268.908,350.7375,275.9593,349.9088,283.0105,350.2116,290.0618,350.6524,297.1131,350.29,304.1644,350.3978,311.2156,350.3276,318.2669,350.475,325.3182,350.5174,332.3694,350.76,339.4207,350.8197,346.472,350.8255,353.5232,350.5282,360.5745,350.6745,367.6258,350.8416,374.6771,349.8452,381.7283,350.825,388.7796,350.1424,395.8309,350.7237,402.8821,350.0035,409.9334,350.3021,416.9847,350.8691,424.0359,350.3159,431.0872,350.4237,438.1385,350.587,445.1897,350.6414,452.241,350.3473,459.2923,350.551,466.3436,349.9493,473.3948,350.5491,480.4461,350.7337,487.4974,350.6612,494.5486,350.7791,501.5999,350.35,508.6512,350.35,508.5385,348.95,508.499,347.55,508.5062,346.15,508.6374,344.75,508.6053,343.35,508.6512,343.827,508.6512,343.2277,501.5999,343.1099,494.5486,343.5098,487.4974,342.8832,480.4461,342.9866,473.3948,343.8043,466.3436,343.655,459.2923,343.8641,452.241,343.1247,445.1897,343.5734,438.1385,343.7633,431.0872,343.0193,424.0359,343.2829,416.9847,343.4382,409.9334,343.8062,402.8821,343.3471,395.8309,343.6738,388.7796,342.9624,381.7283,342.8759,374.6771,343.7025,367.6258,342.8481,360.5745,343.7063,353.5232,343.4946,346.472,343.1625,339.4207,343.1024,332.3694,343.6711,325.3182,343.1405,318.2669,343.7643,311.2156,342.9631,304.1644,343.7822,297.1131,343.689,290.0618,343.5215,283.0105,343.3831,275.9593,343.8586,268.908,343.7795,261.8567,343.4685,254.8055,343.5377,247.7542,343.35,240.7029" style="stroke:#181818;stroke-width:0.6999999999999998;"/><polygon fill="#FFFFFF" points="431.2,300.8141,431.2,300.8631,432.6,300.7174,434,300.8592,435.4,300.9073,436.8,300.6476,438.2,300.8141,438.1819,300.8141,438.1005,305.1948,438.1105,309.5755,438.1841,313.9563,438.0387,318.337,438.2,322.7178,438.2,322.847,436.8,322.5707,435.4,322.6716,434,322.8186,432.6,322.6978,431.2,322.7178,431.2159,322.7178,431.1925,318.337,431.2417,313.9563,431.2558,309.5755,431.3367,305.1948,431.2,300.8141" style="stroke:#181818;stroke-width:0.6999999999999998;"/><polygon fill="#FFFFFF" points="575.75,356.7252,575.75,356.7742,577.15,356.6285,578.55,356.7703,579.95,356.8185,581.35,356.5587,582.75,356.7252,582.6956,356.7252,582.4515,363.5834,582.4816,370.4416,582.7023,377.2998,582.266,384.158,583.1375,391.0162,582.3088,397.8744,582.75,404.7326,582.75,404.6865,581.35,404.8334,579.95,404.7126,578.55,404.7485,577.15,404.7252,575.75,404.7326,575.875,404.7326,575.9174,397.8744,576.16,391.0162,576.2197,384.158,576.2255,377.2998,575.9282,370.4416,576.0745,363.5834,575.75,356.7252" style="stroke:#181818;stroke-width:0.6999999999999998;"/><polygon fill="#181818" points="155.05,82.2732,155.0682,82.3188,156.4141,82.7435,157.8667,83.4351,159.2846,84.0398,160.5882,84.3587,162.05,85.0732,162.0433,85.0564,160.613,85.5408,159.2168,86.1102,157.8441,86.7385,156.3901,87.1635,155.05,87.8732,155.1413,87.9646,155.506,87.2093,156.1374,86.7206,156.8013,86.2645,157.2758,85.6191,157.85,85.0732,157.8613,85.0845,157.2847,84.508,156.7595,83.9827,156.2095,83.4327,155.7066,82.9299,155.05,82.2732" style="stroke:#181818;stroke-width:0.6999999999999998;"/><path d="M19.25,85.0732 L19.25,85.2694 L26.25,84.6865 L33.25,85.2536 L40.25,85.4463 L47.25,84.4074 L54.25,85.0007 L61.25,84.6752 L68.25,84.7153 L75.25,85.0096 L82.25,84.428 L89.25,85.59 L96.25,84.485 L103.25,84.8887 L110.25,85.4764 L117.25,84.9932 L124.25,85.1369 L131.25,85.0434 L138.25,85.2399 L145.25,85.2964 L152.25,85.6199 L159.25,85.0732 " fill="none" style="stroke:#181818;stroke-width:0.6999999999999998;stroke-dasharray:2.0,2.0;"/><text fill="#000000" font-family="FG Virgil" font-size="9.1" lengthAdjust="spacing" textLength="37.8" x="24.15" y="81.3894">Add User</text><polygon fill="#181818" points="338.45,104.177,338.4682,104.2225,339.8141,104.6472,341.2667,105.3388,342.6846,105.9435,343.9882,106.2624,345.45,106.977,345.4433,106.9601,344.013,107.4446,342.6168,108.0139,341.2441,108.6422,339.7901,109.0672,338.45,109.777,338.5413,109.8683,338.906,109.113,339.5374,108.6243,340.2013,108.1682,340.6758,107.5228,341.25,106.977,341.2613,106.9882,340.6847,106.4117,340.1595,105.8864,339.6095,105.3364,339.1066,104.8336,338.45,104.177" style="stroke:#181818;stroke-width:0.6999999999999998;"/><path d="M170.45,106.977 L170.45,107.1731 L177.338,106.5903 L184.226,107.1574 L191.114,107.35 L198.002,106.3111 L204.89,106.9044 L211.778,106.5789 L218.666,106.619 L225.554,106.9133 L232.442,106.3317 L239.33,107.4937 L246.218,106.3887 L253.106,106.7924 L259.994,107.3801 L266.882,106.8969 L273.77,107.0406 L280.658,106.9471 L287.546,107.1436 L294.434,107.2001 L301.322,107.5236 L308.21,107.6033 L315.098,107.6109 L321.986,107.2146 L328.874,107.4096 L335.762,107.6324 L342.65,106.977 " fill="none" style="stroke:#181818;stroke-width:0.6999999999999998;"/><text fill="#000000" font-family="FG Virgil" font-size="9.1" lengthAdjust="spacing" textLength="25.2" x="175.35" y="103.2931">create</text><polygon fill="#181818" points="26.95,126.0807,26.9682,126.1262,25.5141,126.5509,24.1667,127.2425,22.7846,127.8473,21.2882,128.1661,19.95,128.8807,19.9433,128.8638,21.313,129.3483,22.7168,129.9176,24.1441,130.5459,25.4901,130.9709,26.95,131.6807,27.0413,131.772,26.286,131.0167,25.7974,130.528,25.3413,130.0719,24.6958,129.4265,24.15,128.8807,24.1613,128.8919,24.7047,128.3154,25.2995,127.7901,25.8695,127.2401,26.4866,126.7373,26.95,126.0807" style="stroke:#181818;stroke-width:0.6999999999999998;"/><path d="M22.75,128.8807 L22.75,129.0768 L29.75,128.494 L36.75,129.0611 L43.75,129.2537 L50.75,128.2148 L57.75,128.8081 L64.75,128.4826 L71.75,128.5227 L78.75,128.8171 L85.75,128.2354 L92.75,129.3974 L99.75,128.2924 L106.75,128.6961 L113.75,129.2838 L120.75,128.8006 L127.75,128.9444 L134.75,128.8508 L141.75,129.0473 L148.75,129.1039 L155.75,129.4273 L162.75,128.8807 " fill="none" style="stroke:#181818;stroke-width:0.6999999999999998;stroke-dasharray:2.0,2.0;"/><text fill="#000000" font-family="FG Virgil" font-size="9.1" lengthAdjust="spacing" textLength="83.3" x="31.15" y="125.1968">Ask user information</text><polygon fill="#181818" points="155.05,160.0881,155.0682,160.1336,156.4141,160.5583,157.8667,161.25,159.2846,161.8547,160.5882,162.1735,162.05,162.8881,162.0433,162.8712,160.613,163.3557,159.2168,163.925,157.8441,164.5533,156.3901,164.9783,155.05,165.6881,155.1413,165.7794,155.506,165.0241,156.1374,164.5355,156.8013,164.0794,157.2758,163.4339,157.85,162.8881,157.8613,162.8993,157.2847,162.3228,156.7595,161.7975,156.2095,161.2475,155.7066,160.7447,155.05,160.0881" style="stroke:#181818;stroke-width:0.6999999999999998;"/><path d="M19.25,162.8881 L19.25,163.0843 L26.25,162.5014 L33.25,163.0685 L40.25,163.2611 L47.25,162.2223 L54.25,162.8156 L61.25,162.49 L68.25,162.5302 L75.25,162.8245 L82.25,162.2428 L89.25,163.4048 L96.25,162.2998 L103.25,162.7035 L110.25,163.2912 L117.25,162.808 L124.25,162.9518 L131.25,162.8583 L138.25,163.0547 L145.25,163.1113 L152.25,163.4347 L159.25,162.8881 " fill="none" style="stroke:#181818;stroke-width:0.6999999999999998;stroke-dasharray:2.0,2.0;"/><text fill="#000000" font-family="FG Virgil" font-size="9.1" lengthAdjust="spacing" textLength="127.4" x="24.15" y="147.1005">Mecanographic Number, Email,</text><text fill="#000000" font-family="FG Virgil" font-size="9.1" lengthAdjust="spacing" textLength="69.3" x="24.15" y="159.2042">Password, Name</text><polygon fill="#181818" points="26.95,181.9918,26.9682,182.0373,25.5141,182.462,24.1667,183.1537,22.7846,183.7584,21.2882,184.0772,19.95,184.7918,19.9433,184.775,21.313,185.2594,22.7168,185.8287,24.1441,186.457,25.4901,186.882,26.95,187.5918,27.0413,187.6831,26.286,186.9278,25.7974,186.4392,25.3413,185.9831,24.6958,185.3376,24.15,184.7918,24.1613,184.8031,24.7047,184.2265,25.2995,183.7013,25.8695,183.1513,26.4866,182.6484,26.95,181.9918" style="stroke:#181818;stroke-width:0.6999999999999998;"/><path d="M22.75,184.7918 L22.75,184.988 L29.75,184.4051 L36.75,184.9722 L43.75,185.1648 L50.75,184.126 L57.75,184.7193 L64.75,184.3937 L71.75,184.4339 L78.75,184.7282 L85.75,184.1465 L92.75,185.3085 L99.75,184.2035 L106.75,184.6072 L113.75,185.1949 L120.75,184.7117 L127.75,184.8555 L134.75,184.762 L141.75,184.9584 L148.75,185.015 L155.75,185.3384 L162.75,184.7918 " fill="none" style="stroke:#181818;stroke-width:0.6999999999999998;stroke-dasharray:2.0,2.0;"/><text fill="#000000" font-family="FG Virgil" font-size="9.1" lengthAdjust="spacing" textLength="98" x="31.15" y="181.1079">Show List of Role Types</text><polygon fill="#181818" points="155.05,203.8955,155.0682,203.941,156.4141,204.3657,157.8667,205.0574,159.2846,205.6621,160.5882,205.981,162.05,206.6955,162.0433,206.6787,160.613,207.1631,159.2168,207.7324,157.8441,208.3607,156.3901,208.7857,155.05,209.4955,155.1413,209.5869,155.506,208.8315,156.1374,208.3429,156.8013,207.8868,157.2758,207.2414,157.85,206.6955,157.8613,206.7068,157.2847,206.1302,156.7595,205.605,156.2095,205.055,155.7066,204.5521,155.05,203.8955" style="stroke:#181818;stroke-width:0.6999999999999998;"/><path d="M19.25,206.6955 L19.25,206.8917 L26.25,206.3088 L33.25,206.8759 L40.25,207.0685 L47.25,206.0297 L54.25,206.623 L61.25,206.2974 L68.25,206.3376 L75.25,206.6319 L82.25,206.0502 L89.25,207.2122 L96.25,206.1072 L103.25,206.5109 L110.25,207.0987 L117.25,206.6154 L124.25,206.7592 L131.25,206.6657 L138.25,206.8621 L145.25,206.9187 L152.25,207.2422 L159.25,206.6955 " fill="none" style="stroke:#181818;stroke-width:0.6999999999999998;stroke-dasharray:2.0,2.0;"/><text fill="#000000" font-family="FG Virgil" font-size="9.1" lengthAdjust="spacing" textLength="40.6" x="24.15" y="203.0116">Role Type</text><polygon fill="#181818" points="334.95,237.9029,334.9682,237.9485,336.3141,238.3732,337.7667,239.0648,339.1846,239.6695,340.4882,239.9884,341.95,240.7029,341.9433,240.6861,340.513,241.1705,339.1168,241.7398,337.7441,242.3682,336.2901,242.7931,334.95,243.5029,335.0413,243.5943,335.406,242.8389,336.0374,242.3503,336.7013,241.8942,337.1758,241.2488,337.75,240.7029,337.7613,240.7142,337.1847,240.1377,336.6595,239.6124,336.1095,239.0624,335.6066,238.5596,334.95,237.9029" style="stroke:#181818;stroke-width:0.6999999999999998;"/><path d="M170.45,240.7029 L170.45,240.8991 L177.4792,240.3162 L184.5083,240.8833 L191.5375,241.076 L198.5667,240.0371 L205.5958,240.6304 L212.625,240.3049 L219.6542,240.345 L226.6833,240.6393 L233.7125,240.0577 L240.7417,241.2197 L247.7708,240.1147 L254.8,240.5183 L261.8292,241.1061 L268.8583,240.6229 L275.8875,240.7666 L282.9167,240.6731 L289.9458,240.8696 L296.975,240.9261 L304.0042,241.2496 L311.0333,241.3292 L318.0625,241.3369 L325.0917,240.9406 L332.1208,241.1356 L339.15,240.7029 " fill="none" style="stroke:#181818;stroke-width:0.6999999999999998;"/><text fill="#000000" font-family="FG Virgil" font-size="9.1" lengthAdjust="spacing" textLength="159.6" x="175.35" y="224.9153">addUser(mecanographicNumber, email,</text><text fill="#000000" font-family="FG Virgil" font-size="9.1" lengthAdjust="spacing" textLength="154.7" x="175.35" y="237.019">password, firstName, lastName, roles)</text><path d="M353.5,249.8029 L353.6308,249.8029 L353.2422,255.9629 L353.6203,262.1229 L353.7487,268.2829 L353.0561,274.4429 L353.5,280.6029 L353.5,280.4579 L360.5304,279.8068 L367.5609,279.8871 L374.5913,280.4757 L381.6217,279.3124 L388.6522,281.6364 L395.6826,279.4264 L402.713,280.2338 L409.7435,281.4092 L416.7739,280.4428 L423.8043,280.7303 L430.8348,280.5433 L437.8652,280.9362 L444.8957,281.0493 L451.9261,281.6962 L458.9565,281.8556 L465.987,281.8709 L473.0174,281.0782 L480.0478,281.4683 L487.0783,281.9138 L494.1087,279.2567 L501.1391,281.8695 L508.1696,280.0495 L515.2,280.6029 L515.5321,280.6029 L514.892,275.8429 L515.1574,271.0829 L515.6614,266.3229 L515.1697,261.5629 L515.2,256.8029 L515.2463,256.8493 L513.949,255.5519 L512.5831,254.1861 L510.9983,252.6012 L509.7264,251.3293 L508.2,249.8029 L508.2,248.7344 L501.1682,250.3338 L494.1364,250.8262 L487.1045,250.6327 L480.0727,250.9472 L473.0409,248.9012 L466.0091,248.5855 L458.9773,248.643 L451.9455,249.693 L444.9136,249.4361 L437.8818,251.0749 L430.85,249.4769 L423.8182,249.1626 L416.7864,250.229 L409.7545,248.5582 L402.7227,248.8339 L395.6909,251.0143 L388.6591,250.6162 L381.6273,251.174 L374.5955,249.2022 L367.5636,250.3988 L360.5318,250.905 L353.5,249.8029 " fill="#FAFAFA" style="stroke:#181818;stroke-width:0.3499999999999999;"/><path d="M508.2,249.8029 L507.9061,249.8029 L508.1404,251.2029 L508.2784,252.6029 L508.6055,254.0029 L508.1974,255.4029 L508.2,256.8029 L508.2,257.0907 L509.6,256.4584 L511,256.3815 L512.4,257.1163 L513.8,256.3568 L515.2,256.8029 L515.4239,257.0269 L513.8909,255.4938 L512.2821,253.8851 L510.8443,252.4473 L509.8018,251.4048 L508.2,249.8029 " fill="#FAFAFA" style="stroke:#181818;stroke-width:0.3499999999999999;"/><text fill="#000000" font-family="FG Virgil" font-size="9.1" lengthAdjust="spacing" textLength="144.2" x="357.7" y="263.1228">hidden authorization user guarantee</text><text fill="#000000" font-family="FG Virgil" font-size="9.1" lengthAdjust="spacing" textLength="88.9" x="357.7" y="275.2265">(see specific diagram)</text><polygon fill="#181818" points="422.8,298.0141,422.8182,298.0596,424.1641,298.4843,425.6167,299.1759,427.0346,299.7807,428.3382,300.0995,429.8,300.8141,429.7933,300.7972,428.363,301.2817,426.9668,301.851,425.5941,302.4793,424.1401,302.9043,422.8,303.6141,422.8913,303.7054,423.256,302.9501,423.8874,302.4614,424.5513,302.0053,425.0258,301.3599,425.6,300.8141,425.6113,300.8253,425.0347,300.2488,424.5095,299.7235,423.9595,299.1735,423.4566,298.6707,422.8,298.0141" style="stroke:#181818;stroke-width:0.6999999999999998;"/><path d="M350.35,300.8141 L350.35,301.0102 L357.3182,300.4274 L364.2864,300.9945 L371.2545,301.1871 L378.2227,300.1482 L385.1909,300.7415 L392.1591,300.416 L399.1273,300.4561 L406.0955,300.7504 L413.0636,300.1688 L420.0318,301.3308 L427,300.8141 " fill="none" style="stroke:#181818;stroke-width:0.6999999999999998;"/><text fill="#000000" font-family="FG Virgil" font-size="9.1" lengthAdjust="spacing" textLength="52.5" x="355.25" y="297.1302">userService()</text><polygon fill="#181818" points="358.05,319.9178,358.0682,319.9633,356.6141,320.388,355.2667,321.0796,353.8846,321.6844,352.3882,322.0032,351.05,322.7178,351.0433,322.7009,352.413,323.1854,353.8168,323.7547,355.2441,324.383,356.5901,324.808,358.05,325.5178,358.1413,325.6091,357.386,324.8538,356.8974,324.3651,356.4413,323.909,355.7958,323.2636,355.25,322.7178,355.2613,322.729,355.8047,322.1525,356.3995,321.6272,356.9695,321.0772,357.5866,320.5744,358.05,319.9178" style="stroke:#181818;stroke-width:0.6999999999999998;"/><path d="M353.85,322.7178 L353.85,322.9139 L361.1364,322.3311 L368.4227,322.8982 L375.7091,323.0908 L382.9955,322.0519 L390.2818,322.6452 L397.5682,322.3197 L404.8545,322.3598 L412.1409,322.6542 L419.4273,322.0725 L426.7136,323.2345 L434,322.7178 " fill="none" style="stroke:#181818;stroke-width:0.6999999999999998;stroke-dasharray:2.0,2.0;"/><text fill="#000000" font-family="FG Virgil" font-size="9.1" lengthAdjust="spacing" textLength="13.3" x="362.25" y="319.0339">svc</text><polygon fill="#181818" points="567.35,353.9252,567.3682,353.9707,568.7141,354.3954,570.1667,355.0871,571.5846,355.6918,572.8882,356.0106,574.35,356.7252,574.3433,356.7084,572.913,357.1928,571.5168,357.7621,570.1441,358.3904,568.6901,358.8154,567.35,359.5252,567.4413,359.6165,567.806,358.8612,568.4374,358.3726,569.1013,357.9165,569.5758,357.271,570.15,356.7252,570.1613,356.7365,569.5847,356.1599,569.0595,355.6347,568.5095,355.0847,568.0066,354.5818,567.35,353.9252" style="stroke:#181818;stroke-width:0.6999999999999998;"/><path d="M350.35,356.7252 L350.35,356.9214 L357.2625,356.3385 L364.175,356.9056 L371.0875,357.0982 L378,356.0594 L384.9125,356.6527 L391.825,356.3271 L398.7375,356.3673 L405.65,356.6616 L412.5625,356.0799 L419.475,357.2419 L426.3875,356.1369 L433.3,356.5406 L440.2125,357.1283 L447.125,356.6451 L454.0375,356.7889 L460.95,356.6954 L467.8625,356.8918 L474.775,356.9484 L481.6875,357.2718 L488.6,357.3515 L495.5125,357.3592 L502.425,356.9628 L509.3375,357.1579 L516.25,357.3806 L523.1625,356.0521 L530.075,357.3585 L536.9875,356.4485 L543.9,357.2234 L550.8125,356.2632 L557.725,356.6613 L564.6375,357.4174 L571.55,356.7252 " fill="none" style="stroke:#181818;stroke-width:0.6999999999999998;"/><text fill="#000000" font-family="FG Virgil" font-size="9.1" lengthAdjust="spacing" textLength="209.3" x="355.25" y="340.9376">registerNewUser(mecanographicNumber, password,</text><text fill="#000000" font-family="FG Virgil" font-size="9.1" lengthAdjust="spacing" textLength="191.1" x="355.25" y="353.0413">firstName, lastName, email, roles, currentTime)</text><path d="M585.9,365.8252 L586.0308,365.8252 L585.6422,369.6052 L586.0203,373.3852 L586.1487,377.1652 L585.4561,380.9452 L585.9,384.7252 L585.9,384.5801 L592.7833,383.9291 L599.6667,384.0093 L606.55,384.598 L613.4333,383.4346 L620.3167,385.7587 L627.2,383.5487 L634.0833,384.356 L640.9667,385.5315 L647.85,384.5651 L654.7333,384.8526 L661.6167,384.6656 L668.5,385.0584 L675.3833,385.1716 L682.2667,385.8185 L689.15,385.9778 L696.0333,385.9931 L702.9167,385.2005 L709.8,384.7252 L710.0885,384.7252 L710.2369,382.3452 L709.3513,379.9652 L710.2222,377.5852 L709.6155,375.2052 L709.8,372.8252 L710.0349,373.0601 L708.1822,371.2074 L706.9699,369.9951 L705.9263,368.9515 L704.1786,367.2038 L702.8,365.8252 L702.8,366.0218 L695.9235,366.4573 L689.0471,366.6022 L682.1706,365.8179 L675.2941,366.3613 L668.4176,364.7567 L661.5412,366.3561 L654.6647,366.8485 L647.7882,366.655 L640.9118,366.9695 L634.0353,364.9234 L627.1588,364.6078 L620.2824,364.6652 L613.4059,365.7153 L606.5294,365.4583 L599.6529,367.0972 L592.7765,365.4991 L585.9,365.8252 " fill="#FAFAFA" style="stroke:#181818;stroke-width:0.3499999999999999;"/><path d="M702.8,365.8252 L702.5865,365.8252 L702.942,367.2252 L702.3851,368.6252 L702.477,370.0252 L703.2038,371.4252 L702.8,372.8252 L702.8,373.0963 L704.2,373.2822 L705.6,372.625 L707,373.0238 L708.4,373.1926 L709.8,372.8252 L709.5922,372.6173 L708.3578,371.383 L707.0554,370.0806 L705.8868,368.912 L704.1982,367.2234 L702.8,365.8252 " fill="#FAFAFA" style="stroke:#181818;stroke-width:0.3499999999999999;"/><text fill="#000000" font-family="FG Virgil" font-size="9.1" lengthAdjust="spacing" textLength="109.2" x="590.1" y="379.145">Framework implementation</text><polygon fill="#181818" points="358.05,401.9326,358.0682,401.9782,356.6141,402.4029,355.2667,403.0945,353.8846,403.6992,352.3882,404.0181,351.05,404.7326,351.0433,404.7158,352.413,405.2002,353.8168,405.7695,355.2441,406.3979,356.5901,406.8228,358.05,407.5326,358.1413,407.624,357.386,406.8686,356.8974,406.38,356.4413,405.9239,355.7958,405.2785,355.25,404.7326,355.2613,404.7439,355.8047,404.1673,356.3995,403.6421,356.9695,403.0921,357.5866,402.5893,358.05,401.9326" style="stroke:#181818;stroke-width:0.6999999999999998;"/><path d="M353.85,404.7326 L353.85,404.9288 L360.8719,404.3459 L367.8937,404.913 L374.9156,405.1057 L381.9375,404.0668 L388.9594,404.6601 L395.9812,404.3346 L403.0031,404.3747 L410.025,404.669 L417.0469,404.0873 L424.0687,405.2493 L431.0906,404.1444 L438.1125,404.548 L445.1344,405.1358 L452.1562,404.6526 L459.1781,404.7963 L466.2,404.7028 L473.2219,404.8992 L480.2437,404.9558 L487.2656,405.2793 L494.2875,405.3589 L501.3094,405.3666 L508.3312,404.9703 L515.3531,405.1653 L522.375,405.388 L529.3969,404.0595 L536.4187,405.3659 L543.4406,404.4559 L550.4625,405.2308 L557.4844,404.2706 L564.5062,404.6687 L571.5281,405.4248 L578.55,404.7326 " fill="none" style="stroke:#181818;stroke-width:0.6999999999999998;stroke-dasharray:2.0,2.0;"/><text fill="#000000" font-family="FG Virgil" font-size="9.1" lengthAdjust="spacing" textLength="49" x="362.25" y="401.0487">systemUser</text><polygon fill="#181818" points="693.35,423.8363,693.3682,423.8819,694.7141,424.3066,696.1667,424.9982,697.5846,425.6029,698.8882,425.9218,700.35,426.6363,700.3433,426.6195,698.913,427.1039,697.5168,427.6732,696.1441,428.3016,694.6901,428.7265,693.35,429.4363,693.4413,429.5277,693.806,428.7723,694.4374,428.2837,695.1013,427.8276,695.5758,427.1822,696.15,426.6363,696.1613,426.6476,695.5847,426.0711,695.0595,425.5458,694.5095,424.9958,694.0066,424.493,693.35,423.8363" style="stroke:#181818;stroke-width:0.6999999999999998;"/><path d="M350.35,426.6363 L350.35,426.8325 L357.294,426.2496 L364.238,426.8167 L371.182,427.0094 L378.126,425.9705 L385.07,426.5638 L392.014,426.2383 L398.958,426.2784 L405.902,426.5727 L412.846,425.9911 L419.79,427.1531 L426.734,426.0481 L433.678,426.4517 L440.622,427.0395 L447.566,426.5563 L454.51,426.7 L461.454,426.6065 L468.398,426.803 L475.342,426.8595 L482.286,427.183 L489.23,427.2626 L496.174,427.2703 L503.118,426.874 L510.062,427.069 L517.006,427.2917 L523.95,425.9632 L530.894,427.2696 L537.838,426.3596 L544.782,427.1346 L551.726,426.1743 L558.67,426.5724 L565.614,427.3285 L572.558,426.5908 L579.502,426.7346 L586.446,426.9524 L593.39,427.0248 L600.334,426.6327 L607.278,426.9044 L614.222,426.1021 L621.166,426.9018 L628.11,427.148 L635.054,427.0512 L641.998,427.2085 L648.942,426.1855 L655.886,426.0276 L662.83,426.0564 L669.774,426.5814 L676.718,426.4529 L683.662,427.2723 L690.606,426.4733 L697.55,426.6363 " fill="none" style="stroke:#181818;stroke-width:0.6999999999999998;"/><text fill="#000000" font-family="FG Virgil" font-size="9.1" lengthAdjust="spacing" textLength="178.5" x="355.25" y="422.9524">create(systemUser, mecanographicNumber)</text><path d="M353.5,435.7363 L353.6308,435.7363 L353.2422,441.8963 L353.6203,448.0563 L353.7487,454.2163 L353.0561,460.3763 L353.5,466.5363 L353.5,466.3913 L360.4067,465.7402 L367.3133,465.8205 L374.22,466.4091 L381.1267,465.2458 L388.0333,467.5698 L394.94,465.3598 L401.8467,466.1672 L408.7533,467.3426 L415.66,466.3762 L422.5667,466.6637 L429.4733,466.4767 L436.38,466.8696 L443.2867,466.9827 L450.1933,467.6296 L457.1,466.5363 L457.5175,466.5363 L457.5226,461.7763 L457.2584,457.0163 L457.3885,452.2563 L457.5369,447.4963 L457.1,442.7363 L456.7827,442.419 L455.9985,441.6349 L454.1695,439.8059 L453.1349,438.7712 L451.2822,436.9185 L450.1,435.7363 L450.1,435.6085 L443.2,437.1207 L436.3,435.6454 L429.4,435.9329 L422.5,436.3684 L415.6,436.5133 L408.7,435.729 L401.8,436.2725 L394.9,434.6678 L388,436.2672 L381.1,436.7596 L374.2,436.5661 L367.3,436.8806 L360.4,434.8346 L353.5,435.7363 " fill="#FAFAFA" style="stroke:#181818;stroke-width:0.3499999999999999;"/><path d="M450.1,435.7363 L449.6942,435.7363 L449.7134,437.1363 L450.0634,438.5363 L449.9777,439.9363 L450.524,441.3363 L450.1,442.7363 L450.1,442.6276 L451.5,442.5229 L452.9,442.8784 L454.3,442.3214 L455.7,442.4133 L457.1,442.7363 L457.3855,443.0219 L455.8917,441.528 L454.6232,440.2595 L452.7584,438.3947 L451.6404,437.2768 L450.1,435.7363 " fill="#FAFAFA" style="stroke:#181818;stroke-width:0.3499999999999999;"/><text fill="#000000" font-family="FG Virgil" font-size="9.1" lengthAdjust="spacing" textLength="88.9" x="357.7" y="449.0562">Simplified persistence</text><text fill="#000000" font-family="FG Virgil" font-size="9.1" lengthAdjust="spacing" textLength="88.9" x="357.7" y="461.1599">(see specific diagram)</text><polygon fill="#181818" points="803.25,483.9475,803.2682,483.993,804.6141,484.4177,806.0667,485.1093,807.4846,485.714,808.7882,486.0329,810.25,486.7475,810.2433,486.7306,808.813,487.2151,807.4168,487.7844,806.0441,488.4127,804.5901,488.8377,803.25,489.5475,803.3413,489.6388,803.706,488.8835,804.3374,488.3948,805.0013,487.9387,805.4758,487.2933,806.05,486.7475,806.0613,486.7587,805.4847,486.1822,804.9595,485.6569,804.4095,485.1069,803.9066,484.6041,803.25,483.9475" style="stroke:#181818;stroke-width:0.6999999999999998;"/><path d="M350.35,486.7475 L350.35,486.9436 L357.3823,486.3608 L364.4146,486.9279 L371.4469,487.1205 L378.4792,486.0816 L385.5115,486.6749 L392.5438,486.3494 L399.5762,486.3895 L406.6085,486.6838 L413.6408,486.1022 L420.6731,487.2642 L427.7054,486.1592 L434.7377,486.5629 L441.77,487.1506 L448.8023,486.6674 L455.8346,486.8112 L462.8669,486.7176 L469.8992,486.9141 L476.9315,486.9707 L483.9638,487.2941 L490.9962,487.3738 L498.0285,487.3814 L505.0608,486.9851 L512.0931,487.1801 L519.1254,487.4029 L526.1577,486.0744 L533.19,487.3807 L540.2223,486.4707 L547.2546,487.2457 L554.2869,486.2854 L561.3192,486.6835 L568.3515,487.4396 L575.3838,486.702 L582.4162,486.8457 L589.4485,487.0635 L596.4808,487.1359 L603.5131,486.7438 L610.5454,487.0155 L617.5777,486.2132 L624.61,487.0129 L631.6423,487.2591 L638.6746,487.1624 L645.7069,487.3196 L652.7392,486.2966 L659.7715,486.1388 L666.8038,486.1675 L673.8362,486.6925 L680.8685,486.564 L687.9008,487.3834 L694.9331,486.5844 L701.9654,486.4273 L708.9977,486.9605 L716.03,486.1251 L723.0623,486.2629 L730.0946,487.3531 L737.1269,487.1541 L744.1592,487.433 L751.1915,486.4471 L758.2238,487.0454 L765.2562,487.2985 L772.2885,486.3065 L779.3208,486.658 L786.3531,486.865 L793.3854,487.3558 L800.4177,486.7435 L807.45,486.7475 " fill="none" style="stroke:#181818;stroke-width:0.6999999999999998;"/><text fill="#000000" font-family="FG Virgil" font-size="9.1" lengthAdjust="spacing" textLength="41.3" x="355.25" y="483.0636">save(user)</text><polygon fill="#181818" points="178.15,505.8512,178.1682,505.8967,176.7141,506.3214,175.3667,507.013,173.9846,507.6178,172.4882,507.9366,171.15,508.6512,171.1433,508.6343,172.513,509.1188,173.9168,509.6881,175.3441,510.3164,176.6901,510.7414,178.15,511.4512,178.2413,511.5425,177.486,510.7872,176.9974,510.2985,176.5413,509.8424,175.8958,509.197,175.35,508.6512,175.3613,508.6624,175.9047,508.0859,176.4995,507.5606,177.0695,507.0106,177.6866,506.5078,178.15,505.8512" style="stroke:#181818;stroke-width:0.6999999999999998;"/><path d="M173.95,508.6512 L173.95,508.8473 L180.838,508.2645 L187.726,508.8316 L194.614,509.0242 L201.502,507.9853 L208.39,508.5786 L215.278,508.2531 L222.166,508.2932 L229.054,508.5876 L235.942,508.0059 L242.83,509.1679 L249.718,508.0629 L256.606,508.4666 L263.494,509.0543 L270.382,508.5711 L277.27,508.7149 L284.158,508.6214 L291.046,508.8178 L297.934,508.8744 L304.822,509.1978 L311.71,509.2775 L318.598,509.2851 L325.486,508.8888 L332.374,509.0839 L339.262,509.3066 L346.15,508.6512 " fill="none" style="stroke:#181818;stroke-width:0.6999999999999998;"/><text fill="#000000" font-family="FG Virgil" font-size="9.1" lengthAdjust="spacing" textLength="17.5" x="182.35" y="504.9673">user</text><polygon fill="#181818" points="26.95,527.7549,26.9682,527.8004,25.5141,528.2251,24.1667,528.9168,22.7846,529.5215,21.2882,529.8403,19.95,530.5549,19.9433,530.538,21.313,531.0225,22.7168,531.5918,24.1441,532.2201,25.4901,532.6451,26.95,533.3549,27.0413,533.4462,26.286,532.6909,25.7974,532.2023,25.3413,531.7462,24.6958,531.1007,24.15,530.5549,24.1613,530.5661,24.7047,529.9896,25.2995,529.4643,25.8695,528.9143,26.4866,528.4115,26.95,527.7549" style="stroke:#181818;stroke-width:0.6999999999999998;"/><path d="M22.75,530.5549 L22.75,530.7511 L29.5833,530.1682 L36.4167,530.7353 L43.25,530.9279 L50.0833,529.889 L56.9167,530.4824 L63.75,530.1568 L70.5833,530.197 L77.4167,530.4913 L84.25,529.9096 L91.0833,531.0716 L97.9167,529.9666 L104.75,530.3703 L111.5833,530.958 L118.4167,530.4748 L125.25,530.6186 L132.0833,530.5251 L138.9167,530.7215 L145.75,530.7781 L152.5833,531.1015 L159.4167,531.1812 L166.25,530.5549 " fill="none" style="stroke:#181818;stroke-width:0.6999999999999998;stroke-dasharray:2.0,2.0;"/><text fill="#000000" font-family="FG Virgil" font-size="9.1" lengthAdjust="spacing" textLength="100.1" x="31.15" y="526.871">Display User Info or error</text><!--SRC=[VLLDR-8m4BtpAqOzKGd-G1GXLUrsXRH5grBsrClKcIGMYMsD7H3zzJiE418Qy05ivklDynlZjzeuPAoXH9FjMOT01W8tDF6TgRR6gf9jJTSMXsgB1Qt3eI9WKg5dooZ7fWglreGLIkZhR_YdkT1LpyUNcDczDWNaM7cQJ505o_2KrTe0UdYAnudu1gsqGnF4b6qyyMOPpVAPfex9amaOj3MBnPZpiq1WMrN4CQXtIbDqhj9gDBO9vVSx5Te7FiIuRf-cJT2L3eUhY0U_KqcizuP6IAa5r9fufnKznFZrJjqj-D18QFACEGLYZJ5H6_TYQnGsqZHhDnALOS0lz0G3vtTorclXwuIsEwKfTmU9dhIamdo-4FwIo174y4Yztc4W-NK2ieHSSRcmbO1Y4djd56kRIdBuBKJqe4rkkMwxQzs6fTv8eR45eokrWbLJVn7Fu9TqLSq-pL_qVcyvcq6KoqYLTMdty4Vk06mExrOKzt5mv4SATSR9ZKxmA8nftKTq1aGdGAu3b6lshOXdKE5v9xd8FxO5EkekDOwLup9M3AoBiiNTKry2fSuo6JSKgLdMtorlHoABHkR312BuD5ClNzwHqhdGbcaKlFNZfK1SlRJIQYVLfCrsKk7qSH3IWJvx3wnTYlc0EiaeAXzuPlGpqnriCWQ9F1NHaNX5-zltSE7_qupUmF6YZXSn0zKmoyXzw9fkDBg-GZwycJYV2RmAjoHLjw1hLxL3V9Jp83Bw_YJc82tLxIpTu2S2k4FDQTBFWpQz99p124DN4hYZitNiHTH36JXY7watYcugwvwmpW-9j8ixcaPvzN1SlEUBE8ZDcOmU2MCpibaAcwSnVz7ULNXe7oLOoeC2Cjd4B7y4lIoRvNy0]--></g></svg>