<?xml version="1.0" encoding="us-ascii" standalone="no"?><svg xmlns="http://www.w3.org/2000/svg" xmlns:xlink="http://www.w3.org/1999/xlink" contentStyleType="text/css" height="1084.3px" preserveAspectRatio="none" style="width:345px;height:1084px;background:#FFFFFF;" version="1.1" viewBox="0 0 345 1084" width="345.1px" zoomAndPan="magnify"><defs/><g><text fill="#000000" font-family="sans-serif" font-size="9.8" font-weight="bold" lengthAdjust="spacing" textLength="88.9" x="123.2" y="17.5752">Use Case Diagram</text><!--cluster actors--><g id="cluster_actors"><rect fill="none" height="450.1" rx="1.75" ry="1.75" style="stroke:#FFFF00;stroke-width:0.6999999999999998;" width="80.5" x="4.9" y="305.6348"/><text fill="#000000" font-family="sans-serif" font-size="9.8" font-weight="bold" lengthAdjust="spacing" textLength="69.3" x="10.5" y="317.61">System Actors</text></g><!--cluster usecases--><g id="cluster_usecases"><rect fill="none" height="1047.9" rx="1.75" ry="1.75" style="stroke:#FFFF00;stroke-width:0.6999999999999998;" width="235.9" x="105" y="32.6348"/><text fill="#000000" font-family="sans-serif" font-size="9.8" font-weight="bold" lengthAdjust="spacing" textLength="51.8" x="197.05" y="44.61">Use Cases</text></g><!--entity ADM--><g id="elem_ADM"><ellipse cx="44.8" cy="337.8348" fill="#F1F1F1" rx="5.6" ry="5.6" style="stroke:#181818;stroke-width:0.3499999999999999;"/><path d="M44.8,343.4348 L44.8,362.3348 M35.7,349.0348 L53.9,349.0348 M44.8,362.3348 L35.7,372.8348 M44.8,362.3348 L53.9,372.8348 " fill="none" style="stroke:#181818;stroke-width:0.3499999999999999;"/><text fill="#000000" font-family="sans-serif" font-size="9.8" lengthAdjust="spacing" textLength="27.3" x="31.15" y="384.46">Admin</text></g><!--entity KM--><g id="elem_KM"><ellipse cx="44.8" cy="417.6348" fill="#F1F1F1" rx="5.6" ry="5.6" style="stroke:#181818;stroke-width:0.3499999999999999;"/><path d="M44.8,423.2348 L44.8,442.1348 M35.7,428.8348 L53.9,428.8348 M44.8,442.1348 L35.7,452.6348 M44.8,442.1348 L53.9,452.6348 " fill="none" style="stroke:#181818;stroke-width:0.3499999999999999;"/><text fill="#000000" font-family="sans-serif" font-size="9.8" lengthAdjust="spacing" textLength="32.9" x="25.2" y="464.26">Kitchen</text><text fill="#000000" font-family="sans-serif" font-size="9.8" lengthAdjust="spacing" textLength="39.2" x="25.2" y="477.2947">Manager</text></g><!--entity MM--><g id="elem_MM"><ellipse cx="44.8" cy="510.0348" fill="#F1F1F1" rx="5.6" ry="5.6" style="stroke:#181818;stroke-width:0.3499999999999999;"/><path d="M44.8,515.6348 L44.8,534.5348 M35.7,521.2348 L53.9,521.2348 M44.8,534.5348 L35.7,545.0348 M44.8,534.5348 L53.9,545.0348 " fill="none" style="stroke:#181818;stroke-width:0.3499999999999999;"/><text fill="#000000" font-family="sans-serif" font-size="9.8" lengthAdjust="spacing" textLength="24.5" x="25.2" y="556.66">Menu</text><text fill="#000000" font-family="sans-serif" font-size="9.8" lengthAdjust="spacing" textLength="39.2" x="25.2" y="569.6947">Manager</text></g><!--entity CA--><g id="elem_CA"><ellipse cx="44.8" cy="602.4348" fill="#F1F1F1" rx="5.6" ry="5.6" style="stroke:#181818;stroke-width:0.3499999999999999;"/><path d="M44.8,608.0348 L44.8,626.9348 M35.7,613.6348 L53.9,613.6348 M44.8,626.9348 L35.7,637.4348 M44.8,626.9348 L53.9,637.4348 " fill="none" style="stroke:#181818;stroke-width:0.3499999999999999;"/><text fill="#000000" font-family="sans-serif" font-size="9.8" lengthAdjust="spacing" textLength="34.3" x="27.65" y="649.06">Cashier</text></g><!--entity CU--><g id="elem_CU"><ellipse cx="44.8" cy="682.2348" fill="#F1F1F1" rx="5.6" ry="5.6" style="stroke:#181818;stroke-width:0.3499999999999999;"/><path d="M44.8,687.8348 L44.8,706.7348 M35.7,693.4348 L53.9,693.4348 M44.8,706.7348 L35.7,717.2348 M44.8,706.7348 L53.9,717.2348 " fill="none" style="stroke:#181818;stroke-width:0.3499999999999999;"/><text fill="#000000" font-family="sans-serif" font-size="9.8" lengthAdjust="spacing" textLength="40.6" x="24.5" y="728.86">Cafeteria</text><text fill="#000000" font-family="sans-serif" font-size="9.8" lengthAdjust="spacing" textLength="20.3" x="24.5" y="741.8947">User</text></g><g id="elem_UC04"><ellipse cx="223.0476" cy="174.8943" fill="#F1F1F1" rx="55.3976" ry="12.7595" style="stroke:#181818;stroke-width:0.3499999999999999;"/><text fill="#000000" font-family="sans-serif" font-size="9.8" lengthAdjust="spacing" textLength="74.2" x="183.8476" y="178.2569">UC04 - Add User</text></g><g id="elem_UC05"><ellipse cx="223.0819" cy="227.2611" fill="#F1F1F1" rx="66.9819" ry="15.0764" style="stroke:#181818;stroke-width:0.3499999999999999;"/><text fill="#000000" font-family="sans-serif" font-size="9.8" lengthAdjust="spacing" textLength="103.6" x="169.5577" y="230.5115">UC05 - Deactivate User</text></g><g id="elem_UC06"><ellipse cx="222.7766" cy="72.6401" fill="#F1F1F1" rx="62.1266" ry="14.1053" style="stroke:#181818;stroke-width:0.3499999999999999;"/><text fill="#000000" font-family="sans-serif" font-size="9.8" lengthAdjust="spacing" textLength="91.7" x="174.8266" y="76.0027">UC06 - Activate User</text></g><g id="elem_UC07"><ellipse cx="223.0356" cy="124.3519" fill="#F1F1F1" rx="56.4356" ry="12.9671" style="stroke:#181818;stroke-width:0.3499999999999999;"/><text fill="#000000" font-family="sans-serif" font-size="9.8" lengthAdjust="spacing" textLength="77" x="182.4356" y="127.7145">UC07 - List Users</text></g><g id="elem_UC08"><ellipse cx="222.9873" cy="591.1022" fill="#F1F1F1" rx="62.6873" ry="14.2175" style="stroke:#181818;stroke-width:0.3499999999999999;"/><text fill="#000000" font-family="sans-serif" font-size="9.8" lengthAdjust="spacing" textLength="93.1" x="174.3373" y="594.4648">UC08 - Register Dish</text></g><g id="elem_UC09"><ellipse cx="222.9956" cy="346.8039" fill="#F1F1F1" rx="88.9456" ry="19.4691" style="stroke:#181818;stroke-width:0.3499999999999999;"/><text fill="#000000" font-family="sans-serif" font-size="9.8" lengthAdjust="spacing" textLength="152.6" x="146.6956" y="349.4617">UC09 - Activate or Deactivate Dish</text></g><g id="elem_UC10"><ellipse cx="222.9053" cy="414.0558" fill="#F1F1F1" rx="106.7053" ry="23.0211" style="stroke:#181818;stroke-width:0.3499999999999999;"/><text fill="#000000" font-family="sans-serif" font-size="9.8" lengthAdjust="spacing" textLength="190.4" x="127.7053" y="416.7136">UC10 - Update Dish Price or Nutritional Info</text></g><g id="elem_UC11"><ellipse cx="223.0242" cy="480.6496" fill="#F1F1F1" rx="84.4242" ry="18.5648" style="stroke:#181818;stroke-width:0.3499999999999999;"/><text fill="#000000" font-family="sans-serif" font-size="9.8" lengthAdjust="spacing" textLength="142.8" x="151.6242" y="483.3074">UC11 - Consult Available Dishes</text></g><g id="elem_UC12"><ellipse cx="222.8508" cy="538.0149" fill="#F1F1F1" rx="63.2508" ry="14.3302" style="stroke:#181818;stroke-width:0.3499999999999999;"/><text fill="#000000" font-family="sans-serif" font-size="9.8" lengthAdjust="spacing" textLength="94.5" x="173.5008" y="541.3775">UC12 - Register Meal</text></g><g id="elem_UC13"><ellipse cx="223.0671" cy="703.3282" fill="#F1F1F1" rx="63.8171" ry="14.4434" style="stroke:#181818;stroke-width:0.3499999999999999;"/><text fill="#000000" font-family="sans-serif" font-size="9.8" lengthAdjust="spacing" textLength="95.9" x="173.0171" y="706.6908">UC13 - Consult Meals</text></g><g id="elem_UC14"><ellipse cx="222.9465" cy="934.3741" fill="#F1F1F1" rx="78.0465" ry="17.2893" style="stroke:#181818;stroke-width:0.3499999999999999;"/><text fill="#000000" font-family="sans-serif" font-size="9.8" lengthAdjust="spacing" textLength="128.8" x="158.5465" y="937.0319">UC14 - Consult User Balance</text></g><g id="elem_UC15"><ellipse cx="222.9394" cy="994.9927" fill="#F1F1F1" rx="85.3894" ry="18.7579" style="stroke:#181818;stroke-width:0.3499999999999999;"/><text fill="#000000" font-family="sans-serif" font-size="9.8" lengthAdjust="spacing" textLength="144.9" x="150.4894" y="997.6505">UC15 - Consult Card Movements</text></g><g id="elem_UC16"><ellipse cx="222.8051" cy="647.3458" fill="#F1F1F1" rx="76.1551" ry="16.911" style="stroke:#181818;stroke-width:0.3499999999999999;"/><text fill="#000000" font-family="sans-serif" font-size="9.8" lengthAdjust="spacing" textLength="124.6" x="160.5051" y="650.0036">UC16 - Recharge User Card</text></g><g id="elem_UC17"><ellipse cx="222.7882" cy="819.2624" fill="#F1F1F1" rx="60.7382" ry="13.8276" style="stroke:#181818;stroke-width:0.3499999999999999;"/><text fill="#000000" font-family="sans-serif" font-size="9.8" lengthAdjust="spacing" textLength="88.2" x="176.5882" y="822.625">UC17 - Book a Meal</text></g><g id="elem_UC18"><ellipse cx="223.0843" cy="875.3216" fill="#F1F1F1" rx="76.7843" ry="17.0369" style="stroke:#181818;stroke-width:0.3499999999999999;"/><text fill="#000000" font-family="sans-serif" font-size="9.8" lengthAdjust="spacing" textLength="126" x="160.0843" y="877.9794">UC18 - Consult My Bookings</text></g><g id="elem_UC19"><ellipse cx="222.7898" cy="1053.9027" fill="#F1F1F1" rx="66.6898" ry="15.018" style="stroke:#181818;stroke-width:0.3499999999999999;"/><text fill="#000000" font-family="sans-serif" font-size="9.8" lengthAdjust="spacing" textLength="102.9" x="169.5171" y="1057.1831">UC19 - Cancel Booking</text></g><g id="elem_UC20"><ellipse cx="223.0213" cy="761.489" fill="#F1F1F1" rx="88.6213" ry="19.4043" style="stroke:#181818;stroke-width:0.3499999999999999;"/><text fill="#000000" font-family="sans-serif" font-size="9.8" lengthAdjust="spacing" textLength="151.9" x="147.0713" y="764.1468">UC20 - Mark Booking as Delivered</text></g><g id="elem_UC21"><ellipse cx="223.0348" cy="284.5817" fill="#F1F1F1" rx="80.5848" ry="17.797" style="stroke:#181818;stroke-width:0.3499999999999999;"/><text fill="#000000" font-family="sans-serif" font-size="9.8" lengthAdjust="spacing" textLength="134.4" x="155.8348" y="287.2395">UC21 - Consult Booking Meals</text></g><!--link ADM to UC04--><g id="link_ADM_UC04"><path d="M46.781,331.5838 C50.008,295.6038 61.159,233.7308 99.4,199.9348 C117.915,183.5688 139.9887,177.2105 163.4667,174.7045 " fill="none" id="ADM-to-UC04" style="stroke:#181818;stroke-width:0.6999999999999998;"/><polygon fill="#181818" points="167.643,174.2588,161.0814,172.1432,164.1628,174.6302,161.6758,177.7116,167.643,174.2588" style="stroke:#181818;stroke-width:0.6999999999999998;"/></g><!--link ADM to UC05--><g id="link_ADM_UC05"><path d="M52.528,331.7588 C60.088,307.6788 74.508,273.7568 99.4,254.5348 C115.997,241.7178 133.2955,235.4404 153.5955,231.6464 " fill="none" id="ADM-to-UC05" style="stroke:#181818;stroke-width:0.6999999999999998;"/><polygon fill="#181818" points="157.724,230.8748,151.0168,229.2798,154.2836,231.5178,152.0456,234.7845,157.724,230.8748" style="stroke:#181818;stroke-width:0.6999999999999998;"/></g><!--link ADM to UC06--><g id="link_ADM_UC06"><path d="M47.481,331.8638 C52.36,271.7128 66.983,131.8458 99.4,99.1348 C115.374,83.0138 134.4836,76.1907 156.4916,73.0687 " fill="none" id="ADM-to-UC06" style="stroke:#181818;stroke-width:0.6999999999999998;"/><polygon fill="#181818" points="160.65,72.4788,154.0192,70.5914,157.1847,72.9703,154.8057,76.1359,160.65,72.4788" style="stroke:#181818;stroke-width:0.6999999999999998;"/></g><!--link ADM to UC07--><g id="link_ADM_UC07"><path d="M48.958,331.7938 C55.909,280.6728 73.164,174.5178 99.4,149.5348 C117.215,132.5668 139.063,126.1009 162.576,123.6859 " fill="none" id="ADM-to-UC07" style="stroke:#181818;stroke-width:0.6999999999999998;"/><polygon fill="#181818" points="166.754,123.2568,160.2009,121.1151,163.2723,123.6144,160.773,126.6858,166.754,123.2568" style="stroke:#181818;stroke-width:0.6999999999999998;"/></g><!--link MM to UC08--><g id="link_MM_UC08"><path d="M64.463,548.8218 C74.578,554.2048 87.381,560.4418 99.4,564.6348 C122.479,572.6918 144.7518,577.9946 167.1448,582.3066 " fill="none" id="MM-to-UC08" style="stroke:#181818;stroke-width:0.6999999999999998;"/><polygon fill="#181818" points="171.269,583.1008,165.6121,579.16,167.8321,582.439,164.5532,584.659,171.269,583.1008" style="stroke:#181818;stroke-width:0.6999999999999998;"/></g><!--link MM to UC09--><g id="link_MM_UC09"><path d="M64.484,524.1888 C74.2,515.9638 85.19,504.6518 91,491.8348 C101.437,468.8258 83.181,397.8108 99.4,378.4348 C109.578,366.2758 119.7546,359.7778 134.8676,354.8288 " fill="none" id="MM-to-UC09" style="stroke:#181818;stroke-width:0.6999999999999998;"/><polygon fill="#181818" points="138.859,353.5218,132.0005,352.8214,135.5328,354.611,133.7432,358.1433,138.859,353.5218" style="stroke:#181818;stroke-width:0.6999999999999998;"/></g><!--link MM to UC10--><g id="link_MM_UC10"><path d="M64.561,523.2858 C73.927,515.0328 84.567,503.9658 91,491.8348 C99.918,475.0138 86.527,463.8558 99.4,449.8348 C108.787,439.6078 117.0215,433.8355 129.9925,428.5505 " fill="none" id="MM-to-UC10" style="stroke:#181818;stroke-width:0.6999999999999998;"/><polygon fill="#181818" points="133.882,426.9658,126.9912,426.7499,130.6407,428.2864,129.1042,431.936,133.882,426.9658" style="stroke:#181818;stroke-width:0.6999999999999998;"/></g><!--link MM to UC11--><g id="link_MM_UC11"><path d="M64.519,527.4088 C74.648,522.0748 87.451,515.8238 99.4,511.4348 C119.007,504.2318 136.8984,499.125 156.7784,494.302 " fill="none" id="MM-to-UC11" style="stroke:#181818;stroke-width:0.6999999999999998;"/><polygon fill="#181818" points="160.86,493.3118,154.0775,492.076,157.4587,494.1369,155.3977,497.5182,160.86,493.3118" style="stroke:#181818;stroke-width:0.6999999999999998;"/></g><!--link MM to UC12--><g id="link_MM_UC12"><path d="M64.414,538.0348 C86.989,538.0348 121.702,538.0348 155.239,538.0348 " fill="none" id="MM-to-UC12" style="stroke:#181818;stroke-width:0.6999999999999998;"/><polygon fill="#181818" points="159.439,538.0348,153.139,535.2348,155.939,538.0348,153.139,540.8348,159.439,538.0348" style="stroke:#181818;stroke-width:0.6999999999999998;"/></g><!--link MM to UC13--><g id="link_MM_UC13"><path d="M64.631,552.1188 C74.263,560.3368 85.12,571.5718 91,584.2348 C99.617,602.7988 85.883,660.5768 99.4,675.9348 C114.268,692.8258 132.9038,699.9418 154.8348,703.1338 " fill="none" id="MM-to-UC13" style="stroke:#181818;stroke-width:0.6999999999999998;"/><polygon fill="#181818" points="158.991,703.7388,153.16,700.0606,155.5275,703.2347,152.3534,705.6022,158.991,703.7388" style="stroke:#181818;stroke-width:0.6999999999999998;"/></g><!--link CU to UC13--><g id="link_CU_UC13"><path d="M65.429,709.4438 C88.27,708.5408 122.6363,707.1813 155.8023,705.8653 " fill="none" id="CU-to-UC13" style="stroke:#181818;stroke-width:0.6999999999999998;"/><polygon fill="#181818" points="159.999,705.6988,153.5929,703.1507,156.5018,705.8375,153.815,708.7463,159.999,705.6988" style="stroke:#181818;stroke-width:0.6999999999999998;"/></g><!--link CU to UC14--><g id="link_CU_UC14"><path d="M45.038,744.3038 C46.382,787.7948 55.51,862.4708 99.4,904.8348 C112.497,917.4768 125.9356,923.9932 143.6316,928.4032 " fill="none" id="CU-to-UC14" style="stroke:#181818;stroke-width:0.6999999999999998;"/><polygon fill="#181818" points="147.707,929.4188,142.271,925.1784,144.3109,928.5724,140.9169,930.6122,147.707,929.4188" style="stroke:#181818;stroke-width:0.6999999999999998;"/></g><!--link CU to UC15--><g id="link_CU_UC15"><path d="M48.342,744.2268 C54.173,805.8478 69.545,932.5198 99.4,963.6348 C111.062,975.7868 122.6949,982.2976 138.9279,987.1206 " fill="none" id="CU-to-UC15" style="stroke:#181818;stroke-width:0.6999999999999998;"/><polygon fill="#181818" points="142.954,988.3168,137.7124,983.8384,139.599,987.3199,136.1175,989.2065,142.954,988.3168" style="stroke:#181818;stroke-width:0.6999999999999998;"/></g><!--link CA to UC16--><g id="link_CA_UC16"><path d="M62.125,626.3048 C83.783,629.1398 118.7485,633.7052 152.9015,638.1712 " fill="none" id="CA-to-UC16" style="stroke:#181818;stroke-width:0.6999999999999998;"/><polygon fill="#181818" points="157.066,638.7158,151.1822,635.1225,153.5955,638.262,150.4561,640.6753,157.066,638.7158" style="stroke:#181818;stroke-width:0.6999999999999998;"/></g><!--link CU to UC17--><g id="link_CU_UC17"><path d="M59.983,744.2828 C68.929,761.3558 82.054,780.8928 99.4,792.8348 C118.097,805.7078 137.7311,811.8265 159.3751,815.3685 " fill="none" id="CU-to-UC17" style="stroke:#181818;stroke-width:0.6999999999999998;"/><polygon fill="#181818" points="163.52,816.0468,157.7549,812.2661,160.0659,815.4815,156.8505,817.7926,163.52,816.0468" style="stroke:#181818;stroke-width:0.6999999999999998;"/></g><!--link CU to UC18--><g id="link_CU_UC18"><path d="M50.197,744.4368 C56.245,775.2578 69.769,819.5678 99.4,845.3348 C113.652,857.7248 128.1065,864.196 146.4465,868.648 " fill="none" id="CU-to-UC18" style="stroke:#181818;stroke-width:0.6999999999999998;"/><polygon fill="#181818" points="150.528,869.6388,145.0663,865.4316,147.1268,868.8131,143.7453,870.8736,150.528,869.6388" style="stroke:#181818;stroke-width:0.6999999999999998;"/></g><!--link CU to UC19--><g id="link_CU_UC19"><path d="M46.669,744.2408 C49.896,817.2788 61.369,985.7548 99.4,1025.9348 C114.058,1041.4258 131.237,1048.4445 152.013,1052.1125 " fill="none" id="CU-to-UC19" style="stroke:#181818;stroke-width:0.6999999999999998;"/><polygon fill="#181818" points="156.149,1052.8428,150.4318,1048.9901,152.7023,1052.2343,149.4581,1054.5048,156.149,1052.8428" style="stroke:#181818;stroke-width:0.6999999999999998;"/></g><!--link CA to UC20--><g id="link_CA_UC20"><path d="M62.146,634.2148 C72.233,641.2568 84.385,651.6028 91,664.0348 C104.846,690.0608 79.884,707.7358 99.4,729.8348 C110.04,741.8818 120.5987,748.3471 135.9777,753.2541 " fill="none" id="CA-to-UC20" style="stroke:#181818;stroke-width:0.6999999999999998;"/><polygon fill="#181818" points="139.979,754.5308,134.8282,749.9482,136.6446,753.4669,133.126,755.2832,139.979,754.5308" style="stroke:#181818;stroke-width:0.6999999999999998;"/></g><!--link KM to UC21--><g id="link_KM_UC21"><path d="M64.589,431.5368 C74.214,423.3118 85.078,412.0768 91,399.4348 C99.029,382.3058 87.003,329.0218 99.4,314.7348 C110.985,301.3858 123.3791,294.5455 140.4801,289.9465 " fill="none" id="KM-to-UC21" style="stroke:#181818;stroke-width:0.6999999999999998;"/><polygon fill="#181818" points="144.536,288.8558,137.725,287.788,141.1561,289.7647,139.1793,293.1958,144.536,288.8558" style="stroke:#181818;stroke-width:0.6999999999999998;"/></g><!--SRC=[RPHDR-8m48Rl_XKZBZqXaPJFoqeXN5PiLgkjkFNY9aDYOMpa62fKzR-ldU3WsCi1CR6Vn-F9ArxQ4nCNgkWPpbB8ib7oZA3L5SbpvKBB4wtnJTyvWi9IKr5p92_F7Mr3A_d9H0r7obia7Zpi_o9WFbkfAbIvv5B17JcNd-IR4CsqKHzQX9oQhnsZjM49uNZKe2KeLZSQAcPbJ0f21YjCtkwjnZDafPQgdG1jWNO_eJ-mAo2hpapOjMnNU8ydUwRB1iMxAAWmLrGTlnzjAL1Sn-l5QDrqtB37IfwDLuweKJ7wBipL7ZiEzhvU- -xIVUlN5ajRV95Ez2ZDhdmsXwcvHWM3oZxhTfaxmNJwetyGSGl3xT2qn6vKumXVXFWYnfVssF_1on1Unl3AmBzOgpkmTUGg95SnkJRaNwmDYyhaeMqSlEws5WExZjcDtx9v4TxjVTCcC6qYKp8pfiEbSYJyKQpibB-lMZ4RHShXfpZAXpEPZPscZfo9SUPIj5Uk8RjHnka7x_Ne9fGaWIQ9DQa_e08fTsmQi6dCldejM7GuzpLW-pe_FEl8DVTSzYt3bd8gIdJAUQ284veiF4LELGM5lE4PXHxwMWIIEAV9ifj7sL1LzpdjL4xGXpNFd23EQcApkfNo17GqpbLmT9pLPEsFyzv9p5_XqFmwCCI9JMnYSpirxcW7Rm8u3cbgGrfGTNAe9NV8sGqLkW6ai_40qZYOgHzCf_BJaVQftBjqcFgR_0C0]--></g></svg>