<?xml version="1.0" encoding="us-ascii" standalone="no"?><svg xmlns="http://www.w3.org/2000/svg" xmlns:xlink="http://www.w3.org/1999/xlink" contentStyleType="text/css" height="262.8px" preserveAspectRatio="none" style="width:493px;height:262px;background:#FFFFFF;" version="1.1" viewBox="0 0 493 262" width="493.2px" zoomAndPan="magnify"><defs/><g><!--cluster <<aggregate>> CafeteriaUser--><g id="cluster_&lt;&lt;aggregate&gt;&gt; CafeteriaUser"><path d="M277.5,106.2082 L391.5,106.2082 A2.25,2.25 0 0 1 393,107.7082 L397.2,120.9809 L487.5,120.9809 A1.5,1.5 0 0 1 489,122.4809 L489,257.1082 A1.5,1.5 0 0 1 487.5,258.6082 L277.5,258.6082 A1.5,1.5 0 0 1 276,257.1082 L276,107.7082 A1.5,1.5 0 0 1 277.5,106.2082 " fill="none" style="stroke:#000000;stroke-width:0.8999999999999999;"/><line style="stroke:#000000;stroke-width:0.8999999999999999;" x1="276" x2="397.2" y1="120.9809" y2="120.9809"/><text fill="#000000" font-family="sans-serif" font-size="8.4" font-weight="bold" lengthAdjust="spacing" textLength="113.4" x="278.4" y="116.4727">&#171;aggregate&#187; CafeteriaUser</text></g><!--cluster <<aggregate>> CardBalance--><g id="cluster_&lt;&lt;aggregate&gt;&gt; CardBalance"><path d="M5.1,3.6082 L114.3,3.6082 A2.25,2.25 0 0 1 115.8,5.1082 L120,18.3809 L260.1,18.3809 A1.5,1.5 0 0 1 261.6,19.8809 L261.6,177.9082 A1.5,1.5 0 0 1 260.1,179.4082 L5.1,179.4082 A1.5,1.5 0 0 1 3.6,177.9082 L3.6,5.1082 A1.5,1.5 0 0 1 5.1,3.6082 " fill="none" style="stroke:#000000;stroke-width:0.8999999999999999;"/><line style="stroke:#000000;stroke-width:0.8999999999999999;" x1="3.6" x2="120" y1="18.3809" y2="18.3809"/><text fill="#000000" font-family="sans-serif" font-size="8.4" font-weight="bold" lengthAdjust="spacing" textLength="108.6" x="6" y="13.8727">&#171;aggregate&#187; CardBalance</text></g><!--class CafeteriaUser--><g id="elem_CafeteriaUser"><rect codeLine="6" fill="#F1F1F1" height="41.1258" id="CafeteriaUser" rx="1.5" ry="1.5" style="stroke:#181818;stroke-width:0.3;" width="71.4" x="285.9" y="128.4082"/><ellipse cx="294.9" cy="146.5711" fill="#ADD1B2" rx="6.6" ry="6.6" style="stroke:#181818;stroke-width:0.6;"/><path d="M296.5594,144.0961 Q296.6531,143.9648 296.7656,143.8992 Q296.8781,143.8336 297.0094,143.8336 Q297.2344,143.8336 297.375,143.993 Q297.5156,144.143 297.5156,144.5086 L297.5156,145.3805 Q297.5156,145.7461 297.375,145.9055 Q297.2344,146.0648 297.0094,146.0648 Q296.8031,146.0648 296.6813,145.943 Q296.5594,145.8305 296.4938,145.5211 Q296.4656,145.3055 296.3531,145.193 Q296.1563,144.968 295.7906,144.8367 Q295.425,144.7055 295.05,144.7055 Q294.5906,144.7055 294.2063,144.9023 Q293.8313,145.0992 293.5313,145.5492 Q293.2406,145.9992 293.2406,146.618 L293.2406,147.2742 Q293.2406,148.0148 293.775,148.5117 Q294.3094,148.9992 295.2656,148.9992 Q295.8281,148.9992 296.2219,148.8492 Q296.4563,148.7555 296.7094,148.493 Q296.8688,148.3336 296.9531,148.2867 Q297.0469,148.2398 297.1688,148.2398 Q297.3656,148.2398 297.5156,148.3992 Q297.675,148.5492 297.675,148.7555 Q297.675,148.9617 297.4688,149.2055 Q297.1688,149.5523 296.6906,149.7492 Q296.0438,150.0211 295.2656,150.0211 Q294.3563,150.0211 293.6344,149.6461 Q293.0438,149.3461 292.6312,148.7086 Q292.2188,148.0617 292.2188,147.293 L292.2188,146.5992 Q292.2188,145.8023 292.5844,145.118 Q292.9594,144.4242 293.6156,144.0586 Q294.2719,143.6836 295.0125,143.6836 Q295.4531,143.6836 295.8375,143.7867 Q296.2313,143.8805 296.5594,144.0961 Z " fill="#000000"/><text fill="#000000" font-family="sans-serif" font-size="7.2" font-style="italic" lengthAdjust="spacing" textLength="25.8" x="316.5" y="139.1777">&#171;entity&#187;</text><text fill="#000000" font-family="sans-serif" font-size="7.2" font-style="italic" lengthAdjust="spacing" textLength="21" x="318.9" y="148.7543">&#171;root&#187;</text><text fill="#000000" font-family="sans-serif" font-size="8.4" lengthAdjust="spacing" textLength="52.2" x="303.3" y="159.6258">CafeteriaUser</text><line style="stroke:#181818;stroke-width:0.3;" x1="286.5" x2="356.7" y1="164.734" y2="164.734"/></g><!--class Role--><g id="elem_Role"><rect codeLine="9" fill="#F1F1F1" height="31.5492" id="Role" rx="1.5" ry="1.5" style="stroke:#181818;stroke-width:0.3;" width="65.4" x="285.9" y="212.4082"/><ellipse cx="294.9" cy="225.7828" fill="#ADD1B2" rx="6.6" ry="6.6" style="stroke:#181818;stroke-width:0.6;"/><path d="M296.5594,223.3078 Q296.6531,223.1766 296.7656,223.1109 Q296.8781,223.0453 297.0094,223.0453 Q297.2344,223.0453 297.375,223.2047 Q297.5156,223.3547 297.5156,223.7203 L297.5156,224.5922 Q297.5156,224.9578 297.375,225.1172 Q297.2344,225.2766 297.0094,225.2766 Q296.8031,225.2766 296.6813,225.1547 Q296.5594,225.0422 296.4938,224.7328 Q296.4656,224.5172 296.3531,224.4047 Q296.1563,224.1797 295.7906,224.0484 Q295.425,223.9172 295.05,223.9172 Q294.5906,223.9172 294.2063,224.1141 Q293.8313,224.3109 293.5313,224.7609 Q293.2406,225.2109 293.2406,225.8297 L293.2406,226.4859 Q293.2406,227.2266 293.775,227.7234 Q294.3094,228.2109 295.2656,228.2109 Q295.8281,228.2109 296.2219,228.0609 Q296.4563,227.9672 296.7094,227.7047 Q296.8688,227.5453 296.9531,227.4984 Q297.0469,227.4516 297.1688,227.4516 Q297.3656,227.4516 297.5156,227.6109 Q297.675,227.7609 297.675,227.9672 Q297.675,228.1734 297.4688,228.4172 Q297.1688,228.7641 296.6906,228.9609 Q296.0438,229.2328 295.2656,229.2328 Q294.3563,229.2328 293.6344,228.8578 Q293.0438,228.5578 292.6312,227.9203 Q292.2188,227.2734 292.2188,226.5047 L292.2188,225.8109 Q292.2188,225.0141 292.5844,224.3297 Q292.9594,223.6359 293.6156,223.2703 Q294.2719,222.8953 295.0125,222.8953 Q295.4531,222.8953 295.8375,222.9984 Q296.2313,223.0922 296.5594,223.3078 Z " fill="#000000"/><text fill="#000000" font-family="sans-serif" font-size="7.2" font-style="italic" lengthAdjust="spacing" textLength="48.6" x="302.1" y="223.1777">&#171;value object&#187;</text><text fill="#000000" font-family="sans-serif" font-size="8.4" lengthAdjust="spacing" textLength="17.4" x="317.7" y="234.0492">Role</text><line style="stroke:#181818;stroke-width:0.3;" x1="286.5" x2="350.7" y1="239.1574" y2="239.1574"/></g><!--class MecanographicNumber--><g id="elem_MecanographicNumber"><rect codeLine="12" fill="#F1F1F1" height="41.1258" id="MecanographicNumber" rx="1.5" ry="1.5" style="stroke:#181818;stroke-width:0.3;" width="106.8" x="372.6" y="207.6082"/><ellipse cx="381.6" cy="225.7711" fill="#ADD1B2" rx="6.6" ry="6.6" style="stroke:#181818;stroke-width:0.6;"/><path d="M383.2594,223.2961 Q383.3531,223.1648 383.4656,223.0992 Q383.5781,223.0336 383.7094,223.0336 Q383.9344,223.0336 384.075,223.193 Q384.2156,223.343 384.2156,223.7086 L384.2156,224.5805 Q384.2156,224.9461 384.075,225.1055 Q383.9344,225.2648 383.7094,225.2648 Q383.5031,225.2648 383.3812,225.143 Q383.2594,225.0305 383.1937,224.7211 Q383.1656,224.5055 383.0531,224.393 Q382.8563,224.168 382.4906,224.0367 Q382.125,223.9055 381.75,223.9055 Q381.2906,223.9055 380.9063,224.1023 Q380.5313,224.2992 380.2313,224.7492 Q379.9406,225.1992 379.9406,225.818 L379.9406,226.4742 Q379.9406,227.2148 380.475,227.7117 Q381.0094,228.1992 381.9656,228.1992 Q382.5281,228.1992 382.9219,228.0492 Q383.1563,227.9555 383.4094,227.693 Q383.5687,227.5336 383.6531,227.4867 Q383.7469,227.4398 383.8688,227.4398 Q384.0656,227.4398 384.2156,227.5992 Q384.375,227.7492 384.375,227.9555 Q384.375,228.1617 384.1688,228.4055 Q383.8688,228.7523 383.3906,228.9492 Q382.7438,229.2211 381.9656,229.2211 Q381.0563,229.2211 380.3344,228.8461 Q379.7438,228.5461 379.3313,227.9086 Q378.9188,227.2617 378.9188,226.493 L378.9188,225.7992 Q378.9188,225.0023 379.2844,224.318 Q379.6594,223.6242 380.3156,223.2586 Q380.9719,222.8836 381.7125,222.8836 Q382.1531,222.8836 382.5375,222.9867 Q382.9313,223.0805 383.2594,223.2961 Z " fill="#000000"/><text fill="#000000" font-family="sans-serif" font-size="7.2" font-style="italic" lengthAdjust="spacing" textLength="48.6" x="409.5" y="218.3777">&#171;value object&#187;</text><text fill="#000000" font-family="sans-serif" font-size="7.2" font-style="italic" lengthAdjust="spacing" textLength="14.4" x="426.6" y="227.9543">&#171;id&#187;</text><text fill="#000000" font-family="sans-serif" font-size="8.4" lengthAdjust="spacing" textLength="87.6" x="390" y="238.8258">MecanographicNumber</text><line style="stroke:#181818;stroke-width:0.3;" x1="373.2" x2="478.8" y1="243.934" y2="243.934"/></g><!--class CardBalance--><g id="elem_CardBalance"><rect codeLine="20" fill="#F1F1F1" height="41.1258" id="CardBalance" rx="1.5" ry="1.5" style="stroke:#181818;stroke-width:0.3;" width="68.4" x="136.2" y="25.8082"/><ellipse cx="145.2" cy="43.9711" fill="#ADD1B2" rx="6.6" ry="6.6" style="stroke:#181818;stroke-width:0.6;"/><path d="M146.8594,41.4961 Q146.9531,41.3648 147.0656,41.2992 Q147.1781,41.2336 147.3094,41.2336 Q147.5344,41.2336 147.675,41.393 Q147.8156,41.543 147.8156,41.9086 L147.8156,42.7805 Q147.8156,43.1461 147.675,43.3055 Q147.5344,43.4648 147.3094,43.4648 Q147.1031,43.4648 146.9813,43.343 Q146.8594,43.2305 146.7938,42.9211 Q146.7656,42.7055 146.6531,42.593 Q146.4562,42.368 146.0906,42.2367 Q145.725,42.1055 145.35,42.1055 Q144.8906,42.1055 144.5063,42.3023 Q144.1313,42.4992 143.8312,42.9492 Q143.5406,43.3992 143.5406,44.018 L143.5406,44.6742 Q143.5406,45.4148 144.075,45.9117 Q144.6094,46.3992 145.5656,46.3992 Q146.1281,46.3992 146.5219,46.2492 Q146.7563,46.1555 147.0094,45.893 Q147.1688,45.7336 147.2531,45.6867 Q147.3469,45.6398 147.4688,45.6398 Q147.6656,45.6398 147.8156,45.7992 Q147.975,45.9492 147.975,46.1555 Q147.975,46.3617 147.7687,46.6055 Q147.4688,46.9523 146.9906,47.1492 Q146.3438,47.4211 145.5656,47.4211 Q144.6563,47.4211 143.9344,47.0461 Q143.3438,46.7461 142.9313,46.1086 Q142.5187,45.4617 142.5187,44.693 L142.5187,43.9992 Q142.5187,43.2023 142.8844,42.518 Q143.2594,41.8242 143.9156,41.4586 Q144.5719,41.0836 145.3125,41.0836 Q145.7531,41.0836 146.1375,41.1867 Q146.5313,41.2805 146.8594,41.4961 Z " fill="#000000"/><text fill="#000000" font-family="sans-serif" font-size="7.2" font-style="italic" lengthAdjust="spacing" textLength="25.8" x="165.3" y="36.5777">&#171;entity&#187;</text><text fill="#000000" font-family="sans-serif" font-size="7.2" font-style="italic" lengthAdjust="spacing" textLength="21" x="167.7" y="46.1543">&#171;root&#187;</text><text fill="#000000" font-family="sans-serif" font-size="8.4" lengthAdjust="spacing" textLength="49.2" x="153.6" y="57.0258">CardBalance</text><line style="stroke:#181818;stroke-width:0.3;" x1="136.8" x2="204" y1="62.134" y2="62.134"/></g><!--class Money--><g id="elem_Money"><rect codeLine="23" fill="#F1F1F1" height="31.5492" id="Money" rx="1.5" ry="1.5" style="stroke:#181818;stroke-width:0.3;" width="65.4" x="13.5" y="133.2082"/><ellipse cx="22.5" cy="146.5828" fill="#ADD1B2" rx="6.6" ry="6.6" style="stroke:#181818;stroke-width:0.6;"/><path d="M24.1594,144.1078 Q24.2531,143.9766 24.3656,143.9109 Q24.4781,143.8453 24.6094,143.8453 Q24.8344,143.8453 24.975,144.0047 Q25.1156,144.1547 25.1156,144.5203 L25.1156,145.3922 Q25.1156,145.7578 24.975,145.9172 Q24.8344,146.0766 24.6094,146.0766 Q24.4031,146.0766 24.2813,145.9547 Q24.1594,145.8422 24.0938,145.5328 Q24.0656,145.3172 23.9531,145.2047 Q23.7562,144.9797 23.3906,144.8484 Q23.025,144.7172 22.65,144.7172 Q22.1906,144.7172 21.8063,144.9141 Q21.4313,145.1109 21.1312,145.5609 Q20.8406,146.0109 20.8406,146.6297 L20.8406,147.2859 Q20.8406,148.0266 21.375,148.5234 Q21.9094,149.0109 22.8656,149.0109 Q23.4281,149.0109 23.8219,148.8609 Q24.0563,148.7672 24.3094,148.5047 Q24.4688,148.3453 24.5531,148.2984 Q24.6469,148.2516 24.7688,148.2516 Q24.9656,148.2516 25.1156,148.4109 Q25.275,148.5609 25.275,148.7672 Q25.275,148.9734 25.0687,149.2172 Q24.7688,149.5641 24.2906,149.7609 Q23.6438,150.0328 22.8656,150.0328 Q21.9563,150.0328 21.2344,149.6578 Q20.6438,149.3578 20.2313,148.7203 Q19.8187,148.0734 19.8187,147.3047 L19.8187,146.6109 Q19.8187,145.8141 20.1844,145.1297 Q20.5594,144.4359 21.2156,144.0703 Q21.8719,143.6953 22.6125,143.6953 Q23.0531,143.6953 23.4375,143.7984 Q23.8313,143.8922 24.1594,144.1078 Z " fill="#000000"/><text fill="#000000" font-family="sans-serif" font-size="7.2" font-style="italic" lengthAdjust="spacing" textLength="48.6" x="29.7" y="143.9777">&#171;value object&#187;</text><text fill="#000000" font-family="sans-serif" font-size="8.4" lengthAdjust="spacing" textLength="25.2" x="41.4" y="154.8492">Money</text><line style="stroke:#181818;stroke-width:0.3;" x1="14.1" x2="78.3" y1="159.9574" y2="159.9574"/></g><!--class Calender--><g id="elem_Calender"><rect codeLine="26" fill="#F1F1F1" height="24" id="Calender" rx="1.5" ry="1.5" style="stroke:#181818;stroke-width:0.3;" width="54" x="100.2" y="137.1082"/><ellipse cx="109.2" cy="146.7082" fill="#ADD1B2" rx="6.6" ry="6.6" style="stroke:#181818;stroke-width:0.6;"/><path d="M110.8594,144.2332 Q110.9531,144.102 111.0656,144.0363 Q111.1781,143.9707 111.3094,143.9707 Q111.5344,143.9707 111.675,144.1301 Q111.8156,144.2801 111.8156,144.6457 L111.8156,145.5176 Q111.8156,145.8832 111.675,146.0426 Q111.5344,146.202 111.3094,146.202 Q111.1031,146.202 110.9813,146.0801 Q110.8594,145.9676 110.7938,145.6582 Q110.7656,145.4426 110.6531,145.3301 Q110.4563,145.1051 110.0906,144.9738 Q109.725,144.8426 109.35,144.8426 Q108.8906,144.8426 108.5063,145.0395 Q108.1313,145.2363 107.8313,145.6863 Q107.5406,146.1363 107.5406,146.7551 L107.5406,147.4113 Q107.5406,148.152 108.075,148.6488 Q108.6094,149.1363 109.5656,149.1363 Q110.1281,149.1363 110.5219,148.9863 Q110.7563,148.8926 111.0094,148.6301 Q111.1688,148.4707 111.2531,148.4238 Q111.3469,148.377 111.4688,148.377 Q111.6656,148.377 111.8156,148.5363 Q111.975,148.6863 111.975,148.8926 Q111.975,149.0988 111.7688,149.3426 Q111.4688,149.6895 110.9906,149.8863 Q110.3438,150.1582 109.5656,150.1582 Q108.6563,150.1582 107.9344,149.7832 Q107.3438,149.4832 106.9312,148.8457 Q106.5188,148.1988 106.5188,147.4301 L106.5188,146.7363 Q106.5188,145.9395 106.8844,145.2551 Q107.2594,144.5613 107.9156,144.1957 Q108.5719,143.8207 109.3125,143.8207 Q109.7531,143.8207 110.1375,143.9238 Q110.5313,144.0176 110.8594,144.2332 Z " fill="#000000"/><text fill="#000000" font-family="sans-serif" font-size="8.4" lengthAdjust="spacing" textLength="34.8" x="117.6" y="150.1863">Calender</text><line style="stroke:#181818;stroke-width:0.3;" x1="100.8" x2="153.6" y1="156.3082" y2="156.3082"/></g><!--class CardBalanceID--><g id="elem_CardBalanceID"><rect codeLine="29" fill="#F1F1F1" height="41.1258" id="CardBalanceID" rx="1.5" ry="1.5" style="stroke:#181818;stroke-width:0.3;" width="76.2" x="175.5" y="128.4082"/><ellipse cx="184.5" cy="146.5711" fill="#ADD1B2" rx="6.6" ry="6.6" style="stroke:#181818;stroke-width:0.6;"/><path d="M186.1594,144.0961 Q186.2531,143.9648 186.3656,143.8992 Q186.4781,143.8336 186.6094,143.8336 Q186.8344,143.8336 186.975,143.993 Q187.1156,144.143 187.1156,144.5086 L187.1156,145.3805 Q187.1156,145.7461 186.975,145.9055 Q186.8344,146.0648 186.6094,146.0648 Q186.4031,146.0648 186.2813,145.943 Q186.1594,145.8305 186.0938,145.5211 Q186.0656,145.3055 185.9531,145.193 Q185.7563,144.968 185.3906,144.8367 Q185.025,144.7055 184.65,144.7055 Q184.1906,144.7055 183.8063,144.9023 Q183.4313,145.0992 183.1313,145.5492 Q182.8406,145.9992 182.8406,146.618 L182.8406,147.2742 Q182.8406,148.0148 183.375,148.5117 Q183.9094,148.9992 184.8656,148.9992 Q185.4281,148.9992 185.8219,148.8492 Q186.0563,148.7555 186.3094,148.493 Q186.4688,148.3336 186.5531,148.2867 Q186.6469,148.2398 186.7687,148.2398 Q186.9656,148.2398 187.1156,148.3992 Q187.275,148.5492 187.275,148.7555 Q187.275,148.9617 187.0688,149.2055 Q186.7687,149.5523 186.2906,149.7492 Q185.6437,150.0211 184.8656,150.0211 Q183.9562,150.0211 183.2344,149.6461 Q182.6437,149.3461 182.2313,148.7086 Q181.8188,148.0617 181.8188,147.293 L181.8188,146.5992 Q181.8188,145.8023 182.1844,145.118 Q182.5594,144.4242 183.2156,144.0586 Q183.8719,143.6836 184.6125,143.6836 Q185.0531,143.6836 185.4375,143.7867 Q185.8312,143.8805 186.1594,144.0961 Z " fill="#000000"/><text fill="#000000" font-family="sans-serif" font-size="7.2" font-style="italic" lengthAdjust="spacing" textLength="48.6" x="197.1" y="139.1777">&#171;value object&#187;</text><text fill="#000000" font-family="sans-serif" font-size="7.2" font-style="italic" lengthAdjust="spacing" textLength="14.4" x="214.2" y="148.7543">&#171;id&#187;</text><text fill="#000000" font-family="sans-serif" font-size="8.4" lengthAdjust="spacing" textLength="57" x="192.9" y="159.6258">CardBalanceID</text><line style="stroke:#181818;stroke-width:0.3;" x1="176.1" x2="251.1" y1="164.734" y2="164.734"/></g><!--link CafeteriaUser to Role--><g id="link_CafeteriaUser_Role"><path codeLine="15" d="M320.82,170.0002 C320.31,183.1762 319.8011,196.4989 319.3331,208.6009 " fill="none" id="CafeteriaUser-to-Role" style="stroke:#181818;stroke-width:0.6;"/><polygon fill="#181818" points="319.194,212.1982,321.8009,206.895,319.3099,209.2004,317.0045,206.7095,319.194,212.1982" style="stroke:#181818;stroke-width:0.6;"/><text fill="#000000" font-family="sans-serif" font-size="7.8" lengthAdjust="spacing" textLength="4.2" x="314.6457" y="205.5596">1</text></g><!--link CafeteriaUser to MecanographicNumber--><g id="link_CafeteriaUser_MecanographicNumber"><path codeLine="16" d="M348.756,170.0002 C364.224,181.5562 380.648,193.8256 396.092,205.3636 " fill="none" id="CafeteriaUser-to-MecanographicNumber" style="stroke:#181818;stroke-width:0.6;"/><polygon fill="#181818" points="398.976,207.5182,396.0864,202.3636,396.5726,205.7227,393.2135,206.209,398.976,207.5182" style="stroke:#181818;stroke-width:0.6;"/><text fill="#000000" font-family="sans-serif" font-size="7.8" lengthAdjust="spacing" textLength="4.2" x="389.2242" y="200.8427">1</text></g><!--link CardBalance to Money--><g id="link_CardBalance_Money"><path codeLine="32" d="M136.902,67.2982 C121.974,76.8982 104.526,88.9762 90,101.4082 C78.714,111.0622 69.6947,120.6768 61.3607,130.3008 " fill="none" id="CardBalance-to-Money" style="stroke:#181818;stroke-width:0.6;"/><polygon fill="#181818" points="59.004,133.0222,64.3533,130.5112,60.9679,130.7543,60.7247,127.369,59.004,133.0222" style="stroke:#181818;stroke-width:0.6;"/><text fill="#000000" font-family="sans-serif" font-size="7.8" lengthAdjust="spacing" textLength="4.2" x="57.2793" y="126.3891">1</text></g><!--link CardBalance to Calender--><g id="link_CardBalance_Calender"><path codeLine="33" d="M161.76,67.3822 C152.85,88.3042 140.6707,116.8821 133.4767,133.7721 " fill="none" id="CardBalance-to-Calender" style="stroke:#181818;stroke-width:0.6;"/><polygon fill="#181818" points="132.066,137.0842,136.3901,133.0566,133.2416,134.3241,131.974,131.1756,132.066,137.0842" style="stroke:#181818;stroke-width:0.6;"/><text fill="#000000" font-family="sans-serif" font-size="7.8" lengthAdjust="spacing" textLength="4.2" x="128.6785" y="130.2967">1</text></g><!--link CardBalance to CardBalanceID--><g id="link_CardBalance_CardBalanceID"><path codeLine="34" d="M179.04,67.3822 C186.57,85.0702 196.0371,107.2822 203.5671,124.9582 " fill="none" id="CardBalance-to-CardBalanceID" style="stroke:#181818;stroke-width:0.6;"/><polygon fill="#181818" points="204.978,128.2702,205.0696,122.3616,203.8022,125.5102,200.6536,124.2428,204.978,128.2702" style="stroke:#181818;stroke-width:0.6;"/><text fill="#000000" font-family="sans-serif" font-size="7.8" lengthAdjust="spacing" textLength="4.2" x="198.7341" y="121.5855">1</text></g><!--link CardBalance to CafeteriaUser--><g id="link_CardBalance_CafeteriaUser"><path codeLine="37" d="M204.612,66.0862 C222.012,76.0822 243.288,88.8442 261.6,101.4082 C273.72,109.7242 283.809,117.4276 294.519,126.0436 " fill="none" id="CardBalance-to-CafeteriaUser" style="stroke:#181818;stroke-width:0.6;"/><polygon fill="#181818" points="297.324,128.3002,294.6209,123.0454,294.9865,126.4197,291.6121,126.7854,297.324,128.3002" style="stroke:#181818;stroke-width:0.6;"/><text fill="#000000" font-family="sans-serif" font-size="7.8" lengthAdjust="spacing" textLength="42" x="255" y="94.2252">has balance</text><text fill="#000000" font-family="sans-serif" font-size="7.8" lengthAdjust="spacing" textLength="4.2" x="209.4914" y="66.2788">1</text><text fill="#000000" font-family="sans-serif" font-size="7.8" lengthAdjust="spacing" textLength="4.2" x="288.0961" y="121.6213">1</text></g><!--SRC=[ZP71QiCm44Jl-eh5zq1xBSBGffSSqaDBFs0jRsKricIaTS4j-VVA3d4SanZh99Wtcc4K3yOr6B06PJ76P-PWYfPffxpxCBy43w8o9G7L3NU0PpaAqQ0we2R8f4Ij0sbaodFOuXSn1OEVaK86VmBI6Tw-ba1AScouInufW_USBYVwA2QcTsyf0JzeMm9VV9Ew0-v9eVCwO5CPzTRMnP0nyqbfohdzkjPcaqFsc0sv2_ADD75S62MKBsZHAPfFCWfh1zbxHzsgHRPeoPMfz4rj3DwzhjtfqdMSeIzpLpqNM00cBVhzfb0FNC3f9pn1XH6A4oV-0G00]--></g></svg>