<?xml version="1.0" encoding="us-ascii" standalone="no"?><svg xmlns="http://www.w3.org/2000/svg" xmlns:xlink="http://www.w3.org/1999/xlink" contentStyleType="text/css" height="411.5px" preserveAspectRatio="none" style="width:672px;height:411px;background:#FFFFFF;" version="1.1" viewBox="0 0 672 411" width="672px" zoomAndPan="magnify"><defs/><g><polygon fill="#FFFFFF" points="98.25,60.7666,98.25,60.8016,99.25,60.6975,100.25,60.7988,101.25,60.8332,102.25,60.6477,103.25,60.7666,103.2111,60.7666,103.0368,65.8056,103.0583,70.8447,103.2159,75.8837,102.9043,80.9228,103.5268,85.9618,102.9349,91.0009,103.1511,96.0399,103.466,101.079,103.2071,106.118,103.2841,111.1571,103.234,116.1961,103.3393,121.2351,103.3696,126.2742,103.5428,131.3132,103.5855,136.3523,103.5896,141.3913,103.3773,146.4304,103.4818,151.4694,103.6011,156.5085,102.8894,161.5475,103.5893,166.5866,103.1017,171.6256,103.5169,176.6647,103.0025,181.7037,103.2158,186.7427,103.6208,191.7818,103.2256,196.8208,103.3027,201.8599,103.4193,206.8989,103.4581,211.938,103.248,216.977,103.3936,222.0161,102.9638,227.0551,103.3922,232.0942,103.5241,237.1332,103.4723,242.1722,103.5565,247.2113,103.0085,252.2503,102.9239,257.2894,102.9393,262.3284,103.2206,267.3675,103.1517,272.4065,103.5907,277.4456,103.1627,282.4846,103.0785,287.5237,103.3641,292.5627,102.9166,297.6017,102.9904,302.6408,103.5745,307.6798,103.4678,312.7189,103.6172,317.7579,103.0891,322.797,103.4096,327.836,103.5452,332.8751,103.0138,337.9141,103.2021,342.9532,103.313,347.9922,103.25,353.0313,103.25,353.1399,102.25,353.0306,101.25,353.1083,100.25,352.939,99.25,352.9184,98.25,353.0313,98.5018,353.0313,97.8915,347.9922,98.5045,342.9532,98.3533,337.9141,98.116,332.8751,98.0731,327.836,98.4794,322.797,98.1003,317.7579,98.5459,312.7189,97.9736,307.6798,98.5587,302.6408,98.4922,297.6017,98.3725,292.5627,98.2736,287.5237,98.6133,282.4846,98.5568,277.4456,98.3346,272.4065,98.3841,267.3675,98.1849,262.3284,98.6082,257.2894,98.3274,252.2503,98.3363,247.2113,97.9458,242.1722,98.0474,237.1332,98.5154,232.0942,98.4649,227.0551,98.2285,222.0161,98.0889,216.977,98.1405,211.938,97.9069,206.8989,98.4574,201.8599,98.6198,196.8208,98.5132,191.7818,98.5975,186.7427,98.1816,181.7037,98.2936,176.6647,98.0562,171.6256,98.392,166.5866,98.3734,161.5475,98.5262,156.5085,98.1352,151.4694,98.1828,146.4304,98.4717,141.3913,98.5337,136.3523,97.9937,131.3132,98.1531,126.2742,98.3246,121.2351,97.9446,116.1961,98.4267,111.1571,98.379,106.118,98.1996,101.079,98.3211,96.0399,98.6143,91.0009,98.0936,85.9618,98.4075,80.9228,98.3928,75.8837,98.3079,70.8447,98.3205,65.8056,98.25,60.7666" style="stroke:#181818;stroke-width:0.5;"/><polygon fill="#FFFFFF" points="208.25,92.0576,208.25,92.0926,209.25,91.9886,210.25,92.0898,211.25,92.1242,212.25,91.9387,213.25,92.0576,213.2111,92.0576,213.0368,97.0643,213.0583,102.071,213.2159,107.0777,212.9043,112.0844,213.5268,117.0911,212.9349,122.0978,213.1511,127.1045,213.466,132.1112,213.2071,137.1179,213.2841,142.1246,213.234,147.1313,213.3393,152.138,213.3696,157.1447,213.5428,162.1514,213.5855,167.1581,213.5896,172.1648,213.3773,177.1715,213.4818,182.1782,213.6011,187.1848,212.8894,192.1915,213.5893,197.1982,213.1017,202.2049,213.5169,207.2116,213.0025,212.2183,213.2158,217.225,213.6208,222.2317,213.2256,227.2384,213.3027,232.2451,213.4193,237.2518,213.4581,242.2585,213.248,247.2652,213.3936,252.2719,212.9638,257.2786,213.3922,262.2853,213.5241,267.292,213.4723,272.2987,213.5565,277.3054,213.0085,282.3121,212.9239,287.3188,212.9393,292.3255,213.2206,297.3322,213.1517,302.3389,213.5907,307.3456,213.1627,312.3523,213.0785,317.359,213.3641,322.3657,212.9166,327.3723,212.9904,332.379,213.25,337.3857,213.25,337.4939,212.25,337.4584,211.25,337.5082,210.25,337.3321,209.25,337.4389,208.25,337.3857,208.5452,337.3857,208.0138,332.379,208.2021,327.3723,208.313,322.3657,208.5759,317.359,208.2479,312.3523,208.4813,307.3456,207.9731,302.3389,207.9114,297.3322,208.5018,292.3255,207.8915,287.3188,208.5045,282.3121,208.3533,277.3054,208.116,272.2987,208.0731,267.292,208.4794,262.2853,208.1003,257.2786,208.5459,252.2719,207.9736,247.2652,208.5587,242.2585,208.4922,237.2518,208.3725,232.2451,208.2736,227.2384,208.6133,222.2317,208.5568,217.225,208.3346,212.2183,208.3841,207.2116,208.1849,202.2049,208.6082,197.1982,208.3274,192.1915,208.3363,187.1848,207.9458,182.1782,208.0474,177.1715,208.5154,172.1648,208.4649,167.1581,208.2285,162.1514,208.0889,157.1447,208.1405,152.138,207.9069,147.1313,208.4574,142.1246,208.6198,137.1179,208.5132,132.1112,208.5975,127.1045,208.1816,122.0978,208.2936,117.0911,208.0562,112.0844,208.392,107.0777,208.3734,102.071,208.5262,97.0643,208.25,92.0576" style="stroke:#181818;stroke-width:0.5;"/><polygon fill="#FFFFFF" points="307.75,134.9941,307.75,135.0292,308.75,134.9251,309.75,135.0264,310.75,135.0608,311.75,134.8752,312.75,134.9941,312.7111,134.9941,312.5368,139.8929,312.5583,144.7916,312.7159,149.6903,312.4043,154.589,313.0268,159.4877,312.4349,164.3864,312.75,169.2852,312.75,169.2522,311.75,169.3571,310.75,169.2709,309.75,169.2965,308.75,169.2798,307.75,169.2852,307.8393,169.2852,307.8696,164.3864,308.0428,159.4877,308.0855,154.589,308.0896,149.6903,307.8773,144.7916,307.9818,139.8929,307.75,134.9941" style="stroke:#181818;stroke-width:0.5;"/><polygon fill="#FFFFFF" points="384.25,216.2217,384.25,216.2567,385.25,216.1526,386.25,216.2539,387.25,216.2883,388.25,216.1028,389.25,216.2217,389.2111,216.2217,389.0368,221.1702,389.0583,226.1187,389.2159,231.0672,388.9043,236.0157,389.5268,240.9642,388.9349,245.9127,389.1511,250.8612,389.466,255.8097,389.2071,260.7582,389.2841,265.7067,389.234,270.6552,389.3393,275.6037,389.3696,280.5522,389.5428,285.5007,389.25,290.4492,389.25,290.5611,388.25,290.5624,387.25,290.4917,386.25,290.5265,385.25,290.5663,384.25,290.4492,383.8894,290.4492,384.5893,285.5007,384.1017,280.5522,384.5169,275.6037,384.0025,270.6552,384.2158,265.7067,384.6208,260.7582,384.2256,255.8097,384.3027,250.8612,384.4193,245.9127,384.4581,240.9642,384.248,236.0157,384.3936,231.0672,383.9638,226.1187,384.3922,221.1702,384.25,216.2217" style="stroke:#181818;stroke-width:0.5;"/><polygon fill="#FFFFFF" points="458.25,184.9307,458.25,184.9657,459.25,184.8616,460.25,184.9629,461.25,184.9973,462.25,184.8118,463.25,184.9307,463.237,184.9307,463.1789,188.0598,463.1861,191.1889,463.2386,194.318,463.1348,197.4471,463.25,200.5762,463.25,200.6684,462.25,200.4711,461.25,200.5432,460.25,200.6482,459.25,200.5619,458.25,200.5762,458.2614,200.5762,458.2447,197.4471,458.2798,194.318,458.2899,191.1889,458.3476,188.0598,458.25,184.9307" style="stroke:#181818;stroke-width:0.5;"/><polygon fill="#FFFFFF" points="541.25,306.0947,541.25,306.1298,542.25,306.0257,543.25,306.1269,544.25,306.1613,545.25,305.9758,546.25,306.0947,546.237,306.0947,546.1789,309.2238,546.1861,312.3529,546.2386,315.482,546.1348,318.6111,546.25,321.7402,546.25,321.8325,545.25,321.6352,544.25,321.7073,543.25,321.8122,542.25,321.7259,541.25,321.7402,541.2614,321.7402,541.2447,318.6111,541.2798,315.482,541.2899,312.3529,541.3476,309.2238,541.25,306.0947" style="stroke:#181818;stroke-width:0.5;"/><polygon fill="#FFFFFF" points="630,259.1582,630,259.1932,631,259.0891,632,259.1904,633,259.2248,634,259.0393,635,259.1582,634.987,259.1582,634.9289,262.2873,634.9361,265.4164,634.9886,268.5455,634.8848,271.6746,635,274.8037,635,274.896,634,274.6987,633,274.7707,632,274.8757,631,274.7894,630,274.8037,630.0114,274.8037,629.9947,271.6746,630.0298,268.5455,630.0399,265.4164,630.0976,262.2873,630,259.1582" style="stroke:#181818;stroke-width:0.5;"/><path d="M25.5,44.1211 L25.6401,44.1211 L25.2238,49.0884 L25.6289,54.0558 L25.7665,59.0231 L25.0244,63.9905 L25.4482,68.9578 L25.2157,73.9252 L25.2443,78.8925 L25.4546,83.8599 L25.0391,88.8272 L25.8691,93.7946 L25.0798,98.7619 L25.3682,103.7292 L25.788,108.6966 L25.4428,113.6639 L25.5455,118.6313 L25.4787,123.5986 L25.619,128.566 L25.6594,133.5333 L25.8905,138.5007 L25.9474,143.468 L25.9528,148.4354 L25.6698,153.4027 L25.8091,158.3701 L25.9682,163.3374 L25.0192,168.3047 L25.9523,173.2721 L25.3023,178.2394 L25.8559,183.2068 L25.17,188.1741 L25.4543,193.1415 L25.9944,198.1088 L25.4675,203.0762 L25.5702,208.0435 L25.7258,213.0109 L25.7775,217.9782 L25.4974,222.9456 L25.6915,227.9129 L25.1184,232.8802 L25.6896,237.8476 L25.8655,242.8149 L25.7964,247.7823 L25.9087,252.7496 L25.1779,257.717 L25.0652,262.6843 L25.0857,267.6517 L25.4607,272.619 L25.369,277.5864 L25.9543,282.5537 L25.3835,287.5211 L25.2713,292.4884 L25.6522,297.4557 L25.0554,302.4231 L25.1539,307.3904 L25.9326,312.3578 L25.7904,317.3251 L25.9897,322.2925 L25.2855,327.2598 L25.7128,332.2272 L25.8936,337.1945 L25.1851,342.1619 L25.4361,347.1292 L25.584,352.0966 L25.9345,357.0639 L25.5,362.0313 " fill="none" style="stroke:#181818;stroke-width:0.25;stroke-dasharray:5.0,5.0;"/><path d="M100.5,44.1211 L100.6401,44.1211 L100.2238,49.0884 L100.6289,54.0558 L100.7665,59.0231 L100.0244,63.9905 L100.4482,68.9578 L100.2157,73.9252 L100.2443,78.8925 L100.4546,83.8599 L100.0391,88.8272 L100.8691,93.7946 L100.0798,98.7619 L100.3682,103.7292 L100.788,108.6966 L100.4428,113.6639 L100.5455,118.6313 L100.4787,123.5986 L100.619,128.566 L100.6594,133.5333 L100.8905,138.5007 L100.9474,143.468 L100.9528,148.4354 L100.6698,153.4027 L100.8091,158.3701 L100.9682,163.3374 L100.0192,168.3047 L100.9523,173.2721 L100.3023,178.2394 L100.8559,183.2068 L100.17,188.1741 L100.4543,193.1415 L100.9944,198.1088 L100.4675,203.0762 L100.5702,208.0435 L100.7258,213.0109 L100.7775,217.9782 L100.4974,222.9456 L100.6915,227.9129 L100.1184,232.8802 L100.6896,237.8476 L100.8655,242.8149 L100.7964,247.7823 L100.9087,252.7496 L100.1779,257.717 L100.0652,262.6843 L100.0857,267.6517 L100.4607,272.619 L100.369,277.5864 L100.9543,282.5537 L100.3835,287.5211 L100.2713,292.4884 L100.6522,297.4557 L100.0554,302.4231 L100.1539,307.3904 L100.9326,312.3578 L100.7904,317.3251 L100.9897,322.2925 L100.2855,327.2598 L100.7128,332.2272 L100.8936,337.1945 L100.1851,342.1619 L100.4361,347.1292 L100.584,352.0966 L100.9345,357.0639 L100.5,362.0313 " fill="none" style="stroke:#181818;stroke-width:0.25;stroke-dasharray:5.0,5.0;"/><path d="M210.5,44.1211 L210.6401,44.1211 L210.2238,49.0884 L210.6289,54.0558 L210.7665,59.0231 L210.0244,63.9905 L210.4482,68.9578 L210.2157,73.9252 L210.2443,78.8925 L210.4546,83.8599 L210.0391,88.8272 L210.8691,93.7946 L210.0798,98.7619 L210.3682,103.7292 L210.788,108.6966 L210.4428,113.6639 L210.5455,118.6313 L210.4787,123.5986 L210.619,128.566 L210.6594,133.5333 L210.8905,138.5007 L210.9474,143.468 L210.9528,148.4354 L210.6698,153.4027 L210.8091,158.3701 L210.9682,163.3374 L210.0192,168.3047 L210.9523,173.2721 L210.3023,178.2394 L210.8559,183.2068 L210.17,188.1741 L210.4543,193.1415 L210.9944,198.1088 L210.4675,203.0762 L210.5702,208.0435 L210.7258,213.0109 L210.7775,217.9782 L210.4974,222.9456 L210.6915,227.9129 L210.1184,232.8802 L210.6896,237.8476 L210.8655,242.8149 L210.7964,247.7823 L210.9087,252.7496 L210.1779,257.717 L210.0652,262.6843 L210.0857,267.6517 L210.4607,272.619 L210.369,277.5864 L210.9543,282.5537 L210.3835,287.5211 L210.2713,292.4884 L210.6522,297.4557 L210.0554,302.4231 L210.1539,307.3904 L210.9326,312.3578 L210.7904,317.3251 L210.9897,322.2925 L210.2855,327.2598 L210.7128,332.2272 L210.8936,337.1945 L210.1851,342.1619 L210.4361,347.1292 L210.584,352.0966 L210.9345,357.0639 L210.5,362.0313 " fill="none" style="stroke:#181818;stroke-width:0.25;stroke-dasharray:5.0,5.0;"/><path d="M310,44.1211 L310.1401,44.1211 L309.7238,49.0884 L310.1289,54.0558 L310.2665,59.0231 L309.5244,63.9905 L309.9482,68.9578 L309.7157,73.9252 L309.7443,78.8925 L309.9546,83.8599 L309.5391,88.8272 L310.3691,93.7946 L309.5798,98.7619 L309.8682,103.7292 L310.288,108.6966 L309.9428,113.6639 L310.0455,118.6313 L309.9787,123.5986 L310.119,128.566 L310.1594,133.5333 L310.3905,138.5007 L310.4474,143.468 L310.4528,148.4354 L310.1698,153.4027 L310.3091,158.3701 L310.4682,163.3374 L309.5192,168.3047 L310.4523,173.2721 L309.8023,178.2394 L310.3559,183.2068 L309.67,188.1741 L309.9543,193.1415 L310.4944,198.1088 L309.9675,203.0762 L310.0702,208.0435 L310.2258,213.0109 L310.2775,217.9782 L309.9974,222.9456 L310.1915,227.9129 L309.6184,232.8802 L310.1896,237.8476 L310.3655,242.8149 L310.2964,247.7823 L310.4087,252.7496 L309.6779,257.717 L309.5652,262.6843 L309.5857,267.6517 L309.9607,272.619 L309.869,277.5864 L310.4543,282.5537 L309.8835,287.5211 L309.7713,292.4884 L310.1522,297.4557 L309.5554,302.4231 L309.6539,307.3904 L310.4326,312.3578 L310.2904,317.3251 L310.4897,322.2925 L309.7855,327.2598 L310.2128,332.2272 L310.3936,337.1945 L309.6851,342.1619 L309.9361,347.1292 L310.084,352.0966 L310.4345,357.0639 L310,362.0313 " fill="none" style="stroke:#181818;stroke-width:0.25;stroke-dasharray:5.0,5.0;"/><path d="M386.5,44.1211 L386.6401,44.1211 L386.2238,49.0884 L386.6289,54.0558 L386.7665,59.0231 L386.0244,63.9905 L386.4482,68.9578 L386.2157,73.9252 L386.2443,78.8925 L386.4546,83.8599 L386.0391,88.8272 L386.8691,93.7946 L386.0798,98.7619 L386.3682,103.7292 L386.788,108.6966 L386.4428,113.6639 L386.5455,118.6313 L386.4787,123.5986 L386.619,128.566 L386.6594,133.5333 L386.8905,138.5007 L386.9474,143.468 L386.9528,148.4354 L386.6698,153.4027 L386.8091,158.3701 L386.9682,163.3374 L386.0192,168.3047 L386.9523,173.2721 L386.3023,178.2394 L386.8559,183.2068 L386.17,188.1741 L386.4543,193.1415 L386.9944,198.1088 L386.4675,203.0762 L386.5702,208.0435 L386.7258,213.0109 L386.7775,217.9782 L386.4974,222.9456 L386.6915,227.9129 L386.1184,232.8802 L386.6896,237.8476 L386.8655,242.8149 L386.7964,247.7823 L386.9087,252.7496 L386.1779,257.717 L386.0652,262.6843 L386.0857,267.6517 L386.4607,272.619 L386.369,277.5864 L386.9543,282.5537 L386.3835,287.5211 L386.2713,292.4884 L386.6522,297.4557 L386.0554,302.4231 L386.1539,307.3904 L386.9326,312.3578 L386.7904,317.3251 L386.9897,322.2925 L386.2855,327.2598 L386.7128,332.2272 L386.8936,337.1945 L386.1851,342.1619 L386.4361,347.1292 L386.584,352.0966 L386.9345,357.0639 L386.5,362.0313 " fill="none" style="stroke:#181818;stroke-width:0.25;stroke-dasharray:5.0,5.0;"/><path d="M460.5,44.1211 L460.6401,44.1211 L460.2238,49.0884 L460.6289,54.0558 L460.7665,59.0231 L460.0244,63.9905 L460.4482,68.9578 L460.2157,73.9252 L460.2443,78.8925 L460.4546,83.8599 L460.0391,88.8272 L460.8691,93.7946 L460.0798,98.7619 L460.3682,103.7292 L460.788,108.6966 L460.4428,113.6639 L460.5455,118.6313 L460.4787,123.5986 L460.619,128.566 L460.6594,133.5333 L460.8905,138.5007 L460.9474,143.468 L460.9528,148.4354 L460.6698,153.4027 L460.8091,158.3701 L460.9682,163.3374 L460.0192,168.3047 L460.9523,173.2721 L460.3023,178.2394 L460.8559,183.2068 L460.17,188.1741 L460.4543,193.1415 L460.9944,198.1088 L460.4675,203.0762 L460.5702,208.0435 L460.7258,213.0109 L460.7775,217.9782 L460.4974,222.9456 L460.6915,227.9129 L460.1184,232.8802 L460.6896,237.8476 L460.8655,242.8149 L460.7964,247.7823 L460.9087,252.7496 L460.1779,257.717 L460.0652,262.6843 L460.0857,267.6517 L460.4607,272.619 L460.369,277.5864 L460.9543,282.5537 L460.3835,287.5211 L460.2713,292.4884 L460.6522,297.4557 L460.0554,302.4231 L460.1539,307.3904 L460.9326,312.3578 L460.7904,317.3251 L460.9897,322.2925 L460.2855,327.2598 L460.7128,332.2272 L460.8936,337.1945 L460.1851,342.1619 L460.4361,347.1292 L460.584,352.0966 L460.9345,357.0639 L460.5,362.0313 " fill="none" style="stroke:#181818;stroke-width:0.25;stroke-dasharray:5.0,5.0;"/><path d="M543.5,44.1211 L543.6401,44.1211 L543.2238,49.0884 L543.6289,54.0558 L543.7665,59.0231 L543.0244,63.9905 L543.4482,68.9578 L543.2157,73.9252 L543.2443,78.8925 L543.4546,83.8599 L543.0391,88.8272 L543.8691,93.7946 L543.0798,98.7619 L543.3682,103.7292 L543.788,108.6966 L543.4428,113.6639 L543.5455,118.6313 L543.4787,123.5986 L543.619,128.566 L543.6594,133.5333 L543.8905,138.5007 L543.9474,143.468 L543.9528,148.4354 L543.6698,153.4027 L543.8091,158.3701 L543.9682,163.3374 L543.0192,168.3047 L543.9523,173.2721 L543.3023,178.2394 L543.8559,183.2068 L543.17,188.1741 L543.4543,193.1415 L543.9944,198.1088 L543.4675,203.0762 L543.5702,208.0435 L543.7258,213.0109 L543.7775,217.9782 L543.4974,222.9456 L543.6915,227.9129 L543.1184,232.8802 L543.6896,237.8476 L543.8655,242.8149 L543.7964,247.7823 L543.9087,252.7496 L543.1779,257.717 L543.0652,262.6843 L543.0857,267.6517 L543.4607,272.619 L543.369,277.5864 L543.9543,282.5537 L543.3835,287.5211 L543.2713,292.4884 L543.6522,297.4557 L543.0554,302.4231 L543.1539,307.3904 L543.9326,312.3578 L543.7904,317.3251 L543.9897,322.2925 L543.2855,327.2598 L543.7128,332.2272 L543.8936,337.1945 L543.1851,342.1619 L543.4361,347.1292 L543.584,352.0966 L543.9345,357.0639 L543.5,362.0313 " fill="none" style="stroke:#181818;stroke-width:0.25;stroke-dasharray:5.0,5.0;"/><path d="M632.5,44.1211 L632.6401,44.1211 L632.2238,49.0884 L632.6289,54.0558 L632.7665,59.0231 L632.0244,63.9905 L632.4482,68.9578 L632.2157,73.9252 L632.2443,78.8925 L632.4546,83.8599 L632.0391,88.8272 L632.8691,93.7946 L632.0798,98.7619 L632.3682,103.7292 L632.788,108.6966 L632.4428,113.6639 L632.5455,118.6313 L632.4787,123.5986 L632.619,128.566 L632.6594,133.5333 L632.8905,138.5007 L632.9474,143.468 L632.9528,148.4354 L632.6698,153.4027 L632.8091,158.3701 L632.9682,163.3374 L632.0192,168.3047 L632.9523,173.2721 L632.3023,178.2394 L632.8559,183.2068 L632.17,188.1741 L632.4543,193.1415 L632.9944,198.1088 L632.4675,203.0762 L632.5702,208.0435 L632.7258,213.0109 L632.7775,217.9782 L632.4974,222.9456 L632.6915,227.9129 L632.1184,232.8802 L632.6896,237.8476 L632.8655,242.8149 L632.7964,247.7823 L632.9087,252.7496 L632.1779,257.717 L632.0652,262.6843 L632.0857,267.6517 L632.4607,272.619 L632.369,277.5864 L632.9543,282.5537 L632.3835,287.5211 L632.2713,292.4884 L632.6522,297.4557 L632.0554,302.4231 L632.1539,307.3904 L632.9326,312.3578 L632.7904,317.3251 L632.9897,322.2925 L632.2855,327.2598 L632.7128,332.2272 L632.8936,337.1945 L632.1851,342.1619 L632.4361,347.1292 L632.584,352.0966 L632.9345,357.0639 L632.5,362.0313 " fill="none" style="stroke:#181818;stroke-width:0.25;stroke-dasharray:5.0,5.0;"/><text fill="#000000" font-family="FG Virgil" font-size="7" lengthAdjust="spacing" textLength="43.5" x="2.5" y="42.3643">CafeteriaUser</text><polygon fill="#E3E3E3" points="29.7721,10.0335,29.1858,10.8347,28.4923,12.0081,27.5004,12.7989,26.4581,13.2313,25.6271,13.2688,24.559,12.728,23.5512,12.3747,22.7862,11.6573,22.3849,10.8361,22.147,10.1822,21.9138,9.3281,21.5355,8.5931,21.8262,7.8755,22.081,7.0894,23.037,6.4676,23.7096,5.6609,24.5421,5.3931,25.5319,5.1624,26.8011,5.2994,27.4962,5.6273,28.3044,5.7759,29.2872,6.7827,29.6297,7.8456,29.7786,8.5709,29.61,9.766" style="stroke:#181818;stroke-width:0.25;"/><path d="M25.75,13.0605 L25.8434,13.0605 L25.5659,15.7605 L25.8359,18.4605 L25.9276,21.1605 L25.4329,23.8605 L25.75,26.5605 M19.25,17.0605 L19.25,17.026 L21.85,16.871 L24.45,16.8901 L27.05,17.0303 L29.65,16.7533 L32.25,17.0605 M25.75,26.5605 L25.9359,26.7217 L24.2383,27.8771 L23.0836,29.503 L21.9951,31.1863 L20.5212,32.5356 L19.25,34.0605 M25.75,26.5605 L25.7729,26.5804 L27.0393,28.0512 L28.41,29.6125 L29.7303,31.1302 L31.1467,32.731 L32.25,34.0605 " fill="none" style="stroke:#181818;stroke-width:0.25;"/><text fill="#000000" font-family="FG Virgil" font-size="7" lengthAdjust="spacing" textLength="43.5" x="2.5" y="369.085">CafeteriaUser</text><polygon fill="#E3E3E3" points="29.7721,376.0648,29.1858,376.8659,28.4923,378.0393,27.5004,378.8301,26.4581,379.2626,25.6271,379.3001,24.559,378.7593,23.5512,378.4059,22.7862,377.6886,22.3849,376.8674,22.147,376.2134,21.9138,375.3593,21.5355,374.6243,21.8262,373.9067,22.081,373.1206,23.037,372.4989,23.7096,371.6922,24.5421,371.4243,25.5319,371.1936,26.8011,371.3307,27.4962,371.6585,28.3044,371.8071,29.2872,372.814,29.6297,373.8769,29.7786,374.6021,29.61,375.7972" style="stroke:#181818;stroke-width:0.25;"/><path d="M25.75,379.0918 L25.8434,379.0918 L25.5659,381.7918 L25.8359,384.4918 L25.9276,387.1918 L25.4329,389.8918 L25.75,392.5918 M19.25,383.0918 L19.25,383.0573 L21.85,382.9022 L24.45,382.9214 L27.05,383.0615 L29.65,382.7845 L32.25,383.0918 M25.75,392.5918 L25.9359,392.753 L24.2383,393.9083 L23.0836,395.5342 L21.9951,397.2175 L20.5212,398.5668 L19.25,400.0918 M25.75,392.5918 L25.7729,392.6117 L27.0393,394.0825 L28.41,395.6438 L29.7303,397.1614 L31.1467,398.7623 L32.25,400.0918 " fill="none" style="stroke:#181818;stroke-width:0.25;"/><polygon fill="#E3E3E3" points="55.75,18,55.75,18.1051,60.75,17.7928,65.75,18.0966,70.75,18.1998,75.75,17.6433,80.75,17.9611,85.75,17.7868,90.75,17.8083,95.75,17.9659,100.75,17.6543,105.75,18.2768,110.75,17.6849,115.75,17.9011,120.75,18.216,125.75,17.9571,130.75,18.0341,135.75,17.984,140.75,18.0893,145.75,18,145.7653,18.0368,145.9641,18.1634,146.1464,18.2498,146.3237,18.3243,146.4733,18.3321,146.6339,18.3661,146.7053,18.3957,146.8152,18.5877,146.6693,18.6737,146.958,18.9397,146.8811,19.0543,147,19.25,147.2669,19.25,146.7525,23.8742,146.9658,28.4984,147.3708,33.1227,146.9756,37.7469,147,42.3711,147.0162,42.3778,146.9789,42.5695,146.9176,42.7512,146.7797,42.9012,146.7513,43.0965,146.6339,43.255,146.5974,43.1668,146.4752,43.372,146.3153,43.4858,146.1319,43.5431,145.9659,43.6423,145.75,43.6211,145.75,43.3796,140.75,43.295,135.75,43.3104,130.75,43.5917,125.75,43.5228,120.75,43.9618,115.75,43.5338,110.75,43.4496,105.75,43.7352,100.75,43.2877,95.75,43.3615,90.75,43.9456,85.75,43.8389,80.75,43.9883,75.75,43.4602,70.75,43.7807,65.75,43.9163,60.75,43.3849,55.75,43.6211,55.7439,43.6063,55.5813,43.5673,55.438,43.575,55.2194,43.4008,55.0724,43.3994,54.8661,43.255,54.7808,43.2197,54.6886,43.035,54.7972,42.9335,54.5361,42.6789,54.6516,42.5803,54.5,42.3711,54.6033,42.3711,54.366,37.7469,54.3231,33.1227,54.7294,28.4984,54.3503,23.8742,54.5,19.25,54.5911,19.2877,54.4881,19.038,54.7415,18.9358,54.7942,18.7506,54.8306,18.5585,54.8661,18.3661,54.8691,18.3734,55.0892,18.4048,55.2588,18.3141,55.4072,18.1725,55.5903,18.1145,55.75,18" style="stroke:#181818;stroke-width:0.25;"/><text fill="#000000" font-family="FG Virgil" font-size="7" font-style="italic" lengthAdjust="spacing" textLength="47.5" x="77" y="29.0537">&#171;presentation&#187;</text><text fill="#000000" font-family="FG Virgil" font-size="7" lengthAdjust="spacing" textLength="85.5" x="58" y="38.3643">ConsultUserCardBalanceUI</text><polygon fill="#E3E3E3" points="55.75,361.5313,55.75,361.6363,60.75,361.3241,65.75,361.6279,70.75,361.7311,75.75,361.1746,80.75,361.4924,85.75,361.318,90.75,361.3395,95.75,361.4972,100.75,361.1856,105.75,361.8081,110.75,361.2161,115.75,361.4324,120.75,361.7472,125.75,361.4884,130.75,361.5654,135.75,361.5153,140.75,361.6205,145.75,361.5313,145.7653,361.5681,145.9641,361.6947,146.1464,361.781,146.3237,361.8555,146.4733,361.8634,146.6339,361.8974,146.7053,361.9269,146.8152,362.1189,146.6693,362.2049,146.958,362.471,146.8811,362.5856,147,362.7813,147.2669,362.7813,146.7525,367.4055,146.9658,372.0297,147.3708,376.6539,146.9756,381.2781,147,385.9023,147.0162,385.9091,146.9789,386.1007,146.9176,386.2824,146.7797,386.4324,146.7513,386.6278,146.6339,386.7862,146.5974,386.6981,146.4752,386.9032,146.3153,387.0171,146.1319,387.0743,145.9659,387.1735,145.75,387.1523,145.75,386.9108,140.75,386.8263,135.75,386.8416,130.75,387.1229,125.75,387.0541,120.75,387.493,115.75,387.065,110.75,386.9808,105.75,387.2665,100.75,386.8189,95.75,386.8928,90.75,387.4768,85.75,387.3702,80.75,387.5196,75.75,386.9914,70.75,387.3119,65.75,387.4476,60.75,386.9161,55.75,387.1523,55.7439,387.1376,55.5813,387.0985,55.438,387.1063,55.2194,386.932,55.0724,386.9307,54.8661,386.7862,54.7808,386.7509,54.6886,386.5663,54.7972,386.4648,54.5361,386.2102,54.6516,386.1116,54.5,385.9023,54.6033,385.9023,54.366,381.2781,54.3231,376.6539,54.7294,372.0297,54.3503,367.4055,54.5,362.7813,54.5911,362.819,54.4881,362.5692,54.7415,362.4671,54.7942,362.2818,54.8306,362.0898,54.8661,361.8974,54.8691,361.9046,55.0892,361.936,55.2588,361.8454,55.4072,361.7038,55.5903,361.6458,55.75,361.5313" style="stroke:#181818;stroke-width:0.25;"/><text fill="#000000" font-family="FG Virgil" font-size="7" font-style="italic" lengthAdjust="spacing" textLength="47.5" x="77" y="372.585">&#171;presentation&#187;</text><text fill="#000000" font-family="FG Virgil" font-size="7" lengthAdjust="spacing" textLength="85.5" x="58" y="381.8955">ConsultUserCardBalanceUI</text><polygon fill="#E3E3E3" points="153.25,18,153.25,18.1051,158.25,17.7928,163.25,18.0966,168.25,18.1998,173.25,17.6433,178.25,17.9611,183.25,17.7868,188.25,17.8083,193.25,17.9659,198.25,17.6543,203.25,18.2768,208.25,17.6849,213.25,17.9011,218.25,18.216,223.25,17.9571,228.25,18.0341,233.25,17.984,238.25,18.0893,243.25,18.1196,248.25,18.2928,253.25,18.3355,258.25,18.3396,263.25,18.1273,268.25,18,268.2796,18.0714,268.4716,18.1814,268.5576,18.0354,268.8236,18.3241,268.9382,18.2472,269.1339,18.3661,269.2161,18.4002,269.1309,18.5113,269.2698,18.7153,269.4677,18.9437,269.4193,19.0701,269.5,19.25,269.5527,19.25,269.6693,23.8742,269.7081,28.4984,269.498,33.1227,269.6436,37.7469,269.5,42.3711,269.4119,42.3346,269.4706,42.566,269.438,42.7596,269.3488,42.9298,269.3015,43.1173,269.1339,43.255,269.1031,43.1806,268.9155,43.2278,268.7407,43.3057,268.5998,43.4656,268.4142,43.5176,268.25,43.6211,268.25,43.9618,263.25,43.5338,258.25,43.4496,253.25,43.7352,248.25,43.2877,243.25,43.3615,238.25,43.9456,233.25,43.8389,228.25,43.9883,223.25,43.4602,218.25,43.7807,213.25,43.9163,208.25,43.3849,203.25,43.5732,198.25,43.6841,193.25,43.947,188.25,43.619,183.25,43.8524,178.25,43.3442,173.25,43.2825,168.25,43.8729,163.25,43.2626,158.25,43.8756,153.25,43.6211,153.2632,43.6529,153.0561,43.5066,152.8739,43.4202,152.7489,43.4721,152.5238,43.2821,152.3661,43.255,152.4573,43.2927,152.2078,43.0429,152.3147,42.9408,152.221,42.7555,152.1109,42.5635,152,42.3711,152.0236,42.3711,152.3633,37.7469,152.3068,33.1227,152.0846,28.4984,152.1341,23.8742,152,19.25,151.9799,19.2417,152.1835,19.1189,152.1703,18.9063,152.2462,18.7307,152.1992,18.5041,152.3661,18.3661,152.3403,18.3037,152.5767,18.3746,152.7471,18.2858,152.8937,18.1398,153.0527,18.0236,153.25,18" style="stroke:#181818;stroke-width:0.25;"/><text fill="#000000" font-family="FG Virgil" font-size="7" font-style="italic" lengthAdjust="spacing" textLength="42" x="189.75" y="29.0537">&#171;application&#187;</text><text fill="#000000" font-family="FG Virgil" font-size="7" lengthAdjust="spacing" textLength="110.5" x="155.5" y="38.3643">ConsultUserCardBalanceController</text><polygon fill="#E3E3E3" points="153.25,361.5313,153.25,361.6363,158.25,361.3241,163.25,361.6279,168.25,361.7311,173.25,361.1746,178.25,361.4924,183.25,361.318,188.25,361.3395,193.25,361.4972,198.25,361.1856,203.25,361.8081,208.25,361.2161,213.25,361.4324,218.25,361.7472,223.25,361.4884,228.25,361.5654,233.25,361.5153,238.25,361.6205,243.25,361.6508,248.25,361.8241,253.25,361.8668,258.25,361.8709,263.25,361.6586,268.25,361.5313,268.2796,361.6026,268.4716,361.7126,268.5576,361.5666,268.8236,361.8554,268.9382,361.7785,269.1339,361.8974,269.2161,361.9314,269.1309,362.0426,269.2698,362.2466,269.4677,362.475,269.4193,362.6014,269.5,362.7813,269.5527,362.7813,269.6693,367.4055,269.7081,372.0297,269.498,376.6539,269.6436,381.2781,269.5,385.9023,269.4119,385.8658,269.4706,386.0973,269.438,386.2909,269.3488,386.461,269.3015,386.6485,269.1339,386.7862,269.1031,386.7118,268.9155,386.759,268.7407,386.837,268.5998,386.9968,268.4142,387.0489,268.25,387.1523,268.25,387.493,263.25,387.065,258.25,386.9808,253.25,387.2665,248.25,386.8189,243.25,386.8928,238.25,387.4768,233.25,387.3702,228.25,387.5196,223.25,386.9914,218.25,387.3119,213.25,387.4476,208.25,386.9161,203.25,387.1044,198.25,387.2153,193.25,387.4782,188.25,387.1502,183.25,387.3836,178.25,386.8755,173.25,386.8137,168.25,387.4042,163.25,386.7939,158.25,387.4068,153.25,387.1523,153.2632,387.1842,153.0561,387.0379,152.8739,386.9514,152.7489,387.0033,152.5238,386.8134,152.3661,386.7862,152.4573,386.824,152.2078,386.5742,152.3147,386.4721,152.221,386.2868,152.1109,386.0947,152,385.9023,152.0236,385.9023,152.3633,381.2781,152.3068,376.6539,152.0846,372.0297,152.1341,367.4055,152,362.7813,151.9799,362.7729,152.1835,362.6502,152.1703,362.4376,152.2462,362.2619,152.1992,362.0353,152.3661,361.8974,152.3403,361.835,152.5767,361.9059,152.7471,361.8171,152.8937,361.6711,153.0527,361.5549,153.25,361.5313" style="stroke:#181818;stroke-width:0.25;"/><text fill="#000000" font-family="FG Virgil" font-size="7" font-style="italic" lengthAdjust="spacing" textLength="42" x="189.75" y="372.585">&#171;application&#187;</text><text fill="#000000" font-family="FG Virgil" font-size="7" lengthAdjust="spacing" textLength="110.5" x="155.5" y="381.8955">ConsultUserCardBalanceController</text><polygon fill="#E3E3E3" points="275.75,18,275.75,18.1051,280.6786,17.7928,285.6071,18.0966,290.5357,18.1998,295.4643,17.6433,300.3929,17.9611,305.3214,17.7868,310.25,17.8083,315.1786,17.9659,320.1071,17.6543,325.0357,18.2768,329.9643,17.6849,334.8929,17.9011,339.8214,18.216,344.75,18,344.7445,17.9868,344.9311,18.0837,345.1015,18.1415,345.2917,18.2472,345.4724,18.3297,345.6339,18.3661,345.7241,18.4035,345.8104,18.5857,345.8849,18.763,345.8928,18.9127,345.9982,19.1028,346,19.25,346.3511,19.25,345.6394,23.8742,346.3393,28.4984,345.8517,33.1227,346.2669,37.7469,346,42.3711,345.9238,42.3395,345.9162,42.5435,345.9677,42.7719,345.7728,42.8983,345.7233,43.0849,345.6339,43.255,345.6555,43.3071,345.4837,43.3923,345.2801,43.4008,345.1219,43.5189,344.8903,43.4597,344.75,43.6211,344.75,43.7633,339.8214,43.8952,334.8929,43.8434,329.9643,43.9276,325.0357,43.3796,320.1071,43.295,315.1786,43.3104,310.25,43.5917,305.3214,43.5228,300.3929,43.9618,295.4643,43.5338,290.5357,43.4496,285.6071,43.7352,280.6786,43.2877,275.75,43.6211,275.7169,43.5412,275.6146,43.6478,275.4242,43.5417,275.2665,43.5145,275.0224,43.2787,274.8661,43.255,274.9153,43.2753,274.8838,43.1159,274.6469,42.8713,274.6317,42.7185,274.5926,42.5559,274.5,42.3711,274.8259,42.3711,274.4979,37.7469,274.7313,33.1227,274.2231,28.4984,274.1614,23.8742,274.5,19.25,274.5775,19.2821,274.4628,19.0275,274.7248,18.9289,274.7515,18.7328,274.7516,18.5258,274.8661,18.3661,274.8436,18.3116,275.0722,18.3635,275.2006,18.1736,275.4342,18.2376,275.538,17.9881,275.75,18" style="stroke:#181818;stroke-width:0.25;"/><text fill="#000000" font-family="FG Virgil" font-size="7" font-style="italic" lengthAdjust="spacing" textLength="42" x="289.25" y="29.0537">&#171;application&#187;</text><text fill="#000000" font-family="FG Virgil" font-size="7" lengthAdjust="spacing" textLength="64.5" x="278" y="38.3643">AuthorizationService</text><polygon fill="#E3E3E3" points="275.75,361.5313,275.75,361.6363,280.6786,361.3241,285.6071,361.6279,290.5357,361.7311,295.4643,361.1746,300.3929,361.4924,305.3214,361.318,310.25,361.3395,315.1786,361.4972,320.1071,361.1856,325.0357,361.8081,329.9643,361.2161,334.8929,361.4324,339.8214,361.7472,344.75,361.5313,344.7445,361.518,344.9311,361.615,345.1015,361.6728,345.2917,361.7784,345.4724,361.861,345.6339,361.8974,345.7241,361.9347,345.8104,362.1169,345.8849,362.2942,345.8928,362.4439,345.9982,362.634,346,362.7813,346.3511,362.7813,345.6394,367.4055,346.3393,372.0297,345.8517,376.6539,346.2669,381.2781,346,385.9023,345.9238,385.8708,345.9162,386.0748,345.9677,386.3032,345.7728,386.4296,345.7233,386.6162,345.6339,386.7862,345.6555,386.8384,345.4837,386.9235,345.2801,386.9321,345.1219,387.0501,344.8903,386.991,344.75,387.1523,344.75,387.2945,339.8214,387.4264,334.8929,387.3746,329.9643,387.4589,325.0357,386.9108,320.1071,386.8263,315.1786,386.8416,310.25,387.1229,305.3214,387.0541,300.3929,387.493,295.4643,387.065,290.5357,386.9808,285.6071,387.2665,280.6786,386.8189,275.75,387.1523,275.7169,387.0724,275.6146,387.179,275.4242,387.073,275.2665,387.0458,275.0224,386.8099,274.8661,386.7862,274.9153,386.8066,274.8838,386.6471,274.6469,386.4025,274.6317,386.2498,274.5926,386.0872,274.5,385.9023,274.8259,385.9023,274.4979,381.2781,274.7313,376.6539,274.2231,372.0297,274.1614,367.4055,274.5,362.7813,274.5775,362.8134,274.4628,362.5587,274.7248,362.4602,274.7515,362.2641,274.7516,362.0571,274.8661,361.8974,274.8436,361.8429,275.0722,361.8948,275.2006,361.7048,275.4342,361.7688,275.538,361.5194,275.75,361.5313" style="stroke:#181818;stroke-width:0.25;"/><text fill="#000000" font-family="FG Virgil" font-size="7" font-style="italic" lengthAdjust="spacing" textLength="42" x="289.25" y="372.585">&#171;application&#187;</text><text fill="#000000" font-family="FG Virgil" font-size="7" lengthAdjust="spacing" textLength="64.5" x="278" y="381.8955">AuthorizationService</text><polygon fill="#E3E3E3" points="352.25,18,352.25,18.1051,357.1786,17.7928,362.1071,18.0966,367.0357,18.1998,371.9643,17.6433,376.8929,17.9611,381.8214,17.7868,386.75,17.8083,391.6786,17.9659,396.6071,17.6543,401.5357,18.2768,406.4643,17.6849,411.3929,17.9011,416.3214,18.216,421.25,18,421.2445,17.9868,421.4311,18.0837,421.6015,18.1415,421.7917,18.2472,421.9724,18.3297,422.1339,18.3661,422.2241,18.4035,422.3104,18.5857,422.3849,18.763,422.3928,18.9127,422.4982,19.1028,422.5,19.25,422.8511,19.25,422.1394,23.8742,422.8393,28.4984,422.3517,33.1227,422.7669,37.7469,422.5,42.3711,422.4238,42.3395,422.4162,42.5435,422.4677,42.7719,422.2728,42.8983,422.2233,43.0849,422.1339,43.255,422.1555,43.3071,421.9837,43.3923,421.7801,43.4008,421.6219,43.5189,421.3903,43.4597,421.25,43.6211,421.25,43.7633,416.3214,43.8952,411.3929,43.8434,406.4643,43.9276,401.5357,43.3796,396.6071,43.295,391.6786,43.3104,386.75,43.5917,381.8214,43.5228,376.8929,43.9618,371.9643,43.5338,367.0357,43.4496,362.1071,43.7352,357.1786,43.2877,352.25,43.6211,352.2169,43.5412,352.1146,43.6478,351.9242,43.5417,351.7665,43.5145,351.5224,43.2787,351.3661,43.255,351.4153,43.2753,351.3838,43.1159,351.1469,42.8713,351.1317,42.7185,351.0926,42.5559,351,42.3711,351.3259,42.3711,350.9979,37.7469,351.2313,33.1227,350.7231,28.4984,350.6614,23.8742,351,19.25,351.0775,19.2821,350.9628,19.0275,351.2248,18.9289,351.2515,18.7328,351.2516,18.5258,351.3661,18.3661,351.3436,18.3116,351.5722,18.3635,351.7006,18.1736,351.9342,18.2376,352.038,17.9881,352.25,18" style="stroke:#181818;stroke-width:0.25;"/><text fill="#000000" font-family="FG Virgil" font-size="7" font-style="italic" lengthAdjust="spacing" textLength="42" x="365.75" y="29.0537">&#171;application&#187;</text><text fill="#000000" font-family="FG Virgil" font-size="7" lengthAdjust="spacing" textLength="64.5" x="354.5" y="38.3643">CardBalanceService</text><polygon fill="#E3E3E3" points="352.25,361.5313,352.25,361.6363,357.1786,361.3241,362.1071,361.6279,367.0357,361.7311,371.9643,361.1746,376.8929,361.4924,381.8214,361.318,386.75,361.3395,391.6786,361.4972,396.6071,361.1856,401.5357,361.8081,406.4643,361.2161,411.3929,361.4324,416.3214,361.7472,421.25,361.5313,421.2445,361.518,421.4311,361.615,421.6015,361.6728,421.7917,361.7784,421.9724,361.861,422.1339,361.8974,422.2241,361.9347,422.3104,362.1169,422.3849,362.2942,422.3928,362.4439,422.4982,362.634,422.5,362.7813,422.8511,362.7813,422.1394,367.4055,422.8393,372.0297,422.3517,376.6539,422.7669,381.2781,422.5,385.9023,422.4238,385.8708,422.4162,386.0748,422.4677,386.3032,422.2728,386.4296,422.2233,386.6162,422.1339,386.7862,422.1555,386.8384,421.9837,386.9235,421.7801,386.9321,421.6219,387.0501,421.3903,386.991,421.25,387.1523,421.25,387.2945,416.3214,387.4264,411.3929,387.3746,406.4643,387.4589,401.5357,386.9108,396.6071,386.8263,391.6786,386.8416,386.75,387.1229,381.8214,387.0541,376.8929,387.493,371.9643,387.065,367.0357,386.9808,362.1071,387.2665,357.1786,386.8189,352.25,387.1523,352.2169,387.0724,352.1146,387.179,351.9242,387.073,351.7665,387.0458,351.5224,386.8099,351.3661,386.7862,351.4153,386.8066,351.3838,386.6471,351.1469,386.4025,351.1317,386.2498,351.0926,386.0872,351,385.9023,351.3259,385.9023,350.9979,381.2781,351.2313,376.6539,350.7231,372.0297,350.6614,367.4055,351,362.7813,351.0775,362.8134,350.9628,362.5587,351.2248,362.4602,351.2515,362.2641,351.2516,362.0571,351.3661,361.8974,351.3436,361.8429,351.5722,361.8948,351.7006,361.7048,351.9342,361.7688,352.038,361.5194,352.25,361.5313" style="stroke:#181818;stroke-width:0.25;"/><text fill="#000000" font-family="FG Virgil" font-size="7" font-style="italic" lengthAdjust="spacing" textLength="42" x="365.75" y="372.585">&#171;application&#187;</text><text fill="#000000" font-family="FG Virgil" font-size="7" lengthAdjust="spacing" textLength="64.5" x="354.5" y="381.8955">CardBalanceService</text><polygon fill="#E3E3E3" points="428.75,18,428.75,18.1051,433.6731,17.7928,438.5962,18.0966,443.5192,18.1998,448.4423,17.6433,453.3654,17.9611,458.2885,17.7868,463.2115,17.8083,468.1346,17.9659,473.0577,17.6543,477.9808,18.2768,482.9038,17.6849,487.8269,17.9011,492.75,18,492.7775,18.0665,492.9213,18.06,493.1079,18.157,493.2783,18.2148,493.4685,18.3204,493.6339,18.3661,493.6707,18.3814,493.7973,18.5802,493.8837,18.7625,493.9581,18.9398,493.966,19.0895,494,19.25,494.2318,19.25,494.3511,23.8742,493.6394,28.4984,494.3393,33.1227,493.8517,37.7469,494,42.3711,494.0822,42.4051,493.8506,42.5163,493.843,42.7203,493.8945,42.9487,493.6996,43.0751,493.6339,43.255,493.6406,43.2712,493.4787,43.3803,493.3069,43.4655,493.1033,43.474,492.9451,43.5921,492.75,43.6211,492.75,43.3349,487.8269,43.7633,482.9038,43.8952,477.9808,43.8434,473.0577,43.9276,468.1346,43.3796,463.2115,43.295,458.2885,43.3104,453.3654,43.5917,448.4423,43.5228,443.5192,43.9618,438.5962,43.5338,433.6731,43.4496,428.75,43.6211,428.7646,43.6562,428.5307,43.4452,428.3633,43.3947,428.2611,43.5013,428.0707,43.3953,427.8661,43.255,427.9792,43.3018,427.7433,43.0577,427.7688,42.9218,427.7374,42.7623,427.5005,42.5177,427.5,42.3711,427.4521,42.3711,427.563,37.7469,427.8259,33.1227,427.4979,28.4984,427.7313,23.8742,427.5,19.25,427.4147,19.2147,427.4689,19.03,427.724,18.9286,427.6093,18.6739,427.8713,18.5754,427.8661,18.3661,427.8793,18.3979,428.0258,18.2516,428.1971,18.1652,428.4257,18.2171,428.5541,18.0271,428.75,18" style="stroke:#181818;stroke-width:0.25;"/><text fill="#000000" font-family="FG Virgil" font-size="7" font-style="italic" lengthAdjust="spacing" textLength="31" x="445.25" y="29.0537">&#171;domain&#187;</text><text fill="#000000" font-family="FG Virgil" font-size="7" lengthAdjust="spacing" textLength="59.5" x="431" y="38.3643">user:CafeteriaUser</text><polygon fill="#E3E3E3" points="428.75,361.5313,428.75,361.6363,433.6731,361.3241,438.5962,361.6279,443.5192,361.7311,448.4423,361.1746,453.3654,361.4924,458.2885,361.318,463.2115,361.3395,468.1346,361.4972,473.0577,361.1856,477.9808,361.8081,482.9038,361.2161,487.8269,361.4324,492.75,361.5313,492.7775,361.5978,492.9213,361.5913,493.1079,361.6882,493.2783,361.746,493.4685,361.8516,493.6339,361.8974,493.6707,361.9126,493.7973,362.1115,493.8837,362.2937,493.9581,362.471,493.966,362.6207,494,362.7813,494.2318,362.7813,494.3511,367.4055,493.6394,372.0297,494.3393,376.6539,493.8517,381.2781,494,385.9023,494.0822,385.9364,493.8506,386.0475,493.843,386.2515,493.8945,386.48,493.6996,386.6063,493.6339,386.7862,493.6406,386.8024,493.4787,386.9116,493.3069,386.9968,493.1033,387.0053,492.9451,387.1233,492.75,387.1523,492.75,386.8661,487.8269,387.2945,482.9038,387.4264,477.9808,387.3746,473.0577,387.4589,468.1346,386.9108,463.2115,386.8263,458.2885,386.8416,453.3654,387.1229,448.4423,387.0541,443.5192,387.493,438.5962,387.065,433.6731,386.9808,428.75,387.1523,428.7646,387.1875,428.5307,386.9764,428.3633,386.926,428.2611,387.0326,428.0707,386.9265,427.8661,386.7862,427.9792,386.8331,427.7433,386.5889,427.7688,386.453,427.7374,386.2936,427.5005,386.049,427.5,385.9023,427.4521,385.9023,427.563,381.2781,427.8259,376.6539,427.4979,372.0297,427.7313,367.4055,427.5,362.7813,427.4147,362.7459,427.4689,362.5613,427.724,362.4598,427.6093,362.2052,427.8713,362.1066,427.8661,361.8974,427.8793,361.9292,428.0258,361.7829,428.1971,361.6964,428.4257,361.7483,428.5541,361.5584,428.75,361.5313" style="stroke:#181818;stroke-width:0.25;"/><text fill="#000000" font-family="FG Virgil" font-size="7" font-style="italic" lengthAdjust="spacing" textLength="31" x="445.25" y="372.585">&#171;domain&#187;</text><text fill="#000000" font-family="FG Virgil" font-size="7" lengthAdjust="spacing" textLength="59.5" x="431" y="381.8955">user:CafeteriaUser</text><polygon fill="#E3E3E3" points="500.25,18,500.25,18.1051,505.3676,17.7928,510.4853,18.0966,515.6029,18.1998,520.7206,17.6433,525.8382,17.9611,530.9559,17.7868,536.0735,17.8083,541.1912,17.9659,546.3088,17.6543,551.4265,18.2768,556.5441,17.6849,561.6618,17.9011,566.7794,18.216,571.8971,17.9571,577.0147,18.0341,582.1324,17.984,587.25,18,587.2614,18.0275,587.442,18.11,587.6409,18.2366,587.8231,18.323,588.0004,18.3975,588.1339,18.3661,588.1731,18.3824,588.2785,18.5725,588.3885,18.7645,588.2425,18.8504,588.5313,19.1165,588.5,19.25,588.3517,19.25,588.7669,23.8742,588.2525,28.4984,588.4658,33.1227,588.8708,37.7469,588.5,42.3711,588.4925,42.368,588.443,42.5546,588.4057,42.7462,588.3444,42.928,588.2065,43.078,588.1339,43.255,588.1522,43.2992,587.9206,43.2401,587.7985,43.4452,587.6385,43.5591,587.4551,43.6163,587.25,43.6211,587.25,43.9276,582.1324,43.3796,577.0147,43.295,571.8971,43.3104,566.7794,43.5917,561.6618,43.5228,556.5441,43.9618,551.4265,43.5338,546.3088,43.4496,541.1912,43.7352,536.0735,43.2877,530.9559,43.3615,525.8382,43.9456,520.7206,43.8389,515.6029,43.9883,510.4853,43.4602,505.3676,43.7807,500.25,43.6211,500.2877,43.712,500.0431,43.4751,499.8903,43.4599,499.7277,43.4208,499.5845,43.4286,499.3661,43.255,499.3655,43.2547,499.3641,43.1077,499.1344,42.8661,499.0422,42.6815,499.1508,42.58,499,42.3711,498.6415,42.3711,499.2545,37.7469,499.1033,33.1227,498.866,28.4984,498.8231,23.8742,499,19.25,499.0706,19.2793,499.0271,19.0541,499.2376,18.9342,499.1346,18.6844,499.388,18.5823,499.3661,18.3661,499.397,18.4407,499.5585,18.3306,499.7227,18.2269,499.9428,18.2583,500.1124,18.1677,500.25,18" style="stroke:#181818;stroke-width:0.25;"/><text fill="#000000" font-family="FG Virgil" font-size="7" font-style="italic" lengthAdjust="spacing" textLength="31" x="528.25" y="29.0537">&#171;domain&#187;</text><text fill="#000000" font-family="FG Virgil" font-size="7" lengthAdjust="spacing" textLength="82.5" x="502.5" y="38.3643">cardBalance:CardBalance</text><polygon fill="#E3E3E3" points="500.25,361.5313,500.25,361.6363,505.3676,361.3241,510.4853,361.6279,515.6029,361.7311,520.7206,361.1746,525.8382,361.4924,530.9559,361.318,536.0735,361.3395,541.1912,361.4972,546.3088,361.1856,551.4265,361.8081,556.5441,361.2161,561.6618,361.4324,566.7794,361.7472,571.8971,361.4884,577.0147,361.5654,582.1324,361.5153,587.25,361.5313,587.2614,361.5587,587.442,361.6413,587.6409,361.7679,587.8231,361.8542,588.0004,361.9287,588.1339,361.8974,588.1731,361.9136,588.2785,362.1037,588.3885,362.2957,588.2425,362.3817,588.5313,362.6477,588.5,362.7813,588.3517,362.7813,588.7669,367.4055,588.2525,372.0297,588.4658,376.6539,588.8708,381.2781,588.5,385.9023,588.4925,385.8992,588.443,386.0858,588.4057,386.2775,588.3444,386.4592,588.2065,386.6092,588.1339,386.7862,588.1522,386.8305,587.9206,386.7713,587.7985,386.9765,587.6385,387.0903,587.4551,387.1476,587.25,387.1523,587.25,387.4589,582.1324,386.9108,577.0147,386.8263,571.8971,386.8416,566.7794,387.1229,561.6618,387.0541,556.5441,387.493,551.4265,387.065,546.3088,386.9808,541.1912,387.2665,536.0735,386.8189,530.9559,386.8928,525.8382,387.4768,520.7206,387.3702,515.6029,387.5196,510.4853,386.9914,505.3676,387.3119,500.25,387.1523,500.2877,387.2433,500.0431,387.0064,499.8903,386.9911,499.7277,386.9521,499.5845,386.9598,499.3661,386.7862,499.3655,386.786,499.3641,386.639,499.1344,386.3974,499.0422,386.2127,499.1508,386.1112,499,385.9023,498.6415,385.9023,499.2545,381.2781,499.1033,376.6539,498.866,372.0297,498.8231,367.4055,499,362.7813,499.0706,362.8105,499.0271,362.5854,499.2376,362.4654,499.1346,362.2157,499.388,362.1135,499.3661,361.8974,499.397,361.9719,499.5585,361.8619,499.7227,361.7582,499.9428,361.7896,500.1124,361.699,500.25,361.5313" style="stroke:#181818;stroke-width:0.25;"/><text fill="#000000" font-family="FG Virgil" font-size="7" font-style="italic" lengthAdjust="spacing" textLength="31" x="528.25" y="372.585">&#171;domain&#187;</text><text fill="#000000" font-family="FG Virgil" font-size="7" lengthAdjust="spacing" textLength="82.5" x="502.5" y="381.8955">cardBalance:CardBalance</text><text fill="#000000" font-family="FG Virgil" font-size="7" font-style="italic" lengthAdjust="spacing" textLength="39.5" x="611.25" y="33.0537">&#171;repository&#187;</text><text fill="#000000" font-family="FG Virgil" font-size="7" lengthAdjust="spacing" textLength="75" x="593.5" y="42.3643">CardBalanceRepository</text><path d="M623.5,7.5 L623.5,7.5 L623.5326,7.5335 L624.3358,6.559 L625.3299,5.7808 L626.2619,4.9387 L626.9895,3.8863 L628,3.125 L627.9976,3.1079 L628.887,2.9061 L629.7883,2.7906 L630.6979,2.735 L631.5789,2.4728 L632.5,2.5 L632.5,2.5 L632.5169,2.6219 L633.3807,2.4863 L634.294,2.7065 L635.2132,2.9701 L636.0974,2.9811 L637,3.125 L637.0106,3.1359 L637.8951,3.9949 L638.8277,4.9034 L639.737,5.7881 L640.6907,6.7183 L641.5,7.5 L641.7982,7.5 L641.8019,10.1 L641.6132,12.7 L641.706,15.3 L641.8121,17.9 L641.5,20.5 L641.5,20.5 L641.3883,20.3851 L640.7051,21.4831 L639.6541,22.2028 L638.8827,23.2101 L637.8233,23.9211 L637,24.875 L636.9979,24.8599 L636.1227,25.1632 L635.1985,25.1143 L634.3032,25.2732 L633.4104,25.4495 L632.5,25.5 L632.5,25.5 L632.5127,25.5916 L631.5999,25.3741 L630.7088,25.3132 L629.7825,24.999 L628.9087,25.0626 L628,24.875 L628.0849,24.9623 L627.1689,24.0708 L626.295,23.2227 L625.2252,22.173 L624.299,21.2711 L623.5,20.5 L623.2238,20.5 L623.4738,17.9 L623.4127,15.3 L623.8028,12.7 L623.4224,10.1 L623.5,7.5 " fill="#E3E3E3" style="stroke:#181818;stroke-width:0.75;"/><path d="M623.5,7.5 L623.5,7.5 L623.5326,7.5335 L624.3358,8.309 L625.3299,9.2808 L626.2619,10.1887 L626.9895,10.8863 L628,11.875 L627.9976,11.8579 L628.887,11.9061 L629.7883,12.0406 L630.6979,12.235 L631.5789,12.2228 L632.5,12.5 L632.5,12.5 L632.5169,12.6219 L633.3807,12.2363 L634.294,12.2065 L635.2132,12.2201 L636.0974,11.9811 L637,11.875 L637.0106,11.8859 L637.8951,10.9949 L638.8277,10.1534 L639.737,9.2881 L640.6907,8.4683 L641.5,7.5 " fill="none" style="stroke:#181818;stroke-width:0.75;"/><text fill="#000000" font-family="FG Virgil" font-size="7" font-style="italic" lengthAdjust="spacing" textLength="39.5" x="611.25" y="369.085">&#171;repository&#187;</text><text fill="#000000" font-family="FG Virgil" font-size="7" lengthAdjust="spacing" textLength="75" x="593.5" y="378.3955">CardBalanceRepository</text><path d="M623.5,385.1523 L623.5,385.1523 L623.5326,385.1858 L624.3358,384.2113 L625.3299,383.4331 L626.2619,382.591 L626.9895,381.5387 L628,380.7773 L627.9976,380.7602 L628.887,380.5585 L629.7883,380.4429 L630.6979,380.3873 L631.5789,380.1252 L632.5,380.1523 L632.5,380.1523 L632.5169,380.2742 L633.3807,380.1386 L634.294,380.3588 L635.2132,380.6224 L636.0974,380.6335 L637,380.7773 L637.0106,380.7882 L637.8951,381.6473 L638.8277,382.5558 L639.737,383.4404 L640.6907,384.3707 L641.5,385.1523 L641.7982,385.1523 L641.8019,387.7523 L641.6132,390.3523 L641.706,392.9523 L641.8121,395.5523 L641.5,398.1523 L641.5,398.1523 L641.3883,398.0374 L640.7051,399.1355 L639.6541,399.8551 L638.8827,400.8624 L637.8233,401.5735 L637,402.5273 L636.9979,402.5123 L636.1227,402.8156 L635.1985,402.7666 L634.3032,402.9255 L633.4104,403.1019 L632.5,403.1523 L632.5,403.1523 L632.5127,403.244 L631.5999,403.0265 L630.7088,402.9656 L629.7825,402.6513 L628.9087,402.7149 L628,402.5273 L628.0849,402.6147 L627.1689,401.7232 L626.295,400.875 L625.2252,399.8254 L624.299,398.9234 L623.5,398.1523 L623.2238,398.1523 L623.4738,395.5523 L623.4127,392.9523 L623.8028,390.3523 L623.4224,387.7523 L623.5,385.1523 " fill="#E3E3E3" style="stroke:#181818;stroke-width:0.75;"/><path d="M623.5,385.1523 L623.5,385.1523 L623.5326,385.1858 L624.3358,385.9613 L625.3299,386.9331 L626.2619,387.841 L626.9895,388.5387 L628,389.5273 L627.9976,389.5102 L628.887,389.5585 L629.7883,389.6929 L630.6979,389.8873 L631.5789,389.8752 L632.5,390.1523 L632.5,390.1523 L632.5169,390.2742 L633.3807,389.8886 L634.294,389.8588 L635.2132,389.8724 L636.0974,389.6335 L637,389.5273 L637.0106,389.5382 L637.8951,388.6473 L638.8277,387.8058 L639.737,386.9404 L640.6907,386.1207 L641.5,385.1523 " fill="none" style="stroke:#181818;stroke-width:0.75;"/><polygon fill="#FFFFFF" points="98.25,60.7666,98.25,60.8016,99.25,60.6975,100.25,60.7988,101.25,60.8332,102.25,60.6477,103.25,60.7666,103.2111,60.7666,103.0368,65.8056,103.0583,70.8447,103.2159,75.8837,102.9043,80.9228,103.5268,85.9618,102.9349,91.0009,103.1511,96.0399,103.466,101.079,103.2071,106.118,103.2841,111.1571,103.234,116.1961,103.3393,121.2351,103.3696,126.2742,103.5428,131.3132,103.5855,136.3523,103.5896,141.3913,103.3773,146.4304,103.4818,151.4694,103.6011,156.5085,102.8894,161.5475,103.5893,166.5866,103.1017,171.6256,103.5169,176.6647,103.0025,181.7037,103.2158,186.7427,103.6208,191.7818,103.2256,196.8208,103.3027,201.8599,103.4193,206.8989,103.4581,211.938,103.248,216.977,103.3936,222.0161,102.9638,227.0551,103.3922,232.0942,103.5241,237.1332,103.4723,242.1722,103.5565,247.2113,103.0085,252.2503,102.9239,257.2894,102.9393,262.3284,103.2206,267.3675,103.1517,272.4065,103.5907,277.4456,103.1627,282.4846,103.0785,287.5237,103.3641,292.5627,102.9166,297.6017,102.9904,302.6408,103.5745,307.6798,103.4678,312.7189,103.6172,317.7579,103.0891,322.797,103.4096,327.836,103.5452,332.8751,103.0138,337.9141,103.2021,342.9532,103.313,347.9922,103.25,353.0313,103.25,353.1399,102.25,353.0306,101.25,353.1083,100.25,352.939,99.25,352.9184,98.25,353.0313,98.5018,353.0313,97.8915,347.9922,98.5045,342.9532,98.3533,337.9141,98.116,332.8751,98.0731,327.836,98.4794,322.797,98.1003,317.7579,98.5459,312.7189,97.9736,307.6798,98.5587,302.6408,98.4922,297.6017,98.3725,292.5627,98.2736,287.5237,98.6133,282.4846,98.5568,277.4456,98.3346,272.4065,98.3841,267.3675,98.1849,262.3284,98.6082,257.2894,98.3274,252.2503,98.3363,247.2113,97.9458,242.1722,98.0474,237.1332,98.5154,232.0942,98.4649,227.0551,98.2285,222.0161,98.0889,216.977,98.1405,211.938,97.9069,206.8989,98.4574,201.8599,98.6198,196.8208,98.5132,191.7818,98.5975,186.7427,98.1816,181.7037,98.2936,176.6647,98.0562,171.6256,98.392,166.5866,98.3734,161.5475,98.5262,156.5085,98.1352,151.4694,98.1828,146.4304,98.4717,141.3913,98.5337,136.3523,97.9937,131.3132,98.1531,126.2742,98.3246,121.2351,97.9446,116.1961,98.4267,111.1571,98.379,106.118,98.1996,101.079,98.3211,96.0399,98.6143,91.0009,98.0936,85.9618,98.4075,80.9228,98.3928,75.8837,98.3079,70.8447,98.3205,65.8056,98.25,60.7666" style="stroke:#181818;stroke-width:0.5;"/><polygon fill="#FFFFFF" points="208.25,92.0576,208.25,92.0926,209.25,91.9886,210.25,92.0898,211.25,92.1242,212.25,91.9387,213.25,92.0576,213.2111,92.0576,213.0368,97.0643,213.0583,102.071,213.2159,107.0777,212.9043,112.0844,213.5268,117.0911,212.9349,122.0978,213.1511,127.1045,213.466,132.1112,213.2071,137.1179,213.2841,142.1246,213.234,147.1313,213.3393,152.138,213.3696,157.1447,213.5428,162.1514,213.5855,167.1581,213.5896,172.1648,213.3773,177.1715,213.4818,182.1782,213.6011,187.1848,212.8894,192.1915,213.5893,197.1982,213.1017,202.2049,213.5169,207.2116,213.0025,212.2183,213.2158,217.225,213.6208,222.2317,213.2256,227.2384,213.3027,232.2451,213.4193,237.2518,213.4581,242.2585,213.248,247.2652,213.3936,252.2719,212.9638,257.2786,213.3922,262.2853,213.5241,267.292,213.4723,272.2987,213.5565,277.3054,213.0085,282.3121,212.9239,287.3188,212.9393,292.3255,213.2206,297.3322,213.1517,302.3389,213.5907,307.3456,213.1627,312.3523,213.0785,317.359,213.3641,322.3657,212.9166,327.3723,212.9904,332.379,213.25,337.3857,213.25,337.4939,212.25,337.4584,211.25,337.5082,210.25,337.3321,209.25,337.4389,208.25,337.3857,208.5452,337.3857,208.0138,332.379,208.2021,327.3723,208.313,322.3657,208.5759,317.359,208.2479,312.3523,208.4813,307.3456,207.9731,302.3389,207.9114,297.3322,208.5018,292.3255,207.8915,287.3188,208.5045,282.3121,208.3533,277.3054,208.116,272.2987,208.0731,267.292,208.4794,262.2853,208.1003,257.2786,208.5459,252.2719,207.9736,247.2652,208.5587,242.2585,208.4922,237.2518,208.3725,232.2451,208.2736,227.2384,208.6133,222.2317,208.5568,217.225,208.3346,212.2183,208.3841,207.2116,208.1849,202.2049,208.6082,197.1982,208.3274,192.1915,208.3363,187.1848,207.9458,182.1782,208.0474,177.1715,208.5154,172.1648,208.4649,167.1581,208.2285,162.1514,208.0889,157.1447,208.1405,152.138,207.9069,147.1313,208.4574,142.1246,208.6198,137.1179,208.5132,132.1112,208.5975,127.1045,208.1816,122.0978,208.2936,117.0911,208.0562,112.0844,208.392,107.0777,208.3734,102.071,208.5262,97.0643,208.25,92.0576" style="stroke:#181818;stroke-width:0.5;"/><polygon fill="#FFFFFF" points="307.75,134.9941,307.75,135.0292,308.75,134.9251,309.75,135.0264,310.75,135.0608,311.75,134.8752,312.75,134.9941,312.7111,134.9941,312.5368,139.8929,312.5583,144.7916,312.7159,149.6903,312.4043,154.589,313.0268,159.4877,312.4349,164.3864,312.75,169.2852,312.75,169.2522,311.75,169.3571,310.75,169.2709,309.75,169.2965,308.75,169.2798,307.75,169.2852,307.8393,169.2852,307.8696,164.3864,308.0428,159.4877,308.0855,154.589,308.0896,149.6903,307.8773,144.7916,307.9818,139.8929,307.75,134.9941" style="stroke:#181818;stroke-width:0.5;"/><polygon fill="#FFFFFF" points="384.25,216.2217,384.25,216.2567,385.25,216.1526,386.25,216.2539,387.25,216.2883,388.25,216.1028,389.25,216.2217,389.2111,216.2217,389.0368,221.1702,389.0583,226.1187,389.2159,231.0672,388.9043,236.0157,389.5268,240.9642,388.9349,245.9127,389.1511,250.8612,389.466,255.8097,389.2071,260.7582,389.2841,265.7067,389.234,270.6552,389.3393,275.6037,389.3696,280.5522,389.5428,285.5007,389.25,290.4492,389.25,290.5611,388.25,290.5624,387.25,290.4917,386.25,290.5265,385.25,290.5663,384.25,290.4492,383.8894,290.4492,384.5893,285.5007,384.1017,280.5522,384.5169,275.6037,384.0025,270.6552,384.2158,265.7067,384.6208,260.7582,384.2256,255.8097,384.3027,250.8612,384.4193,245.9127,384.4581,240.9642,384.248,236.0157,384.3936,231.0672,383.9638,226.1187,384.3922,221.1702,384.25,216.2217" style="stroke:#181818;stroke-width:0.5;"/><polygon fill="#FFFFFF" points="458.25,184.9307,458.25,184.9657,459.25,184.8616,460.25,184.9629,461.25,184.9973,462.25,184.8118,463.25,184.9307,463.237,184.9307,463.1789,188.0598,463.1861,191.1889,463.2386,194.318,463.1348,197.4471,463.25,200.5762,463.25,200.6684,462.25,200.4711,461.25,200.5432,460.25,200.6482,459.25,200.5619,458.25,200.5762,458.2614,200.5762,458.2447,197.4471,458.2798,194.318,458.2899,191.1889,458.3476,188.0598,458.25,184.9307" style="stroke:#181818;stroke-width:0.5;"/><polygon fill="#FFFFFF" points="541.25,306.0947,541.25,306.1298,542.25,306.0257,543.25,306.1269,544.25,306.1613,545.25,305.9758,546.25,306.0947,546.237,306.0947,546.1789,309.2238,546.1861,312.3529,546.2386,315.482,546.1348,318.6111,546.25,321.7402,546.25,321.8325,545.25,321.6352,544.25,321.7073,543.25,321.8122,542.25,321.7259,541.25,321.7402,541.2614,321.7402,541.2447,318.6111,541.2798,315.482,541.2899,312.3529,541.3476,309.2238,541.25,306.0947" style="stroke:#181818;stroke-width:0.5;"/><polygon fill="#FFFFFF" points="630,259.1582,630,259.1932,631,259.0891,632,259.1904,633,259.2248,634,259.0393,635,259.1582,634.987,259.1582,634.9289,262.2873,634.9361,265.4164,634.9886,268.5455,634.8848,271.6746,635,274.8037,635,274.896,634,274.6987,633,274.7707,632,274.8757,631,274.7894,630,274.8037,630.0114,274.8037,629.9947,271.6746,630.0298,268.5455,630.0399,265.4164,630.0976,262.2873,630,259.1582" style="stroke:#181818;stroke-width:0.5;"/><polygon fill="#181818" points="92.25,58.7666,92.263,58.7991,93.2244,59.1025,94.262,59.5965,95.2747,60.0285,96.2058,60.2562,97.25,60.7666,97.2452,60.7546,96.2236,61.1006,95.2263,61.5073,94.2458,61.9561,93.2072,62.2596,92.25,62.7666,92.3152,62.8318,92.5757,62.2923,93.0267,61.9433,93.5009,61.6175,93.8399,61.1565,94.25,60.7666,94.258,60.7746,93.8462,60.3628,93.471,59.9876,93.0782,59.5948,92.719,59.2356,92.25,58.7666" style="stroke:#181818;stroke-width:0.5;"/><path d="M25.75,60.7666 L25.75,60.9067 L30.7143,60.4904 L35.6786,60.8955 L40.6429,61.0331 L45.6071,60.291 L50.5714,60.7148 L55.5357,60.4823 L60.5,60.5109 L65.4643,60.7212 L70.4286,60.3057 L75.3929,61.1357 L80.3571,60.3464 L85.3214,60.6348 L90.2857,61.0546 L95.25,60.7666 " fill="none" style="stroke:#181818;stroke-width:0.5;stroke-dasharray:2.0,2.0;"/><text fill="#000000" font-family="FG Virgil" font-size="6.5" lengthAdjust="spacing" textLength="63" x="29.25" y="58.1353">Consult Card Balance</text><polygon fill="#181818" points="204.75,74.4121,204.763,74.4446,205.7244,74.748,206.762,75.242,207.7747,75.674,208.7058,75.9017,209.75,76.4121,209.7452,76.4001,208.7236,76.7461,207.7263,77.1528,206.7458,77.6016,205.7072,77.9051,204.75,78.4121,204.8152,78.4774,205.0757,77.9378,205.5267,77.5888,206.0009,77.263,206.3399,76.802,206.75,76.4121,206.758,76.4202,206.3462,76.0083,205.971,75.6331,205.5782,75.2403,205.219,74.8811,204.75,74.4121" style="stroke:#181818;stroke-width:0.5;"/><path d="M103.25,76.4121 L103.25,76.5522 L108.2262,76.1359 L113.2024,76.541 L118.1786,76.6786 L123.1548,75.9365 L128.131,76.3603 L133.1071,76.1278 L138.0833,76.1564 L143.0595,76.3667 L148.0357,75.9512 L153.0119,76.7812 L157.9881,75.9919 L162.9643,76.2803 L167.9405,76.7001 L172.9167,76.3549 L177.8929,76.4576 L182.869,76.3908 L187.8452,76.5311 L192.8214,76.5715 L197.7976,76.8026 L202.7738,76.8595 L207.75,76.4121 " fill="none" style="stroke:#181818;stroke-width:0.5;"/><text fill="#000000" font-family="FG Virgil" font-size="6.5" lengthAdjust="spacing" textLength="18" x="106.75" y="73.7808">create</text><polygon fill="#181818" points="202.25,90.0576,202.263,90.0901,203.2244,90.3935,204.262,90.8875,205.2747,91.3195,206.2058,91.5472,207.25,92.0576,207.2452,92.0456,206.2236,92.3916,205.2263,92.7983,204.2458,93.2471,203.2072,93.5506,202.25,94.0576,202.3152,94.1229,202.5757,93.5833,203.0267,93.2343,203.5009,92.9085,203.8399,92.4475,204.25,92.0576,204.258,92.0657,203.8462,91.6539,203.471,91.2787,203.0782,90.8858,202.719,90.5266,202.25,90.0576" style="stroke:#181818;stroke-width:0.5;"/><path d="M103.25,92.0576 L103.25,92.1977 L108.35,91.7814 L113.45,92.1865 L118.55,92.3241 L123.65,91.582 L128.75,92.0058 L133.85,91.7733 L138.95,91.802 L144.05,92.0122 L149.15,91.5967 L154.25,92.4267 L159.35,91.6374 L164.45,91.9258 L169.55,92.3456 L174.65,92.0004 L179.75,92.1031 L184.85,92.0363 L189.95,92.1766 L195.05,92.217 L200.15,92.4481 L205.25,92.0576 " fill="none" style="stroke:#181818;stroke-width:0.5;"/><text fill="#000000" font-family="FG Virgil" font-size="6.5" lengthAdjust="spacing" textLength="62" x="106.75" y="89.4263">consultCardBalance()</text><path d="M215.5,98.5576 L215.5934,98.5576 L215.3159,102.9576 L215.5859,107.3576 L215.6776,111.7576 L215.1829,116.1576 L215.5,120.5576 L215.5,120.454 L220.5217,119.989 L225.5435,120.0463 L230.5652,120.4667 L235.587,119.6358 L240.6087,121.2958 L245.6304,119.7172 L250.6522,120.2939 L255.6739,121.1335 L260.6957,120.4432 L265.7174,120.6486 L270.7391,120.515 L275.7609,120.7957 L280.7826,120.8765 L285.8043,121.3385 L290.8261,121.4524 L295.8478,121.4633 L300.8696,120.8971 L305.8913,121.1757 L310.913,121.4939 L315.9348,119.596 L320.9565,121.4623 L325.9783,120.1623 L331,120.5576 L331.2372,120.5576 L330.78,117.1576 L330.9696,113.7576 L331.3296,110.3576 L330.9783,106.9576 L331,103.5576 L331.0331,103.5907 L330.1064,102.664 L329.1308,101.6884 L327.9988,100.5564 L327.0903,99.6479 L326,98.5576 L326,97.7944 L320.9773,98.9368 L315.9545,99.2885 L310.9318,99.1503 L305.9091,99.375 L300.8864,97.9135 L295.8636,97.688 L290.8409,97.7291 L285.8182,98.4791 L280.7955,98.2956 L275.7727,99.4662 L270.75,98.3247 L265.7273,98.1002 L260.7045,98.862 L255.6818,97.6685 L250.6591,97.8655 L245.6364,99.4229 L240.6136,99.1385 L235.5909,99.5369 L230.5682,98.1286 L225.5455,98.9832 L220.5227,99.3448 L215.5,98.5576 " fill="#FAFAFA" style="stroke:#181818;stroke-width:0.25;"/><path d="M326,98.5576 L325.79,98.5576 L325.9574,99.5576 L326.056,100.5576 L326.2897,101.5576 L325.9981,102.5576 L326,103.5576 L326,103.7632 L327,103.3115 L328,103.2566 L329,103.7814 L330,103.239 L331,103.5576 L331.16,103.7176 L330.0649,102.6226 L328.9158,101.4734 L327.8888,100.4464 L327.1442,99.7018 L326,98.5576 " fill="#FAFAFA" style="stroke:#181818;stroke-width:0.25;"/><text fill="#000000" font-family="FG Virgil" font-size="6.5" lengthAdjust="spacing" textLength="103" x="218.5" y="108.0718">hidden authorization user guarantee</text><text fill="#000000" font-family="FG Virgil" font-size="6.5" lengthAdjust="spacing" textLength="63.5" x="218.5" y="116.7173">(see specific diagram)</text><polygon fill="#181818" points="301.75,132.9941,301.763,133.0267,302.7244,133.33,303.762,133.8241,304.7747,134.256,305.7058,134.4837,306.75,134.9941,306.7452,134.9821,305.7236,135.3281,304.7263,135.7348,303.7458,136.1836,302.7072,136.4872,301.75,136.9941,301.8152,137.0594,302.0757,136.5199,302.5267,136.1708,303.0009,135.845,303.3399,135.384,303.75,134.9941,303.758,135.0022,303.3462,134.5904,302.971,134.2152,302.5782,133.8223,302.219,133.4632,301.75,132.9941" style="stroke:#181818;stroke-width:0.5;"/><path d="M213.25,134.9941 L213.25,135.1343 L218.3333,134.7179 L223.4167,135.123 L228.5,135.2606 L233.5833,134.5185 L238.6667,134.9423 L243.75,134.7098 L248.8333,134.7385 L253.9167,134.9487 L259,134.5332 L264.0833,135.3632 L269.1667,134.574 L274.25,134.8623 L279.3333,135.2821 L284.4167,134.937 L289.5,135.0396 L294.5833,134.9728 L299.6667,135.1132 L304.75,134.9941 " fill="none" style="stroke:#181818;stroke-width:0.5;"/><text fill="#000000" font-family="FG Virgil" font-size="6.5" lengthAdjust="spacing" textLength="37.5" x="216.75" y="132.3628">currentUser()</text><path d="M315,141.4941 L315.0934,141.4941 L314.8159,144.1941 L315.0859,146.8941 L315.1776,149.5941 L314.6829,152.2941 L315,154.9941 L315,154.8905 L319.9167,154.4255 L324.8333,154.4828 L329.75,154.9033 L334.6667,154.0723 L339.5833,155.7323 L344.5,154.1538 L349.4167,154.7305 L354.3333,155.5701 L359.25,154.8798 L364.1667,155.0851 L369.0833,154.9515 L374,155.2322 L378.9167,155.313 L383.8333,155.7751 L388.75,155.8889 L393.6667,155.8998 L398.5833,155.3336 L403.5,154.9941 L403.706,154.9941 L403.8121,153.2941 L403.1795,151.5941 L403.8016,149.8941 L403.3682,148.1941 L403.5,146.4941 L403.6678,146.6619 L402.3444,145.3386 L401.4785,144.4726 L400.7331,143.7272 L399.4847,142.4788 L398.5,141.4941 L398.5,141.6345 L393.5882,141.9456 L388.6765,142.0491 L383.7647,141.4889 L378.8529,141.8771 L373.9412,140.7309 L369.0294,141.8733 L364.1176,142.2251 L359.2059,142.0869 L354.2941,142.3115 L349.3824,140.85 L344.4706,140.6246 L339.5588,140.6656 L334.6471,141.4156 L329.7353,141.2321 L324.8235,142.4027 L319.9118,141.2612 L315,141.4941 " fill="#FAFAFA" style="stroke:#181818;stroke-width:0.25;"/><path d="M398.5,141.4941 L398.3475,141.4941 L398.6015,142.4941 L398.2036,143.4941 L398.2693,144.4941 L398.7884,145.4941 L398.5,146.4941 L398.5,146.6878 L399.5,146.8206 L400.5,146.3511 L401.5,146.636 L402.5,146.7565 L403.5,146.4941 L403.3515,146.3457 L402.4699,145.464 L401.5396,144.5337 L400.7048,143.699 L399.4987,142.4928 L398.5,141.4941 " fill="#FAFAFA" style="stroke:#181818;stroke-width:0.25;"/><text fill="#000000" font-family="FG Virgil" font-size="6.5" lengthAdjust="spacing" textLength="78" x="318" y="151.0083">Framework implementation</text><polygon fill="#181818" points="218.75,167.2852,218.763,167.3177,217.7244,167.621,216.762,168.1151,215.7747,168.547,214.7058,168.7748,213.75,169.2852,213.7452,169.2731,214.7236,169.6192,215.7263,170.0258,216.7458,170.4746,217.7072,170.7782,218.75,171.2852,218.8152,171.3504,218.2757,170.8109,217.9267,170.4618,217.6009,170.1361,217.1399,169.675,216.75,169.2852,216.758,169.2932,217.1462,168.8814,217.571,168.5062,217.9782,168.1133,218.419,167.7542,218.75,167.2852" style="stroke:#181818;stroke-width:0.5;"/><path d="M215.75,169.2852 L215.75,169.4253 L220.6974,169.0089 L225.6447,169.414 L230.5921,169.5516 L235.5395,168.8096 L240.4868,169.2333 L245.4342,169.0008 L250.3816,169.0295 L255.3289,169.2397 L260.2763,168.8242 L265.2237,169.6543 L270.1711,168.865 L275.1184,169.1533 L280.0658,169.5731 L285.0132,169.228 L289.9605,169.3306 L294.9079,169.2639 L299.8553,169.4042 L304.8026,169.4446 L309.75,169.2852 " fill="none" style="stroke:#181818;stroke-width:0.5;stroke-dasharray:2.0,2.0;"/><text fill="#000000" font-family="FG Virgil" font-size="6.5" lengthAdjust="spacing" textLength="12.5" x="221.75" y="166.6538">user</text><polygon fill="#181818" points="452.25,182.9307,452.263,182.9632,453.2244,183.2665,454.262,183.7606,455.2747,184.1925,456.2058,184.4203,457.25,184.9307,457.2452,184.9186,456.2236,185.2647,455.2263,185.6713,454.2458,186.1201,453.2072,186.4237,452.25,186.9307,452.3152,186.9959,452.5757,186.4564,453.0267,186.1074,453.5009,185.7816,453.8399,185.3206,454.25,184.9307,454.258,184.9387,453.8462,184.5269,453.471,184.1517,453.0782,183.7588,452.719,183.3997,452.25,182.9307" style="stroke:#181818;stroke-width:0.5;"/><path d="M213.25,184.9307 L213.25,185.0708 L218.2917,184.6545 L223.3333,185.0595 L228.375,185.1971 L233.4167,184.4551 L238.4583,184.8789 L243.5,184.6463 L248.5417,184.675 L253.5833,184.8852 L258.625,184.4698 L263.6667,185.2998 L268.7083,184.5105 L273.75,184.7988 L278.7917,185.2186 L283.8333,184.8735 L288.875,184.9762 L293.9167,184.9094 L298.9583,185.0497 L304,185.0901 L309.0417,185.3211 L314.0833,185.378 L319.125,185.3835 L324.1667,185.1004 L329.2083,185.2397 L334.25,185.3988 L339.2917,184.4499 L344.3333,185.383 L349.375,184.733 L354.4167,185.2865 L359.4583,184.6006 L364.5,184.885 L369.5417,185.4251 L374.5833,184.8982 L379.625,185.0009 L384.6667,185.1564 L389.7083,185.2082 L394.75,184.9281 L399.7917,185.1221 L404.8333,184.5491 L409.875,185.1203 L414.9167,185.2961 L419.9583,185.227 L425,185.3393 L430.0417,184.6086 L435.0833,184.4959 L440.125,184.5164 L445.1667,184.8914 L450.2083,184.7996 L455.25,184.9307 " fill="none" style="stroke:#181818;stroke-width:0.5;"/><text fill="#000000" font-family="FG Virgil" font-size="6.5" lengthAdjust="spacing" textLength="25" x="216.75" y="182.2993">identity()</text><polygon fill="#181818" points="218.75,198.5762,218.763,198.6087,217.7244,198.9121,216.762,199.4061,215.7747,199.838,214.7058,200.0658,213.75,200.5762,213.7452,200.5641,214.7236,200.9102,215.7263,201.3168,216.7458,201.7656,217.7072,202.0692,218.75,202.5762,218.8152,202.6414,218.2757,202.1019,217.9267,201.7529,217.6009,201.4271,217.1399,200.9661,216.75,200.5762,216.758,200.5842,217.1462,200.1724,217.571,199.7972,217.9782,199.4044,218.419,199.0452,218.75,198.5762" style="stroke:#181818;stroke-width:0.5;"/><path d="M215.75,200.5762 L215.75,200.7163 L220.7398,200.3 L225.7296,200.705 L230.7194,200.8426 L235.7092,200.1006 L240.699,200.5244 L245.6888,200.2918 L250.6786,200.3205 L255.6684,200.5307 L260.6582,200.1153 L265.648,200.9453 L270.6378,200.156 L275.6276,200.4443 L280.6173,200.8641 L285.6071,200.519 L290.5969,200.6217 L295.5867,200.5549 L300.5765,200.6952 L305.5663,200.7356 L310.5561,200.9666 L315.5459,201.0235 L320.5357,201.029 L325.5255,200.7459 L330.5153,200.8852 L335.5051,201.0443 L340.4949,200.0954 L345.4847,201.0285 L350.4745,200.3785 L355.4643,200.932 L360.4541,200.2462 L365.4439,200.5305 L370.4337,201.0706 L375.4235,200.5437 L380.4133,200.6464 L385.4031,200.8019 L390.3929,200.8537 L395.3827,200.5736 L400.3724,200.7676 L405.3622,200.1946 L410.352,200.7658 L415.3418,200.9416 L420.3316,200.8725 L425.3214,200.9849 L430.3112,200.2541 L435.301,200.1414 L440.2908,200.1619 L445.2806,200.5369 L450.2704,200.4452 L455.2602,201.0304 L460.25,200.5762 " fill="none" style="stroke:#181818;stroke-width:0.5;stroke-dasharray:2.0,2.0;"/><text fill="#000000" font-family="FG Virgil" font-size="6.5" lengthAdjust="spacing" textLength="66.5" x="221.75" y="197.9448">mecanographicNumber</text><polygon fill="#181818" points="378.25,214.2217,378.263,214.2542,379.2244,214.5576,380.262,215.0516,381.2747,215.4835,382.2058,215.7113,383.25,216.2217,383.2452,216.2097,382.2236,216.5557,381.2263,216.9623,380.2458,217.4111,379.2072,217.7147,378.25,218.2217,378.3152,218.2869,378.5757,217.7474,379.0267,217.3984,379.5009,217.0726,379.8399,216.6116,380.25,216.2217,380.258,216.2297,379.8462,215.8179,379.471,215.4427,379.0782,215.0499,378.719,214.6907,378.25,214.2217" style="stroke:#181818;stroke-width:0.5;"/><path d="M213.25,216.2217 L213.25,216.3618 L218.1912,215.9455 L223.1324,216.3505 L228.0735,216.4881 L233.0147,215.7461 L237.9559,216.1699 L242.8971,215.9374 L247.8382,215.966 L252.7794,216.1762 L257.7206,215.7608 L262.6618,216.5908 L267.6029,215.8015 L272.5441,216.0898 L277.4853,216.5096 L282.4265,216.1645 L287.3676,216.2672 L292.3088,216.2004 L297.25,216.3407 L302.1912,216.3811 L307.1324,216.6121 L312.0735,216.669 L317.0147,216.6745 L321.9559,216.3914 L326.8971,216.5307 L331.8382,216.6898 L336.7794,215.7409 L341.7206,216.674 L346.6618,216.024 L351.6029,216.5776 L356.5441,215.8917 L361.4853,216.176 L366.4265,216.7161 L371.3676,216.1892 L376.3088,216.2919 L381.25,216.2217 " fill="none" style="stroke:#181818;stroke-width:0.5;"/><text fill="#000000" font-family="FG Virgil" font-size="6.5" lengthAdjust="spacing" textLength="160.5" x="216.75" y="213.5903">findCardBalanceByMecNumber(mecanographicNumber)</text><path d="M391.5,222.7217 L391.5934,222.7217 L391.3159,227.1217 L391.5859,231.5217 L391.6776,235.9217 L391.1829,240.3217 L391.5,244.7217 L391.5,244.6181 L396.4333,244.153 L401.3667,244.2103 L406.3,244.6308 L411.2333,243.7999 L416.1667,245.4599 L421.1,243.8813 L426.0333,244.458 L430.9667,245.2976 L435.9,244.6073 L440.8333,244.8127 L445.7667,244.6791 L450.7,244.9597 L455.6333,245.0405 L460.5667,245.5026 L465.5,244.7217 L465.7982,244.7217 L465.8019,241.3217 L465.6132,237.9217 L465.706,234.5217 L465.8121,231.1217 L465.5,227.7217 L465.2734,227.495 L464.7132,226.9349 L463.4068,225.6285 L462.6678,224.8894 L461.3444,223.5661 L460.5,222.7217 L460.5,222.6303 L455.5714,223.7105 L450.6429,222.6567 L445.7143,222.8621 L440.7857,223.1732 L435.8571,223.2767 L430.9286,222.7165 L426,223.1046 L421.0714,221.9585 L416.1429,223.1009 L411.2143,223.4526 L406.2857,223.3144 L401.3571,223.539 L396.4286,222.0776 L391.5,222.7217 " fill="#FAFAFA" style="stroke:#181818;stroke-width:0.25;"/><path d="M460.5,222.7217 L460.2101,222.7217 L460.2238,223.7217 L460.4738,224.7217 L460.4127,225.7217 L460.8028,226.7217 L460.5,227.7217 L460.5,227.644 L461.5,227.5692 L462.5,227.8231 L463.5,227.4253 L464.5,227.491 L465.5,227.7217 L465.7039,227.9256 L464.6369,226.8586 L463.7308,225.9525 L462.3989,224.6205 L461.6003,223.822 L460.5,222.7217 " fill="#FAFAFA" style="stroke:#181818;stroke-width:0.25;"/><text fill="#000000" font-family="FG Virgil" font-size="6.5" lengthAdjust="spacing" textLength="63.5" x="394.5" y="232.2358">Simplified persistence</text><text fill="#000000" font-family="FG Virgil" font-size="6.5" lengthAdjust="spacing" textLength="63.5" x="394.5" y="240.8813">(see specific diagram)</text><polygon fill="#181818" points="624,257.1582,624.013,257.1907,624.9744,257.4941,626.012,257.9881,627.0247,258.4201,627.9558,258.6478,629,259.1582,628.9952,259.1462,627.9736,259.4922,626.9763,259.8989,625.9958,260.3477,624.9572,260.6512,624,261.1582,624.0652,261.2235,624.3257,260.6839,624.7767,260.3349,625.2509,260.0091,625.5899,259.5481,626,259.1582,626.008,259.1662,625.5962,258.7544,625.221,258.3792,624.8282,257.9864,624.469,257.6272,624,257.1582" style="stroke:#181818;stroke-width:0.5;"/><path d="M389.25,259.1582 L389.25,259.2983 L394.2031,258.882 L399.1563,259.2871 L404.1094,259.4247 L409.0625,258.6826 L414.0156,259.1064 L418.9688,258.8739 L423.9219,258.9025 L428.875,259.1128 L433.8281,258.6973 L438.7813,259.5273 L443.7344,258.738 L448.6875,259.0264 L453.6406,259.4462 L458.5938,259.101 L463.5469,259.2037 L468.5,259.1369 L473.4531,259.2772 L478.4063,259.3176 L483.3594,259.5487 L488.3125,259.6056 L493.2656,259.611 L498.2188,259.328 L503.1719,259.4673 L508.125,259.6264 L513.0781,258.6774 L518.0313,259.6105 L522.9844,258.9605 L527.9375,259.5141 L532.8906,258.8282 L537.8438,259.1125 L542.7969,259.6526 L547.75,259.1257 L552.7031,259.2284 L557.6563,259.384 L562.6094,259.4357 L567.5625,259.1556 L572.5156,259.3497 L577.4688,258.7766 L582.4219,259.3478 L587.375,259.5237 L592.3281,259.4546 L597.2813,259.5669 L602.2344,258.8361 L607.1875,258.7234 L612.1406,258.7439 L617.0938,259.1189 L622.0469,259.0272 L627,259.1582 " fill="none" style="stroke:#181818;stroke-width:0.5;"/><text fill="#000000" font-family="FG Virgil" font-size="6.5" lengthAdjust="spacing" textLength="155" x="392.75" y="256.5269">findByMecanographicNumber(mecanographicNumber)</text><polygon fill="#181818" points="394.75,272.8037,394.763,272.8362,393.7244,273.1396,392.762,273.6336,391.7747,274.0656,390.7058,274.2933,389.75,274.8037,389.7452,274.7917,390.7236,275.1377,391.7263,275.5444,392.7458,275.9932,393.7072,276.2967,394.75,276.8037,394.8152,276.869,394.2757,276.3294,393.9267,275.9804,393.6009,275.6546,393.1399,275.1936,392.75,274.8037,392.758,274.8118,393.1462,274.3999,393.571,274.0248,393.9782,273.6319,394.419,273.2727,394.75,272.8037" style="stroke:#181818;stroke-width:0.5;"/><path d="M391.75,274.8037 L391.75,274.9438 L396.7552,274.5275 L401.7604,274.9326 L406.7656,275.0702 L411.7708,274.3281 L416.776,274.7519 L421.7813,274.5194 L426.7865,274.548 L431.7917,274.7583 L436.7969,274.3428 L441.8021,275.1728 L446.8073,274.3835 L451.8125,274.6719 L456.8177,275.0917 L461.8229,274.7465 L466.8281,274.8492 L471.8333,274.7824 L476.8385,274.9227 L481.8438,274.9631 L486.849,275.1942 L491.8542,275.2511 L496.8594,275.2565 L501.8646,274.9735 L506.8698,275.1128 L511.875,275.2719 L516.8802,274.3229 L521.8854,275.2561 L526.8906,274.606 L531.8958,275.1596 L536.901,274.4737 L541.9063,274.758 L546.9115,275.2981 L551.9167,274.7712 L556.9219,274.8739 L561.9271,275.0295 L566.9323,275.0812 L571.9375,274.8011 L576.9427,274.9952 L581.9479,274.4221 L586.9531,274.9933 L591.9583,275.1692 L596.9635,275.1001 L601.9688,275.2124 L606.974,274.4817 L611.9792,274.3689 L616.9844,274.3894 L621.9896,274.7645 L626.9948,274.6727 L632,274.8037 " fill="none" style="stroke:#181818;stroke-width:0.5;stroke-dasharray:2.0,2.0;"/><text fill="#000000" font-family="FG Virgil" font-size="6.5" lengthAdjust="spacing" textLength="49.5" x="397.75" y="272.1724">userCardBalance</text><polygon fill="#181818" points="218.75,288.4492,218.763,288.4817,217.7244,288.7851,216.762,289.2791,215.7747,289.7111,214.7058,289.9388,213.75,290.4492,213.7452,290.4372,214.7236,290.7832,215.7263,291.1899,216.7458,291.6387,217.7072,291.9422,218.75,292.4492,218.8152,292.5145,218.2757,291.9749,217.9267,291.6259,217.6009,291.3001,217.1399,290.8391,216.75,290.4492,216.758,290.4573,217.1462,290.0455,217.571,289.6703,217.9782,289.2774,218.419,288.9182,218.75,288.4492" style="stroke:#181818;stroke-width:0.5;"/><path d="M215.75,290.4492 L215.75,290.5893 L220.7647,290.173 L225.7794,290.5781 L230.7941,290.7157 L235.8088,289.9736 L240.8235,290.3974 L245.8382,290.1649 L250.8529,290.1936 L255.8676,290.4038 L260.8824,289.9883 L265.8971,290.8183 L270.9118,290.029 L275.9265,290.3174 L280.9412,290.7372 L285.9559,290.392 L290.9706,290.4947 L295.9853,290.4279 L301,290.5682 L306.0147,290.6086 L311.0294,290.8397 L316.0441,290.8966 L321.0588,290.9021 L326.0735,290.619 L331.0882,290.7583 L336.1029,290.9174 L341.1176,289.9684 L346.1324,290.9016 L351.1471,290.2515 L356.1618,290.8051 L361.1765,290.1192 L366.1912,290.4036 L371.2059,290.9436 L376.2206,290.4167 L381.2353,290.5194 L386.25,290.4492 " fill="none" style="stroke:#181818;stroke-width:0.5;stroke-dasharray:2.0,2.0;"/><text fill="#000000" font-family="FG Virgil" font-size="6.5" lengthAdjust="spacing" textLength="49.5" x="221.75" y="287.8179">userCardBalance</text><polygon fill="#181818" points="535.25,304.0947,535.263,304.1273,536.2244,304.4306,537.262,304.9246,538.2747,305.3566,539.2058,305.5843,540.25,306.0947,540.2452,306.0827,539.2236,306.4287,538.2263,306.8354,537.2458,307.2842,536.2072,307.5877,535.25,308.0947,535.3152,308.16,535.5757,307.6204,536.0267,307.2714,536.5009,306.9456,536.8399,306.4846,537.25,306.0947,537.258,306.1028,536.8462,305.691,536.471,305.3158,536.0782,304.9229,535.719,304.5638,535.25,304.0947" style="stroke:#181818;stroke-width:0.5;"/><path d="M213.25,306.0947 L213.25,306.2348 L218.25,305.8185 L223.25,306.2236 L228.25,306.3612 L233.25,305.6191 L238.25,306.0429 L243.25,305.8104 L248.25,305.8391 L253.25,306.0493 L258.25,305.6338 L263.25,306.4638 L268.25,305.6745 L273.25,305.9629 L278.25,306.3827 L283.25,306.0375 L288.25,306.1402 L293.25,306.0734 L298.25,306.2137 L303.25,306.2541 L308.25,306.4852 L313.25,306.5421 L318.25,306.5476 L323.25,306.2645 L328.25,306.4038 L333.25,306.5629 L338.25,305.6139 L343.25,306.5471 L348.25,305.8971 L353.25,306.4506 L358.25,305.7647 L363.25,306.0491 L368.25,306.5891 L373.25,306.0622 L378.25,306.1649 L383.25,306.3205 L388.25,306.3722 L393.25,306.0921 L398.25,306.2862 L403.25,305.7131 L408.25,306.2843 L413.25,306.4602 L418.25,306.3911 L423.25,306.5034 L428.25,305.7727 L433.25,305.6599 L438.25,305.6805 L443.25,306.0555 L448.25,305.9637 L453.25,306.549 L458.25,305.9783 L463.25,305.866 L468.25,306.2469 L473.25,305.6502 L478.25,305.7486 L483.25,306.5274 L488.25,306.3852 L493.25,306.5844 L498.25,305.8802 L503.25,306.3075 L508.25,306.4883 L513.25,305.7798 L518.25,306.0308 L523.25,306.1787 L528.25,306.5292 L533.25,306.0919 L538.25,306.0947 " fill="none" style="stroke:#181818;stroke-width:0.5;"/><text fill="#000000" font-family="FG Virgil" font-size="6.5" lengthAdjust="spacing" textLength="26.5" x="216.75" y="303.4634">balance()</text><polygon fill="#181818" points="218.75,319.7402,218.763,319.7728,217.7244,320.0761,216.762,320.5701,215.7747,321.0021,214.7058,321.2298,213.75,321.7402,213.7452,321.7282,214.7236,322.0742,215.7263,322.4809,216.7458,322.9297,217.7072,323.2332,218.75,323.7402,218.8152,323.8055,218.2757,323.266,217.9267,322.9169,217.6009,322.5911,217.1399,322.1301,216.75,321.7402,216.758,321.7483,217.1462,321.3365,217.571,320.9613,217.9782,320.5684,218.419,320.2093,218.75,319.7402" style="stroke:#181818;stroke-width:0.5;"/><path d="M215.75,321.7402 L215.75,321.8804 L220.7121,321.464 L225.6742,321.8691 L230.6364,322.0067 L235.5985,321.2646 L240.5606,321.6884 L245.5227,321.4559 L250.4848,321.4846 L255.447,321.6948 L260.4091,321.2793 L265.3712,322.1093 L270.3333,321.32 L275.2955,321.6084 L280.2576,322.0282 L285.2197,321.683 L290.1818,321.7857 L295.1439,321.7189 L300.1061,321.8593 L305.0682,321.8997 L310.0303,322.1307 L314.9924,322.1876 L319.9545,322.1931 L324.9167,321.91 L329.8788,322.0493 L334.8409,322.2084 L339.803,321.2594 L344.7652,322.1926 L349.7273,321.5426 L354.6894,322.0961 L359.6515,321.4102 L364.6136,321.6946 L369.5758,322.2346 L374.5379,321.7077 L379.5,321.8104 L384.4621,321.966 L389.4242,322.0177 L394.3864,321.7376 L399.3485,321.9317 L404.3106,321.3586 L409.2727,321.9298 L414.2348,322.1057 L419.197,322.0366 L424.1591,322.1489 L429.1212,321.4182 L434.0833,321.3054 L439.0455,321.326 L444.0076,321.701 L448.9697,321.6092 L453.9318,322.1945 L458.8939,321.6238 L463.8561,321.5115 L468.8182,321.8924 L473.7803,321.2957 L478.7424,321.3942 L483.7045,322.1729 L488.6667,322.0307 L493.6288,322.2299 L498.5909,321.5257 L503.553,321.953 L508.5152,322.1338 L513.4773,321.4253 L518.4394,321.6763 L523.4015,321.8242 L528.3636,322.1747 L533.3258,321.7374 L538.2879,322.0486 L543.25,321.7402 " fill="none" style="stroke:#181818;stroke-width:0.5;stroke-dasharray:2.0,2.0;"/><text fill="#000000" font-family="FG Virgil" font-size="6.5" lengthAdjust="spacing" textLength="21.5" x="221.75" y="319.1089">amount</text><polygon fill="#181818" points="108.75,335.3857,108.763,335.4183,107.7244,335.7216,106.762,336.2157,105.7747,336.6476,104.7058,336.8753,103.75,337.3857,103.7452,337.3737,104.7236,337.7197,105.7263,338.1264,106.7458,338.5752,107.7072,338.8788,108.75,339.3857,108.8152,339.451,108.2757,338.9115,107.9267,338.5624,107.6009,338.2366,107.1399,337.7756,106.75,337.3857,106.758,337.3938,107.1462,336.982,107.571,336.6068,107.9782,336.2139,108.419,335.8548,108.75,335.3857" style="stroke:#181818;stroke-width:0.5;"/><path d="M105.75,337.3857 L105.75,337.5259 L110.7262,337.1095 L115.7024,337.5146 L120.6786,337.6522 L125.6548,336.9101 L130.631,337.3339 L135.6071,337.1014 L140.5833,337.1301 L145.5595,337.3403 L150.5357,336.9248 L155.5119,337.7548 L160.4881,336.9656 L165.4643,337.2539 L170.4405,337.6737 L175.4167,337.3286 L180.3929,337.4312 L185.369,337.3644 L190.3452,337.5048 L195.3214,337.5452 L200.2976,337.7762 L205.2738,337.8331 L210.25,337.3857 " fill="none" style="stroke:#181818;stroke-width:0.5;stroke-dasharray:2.0,2.0;"/><text fill="#000000" font-family="FG Virgil" font-size="6.5" lengthAdjust="spacing" textLength="21.5" x="111.75" y="334.7544">amount</text><polygon fill="#181818" points="31.25,351.0313,31.263,351.0638,30.2244,351.3671,29.262,351.8612,28.2747,352.2931,27.2058,352.5209,26.25,353.0313,26.2452,353.0192,27.2236,353.3653,28.2263,353.7719,29.2458,354.2207,30.2072,354.5243,31.25,355.0313,31.3152,355.0965,30.7757,354.557,30.4267,354.2079,30.1009,353.8822,29.6399,353.4211,29.25,353.0313,29.258,353.0393,29.6462,352.6275,30.071,352.2523,30.4782,351.8594,30.919,351.5003,31.25,351.0313" style="stroke:#181818;stroke-width:0.5;"/><path d="M28.25,353.0313 L28.25,353.1714 L33.3929,352.755 L38.5357,353.1601 L43.6786,353.2977 L48.8214,352.5557 L53.9643,352.9794 L59.1071,352.7469 L64.25,352.7756 L69.3929,352.9858 L74.5357,352.5703 L79.6786,353.4003 L84.8214,352.6111 L89.9643,352.8994 L95.1071,353.3192 L100.25,353.0313 " fill="none" style="stroke:#181818;stroke-width:0.5;stroke-dasharray:2.0,2.0;"/><text fill="#000000" font-family="FG Virgil" font-size="6.5" lengthAdjust="spacing" textLength="46" x="34.25" y="350.3999">Display Amount</text><!--SRC=[ZLJBRkCm3BpxAuYUsaD-m30Az84kSjWUDiYUziBAJ4p4bWn9Rf7z-gKSFwGapbQ7F2JES4YEv0wiMxJOG8Mw_BBiFMdmjgFCJKUDqKPLrZHqVjAYEk2UDlvO4rXIFZehQOTTxT-CzkyeqBSVy9ljdkienbLOcY_MUzXXxIZBK7bZuGLtvCaoRXrPG0TFOJiJZ6V5BMeFBqOxOGy1BsZBPwnHAzgkGxHy5aLhoP7swDdenyTlO6NNMrFNfupHlwB0jgrPNQDwwdnbBF_jppPaFrbHWAFiRpxLJMoKEq8gsVqVyguJwNdIfRk03Tklfa7M0Y_x7-T8DIVD8m4z_19QeiSFT1Hh_KMjSIppE8voevsYiDCVmMVzu62rUfIXv6FZUpOOwCB8-HCzIKG6icHw4ZxtFmTbISwpfTCJQQJm_g4FdOZdw1D7MDh8WULzvS7iucddK75PoYN0UBHzQs7VYMkr9u8_-jx9bsj9yOuLb8nxCVJ3d22iY5P43vuGnPsrOiqmja7gk2R9GsnAbseUBPR3csIcBsCFm4rRKpFQFaMFyQkaVm8FfIMH9TtMaPOrcou7biPvziUbikROb34oxeMyXXHg8zrjArRlNVEnhFOQVIfsk5qvx5YNaMMUZpzf8B-_ad0kPyerCDsQq7YLSzY4mOXHg8IMh6CdhwoYxvbeP1dKpvVjL4Il_5plxHekwfWvBrD7btiLDx1BNy-baIpHJrMTtUObsZFAfFFfY4SlVYIFGLBpkKUkMYy7R4od_JK9CS6C47nuvI9O18aVeUrQGlkdCOTNTcsDHtWweIB4TlqF]--></g></svg>