<?xml version="1.0" encoding="us-ascii" standalone="no"?><svg xmlns="http://www.w3.org/2000/svg" xmlns:xlink="http://www.w3.org/1999/xlink" contentStyleType="text/css" height="418.6px" preserveAspectRatio="none" style="width:466px;height:418px;background:#FFFFFF;" version="1.1" viewBox="0 0 466 418" width="466.2px" zoomAndPan="magnify"><defs/><g><polygon fill="#FFFFFF" points="92.75,85.0732,92.75,85.1223,94.15,84.9766,95.55,85.1183,96.95,85.1665,98.35,84.9068,99.75,85.0732,99.6956,85.0732,99.4515,92.0634,99.4816,99.0535,99.7023,106.0436,99.266,113.0337,100.1375,120.0239,99.3088,127.014,99.6116,134.0041,100.0524,140.9942,99.69,147.9844,99.7978,154.9745,99.7276,161.9646,99.875,168.9548,99.9174,175.9449,100.16,182.935,100.2197,189.9251,100.2255,196.9153,99.9282,203.9054,100.0745,210.8955,100.2416,217.8856,99.2452,224.8758,100.225,231.8659,99.5424,238.856,100.1237,245.8461,99.4035,252.8363,99.7021,259.8264,100.2691,266.8165,99.7159,273.8066,99.8237,280.7968,99.987,287.7869,100.0414,294.777,99.7473,301.7671,99.951,308.7573,99.3493,315.7474,99.9491,322.7375,100.1337,329.7276,99.75,336.7178,99.75,336.8215,98.35,336.8608,96.95,336.6051,95.55,336.5656,94.15,336.5728,92.75,336.7178,92.7088,336.7178,92.6124,329.7276,93.227,322.7375,92.6277,315.7474,92.5099,308.7573,92.9098,301.7671,92.2832,294.777,92.3866,287.7869,93.2043,280.7968,93.055,273.8066,93.2641,266.8165,92.5247,259.8264,92.9734,252.8363,93.1633,245.8461,92.4193,238.856,92.6829,231.8659,92.8382,224.8758,93.2062,217.8856,92.7471,210.8955,93.0738,203.9054,92.3624,196.9153,92.2759,189.9251,93.1025,182.935,92.2481,175.9449,93.1063,168.9548,92.8946,161.9646,92.5625,154.9745,92.5024,147.9844,93.0711,140.9942,92.5405,134.0041,93.1643,127.014,92.3631,120.0239,93.1822,113.0337,93.089,106.0436,92.9215,99.0535,92.7831,92.0634,92.75,85.0732" style="stroke:#181818;stroke-width:0.6999999999999998;"/><polygon fill="#FFFFFF" points="184.8,128.8807,184.8,128.9297,186.2,128.784,187.6,128.9258,189,128.9739,190.4,128.7142,191.8,128.8807,191.7456,128.8807,191.5015,135.7671,191.5316,142.6535,191.7523,149.5399,191.316,156.4264,192.1875,163.3128,191.3588,170.1992,191.6616,177.0856,192.1024,183.972,191.74,190.8585,191.8478,197.7449,191.7776,204.6313,191.925,211.5177,191.9674,218.4042,192.21,225.2906,192.2697,232.177,192.2755,239.0634,191.9782,245.9498,192.1245,252.8363,192.2916,259.7227,191.2952,266.6091,192.275,273.4955,191.5924,280.382,192.1737,287.2684,191.4535,294.1548,191.7521,301.0412,192.3191,307.9276,191.8,314.8141,191.8,314.8027,190.4,314.8386,189,314.8931,187.6,314.9112,186.2,314.8132,184.8,314.8141,185.001,314.8141,184.3993,307.9276,184.9991,301.0412,185.1837,294.1548,185.1112,287.2684,185.2291,280.382,184.4618,273.4955,184.3435,266.6091,184.365,259.7227,184.7588,252.8363,184.6624,245.9498,185.277,239.0634,184.6777,232.177,184.5599,225.2906,184.9598,218.4042,184.3332,211.5177,184.4366,204.6313,185.2543,197.7449,185.105,190.8585,185.3141,183.972,184.5747,177.0856,185.0234,170.1992,185.2133,163.3128,184.4693,156.4264,184.7329,149.5399,184.8882,142.6535,185.2562,135.7671,184.8,128.8807" style="stroke:#181818;stroke-width:0.6999999999999998;"/><polygon fill="#FFFFFF" points="290.5,188.9918,290.5,189.0408,291.9,188.8951,293.3,189.0369,294.7,189.0851,296.1,188.8253,297.5,188.9918,297.4456,188.9918,297.2015,195.9197,297.2316,202.8476,297.4523,209.7755,297.016,216.7034,297.8875,223.6313,297.0588,230.5592,297.3616,237.4871,297.8024,244.415,297.44,251.3429,297.5478,258.2708,297.4776,265.1987,297.625,272.1266,297.6674,279.0545,297.91,285.9824,297.5,292.9104,297.5,293.0669,296.1,293.0688,294.7,292.9698,293.3,293.0185,291.9,293.0742,290.5,292.9104,289.9952,292.9104,290.975,285.9824,290.2924,279.0545,290.8737,272.1266,290.1535,265.1987,290.4521,258.2708,291.0191,251.3429,290.4659,244.415,290.5737,237.4871,290.737,230.5592,290.7914,223.6313,290.4973,216.7034,290.701,209.7755,290.0993,202.8476,290.6991,195.9197,290.5,188.9918" style="stroke:#181818;stroke-width:0.6999999999999998;"/><polygon fill="#FFFFFF" points="405.65,249.1029,405.65,249.152,407.05,249.0063,408.45,249.148,409.85,249.1962,411.25,248.9365,412.65,249.1029,412.6319,249.1029,412.5505,253.4837,412.5605,257.8644,412.6341,262.2452,412.4887,266.6259,412.65,271.0066,412.65,271.1358,411.25,270.8596,409.85,270.9605,408.45,271.1074,407.05,270.9866,405.65,271.0066,405.6659,271.0066,405.6425,266.6259,405.6917,262.2452,405.7058,257.8644,405.7867,253.4837,405.65,249.1029" style="stroke:#181818;stroke-width:0.6999999999999998;"/><path d="M18.9,61.7695 L19.0962,61.7695 L18.5133,68.7829 L19.0804,75.7963 L19.273,82.8096 L18.2342,89.823 L18.8275,96.8364 L18.5019,103.8498 L18.5421,110.8631 L18.8364,117.8765 L18.2547,124.8899 L19.4167,131.9032 L18.3117,138.9166 L18.7154,145.93 L19.3032,152.9434 L18.8199,159.9567 L18.9637,166.9701 L18.8702,173.9835 L19.0666,180.9969 L19.1232,188.0102 L19.4466,195.0236 L19.5263,202.037 L19.534,209.0503 L19.1377,216.0637 L19.3327,223.0771 L19.5554,230.0905 L18.2269,237.1038 L19.5333,244.1172 L18.6233,251.1306 L19.3982,258.1439 L18.438,265.1573 L18.8361,272.1707 L19.5922,279.1841 L18.8545,286.1974 L18.9983,293.2108 L19.2161,300.2242 L19.2885,307.2375 L18.8964,314.2509 L19.1681,321.2643 L18.3657,328.2777 L19.1654,335.291 L19.4116,342.3044 L18.9,349.3178 " fill="none" style="stroke:#181818;stroke-width:0.3499999999999999;stroke-dasharray:5.0,5.0;"/><path d="M95.9,61.7695 L96.0962,61.7695 L95.5133,68.7829 L96.0804,75.7963 L96.273,82.8096 L95.2342,89.823 L95.8275,96.8364 L95.5019,103.8498 L95.5421,110.8631 L95.8364,117.8765 L95.2547,124.8899 L96.4167,131.9032 L95.3117,138.9166 L95.7154,145.93 L96.3032,152.9434 L95.8199,159.9567 L95.9637,166.9701 L95.8702,173.9835 L96.0666,180.9969 L96.1232,188.0102 L96.4466,195.0236 L96.5263,202.037 L96.534,209.0503 L96.1377,216.0637 L96.3327,223.0771 L96.5554,230.0905 L95.2269,237.1038 L96.5333,244.1172 L95.6233,251.1306 L96.3982,258.1439 L95.438,265.1573 L95.8361,272.1707 L96.5922,279.1841 L95.8545,286.1974 L95.9983,293.2108 L96.2161,300.2242 L96.2885,307.2375 L95.8964,314.2509 L96.1681,321.2643 L95.3657,328.2777 L96.1654,335.291 L96.4116,342.3044 L95.9,349.3178 " fill="none" style="stroke:#181818;stroke-width:0.3499999999999999;stroke-dasharray:5.0,5.0;"/><path d="M188.3,61.7695 L188.4962,61.7695 L187.9133,68.7829 L188.4804,75.7963 L188.673,82.8096 L187.6342,89.823 L188.2275,96.8364 L187.9019,103.8498 L187.9421,110.8631 L188.2364,117.8765 L187.6547,124.8899 L188.8167,131.9032 L187.7117,138.9166 L188.1154,145.93 L188.7032,152.9434 L188.2199,159.9567 L188.3637,166.9701 L188.2702,173.9835 L188.4666,180.9969 L188.5232,188.0102 L188.8466,195.0236 L188.9263,202.037 L188.934,209.0503 L188.5377,216.0637 L188.7327,223.0771 L188.9554,230.0905 L187.6269,237.1038 L188.9333,244.1172 L188.0233,251.1306 L188.7982,258.1439 L187.838,265.1573 L188.2361,272.1707 L188.9922,279.1841 L188.2545,286.1974 L188.3983,293.2108 L188.6161,300.2242 L188.6885,307.2375 L188.2964,314.2509 L188.5681,321.2643 L187.7657,328.2777 L188.5654,335.291 L188.8116,342.3044 L188.3,349.3178 " fill="none" style="stroke:#181818;stroke-width:0.3499999999999999;stroke-dasharray:5.0,5.0;"/><path d="M294,61.7695 L294.1962,61.7695 L293.6133,68.7829 L294.1804,75.7963 L294.373,82.8096 L293.3342,89.823 L293.9275,96.8364 L293.6019,103.8498 L293.6421,110.8631 L293.9364,117.8765 L293.3547,124.8899 L294.5167,131.9032 L293.4117,138.9166 L293.8154,145.93 L294.4032,152.9434 L293.9199,159.9567 L294.0637,166.9701 L293.9702,173.9835 L294.1666,180.9969 L294.2232,188.0102 L294.5466,195.0236 L294.6263,202.037 L294.634,209.0503 L294.2377,216.0637 L294.4327,223.0771 L294.6554,230.0905 L293.3269,237.1038 L294.6333,244.1172 L293.7233,251.1306 L294.4982,258.1439 L293.538,265.1573 L293.9361,272.1707 L294.6922,279.1841 L293.9545,286.1974 L294.0983,293.2108 L294.3161,300.2242 L294.3885,307.2375 L293.9964,314.2509 L294.2681,321.2643 L293.4657,328.2777 L294.2654,335.291 L294.5116,342.3044 L294,349.3178 " fill="none" style="stroke:#181818;stroke-width:0.3499999999999999;stroke-dasharray:5.0,5.0;"/><path d="M408.8,61.7695 L408.9962,61.7695 L408.4133,68.7829 L408.9804,75.7963 L409.173,82.8096 L408.1342,89.823 L408.7275,96.8364 L408.4019,103.8498 L408.4421,110.8631 L408.7364,117.8765 L408.1547,124.8899 L409.3167,131.9032 L408.2117,138.9166 L408.6154,145.93 L409.2032,152.9434 L408.7199,159.9567 L408.8637,166.9701 L408.7702,173.9835 L408.9666,180.9969 L409.0232,188.0102 L409.3466,195.0236 L409.4263,202.037 L409.434,209.0503 L409.0377,216.0637 L409.2327,223.0771 L409.4554,230.0905 L408.1269,237.1038 L409.4333,244.1172 L408.5233,251.1306 L409.2982,258.1439 L408.338,265.1573 L408.7361,272.1707 L409.4922,279.1841 L408.7545,286.1974 L408.8983,293.2108 L409.1161,300.2242 L409.1885,307.2375 L408.7964,314.2509 L409.0681,321.2643 L408.2657,328.2777 L409.0654,335.291 L409.3116,342.3044 L408.8,349.3178 " fill="none" style="stroke:#181818;stroke-width:0.3499999999999999;stroke-dasharray:5.0,5.0;"/><text fill="#000000" font-family="FG Virgil" font-size="9.8" lengthAdjust="spacing" textLength="27.3" x="3.5" y="59.31">Admin</text><polygon fill="#E3E3E3" points="24.8809,14.0469,24.0601,15.1685,23.0892,16.8113,21.7006,17.9184,20.2414,18.5238,19.0779,18.5764,17.5826,17.8192,16.1716,17.3246,15.1007,16.3203,14.5389,15.1705,14.2058,14.2551,13.8794,13.0593,13.3496,12.0303,13.7567,11.0256,14.1134,9.9251,15.4518,9.0547,16.3935,7.9253,17.559,7.5503,18.9446,7.2273,20.7215,7.4192,21.6947,7.8782,22.8262,8.0862,24.202,9.4958,24.6816,10.9839,24.89,11.9992,24.654,13.6723" style="stroke:#181818;stroke-width:0.3499999999999999;"/><path d="M19.25,18.2848 L19.3808,18.2848 L18.9922,22.0648 L19.3703,25.8448 L19.4987,29.6248 L18.8061,33.4048 L19.25,37.1848 M10.15,23.8848 L10.15,23.8364 L13.79,23.6194 L17.43,23.6461 L21.07,23.8424 L24.71,23.4546 L28.35,23.8848 M19.25,37.1848 L19.5103,37.4104 L17.1336,39.0279 L15.517,41.3042 L13.9931,43.6608 L11.9297,45.5498 L10.15,47.6848 M19.25,37.1848 L19.2821,37.2126 L21.055,39.2717 L22.9739,41.4575 L24.8224,43.5822 L26.8054,45.8234 L28.35,47.6848 " fill="none" style="stroke:#181818;stroke-width:0.3499999999999999;"/><text fill="#000000" font-family="FG Virgil" font-size="9.8" lengthAdjust="spacing" textLength="27.3" x="3.5" y="359.193">Admin</text><polygon fill="#E3E3E3" points="24.8809,368.9647,24.0601,370.0863,23.0892,371.7291,21.7006,372.8362,20.2414,373.4416,19.0779,373.4942,17.5826,372.737,16.1716,372.2424,15.1007,371.238,14.5389,370.0883,14.2058,369.1728,13.8794,367.9771,13.3496,366.9481,13.7567,365.9434,14.1134,364.8429,15.4518,363.9725,16.3935,362.8431,17.559,362.4681,18.9446,362.1451,20.7215,362.337,21.6947,362.796,22.8262,363.004,24.202,364.4136,24.6816,365.9016,24.89,366.917,24.654,368.5901" style="stroke:#181818;stroke-width:0.3499999999999999;"/><path d="M19.25,373.2025 L19.3808,373.2025 L18.9922,376.9825 L19.3703,380.7625 L19.4987,384.5425 L18.8061,388.3225 L19.25,392.1025 M10.15,378.8025 L10.15,378.7542 L13.79,378.5372 L17.43,378.5639 L21.07,378.7601 L24.71,378.3724 L28.35,378.8025 M19.25,392.1025 L19.5103,392.3282 L17.1336,393.9457 L15.517,396.2219 L13.9931,398.5786 L11.9297,400.4676 L10.15,402.6025 M19.25,392.1025 L19.2821,392.1303 L21.055,394.1895 L22.9739,396.3753 L24.8224,398.5 L26.8054,400.7412 L28.35,402.6025 " fill="none" style="stroke:#181818;stroke-width:0.3499999999999999;"/><polygon fill="#E3E3E3" points="59.85,25.2,59.85,25.3471,67.13,24.91,74.41,25.3353,81.69,25.4798,88.97,24.7006,96.25,25.1456,103.53,24.9015,110.81,24.9316,118.09,25.1523,125.37,24.716,132.65,25.2,132.6994,25.3193,132.8412,25.1666,133.1273,25.3624,133.431,25.6007,133.6323,25.5916,133.8874,25.7126,133.9021,25.7187,133.9831,25.9572,134.1309,26.2235,134.2465,26.4764,134.4237,26.7548,134.4,26.95,134.8697,26.95,134.8755,33.4239,134.5782,39.8978,134.7245,46.3717,134.8916,52.8456,134.4,59.3195,134.2445,59.2551,134.4438,59.6276,134.1311,59.788,134.2075,60.1097,133.8832,60.2653,133.8874,60.557,133.8813,60.5422,133.7062,60.8194,133.3881,60.7515,133.1544,60.8872,132.9277,61.04,132.65,61.0695,132.65,61.3609,125.37,61.0668,118.09,61.2706,110.81,60.6688,103.53,61.2686,96.25,61.4533,88.97,61.3807,81.69,61.4986,74.41,60.7314,67.13,60.613,59.85,61.0695,59.7945,60.9356,59.5973,60.9543,59.3375,60.8221,59.1684,60.9089,58.8445,60.6218,58.6126,60.557,58.5386,60.5263,58.5593,60.3299,58.2638,60.0024,58.1931,59.7682,58.3424,59.625,58.1,59.3195,58.405,59.3195,58.6141,52.8456,57.8747,46.3717,58.3234,39.8978,58.5133,33.4239,58.1,26.95,57.9982,26.9078,58.1818,26.694,58.3322,26.4663,58.548,26.2657,58.5091,25.9597,58.6126,25.7126,58.6539,25.8123,58.8106,25.4907,59.0471,25.3615,59.4,25.5136,59.5385,25.148,59.85,25.2" style="stroke:#181818;stroke-width:0.3499999999999999;"/><text fill="#000000" font-family="FG Virgil" font-size="9.8" font-style="italic" lengthAdjust="spacing" textLength="66.5" x="63" y="40.6752">&#171;presentation&#187;</text><text fill="#000000" font-family="FG Virgil" font-size="9.8" lengthAdjust="spacing" textLength="49" x="71.75" y="53.71">ListUsersUI</text><polygon fill="#E3E3E3" points="59.85,348.6178,59.85,348.7649,67.13,348.3277,74.41,348.7531,81.69,348.8975,88.97,348.1184,96.25,348.5634,103.53,348.3192,110.81,348.3493,118.09,348.5701,125.37,348.1338,132.65,348.6178,132.6994,348.7371,132.8412,348.5844,133.1273,348.7802,133.431,349.0184,133.6323,349.0093,133.8874,349.1303,133.9021,349.1364,133.9831,349.375,134.1309,349.6413,134.2465,349.8942,134.4237,350.1726,134.4,350.3678,134.8697,350.3678,134.8755,356.8417,134.5782,363.3156,134.7245,369.7895,134.8916,376.2634,134.4,382.7373,134.2445,382.6729,134.4438,383.0454,134.1311,383.2058,134.2075,383.5274,133.8832,383.6831,133.8874,383.9747,133.8813,383.96,133.7062,384.2371,133.3881,384.1693,133.1544,384.305,132.9277,384.4578,132.65,384.4873,132.65,384.7787,125.37,384.4846,118.09,384.6884,110.81,384.0866,103.53,384.6864,96.25,384.871,88.97,384.7985,81.69,384.9164,74.41,384.1491,67.13,384.0308,59.85,384.4873,59.7945,384.3533,59.5973,384.3721,59.3375,384.2399,59.1684,384.3267,58.8445,384.0396,58.6126,383.9747,58.5386,383.9441,58.5593,383.7476,58.2638,383.4202,58.1931,383.1859,58.3424,383.0427,58.1,382.7373,58.405,382.7373,58.6141,376.2634,57.8747,369.7895,58.3234,363.3156,58.5133,356.8417,58.1,350.3678,57.9982,350.3256,58.1818,350.1117,58.3322,349.884,58.548,349.6835,58.5091,349.3774,58.6126,349.1303,58.6539,349.2301,58.8106,348.9084,59.0471,348.7793,59.4,348.9314,59.5385,348.5657,59.85,348.6178" style="stroke:#181818;stroke-width:0.3499999999999999;"/><text fill="#000000" font-family="FG Virgil" font-size="9.8" font-style="italic" lengthAdjust="spacing" textLength="66.5" x="63" y="364.093">&#171;presentation&#187;</text><text fill="#000000" font-family="FG Virgil" font-size="9.8" lengthAdjust="spacing" textLength="49" x="71.75" y="377.1277">ListUsersUI</text><polygon fill="#E3E3E3" points="143.15,25.2,143.15,25.3471,150.0962,24.91,157.0423,25.3353,163.9885,25.4798,170.9346,24.7006,177.8808,25.1456,184.8269,24.9015,191.7731,24.9316,198.7192,25.1523,205.6654,24.716,212.6115,25.5875,219.5577,24.7588,226.5038,25.0616,233.45,25.2,233.4886,25.2931,233.6898,25.284,233.9511,25.4197,234.1896,25.5007,234.4559,25.6485,234.6874,25.7126,234.739,25.7339,234.9162,26.0123,235.0371,26.2675,235.1414,26.5157,235.1524,26.7252,235.2,26.95,235.5245,26.95,235.6916,33.4239,234.6952,39.8978,235.675,46.3717,234.9924,52.8456,235.2,59.3195,235.3151,59.3672,234.9908,59.5228,234.9802,59.8084,235.0523,60.1282,234.7794,60.3051,234.6874,60.557,234.6968,60.5797,234.4702,60.7325,234.2296,60.8517,233.9446,60.8637,233.7231,61.0289,233.45,61.0695,233.45,60.6688,226.5038,61.2686,219.5577,61.4533,212.6115,61.3807,205.6654,61.4986,198.7192,60.7314,191.7731,60.613,184.8269,60.6346,177.8808,61.0283,170.9346,60.932,163.9885,61.5465,157.0423,60.9473,150.0962,60.8294,143.15,61.0695,143.1704,61.1187,142.843,60.8233,142.6087,60.7526,142.4655,60.9019,142.199,60.7534,141.9126,60.557,142.0709,60.6226,141.7407,60.2807,141.7763,60.0905,141.7323,59.8672,141.4007,59.5248,141.4,59.3195,141.3329,59.3195,141.4882,52.8456,141.8562,46.3717,141.3971,39.8978,141.7238,33.4239,141.4,26.95,141.2806,26.9006,141.3565,26.642,141.7136,26.5,141.553,26.1435,141.9198,26.0055,141.9126,25.7126,141.931,25.7571,142.1361,25.5523,142.3759,25.4313,142.696,25.5039,142.8758,25.238,143.15,25.2" style="stroke:#181818;stroke-width:0.3499999999999999;"/><text fill="#000000" font-family="FG Virgil" font-size="9.8" font-style="italic" lengthAdjust="spacing" textLength="58.8" x="158.9" y="40.6752">&#171;application&#187;</text><text fill="#000000" font-family="FG Virgil" font-size="9.8" lengthAdjust="spacing" textLength="84" x="146.3" y="53.71">ListUsersController</text><polygon fill="#E3E3E3" points="143.15,348.6178,143.15,348.7649,150.0962,348.3277,157.0423,348.7531,163.9885,348.8975,170.9346,348.1184,177.8808,348.5634,184.8269,348.3192,191.7731,348.3493,198.7192,348.5701,205.6654,348.1338,212.6115,349.0053,219.5577,348.1766,226.5038,348.4793,233.45,348.6178,233.4886,348.7109,233.6898,348.7018,233.9511,348.8375,234.1896,348.9184,234.4559,349.0663,234.6874,349.1303,234.739,349.1517,234.9162,349.4301,235.0371,349.6852,235.1414,349.9335,235.1524,350.143,235.2,350.3678,235.5245,350.3678,235.6916,356.8417,234.6952,363.3156,235.675,369.7895,234.9924,376.2634,235.2,382.7373,235.3151,382.785,234.9908,382.9406,234.9802,383.2262,235.0523,383.546,234.7794,383.7229,234.6874,383.9747,234.6968,383.9974,234.4702,384.1503,234.2296,384.2695,233.9446,384.2814,233.7231,384.4467,233.45,384.4873,233.45,384.0866,226.5038,384.6864,219.5577,384.871,212.6115,384.7985,205.6654,384.9164,198.7192,384.1491,191.7731,384.0308,184.8269,384.0523,177.8808,384.4461,170.9346,384.3497,163.9885,384.9643,157.0423,384.365,150.0962,384.2472,143.15,384.4873,143.1704,384.5365,142.843,384.241,142.6087,384.1704,142.4655,384.3197,142.199,384.1712,141.9126,383.9747,142.0709,384.0403,141.7407,383.6985,141.7763,383.5083,141.7323,383.285,141.4007,382.9426,141.4,382.7373,141.3329,382.7373,141.4882,376.2634,141.8562,369.7895,141.3971,363.3156,141.7238,356.8417,141.4,350.3678,141.2806,350.3183,141.3565,350.0598,141.7136,349.9178,141.553,349.5613,141.9198,349.4233,141.9126,349.1303,141.931,349.1749,142.1361,348.9701,142.3759,348.849,142.696,348.9217,142.8758,348.6558,143.15,348.6178" style="stroke:#181818;stroke-width:0.3499999999999999;"/><text fill="#000000" font-family="FG Virgil" font-size="9.8" font-style="italic" lengthAdjust="spacing" textLength="58.8" x="158.9" y="364.093">&#171;application&#187;</text><text fill="#000000" font-family="FG Virgil" font-size="9.8" lengthAdjust="spacing" textLength="84" x="146.3" y="377.1277">ListUsersController</text><polygon fill="#E3E3E3" points="243.95,25.2,243.95,25.3471,251.1,24.91,258.25,25.3353,265.4,25.4798,272.55,24.7006,279.7,25.1456,286.85,24.9015,294,24.9316,301.15,25.1523,308.3,24.716,315.45,25.5875,322.6,24.7588,329.75,25.0616,336.9,25.5024,344.05,25.2,344.0423,25.1815,344.3036,25.3172,344.5421,25.3981,344.8084,25.546,345.0613,25.6616,345.2874,25.7126,345.4137,25.7649,345.5346,26.02,345.6389,26.2682,345.6499,26.4778,345.7974,26.7439,345.8,26.95,346.2916,26.95,345.2952,33.4239,346.275,39.8978,345.5924,46.3717,346.1737,52.8456,345.8,59.3195,345.6933,59.2753,345.6827,59.5609,345.7548,59.8807,345.482,60.0576,345.4126,60.3189,345.2874,60.557,345.3177,60.63,345.0771,60.7492,344.7921,60.7612,344.5706,60.9264,344.2464,60.8436,344.05,61.0695,344.05,61.2686,336.9,61.4533,329.75,61.3807,322.6,61.4986,315.45,60.7314,308.3,60.613,301.15,60.6346,294,61.0283,286.85,60.932,279.7,61.5465,272.55,60.9473,265.4,60.8294,258.25,61.2293,251.1,60.6027,243.95,61.0695,243.9036,60.9576,243.7605,61.1069,243.4939,60.9584,243.2731,60.9203,242.9313,60.5901,242.7126,60.557,242.7814,60.5855,242.7373,60.3622,242.4057,60.0198,242.3844,59.8059,242.3297,59.5783,242.2,59.3195,242.6562,59.3195,242.1971,52.8456,242.5238,46.3717,241.8124,39.8978,241.7259,33.4239,242.2,26.95,242.3086,26.995,242.148,26.6385,242.5147,26.5005,242.5521,26.226,242.5523,25.9361,242.7126,25.7126,242.681,25.6363,243.001,25.7089,243.1808,25.443,243.5079,25.5326,243.6532,25.1834,243.95,25.2" style="stroke:#181818;stroke-width:0.3499999999999999;"/><text fill="#000000" font-family="FG Virgil" font-size="9.8" font-style="italic" lengthAdjust="spacing" textLength="58.8" x="264.6" y="40.6752">&#171;application&#187;</text><text fill="#000000" font-family="FG Virgil" font-size="9.8" lengthAdjust="spacing" textLength="93.8" x="247.1" y="53.71">CafeteriaUserService</text><polygon fill="#E3E3E3" points="243.95,348.6178,243.95,348.7649,251.1,348.3277,258.25,348.7531,265.4,348.8975,272.55,348.1184,279.7,348.5634,286.85,348.3192,294,348.3493,301.15,348.5701,308.3,348.1338,315.45,349.0053,322.6,348.1766,329.75,348.4793,336.9,348.9201,344.05,348.6178,344.0423,348.5993,344.3036,348.735,344.5421,348.8159,344.8084,348.9638,345.0613,349.0794,345.2874,349.1303,345.4137,349.1826,345.5346,349.4377,345.6389,349.686,345.6499,349.8955,345.7974,350.1617,345.8,350.3678,346.2916,350.3678,345.2952,356.8417,346.275,363.3156,345.5924,369.7895,346.1737,376.2634,345.8,382.7373,345.6933,382.6931,345.6827,382.9787,345.7548,383.2985,345.482,383.4754,345.4126,383.7367,345.2874,383.9747,345.3177,384.0477,345.0771,384.167,344.7921,384.1789,344.5706,384.3442,344.2464,384.2614,344.05,384.4873,344.05,384.6864,336.9,384.871,329.75,384.7985,322.6,384.9164,315.45,384.1491,308.3,384.0308,301.15,384.0523,294,384.4461,286.85,384.3497,279.7,384.9643,272.55,384.365,265.4,384.2472,258.25,384.6471,251.1,384.0205,243.95,384.4873,243.9036,384.3754,243.7605,384.5247,243.4939,384.3762,243.2731,384.3381,242.9313,384.0079,242.7126,383.9747,242.7814,384.0032,242.7373,383.78,242.4057,383.4376,242.3844,383.2237,242.3297,382.996,242.2,382.7373,242.6562,382.7373,242.1971,376.2634,242.5238,369.7895,241.8124,363.3156,241.7259,356.8417,242.2,350.3678,242.3086,350.4127,242.148,350.0563,242.5147,349.9182,242.5521,349.6438,242.5523,349.3539,242.7126,349.1303,242.681,349.0541,243.001,349.1267,243.1808,348.8608,243.5079,348.9504,243.6532,348.6011,243.95,348.6178" style="stroke:#181818;stroke-width:0.3499999999999999;"/><text fill="#000000" font-family="FG Virgil" font-size="9.8" font-style="italic" lengthAdjust="spacing" textLength="58.8" x="264.6" y="364.093">&#171;application&#187;</text><text fill="#000000" font-family="FG Virgil" font-size="9.8" lengthAdjust="spacing" textLength="93.8" x="247.1" y="377.1277">CafeteriaUserService</text><text fill="#000000" font-family="FG Virgil" font-size="9.8" font-style="italic" lengthAdjust="spacing" textLength="55.3" x="379.4" y="46.2752">&#171;repository&#187;</text><text fill="#000000" font-family="FG Virgil" font-size="9.8" lengthAdjust="spacing" textLength="108.5" x="352.8" y="59.31">CafeteriaUserRepository</text><path d="M396.55,10.5 L396.55,10.5 L396.5956,10.5469 L397.7201,9.1826 L399.1119,8.0931 L400.4167,6.9142 L401.4353,5.4409 L402.85,4.375 L402.8467,4.3511 L404.0917,4.0686 L405.3536,3.9068 L406.6271,3.829 L407.8604,3.462 L409.15,3.5 L409.15,3.5 L409.1737,3.6706 L410.383,3.4808 L411.6615,3.7891 L412.9485,4.1581 L414.1863,4.1736 L415.45,4.375 L415.4648,4.3902 L416.7031,5.5929 L418.0087,6.8648 L419.2819,8.1033 L420.617,9.4056 L421.75,10.5 L422.1675,10.5 L422.1726,14.14 L421.9084,17.78 L422.0385,21.42 L422.1869,25.06 L421.75,28.7 L421.75,28.7 L421.5936,28.5391 L420.6371,30.0764 L419.1657,31.0839 L418.0858,32.4941 L416.6026,33.4896 L415.45,34.825 L415.4471,34.8039 L414.2217,35.2285 L412.9279,35.16 L411.6745,35.3824 L410.4245,35.6293 L409.15,35.7 L409.15,35.7 L409.1678,35.8283 L407.8898,35.5238 L406.6423,35.4385 L405.3455,34.9986 L404.1222,35.0876 L402.85,34.825 L402.9689,34.9473 L401.6864,33.6992 L400.4629,32.5117 L398.9652,31.0422 L397.6686,29.7795 L396.55,28.7 L396.1634,28.7 L396.5134,25.06 L396.4277,21.42 L396.974,17.78 L396.4413,14.14 L396.55,10.5 " fill="#E3E3E3" style="stroke:#181818;stroke-width:1.0499999999999998;"/><path d="M396.55,10.5 L396.55,10.5 L396.5956,10.5469 L397.7201,11.6326 L399.1119,12.9931 L400.4167,14.2642 L401.4353,15.2409 L402.85,16.625 L402.8467,16.6011 L404.0917,16.6686 L405.3536,16.8568 L406.6271,17.129 L407.8604,17.112 L409.15,17.5 L409.15,17.5 L409.1737,17.6706 L410.383,17.1308 L411.6615,17.0891 L412.9485,17.1081 L414.1863,16.7736 L415.45,16.625 L415.4648,16.6402 L416.7031,15.3929 L418.0087,14.2148 L419.2819,13.0033 L420.617,11.8556 L421.75,10.5 " fill="none" style="stroke:#181818;stroke-width:1.0499999999999998;"/><text fill="#000000" font-family="FG Virgil" font-size="9.8" font-style="italic" lengthAdjust="spacing" textLength="55.3" x="379.4" y="359.193">&#171;repository&#187;</text><text fill="#000000" font-family="FG Virgil" font-size="9.8" lengthAdjust="spacing" textLength="108.5" x="352.8" y="372.2277">CafeteriaUserRepository</text><path d="M396.55,381.6873 L396.55,381.6873 L396.5956,381.7342 L397.7201,380.3699 L399.1119,379.2804 L400.4167,378.1015 L401.4353,376.6282 L402.85,375.5623 L402.8467,375.5384 L404.0917,375.2559 L405.3536,375.0941 L406.6271,375.0163 L407.8604,374.6493 L409.15,374.6873 L409.15,374.6873 L409.1737,374.8579 L410.383,374.6681 L411.6615,374.9764 L412.9485,375.3454 L414.1863,375.3609 L415.45,375.5623 L415.4648,375.5775 L416.7031,376.7802 L418.0087,378.0521 L419.2819,379.2906 L420.617,380.593 L421.75,381.6873 L422.1675,381.6873 L422.1726,385.3273 L421.9084,388.9673 L422.0385,392.6073 L422.1869,396.2473 L421.75,399.8873 L421.75,399.8873 L421.5936,399.7264 L420.6371,401.2637 L419.1657,402.2712 L418.0858,403.6814 L416.6026,404.6769 L415.45,406.0123 L415.4471,405.9912 L414.2217,406.4158 L412.9279,406.3473 L411.6745,406.5698 L410.4245,406.8167 L409.15,406.8873 L409.15,406.8873 L409.1678,407.0156 L407.8898,406.7111 L406.6423,406.6258 L405.3455,406.1859 L404.1222,406.2749 L402.85,406.0123 L402.9689,406.1346 L401.6864,404.8865 L400.4629,403.699 L398.9652,402.2295 L397.6686,400.9668 L396.55,399.8873 L396.1634,399.8873 L396.5134,396.2473 L396.4277,392.6073 L396.974,388.9673 L396.4413,385.3273 L396.55,381.6873 " fill="#E3E3E3" style="stroke:#181818;stroke-width:1.0499999999999998;"/><path d="M396.55,381.6873 L396.55,381.6873 L396.5956,381.7342 L397.7201,382.8199 L399.1119,384.1804 L400.4167,385.4515 L401.4353,386.4282 L402.85,387.8123 L402.8467,387.7884 L404.0917,387.8559 L405.3536,388.0441 L406.6271,388.3163 L407.8604,388.2993 L409.15,388.6873 L409.15,388.6873 L409.1737,388.8579 L410.383,388.3181 L411.6615,388.2764 L412.9485,388.2954 L414.1863,387.9609 L415.45,387.8123 L415.4648,387.8275 L416.7031,386.5802 L418.0087,385.4021 L419.2819,384.1906 L420.617,383.043 L421.75,381.6873 " fill="none" style="stroke:#181818;stroke-width:1.0499999999999998;"/><polygon fill="#FFFFFF" points="92.75,85.0732,92.75,85.1223,94.15,84.9766,95.55,85.1183,96.95,85.1665,98.35,84.9068,99.75,85.0732,99.6956,85.0732,99.4515,92.0634,99.4816,99.0535,99.7023,106.0436,99.266,113.0337,100.1375,120.0239,99.3088,127.014,99.6116,134.0041,100.0524,140.9942,99.69,147.9844,99.7978,154.9745,99.7276,161.9646,99.875,168.9548,99.9174,175.9449,100.16,182.935,100.2197,189.9251,100.2255,196.9153,99.9282,203.9054,100.0745,210.8955,100.2416,217.8856,99.2452,224.8758,100.225,231.8659,99.5424,238.856,100.1237,245.8461,99.4035,252.8363,99.7021,259.8264,100.2691,266.8165,99.7159,273.8066,99.8237,280.7968,99.987,287.7869,100.0414,294.777,99.7473,301.7671,99.951,308.7573,99.3493,315.7474,99.9491,322.7375,100.1337,329.7276,99.75,336.7178,99.75,336.8215,98.35,336.8608,96.95,336.6051,95.55,336.5656,94.15,336.5728,92.75,336.7178,92.7088,336.7178,92.6124,329.7276,93.227,322.7375,92.6277,315.7474,92.5099,308.7573,92.9098,301.7671,92.2832,294.777,92.3866,287.7869,93.2043,280.7968,93.055,273.8066,93.2641,266.8165,92.5247,259.8264,92.9734,252.8363,93.1633,245.8461,92.4193,238.856,92.6829,231.8659,92.8382,224.8758,93.2062,217.8856,92.7471,210.8955,93.0738,203.9054,92.3624,196.9153,92.2759,189.9251,93.1025,182.935,92.2481,175.9449,93.1063,168.9548,92.8946,161.9646,92.5625,154.9745,92.5024,147.9844,93.0711,140.9942,92.5405,134.0041,93.1643,127.014,92.3631,120.0239,93.1822,113.0337,93.089,106.0436,92.9215,99.0535,92.7831,92.0634,92.75,85.0732" style="stroke:#181818;stroke-width:0.6999999999999998;"/><polygon fill="#FFFFFF" points="184.8,128.8807,184.8,128.9297,186.2,128.784,187.6,128.9258,189,128.9739,190.4,128.7142,191.8,128.8807,191.7456,128.8807,191.5015,135.7671,191.5316,142.6535,191.7523,149.5399,191.316,156.4264,192.1875,163.3128,191.3588,170.1992,191.6616,177.0856,192.1024,183.972,191.74,190.8585,191.8478,197.7449,191.7776,204.6313,191.925,211.5177,191.9674,218.4042,192.21,225.2906,192.2697,232.177,192.2755,239.0634,191.9782,245.9498,192.1245,252.8363,192.2916,259.7227,191.2952,266.6091,192.275,273.4955,191.5924,280.382,192.1737,287.2684,191.4535,294.1548,191.7521,301.0412,192.3191,307.9276,191.8,314.8141,191.8,314.8027,190.4,314.8386,189,314.8931,187.6,314.9112,186.2,314.8132,184.8,314.8141,185.001,314.8141,184.3993,307.9276,184.9991,301.0412,185.1837,294.1548,185.1112,287.2684,185.2291,280.382,184.4618,273.4955,184.3435,266.6091,184.365,259.7227,184.7588,252.8363,184.6624,245.9498,185.277,239.0634,184.6777,232.177,184.5599,225.2906,184.9598,218.4042,184.3332,211.5177,184.4366,204.6313,185.2543,197.7449,185.105,190.8585,185.3141,183.972,184.5747,177.0856,185.0234,170.1992,185.2133,163.3128,184.4693,156.4264,184.7329,149.5399,184.8882,142.6535,185.2562,135.7671,184.8,128.8807" style="stroke:#181818;stroke-width:0.6999999999999998;"/><polygon fill="#FFFFFF" points="290.5,188.9918,290.5,189.0408,291.9,188.8951,293.3,189.0369,294.7,189.0851,296.1,188.8253,297.5,188.9918,297.4456,188.9918,297.2015,195.9197,297.2316,202.8476,297.4523,209.7755,297.016,216.7034,297.8875,223.6313,297.0588,230.5592,297.3616,237.4871,297.8024,244.415,297.44,251.3429,297.5478,258.2708,297.4776,265.1987,297.625,272.1266,297.6674,279.0545,297.91,285.9824,297.5,292.9104,297.5,293.0669,296.1,293.0688,294.7,292.9698,293.3,293.0185,291.9,293.0742,290.5,292.9104,289.9952,292.9104,290.975,285.9824,290.2924,279.0545,290.8737,272.1266,290.1535,265.1987,290.4521,258.2708,291.0191,251.3429,290.4659,244.415,290.5737,237.4871,290.737,230.5592,290.7914,223.6313,290.4973,216.7034,290.701,209.7755,290.0993,202.8476,290.6991,195.9197,290.5,188.9918" style="stroke:#181818;stroke-width:0.6999999999999998;"/><polygon fill="#FFFFFF" points="405.65,249.1029,405.65,249.152,407.05,249.0063,408.45,249.148,409.85,249.1962,411.25,248.9365,412.65,249.1029,412.6319,249.1029,412.5505,253.4837,412.5605,257.8644,412.6341,262.2452,412.4887,266.6259,412.65,271.0066,412.65,271.1358,411.25,270.8596,409.85,270.9605,408.45,271.1074,407.05,270.9866,405.65,271.0066,405.6659,271.0066,405.6425,266.6259,405.6917,262.2452,405.7058,257.8644,405.7867,253.4837,405.65,249.1029" style="stroke:#181818;stroke-width:0.6999999999999998;"/><polygon fill="#181818" points="84.35,82.2732,84.3682,82.3188,85.7141,82.7435,87.1667,83.4351,88.5846,84.0398,89.8882,84.3587,91.35,85.0732,91.3433,85.0564,89.913,85.5408,88.5168,86.1102,87.1441,86.7385,85.6901,87.1635,84.35,87.8732,84.4413,87.9646,84.806,87.2093,85.4374,86.7206,86.1013,86.2645,86.5758,85.6191,87.15,85.0732,87.1613,85.0845,86.5847,84.508,86.0595,83.9827,85.5095,83.4327,85.0066,82.9299,84.35,82.2732" style="stroke:#181818;stroke-width:0.6999999999999998;"/><path d="M19.25,85.0732 L19.25,85.2694 L26.18,84.6865 L33.11,85.2536 L40.04,85.4463 L46.97,84.4074 L53.9,85.0007 L60.83,84.6752 L67.76,84.7153 L74.69,85.0096 L81.62,84.428 L88.55,85.0732 " fill="none" style="stroke:#181818;stroke-width:0.6999999999999998;stroke-dasharray:2.0,2.0;"/><text fill="#000000" font-family="FG Virgil" font-size="9.1" lengthAdjust="spacing" textLength="41.3" x="24.15" y="81.3894">List Users</text><polygon fill="#181818" points="179.9,104.177,179.9182,104.2225,181.2641,104.6472,182.7167,105.3388,184.1346,105.9435,185.4382,106.2624,186.9,106.977,186.8933,106.9601,185.463,107.4446,184.0668,108.0139,182.6941,108.6422,181.2401,109.0672,179.9,109.777,179.9913,109.8683,180.356,109.113,180.9874,108.6243,181.6513,108.1682,182.1258,107.5228,182.7,106.977,182.7113,106.9882,182.1347,106.4117,181.6095,105.8864,181.0595,105.3364,180.5566,104.8336,179.9,104.177" style="stroke:#181818;stroke-width:0.6999999999999998;"/><path d="M99.75,106.977 L99.75,107.1731 L106.7792,106.5903 L113.8083,107.1574 L120.8375,107.35 L127.8667,106.3111 L134.8958,106.9044 L141.925,106.5789 L148.9542,106.619 L155.9833,106.9133 L163.0125,106.3317 L170.0417,107.4937 L177.0708,106.3887 L184.1,106.977 " fill="none" style="stroke:#181818;stroke-width:0.6999999999999998;"/><text fill="#000000" font-family="FG Virgil" font-size="9.1" lengthAdjust="spacing" textLength="25.2" x="104.65" y="103.2931">create</text><polygon fill="#181818" points="176.4,126.0807,176.4182,126.1262,177.7641,126.5509,179.2167,127.2425,180.6346,127.8473,181.9382,128.1661,183.4,128.8807,183.3933,128.8638,181.963,129.3483,180.5668,129.9176,179.1941,130.5459,177.7401,130.9709,176.4,131.6807,176.4913,131.772,176.856,131.0167,177.4874,130.528,178.1513,130.0719,178.6258,129.4265,179.2,128.8807,179.2113,128.8919,178.6347,128.3154,178.1095,127.7901,177.5595,127.2401,177.0566,126.7373,176.4,126.0807" style="stroke:#181818;stroke-width:0.6999999999999998;"/><path d="M99.75,128.8807 L99.75,129.0768 L106.4875,128.494 L113.225,129.0611 L119.9625,129.2537 L126.7,128.2148 L133.4375,128.8081 L140.175,128.4826 L146.9125,128.5227 L153.65,128.8171 L160.3875,128.2354 L167.125,129.3974 L173.8625,128.2924 L180.6,128.8807 " fill="none" style="stroke:#181818;stroke-width:0.6999999999999998;"/><text fill="#000000" font-family="FG Virgil" font-size="9.1" lengthAdjust="spacing" textLength="41.3" x="104.65" y="125.1968">listUsers()</text><path d="M195.3,137.9807 L195.4308,137.9807 L195.0422,144.1407 L195.4203,150.3007 L195.5487,156.4607 L194.8561,162.6207 L195.3,168.7807 L195.3,168.6356 L202.3304,167.9845 L209.3609,168.0648 L216.3913,168.6534 L223.4217,167.4901 L230.4522,169.8141 L237.4826,167.6041 L244.513,168.4115 L251.5435,169.587 L258.5739,168.6205 L265.6043,168.908 L272.6348,168.721 L279.6652,169.1139 L286.6957,169.227 L293.7261,169.874 L300.7565,170.0333 L307.787,170.0486 L314.8174,169.256 L321.8478,169.646 L328.8783,170.0915 L335.9087,167.4345 L342.9391,170.0472 L349.9696,168.2272 L357,168.7807 L357.3321,168.7807 L356.692,164.0207 L356.9574,159.2607 L357.4614,154.5007 L356.9697,149.7407 L357,144.9807 L357.0463,145.027 L355.749,143.7297 L354.3831,142.3638 L352.7983,140.7789 L351.5264,139.507 L350,137.9807 L350,136.9122 L342.9682,138.5115 L335.9364,139.004 L328.9045,138.8105 L321.8727,139.125 L314.8409,137.0789 L307.8091,136.7633 L300.7773,136.8207 L293.7455,137.8708 L286.7136,137.6138 L279.6818,139.2526 L272.65,137.6546 L265.6182,137.3403 L258.5864,138.4068 L251.5545,136.7359 L244.5227,137.0116 L237.4909,139.192 L230.4591,138.7939 L223.4273,139.3517 L216.3955,137.38 L209.3636,138.5765 L202.3318,139.0828 L195.3,137.9807 " fill="#FAFAFA" style="stroke:#181818;stroke-width:0.3499999999999999;"/><path d="M350,137.9807 L349.7061,137.9807 L349.9404,139.3807 L350.0784,140.7807 L350.4055,142.1807 L349.9974,143.5807 L350,144.9807 L350,145.2685 L351.4,144.6361 L352.8,144.5593 L354.2,145.294 L355.6,144.5346 L357,144.9807 L357.2239,145.2046 L355.6909,143.6716 L354.0821,142.0628 L352.6443,140.625 L351.6018,139.5825 L350,137.9807 " fill="#FAFAFA" style="stroke:#181818;stroke-width:0.3499999999999999;"/><text fill="#000000" font-family="FG Virgil" font-size="9.1" lengthAdjust="spacing" textLength="144.2" x="199.5" y="151.3005">hidden authorization user guarantee</text><text fill="#000000" font-family="FG Virgil" font-size="9.1" lengthAdjust="spacing" textLength="88.9" x="199.5" y="163.4042">(see specific diagram)</text><polygon fill="#181818" points="282.1,186.1918,282.1182,186.2373,283.4641,186.662,284.9167,187.3537,286.3346,187.9584,287.6382,188.2772,289.1,188.9918,289.0933,188.975,287.663,189.4594,286.2668,190.0287,284.8941,190.657,283.4401,191.082,282.1,191.7918,282.1913,191.8831,282.556,191.1278,283.1874,190.6392,283.8513,190.1831,284.3258,189.5376,284.9,188.9918,284.9113,189.0031,284.3347,188.4265,283.8095,187.9013,283.2595,187.3513,282.7566,186.8484,282.1,186.1918" style="stroke:#181818;stroke-width:0.6999999999999998;"/><path d="M191.8,188.9918 L191.8,189.188 L198.55,188.6051 L205.3,189.1722 L212.05,189.3648 L218.8,188.326 L225.55,188.9193 L232.3,188.5937 L239.05,188.6339 L245.8,188.9282 L252.55,188.3465 L259.3,189.5085 L266.05,188.4035 L272.8,188.8072 L279.55,189.3949 L286.3,188.9918 " fill="none" style="stroke:#181818;stroke-width:0.6999999999999998;"/><text fill="#000000" font-family="FG Virgil" font-size="9.1" lengthAdjust="spacing" textLength="38.5" x="196.7" y="185.3079">allUsers()</text><path d="M301,198.0918 L301.1308,198.0918 L300.7422,204.2518 L301.1203,210.4118 L301.2487,216.5718 L300.5561,222.7318 L301,228.8918 L301,228.7467 L307.9067,228.0957 L314.8133,228.1759 L321.72,228.7646 L328.6267,227.6012 L335.5333,229.9253 L342.44,227.7153 L349.3467,228.5226 L356.2533,229.6981 L363.16,228.7317 L370.0667,229.0192 L376.9733,228.8322 L383.88,229.225 L390.7867,229.3382 L397.6933,229.9851 L404.6,228.8918 L405.0175,228.8918 L405.0226,224.1318 L404.7584,219.3718 L404.8885,214.6118 L405.0369,209.8518 L404.6,205.0918 L404.2827,204.7745 L403.4985,203.9903 L401.6695,202.1613 L400.6349,201.1267 L398.7822,199.274 L397.6,198.0918 L397.6,197.9639 L390.7,199.4761 L383.8,198.0008 L376.9,198.2884 L370,198.7239 L363.1,198.8688 L356.2,198.0845 L349.3,198.6279 L342.4,197.0233 L335.5,198.6227 L328.6,199.1151 L321.7,198.9216 L314.8,199.2361 L307.9,197.19 L301,198.0918 " fill="#FAFAFA" style="stroke:#181818;stroke-width:0.3499999999999999;"/><path d="M397.6,198.0918 L397.1942,198.0918 L397.2134,199.4918 L397.5634,200.8918 L397.4777,202.2918 L398.024,203.6918 L397.6,205.0918 L397.6,204.9831 L399,204.8783 L400.4,205.2338 L401.8,204.6769 L403.2,204.7688 L404.6,205.0918 L404.8855,205.3773 L403.3917,203.8835 L402.1232,202.615 L400.2584,200.7502 L399.1404,199.6322 L397.6,198.0918 " fill="#FAFAFA" style="stroke:#181818;stroke-width:0.3499999999999999;"/><text fill="#000000" font-family="FG Virgil" font-size="9.1" lengthAdjust="spacing" textLength="88.9" x="305.2" y="211.4116">Simplified persistence</text><text fill="#000000" font-family="FG Virgil" font-size="9.1" lengthAdjust="spacing" textLength="88.9" x="305.2" y="223.5153">(see specific diagram)</text><polygon fill="#181818" points="397.25,246.3029,397.2682,246.3485,398.6141,246.7732,400.0667,247.4648,401.4846,248.0695,402.7882,248.3884,404.25,249.1029,404.2433,249.0861,402.813,249.5705,401.4168,250.1398,400.0441,250.7682,398.5901,251.1931,397.25,251.9029,397.3413,251.9943,397.706,251.2389,398.3374,250.7503,399.0013,250.2942,399.4758,249.6488,400.05,249.1029,400.0613,249.1142,399.4847,248.5377,398.9595,248.0124,398.4095,247.4624,397.9066,246.9596,397.25,246.3029" style="stroke:#181818;stroke-width:0.6999999999999998;"/><path d="M297.5,249.1029 L297.5,249.2991 L304.43,248.7162 L311.36,249.2833 L318.29,249.476 L325.22,248.4371 L332.15,249.0304 L339.08,248.7049 L346.01,248.745 L352.94,249.0393 L359.87,248.4577 L366.8,249.6197 L373.73,248.5147 L380.66,248.9183 L387.59,249.5061 L394.52,249.0229 L401.45,249.1029 " fill="none" style="stroke:#181818;stroke-width:0.6999999999999998;"/><text fill="#000000" font-family="FG Virgil" font-size="9.1" lengthAdjust="spacing" textLength="30.1" x="302.4" y="245.419">findAll()</text><polygon fill="#181818" points="305.2,268.2066,305.2182,268.2522,303.7641,268.6769,302.4167,269.3685,301.0346,269.9732,299.5382,270.2921,298.2,271.0066,298.1933,270.9898,299.563,271.4742,300.9668,272.0436,302.3941,272.6719,303.7401,273.0969,305.2,273.8066,305.2913,273.898,304.536,273.1426,304.0474,272.654,303.5913,272.1979,302.9458,271.5525,302.4,271.0066,302.4113,271.0179,302.9547,270.4414,303.5495,269.9161,304.1195,269.3661,304.7366,268.8633,305.2,268.2066" style="stroke:#181818;stroke-width:0.6999999999999998;"/><path d="M301,271.0066 L301,271.2028 L308.1633,270.6199 L315.3267,271.187 L322.49,271.3797 L329.6533,270.3408 L336.8167,270.9341 L343.98,270.6086 L351.1433,270.6487 L358.3067,270.943 L365.47,270.3614 L372.6333,271.5234 L379.7967,270.4184 L386.96,270.8221 L394.1233,271.4098 L401.2867,270.9266 L408.45,271.0066 " fill="none" style="stroke:#181818;stroke-width:0.6999999999999998;stroke-dasharray:2.0,2.0;"/><text fill="#000000" font-family="FG Virgil" font-size="9.1" lengthAdjust="spacing" textLength="22.4" x="309.4" y="267.3228">users</text><polygon fill="#181818" points="199.5,290.1104,199.5182,290.1559,198.0641,290.5806,196.7167,291.2722,195.3346,291.8769,193.8382,292.1958,192.5,292.9104,192.4933,292.8935,193.863,293.378,195.2668,293.9473,196.6941,294.5756,198.0401,295.0006,199.5,295.7104,199.5913,295.8017,198.836,295.0464,198.3474,294.5577,197.8913,294.1016,197.2458,293.4562,196.7,292.9104,196.7113,292.9216,197.2547,292.3451,197.8495,291.8198,198.4195,291.2698,199.0366,290.767,199.5,290.1104" style="stroke:#181818;stroke-width:0.6999999999999998;"/><path d="M195.3,292.9104 L195.3,293.1065 L202.3,292.5237 L209.3,293.0908 L216.3,293.2834 L223.3,292.2445 L230.3,292.8378 L237.3,292.5123 L244.3,292.5524 L251.3,292.8467 L258.3,292.2651 L265.3,293.4271 L272.3,292.3221 L279.3,292.7258 L286.3,293.3135 L293.3,292.9104 " fill="none" style="stroke:#181818;stroke-width:0.6999999999999998;stroke-dasharray:2.0,2.0;"/><text fill="#000000" font-family="FG Virgil" font-size="9.1" lengthAdjust="spacing" textLength="22.4" x="203.7" y="289.2265">users</text><polygon fill="#181818" points="107.45,312.0141,107.4682,312.0596,106.0141,312.4843,104.6667,313.1759,103.2846,313.7807,101.7882,314.0995,100.45,314.8141,100.4433,314.7972,101.813,315.2817,103.2168,315.851,104.6441,316.4793,105.9901,316.9043,107.45,317.6141,107.5413,317.7054,106.786,316.9501,106.2974,316.4614,105.8413,316.0053,105.1958,315.3599,104.65,314.8141,104.6613,314.8253,105.2047,314.2488,105.7995,313.7235,106.3695,313.1735,106.9866,312.6707,107.45,312.0141" style="stroke:#181818;stroke-width:0.6999999999999998;"/><path d="M103.25,314.8141 L103.25,315.0102 L110.2792,314.4274 L117.3083,314.9945 L124.3375,315.1871 L131.3667,314.1482 L138.3958,314.7415 L145.425,314.416 L152.4542,314.4561 L159.4833,314.7504 L166.5125,314.1688 L173.5417,315.3308 L180.5708,314.2258 L187.6,314.8141 " fill="none" style="stroke:#181818;stroke-width:0.6999999999999998;stroke-dasharray:2.0,2.0;"/><text fill="#000000" font-family="FG Virgil" font-size="9.1" lengthAdjust="spacing" textLength="22.4" x="111.65" y="311.1302">users</text><polygon fill="#181818" points="26.95,333.9178,26.9682,333.9633,25.5141,334.388,24.1667,335.0796,22.7846,335.6844,21.2882,336.0032,19.95,336.7178,19.9433,336.7009,21.313,337.1854,22.7168,337.7547,24.1441,338.383,25.4901,338.808,26.95,339.5178,27.0413,339.6091,26.286,338.8538,25.7974,338.3651,25.3413,337.909,24.6958,337.2636,24.15,336.7178,24.1613,336.729,24.7047,336.1525,25.2995,335.6272,25.8695,335.0772,26.4866,334.5744,26.95,333.9178" style="stroke:#181818;stroke-width:0.6999999999999998;"/><path d="M22.75,336.7178 L22.75,336.9139 L30.03,336.3311 L37.31,336.8982 L44.59,337.0908 L51.87,336.0519 L59.15,336.6452 L66.43,336.3197 L73.71,336.3598 L80.99,336.6542 L88.27,336.0725 L95.55,336.7178 " fill="none" style="stroke:#181818;stroke-width:0.6999999999999998;stroke-dasharray:2.0,2.0;"/><text fill="#000000" font-family="FG Virgil" font-size="9.1" lengthAdjust="spacing" textLength="56.7" x="31.15" y="333.0339">Display Users</text><!--SRC=[ZL9DRzim3BtxLn0zjOVy0SC847Je463OOK5sweMJQ9keB0aIdIBzzQFTBPRJx4C76pBVUtwFP7vX7p7X03rw-vfOX3n86gdAbz8GV31z2WDTLoAQ5-pe86T7aCX8KRFKukZaANZvYafz-WpVENNi2apkqOPNzXsqw39L5He92NPsO0-OOJTTAyKA6uxe1RvmbcEcb8_x2Q3Ffec9Cdb1uU2tszlmHxMHWdEK9bfnQngCqR6vnRvxn9Q44kEaSQ1qOaDtay3XP3umBGh-m4omOdsZ639hZFF4AsvDaouNPLTpLjXijXggdet3x7pg2PzGIBzN5UZHq8fQCjHW4YdWlNeB0JMutvsuVxZ0BieBSj7mGGk9kruWj6kjdgtLDS5H-f3uRMu0Z2eEtQXpzK84p_u-woj7Cjoo0SlOwSWVbXzCfv1LmzhL6j2vQvyhhmfQQwoDJfEfuS23ZgPbiX1LIxEJD_H_dYO5DLECgeQMlTqvzoTF2tOjLMXitlEfrZXFjOHP-gVIREfwfdzLMlMfxFEyOH_O1RFSXkDUyVDgrl29StHu_hMM1U6u_ma0]--></g></svg>