<?xml version="1.0" encoding="us-ascii" standalone="no"?><svg xmlns="http://www.w3.org/2000/svg" xmlns:xlink="http://www.w3.org/1999/xlink" contentStyleType="text/css" height="621.6px" preserveAspectRatio="none" style="width:584px;height:621px;background:#FFFFFF;" version="1.1" viewBox="0 0 584 621" width="584.4px" zoomAndPan="magnify"><defs/><g><polygon fill="#FFFFFF" points="167.1,72.9199,167.1,72.962,168.3,72.8371,169.5,72.9586,170.7,72.9999,171.9,72.7772,173.1,72.9199,173.0534,72.9199,172.8441,78.9017,172.8699,84.8834,173.0591,90.8652,172.6852,96.8469,173.4322,102.8287,172.7218,108.8104,172.9813,114.7922,173.3592,120.7739,173.0485,126.7557,173.1409,132.7374,173.0808,138.7192,173.2071,144.7009,173.2435,150.6826,173.4514,156.6644,173.5026,162.6461,173.5076,168.6279,173.2528,174.6096,173.3782,180.5914,173.5213,186.5731,172.6673,192.5549,173.5071,198.5366,172.9221,204.5184,173.4203,210.5001,172.803,216.4819,173.0589,222.4636,173.545,228.4454,173.0708,234.4271,173.1632,240.4089,173.3032,246.3906,173.3497,252.3724,173.0977,258.3541,173.2723,264.3359,172.7565,270.3176,173.2706,276.2994,173.4289,282.2811,173.3667,288.2629,173.4678,294.2446,172.8102,300.2263,172.7087,306.2081,172.7272,312.1898,173.0647,318.1716,172.9821,324.1533,173.5088,330.1351,172.9952,336.1168,172.8942,342.0986,173.237,348.0803,172.6999,354.0621,172.7885,360.0438,173.4894,366.0256,173.3614,372.0073,173.5407,377.9891,172.9069,383.9708,173.2915,389.9526,173.4543,395.9343,172.8166,401.9161,173.0425,407.8978,173.1756,413.8796,173.4911,419.8613,173.0975,425.8431,173.3775,431.8248,172.7677,437.8066,172.6936,443.7883,173.4022,449.77,172.6698,455.7518,173.4054,461.7335,173.224,467.7153,172.9392,473.697,172.8877,479.6788,173.3753,485.6605,172.9204,491.6423,173.4551,497.624,172.7684,503.6058,173.4705,509.5875,173.3906,515.5693,173.247,521.551,173.1283,527.5328,173.536,533.5145,173.4681,539.4963,173.2016,545.478,173.1,551.4598,173.1,551.5134,171.9,551.4337,170.7,551.6031,169.5,551.4907,168.3,551.4943,167.1,551.4598,166.735,551.4598,166.8569,545.478,167.4184,539.4963,167.3579,533.5145,167.0742,527.5328,166.9067,521.551,166.9686,515.5693,166.6883,509.5875,167.3488,503.6058,167.5437,497.624,167.4158,491.6423,167.517,485.6605,167.018,479.6788,167.1523,473.697,166.8674,467.7153,167.2704,461.7335,167.2481,455.7518,167.4314,449.77,166.9622,443.7883,167.0194,437.8066,167.3661,431.8248,167.4404,425.8431,166.7925,419.8613,166.9837,413.8796,167.1896,407.8978,166.7335,401.9161,167.312,395.9343,167.2548,389.9526,167.0395,383.9708,167.1853,377.9891,167.5372,372.0073,166.9123,366.0256,167.289,360.0438,167.2714,354.0621,167.1695,348.0803,167.1846,342.0986,167.1681,336.1168,166.7255,330.1351,166.8595,324.1533,166.8231,318.1716,167.1383,312.1898,167.1529,306.2081,167.197,300.2263,166.9254,294.2446,167.0595,288.2629,167.0279,282.2811,167.4461,276.2994,167.3559,270.3176,166.8087,264.3359,167.0562,258.3541,166.7537,252.3724,167.273,246.3906,167.4651,240.4089,167.4267,234.4271,166.8387,228.4454,167.3784,222.4636,166.6543,216.4819,167.2201,210.5001,166.9204,204.5184,167.158,198.5366,167.2442,192.5549,167.3833,186.5731,166.668,180.5914,167.3853,174.6096,167.2069,168.6279,167.3132,162.6461,167.5487,156.6644,167.1033,150.6826,167.2052,144.7009,167.2281,138.7192,167.2183,132.7374,167.0995,126.7557,167.5264,120.7739,166.7342,114.7922,167.4392,108.8104,166.7256,102.8287,166.7758,96.8469,167.124,90.8652,167.117,84.8834,166.8043,78.9017,167.1,72.9199" style="stroke:#181818;stroke-width:0.6;"/><polygon fill="#FFFFFF" points="342.3,148.0184,342.3,148.0604,343.5,147.9355,344.7,148.057,345.9,148.0983,347.1,147.8757,348.3,148.0184,348.2534,148.0184,348.0441,153.921,348.0699,159.8237,348.2591,165.7263,347.8852,171.6289,348.6322,177.5316,347.9218,183.4342,348.1813,189.3369,348.5592,195.2395,348.2485,201.1422,348.3409,207.0448,348.2808,212.9475,348.4071,218.8501,348.4435,224.7528,348.6514,230.6554,348.7026,236.5581,348.7076,242.4607,348.4528,248.3634,348.5782,254.266,348.7213,260.1687,347.8673,266.0713,348.7071,271.974,348.1221,277.8766,348.6203,283.7793,348.003,289.6819,348.2589,295.5845,348.745,301.4872,348.3,307.3898,348.3,307.3801,347.1,307.4109,345.9,307.4576,344.7,307.4731,343.5,307.3891,342.3,307.3898,342.4723,307.3898,341.9565,301.4872,342.4706,295.5845,342.6289,289.6819,342.5667,283.7793,342.6678,277.8766,342.0102,271.974,341.9087,266.0713,341.9272,260.1687,342.2647,254.266,342.1821,248.3634,342.7088,242.4607,342.1952,236.5581,342.0942,230.6554,342.437,224.7528,341.8999,218.8501,341.9885,212.9475,342.6894,207.0448,342.5614,201.1422,342.7407,195.2395,342.1069,189.3369,342.4915,183.4342,342.6543,177.5316,342.0166,171.6289,342.2425,165.7263,342.3756,159.8237,342.6911,153.921,342.3,148.0184" style="stroke:#181818;stroke-width:0.6;"/><polygon fill="#FFFFFF" points="342.3,363.7137,342.3,363.7557,343.5,363.6308,344.7,363.7523,345.9,363.7936,347.1,363.571,348.3,363.7137,348.2534,363.7137,348.0441,369.4905,348.0699,375.2673,348.2591,381.0441,347.8852,386.8209,348.6322,392.5977,347.9218,398.3745,348.1813,404.1513,348.5592,409.9281,348.2485,415.7049,348.3409,421.4817,348.2808,427.2585,348.4071,433.0353,348.3,438.8121,348.3,438.8599,347.1,438.9292,345.9,438.9463,344.7,438.948,343.5,438.863,342.3,438.8121,342.5782,438.8121,342.7213,433.0353,341.8673,427.2585,342.7071,421.4817,342.1221,415.7049,342.6203,409.9281,342.003,404.1513,342.2589,398.3745,342.745,392.5977,342.2708,386.8209,342.3632,381.0441,342.5032,375.2673,342.5497,369.4905,342.3,363.7137" style="stroke:#181818;stroke-width:0.6;"/><polygon fill="#FFFFFF" points="342.3,457.5867,342.3,457.6288,343.5,457.5039,344.7,457.6254,345.9,457.6667,347.1,457.444,348.3,457.5867,348.2534,457.5867,348.0441,463.3635,348.0699,469.1403,348.2591,474.9171,347.8852,480.6939,348.6322,486.4707,347.9218,492.2475,348.1813,498.0243,348.5592,503.8011,348.2485,509.5779,348.3409,515.3547,348.2808,521.1316,348.4071,526.9084,348.3,532.6852,348.3,532.733,347.1,532.8023,345.9,532.8194,344.7,532.821,343.5,532.7361,342.3,532.6852,342.5782,532.6852,342.7213,526.9084,341.8673,521.1316,342.7071,515.3547,342.1221,509.5779,342.6203,503.8011,342.003,498.0243,342.2589,492.2475,342.745,486.4707,342.2708,480.6939,342.3632,474.9171,342.5032,469.1403,342.5497,463.3635,342.3,457.5867" style="stroke:#181818;stroke-width:0.6;"/><polygon fill="#FFFFFF" points="427.8,199.5422,427.8,199.5842,429,199.4593,430.2,199.5808,431.4,199.6221,432.6,199.3995,433.8,199.5422,433.7534,199.5422,433.5441,205.4804,433.5699,211.4186,433.7591,217.3568,433.3852,223.295,434.1322,229.2332,433.4218,235.1714,433.6813,241.1096,434.0592,247.0478,433.7485,252.986,433.8409,258.9242,433.7808,264.8624,433.9071,270.8006,433.9435,276.7388,434.1514,282.677,433.8,288.6152,433.8,288.7494,432.6,288.7511,431.4,288.6662,430.2,288.708,429,288.7557,427.8,288.6152,427.3673,288.6152,428.2071,282.677,427.6221,276.7388,428.1203,270.8006,427.503,264.8624,427.7589,258.9242,428.245,252.986,427.7708,247.0478,427.8632,241.1096,428.0032,235.1714,428.0497,229.2332,427.7977,223.295,427.9723,217.3568,427.4565,211.4186,427.9706,205.4804,427.8,199.5422" style="stroke:#181818;stroke-width:0.6;"/><polygon fill="#FFFFFF" points="550.5,251.066,550.5,251.1081,551.7,250.9832,552.9,251.1047,554.1,251.146,555.3,250.9233,556.5,251.066,556.4845,251.066,556.4147,254.8209,556.4233,258.5759,556.4864,262.3308,556.3617,266.0857,556.5,269.8406,556.5,269.9514,555.3,269.7146,554.1,269.8011,552.9,269.927,551.7,269.8235,550.5,269.8406,550.5136,269.8406,550.4936,266.0857,550.5357,262.3308,550.5478,258.5759,550.6171,254.8209,550.5,251.066" style="stroke:#181818;stroke-width:0.6;"/><polygon fill="#FFFFFF" points="550.5,401.2629,550.5,401.3049,551.7,401.18,552.9,401.3015,554.1,401.3428,555.3,401.1202,556.5,401.2629,556.4845,401.2629,556.4147,405.0178,556.4233,408.7727,556.4864,412.5277,556.3617,416.2826,556.5,420.0375,556.5,420.1482,555.3,419.9114,554.1,419.9979,552.9,420.1239,551.7,420.0203,550.5,420.0375,550.5136,420.0375,550.4936,416.2826,550.5357,412.5277,550.5478,408.7727,550.6171,405.0178,550.5,401.2629" style="stroke:#181818;stroke-width:0.6;"/><polygon fill="#FFFFFF" points="550.5,495.1359,550.5,495.178,551.7,495.0531,552.9,495.1746,554.1,495.2159,555.3,494.9933,556.5,495.1359,556.4845,495.1359,556.4147,498.8909,556.4233,502.6458,556.4864,506.4007,556.3617,510.1556,556.5,513.9105,556.5,514.0213,555.3,513.7845,554.1,513.871,552.9,513.9969,551.7,513.8934,550.5,513.9105,550.5136,513.9105,550.4936,510.1556,550.5357,506.4007,550.5478,502.6458,550.6171,498.8909,550.5,495.1359" style="stroke:#181818;stroke-width:0.6;"/><path d="M31.8,52.9453 L31.9681,52.9453 L31.4685,58.9372 L31.9546,64.9292 L32.1197,70.9211 L31.2293,76.9131 L31.7378,82.905 L31.4588,88.8969 L31.4932,94.8889 L31.7455,100.8808 L31.2469,106.8727 L32.2429,112.8647 L31.2958,118.8566 L31.6418,124.8485 L32.1456,130.8405 L31.7314,136.8324 L31.8546,142.8243 L31.7744,148.8163 L31.9428,154.8082 L31.9913,160.8001 L32.2686,166.7921 L32.3368,172.784 L32.3434,178.7759 L32.0037,184.7679 L32.1709,190.7598 L32.3618,196.7517 L31.2231,202.7437 L32.3428,208.7356 L31.5628,214.7276 L32.227,220.7195 L31.404,226.7114 L31.7452,232.7034 L32.3933,238.6953 L31.761,244.6872 L31.8842,250.6792 L32.0709,256.6711 L32.133,262.663 L31.7969,268.655 L32.0298,274.6469 L31.3421,280.6388 L32.0275,286.6308 L32.2386,292.6227 L32.1556,298.6146 L32.2904,304.6066 L31.4135,310.5985 L31.2783,316.5904 L31.3029,322.5824 L31.7529,328.5743 L31.6428,334.5662 L32.3451,340.5582 L31.6603,346.5501 L31.5256,352.542 L31.9826,358.534 L31.2665,364.5259 L31.3847,370.5179 L32.3192,376.5098 L32.1485,382.5017 L32.3876,388.4937 L31.5426,394.4856 L32.0554,400.4775 L32.2723,406.4695 L31.4221,412.4614 L31.7233,418.4533 L31.9008,424.4453 L32.3214,430.4372 L31.7966,436.4291 L32.1701,442.4211 L31.357,448.413 L31.2582,454.4049 L32.2029,460.3969 L31.2264,466.3888 L32.2072,472.3807 L31.9653,478.3727 L31.5857,484.3646 L31.517,490.3565 L32.167,496.3485 L31.5605,502.3404 L32.2735,508.3324 L31.3578,514.3243 L32.2939,520.3162 L32.1874,526.3082 L31.996,532.3001 L31.8378,538.292 L32.3813,544.284 L32.2909,550.2759 L31.9354,556.2678 L31.8,562.2598 " fill="none" style="stroke:#181818;stroke-width:0.3;stroke-dasharray:5.0,5.0;"/><path d="M169.8,52.9453 L169.9681,52.9453 L169.4685,58.9372 L169.9546,64.9292 L170.1197,70.9211 L169.2293,76.9131 L169.7378,82.905 L169.4588,88.8969 L169.4932,94.8889 L169.7455,100.8808 L169.2469,106.8727 L170.2429,112.8647 L169.2958,118.8566 L169.6418,124.8485 L170.1456,130.8405 L169.7314,136.8324 L169.8546,142.8243 L169.7744,148.8163 L169.9428,154.8082 L169.9913,160.8001 L170.2686,166.7921 L170.3368,172.784 L170.3434,178.7759 L170.0037,184.7679 L170.1709,190.7598 L170.3618,196.7517 L169.2231,202.7437 L170.3428,208.7356 L169.5628,214.7276 L170.227,220.7195 L169.404,226.7114 L169.7452,232.7034 L170.3933,238.6953 L169.761,244.6872 L169.8842,250.6792 L170.0709,256.6711 L170.133,262.663 L169.7969,268.655 L170.0298,274.6469 L169.3421,280.6388 L170.0275,286.6308 L170.2386,292.6227 L170.1556,298.6146 L170.2904,304.6066 L169.4135,310.5985 L169.2783,316.5904 L169.3029,322.5824 L169.7529,328.5743 L169.6428,334.5662 L170.3451,340.5582 L169.6603,346.5501 L169.5256,352.542 L169.9826,358.534 L169.2665,364.5259 L169.3847,370.5179 L170.3192,376.5098 L170.1485,382.5017 L170.3876,388.4937 L169.5426,394.4856 L170.0554,400.4775 L170.2723,406.4695 L169.4221,412.4614 L169.7233,418.4533 L169.9008,424.4453 L170.3214,430.4372 L169.7966,436.4291 L170.1701,442.4211 L169.357,448.413 L169.2582,454.4049 L170.2029,460.3969 L169.2264,466.3888 L170.2072,472.3807 L169.9653,478.3727 L169.5857,484.3646 L169.517,490.3565 L170.167,496.3485 L169.5605,502.3404 L170.2735,508.3324 L169.3578,514.3243 L170.2939,520.3162 L170.1874,526.3082 L169.996,532.3001 L169.8378,538.292 L170.3813,544.284 L170.2909,550.2759 L169.9354,556.2678 L169.8,562.2598 " fill="none" style="stroke:#181818;stroke-width:0.3;stroke-dasharray:5.0,5.0;"/><path d="M345.3,52.9453 L345.4681,52.9453 L344.9685,58.9372 L345.4546,64.9292 L345.6197,70.9211 L344.7293,76.9131 L345.2378,82.905 L344.9588,88.8969 L344.9932,94.8889 L345.2455,100.8808 L344.7469,106.8727 L345.7429,112.8647 L344.7958,118.8566 L345.1418,124.8485 L345.6456,130.8405 L345.2314,136.8324 L345.3546,142.8243 L345.2744,148.8163 L345.4428,154.8082 L345.4913,160.8001 L345.7686,166.7921 L345.8368,172.784 L345.8434,178.7759 L345.5037,184.7679 L345.6709,190.7598 L345.8618,196.7517 L344.7231,202.7437 L345.8428,208.7356 L345.0628,214.7276 L345.727,220.7195 L344.904,226.7114 L345.2452,232.7034 L345.8933,238.6953 L345.261,244.6872 L345.3842,250.6792 L345.5709,256.6711 L345.633,262.663 L345.2969,268.655 L345.5298,274.6469 L344.8421,280.6388 L345.5275,286.6308 L345.7386,292.6227 L345.6556,298.6146 L345.7904,304.6066 L344.9135,310.5985 L344.7783,316.5904 L344.8029,322.5824 L345.2529,328.5743 L345.1428,334.5662 L345.8451,340.5582 L345.1603,346.5501 L345.0256,352.542 L345.4826,358.534 L344.7665,364.5259 L344.8847,370.5179 L345.8192,376.5098 L345.6485,382.5017 L345.8876,388.4937 L345.0426,394.4856 L345.5554,400.4775 L345.7723,406.4695 L344.9221,412.4614 L345.2233,418.4533 L345.4008,424.4453 L345.8214,430.4372 L345.2966,436.4291 L345.6701,442.4211 L344.857,448.413 L344.7582,454.4049 L345.7029,460.3969 L344.7264,466.3888 L345.7072,472.3807 L345.4653,478.3727 L345.0857,484.3646 L345.017,490.3565 L345.667,496.3485 L345.0605,502.3404 L345.7735,508.3324 L344.8578,514.3243 L345.7939,520.3162 L345.6874,526.3082 L345.496,532.3001 L345.3378,538.292 L345.8813,544.284 L345.7909,550.2759 L345.4354,556.2678 L345.3,562.2598 " fill="none" style="stroke:#181818;stroke-width:0.3;stroke-dasharray:5.0,5.0;"/><path d="M430.5,52.9453 L430.6681,52.9453 L430.1685,58.9372 L430.6546,64.9292 L430.8197,70.9211 L429.9293,76.9131 L430.4378,82.905 L430.1588,88.8969 L430.1932,94.8889 L430.4455,100.8808 L429.9469,106.8727 L430.9429,112.8647 L429.9958,118.8566 L430.3418,124.8485 L430.8456,130.8405 L430.4314,136.8324 L430.5546,142.8243 L430.4744,148.8163 L430.6428,154.8082 L430.6913,160.8001 L430.9686,166.7921 L431.0368,172.784 L431.0434,178.7759 L430.7037,184.7679 L430.8709,190.7598 L431.0618,196.7517 L429.9231,202.7437 L431.0428,208.7356 L430.2628,214.7276 L430.927,220.7195 L430.104,226.7114 L430.4452,232.7034 L431.0933,238.6953 L430.461,244.6872 L430.5842,250.6792 L430.7709,256.6711 L430.833,262.663 L430.4969,268.655 L430.7298,274.6469 L430.0421,280.6388 L430.7275,286.6308 L430.9386,292.6227 L430.8556,298.6146 L430.9904,304.6066 L430.1135,310.5985 L429.9783,316.5904 L430.0029,322.5824 L430.4529,328.5743 L430.3428,334.5662 L431.0451,340.5582 L430.3603,346.5501 L430.2256,352.542 L430.6826,358.534 L429.9665,364.5259 L430.0847,370.5179 L431.0192,376.5098 L430.8485,382.5017 L431.0876,388.4937 L430.2426,394.4856 L430.7554,400.4775 L430.9723,406.4695 L430.1221,412.4614 L430.4233,418.4533 L430.6008,424.4453 L431.0214,430.4372 L430.4966,436.4291 L430.8701,442.4211 L430.057,448.413 L429.9582,454.4049 L430.9029,460.3969 L429.9264,466.3888 L430.9072,472.3807 L430.6653,478.3727 L430.2857,484.3646 L430.217,490.3565 L430.867,496.3485 L430.2605,502.3404 L430.9735,508.3324 L430.0578,514.3243 L430.9939,520.3162 L430.8874,526.3082 L430.696,532.3001 L430.5378,538.292 L431.0813,544.284 L430.9909,550.2759 L430.6354,556.2678 L430.5,562.2598 " fill="none" style="stroke:#181818;stroke-width:0.3;stroke-dasharray:5.0,5.0;"/><path d="M494.1,52.9453 L494.2681,52.9453 L493.7685,58.9372 L494.2546,64.9292 L494.4197,70.9211 L493.5293,76.9131 L494.0378,82.905 L493.7588,88.8969 L493.7932,94.8889 L494.0455,100.8808 L493.5469,106.8727 L494.5429,112.8647 L493.5958,118.8566 L493.9418,124.8485 L494.4456,130.8405 L494.0314,136.8324 L494.1546,142.8243 L494.0744,148.8163 L494.2428,154.8082 L494.2913,160.8001 L494.5686,166.7921 L494.6368,172.784 L494.6434,178.7759 L494.3037,184.7679 L494.4709,190.7598 L494.6618,196.7517 L493.5231,202.7437 L494.6428,208.7356 L493.8628,214.7276 L494.527,220.7195 L493.704,226.7114 L494.0452,232.7034 L494.6933,238.6953 L494.061,244.6872 L494.1842,250.6792 L494.3709,256.6711 L494.433,262.663 L494.0969,268.655 L494.3298,274.6469 L493.6421,280.6388 L494.3275,286.6308 L494.5386,292.6227 L494.4556,298.6146 L494.5904,304.6066 L493.7135,310.5985 L493.5783,316.5904 L493.6029,322.5824 L494.0529,328.5743 L493.9428,334.5662 L494.6451,340.5582 L493.9603,346.5501 L493.8256,352.542 L494.2826,358.534 L493.5665,364.5259 L493.6847,370.5179 L494.6192,376.5098 L494.4485,382.5017 L494.6876,388.4937 L493.8426,394.4856 L494.3554,400.4775 L494.5723,406.4695 L493.7221,412.4614 L494.0233,418.4533 L494.2008,424.4453 L494.6214,430.4372 L494.0966,436.4291 L494.4701,442.4211 L493.657,448.413 L493.5582,454.4049 L494.5029,460.3969 L493.5264,466.3888 L494.5072,472.3807 L494.2653,478.3727 L493.8857,484.3646 L493.817,490.3565 L494.467,496.3485 L493.8605,502.3404 L494.5735,508.3324 L493.6578,514.3243 L494.5939,520.3162 L494.4874,526.3082 L494.296,532.3001 L494.1378,538.292 L494.6813,544.284 L494.5909,550.2759 L494.2354,556.2678 L494.1,562.2598 " fill="none" style="stroke:#181818;stroke-width:0.3;stroke-dasharray:5.0,5.0;"/><path d="M553.5,52.9453 L553.6681,52.9453 L553.1685,58.9372 L553.6546,64.9292 L553.8197,70.9211 L552.9293,76.9131 L553.4378,82.905 L553.1588,88.8969 L553.1932,94.8889 L553.4455,100.8808 L552.9469,106.8727 L553.9429,112.8647 L552.9958,118.8566 L553.3418,124.8485 L553.8456,130.8405 L553.4314,136.8324 L553.5546,142.8243 L553.4744,148.8163 L553.6428,154.8082 L553.6913,160.8001 L553.9686,166.7921 L554.0368,172.784 L554.0434,178.7759 L553.7037,184.7679 L553.8709,190.7598 L554.0618,196.7517 L552.9231,202.7437 L554.0428,208.7356 L553.2628,214.7276 L553.927,220.7195 L553.104,226.7114 L553.4452,232.7034 L554.0933,238.6953 L553.461,244.6872 L553.5842,250.6792 L553.7709,256.6711 L553.833,262.663 L553.4969,268.655 L553.7298,274.6469 L553.0421,280.6388 L553.7275,286.6308 L553.9386,292.6227 L553.8556,298.6146 L553.9904,304.6066 L553.1135,310.5985 L552.9783,316.5904 L553.0029,322.5824 L553.4529,328.5743 L553.3428,334.5662 L554.0451,340.5582 L553.3603,346.5501 L553.2256,352.542 L553.6826,358.534 L552.9665,364.5259 L553.0847,370.5179 L554.0192,376.5098 L553.8485,382.5017 L554.0876,388.4937 L553.2426,394.4856 L553.7554,400.4775 L553.9723,406.4695 L553.1221,412.4614 L553.4233,418.4533 L553.6008,424.4453 L554.0214,430.4372 L553.4966,436.4291 L553.8701,442.4211 L553.057,448.413 L552.9582,454.4049 L553.9029,460.3969 L552.9264,466.3888 L553.9072,472.3807 L553.6653,478.3727 L553.2857,484.3646 L553.217,490.3565 L553.867,496.3485 L553.2605,502.3404 L553.9735,508.3324 L553.0578,514.3243 L553.9939,520.3162 L553.8874,526.3082 L553.696,532.3001 L553.5378,538.292 L554.0813,544.284 L553.9909,550.2759 L553.6354,556.2678 L553.5,562.2598 " fill="none" style="stroke:#181818;stroke-width:0.3;stroke-dasharray:5.0,5.0;"/><text fill="#000000" font-family="FG Virgil" font-size="8.4" lengthAdjust="spacing" textLength="54.6" x="3" y="50.8371">MenuManager</text><polygon fill="#E3E3E3" points="36.9265,12.0402,36.2229,13.0016,35.3907,14.4097,34.2005,15.3586,32.9498,15.8776,31.9525,15.9226,30.6708,15.2736,29.4614,14.8496,28.5434,13.9888,28.0619,13.0033,27.7764,12.2186,27.4966,11.1937,27.0425,10.3117,27.3915,9.4505,27.6972,8.5072,28.8444,7.7612,29.6515,6.7931,30.6506,6.4717,31.8382,6.1949,33.3613,6.3593,34.1955,6.7527,35.1653,6.9311,36.3446,8.1393,36.7557,9.4147,36.9343,10.285,36.732,11.7191" style="stroke:#181818;stroke-width:0.3;"/><path d="M32.1,15.6727 L32.2121,15.6727 L31.879,18.9127 L32.2031,22.1527 L32.3132,25.3927 L31.7195,28.6327 L32.1,31.8727 M24.3,20.4727 L24.3,20.4312 L27.42,20.2452 L30.54,20.2681 L33.66,20.4363 L36.78,20.1039 L39.9,20.4727 M32.1,31.8727 L32.3231,32.066 L30.286,33.4525 L28.9003,35.4036 L27.5941,37.4235 L25.8254,39.0427 L24.3,40.8727 M32.1,31.8727 L32.1275,31.8965 L33.6471,33.6615 L35.292,35.535 L36.8764,37.3562 L38.5761,39.2772 L39.9,40.8727 " fill="none" style="stroke:#181818;stroke-width:0.3;"/><text fill="#000000" font-family="FG Virgil" font-size="8.4" lengthAdjust="spacing" textLength="54.6" x="3" y="570.7242">MenuManager</text><polygon fill="#E3E3E3" points="36.9265,579.1,36.2229,580.0613,35.3907,581.4695,34.2005,582.4184,32.9498,582.9373,31.9525,582.9824,30.6708,582.3334,29.4614,581.9094,28.5434,581.0486,28.0619,580.0631,27.7764,579.2784,27.4966,578.2535,27.0425,577.3715,27.3915,576.5103,27.6972,575.567,28.8444,574.8209,29.6515,573.8529,30.6506,573.5315,31.8382,573.2546,33.3613,573.4191,34.1955,573.8125,35.1653,573.9908,36.3446,575.199,36.7557,576.4745,36.9343,577.3448,36.732,578.7789" style="stroke:#181818;stroke-width:0.3;"/><path d="M32.1,582.7324 L32.2121,582.7324 L31.879,585.9724 L32.2031,589.2124 L32.3132,592.4524 L31.7195,595.6924 L32.1,598.9324 M24.3,587.5324 L24.3,587.491 L27.42,587.305 L30.54,587.3279 L33.66,587.4961 L36.78,587.1637 L39.9,587.5324 M32.1,598.9324 L32.3231,599.1258 L30.286,600.5123 L28.9003,602.4633 L27.5941,604.4833 L25.8254,606.1025 L24.3,607.9324 M32.1,598.9324 L32.1275,598.9563 L33.6471,600.7213 L35.292,602.5948 L36.8764,604.416 L38.5761,606.337 L39.9,607.9324 " fill="none" style="stroke:#181818;stroke-width:0.3;"/><polygon fill="#E3E3E3" points="138.9,21.6,138.9,21.7261,145.14,21.3514,151.38,21.716,157.62,21.8398,163.86,21.172,170.1,21.5534,176.34,21.3441,182.58,21.3699,188.82,21.5591,195.06,21.1852,201.3,21.6,201.3424,21.7023,201.4639,21.5714,201.7091,21.7392,201.9695,21.9434,202.142,21.9356,202.3607,22.0393,202.3733,22.0446,202.4426,22.249,202.5694,22.4773,202.6685,22.694,202.8204,22.9327,202.8,23.1,203.2026,23.1,203.2076,28.6491,202.9528,34.1981,203.0782,39.7472,203.2213,45.2963,202.8,50.8453,202.6667,50.7901,202.8375,51.1094,202.5695,51.2469,202.635,51.5226,202.3571,51.656,202.3607,51.906,202.3554,51.8933,202.2053,52.1309,201.9327,52.0727,201.7323,52.189,201.538,52.32,201.3,52.3453,201.3,52.5951,195.06,52.343,188.82,52.5176,182.58,52.0019,176.34,52.5159,170.1,52.6742,163.86,52.612,157.62,52.7131,151.38,52.0555,145.14,51.954,138.9,52.3453,138.8524,52.2305,138.6834,52.2466,138.4607,52.1333,138.3158,52.2076,138.0381,51.9616,137.8393,51.906,137.776,51.8797,137.7937,51.7113,137.5404,51.4307,137.4798,51.2298,137.6078,51.1071,137.4,50.8453,137.6614,50.8453,137.8407,45.2963,137.2069,39.7472,137.5915,34.1981,137.7543,28.6491,137.4,23.1,137.3127,23.0638,137.4702,22.8805,137.599,22.6854,137.784,22.5135,137.7507,22.2512,137.8393,22.0393,137.8747,22.1248,138.0091,21.8491,138.2118,21.7385,138.5143,21.8688,138.633,21.5554,138.9,21.6" style="stroke:#181818;stroke-width:0.3;"/><text fill="#000000" font-family="FG Virgil" font-size="8.4" font-style="italic" lengthAdjust="spacing" textLength="57" x="141.6" y="34.8645">&#171;presentation&#187;</text><text fill="#000000" font-family="FG Virgil" font-size="8.4" lengthAdjust="spacing" textLength="54" x="143.1" y="46.0371">ChangeDishUI</text><polygon fill="#E3E3E3" points="138.9,561.6598,138.9,561.7859,145.14,561.4112,151.38,561.7757,157.62,561.8996,163.86,561.2317,170.1,561.6131,176.34,561.4039,182.58,561.4297,188.82,561.6189,195.06,561.2449,201.3,561.6598,201.3424,561.7621,201.4639,561.6312,201.7091,561.799,201.9695,562.0032,202.142,561.9954,202.3607,562.0991,202.3733,562.1043,202.4426,562.3088,202.5694,562.537,202.6685,562.7538,202.8204,562.9925,202.8,563.1598,203.2026,563.1598,203.2076,568.7088,202.9528,574.2579,203.0782,579.807,203.2213,585.356,202.8,590.9051,202.6667,590.8499,202.8375,591.1691,202.5695,591.3066,202.635,591.5823,202.3571,591.7157,202.3607,591.9657,202.3554,591.9531,202.2053,592.1906,201.9327,592.1325,201.7323,592.2488,201.538,592.3798,201.3,592.4051,201.3,592.6548,195.06,592.4027,188.82,592.5774,182.58,592.0616,176.34,592.5757,170.1,592.734,163.86,592.6718,157.62,592.7729,151.38,592.1152,145.14,592.0138,138.9,592.4051,138.8524,592.2903,138.6834,592.3063,138.4607,592.193,138.3158,592.2674,138.0381,592.0213,137.8393,591.9657,137.776,591.9395,137.7937,591.7711,137.5404,591.4904,137.4798,591.2896,137.6078,591.1669,137.4,590.9051,137.6614,590.9051,137.8407,585.356,137.2069,579.807,137.5915,574.2579,137.7543,568.7088,137.4,563.1598,137.3127,563.1236,137.4702,562.9403,137.599,562.7451,137.784,562.5733,137.7507,562.3109,137.8393,562.0991,137.8747,562.1846,138.0091,561.9089,138.2118,561.7982,138.5143,561.9286,138.633,561.6152,138.9,561.6598" style="stroke:#181818;stroke-width:0.3;"/><text fill="#000000" font-family="FG Virgil" font-size="8.4" font-style="italic" lengthAdjust="spacing" textLength="57" x="141.6" y="574.9242">&#171;presentation&#187;</text><text fill="#000000" font-family="FG Virgil" font-size="8.4" lengthAdjust="spacing" textLength="54" x="143.1" y="586.0969">ChangeDishUI</text><polygon fill="#E3E3E3" points="300.6,21.6,300.6,21.7261,306.56,21.3514,312.52,21.716,318.48,21.8398,324.44,21.172,330.4,21.5534,336.36,21.3441,342.32,21.3699,348.28,21.5591,354.24,21.1852,360.2,21.9322,366.16,21.2218,372.12,21.4813,378.08,21.8592,384.04,21.5485,390,21.6,390.0052,21.6126,390.2097,21.682,390.4379,21.8087,390.6547,21.9078,390.8934,22.0597,391.0607,22.0393,391.1847,22.0907,391.274,22.3035,391.2834,22.4831,391.4099,22.7112,391.5419,22.9416,391.5,23.1,391.0673,23.1,391.9071,28.6491,391.3221,34.1981,391.8203,39.7472,391.203,45.2963,391.5,50.8453,391.4873,50.8401,391.5492,51.1142,391.3153,51.2658,391.2559,51.4898,391.2111,51.7198,391.0607,51.906,391.0925,51.9829,390.8482,51.9931,390.6584,52.1348,390.3805,52.0638,390.2339,52.31,390,52.3453,390,52.6742,384.04,52.612,378.08,52.7131,372.12,52.0555,366.16,51.954,360.2,51.9725,354.24,52.31,348.28,52.2274,342.32,52.7542,336.36,52.2405,330.4,52.1395,324.44,52.4823,318.48,51.9452,312.52,52.0338,306.56,52.7347,300.6,52.3453,300.6333,52.4258,300.4441,52.3932,300.1511,52.1101,299.988,52.1407,299.7967,52.1029,299.5393,51.906,299.4521,51.8698,299.4338,51.6865,299.3869,51.4914,299.3962,51.3195,299.1871,51.0571,299.1,50.8453,299.3775,50.8453,298.7677,45.2963,298.6936,39.7472,299.4022,34.1981,298.6698,28.6491,299.1,23.1,299.194,23.139,299.226,22.9037,299.2262,22.6552,299.2982,22.4365,299.5362,22.2866,299.5393,22.0393,299.5164,21.984,299.7968,22.0608,299.9213,21.7615,300.223,21.8898,300.4249,21.7774,300.6,21.6" style="stroke:#181818;stroke-width:0.3;"/><text fill="#000000" font-family="FG Virgil" font-size="8.4" font-style="italic" lengthAdjust="spacing" textLength="50.4" x="320.1" y="34.8645">&#171;application&#187;</text><text fill="#000000" font-family="FG Virgil" font-size="8.4" lengthAdjust="spacing" textLength="84" x="303.3" y="46.0371">ChangeDishController</text><polygon fill="#E3E3E3" points="300.6,561.6598,300.6,561.7859,306.56,561.4112,312.52,561.7757,318.48,561.8996,324.44,561.2317,330.4,561.6131,336.36,561.4039,342.32,561.4297,348.28,561.6189,354.24,561.2449,360.2,561.992,366.16,561.2816,372.12,561.5411,378.08,561.9189,384.04,561.6083,390,561.6598,390.0052,561.6724,390.2097,561.7417,390.4379,561.8685,390.6547,561.9676,390.8934,562.1195,391.0607,562.0991,391.1847,562.1505,391.274,562.3632,391.2834,562.5429,391.4099,562.771,391.5419,563.0014,391.5,563.1598,391.0673,563.1598,391.9071,568.7088,391.3221,574.2579,391.8203,579.807,391.203,585.356,391.5,590.9051,391.4873,590.8998,391.5492,591.174,391.3153,591.3256,391.2559,591.5495,391.2111,591.7795,391.0607,591.9657,391.0925,592.0426,390.8482,592.0529,390.6584,592.1945,390.3805,592.1236,390.2339,592.3698,390,592.4051,390,592.734,384.04,592.6718,378.08,592.7729,372.12,592.1152,366.16,592.0138,360.2,592.0322,354.24,592.3697,348.28,592.2872,342.32,592.8139,336.36,592.3003,330.4,592.1992,324.44,592.542,318.48,592.005,312.52,592.0936,306.56,592.7944,300.6,592.4051,300.6333,592.4856,300.4441,592.4529,300.1511,592.1699,299.988,592.2005,299.7967,592.1627,299.5393,591.9657,299.4521,591.9296,299.4338,591.7463,299.3869,591.5511,299.3962,591.3792,299.1871,591.1169,299.1,590.9051,299.3775,590.9051,298.7677,585.356,298.6936,579.807,299.4022,574.2579,298.6698,568.7088,299.1,563.1598,299.194,563.1987,299.226,562.9634,299.2262,562.715,299.2982,562.4963,299.5362,562.3463,299.5393,562.0991,299.5164,562.0438,299.7968,562.1206,299.9213,561.8212,300.223,561.9496,300.4249,561.8371,300.6,561.6598" style="stroke:#181818;stroke-width:0.3;"/><text fill="#000000" font-family="FG Virgil" font-size="8.4" font-style="italic" lengthAdjust="spacing" textLength="50.4" x="320.1" y="574.9242">&#171;application&#187;</text><text fill="#000000" font-family="FG Virgil" font-size="8.4" lengthAdjust="spacing" textLength="84" x="303.3" y="586.0969">ChangeDishController</text><polygon fill="#E3E3E3" points="399,21.6,399,21.7261,404.7818,21.3514,410.5636,21.716,416.3455,21.8398,422.1273,21.172,427.9091,21.5534,433.6909,21.3441,439.4727,21.3699,445.2545,21.5591,451.0364,21.1852,456.8182,21.9322,462.6,21.6,462.5518,21.4835,462.797,21.6513,463.0573,21.8555,463.2298,21.8478,463.4538,21.9641,463.6607,22.0393,463.6548,22.0369,463.7815,22.2651,463.8806,22.4819,464.0325,22.7206,464.1361,22.9392,464.1,23.1,464.5076,23.1,464.2528,28.6491,464.3782,34.1981,464.5213,39.7472,463.6673,45.2963,464.1,50.8453,464.2254,50.8972,463.9573,51.0348,464.0229,51.3104,463.7449,51.4438,463.7359,51.6886,463.6607,51.906,463.7174,52.043,463.4448,51.9848,463.2445,52.1012,463.0502,52.2321,462.844,52.3344,462.6,52.3453,462.6,52.343,456.8182,52.5176,451.0364,52.0019,445.2545,52.5159,439.4727,52.6742,433.6909,52.612,427.9091,52.7131,422.1273,52.0555,416.3455,51.954,410.5636,51.9725,404.7818,52.31,399,52.3453,398.985,52.309,398.84,52.3834,398.5624,52.1373,398.3373,52.0183,398.1689,52.036,397.9393,51.906,397.8161,51.8549,397.7556,51.6541,397.8835,51.5314,397.7562,51.3029,397.7236,51.1137,397.5,50.8453,397.3069,50.8453,397.6915,45.2963,397.8543,39.7472,397.2166,34.1981,397.4425,28.6491,397.5,23.1,397.5233,23.1096,397.7083,22.9378,397.675,22.6754,397.8491,22.499,397.7491,22.2091,397.9393,22.0393,397.8875,21.9142,398.19,22.0445,398.3087,21.7311,398.6147,21.8698,398.8037,21.726,399,21.6" style="stroke:#181818;stroke-width:0.3;"/><text fill="#000000" font-family="FG Virgil" font-size="8.4" font-style="italic" lengthAdjust="spacing" textLength="50.4" x="405.6" y="34.8645">&#171;application&#187;</text><text fill="#000000" font-family="FG Virgil" font-size="8.4" lengthAdjust="spacing" textLength="58.2" x="401.7" y="46.0371">ListDishService</text><polygon fill="#E3E3E3" points="399,561.6598,399,561.7859,404.7818,561.4112,410.5636,561.7757,416.3455,561.8996,422.1273,561.2317,427.9091,561.6131,433.6909,561.4039,439.4727,561.4297,445.2545,561.6189,451.0364,561.2449,456.8182,561.992,462.6,561.6598,462.5518,561.5433,462.797,561.7111,463.0573,561.9153,463.2298,561.9075,463.4538,562.0238,463.6607,562.0991,463.6548,562.0967,463.7815,562.3249,463.8806,562.5417,464.0325,562.7803,464.1361,562.999,464.1,563.1598,464.5076,563.1598,464.2528,568.7088,464.3782,574.2579,464.5213,579.807,463.6673,585.356,464.1,590.9051,464.2254,590.957,463.9573,591.0945,464.0229,591.3702,463.7449,591.5036,463.7359,591.7484,463.6607,591.9657,463.7174,592.1028,463.4448,592.0446,463.2445,592.1609,463.0502,592.2919,462.844,592.3941,462.6,592.4051,462.6,592.4027,456.8182,592.5774,451.0364,592.0616,445.2545,592.5757,439.4727,592.734,433.6909,592.6718,427.9091,592.7729,422.1273,592.1152,416.3455,592.0138,410.5636,592.0322,404.7818,592.3697,399,592.4051,398.985,592.3688,398.84,592.4431,398.5624,592.1971,398.3373,592.0781,398.1689,592.0958,397.9393,591.9657,397.8161,591.9147,397.7556,591.7139,397.8835,591.5911,397.7562,591.3627,397.7236,591.1734,397.5,590.9051,397.3069,590.9051,397.6915,585.356,397.8543,579.807,397.2166,574.2579,397.4425,568.7088,397.5,563.1598,397.5233,563.1694,397.7083,562.9975,397.675,562.7352,397.8491,562.5588,397.7491,562.2689,397.9393,562.0991,397.8875,561.974,398.19,562.1043,398.3087,561.7909,398.6147,561.9295,398.8037,561.7858,399,561.6598" style="stroke:#181818;stroke-width:0.3;"/><text fill="#000000" font-family="FG Virgil" font-size="8.4" font-style="italic" lengthAdjust="spacing" textLength="50.4" x="405.6" y="574.9242">&#171;application&#187;</text><text fill="#000000" font-family="FG Virgil" font-size="8.4" lengthAdjust="spacing" textLength="58.2" x="401.7" y="586.0969">ListDishService</text><polygon fill="#E3E3E3" points="472.8,21.6,472.8,21.7261,478.8857,21.3514,484.9714,21.716,491.0571,21.8398,497.1429,21.172,503.2286,21.5534,509.3143,21.3441,515.4,21.6,515.3706,21.5291,515.6069,21.6753,515.7713,21.648,516.0788,21.9659,516.2003,21.835,516.4607,22.0393,516.4241,22.0242,516.6283,22.2845,516.6205,22.457,516.7369,22.681,516.8062,22.8854,516.9,23.1,517.0071,23.1,517.0435,28.6491,517.2514,34.1981,517.3026,39.7472,517.3076,45.2963,516.9,50.8453,516.947,50.8648,516.8978,51.0929,516.854,51.3233,516.5031,51.4265,516.6739,51.7458,516.4607,51.906,516.438,51.8512,516.2894,52.0925,515.9985,51.9902,515.819,52.1569,515.6689,52.3945,515.4,52.3453,515.4,52.3161,509.3143,52.4085,503.2286,52.5485,497.1429,52.5951,491.0571,52.343,484.9714,52.5176,478.8857,52.0019,472.8,52.3453,472.8218,52.3979,472.6298,52.3587,472.4098,52.2517,472.2105,52.195,471.9145,51.9046,471.7393,51.906,471.6188,51.8561,471.5367,51.6463,471.5527,51.4772,471.4394,51.2545,471.5138,51.1096,471.3,50.8453,471.1952,50.8453,471.0942,45.2963,471.437,39.7472,470.8999,34.1981,470.9885,28.6491,471.3,23.1,471.4199,23.1497,471.4684,22.9212,471.6115,22.732,471.5041,22.439,471.7105,22.2759,471.7393,22.0393,471.7845,22.1484,471.9153,21.8642,472.1563,21.8459,472.3854,21.799,472.6378,21.8083,472.8,21.6" style="stroke:#181818;stroke-width:0.3;"/><text fill="#000000" font-family="FG Virgil" font-size="8.4" font-style="italic" lengthAdjust="spacing" textLength="37.2" x="475.5" y="34.8645">&#171;domain&#187;</text><text fill="#000000" font-family="FG Virgil" font-size="8.4" lengthAdjust="spacing" textLength="34.8" x="476.7" y="46.0371">dish:Dish</text><polygon fill="#E3E3E3" points="472.8,561.6598,472.8,561.7859,478.8857,561.4112,484.9714,561.7757,491.0571,561.8996,497.1429,561.2317,503.2286,561.6131,509.3143,561.4039,515.4,561.6598,515.3706,561.5889,515.6069,561.735,515.7713,561.7078,516.0788,562.0257,516.2003,561.8948,516.4607,562.0991,516.4241,562.084,516.6283,562.3443,516.6205,562.5168,516.7369,562.7407,516.8062,562.9452,516.9,563.1598,517.0071,563.1598,517.0435,568.7088,517.2514,574.2579,517.3026,579.807,517.3076,585.356,516.9,590.9051,516.947,590.9246,516.8978,591.1527,516.854,591.3831,516.5031,591.4863,516.6739,591.8055,516.4607,591.9657,516.438,591.911,516.2894,592.1522,515.9985,592.05,515.819,592.2167,515.6689,592.4542,515.4,592.4051,515.4,592.3758,509.3143,592.4683,503.2286,592.6083,497.1429,592.6548,491.0571,592.4027,484.9714,592.5774,478.8857,592.0616,472.8,592.4051,472.8218,592.4576,472.6298,592.4185,472.4098,592.3115,472.2105,592.2547,471.9145,591.9643,471.7393,591.9657,471.6188,591.9158,471.5367,591.706,471.5527,591.537,471.4394,591.3143,471.5138,591.1694,471.3,590.9051,471.1952,590.9051,471.0942,585.356,471.437,579.807,470.8999,574.2579,470.9885,568.7088,471.3,563.1598,471.4199,563.2094,471.4684,562.981,471.6115,562.7917,471.5041,562.4987,471.7105,562.3357,471.7393,562.0991,471.7845,562.2082,471.9153,561.9239,472.1563,561.9057,472.3854,561.8588,472.6378,561.8681,472.8,561.6598" style="stroke:#181818;stroke-width:0.3;"/><text fill="#000000" font-family="FG Virgil" font-size="8.4" font-style="italic" lengthAdjust="spacing" textLength="37.2" x="475.5" y="574.9242">&#171;domain&#187;</text><text fill="#000000" font-family="FG Virgil" font-size="8.4" lengthAdjust="spacing" textLength="34.8" x="476.7" y="586.0969">dish:Dish</text><text fill="#000000" font-family="FG Virgil" font-size="8.4" font-style="italic" lengthAdjust="spacing" textLength="47.4" x="528" y="39.6645">&#171;repository&#187;</text><text fill="#000000" font-family="FG Virgil" font-size="8.4" lengthAdjust="spacing" textLength="57.6" x="522.9" y="50.8371">DishRepository</text><path d="M542.7,9 L542.7,9 L542.7391,9.0402 L543.703,7.8708 L544.8959,6.937 L546.0143,5.9264 L546.8874,4.6636 L548.1,3.75 L548.0971,3.7295 L549.1644,3.4873 L550.2459,3.3487 L551.3375,3.282 L552.3946,2.9674 L553.5,3 L553.5,3 L553.5203,3.1462 L554.5569,2.9835 L555.6527,3.2478 L556.7558,3.5641 L557.8169,3.5773 L558.9,3.75 L558.9127,3.763 L559.9741,4.7939 L561.0932,5.8841 L562.1845,6.9457 L563.3289,8.062 L564.3,9 L564.6579,9 L564.6623,12.12 L564.4358,15.24 L564.5472,18.36 L564.6745,21.48 L564.3,24.6 L564.3,24.6 L564.1659,24.4621 L563.3461,25.7797 L562.0849,26.6433 L561.1592,27.8521 L559.888,28.7054 L558.9,29.85 L558.8975,29.8319 L557.8472,30.1959 L556.7382,30.1371 L555.6639,30.3278 L554.5924,30.5394 L553.5,30.6 L553.5,30.6 L553.5153,30.7099 L552.4199,30.449 L551.3505,30.3759 L550.239,29.9988 L549.1904,30.0751 L548.1,29.85 L548.2019,29.9548 L547.1026,28.885 L546.054,27.8672 L544.7702,26.6076 L543.6588,25.5253 L542.7,24.6 L542.3686,24.6 L542.6686,21.48 L542.5952,18.36 L543.0634,15.24 L542.6068,12.12 L542.7,9 " fill="#E3E3E3" style="stroke:#181818;stroke-width:0.8999999999999999;"/><path d="M542.7,9 L542.7,9 L542.7391,9.0402 L543.703,9.9708 L544.8959,11.137 L546.0143,12.2264 L546.8874,13.0636 L548.1,14.25 L548.0971,14.2295 L549.1644,14.2873 L550.2459,14.4487 L551.3375,14.682 L552.3946,14.6674 L553.5,15 L553.5,15 L553.5203,15.1462 L554.5569,14.6835 L555.6527,14.6478 L556.7558,14.6641 L557.8169,14.3773 L558.9,14.25 L558.9127,14.263 L559.9741,13.1939 L561.0932,12.1841 L562.1845,11.1457 L563.3289,10.162 L564.3,9 " fill="none" style="stroke:#181818;stroke-width:0.8999999999999999;"/><text fill="#000000" font-family="FG Virgil" font-size="8.4" font-style="italic" lengthAdjust="spacing" textLength="47.4" x="528" y="570.7242">&#171;repository&#187;</text><text fill="#000000" font-family="FG Virgil" font-size="8.4" lengthAdjust="spacing" textLength="57.6" x="522.9" y="581.8969">DishRepository</text><path d="M542.7,590.0051 L542.7,590.0051 L542.7391,590.0453 L543.703,588.8759 L544.8959,587.942 L546.0143,586.9315 L546.8874,585.6687 L548.1,584.7551 L548.0971,584.7346 L549.1644,584.4924 L550.2459,584.3538 L551.3375,584.2871 L552.3946,583.9725 L553.5,584.0051 L553.5,584.0051 L553.5203,584.1513 L554.5569,583.9886 L555.6527,584.2528 L556.7558,584.5692 L557.8169,584.5824 L558.9,584.7551 L558.9127,584.7681 L559.9741,585.799 L561.0932,586.8892 L562.1845,587.9508 L563.3289,589.0671 L564.3,590.0051 L564.6579,590.0051 L564.6623,593.1251 L564.4358,596.2451 L564.5472,599.3651 L564.6745,602.4851 L564.3,605.6051 L564.3,605.6051 L564.1659,605.4672 L563.3461,606.7848 L562.0849,607.6484 L561.1592,608.8571 L559.888,609.7104 L558.9,610.8551 L558.8975,610.837 L557.8472,611.201 L556.7382,611.1422 L555.6639,611.3329 L554.5924,611.5445 L553.5,611.6051 L553.5,611.6051 L553.5153,611.715 L552.4199,611.454 L551.3505,611.3809 L550.239,611.0039 L549.1904,611.0802 L548.1,610.8551 L548.2019,610.9599 L547.1026,609.8901 L546.054,608.8723 L544.7702,607.6127 L543.6588,606.5304 L542.7,605.6051 L542.3686,605.6051 L542.6686,602.4851 L542.5952,599.3651 L543.0634,596.2451 L542.6068,593.1251 L542.7,590.0051 " fill="#E3E3E3" style="stroke:#181818;stroke-width:0.8999999999999999;"/><path d="M542.7,590.0051 L542.7,590.0051 L542.7391,590.0453 L543.703,590.9759 L544.8959,592.142 L546.0143,593.2315 L546.8874,594.0687 L548.1,595.2551 L548.0971,595.2346 L549.1644,595.2924 L550.2459,595.4538 L551.3375,595.6871 L552.3946,595.6725 L553.5,596.0051 L553.5,596.0051 L553.5203,596.1513 L554.5569,595.6886 L555.6527,595.6528 L556.7558,595.6692 L557.8169,595.3824 L558.9,595.2551 L558.9127,595.2681 L559.9741,594.199 L561.0932,593.1892 L562.1845,592.1508 L563.3289,591.1671 L564.3,590.0051 " fill="none" style="stroke:#181818;stroke-width:0.8999999999999999;"/><polygon fill="#FFFFFF" points="167.1,72.9199,167.1,72.962,168.3,72.8371,169.5,72.9586,170.7,72.9999,171.9,72.7772,173.1,72.9199,173.0534,72.9199,172.8441,78.9017,172.8699,84.8834,173.0591,90.8652,172.6852,96.8469,173.4322,102.8287,172.7218,108.8104,172.9813,114.7922,173.3592,120.7739,173.0485,126.7557,173.1409,132.7374,173.0808,138.7192,173.2071,144.7009,173.2435,150.6826,173.4514,156.6644,173.5026,162.6461,173.5076,168.6279,173.2528,174.6096,173.3782,180.5914,173.5213,186.5731,172.6673,192.5549,173.5071,198.5366,172.9221,204.5184,173.4203,210.5001,172.803,216.4819,173.0589,222.4636,173.545,228.4454,173.0708,234.4271,173.1632,240.4089,173.3032,246.3906,173.3497,252.3724,173.0977,258.3541,173.2723,264.3359,172.7565,270.3176,173.2706,276.2994,173.4289,282.2811,173.3667,288.2629,173.4678,294.2446,172.8102,300.2263,172.7087,306.2081,172.7272,312.1898,173.0647,318.1716,172.9821,324.1533,173.5088,330.1351,172.9952,336.1168,172.8942,342.0986,173.237,348.0803,172.6999,354.0621,172.7885,360.0438,173.4894,366.0256,173.3614,372.0073,173.5407,377.9891,172.9069,383.9708,173.2915,389.9526,173.4543,395.9343,172.8166,401.9161,173.0425,407.8978,173.1756,413.8796,173.4911,419.8613,173.0975,425.8431,173.3775,431.8248,172.7677,437.8066,172.6936,443.7883,173.4022,449.77,172.6698,455.7518,173.4054,461.7335,173.224,467.7153,172.9392,473.697,172.8877,479.6788,173.3753,485.6605,172.9204,491.6423,173.4551,497.624,172.7684,503.6058,173.4705,509.5875,173.3906,515.5693,173.247,521.551,173.1283,527.5328,173.536,533.5145,173.4681,539.4963,173.2016,545.478,173.1,551.4598,173.1,551.5134,171.9,551.4337,170.7,551.6031,169.5,551.4907,168.3,551.4943,167.1,551.4598,166.735,551.4598,166.8569,545.478,167.4184,539.4963,167.3579,533.5145,167.0742,527.5328,166.9067,521.551,166.9686,515.5693,166.6883,509.5875,167.3488,503.6058,167.5437,497.624,167.4158,491.6423,167.517,485.6605,167.018,479.6788,167.1523,473.697,166.8674,467.7153,167.2704,461.7335,167.2481,455.7518,167.4314,449.77,166.9622,443.7883,167.0194,437.8066,167.3661,431.8248,167.4404,425.8431,166.7925,419.8613,166.9837,413.8796,167.1896,407.8978,166.7335,401.9161,167.312,395.9343,167.2548,389.9526,167.0395,383.9708,167.1853,377.9891,167.5372,372.0073,166.9123,366.0256,167.289,360.0438,167.2714,354.0621,167.1695,348.0803,167.1846,342.0986,167.1681,336.1168,166.7255,330.1351,166.8595,324.1533,166.8231,318.1716,167.1383,312.1898,167.1529,306.2081,167.197,300.2263,166.9254,294.2446,167.0595,288.2629,167.0279,282.2811,167.4461,276.2994,167.3559,270.3176,166.8087,264.3359,167.0562,258.3541,166.7537,252.3724,167.273,246.3906,167.4651,240.4089,167.4267,234.4271,166.8387,228.4454,167.3784,222.4636,166.6543,216.4819,167.2201,210.5001,166.9204,204.5184,167.158,198.5366,167.2442,192.5549,167.3833,186.5731,166.668,180.5914,167.3853,174.6096,167.2069,168.6279,167.3132,162.6461,167.5487,156.6644,167.1033,150.6826,167.2052,144.7009,167.2281,138.7192,167.2183,132.7374,167.0995,126.7557,167.5264,120.7739,166.7342,114.7922,167.4392,108.8104,166.7256,102.8287,166.7758,96.8469,167.124,90.8652,167.117,84.8834,166.8043,78.9017,167.1,72.9199" style="stroke:#181818;stroke-width:0.6;"/><polygon fill="#FFFFFF" points="342.3,148.0184,342.3,148.0604,343.5,147.9355,344.7,148.057,345.9,148.0983,347.1,147.8757,348.3,148.0184,348.2534,148.0184,348.0441,153.921,348.0699,159.8237,348.2591,165.7263,347.8852,171.6289,348.6322,177.5316,347.9218,183.4342,348.1813,189.3369,348.5592,195.2395,348.2485,201.1422,348.3409,207.0448,348.2808,212.9475,348.4071,218.8501,348.4435,224.7528,348.6514,230.6554,348.7026,236.5581,348.7076,242.4607,348.4528,248.3634,348.5782,254.266,348.7213,260.1687,347.8673,266.0713,348.7071,271.974,348.1221,277.8766,348.6203,283.7793,348.003,289.6819,348.2589,295.5845,348.745,301.4872,348.3,307.3898,348.3,307.3801,347.1,307.4109,345.9,307.4576,344.7,307.4731,343.5,307.3891,342.3,307.3898,342.4723,307.3898,341.9565,301.4872,342.4706,295.5845,342.6289,289.6819,342.5667,283.7793,342.6678,277.8766,342.0102,271.974,341.9087,266.0713,341.9272,260.1687,342.2647,254.266,342.1821,248.3634,342.7088,242.4607,342.1952,236.5581,342.0942,230.6554,342.437,224.7528,341.8999,218.8501,341.9885,212.9475,342.6894,207.0448,342.5614,201.1422,342.7407,195.2395,342.1069,189.3369,342.4915,183.4342,342.6543,177.5316,342.0166,171.6289,342.2425,165.7263,342.3756,159.8237,342.6911,153.921,342.3,148.0184" style="stroke:#181818;stroke-width:0.6;"/><polygon fill="#FFFFFF" points="342.3,363.7137,342.3,363.7557,343.5,363.6308,344.7,363.7523,345.9,363.7936,347.1,363.571,348.3,363.7137,348.2534,363.7137,348.0441,369.4905,348.0699,375.2673,348.2591,381.0441,347.8852,386.8209,348.6322,392.5977,347.9218,398.3745,348.1813,404.1513,348.5592,409.9281,348.2485,415.7049,348.3409,421.4817,348.2808,427.2585,348.4071,433.0353,348.3,438.8121,348.3,438.8599,347.1,438.9292,345.9,438.9463,344.7,438.948,343.5,438.863,342.3,438.8121,342.5782,438.8121,342.7213,433.0353,341.8673,427.2585,342.7071,421.4817,342.1221,415.7049,342.6203,409.9281,342.003,404.1513,342.2589,398.3745,342.745,392.5977,342.2708,386.8209,342.3632,381.0441,342.5032,375.2673,342.5497,369.4905,342.3,363.7137" style="stroke:#181818;stroke-width:0.6;"/><polygon fill="#FFFFFF" points="342.3,457.5867,342.3,457.6288,343.5,457.5039,344.7,457.6254,345.9,457.6667,347.1,457.444,348.3,457.5867,348.2534,457.5867,348.0441,463.3635,348.0699,469.1403,348.2591,474.9171,347.8852,480.6939,348.6322,486.4707,347.9218,492.2475,348.1813,498.0243,348.5592,503.8011,348.2485,509.5779,348.3409,515.3547,348.2808,521.1316,348.4071,526.9084,348.3,532.6852,348.3,532.733,347.1,532.8023,345.9,532.8194,344.7,532.821,343.5,532.7361,342.3,532.6852,342.5782,532.6852,342.7213,526.9084,341.8673,521.1316,342.7071,515.3547,342.1221,509.5779,342.6203,503.8011,342.003,498.0243,342.2589,492.2475,342.745,486.4707,342.2708,480.6939,342.3632,474.9171,342.5032,469.1403,342.5497,463.3635,342.3,457.5867" style="stroke:#181818;stroke-width:0.6;"/><polygon fill="#FFFFFF" points="427.8,199.5422,427.8,199.5842,429,199.4593,430.2,199.5808,431.4,199.6221,432.6,199.3995,433.8,199.5422,433.7534,199.5422,433.5441,205.4804,433.5699,211.4186,433.7591,217.3568,433.3852,223.295,434.1322,229.2332,433.4218,235.1714,433.6813,241.1096,434.0592,247.0478,433.7485,252.986,433.8409,258.9242,433.7808,264.8624,433.9071,270.8006,433.9435,276.7388,434.1514,282.677,433.8,288.6152,433.8,288.7494,432.6,288.7511,431.4,288.6662,430.2,288.708,429,288.7557,427.8,288.6152,427.3673,288.6152,428.2071,282.677,427.6221,276.7388,428.1203,270.8006,427.503,264.8624,427.7589,258.9242,428.245,252.986,427.7708,247.0478,427.8632,241.1096,428.0032,235.1714,428.0497,229.2332,427.7977,223.295,427.9723,217.3568,427.4565,211.4186,427.9706,205.4804,427.8,199.5422" style="stroke:#181818;stroke-width:0.6;"/><polygon fill="#FFFFFF" points="550.5,251.066,550.5,251.1081,551.7,250.9832,552.9,251.1047,554.1,251.146,555.3,250.9233,556.5,251.066,556.4845,251.066,556.4147,254.8209,556.4233,258.5759,556.4864,262.3308,556.3617,266.0857,556.5,269.8406,556.5,269.9514,555.3,269.7146,554.1,269.8011,552.9,269.927,551.7,269.8235,550.5,269.8406,550.5136,269.8406,550.4936,266.0857,550.5357,262.3308,550.5478,258.5759,550.6171,254.8209,550.5,251.066" style="stroke:#181818;stroke-width:0.6;"/><polygon fill="#FFFFFF" points="550.5,401.2629,550.5,401.3049,551.7,401.18,552.9,401.3015,554.1,401.3428,555.3,401.1202,556.5,401.2629,556.4845,401.2629,556.4147,405.0178,556.4233,408.7727,556.4864,412.5277,556.3617,416.2826,556.5,420.0375,556.5,420.1482,555.3,419.9114,554.1,419.9979,552.9,420.1239,551.7,420.0203,550.5,420.0375,550.5136,420.0375,550.4936,416.2826,550.5357,412.5277,550.5478,408.7727,550.6171,405.0178,550.5,401.2629" style="stroke:#181818;stroke-width:0.6;"/><polygon fill="#FFFFFF" points="550.5,495.1359,550.5,495.178,551.7,495.0531,552.9,495.1746,554.1,495.2159,555.3,494.9933,556.5,495.1359,556.4845,495.1359,556.4147,498.8909,556.4233,502.6458,556.4864,506.4007,556.3617,510.1556,556.5,513.9105,556.5,514.0213,555.3,513.7845,554.1,513.871,552.9,513.9969,551.7,513.8934,550.5,513.9105,550.5136,513.9105,550.4936,510.1556,550.5357,506.4007,550.5478,502.6458,550.6171,498.8909,550.5,495.1359" style="stroke:#181818;stroke-width:0.6;"/><polygon fill="#181818" points="159.9,70.5199,159.9156,70.559,161.0692,70.923,162.3144,71.5158,163.5297,72.0341,164.647,72.3074,165.9,72.9199,165.8942,72.9055,164.6683,73.3207,163.4715,73.8087,162.2949,74.3473,161.0486,74.7115,159.9,75.3199,159.9783,75.3982,160.2909,74.7508,160.832,74.332,161.4011,73.941,161.8079,73.3878,162.3,72.9199,162.3097,72.9296,161.8155,72.4354,161.3652,71.9852,160.8938,71.5137,160.4628,71.0828,159.9,70.5199" style="stroke:#181818;stroke-width:0.6;"/><path d="M32.1,72.9199 L32.1,73.0881 L38.0727,72.5885 L44.0455,73.0746 L50.0182,73.2397 L55.9909,72.3492 L61.9636,72.8578 L67.9364,72.5787 L73.9091,72.6131 L79.8818,72.8654 L85.8545,72.3668 L91.8273,73.3628 L97.8,72.4157 L103.7727,72.7617 L109.7455,73.2655 L115.7182,72.8513 L121.6909,72.9745 L127.6636,72.8944 L133.6364,73.0627 L139.6091,73.1112 L145.5818,73.3885 L151.5545,73.4568 L157.5273,73.4633 L163.5,72.9199 " fill="none" style="stroke:#181818;stroke-width:0.6;stroke-dasharray:2.0,2.0;"/><text fill="#000000" font-family="FG Virgil" font-size="7.8" lengthAdjust="spacing" textLength="123.6" x="36.3" y="69.7623">Update Dish Price or Nutritional Info</text><polygon fill="#181818" points="38.7,89.2945,38.7156,89.3336,37.4692,89.6976,36.3144,90.2904,35.1297,90.8087,33.847,91.0821,32.7,91.6945,32.6942,91.6801,33.8683,92.0953,35.0715,92.5833,36.2949,93.1219,37.4486,93.4861,38.7,94.0945,38.7783,94.1728,38.1309,93.5254,37.712,93.1066,37.3211,92.7156,36.7679,92.1624,36.3,91.6945,36.3097,91.7042,36.7755,91.21,37.2852,90.7598,37.7738,90.2883,38.3028,89.8574,38.7,89.2945" style="stroke:#181818;stroke-width:0.6;"/><path d="M35.1,91.6945 L35.1,91.8627 L41.0727,91.3631 L47.0455,91.8492 L53.0182,92.0143 L58.9909,91.1238 L64.9636,91.6324 L70.9364,91.3533 L76.9091,91.3877 L82.8818,91.64 L88.8545,91.1414 L94.8273,92.1374 L100.8,91.1903 L106.7727,91.5363 L112.7455,92.0401 L118.7182,91.6259 L124.6909,91.7491 L130.6636,91.669 L136.6364,91.8374 L142.6091,91.8858 L148.5818,92.1631 L154.5545,92.2314 L160.5273,92.2379 L166.5,91.6945 " fill="none" style="stroke:#181818;stroke-width:0.6;stroke-dasharray:2.0,2.0;"/><text fill="#000000" font-family="FG Virgil" font-size="7.8" lengthAdjust="spacing" textLength="111" x="42.3" y="88.5369">Ask new price, calories and salt</text><polygon fill="#181818" points="159.9,108.0691,159.9156,108.1082,161.0692,108.4722,162.3144,109.065,163.5297,109.5834,164.647,109.8567,165.9,110.4691,165.8942,110.4547,164.6683,110.8699,163.4715,111.3579,162.2949,111.8965,161.0486,112.2608,159.9,112.8691,159.9783,112.9474,160.2909,112.3,160.832,111.8812,161.4011,111.4902,161.8079,110.937,162.3,110.4691,162.3097,110.4788,161.8155,109.9846,161.3652,109.5344,160.8938,109.063,160.4628,108.632,159.9,108.0691" style="stroke:#181818;stroke-width:0.6;"/><path d="M32.1,110.4691 L32.1,110.6373 L38.0727,110.1377 L44.0455,110.6238 L50.0182,110.7889 L55.9909,109.8984 L61.9636,110.407 L67.9364,110.1279 L73.9091,110.1623 L79.8818,110.4146 L85.8545,109.916 L91.8273,110.9121 L97.8,109.9649 L103.7727,110.3109 L109.7455,110.8147 L115.7182,110.4005 L121.6909,110.5237 L127.6636,110.4436 L133.6364,110.612 L139.6091,110.6604 L145.5818,110.9377 L151.5545,111.006 L157.5273,111.0125 L163.5,110.4691 " fill="none" style="stroke:#181818;stroke-width:0.6;stroke-dasharray:2.0,2.0;"/><text fill="#000000" font-family="FG Virgil" font-size="7.8" lengthAdjust="spacing" textLength="79.8" x="36.3" y="107.3115">Price, calories and salt</text><polygon fill="#181818" points="338.1,126.8438,338.1156,126.8828,339.2692,127.2468,340.5144,127.8396,341.7297,128.358,342.847,128.6313,344.1,129.2438,344.0942,129.2293,342.8683,129.6446,341.6715,130.1325,340.4949,130.6711,339.2486,131.0354,338.1,131.6437,338.1783,131.722,338.4909,131.0746,339.032,130.6558,339.6011,130.2648,340.0079,129.7116,340.5,129.2438,340.5097,129.2534,340.0155,128.7592,339.5652,128.309,339.0938,127.8376,338.6628,127.4066,338.1,126.8438" style="stroke:#181818;stroke-width:0.6;"/><path d="M173.1,129.2438 L173.1,129.4119 L179.1214,128.9123 L185.1429,129.3984 L191.1643,129.5635 L197.1857,128.673 L203.2071,129.1816 L209.2286,128.9026 L215.25,128.937 L221.2714,129.1892 L227.2929,128.6907 L233.3143,129.6867 L239.3357,128.7395 L245.3571,129.0855 L251.3786,129.5893 L257.4,129.1751 L263.4214,129.2983 L269.4429,129.2182 L275.4643,129.3866 L281.4857,129.4351 L287.5071,129.7123 L293.5286,129.7806 L299.55,129.7872 L305.5714,129.4475 L311.5929,129.6146 L317.6143,129.8055 L323.6357,128.6668 L329.6571,129.7866 L335.6786,129.0065 L341.7,129.2438 " fill="none" style="stroke:#181818;stroke-width:0.6;"/><text fill="#000000" font-family="FG Virgil" font-size="7.8" lengthAdjust="spacing" textLength="21.6" x="177.3" y="126.0861">create</text><polygon fill="#181818" points="335.1,145.6184,335.1156,145.6574,336.2692,146.0214,337.5144,146.6143,338.7297,147.1326,339.847,147.4059,341.1,148.0184,341.0942,148.0039,339.8683,148.4192,338.6715,148.9071,337.4949,149.4457,336.2486,149.81,335.1,150.4184,335.1783,150.4967,335.4909,149.8492,336.032,149.4304,336.6011,149.0394,337.0079,148.4862,337.5,148.0184,337.5097,148.028,337.0155,147.5338,336.5652,147.0836,336.0938,146.6122,335.6628,146.1812,335.1,145.6184" style="stroke:#181818;stroke-width:0.6;"/><path d="M173.1,148.0184 L173.1,148.1865 L179.0143,147.6869 L184.9286,148.173 L190.8429,148.3381 L196.7571,147.4476 L202.6714,147.9562 L208.5857,147.6772 L214.5,147.7116 L220.4143,147.9638 L226.3286,147.4653 L232.2429,148.4613 L238.1571,147.5141 L244.0714,147.8601 L249.9857,148.3639 L255.9,147.9497 L261.8143,148.073 L267.7286,147.9928 L273.6429,148.1612 L279.5571,148.2097 L285.4714,148.4869 L291.3857,148.5552 L297.3,148.5618 L303.2143,148.2221 L309.1286,148.3892 L315.0429,148.5801 L320.9571,147.4414 L326.8714,148.5612 L332.7857,147.7812 L338.7,148.0184 " fill="none" style="stroke:#181818;stroke-width:0.6;"/><text fill="#000000" font-family="FG Virgil" font-size="7.8" lengthAdjust="spacing" textLength="30.6" x="177.3" y="144.8607">listDish()</text><path d="M351,155.8184 L351.1121,155.8184 L350.779,161.0984 L351.1031,166.3784 L351.2132,171.6584 L350.6195,176.9384 L351,182.2184 L351,182.094 L357.0261,181.536 L363.0522,181.6048 L369.0783,182.1093 L375.1043,181.1122 L381.1304,183.1042 L387.1565,181.2099 L393.1826,181.9019 L399.2087,182.9095 L405.2348,182.0811 L411.2609,182.3275 L417.287,182.1672 L423.313,182.504 L429.3391,182.601 L435.3652,183.1555 L441.3913,183.292 L447.4174,183.3052 L453.4435,182.6258 L459.4696,182.9601 L465.4957,183.3419 L471.5217,181.0645 L477.5478,183.304 L483.5739,181.744 L489.6,182.2184 L489.8847,182.2184 L489.336,178.1384 L489.5635,174.0584 L489.9955,169.9784 L489.574,165.8984 L489.6,161.8184 L489.6397,161.8581 L488.5277,160.7461 L487.357,159.5753 L485.9985,158.2169 L484.9083,157.1267 L483.6,155.8184 L483.6,154.9025 L477.5727,156.2734 L471.5455,156.6955 L465.5182,156.5296 L459.4909,156.7992 L453.4636,155.0454 L447.4364,154.7749 L441.4091,154.8241 L435.3818,155.7242 L429.3545,155.5039 L423.3273,156.9086 L417.3,155.5389 L411.2727,155.2695 L405.2455,156.1836 L399.2182,154.7514 L393.1909,154.9878 L387.1636,156.8567 L381.1364,156.5154 L375.1091,156.9935 L369.0818,155.3035 L363.0545,156.3291 L357.0273,156.763 L351,155.8184 " fill="#FAFAFA" style="stroke:#181818;stroke-width:0.3;"/><path d="M483.6,155.8184 L483.3481,155.8184 L483.5489,157.0184 L483.6672,158.2184 L483.9476,159.4184 L483.5978,160.6184 L483.6,161.8184 L483.6,162.0651 L484.8,161.523 L486,161.4572 L487.2,162.087 L488.4,161.436 L489.6,161.8184 L489.7919,162.0103 L488.4779,160.6963 L487.099,159.3173 L485.8666,158.0849 L484.973,157.1914 L483.6,155.8184 " fill="#FAFAFA" style="stroke:#181818;stroke-width:0.3;"/><text fill="#000000" font-family="FG Virgil" font-size="7.8" lengthAdjust="spacing" textLength="123.6" x="354.6" y="167.2354">hidden authorization user guarantee</text><text fill="#000000" font-family="FG Virgil" font-size="7.8" lengthAdjust="spacing" textLength="76.2" x="354.6" y="177.61">(see specific diagram)</text><polygon fill="#181818" points="420.6,197.1422,420.6156,197.1812,421.7692,197.5453,423.0144,198.1381,424.2297,198.6564,425.347,198.9297,426.6,199.5422,426.5942,199.5278,425.3683,199.943,424.1715,200.431,422.9949,200.9695,421.7486,201.3338,420.6,201.9422,420.6783,202.0205,420.9909,201.3731,421.532,200.9542,422.1011,200.5633,422.5079,200.0101,423,199.5422,423.0097,199.5518,422.5155,199.0577,422.0652,198.6074,421.5938,198.136,421.1628,197.705,420.6,197.1422" style="stroke:#181818;stroke-width:0.6;"/><path d="M348.3,199.5422 L348.3,199.7103 L354.1385,199.2107 L359.9769,199.6968 L365.8154,199.8619 L371.6538,198.9715 L377.4923,199.48 L383.3308,199.201 L389.1692,199.2354 L395.0077,199.4877 L400.8462,198.9891 L406.6846,199.9851 L412.5231,199.038 L418.3615,199.384 L424.2,199.5422 " fill="none" style="stroke:#181818;stroke-width:0.6;"/><text fill="#000000" font-family="FG Virgil" font-size="7.8" lengthAdjust="spacing" textLength="36.6" x="352.5" y="196.3846">allDishes()</text><path d="M436.8,207.3422 L436.9121,207.3422 L436.579,212.6222 L436.9031,217.9022 L437.0132,223.1822 L436.4195,228.4622 L436.8,233.7422 L436.8,233.6178 L442.72,233.0598 L448.64,233.1286 L454.56,233.6331 L460.48,232.636 L466.4,234.628 L472.32,232.7337 L478.24,233.4258 L484.16,234.4333 L490.08,233.6049 L496,233.8514 L501.92,233.6911 L507.84,234.0278 L513.76,234.1248 L519.68,234.6793 L525.6,233.7422 L525.9579,233.7422 L525.9623,229.6622 L525.7358,225.5822 L525.8472,221.5022 L525.9745,217.4222 L525.6,213.3422 L525.328,213.0702 L524.6559,212.3981 L523.0882,210.8304 L522.2013,209.9435 L520.6133,208.3555 L519.6,207.3422 L519.6,207.2326 L513.6857,208.5288 L507.7714,207.2642 L501.8571,207.5107 L495.9429,207.884 L490.0286,208.0082 L484.1143,207.3359 L478.2,207.8017 L472.2857,206.4263 L466.3714,207.7972 L460.4571,208.2193 L454.5429,208.0534 L448.6286,208.323 L442.7143,206.5693 L436.8,207.3422 " fill="#FAFAFA" style="stroke:#181818;stroke-width:0.3;"/><path d="M519.6,207.3422 L519.2522,207.3422 L519.2686,208.5422 L519.5686,209.7422 L519.4952,210.9422 L519.9634,212.1422 L519.6,213.3422 L519.6,213.249 L520.8,213.1592 L522,213.4639 L523.2,212.9865 L524.4,213.0653 L525.6,213.3422 L525.8447,213.5869 L524.5643,212.3065 L523.477,211.2192 L521.8786,209.6208 L520.9204,208.6626 L519.6,207.3422 " fill="#FAFAFA" style="stroke:#181818;stroke-width:0.3;"/><text fill="#000000" font-family="FG Virgil" font-size="7.8" lengthAdjust="spacing" textLength="76.2" x="440.4" y="218.7592">Simplified persistence</text><text fill="#000000" font-family="FG Virgil" font-size="7.8" lengthAdjust="spacing" textLength="76.2" x="440.4" y="229.1338">(see specific diagram)</text><polygon fill="#181818" points="543.3,248.666,543.3156,248.705,544.4692,249.0691,545.7144,249.6619,546.9297,250.1802,548.047,250.4535,549.3,251.066,549.2942,251.0516,548.0683,251.4668,546.8715,251.9548,545.6949,252.4934,544.4486,252.8576,543.3,253.466,543.3783,253.5443,543.6909,252.8969,544.232,252.478,544.8011,252.0871,545.2079,251.5339,545.7,251.066,545.7097,251.0757,545.2155,250.5815,544.7652,250.1313,544.2938,249.6598,543.8628,249.2288,543.3,248.666" style="stroke:#181818;stroke-width:0.6;"/><path d="M433.8,251.066 L433.8,251.2342 L439.7526,250.7346 L445.7053,251.2206 L451.6579,251.3858 L457.6105,250.4953 L463.5632,251.0038 L469.5158,250.7248 L475.4684,250.7592 L481.4211,251.0115 L487.3737,250.5129 L493.3263,251.5089 L499.2789,250.5618 L505.2316,250.9078 L511.1842,251.4116 L517.1368,250.9974 L523.0895,251.1206 L529.0421,251.0405 L534.9947,251.2088 L540.9474,251.2573 L546.9,251.066 " fill="none" style="stroke:#181818;stroke-width:0.6;"/><text fill="#000000" font-family="FG Virgil" font-size="7.8" lengthAdjust="spacing" textLength="25.8" x="438" y="247.9084">findAll()</text><polygon fill="#181818" points="440.4,267.4406,440.4156,267.4797,439.1692,267.8437,438.0144,268.4365,436.8297,268.9548,435.547,269.2282,434.4,269.8406,434.3942,269.8262,435.5683,270.2414,436.7715,270.7294,437.9949,271.268,439.1486,271.6322,440.4,272.2406,440.4783,272.3189,439.8309,271.6715,439.412,271.2527,439.0211,270.8617,438.4679,270.3085,438,269.8406,438.0097,269.8503,438.4755,269.3561,438.9852,268.9059,439.4738,268.4344,440.0028,268.0035,440.4,267.4406" style="stroke:#181818;stroke-width:0.6;"/><path d="M436.8,269.8406 L436.8,270.0088 L442.9105,269.5092 L449.0211,269.9953 L455.1316,270.1604 L461.2421,269.2699 L467.3526,269.7785 L473.4632,269.4994 L479.5737,269.5338 L485.6842,269.7861 L491.7947,269.2875 L497.9053,270.2835 L504.0158,269.3364 L510.1263,269.6824 L516.2368,270.1862 L522.3474,269.772 L528.4579,269.8952 L534.5684,269.8151 L540.6789,269.9834 L546.7895,270.0319 L552.9,269.8406 " fill="none" style="stroke:#181818;stroke-width:0.6;stroke-dasharray:2.0,2.0;"/><text fill="#000000" font-family="FG Virgil" font-size="7.8" lengthAdjust="spacing" textLength="22.8" x="444" y="266.683">dishes</text><polygon fill="#181818" points="354.9,286.2152,354.9156,286.2543,353.6692,286.6183,352.5144,287.2111,351.3297,287.7295,350.047,288.0028,348.9,288.6152,348.8942,288.6008,350.0683,289.016,351.2715,289.504,352.4949,290.0426,353.6486,290.4069,354.9,291.0152,354.9783,291.0935,354.3309,290.4461,353.912,290.0273,353.5211,289.6363,352.9679,289.0831,352.5,288.6152,352.5097,288.6249,352.9755,288.1307,353.4852,287.6805,353.9738,287.2091,354.5028,286.7781,354.9,286.2152" style="stroke:#181818;stroke-width:0.6;"/><path d="M351.3,288.6152 L351.3,288.7834 L357.3692,288.2838 L363.4385,288.7699 L369.5077,288.935 L375.5769,288.0445 L381.6462,288.5531 L387.7154,288.274 L393.7846,288.3084 L399.8538,288.5607 L405.9231,288.0621 L411.9923,289.0581 L418.0615,288.111 L424.1308,288.457 L430.2,288.6152 " fill="none" style="stroke:#181818;stroke-width:0.6;stroke-dasharray:2.0,2.0;"/><text fill="#000000" font-family="FG Virgil" font-size="7.8" lengthAdjust="spacing" textLength="22.8" x="358.5" y="285.4576">dishes</text><polygon fill="#181818" points="179.7,304.9898,179.7156,305.0289,178.4692,305.3929,177.3144,305.9857,176.1297,306.5041,174.847,306.7774,173.7,307.3898,173.6942,307.3754,174.8683,307.7906,176.0715,308.2786,177.2949,308.8172,178.4486,309.1815,179.7,309.7898,179.7783,309.8681,179.1309,309.2207,178.712,308.8019,178.3211,308.4109,177.7679,307.8577,177.3,307.3898,177.3097,307.3995,177.7755,306.9053,178.2852,306.4551,178.7738,305.9837,179.3028,305.5527,179.7,304.9898" style="stroke:#181818;stroke-width:0.6;"/><path d="M176.1,307.3898 L176.1,307.558 L182.1214,307.0584 L188.1429,307.5445 L194.1643,307.7096 L200.1857,306.8191 L206.2071,307.3277 L212.2286,307.0486 L218.25,307.083 L224.2714,307.3353 L230.2929,306.8367 L236.3143,307.8328 L242.3357,306.8856 L248.3571,307.2316 L254.3786,307.7354 L260.4,307.3212 L266.4214,307.4444 L272.4429,307.3643 L278.4643,307.5327 L284.4857,307.5812 L290.5071,307.8584 L296.5286,307.9267 L302.55,307.9332 L308.5714,307.5935 L314.5929,307.7607 L320.6143,307.9516 L326.6357,306.8129 L332.6571,307.9327 L338.6786,307.1526 L344.7,307.3898 " fill="none" style="stroke:#181818;stroke-width:0.6;"/><text fill="#000000" font-family="FG Virgil" font-size="7.8" lengthAdjust="spacing" textLength="22.8" x="183.3" y="304.2322">dishes</text><polygon fill="#181818" points="38.7,323.7645,38.7156,323.8035,37.4692,324.1675,36.3144,324.7603,35.1297,325.2787,33.847,325.552,32.7,326.1645,32.6942,326.15,33.8683,326.5653,35.0715,327.0532,36.2949,327.5918,37.4486,327.9561,38.7,328.5645,38.7783,328.6427,38.1309,327.9953,37.712,327.5765,37.3211,327.1855,36.7679,326.6323,36.3,326.1645,36.3097,326.1741,36.7755,325.6799,37.2852,325.2297,37.7738,324.7583,38.3028,324.3273,38.7,323.7645" style="stroke:#181818;stroke-width:0.6;"/><path d="M35.1,326.1645 L35.1,326.3326 L41.0727,325.833 L47.0455,326.3191 L53.0182,326.4842 L58.9909,325.5937 L64.9636,326.1023 L70.9364,325.8233 L76.9091,325.8577 L82.8818,326.1099 L88.8545,325.6114 L94.8273,326.6074 L100.8,325.6602 L106.7727,326.0062 L112.7455,326.51 L118.7182,326.0958 L124.6909,326.219 L130.6636,326.1389 L136.6364,326.3073 L142.6091,326.3558 L148.5818,326.633 L154.5545,326.7013 L160.5273,326.7079 L166.5,326.1645 " fill="none" style="stroke:#181818;stroke-width:0.6;stroke-dasharray:2.0,2.0;"/><text fill="#000000" font-family="FG Virgil" font-size="7.8" lengthAdjust="spacing" textLength="45.6" x="42.3" y="323.0068">Show Dishes</text><polygon fill="#181818" points="159.9,342.5391,159.9156,342.5781,161.0692,342.9421,162.3144,343.535,163.5297,344.0533,164.647,344.3266,165.9,344.9391,165.8942,344.9246,164.6683,345.3399,163.4715,345.8278,162.2949,346.3664,161.0486,346.7307,159.9,347.3391,159.9783,347.4174,160.2909,346.7699,160.832,346.3511,161.4011,345.9601,161.8079,345.4069,162.3,344.9391,162.3097,344.9487,161.8155,344.4545,161.3652,344.0043,160.8938,343.5329,160.4628,343.1019,159.9,342.5391" style="stroke:#181818;stroke-width:0.6;"/><path d="M32.1,344.9391 L32.1,345.1072 L38.0727,344.6076 L44.0455,345.0937 L50.0182,345.2588 L55.9909,344.3683 L61.9636,344.8769 L67.9364,344.5979 L73.9091,344.6323 L79.8818,344.8845 L85.8545,344.386 L91.8273,345.382 L97.8,344.4348 L103.7727,344.7808 L109.7455,345.2846 L115.7182,344.8704 L121.6909,344.9937 L127.6636,344.9135 L133.6364,345.0819 L139.6091,345.1304 L145.5818,345.4076 L151.5545,345.4759 L157.5273,345.4825 L163.5,344.9391 " fill="none" style="stroke:#181818;stroke-width:0.6;stroke-dasharray:2.0,2.0;"/><text fill="#000000" font-family="FG Virgil" font-size="7.8" lengthAdjust="spacing" textLength="40.2" x="36.3" y="341.7814">Select Dish</text><polygon fill="#181818" points="335.1,361.3137,335.1156,361.3527,336.2692,361.7167,337.5144,362.3096,338.7297,362.8279,339.847,363.1012,341.1,363.7137,341.0942,363.6992,339.8683,364.1145,338.6715,364.6025,337.4949,365.141,336.2486,365.5053,335.1,366.1137,335.1783,366.192,335.4909,365.5445,336.032,365.1257,336.6011,364.7348,337.0079,364.1815,337.5,363.7137,337.5097,363.7233,337.0155,363.2292,336.5652,362.7789,336.0938,362.3075,335.6628,361.8765,335.1,361.3137" style="stroke:#181818;stroke-width:0.6;"/><path d="M173.1,363.7137 L173.1,363.8818 L179.0143,363.3822 L184.9286,363.8683 L190.8429,364.0334 L196.7571,363.143 L202.6714,363.6515 L208.5857,363.3725 L214.5,363.4069 L220.4143,363.6591 L226.3286,363.1606 L232.2429,364.1566 L238.1571,363.2094 L244.0714,363.5555 L249.9857,364.0592 L255.9,363.6451 L261.8143,363.7683 L267.7286,363.6881 L273.6429,363.8565 L279.5571,363.905 L285.4714,364.1822 L291.3857,364.2505 L297.3,364.2571 L303.2143,363.9174 L309.1286,364.0845 L315.0429,364.2755 L320.9571,363.1367 L326.8714,364.2565 L332.7857,363.4765 L338.7,363.7137 " fill="none" style="stroke:#181818;stroke-width:0.6;"/><text fill="#000000" font-family="FG Virgil" font-size="7.8" lengthAdjust="spacing" textLength="99.6" x="177.3" y="360.5561">changeDishPrice(dish, price)</text><polygon fill="#181818" points="486.9,380.0883,486.9156,380.1273,488.0692,380.4913,489.3144,381.0842,490.5297,381.6025,491.647,381.8758,492.9,382.4883,492.8942,382.4739,491.6683,382.8891,490.4715,383.3771,489.2949,383.9156,488.0486,384.2799,486.9,384.8883,486.9783,384.9666,487.2909,384.3191,487.832,383.9003,488.4011,383.5094,488.8079,382.9562,489.3,382.4883,489.3097,382.4979,488.8155,382.0038,488.3652,381.5535,487.8938,381.0821,487.4628,380.6511,486.9,380.0883" style="stroke:#181818;stroke-width:0.6;"/><path d="M348.3,382.4883 L348.3,382.6564 L354.225,382.1568 L360.15,382.6429 L366.075,382.808 L372,381.9176 L377.925,382.4261 L383.85,382.1471 L389.775,382.1815 L395.7,382.4338 L401.625,381.9352 L407.55,382.9312 L413.475,381.9841 L419.4,382.3301 L425.325,382.8338 L431.25,382.4197 L437.175,382.5429 L443.1,382.4627 L449.025,382.6311 L454.95,382.6796 L460.875,382.9568 L466.8,383.0251 L472.725,383.0317 L478.65,382.692 L484.575,382.8591 L490.5,382.4883 " fill="none" style="stroke:#181818;stroke-width:0.6;"/><text fill="#000000" font-family="FG Virgil" font-size="7.8" lengthAdjust="spacing" textLength="73.2" x="352.5" y="379.3307">changePriceTo(price)</text><polygon fill="#181818" points="543.3,398.8629,543.3156,398.9019,544.4692,399.266,545.7144,399.8588,546.9297,400.3771,548.047,400.6504,549.3,401.2629,549.2942,401.2485,548.0683,401.6637,546.8715,402.1517,545.6949,402.6902,544.4486,403.0545,543.3,403.6629,543.3783,403.7412,543.6909,403.0938,544.232,402.6749,544.8011,402.284,545.2079,401.7308,545.7,401.2629,545.7097,401.2725,545.2155,400.7784,544.7652,400.3281,544.2938,399.8567,543.8628,399.4257,543.3,398.8629" style="stroke:#181818;stroke-width:0.6;"/><path d="M348.3,401.2629 L348.3,401.431 L354.3182,400.9314 L360.3364,401.4175 L366.3545,401.5826 L372.3727,400.6922 L378.3909,401.2007 L384.4091,400.9217 L390.4273,400.9561 L396.4455,401.2084 L402.4636,400.7098 L408.4818,401.7058 L414.5,400.7587 L420.5182,401.1047 L426.5364,401.6084 L432.5545,401.1943 L438.5727,401.3175 L444.5909,401.2373 L450.6091,401.4057 L456.6273,401.4542 L462.6455,401.7314 L468.6636,401.7997 L474.6818,401.8063 L480.7,401.4666 L486.7182,401.6338 L492.7364,401.8247 L498.7545,400.6859 L504.7727,401.8057 L510.7909,401.0257 L516.8091,401.6899 L522.8273,400.8669 L528.8455,401.2081 L534.8636,401.8562 L540.8818,401.2239 L546.9,401.2629 " fill="none" style="stroke:#181818;stroke-width:0.6;"/><text fill="#000000" font-family="FG Virgil" font-size="7.8" lengthAdjust="spacing" textLength="34.8" x="352.5" y="398.1053">save(dish)</text><polygon fill="#181818" points="354.9,417.6375,354.9156,417.6765,353.6692,418.0406,352.5144,418.6334,351.3297,419.1517,350.047,419.425,348.9,420.0375,348.8942,420.0231,350.0683,420.4383,351.2715,420.9263,352.4949,421.4648,353.6486,421.8291,354.9,422.4375,354.9783,422.5158,354.3309,421.8684,353.912,421.4495,353.5211,421.0586,352.9679,420.5054,352.5,420.0375,352.5097,420.0472,352.9755,419.553,353.4852,419.1027,353.9738,418.6313,354.5028,418.2003,354.9,417.6375" style="stroke:#181818;stroke-width:0.6;"/><path d="M351.3,420.0375 L351.3,420.2056 L357.2294,419.706 L363.1588,420.1921 L369.0882,420.3572 L375.0176,419.4668 L380.9471,419.9753 L386.8765,419.6963 L392.8059,419.7307 L398.7353,419.983 L404.6647,419.4844 L410.5941,420.4804 L416.5235,419.5333 L422.4529,419.8793 L428.3824,420.3831 L434.3118,419.9689 L440.2412,420.0921 L446.1706,420.0119 L452.1,420.1803 L458.0294,420.2288 L463.9588,420.5061 L469.8882,420.5743 L475.8176,420.5809 L481.7471,420.2412 L487.6765,420.4084 L493.6059,420.5993 L499.5353,419.4606 L505.4647,420.5803 L511.3941,419.8003 L517.3235,420.4645 L523.2529,419.6415 L529.1824,419.9827 L535.1118,420.6308 L541.0412,419.9985 L546.9706,420.1217 L552.9,420.0375 " fill="none" style="stroke:#181818;stroke-width:0.6;stroke-dasharray:2.0,2.0;"/><text fill="#000000" font-family="FG Virgil" font-size="7.8" lengthAdjust="spacing" textLength="14.4" x="358.5" y="416.8799">dish</text><polygon fill="#181818" points="179.7,436.4121,179.7156,436.4511,178.4692,436.8152,177.3144,437.408,176.1297,437.9263,174.847,438.1996,173.7,438.8121,173.6942,438.7977,174.8683,439.2129,176.0715,439.7009,177.2949,440.2395,178.4486,440.6037,179.7,441.2121,179.7783,441.2904,179.1309,440.643,178.712,440.2241,178.3211,439.8332,177.7679,439.28,177.3,438.8121,177.3097,438.8218,177.7755,438.3276,178.2852,437.8774,178.7738,437.4059,179.3028,436.9749,179.7,436.4121" style="stroke:#181818;stroke-width:0.6;"/><path d="M176.1,438.8121 L176.1,438.9803 L182.1214,438.4807 L188.1429,438.9667 L194.1643,439.1319 L200.1857,438.2414 L206.2071,438.7499 L212.2286,438.4709 L218.25,438.5053 L224.2714,438.7576 L230.2929,438.259 L236.3143,439.255 L242.3357,438.3079 L248.3571,438.6539 L254.3786,439.1577 L260.4,438.7435 L266.4214,438.8667 L272.4429,438.7866 L278.4643,438.9549 L284.4857,439.0034 L290.5071,439.2807 L296.5286,439.349 L302.55,439.3555 L308.5714,439.0158 L314.5929,439.183 L320.6143,439.3739 L326.6357,438.2352 L332.6571,439.3549 L338.6786,438.5749 L344.7,438.8121 " fill="none" style="stroke:#181818;stroke-width:0.6;"/><text fill="#000000" font-family="FG Virgil" font-size="7.8" lengthAdjust="spacing" textLength="14.4" x="183.3" y="435.6545">dish</text><polygon fill="#181818" points="335.1,455.1867,335.1156,455.2257,336.2692,455.5898,337.5144,456.1826,338.7297,456.7009,339.847,456.9742,341.1,457.5867,341.0942,457.5723,339.8683,457.9875,338.6715,458.4755,337.4949,459.0141,336.2486,459.3783,335.1,459.9867,335.1783,460.065,335.4909,459.4176,336.032,458.9988,336.6011,458.6078,337.0079,458.0546,337.5,457.5867,337.5097,457.5964,337.0155,457.1022,336.5652,456.652,336.0938,456.1805,335.6628,455.7495,335.1,455.1867" style="stroke:#181818;stroke-width:0.6;"/><path d="M173.1,457.5867 L173.1,457.7549 L179.0143,457.2553 L184.9286,457.7413 L190.8429,457.9065 L196.7571,457.016 L202.6714,457.5245 L208.5857,457.2455 L214.5,457.2799 L220.4143,457.5322 L226.3286,457.0336 L232.2429,458.0296 L238.1571,457.0825 L244.0714,457.4285 L249.9857,457.9323 L255.9,457.5181 L261.8143,457.6413 L267.7286,457.5612 L273.6429,457.7295 L279.5571,457.778 L285.4714,458.0553 L291.3857,458.1236 L297.3,458.1301 L303.2143,457.7904 L309.1286,457.9576 L315.0429,458.1485 L320.9571,457.0098 L326.8714,458.1295 L332.7857,457.3495 L338.7,457.5867 " fill="none" style="stroke:#181818;stroke-width:0.6;"/><text fill="#000000" font-family="FG Virgil" font-size="7.8" lengthAdjust="spacing" textLength="157.8" x="177.3" y="454.4291">changeDishNutricionalInfo(dish, calories, salt)</text><polygon fill="#181818" points="486.9,473.9613,486.9156,474.0004,488.0692,474.3644,489.3144,474.9572,490.5297,475.4755,491.647,475.7489,492.9,476.3613,492.8942,476.3469,491.6683,476.7621,490.4715,477.2501,489.2949,477.7887,488.0486,478.1529,486.9,478.7613,486.9783,478.8396,487.2909,478.1922,487.832,477.7734,488.4011,477.3824,488.8079,476.8292,489.3,476.3613,489.3097,476.371,488.8155,475.8768,488.3652,475.4266,487.8938,474.9551,487.4628,474.5242,486.9,473.9613" style="stroke:#181818;stroke-width:0.6;"/><path d="M348.3,476.3613 L348.3,476.5295 L354.225,476.0299 L360.15,476.516 L366.075,476.6811 L372,475.7906 L377.925,476.2992 L383.85,476.0201 L389.775,476.0545 L395.7,476.3068 L401.625,475.8082 L407.55,476.8042 L413.475,475.8571 L419.4,476.2031 L425.325,476.7069 L431.25,476.2927 L437.175,476.4159 L443.1,476.3358 L449.025,476.5041 L454.95,476.5526 L460.875,476.8299 L466.8,476.8982 L472.725,476.9047 L478.65,476.565 L484.575,476.7322 L490.5,476.3613 " fill="none" style="stroke:#181818;stroke-width:0.6;"/><text fill="#000000" font-family="FG Virgil" font-size="7.8" lengthAdjust="spacing" textLength="131.4" x="352.5" y="473.2037">changeNutricionalInfoTo(calories, salt)</text><polygon fill="#181818" points="543.3,492.7359,543.3156,492.775,544.4692,493.139,545.7144,493.7318,546.9297,494.2502,548.047,494.5235,549.3,495.1359,549.2942,495.1215,548.0683,495.5367,546.8715,496.0247,545.6949,496.5633,544.4486,496.9276,543.3,497.5359,543.3783,497.6142,543.6909,496.9668,544.232,496.548,544.8011,496.157,545.2079,495.6038,545.7,495.1359,545.7097,495.1456,545.2155,494.6514,544.7652,494.2012,544.2938,493.7298,543.8628,493.2988,543.3,492.7359" style="stroke:#181818;stroke-width:0.6;"/><path d="M348.3,495.1359 L348.3,495.3041 L354.3182,494.8045 L360.3364,495.2906 L366.3545,495.4557 L372.3727,494.5652 L378.3909,495.0738 L384.4091,494.7947 L390.4273,494.8291 L396.4455,495.0814 L402.4636,494.5828 L408.4818,495.5789 L414.5,494.6317 L420.5182,494.9777 L426.5364,495.4815 L432.5545,495.0673 L438.5727,495.1905 L444.5909,495.1104 L450.6091,495.2788 L456.6273,495.3272 L462.6455,495.6045 L468.6636,495.6728 L474.6818,495.6793 L480.7,495.3396 L486.7182,495.5068 L492.7364,495.6977 L498.7545,494.559 L504.7727,495.6787 L510.7909,494.8987 L516.8091,495.563 L522.8273,494.7399 L528.8455,495.0811 L534.8636,495.7292 L540.8818,495.0969 L546.9,495.1359 " fill="none" style="stroke:#181818;stroke-width:0.6;"/><text fill="#000000" font-family="FG Virgil" font-size="7.8" lengthAdjust="spacing" textLength="34.8" x="352.5" y="491.9783">save(dish)</text><polygon fill="#181818" points="354.9,511.5105,354.9156,511.5496,353.6692,511.9136,352.5144,512.5064,351.3297,513.0248,350.047,513.2981,348.9,513.9105,348.8942,513.8961,350.0683,514.3113,351.2715,514.7993,352.4949,515.3379,353.6486,515.7022,354.9,516.3105,354.9783,516.3888,354.3309,515.7414,353.912,515.3226,353.5211,514.9316,352.9679,514.3784,352.5,513.9105,352.5097,513.9202,352.9755,513.426,353.4852,512.9758,353.9738,512.5044,354.5028,512.0734,354.9,511.5105" style="stroke:#181818;stroke-width:0.6;"/><path d="M351.3,513.9105 L351.3,514.0787 L357.2294,513.5791 L363.1588,514.0652 L369.0882,514.2303 L375.0176,513.3398 L380.9471,513.8484 L386.8765,513.5694 L392.8059,513.6037 L398.7353,513.856 L404.6647,513.3575 L410.5941,514.3535 L416.5235,513.4063 L422.4529,513.7523 L428.3824,514.2561 L434.3118,513.8419 L440.2412,513.9651 L446.1706,513.885 L452.1,514.0534 L458.0294,514.1019 L463.9588,514.3791 L469.8882,514.4474 L475.8176,514.454 L481.7471,514.1142 L487.6765,514.2814 L493.6059,514.4723 L499.5353,513.3336 L505.4647,514.4534 L511.3941,513.6733 L517.3235,514.3376 L523.2529,513.5145 L529.1824,513.8557 L535.1118,514.5038 L541.0412,513.8716 L546.9706,513.9948 L552.9,513.9105 " fill="none" style="stroke:#181818;stroke-width:0.6;stroke-dasharray:2.0,2.0;"/><text fill="#000000" font-family="FG Virgil" font-size="7.8" lengthAdjust="spacing" textLength="14.4" x="358.5" y="510.7529">dish</text><polygon fill="#181818" points="179.7,530.2852,179.7156,530.3242,178.4692,530.6882,177.3144,531.281,176.1297,531.7994,174.847,532.0727,173.7,532.6852,173.6942,532.6707,174.8683,533.086,176.0715,533.5739,177.2949,534.1125,178.4486,534.4768,179.7,535.0852,179.7783,535.1635,179.1309,534.516,178.712,534.0972,178.3211,533.7062,177.7679,533.153,177.3,532.6852,177.3097,532.6948,177.7755,532.2006,178.2852,531.7504,178.7738,531.279,179.3028,530.848,179.7,530.2852" style="stroke:#181818;stroke-width:0.6;"/><path d="M176.1,532.6852 L176.1,532.8533 L182.1214,532.3537 L188.1429,532.8398 L194.1643,533.0049 L200.1857,532.1144 L206.2071,532.623 L212.2286,532.344 L218.25,532.3784 L224.2714,532.6306 L230.2929,532.1321 L236.3143,533.1281 L242.3357,532.1809 L248.3571,532.5269 L254.3786,533.0307 L260.4,532.6165 L266.4214,532.7397 L272.4429,532.6596 L278.4643,532.828 L284.4857,532.8765 L290.5071,533.1537 L296.5286,533.222 L302.55,533.2286 L308.5714,532.8889 L314.5929,533.056 L320.6143,533.2469 L326.6357,532.1082 L332.6571,533.228 L338.6786,532.448 L344.7,532.6852 " fill="none" style="stroke:#181818;stroke-width:0.6;"/><text fill="#000000" font-family="FG Virgil" font-size="7.8" lengthAdjust="spacing" textLength="14.4" x="183.3" y="529.5275">dish</text><polygon fill="#181818" points="38.7,549.0598,38.7156,549.0988,37.4692,549.4628,36.3144,550.0557,35.1297,550.574,33.847,550.8473,32.7,551.4598,32.6942,551.4453,33.8683,551.8606,35.0715,552.3486,36.2949,552.8871,37.4486,553.2514,38.7,553.8598,38.7783,553.9381,38.1309,553.2906,37.712,552.8718,37.3211,552.4809,36.7679,551.9276,36.3,551.4598,36.3097,551.4694,36.7755,550.9752,37.2852,550.525,37.7738,550.0536,38.3028,549.6226,38.7,549.0598" style="stroke:#181818;stroke-width:0.6;"/><path d="M35.1,551.4598 L35.1,551.6279 L41.2091,551.1283 L47.3182,551.6144 L53.4273,551.7795 L59.5364,550.889 L65.6455,551.3976 L71.7545,551.1186 L77.8636,551.153 L83.9727,551.4052 L90.0818,550.9067 L96.1909,551.9027 L102.3,550.9555 L108.4091,551.3016 L114.5182,551.8053 L120.6273,551.3911 L126.7364,551.5144 L132.8455,551.4342 L138.9545,551.6026 L145.0636,551.6511 L151.1727,551.9283 L157.2818,551.9966 L163.3909,552.0032 L169.5,551.4598 " fill="none" style="stroke:#181818;stroke-width:0.6;stroke-dasharray:2.0,2.0;"/><text fill="#000000" font-family="FG Virgil" font-size="7.8" lengthAdjust="spacing" textLength="85.2" x="42.3" y="548.3021">Display Dish Info or error</text><!--SRC=[tLLDZzem4BtdLupsn4hm1oA4X7Qr5L9tjIgbfrwczYInC7PaEo3wwpjs-33fmcxLdke346RUy_FCyyIlbMdHuGOQD7BdL0Xa8BYE2dyARQoned5sGyD8YsADDIt3NXCu4Y6BIQgmq-79cl2237tw1D-KgvNESdo3qkwKgQ52xQaeK0Jhu9bCzuo6cHsWXtdyis14K4ArQ08yiDgQ7fLlLekOmP_JQUl8amaOb3MpsPNy1vRZhDOzS_OqdMBRQYNUWjzzLZv4z9BSLWcwYzZbLjm6IGQK4PNI7-q6bM64J3yuMMB07-W9OiuNQgrNVCvzJCwUfbDtUc1GaOe1aycC3rt2gcMMdW5U7Ki33hvqWHl9Yb33mbGsLbLjOzvgKHHSguXEF2NC_HeCxQ2Du348rDOfyi1k08yw3FPxlPPM0Az8FSkAMe9mnFjUY-f3MKVtAU4ayvpJ8-CobWDErKq0M-MDAw5HKh9hiGiDg_gPcW6TvrZTiSrC88BlPkJvoxSaLAK4I8KrE_3-l45S6IrBvGwNW5f7YUGF8e_h99QpBaakbKQRbB1K6_P9fKX2IyxpkSa8-fYeoC1gpfueeL96phM-9kcSUicKsMfoF9zCXxj8a_GkKz8qwEPjfeiodM6JMRHL1iqWkGqkNRjix0xwjWmCkYJDOoZ5hdhoD0oIcqTnyt5_0JxWmzzjShZPH-94-jME3eGtW7b7FMvx9N_Nqc4__gIlRpNbLalUgsuQGoADeJY53dK-ZevncXl_ek23VRZqmpt-xnxqVU2T3vU3QzzgtFSlXLYH-4uWv_WTch6i5hy0]--></g></svg>