<?xml version="1.0" encoding="us-ascii" standalone="no"?><svg xmlns="http://www.w3.org/2000/svg" xmlns:xlink="http://www.w3.org/1999/xlink" contentStyleType="text/css" height="462px" preserveAspectRatio="none" style="width:711px;height:461px;background:#FFFFFF;" version="1.1" viewBox="0 0 711 461" width="711.2px" zoomAndPan="magnify"><defs/><g><polygon fill="#FFFFFF" points="208.95,85.0732,208.95,85.1223,210.35,84.9766,211.75,85.1183,213.15,85.1665,214.55,84.9068,215.95,85.0732,215.8956,85.0732,215.6515,92.1078,215.6816,99.1424,215.9023,106.177,215.466,113.2115,216.3375,120.2461,215.5088,127.2807,215.8116,134.3152,216.2524,141.3498,215.89,148.3844,215.9978,155.4189,215.9276,162.4535,216.075,169.4881,216.1174,176.5227,216.36,183.5572,216.4197,190.5918,216.4255,197.6264,216.1282,204.6609,216.2745,211.6955,216.4416,218.7301,215.4452,225.7646,216.425,232.7992,215.7424,239.8338,216.3237,246.8684,215.6035,253.9029,215.9021,260.9375,216.4691,267.9721,215.9159,275.0066,216.0237,282.0412,216.187,289.0758,216.2414,296.1104,215.9473,303.1449,216.151,310.1795,215.5493,317.2141,216.1491,324.2486,216.3337,331.2832,216.2612,338.3178,216.3791,345.3523,215.6118,352.3869,215.4935,359.4215,215.515,366.4561,215.9088,373.4906,215.95,380.5252,215.95,380.4793,214.55,380.6842,213.15,380.4844,211.75,380.4451,210.35,380.5785,208.95,380.5252,208.4832,380.5252,208.5866,373.4906,209.4043,366.4561,209.255,359.4215,209.4641,352.3869,208.7247,345.3523,209.1734,338.3178,209.3633,331.2832,208.6193,324.2486,208.8829,317.2141,209.0382,310.1795,209.4062,303.1449,208.9471,296.1104,209.2738,289.0758,208.5624,282.0412,208.4759,275.0066,209.3025,267.9721,208.4481,260.9375,209.3063,253.9029,209.0946,246.8684,208.7625,239.8338,208.7024,232.7992,209.2711,225.7646,208.7405,218.7301,209.3643,211.6955,208.5631,204.6609,209.3822,197.6264,209.289,190.5918,209.1215,183.5572,208.9831,176.5227,209.4586,169.4881,209.3795,162.4535,209.0685,155.4189,209.1377,148.3844,208.8588,141.3498,209.4515,134.3152,209.0584,127.2807,209.0708,120.2461,208.5242,113.2115,208.6663,106.177,209.3215,99.1424,209.2508,92.1078,208.95,85.0732" style="stroke:#181818;stroke-width:0.6999999999999998;"/><polygon fill="#FFFFFF" points="324.45,172.6881,324.45,172.7371,325.85,172.5914,327.25,172.7332,328.65,172.7813,330.05,172.5216,331.45,172.6881,331.3956,172.6881,331.1515,179.5745,331.1816,186.4609,331.4023,193.3474,330.966,200.2338,331.8375,207.1202,331.0088,214.0066,331.3116,220.893,331.7524,227.7795,331.39,234.6659,331.4978,241.5523,331.4276,248.4387,331.575,255.3252,331.6174,262.2116,331.86,269.098,331.9197,275.9844,331.9255,282.8708,331.6282,289.7573,331.7745,296.6437,331.9416,303.5301,330.9452,310.4165,331.925,317.303,331.2424,324.1894,331.8237,331.0758,331.1035,337.9622,331.4021,344.8486,331.9691,351.7351,331.45,358.6215,331.45,358.6101,330.05,358.6461,328.65,358.7005,327.25,358.7186,325.85,358.6206,324.45,358.6215,324.651,358.6215,324.0493,351.7351,324.6491,344.8486,324.8337,337.9622,324.7612,331.0758,324.8791,324.1894,324.1118,317.303,323.9935,310.4165,324.015,303.5301,324.4088,296.6437,324.3124,289.7573,324.927,282.8708,324.3277,275.9844,324.2099,269.098,324.6098,262.2116,323.9832,255.3252,324.0866,248.4387,324.9043,241.5523,324.755,234.6659,324.9641,227.7795,324.2247,220.893,324.6734,214.0066,324.8633,207.1202,324.1193,200.2338,324.3829,193.3474,324.5382,186.4609,324.9062,179.5745,324.45,172.6881" style="stroke:#181818;stroke-width:0.6999999999999998;"/><polygon fill="#FFFFFF" points="508.55,232.7992,508.55,232.8483,509.95,232.7025,511.35,232.8443,512.75,232.8925,514.15,232.6328,515.55,232.7992,515.4956,232.7992,515.2515,239.7271,515.2816,246.655,515.5023,253.5829,515.066,260.5108,515.9375,267.4387,515.1088,274.3666,515.4116,281.2945,515.8524,288.2224,515.49,295.1504,515.5978,302.0783,515.5276,309.0062,515.675,315.9341,515.7174,322.862,515.96,329.7899,515.55,336.7178,515.55,336.8744,514.15,336.8763,512.75,336.7772,511.35,336.8259,509.95,336.8816,508.55,336.7178,508.0452,336.7178,509.025,329.7899,508.3424,322.862,508.9237,315.9341,508.2035,309.0062,508.5021,302.0783,509.0691,295.1504,508.5159,288.2224,508.6237,281.2945,508.787,274.3666,508.8414,267.4387,508.5473,260.5108,508.751,253.5829,508.1493,246.655,508.7491,239.7271,508.55,232.7992" style="stroke:#181818;stroke-width:0.6999999999999998;"/><polygon fill="#FFFFFF" points="670.95,292.9104,670.95,292.9594,672.35,292.8137,673.75,292.9555,675.15,293.0036,676.55,292.7439,677.95,292.9104,677.9319,292.9104,677.8505,297.2911,677.8605,301.6718,677.9341,306.0526,677.7887,310.4333,677.95,314.8141,677.95,314.9432,676.55,314.667,675.15,314.7679,673.75,314.9149,672.35,314.794,670.95,314.8141,670.9659,314.8141,670.9425,310.4333,670.9917,306.0526,671.0058,301.6718,671.0867,297.2911,670.95,292.9104" style="stroke:#181818;stroke-width:0.6999999999999998;"/><path d="M37.1,61.7695 L37.2962,61.7695 L36.7133,68.8197 L37.2804,75.8698 L37.473,82.9199 L36.4342,89.97 L37.0275,97.0201 L36.7019,104.0703 L36.7421,111.1204 L37.0364,118.1705 L36.4547,125.2206 L37.6167,132.2707 L36.5117,139.3209 L36.9154,146.371 L37.5032,153.4211 L37.0199,160.4712 L37.1637,167.5213 L37.0702,174.5715 L37.2666,181.6216 L37.3232,188.6717 L37.6466,195.7218 L37.7263,202.7719 L37.734,209.8221 L37.3377,216.8722 L37.5327,223.9223 L37.7554,230.9724 L36.4269,238.0225 L37.7333,245.0727 L36.8233,252.1228 L37.5982,259.1729 L36.638,266.223 L37.0361,273.2731 L37.7922,280.3233 L37.0545,287.3734 L37.1983,294.4235 L37.4161,301.4736 L37.4885,308.5237 L37.0964,315.5739 L37.3681,322.624 L36.5657,329.6741 L37.3654,336.7242 L37.6116,343.7744 L37.5149,350.8245 L37.6722,357.8746 L36.6491,364.9247 L36.4913,371.9748 L36.52,379.025 L37.045,386.0751 L37.1,393.1252 " fill="none" style="stroke:#181818;stroke-width:0.3499999999999999;stroke-dasharray:5.0,5.0;"/><path d="M212.1,61.7695 L212.2962,61.7695 L211.7133,68.8197 L212.2804,75.8698 L212.473,82.9199 L211.4342,89.97 L212.0275,97.0201 L211.7019,104.0703 L211.7421,111.1204 L212.0364,118.1705 L211.4547,125.2206 L212.6167,132.2707 L211.5117,139.3209 L211.9154,146.371 L212.5032,153.4211 L212.0199,160.4712 L212.1637,167.5213 L212.0702,174.5715 L212.2666,181.6216 L212.3232,188.6717 L212.6466,195.7218 L212.7263,202.7719 L212.734,209.8221 L212.3377,216.8722 L212.5327,223.9223 L212.7554,230.9724 L211.4269,238.0225 L212.7333,245.0727 L211.8233,252.1228 L212.5982,259.1729 L211.638,266.223 L212.0361,273.2731 L212.7922,280.3233 L212.0545,287.3734 L212.1983,294.4235 L212.4161,301.4736 L212.4885,308.5237 L212.0964,315.5739 L212.3681,322.624 L211.5657,329.6741 L212.3654,336.7242 L212.6116,343.7744 L212.5149,350.8245 L212.6722,357.8746 L211.6491,364.9247 L211.4913,371.9748 L211.52,379.025 L212.045,386.0751 L212.1,393.1252 " fill="none" style="stroke:#181818;stroke-width:0.3499999999999999;stroke-dasharray:5.0,5.0;"/><path d="M327.95,61.7695 L328.1462,61.7695 L327.5633,68.8197 L328.1304,75.8698 L328.323,82.9199 L327.2842,89.97 L327.8775,97.0201 L327.5519,104.0703 L327.5921,111.1204 L327.8864,118.1705 L327.3047,125.2206 L328.4667,132.2707 L327.3617,139.3209 L327.7654,146.371 L328.3532,153.4211 L327.8699,160.4712 L328.0137,167.5213 L327.9202,174.5715 L328.1166,181.6216 L328.1732,188.6717 L328.4966,195.7218 L328.5763,202.7719 L328.584,209.8221 L328.1877,216.8722 L328.3827,223.9223 L328.6054,230.9724 L327.2769,238.0225 L328.5833,245.0727 L327.6733,252.1228 L328.4482,259.1729 L327.488,266.223 L327.8861,273.2731 L328.6422,280.3233 L327.9045,287.3734 L328.0483,294.4235 L328.2661,301.4736 L328.3385,308.5237 L327.9464,315.5739 L328.2181,322.624 L327.4157,329.6741 L328.2154,336.7242 L328.4616,343.7744 L328.3649,350.8245 L328.5222,357.8746 L327.4991,364.9247 L327.3413,371.9748 L327.37,379.025 L327.895,386.0751 L327.95,393.1252 " fill="none" style="stroke:#181818;stroke-width:0.3499999999999999;stroke-dasharray:5.0,5.0;"/><path d="M511.7,61.7695 L511.8962,61.7695 L511.3133,68.8197 L511.8804,75.8698 L512.073,82.9199 L511.0342,89.97 L511.6275,97.0201 L511.3019,104.0703 L511.3421,111.1204 L511.6364,118.1705 L511.0547,125.2206 L512.2167,132.2707 L511.1117,139.3209 L511.5154,146.371 L512.1032,153.4211 L511.6199,160.4712 L511.7637,167.5213 L511.6702,174.5715 L511.8666,181.6216 L511.9232,188.6717 L512.2466,195.7218 L512.3263,202.7719 L512.334,209.8221 L511.9377,216.8722 L512.1327,223.9223 L512.3554,230.9724 L511.0269,238.0225 L512.3333,245.0727 L511.4233,252.1228 L512.1982,259.1729 L511.238,266.223 L511.6361,273.2731 L512.3922,280.3233 L511.6545,287.3734 L511.7983,294.4235 L512.0161,301.4736 L512.0885,308.5237 L511.6964,315.5739 L511.9681,322.624 L511.1657,329.6741 L511.9654,336.7242 L512.2116,343.7744 L512.1149,350.8245 L512.2722,357.8746 L511.2491,364.9247 L511.0913,371.9748 L511.12,379.025 L511.645,386.0751 L511.7,393.1252 " fill="none" style="stroke:#181818;stroke-width:0.3499999999999999;stroke-dasharray:5.0,5.0;"/><path d="M674.45,61.7695 L674.6462,61.7695 L674.0633,68.8197 L674.6304,75.8698 L674.823,82.9199 L673.7842,89.97 L674.3775,97.0201 L674.0519,104.0703 L674.0921,111.1204 L674.3864,118.1705 L673.8047,125.2206 L674.9667,132.2707 L673.8617,139.3209 L674.2654,146.371 L674.8532,153.4211 L674.3699,160.4712 L674.5137,167.5213 L674.4202,174.5715 L674.6166,181.6216 L674.6732,188.6717 L674.9966,195.7218 L675.0763,202.7719 L675.084,209.8221 L674.6877,216.8722 L674.8827,223.9223 L675.1054,230.9724 L673.7769,238.0225 L675.0833,245.0727 L674.1733,252.1228 L674.9482,259.1729 L673.988,266.223 L674.3861,273.2731 L675.1422,280.3233 L674.4045,287.3734 L674.5483,294.4235 L674.7661,301.4736 L674.8385,308.5237 L674.4464,315.5739 L674.7181,322.624 L673.9157,329.6741 L674.7154,336.7242 L674.9616,343.7744 L674.8649,350.8245 L675.0222,357.8746 L673.9991,364.9247 L673.8413,371.9748 L673.87,379.025 L674.395,386.0751 L674.45,393.1252 " fill="none" style="stroke:#181818;stroke-width:0.3499999999999999;stroke-dasharray:5.0,5.0;"/><text fill="#000000" font-family="FG Virgil" font-size="9.8" lengthAdjust="spacing" textLength="63.7" x="3.5" y="59.31">MenuManager</text><polygon fill="#E3E3E3" points="43.0809,14.0469,42.2601,15.1685,41.2892,16.8113,39.9006,17.9184,38.4414,18.5238,37.2779,18.5764,35.7826,17.8192,34.3716,17.3246,33.3007,16.3203,32.7389,15.1705,32.4058,14.2551,32.0794,13.0593,31.5496,12.0303,31.9567,11.0256,32.3134,9.9251,33.6518,9.0547,34.5935,7.9253,35.759,7.5503,37.1446,7.2273,38.9215,7.4192,39.8947,7.8782,41.0262,8.0862,42.402,9.4958,42.8816,10.9839,43.09,11.9992,42.854,13.6723" style="stroke:#181818;stroke-width:0.3499999999999999;"/><path d="M37.45,18.2848 L37.5808,18.2848 L37.1922,22.0648 L37.5703,25.8448 L37.6987,29.6248 L37.0061,33.4048 L37.45,37.1848 M28.35,23.8848 L28.35,23.8364 L31.99,23.6194 L35.63,23.6461 L39.27,23.8424 L42.91,23.4546 L46.55,23.8848 M37.45,37.1848 L37.7103,37.4104 L35.3336,39.0279 L33.717,41.3042 L32.1931,43.6608 L30.1297,45.5498 L28.35,47.6848 M37.45,37.1848 L37.4821,37.2126 L39.255,39.2717 L41.1739,41.4575 L43.0224,43.5822 L45.0054,45.8234 L46.55,47.6848 " fill="none" style="stroke:#181818;stroke-width:0.3499999999999999;"/><text fill="#000000" font-family="FG Virgil" font-size="9.8" lengthAdjust="spacing" textLength="63.7" x="3.5" y="403.0004">MenuManager</text><polygon fill="#E3E3E3" points="43.0809,412.7721,42.2601,413.8937,41.2892,415.5365,39.9006,416.6436,38.4414,417.249,37.2779,417.3016,35.7826,416.5444,34.3716,416.0498,33.3007,415.0455,32.7389,413.8957,32.4058,412.9803,32.0794,411.7845,31.5496,410.7555,31.9567,409.7508,32.3134,408.6503,33.6518,407.7799,34.5935,406.6505,35.759,406.2755,37.1446,405.9525,38.9215,406.1444,39.8947,406.6034,41.0262,406.8114,42.402,408.221,42.8816,409.7091,43.09,410.7244,42.854,412.3975" style="stroke:#181818;stroke-width:0.3499999999999999;"/><path d="M37.45,417.01 L37.5808,417.01 L37.1922,420.79 L37.5703,424.57 L37.6987,428.35 L37.0061,432.13 L37.45,435.91 M28.35,422.61 L28.35,422.5616 L31.99,422.3446 L35.63,422.3713 L39.27,422.5676 L42.91,422.1798 L46.55,422.61 M37.45,435.91 L37.7103,436.1356 L35.3336,437.7531 L33.717,440.0294 L32.1931,442.386 L30.1297,444.275 L28.35,446.41 M37.45,435.91 L37.4821,435.9378 L39.255,437.9969 L41.1739,440.1827 L43.0224,442.3074 L45.0054,444.5486 L46.55,446.41 " fill="none" style="stroke:#181818;stroke-width:0.3499999999999999;"/><polygon fill="#E3E3E3" points="176.05,25.2,176.05,25.3471,183.33,24.91,190.61,25.3353,197.89,25.4798,205.17,24.7006,212.45,25.1456,219.73,24.9015,227.01,24.9316,234.29,25.1523,241.57,24.716,248.85,25.2,248.8994,25.3193,249.0412,25.1666,249.3273,25.3624,249.631,25.6007,249.8323,25.5916,250.0874,25.7126,250.1021,25.7187,250.1831,25.9572,250.3309,26.2235,250.4465,26.4764,250.6237,26.7548,250.6,26.95,251.0697,26.95,251.0755,33.4239,250.7782,39.8978,250.9245,46.3717,251.0916,52.8456,250.6,59.3195,250.4445,59.2551,250.6438,59.6276,250.3311,59.788,250.4075,60.1097,250.0832,60.2653,250.0874,60.557,250.0813,60.5422,249.9062,60.8194,249.5881,60.7515,249.3544,60.8872,249.1277,61.04,248.85,61.0695,248.85,61.3609,241.57,61.0668,234.29,61.2706,227.01,60.6688,219.73,61.2686,212.45,61.4533,205.17,61.3807,197.89,61.4986,190.61,60.7314,183.33,60.613,176.05,61.0695,175.9945,60.9356,175.7973,60.9543,175.5375,60.8221,175.3684,60.9089,175.0445,60.6218,174.8126,60.557,174.7386,60.5263,174.7593,60.3299,174.4638,60.0024,174.3931,59.7682,174.5424,59.625,174.3,59.3195,174.605,59.3195,174.8141,52.8456,174.0747,46.3717,174.5234,39.8978,174.7133,33.4239,174.3,26.95,174.1982,26.9078,174.3818,26.694,174.5322,26.4663,174.748,26.2657,174.7091,25.9597,174.8126,25.7126,174.8539,25.8123,175.0106,25.4907,175.2471,25.3615,175.6,25.5136,175.7385,25.148,176.05,25.2" style="stroke:#181818;stroke-width:0.3499999999999999;"/><text fill="#000000" font-family="FG Virgil" font-size="9.8" font-style="italic" lengthAdjust="spacing" textLength="66.5" x="179.2" y="40.6752">&#171;presentation&#187;</text><text fill="#000000" font-family="FG Virgil" font-size="9.8" lengthAdjust="spacing" textLength="63" x="180.95" y="53.71">ConsultMealUI</text><polygon fill="#E3E3E3" points="176.05,392.4252,176.05,392.5723,183.33,392.1352,190.61,392.5605,197.89,392.705,205.17,391.9258,212.45,392.3708,219.73,392.1266,227.01,392.1567,234.29,392.3775,241.57,391.9412,248.85,392.4252,248.8994,392.5445,249.0412,392.3918,249.3273,392.5876,249.631,392.8258,249.8323,392.8168,250.0874,392.9378,250.1021,392.9439,250.1831,393.1824,250.3309,393.4487,250.4465,393.7016,250.6237,393.98,250.6,394.1752,251.0697,394.1752,251.0755,400.6491,250.7782,407.123,250.9245,413.5969,251.0916,420.0708,250.6,426.5447,250.4445,426.4803,250.6438,426.8528,250.3311,427.0132,250.4075,427.3349,250.0832,427.4905,250.0874,427.7822,250.0813,427.7674,249.9062,428.0445,249.5881,427.9767,249.3544,428.1124,249.1277,428.2652,248.85,428.2947,248.85,428.5861,241.57,428.292,234.29,428.4958,227.01,427.894,219.73,428.4938,212.45,428.6785,205.17,428.6059,197.89,428.7238,190.61,427.9566,183.33,427.8382,176.05,428.2947,175.9945,428.1608,175.7973,428.1795,175.5375,428.0473,175.3684,428.1341,175.0445,427.847,174.8126,427.7822,174.7386,427.7515,174.7593,427.5551,174.4638,427.2276,174.3931,426.9933,174.5424,426.8502,174.3,426.5447,174.605,426.5447,174.8141,420.0708,174.0747,413.5969,174.5234,407.123,174.7133,400.6491,174.3,394.1752,174.1982,394.133,174.3818,393.9191,174.5322,393.6915,174.748,393.4909,174.7091,393.1849,174.8126,392.9378,174.8539,393.0375,175.0106,392.7159,175.2471,392.5867,175.6,392.7388,175.7385,392.3732,176.05,392.4252" style="stroke:#181818;stroke-width:0.3499999999999999;"/><text fill="#000000" font-family="FG Virgil" font-size="9.8" font-style="italic" lengthAdjust="spacing" textLength="66.5" x="179.2" y="407.9004">&#171;presentation&#187;</text><text fill="#000000" font-family="FG Virgil" font-size="9.8" lengthAdjust="spacing" textLength="63" x="180.95" y="420.9352">ConsultMealUI</text><polygon fill="#E3E3E3" points="275.8,25.2,275.8,25.3471,282.7533,24.91,289.7067,25.3353,296.66,25.4798,303.6133,24.7006,310.5667,25.1456,317.52,24.9015,324.4733,24.9316,331.4267,25.1523,338.38,24.716,345.3333,25.5875,352.2867,24.7588,359.24,25.0616,366.1933,25.5024,373.1467,25.14,380.1,25.2,380.1061,25.2147,380.3446,25.2956,380.6109,25.4435,380.8638,25.5591,381.1422,25.7363,381.3374,25.7126,381.4821,25.7725,381.5864,26.0207,381.5974,26.2303,381.7449,26.4964,381.8989,26.7652,381.85,26.95,381.3452,26.95,382.325,33.4239,381.6424,39.8978,382.2237,46.3717,381.5035,52.8456,381.85,59.3195,381.8352,59.3134,381.9074,59.6332,381.6345,59.8102,381.5652,60.0714,381.5129,60.3397,381.3374,60.557,381.3746,60.6467,381.0896,60.6586,380.8681,60.8239,380.5439,60.7411,380.3729,61.0283,380.1,61.0695,380.1,61.4533,373.1467,61.3807,366.1933,61.4986,359.24,60.7314,352.2867,60.613,345.3333,60.6346,338.38,61.0283,331.4267,60.932,324.4733,61.5465,317.52,60.9473,310.5667,60.8294,303.6133,61.2293,296.66,60.6027,289.7067,60.7061,282.7533,61.5238,275.8,61.0695,275.8389,61.1634,275.6181,61.1254,275.2763,60.7951,275.086,60.8308,274.8628,60.7868,274.5626,60.557,274.4607,60.5148,274.4394,60.3009,274.3847,60.0732,274.3955,59.8727,274.1516,59.5666,274.05,59.3195,274.3738,59.3195,273.6624,52.8456,273.5759,46.3717,274.4025,39.8978,273.5481,33.4239,274.05,26.95,274.1597,26.9954,274.1971,26.721,274.1973,26.4311,274.2813,26.1759,274.5589,26.001,274.5626,25.7126,274.5358,25.648,274.8629,25.7376,275.0082,25.3884,275.3602,25.5381,275.5958,25.4069,275.8,25.2" style="stroke:#181818;stroke-width:0.3499999999999999;"/><text fill="#000000" font-family="FG Virgil" font-size="9.8" font-style="italic" lengthAdjust="spacing" textLength="58.8" x="298.55" y="40.6752">&#171;application&#187;</text><text fill="#000000" font-family="FG Virgil" font-size="9.8" lengthAdjust="spacing" textLength="98" x="278.95" y="53.71">ConsultMealController</text><polygon fill="#E3E3E3" points="275.8,392.4252,275.8,392.5723,282.7533,392.1352,289.7067,392.5605,296.66,392.705,303.6133,391.9258,310.5667,392.3708,317.52,392.1266,324.4733,392.1567,331.4267,392.3775,338.38,391.9412,345.3333,392.8127,352.2867,391.984,359.24,392.2868,366.1933,392.7276,373.1467,392.3652,380.1,392.4252,380.1061,392.4399,380.3446,392.5208,380.6109,392.6687,380.8638,392.7843,381.1422,392.9615,381.3374,392.9378,381.4821,392.9977,381.5864,393.2459,381.5974,393.4555,381.7449,393.7216,381.8989,393.9904,381.85,394.1752,381.3452,394.1752,382.325,400.6491,381.6424,407.123,382.2237,413.5969,381.5035,420.0708,381.85,426.5447,381.8352,426.5386,381.9074,426.8584,381.6345,427.0353,381.5652,427.2966,381.5129,427.5649,381.3374,427.7822,381.3746,427.8719,381.0896,427.8838,380.8681,428.0491,380.5439,427.9663,380.3729,428.2535,380.1,428.2947,380.1,428.6785,373.1467,428.6059,366.1933,428.7238,359.24,427.9566,352.2867,427.8382,345.3333,427.8597,338.38,428.2535,331.4267,428.1572,324.4733,428.7717,317.52,428.1725,310.5667,428.0546,303.6133,428.4545,296.66,427.8279,289.7067,427.9313,282.7533,428.749,275.8,428.2947,275.8389,428.3886,275.6181,428.3505,275.2763,428.0203,275.086,428.056,274.8628,428.012,274.5626,427.7822,274.4607,427.74,274.4394,427.5261,274.3847,427.2984,274.3955,427.0979,274.1516,426.7918,274.05,426.5447,274.3738,426.5447,273.6624,420.0708,273.5759,413.5969,274.4025,407.123,273.5481,400.6491,274.05,394.1752,274.1597,394.2206,274.1971,393.9462,274.1973,393.6563,274.2813,393.4011,274.5589,393.2262,274.5626,392.9378,274.5358,392.8732,274.8629,392.9628,275.0082,392.6136,275.3602,392.7633,275.5958,392.6321,275.8,392.4252" style="stroke:#181818;stroke-width:0.3499999999999999;"/><text fill="#000000" font-family="FG Virgil" font-size="9.8" font-style="italic" lengthAdjust="spacing" textLength="58.8" x="298.55" y="407.9004">&#171;application&#187;</text><text fill="#000000" font-family="FG Virgil" font-size="9.8" lengthAdjust="spacing" textLength="98" x="278.95" y="420.9352">ConsultMealController</text><polygon fill="#E3E3E3" points="474.25,25.2,474.25,25.3471,481.1227,24.91,487.9955,25.3353,494.8682,25.4798,501.7409,24.7006,508.6136,25.1456,515.4864,24.9015,522.3591,24.9316,529.2318,25.1523,536.1045,24.716,542.9773,25.5875,549.85,25.2,549.7937,25.0641,550.0798,25.2599,550.3835,25.4981,550.5848,25.489,550.846,25.6248,551.0874,25.7126,551.0805,25.7097,551.2284,25.976,551.344,26.2289,551.5212,26.5073,551.6421,26.7624,551.6,26.95,552.0755,26.95,551.7782,33.4239,551.9245,39.8978,552.0916,46.3717,551.0952,52.8456,551.6,59.3195,551.7463,59.3801,551.4336,59.5405,551.51,59.8622,551.1857,60.0178,551.1752,60.3034,551.0874,60.557,551.1537,60.7168,550.8356,60.649,550.6019,60.7847,550.3752,60.9375,550.1347,61.0567,549.85,61.0695,549.85,61.0668,542.9773,61.2706,536.1045,60.6688,529.2318,61.2686,522.3591,61.4533,515.4864,61.3807,508.6136,61.4986,501.7409,60.7314,494.8682,60.613,487.9955,60.6346,481.1227,61.0283,474.25,61.0695,474.2325,61.0272,474.0634,61.1139,473.7394,60.8269,473.4769,60.688,473.2804,60.7087,473.0126,60.557,472.8688,60.4974,472.7981,60.2631,472.9474,60.1199,472.7989,59.8534,472.7608,59.6326,472.5,59.3195,472.2747,59.3195,472.7234,52.8456,472.9133,46.3717,472.1693,39.8978,472.4329,33.4239,472.5,26.95,472.5272,26.9612,472.743,26.7607,472.7041,26.4547,472.9073,26.2488,472.7907,25.9106,473.0126,25.7126,472.9521,25.5666,473.305,25.7186,473.4435,25.353,473.8005,25.5147,474.021,25.3471,474.25,25.2" style="stroke:#181818;stroke-width:0.3499999999999999;"/><text fill="#000000" font-family="FG Virgil" font-size="9.8" font-style="italic" lengthAdjust="spacing" textLength="58.8" x="482.65" y="40.6752">&#171;application&#187;</text><text fill="#000000" font-family="FG Virgil" font-size="9.8" lengthAdjust="spacing" textLength="69.3" x="477.4" y="53.71">ListMealService</text><polygon fill="#E3E3E3" points="474.25,392.4252,474.25,392.5723,481.1227,392.1352,487.9955,392.5605,494.8682,392.705,501.7409,391.9258,508.6136,392.3708,515.4864,392.1266,522.3591,392.1567,529.2318,392.3775,536.1045,391.9412,542.9773,392.8127,549.85,392.4252,549.7937,392.2893,550.0798,392.4851,550.3835,392.7233,550.5848,392.7142,550.846,392.85,551.0874,392.9378,551.0805,392.9349,551.2284,393.2012,551.344,393.4541,551.5212,393.7325,551.6421,393.9876,551.6,394.1752,552.0755,394.1752,551.7782,400.6491,551.9245,407.123,552.0916,413.5969,551.0952,420.0708,551.6,426.5447,551.7463,426.6053,551.4336,426.7657,551.51,427.0874,551.1857,427.243,551.1752,427.5286,551.0874,427.7822,551.1537,427.942,550.8356,427.8742,550.6019,428.0099,550.3752,428.1627,550.1347,428.2819,549.85,428.2947,549.85,428.292,542.9773,428.4958,536.1045,427.894,529.2318,428.4938,522.3591,428.6785,515.4864,428.6059,508.6136,428.7238,501.7409,427.9566,494.8682,427.8382,487.9955,427.8597,481.1227,428.2535,474.25,428.2947,474.2325,428.2524,474.0634,428.3391,473.7394,428.052,473.4769,427.9132,473.2804,427.9339,473.0126,427.7822,472.8688,427.7226,472.7981,427.4883,472.9474,427.3451,472.7989,427.0786,472.7608,426.8578,472.5,426.5447,472.2747,426.5447,472.7234,420.0708,472.9133,413.5969,472.1693,407.123,472.4329,400.6491,472.5,394.1752,472.5272,394.1864,472.743,393.9859,472.7041,393.6798,472.9073,393.474,472.7907,393.1358,473.0126,392.9378,472.9521,392.7918,473.305,392.9438,473.4435,392.5782,473.8005,392.7399,474.021,392.5723,474.25,392.4252" style="stroke:#181818;stroke-width:0.3499999999999999;"/><text fill="#000000" font-family="FG Virgil" font-size="9.8" font-style="italic" lengthAdjust="spacing" textLength="58.8" x="482.65" y="407.9004">&#171;application&#187;</text><text fill="#000000" font-family="FG Virgil" font-size="9.8" lengthAdjust="spacing" textLength="69.3" x="477.4" y="420.9352">ListMealService</text><text fill="#000000" font-family="FG Virgil" font-size="9.8" font-style="italic" lengthAdjust="spacing" textLength="55.3" x="644.7" y="46.2752">&#171;repository&#187;</text><text fill="#000000" font-family="FG Virgil" font-size="9.8" lengthAdjust="spacing" textLength="68.6" x="638.05" y="59.31">MealRepository</text><path d="M661.85,10.5 L661.85,10.5 L661.8956,10.5469 L663.0201,9.1826 L664.4119,8.0931 L665.7167,6.9142 L666.7353,5.4409 L668.15,4.375 L668.1467,4.3511 L669.3917,4.0686 L670.6536,3.9068 L671.9271,3.829 L673.1604,3.462 L674.45,3.5 L674.45,3.5 L674.4737,3.6706 L675.683,3.4808 L676.9615,3.7891 L678.2485,4.1581 L679.4863,4.1736 L680.75,4.375 L680.7648,4.3902 L682.0031,5.5929 L683.3087,6.8648 L684.5819,8.1033 L685.917,9.4056 L687.05,10.5 L687.4675,10.5 L687.4726,14.14 L687.2084,17.78 L687.3385,21.42 L687.4869,25.06 L687.05,28.7 L687.05,28.7 L686.8936,28.5391 L685.9371,30.0764 L684.4657,31.0839 L683.3858,32.4941 L681.9026,33.4896 L680.75,34.825 L680.7471,34.8039 L679.5217,35.2285 L678.2279,35.16 L676.9745,35.3824 L675.7245,35.6293 L674.45,35.7 L674.45,35.7 L674.4678,35.8283 L673.1898,35.5238 L671.9423,35.4385 L670.6455,34.9986 L669.4222,35.0876 L668.15,34.825 L668.2689,34.9473 L666.9864,33.6992 L665.7629,32.5117 L664.2652,31.0422 L662.9686,29.7795 L661.85,28.7 L661.4634,28.7 L661.8134,25.06 L661.7277,21.42 L662.274,17.78 L661.7413,14.14 L661.85,10.5 " fill="#E3E3E3" style="stroke:#181818;stroke-width:1.0499999999999998;"/><path d="M661.85,10.5 L661.85,10.5 L661.8956,10.5469 L663.0201,11.6326 L664.4119,12.9931 L665.7167,14.2642 L666.7353,15.2409 L668.15,16.625 L668.1467,16.6011 L669.3917,16.6686 L670.6536,16.8568 L671.9271,17.129 L673.1604,17.112 L674.45,17.5 L674.45,17.5 L674.4737,17.6706 L675.683,17.1308 L676.9615,17.0891 L678.2485,17.1081 L679.4863,16.7736 L680.75,16.625 L680.7648,16.6402 L682.0031,15.3929 L683.3087,14.2148 L684.5819,13.0033 L685.917,11.8556 L687.05,10.5 " fill="none" style="stroke:#181818;stroke-width:1.0499999999999998;"/><text fill="#000000" font-family="FG Virgil" font-size="9.8" font-style="italic" lengthAdjust="spacing" textLength="55.3" x="644.7" y="403.0004">&#171;repository&#187;</text><text fill="#000000" font-family="FG Virgil" font-size="9.8" lengthAdjust="spacing" textLength="68.6" x="638.05" y="416.0352">MealRepository</text><path d="M661.85,425.4947 L661.85,425.4947 L661.8956,425.5416 L663.0201,424.1773 L664.4119,423.0878 L665.7167,421.9089 L666.7353,420.4356 L668.15,419.3697 L668.1467,419.3458 L669.3917,419.0633 L670.6536,418.9016 L671.9271,418.8237 L673.1604,418.4567 L674.45,418.4947 L674.45,418.4947 L674.4737,418.6653 L675.683,418.4755 L676.9615,418.7838 L678.2485,419.1528 L679.4863,419.1683 L680.75,419.3697 L680.7648,419.3849 L682.0031,420.5876 L683.3087,421.8595 L684.5819,423.0981 L685.917,424.4004 L687.05,425.4947 L687.4675,425.4947 L687.4726,429.1347 L687.2084,432.7747 L687.3385,436.4147 L687.4869,440.0547 L687.05,443.6947 L687.05,443.6947 L686.8936,443.5339 L685.9371,445.0711 L684.4657,446.0786 L683.3858,447.4888 L681.9026,448.4843 L680.75,449.8197 L680.7471,449.7986 L679.5217,450.2233 L678.2279,450.1547 L676.9745,450.3772 L675.7245,450.6241 L674.45,450.6947 L674.45,450.6947 L674.4678,450.823 L673.1898,450.5185 L671.9423,450.4332 L670.6455,449.9933 L669.4222,450.0824 L668.15,449.8197 L668.2689,449.942 L666.9864,448.6939 L665.7629,447.5065 L664.2652,446.037 L662.9686,444.7742 L661.85,443.6947 L661.4634,443.6947 L661.8134,440.0547 L661.7277,436.4147 L662.274,432.7747 L661.7413,429.1347 L661.85,425.4947 " fill="#E3E3E3" style="stroke:#181818;stroke-width:1.0499999999999998;"/><path d="M661.85,425.4947 L661.85,425.4947 L661.8956,425.5416 L663.0201,426.6273 L664.4119,427.9878 L665.7167,429.2589 L666.7353,430.2356 L668.15,431.6197 L668.1467,431.5958 L669.3917,431.6633 L670.6536,431.8516 L671.9271,432.1237 L673.1604,432.1067 L674.45,432.4947 L674.45,432.4947 L674.4737,432.6653 L675.683,432.1255 L676.9615,432.0838 L678.2485,432.1028 L679.4863,431.7683 L680.75,431.6197 L680.7648,431.6349 L682.0031,430.3876 L683.3087,429.2095 L684.5819,427.9981 L685.917,426.8504 L687.05,425.4947 " fill="none" style="stroke:#181818;stroke-width:1.0499999999999998;"/><polygon fill="#FFFFFF" points="208.95,85.0732,208.95,85.1223,210.35,84.9766,211.75,85.1183,213.15,85.1665,214.55,84.9068,215.95,85.0732,215.8956,85.0732,215.6515,92.1078,215.6816,99.1424,215.9023,106.177,215.466,113.2115,216.3375,120.2461,215.5088,127.2807,215.8116,134.3152,216.2524,141.3498,215.89,148.3844,215.9978,155.4189,215.9276,162.4535,216.075,169.4881,216.1174,176.5227,216.36,183.5572,216.4197,190.5918,216.4255,197.6264,216.1282,204.6609,216.2745,211.6955,216.4416,218.7301,215.4452,225.7646,216.425,232.7992,215.7424,239.8338,216.3237,246.8684,215.6035,253.9029,215.9021,260.9375,216.4691,267.9721,215.9159,275.0066,216.0237,282.0412,216.187,289.0758,216.2414,296.1104,215.9473,303.1449,216.151,310.1795,215.5493,317.2141,216.1491,324.2486,216.3337,331.2832,216.2612,338.3178,216.3791,345.3523,215.6118,352.3869,215.4935,359.4215,215.515,366.4561,215.9088,373.4906,215.95,380.5252,215.95,380.4793,214.55,380.6842,213.15,380.4844,211.75,380.4451,210.35,380.5785,208.95,380.5252,208.4832,380.5252,208.5866,373.4906,209.4043,366.4561,209.255,359.4215,209.4641,352.3869,208.7247,345.3523,209.1734,338.3178,209.3633,331.2832,208.6193,324.2486,208.8829,317.2141,209.0382,310.1795,209.4062,303.1449,208.9471,296.1104,209.2738,289.0758,208.5624,282.0412,208.4759,275.0066,209.3025,267.9721,208.4481,260.9375,209.3063,253.9029,209.0946,246.8684,208.7625,239.8338,208.7024,232.7992,209.2711,225.7646,208.7405,218.7301,209.3643,211.6955,208.5631,204.6609,209.3822,197.6264,209.289,190.5918,209.1215,183.5572,208.9831,176.5227,209.4586,169.4881,209.3795,162.4535,209.0685,155.4189,209.1377,148.3844,208.8588,141.3498,209.4515,134.3152,209.0584,127.2807,209.0708,120.2461,208.5242,113.2115,208.6663,106.177,209.3215,99.1424,209.2508,92.1078,208.95,85.0732" style="stroke:#181818;stroke-width:0.6999999999999998;"/><polygon fill="#FFFFFF" points="324.45,172.6881,324.45,172.7371,325.85,172.5914,327.25,172.7332,328.65,172.7813,330.05,172.5216,331.45,172.6881,331.3956,172.6881,331.1515,179.5745,331.1816,186.4609,331.4023,193.3474,330.966,200.2338,331.8375,207.1202,331.0088,214.0066,331.3116,220.893,331.7524,227.7795,331.39,234.6659,331.4978,241.5523,331.4276,248.4387,331.575,255.3252,331.6174,262.2116,331.86,269.098,331.9197,275.9844,331.9255,282.8708,331.6282,289.7573,331.7745,296.6437,331.9416,303.5301,330.9452,310.4165,331.925,317.303,331.2424,324.1894,331.8237,331.0758,331.1035,337.9622,331.4021,344.8486,331.9691,351.7351,331.45,358.6215,331.45,358.6101,330.05,358.6461,328.65,358.7005,327.25,358.7186,325.85,358.6206,324.45,358.6215,324.651,358.6215,324.0493,351.7351,324.6491,344.8486,324.8337,337.9622,324.7612,331.0758,324.8791,324.1894,324.1118,317.303,323.9935,310.4165,324.015,303.5301,324.4088,296.6437,324.3124,289.7573,324.927,282.8708,324.3277,275.9844,324.2099,269.098,324.6098,262.2116,323.9832,255.3252,324.0866,248.4387,324.9043,241.5523,324.755,234.6659,324.9641,227.7795,324.2247,220.893,324.6734,214.0066,324.8633,207.1202,324.1193,200.2338,324.3829,193.3474,324.5382,186.4609,324.9062,179.5745,324.45,172.6881" style="stroke:#181818;stroke-width:0.6999999999999998;"/><polygon fill="#FFFFFF" points="508.55,232.7992,508.55,232.8483,509.95,232.7025,511.35,232.8443,512.75,232.8925,514.15,232.6328,515.55,232.7992,515.4956,232.7992,515.2515,239.7271,515.2816,246.655,515.5023,253.5829,515.066,260.5108,515.9375,267.4387,515.1088,274.3666,515.4116,281.2945,515.8524,288.2224,515.49,295.1504,515.5978,302.0783,515.5276,309.0062,515.675,315.9341,515.7174,322.862,515.96,329.7899,515.55,336.7178,515.55,336.8744,514.15,336.8763,512.75,336.7772,511.35,336.8259,509.95,336.8816,508.55,336.7178,508.0452,336.7178,509.025,329.7899,508.3424,322.862,508.9237,315.9341,508.2035,309.0062,508.5021,302.0783,509.0691,295.1504,508.5159,288.2224,508.6237,281.2945,508.787,274.3666,508.8414,267.4387,508.5473,260.5108,508.751,253.5829,508.1493,246.655,508.7491,239.7271,508.55,232.7992" style="stroke:#181818;stroke-width:0.6999999999999998;"/><polygon fill="#FFFFFF" points="670.95,292.9104,670.95,292.9594,672.35,292.8137,673.75,292.9555,675.15,293.0036,676.55,292.7439,677.95,292.9104,677.9319,292.9104,677.8505,297.2911,677.8605,301.6718,677.9341,306.0526,677.7887,310.4333,677.95,314.8141,677.95,314.9432,676.55,314.667,675.15,314.7679,673.75,314.9149,672.35,314.794,670.95,314.8141,670.9659,314.8141,670.9425,310.4333,670.9917,306.0526,671.0058,301.6718,671.0867,297.2911,670.95,292.9104" style="stroke:#181818;stroke-width:0.6999999999999998;"/><polygon fill="#181818" points="200.55,82.2732,200.5682,82.3188,201.9141,82.7435,203.3667,83.4351,204.7846,84.0398,206.0882,84.3587,207.55,85.0732,207.5433,85.0564,206.113,85.5408,204.7168,86.1102,203.3441,86.7385,201.8901,87.1635,200.55,87.8732,200.6413,87.9646,201.006,87.2093,201.6374,86.7206,202.3013,86.2645,202.7758,85.6191,203.35,85.0732,203.3613,85.0845,202.7847,84.508,202.2595,83.9827,201.7095,83.4327,201.2066,82.9299,200.55,82.2732" style="stroke:#181818;stroke-width:0.6999999999999998;"/><path d="M37.45,85.0732 L37.45,85.2694 L44.4208,84.6865 L51.3917,85.2536 L58.3625,85.4463 L65.3333,84.4074 L72.3042,85.0007 L79.275,84.6752 L86.2458,84.7153 L93.2167,85.0096 L100.1875,84.428 L107.1583,85.59 L114.1292,84.485 L121.1,84.8887 L128.0708,85.4764 L135.0417,84.9932 L142.0125,85.1369 L148.9833,85.0434 L155.9542,85.2399 L162.925,85.2964 L169.8958,85.6199 L176.8667,85.6996 L183.8375,85.7072 L190.8083,85.3109 L197.7792,85.5059 L204.75,85.0732 " fill="none" style="stroke:#181818;stroke-width:0.6999999999999998;stroke-dasharray:2.0,2.0;"/><text fill="#000000" font-family="FG Virgil" font-size="9.1" lengthAdjust="spacing" textLength="58.1" x="42.35" y="81.3894">Consult Meals</text><polygon fill="#181818" points="319.55,104.177,319.5682,104.2225,320.9141,104.6472,322.3667,105.3388,323.7846,105.9435,325.0882,106.2624,326.55,106.977,326.5433,106.9601,325.113,107.4446,323.7168,108.0139,322.3441,108.6422,320.8901,109.0672,319.55,109.777,319.6413,109.8683,320.006,109.113,320.6374,108.6243,321.3013,108.1682,321.7758,107.5228,322.35,106.977,322.3613,106.9882,321.7847,106.4117,321.2595,105.8864,320.7095,105.3364,320.2066,104.8336,319.55,104.177" style="stroke:#181818;stroke-width:0.6999999999999998;"/><path d="M215.95,106.977 L215.95,107.1731 L223.1367,106.5903 L230.3233,107.1574 L237.51,107.35 L244.6967,106.3111 L251.8833,106.9044 L259.07,106.5789 L266.2567,106.619 L273.4433,106.9133 L280.63,106.3317 L287.8167,107.4937 L295.0033,106.3887 L302.19,106.7924 L309.3767,107.3801 L316.5633,106.8969 L323.75,106.977 " fill="none" style="stroke:#181818;stroke-width:0.6999999999999998;"/><text fill="#000000" font-family="FG Virgil" font-size="9.1" lengthAdjust="spacing" textLength="25.2" x="220.85" y="103.2931">create</text><polygon fill="#181818" points="45.15,126.0807,45.1682,126.1262,43.7141,126.5509,42.3667,127.2425,40.9846,127.8473,39.4882,128.1661,38.15,128.8807,38.1433,128.8638,39.513,129.3483,40.9168,129.9176,42.3441,130.5459,43.6901,130.9709,45.15,131.6807,45.2413,131.772,44.486,131.0167,43.9974,130.528,43.5413,130.0719,42.8958,129.4265,42.35,128.8807,42.3613,128.8919,42.9047,128.3154,43.4995,127.7901,44.0695,127.2401,44.6866,126.7373,45.15,126.0807" style="stroke:#181818;stroke-width:0.6999999999999998;"/><path d="M40.95,128.8807 L40.95,129.0768 L47.9208,128.494 L54.8917,129.0611 L61.8625,129.2537 L68.8333,128.2148 L75.8042,128.8081 L82.775,128.4826 L89.7458,128.5227 L96.7167,128.8171 L103.6875,128.2354 L110.6583,129.3974 L117.6292,128.2924 L124.6,128.6961 L131.5708,129.2838 L138.5417,128.8006 L145.5125,128.9444 L152.4833,128.8508 L159.4542,129.0473 L166.425,129.1039 L173.3958,129.4273 L180.3667,129.507 L187.3375,129.5146 L194.3083,129.1183 L201.2792,129.3133 L208.25,128.8807 " fill="none" style="stroke:#181818;stroke-width:0.6999999999999998;stroke-dasharray:2.0,2.0;"/><text fill="#000000" font-family="FG Virgil" font-size="9.1" lengthAdjust="spacing" textLength="154.7" x="49.35" y="125.1968">Ask Day and Show List of Meal Types</text><polygon fill="#181818" points="200.55,147.9844,200.5682,148.0299,201.9141,148.4546,203.3667,149.1462,204.7846,149.751,206.0882,150.0698,207.55,150.7844,207.5433,150.7675,206.113,151.252,204.7168,151.8213,203.3441,152.4496,201.8901,152.8746,200.55,153.5844,200.6413,153.6757,201.006,152.9204,201.6374,152.4317,202.3013,151.9756,202.7758,151.3302,203.35,150.7844,203.3613,150.7956,202.7847,150.2191,202.2595,149.6938,201.7095,149.1438,201.2066,148.641,200.55,147.9844" style="stroke:#181818;stroke-width:0.6999999999999998;"/><path d="M37.45,150.7844 L37.45,150.9805 L44.4208,150.3977 L51.3917,150.9648 L58.3625,151.1574 L65.3333,150.1185 L72.3042,150.7118 L79.275,150.3863 L86.2458,150.4264 L93.2167,150.7208 L100.1875,150.1391 L107.1583,151.3011 L114.1292,150.1961 L121.1,150.5998 L128.0708,151.1875 L135.0417,150.7043 L142.0125,150.8481 L148.9833,150.7546 L155.9542,150.951 L162.925,151.0076 L169.8958,151.331 L176.8667,151.4107 L183.8375,151.4183 L190.8083,151.022 L197.7792,151.2171 L204.75,150.7844 " fill="none" style="stroke:#181818;stroke-width:0.6999999999999998;stroke-dasharray:2.0,2.0;"/><text fill="#000000" font-family="FG Virgil" font-size="9.1" lengthAdjust="spacing" textLength="78.4" x="42.35" y="147.1005">Day and Meal Type</text><polygon fill="#181818" points="316.05,169.8881,316.0682,169.9336,317.4141,170.3583,318.8667,171.05,320.2846,171.6547,321.5882,171.9735,323.05,172.6881,323.0433,172.6712,321.613,173.1557,320.2168,173.725,318.8441,174.3533,317.3901,174.7783,316.05,175.4881,316.1413,175.5794,316.506,174.8241,317.1374,174.3355,317.8013,173.8794,318.2758,173.2339,318.85,172.6881,318.8613,172.6993,318.2847,172.1228,317.7595,171.5975,317.2095,171.0475,316.7066,170.5447,316.05,169.8881" style="stroke:#181818;stroke-width:0.6999999999999998;"/><path d="M215.95,172.6881 L215.95,172.8843 L222.9033,172.3014 L229.8567,172.8685 L236.81,173.0611 L243.7633,172.0223 L250.7167,172.6156 L257.67,172.29 L264.6233,172.3302 L271.5767,172.6245 L278.53,172.0428 L285.4833,173.2048 L292.4367,172.0998 L299.39,172.5035 L306.3433,173.0912 L313.2967,172.608 L320.25,172.6881 " fill="none" style="stroke:#181818;stroke-width:0.6999999999999998;"/><text fill="#000000" font-family="FG Virgil" font-size="9.1" lengthAdjust="spacing" textLength="95.2" x="220.85" y="169.0042">mealsForDayAndType()</text><path d="M334.6,181.7881 L334.7308,181.7881 L334.3422,187.9481 L334.7203,194.1081 L334.8487,200.2681 L334.1561,206.4281 L334.6,212.5881 L334.6,212.443 L341.6304,211.792 L348.6609,211.8722 L355.6913,212.4609 L362.7217,211.2975 L369.7522,213.6216 L376.7826,211.4116 L383.813,212.2189 L390.8435,213.3944 L397.8739,212.428 L404.9043,212.7155 L411.9348,212.5285 L418.9652,212.9213 L425.9957,213.0345 L433.0261,213.6814 L440.0565,213.8407 L447.087,213.856 L454.1174,213.0634 L461.1478,213.4534 L468.1783,213.8989 L475.2087,211.2419 L482.2391,213.8546 L489.2696,212.0346 L496.3,212.5881 L496.6321,212.5881 L495.992,207.8281 L496.2574,203.0681 L496.7614,198.3081 L496.2697,193.5481 L496.3,188.7881 L496.3463,188.8344 L495.049,187.5371 L493.6831,186.1712 L492.0983,184.5864 L490.8264,183.3145 L489.3,181.7881 L489.3,180.7196 L482.2682,182.3189 L475.2364,182.8114 L468.2045,182.6179 L461.1727,182.9324 L454.1409,180.8863 L447.1091,180.5707 L440.0773,180.6281 L433.0455,181.6782 L426.0136,181.4212 L418.9818,183.0601 L411.95,181.462 L404.9182,181.1477 L397.8864,182.2142 L390.8545,180.5433 L383.8227,180.8191 L376.7909,182.9995 L369.7591,182.6013 L362.7273,183.1591 L355.6955,181.1874 L348.6636,182.3839 L341.6318,182.8902 L334.6,181.7881 " fill="#FAFAFA" style="stroke:#181818;stroke-width:0.3499999999999999;"/><path d="M489.3,181.7881 L489.0061,181.7881 L489.2404,183.1881 L489.3784,184.5881 L489.7055,185.9881 L489.2974,187.3881 L489.3,188.7881 L489.3,189.0759 L490.7,188.4435 L492.1,188.3667 L493.5,189.1014 L494.9,188.342 L496.3,188.7881 L496.5239,189.012 L494.9909,187.479 L493.3821,185.8702 L491.9443,184.4324 L490.9018,183.3899 L489.3,181.7881 " fill="#FAFAFA" style="stroke:#181818;stroke-width:0.3499999999999999;"/><text fill="#000000" font-family="FG Virgil" font-size="9.1" lengthAdjust="spacing" textLength="144.2" x="338.8" y="195.1079">hidden authorization user guarantee</text><text fill="#000000" font-family="FG Virgil" font-size="9.1" lengthAdjust="spacing" textLength="88.9" x="338.8" y="207.2116">(see specific diagram)</text><polygon fill="#181818" points="500.15,229.9992,500.1682,230.0448,501.5141,230.4695,502.9667,231.1611,504.3846,231.7658,505.6882,232.0847,507.15,232.7992,507.1433,232.7824,505.713,233.2668,504.3168,233.8361,502.9441,234.4645,501.4901,234.8894,500.15,235.5992,500.2413,235.6906,500.606,234.9352,501.2374,234.4466,501.9013,233.9905,502.3758,233.3451,502.95,232.7992,502.9613,232.8105,502.3847,232.2339,501.8595,231.7087,501.3095,231.1587,500.8066,230.6559,500.15,229.9992" style="stroke:#181818;stroke-width:0.6999999999999998;"/><path d="M331.45,232.7992 L331.45,232.9954 L338.366,232.4125 L345.282,232.9796 L352.198,233.1723 L359.114,232.1334 L366.03,232.7267 L372.946,232.4012 L379.862,232.4413 L386.778,232.7356 L393.694,232.1539 L400.61,233.316 L407.526,232.211 L414.442,232.6146 L421.358,233.2024 L428.274,232.7192 L435.19,232.8629 L442.106,232.7694 L449.022,232.9658 L455.938,233.0224 L462.854,233.3459 L469.77,233.4255 L476.686,233.4332 L483.602,233.0369 L490.518,233.2319 L497.434,233.4546 L504.35,232.7992 " fill="none" style="stroke:#181818;stroke-width:0.6999999999999998;"/><text fill="#000000" font-family="FG Virgil" font-size="9.1" lengthAdjust="spacing" textLength="163.8" x="336.35" y="229.1153">allMealsForDayAndType(day, mealType)</text><path d="M518.7,241.8992 L518.8308,241.8992 L518.4422,248.0592 L518.8203,254.2192 L518.9487,260.3792 L518.2561,266.5392 L518.7,272.6992 L518.7,272.5542 L525.6067,271.9031 L532.5133,271.9834 L539.42,272.572 L546.3267,271.4087 L553.2333,273.7327 L560.14,271.5227 L567.0467,272.3301 L573.9533,273.5055 L580.86,272.5391 L587.7667,272.8266 L594.6733,272.6396 L601.58,273.0325 L608.4867,273.1456 L615.3933,273.7925 L622.3,272.6992 L622.7175,272.6992 L622.7226,267.9392 L622.4584,263.1792 L622.5885,258.4192 L622.7369,253.6592 L622.3,248.8992 L621.9827,248.5819 L621.1985,247.7977 L619.3695,245.9688 L618.3349,244.9341 L616.4822,243.0814 L615.3,241.8992 L615.3,241.7714 L608.4,243.2835 L601.5,241.8082 L594.6,242.0958 L587.7,242.5313 L580.8,242.6762 L573.9,241.8919 L567,242.4354 L560.1,240.8307 L553.2,242.4301 L546.3,242.9225 L539.4,242.729 L532.5,243.0435 L525.6,240.9975 L518.7,241.8992 " fill="#FAFAFA" style="stroke:#181818;stroke-width:0.3499999999999999;"/><path d="M615.3,241.8992 L614.8942,241.8992 L614.9134,243.2992 L615.2634,244.6992 L615.1777,246.0992 L615.724,247.4992 L615.3,248.8992 L615.3,248.7905 L616.7,248.6858 L618.1,249.0413 L619.5,248.4843 L620.9,248.5762 L622.3,248.8992 L622.5855,249.1847 L621.0917,247.6909 L619.8232,246.4224 L617.9584,244.5576 L616.8404,243.4397 L615.3,241.8992 " fill="#FAFAFA" style="stroke:#181818;stroke-width:0.3499999999999999;"/><text fill="#000000" font-family="FG Virgil" font-size="9.1" lengthAdjust="spacing" textLength="88.9" x="522.9" y="255.219">Simplified persistence</text><text fill="#000000" font-family="FG Virgil" font-size="9.1" lengthAdjust="spacing" textLength="88.9" x="522.9" y="267.3228">(see specific diagram)</text><polygon fill="#181818" points="662.55,290.1104,662.5682,290.1559,663.9141,290.5806,665.3667,291.2722,666.7846,291.8769,668.0882,292.1958,669.55,292.9104,669.5433,292.8935,668.113,293.378,666.7168,293.9473,665.3441,294.5756,663.8901,295.0006,662.55,295.7104,662.6413,295.8017,663.006,295.0464,663.6374,294.5577,664.3013,294.1016,664.7758,293.4562,665.35,292.9104,665.3613,292.9216,664.7847,292.3451,664.2595,291.8198,663.7095,291.2698,663.2066,290.767,662.55,290.1104" style="stroke:#181818;stroke-width:0.6999999999999998;"/><path d="M515.55,292.9104 L515.55,293.1065 L522.4227,292.5237 L529.2955,293.0908 L536.1682,293.2834 L543.0409,292.2445 L549.9136,292.8378 L556.7864,292.5123 L563.6591,292.5524 L570.5318,292.8467 L577.4045,292.2651 L584.2773,293.4271 L591.15,292.3221 L598.0227,292.7258 L604.8955,293.3135 L611.7682,292.8303 L618.6409,292.974 L625.5136,292.8805 L632.3864,293.077 L639.2591,293.1335 L646.1318,293.457 L653.0045,293.5367 L659.8773,293.5443 L666.75,292.9104 " fill="none" style="stroke:#181818;stroke-width:0.6999999999999998;"/><text fill="#000000" font-family="FG Virgil" font-size="9.1" lengthAdjust="spacing" textLength="142.1" x="520.45" y="289.2265">findByDayAndType(day, mealType)</text><polygon fill="#181818" points="523.25,312.0141,523.2682,312.0596,521.8141,312.4843,520.4667,313.1759,519.0846,313.7807,517.5882,314.0995,516.25,314.8141,516.2433,314.7972,517.613,315.2817,519.0168,315.851,520.4441,316.4793,521.7901,316.9043,523.25,317.6141,523.3413,317.7054,522.586,316.9501,522.0974,316.4614,521.6413,316.0053,520.9958,315.3599,520.45,314.8141,520.4613,314.8253,521.0047,314.2488,521.5995,313.7235,522.1695,313.1735,522.7866,312.6707,523.25,312.0141" style="stroke:#181818;stroke-width:0.6999999999999998;"/><path d="M519.05,314.8141 L519.05,315.0102 L526.0818,314.4274 L533.1136,314.9945 L540.1455,315.1871 L547.1773,314.1482 L554.2091,314.7415 L561.2409,314.416 L568.2727,314.4561 L575.3045,314.7504 L582.3364,314.1688 L589.3682,315.3308 L596.4,314.2258 L603.4318,314.6295 L610.4636,315.2172 L617.4955,314.734 L624.5273,314.8778 L631.5591,314.7842 L638.5909,314.9807 L645.6227,315.0373 L652.6545,315.3607 L659.6864,315.4404 L666.7182,315.448 L673.75,314.8141 " fill="none" style="stroke:#181818;stroke-width:0.6999999999999998;stroke-dasharray:2.0,2.0;"/><text fill="#000000" font-family="FG Virgil" font-size="9.1" lengthAdjust="spacing" textLength="24.5" x="527.45" y="311.1302">meals</text><polygon fill="#181818" points="339.15,333.9178,339.1682,333.9633,337.7141,334.388,336.3667,335.0796,334.9846,335.6844,333.4882,336.0032,332.15,336.7178,332.1433,336.7009,333.513,337.1854,334.9168,337.7547,336.3441,338.383,337.6901,338.808,339.15,339.5178,339.2413,339.6091,338.486,338.8538,337.9974,338.3651,337.5413,337.909,336.8958,337.2636,336.35,336.7178,336.3613,336.729,336.9047,336.1525,337.4995,335.6272,338.0695,335.0772,338.6866,334.5744,339.15,333.9178" style="stroke:#181818;stroke-width:0.6999999999999998;"/><path d="M334.95,336.7178 L334.95,336.9139 L342.006,336.3311 L349.062,336.8982 L356.118,337.0908 L363.174,336.0519 L370.23,336.6452 L377.286,336.3197 L384.342,336.3598 L391.398,336.6542 L398.454,336.0725 L405.51,337.2345 L412.566,336.1295 L419.622,336.5332 L426.678,337.1209 L433.734,336.6377 L440.79,336.7815 L447.846,336.688 L454.902,336.8844 L461.958,336.941 L469.014,337.2644 L476.07,337.3441 L483.126,337.3517 L490.182,336.9554 L497.238,337.1505 L504.294,337.3732 L511.35,336.7178 " fill="none" style="stroke:#181818;stroke-width:0.6999999999999998;stroke-dasharray:2.0,2.0;"/><text fill="#000000" font-family="FG Virgil" font-size="9.1" lengthAdjust="spacing" textLength="24.5" x="343.35" y="333.0339">meals</text><polygon fill="#181818" points="223.65,355.8215,223.6682,355.867,222.2141,356.2917,220.8667,356.9834,219.4846,357.5881,217.9882,357.9069,216.65,358.6215,216.6433,358.6046,218.013,359.0891,219.4168,359.6584,220.8441,360.2867,222.1901,360.7117,223.65,361.4215,223.7413,361.5128,222.986,360.7575,222.4974,360.2689,222.0413,359.8128,221.3958,359.1673,220.85,358.6215,220.8613,358.6327,221.4047,358.0562,221.9995,357.5309,222.5695,356.9809,223.1866,356.4781,223.65,355.8215" style="stroke:#181818;stroke-width:0.6999999999999998;"/><path d="M219.45,358.6215 L219.45,358.8177 L226.6367,358.2348 L233.8233,358.8019 L241.01,358.9945 L248.1967,357.9556 L255.3833,358.549 L262.57,358.2234 L269.7567,358.2636 L276.9433,358.5579 L284.13,357.9762 L291.3167,359.1382 L298.5033,358.0332 L305.69,358.4369 L312.8767,359.0246 L320.0633,358.5414 L327.25,358.6215 " fill="none" style="stroke:#181818;stroke-width:0.6999999999999998;stroke-dasharray:2.0,2.0;"/><text fill="#000000" font-family="FG Virgil" font-size="9.1" lengthAdjust="spacing" textLength="24.5" x="227.85" y="354.9376">meals</text><polygon fill="#181818" points="45.15,377.7252,45.1682,377.7707,43.7141,378.1954,42.3667,378.8871,40.9846,379.4918,39.4882,379.8106,38.15,380.5252,38.1433,380.5084,39.513,380.9928,40.9168,381.5621,42.3441,382.1904,43.6901,382.6154,45.15,383.3252,45.2413,383.4165,44.486,382.6612,43.9974,382.1726,43.5413,381.7165,42.8958,381.071,42.35,380.5252,42.3613,380.5365,42.9047,379.9599,43.4995,379.4347,44.0695,378.8847,44.6866,378.3818,45.15,377.7252" style="stroke:#181818;stroke-width:0.6999999999999998;"/><path d="M40.95,380.5252 L40.95,380.7214 L48.0667,380.1385 L55.1833,380.7056 L62.3,380.8982 L69.4167,379.8594 L76.5333,380.4527 L83.65,380.1271 L90.7667,380.1673 L97.8833,380.4616 L105,379.8799 L112.1167,381.0419 L119.2333,379.9369 L126.35,380.3406 L133.4667,380.9283 L140.5833,380.4451 L147.7,380.5889 L154.8167,380.4954 L161.9333,380.6918 L169.05,380.7484 L176.1667,381.0718 L183.2833,381.1515 L190.4,381.1592 L197.5167,380.7628 L204.6333,380.9579 L211.75,380.5252 " fill="none" style="stroke:#181818;stroke-width:0.6999999999999998;stroke-dasharray:2.0,2.0;"/><text fill="#000000" font-family="FG Virgil" font-size="9.1" lengthAdjust="spacing" textLength="57.4" x="49.35" y="376.8413">Display Meals</text><!--SRC=[XLFBhjem4DtdAsPvaSeFH14IxHKLKkcYbAwwcTgJP8HZHxO3eb_ViIb9ADnUBmZEd7Fcp2FXoBP7ZnsqQFNPSuna8Vg1YZ26EcUTQhthwDz8Z-g83UtZnH1uKd4MqrJZOEB6sVWLXRhv33_ODsnccD2YTcUs3THe0XK5gkWyxCWEExIYx043hDFBGXYH5VTe8tnoDeZsZj0SjWaYlrNLUmfa8qPsThLwYo1_etV6NBLdjwh2lZUidl6_SCZaFVaJAqhC_KazK3H6_8M1866_KUy2Y_LBWizkLUN7Yv2AN1yiboifexnPpH8XDOHF64b21SYHGWKtkIv1UPBu69HerYjX7OxmYfBSQjYtxfoB05TdPVX-wIbardtw6sC45M_axPA_ZVD2M5kTa2-B31qjJ-YhHZhMIS1pqsOdi-wNqBBMidmunDPv_frx2aEGM3F8jjX813_jIv17w4bnpGeqOoEBj9WIp2J5i0of13HczsXMu-L3BYBT5YD_T2_KIVNHUXf_2NlkPFurauQUV906arNqlijqae9Od1QZX9gj_dXvt-ITqKdWNd-sSSjRA_BGxb2Q_YkKJJwRVF54O6pPX1Pksgg9CeFFz-Em5UJVnNtbq1jPm-iNC2CSjdy0]--></g></svg>