<?xml version="1.0" encoding="us-ascii" standalone="no"?><svg xmlns="http://www.w3.org/2000/svg" xmlns:xlink="http://www.w3.org/1999/xlink" contentStyleType="text/css" height="369.6px" preserveAspectRatio="none" style="width:943px;height:369px;background:#FFFFFF;" version="1.1" viewBox="0 0 943 369" width="943.2px" zoomAndPan="magnify"><defs/><g><!--cluster <<aggregate>> Meal--><g id="cluster_&lt;&lt;aggregate&gt;&gt; Meal"><path d="M6.8,4.8109 L108.4,4.8109 A3,3 0 0 1 110.4,6.8109 L116,24.5078 L332.4,24.5078 A2,2 0 0 1 334.4,26.5078 L334.4,247.6109 A2,2 0 0 1 332.4,249.6109 L6.8,249.6109 A2,2 0 0 1 4.8,247.6109 L4.8,6.8109 A2,2 0 0 1 6.8,4.8109 " fill="none" style="stroke:#000000;stroke-width:1.2000000000000002;"/><line style="stroke:#000000;stroke-width:1.2000000000000002;" x1="4.8" x2="116" y1="24.5078" y2="24.5078"/><text fill="#000000" font-family="sans-serif" font-size="11.2" font-weight="bold" lengthAdjust="spacing" textLength="100.8" x="8" y="18.4969">&#171;aggregate&#187; Meal</text></g><!--cluster <<aggregate>> Dish--><g id="cluster_&lt;&lt;aggregate&gt;&gt; Dish"><path d="M355.6,141.6109 L454.8,141.6109 A3,3 0 0 1 456.8,143.6109 L462.4,161.3078 L935.6,161.3078 A2,2 0 0 1 937.6,163.3078 L937.6,362.0109 A2,2 0 0 1 935.6,364.0109 L355.6,364.0109 A2,2 0 0 1 353.6,362.0109 L353.6,143.6109 A2,2 0 0 1 355.6,141.6109 " fill="none" style="stroke:#000000;stroke-width:1.2000000000000002;"/><line style="stroke:#000000;stroke-width:1.2000000000000002;" x1="353.6" x2="462.4" y1="161.3078" y2="161.3078"/><text fill="#000000" font-family="sans-serif" font-size="11.2" font-weight="bold" lengthAdjust="spacing" textLength="98.4" x="356.8" y="155.2969">&#171;aggregate&#187; Dish</text></g><!--class Meal--><g id="elem_Meal"><rect codeLine="6" fill="#F1F1F1" height="54.8344" id="Meal" rx="2" ry="2" style="stroke:#181818;stroke-width:0.4000000000000001;" width="56.8" x="195.6" y="34.4109"/><ellipse cx="207.6" cy="58.6281" fill="#ADD1B2" rx="8.8" ry="8.8" style="stroke:#181818;stroke-width:0.8000000000000002;"/><path d="M209.8125,55.3281 Q209.9375,55.1531 210.0875,55.0656 Q210.2375,54.9781 210.4125,54.9781 Q210.7125,54.9781 210.9,55.1906 Q211.0875,55.3906 211.0875,55.8781 L211.0875,57.0406 Q211.0875,57.5281 210.9,57.7406 Q210.7125,57.9531 210.4125,57.9531 Q210.1375,57.9531 209.975,57.7906 Q209.8125,57.6406 209.725,57.2281 Q209.6875,56.9406 209.5375,56.7906 Q209.275,56.4906 208.7875,56.3156 Q208.3,56.1406 207.8,56.1406 Q207.1875,56.1406 206.675,56.4031 Q206.175,56.6656 205.775,57.2656 Q205.3875,57.8656 205.3875,58.6906 L205.3875,59.5656 Q205.3875,60.5531 206.1,61.2156 Q206.8125,61.8656 208.0875,61.8656 Q208.8375,61.8656 209.3625,61.6656 Q209.675,61.5406 210.0125,61.1906 Q210.225,60.9781 210.3375,60.9156 Q210.4625,60.8531 210.625,60.8531 Q210.8875,60.8531 211.0875,61.0656 Q211.3,61.2656 211.3,61.5406 Q211.3,61.8156 211.025,62.1406 Q210.625,62.6031 209.9875,62.8656 Q209.125,63.2281 208.0875,63.2281 Q206.875,63.2281 205.9125,62.7281 Q205.125,62.3281 204.575,61.4781 Q204.025,60.6156 204.025,59.5906 L204.025,58.6656 Q204.025,57.6031 204.5125,56.6906 Q205.0125,55.7656 205.8875,55.2781 Q206.7625,54.7781 207.75,54.7781 Q208.3375,54.7781 208.85,54.9156 Q209.375,55.0406 209.8125,55.3281 Z " fill="#000000"/><text fill="#000000" font-family="sans-serif" font-size="9.6" font-style="italic" lengthAdjust="spacing" textLength="34.4" x="217.2" y="48.7703">&#171;entity&#187;</text><text fill="#000000" font-family="sans-serif" font-size="9.6" font-style="italic" lengthAdjust="spacing" textLength="28" x="220.4" y="61.5391">&#171;root&#187;</text><text fill="#000000" font-family="sans-serif" font-size="11.2" lengthAdjust="spacing" textLength="24" x="222.4" y="76.0344">Meal</text><line style="stroke:#181818;stroke-width:0.4000000000000001;" x1="196.4" x2="251.6" y1="82.8453" y2="82.8453"/></g><!--class MealType--><g id="elem_MealType"><rect codeLine="9" fill="#F1F1F1" height="42.0656" id="MealType" rx="2" ry="2" style="stroke:#181818;stroke-width:0.4000000000000001;" width="87.2" x="18" y="188.0109"/><ellipse cx="30" cy="205.8438" fill="#ADD1B2" rx="8.8" ry="8.8" style="stroke:#181818;stroke-width:0.8000000000000002;"/><path d="M32.2125,202.5438 Q32.3375,202.3688 32.4875,202.2813 Q32.6375,202.1938 32.8125,202.1938 Q33.1125,202.1938 33.3,202.4063 Q33.4875,202.6063 33.4875,203.0938 L33.4875,204.2563 Q33.4875,204.7438 33.3,204.9563 Q33.1125,205.1688 32.8125,205.1688 Q32.5375,205.1688 32.375,205.0063 Q32.2125,204.8563 32.125,204.4438 Q32.0875,204.1563 31.9375,204.0063 Q31.675,203.7063 31.1875,203.5313 Q30.7,203.3563 30.2,203.3563 Q29.5875,203.3563 29.075,203.6188 Q28.575,203.8813 28.175,204.4813 Q27.7875,205.0813 27.7875,205.9063 L27.7875,206.7813 Q27.7875,207.7688 28.5,208.4313 Q29.2125,209.0813 30.4875,209.0813 Q31.2375,209.0813 31.7625,208.8813 Q32.075,208.7563 32.4125,208.4063 Q32.625,208.1938 32.7375,208.1313 Q32.8625,208.0688 33.025,208.0688 Q33.2875,208.0688 33.4875,208.2813 Q33.7,208.4813 33.7,208.7563 Q33.7,209.0313 33.425,209.3563 Q33.025,209.8188 32.3875,210.0813 Q31.525,210.4438 30.4875,210.4438 Q29.275,210.4438 28.3125,209.9438 Q27.525,209.5438 26.975,208.6938 Q26.425,207.8313 26.425,206.8063 L26.425,205.8813 Q26.425,204.8188 26.9125,203.9063 Q27.4125,202.9813 28.2875,202.4938 Q29.1625,201.9938 30.15,201.9938 Q30.7375,201.9938 31.25,202.1313 Q31.775,202.2563 32.2125,202.5438 Z " fill="#000000"/><text fill="#000000" font-family="sans-serif" font-size="9.6" font-style="italic" lengthAdjust="spacing" textLength="64.8" x="39.6" y="202.3703">&#171;value object&#187;</text><text fill="#000000" font-family="sans-serif" font-size="11.2" lengthAdjust="spacing" textLength="49.6" x="47.2" y="216.8656">MealType</text><line style="stroke:#181818;stroke-width:0.4000000000000001;" x1="18.8" x2="104.4" y1="223.6766" y2="223.6766"/></g><!--class Calender--><g id="elem_Calender"><rect codeLine="12" fill="#F1F1F1" height="32" id="Calender" rx="2" ry="2" style="stroke:#181818;stroke-width:0.4000000000000001;" width="72" x="133.6" y="193.2109"/><ellipse cx="145.6" cy="206.0109" fill="#ADD1B2" rx="8.8" ry="8.8" style="stroke:#181818;stroke-width:0.8000000000000002;"/><path d="M147.8125,202.7109 Q147.9375,202.5359 148.0875,202.4484 Q148.2375,202.3609 148.4125,202.3609 Q148.7125,202.3609 148.9,202.5734 Q149.0875,202.7734 149.0875,203.2609 L149.0875,204.4234 Q149.0875,204.9109 148.9,205.1234 Q148.7125,205.3359 148.4125,205.3359 Q148.1375,205.3359 147.975,205.1734 Q147.8125,205.0234 147.725,204.6109 Q147.6875,204.3234 147.5375,204.1734 Q147.275,203.8734 146.7875,203.6984 Q146.3,203.5234 145.8,203.5234 Q145.1875,203.5234 144.675,203.7859 Q144.175,204.0484 143.775,204.6484 Q143.3875,205.2484 143.3875,206.0734 L143.3875,206.9484 Q143.3875,207.9359 144.1,208.5984 Q144.8125,209.2484 146.0875,209.2484 Q146.8375,209.2484 147.3625,209.0484 Q147.675,208.9234 148.0125,208.5734 Q148.225,208.3609 148.3375,208.2984 Q148.4625,208.2359 148.625,208.2359 Q148.8875,208.2359 149.0875,208.4484 Q149.3,208.6484 149.3,208.9234 Q149.3,209.1984 149.025,209.5234 Q148.625,209.9859 147.9875,210.2484 Q147.125,210.6109 146.0875,210.6109 Q144.875,210.6109 143.9125,210.1109 Q143.125,209.7109 142.575,208.8609 Q142.025,207.9984 142.025,206.9734 L142.025,206.0484 Q142.025,204.9859 142.5125,204.0734 Q143.0125,203.1484 143.8875,202.6609 Q144.7625,202.1609 145.75,202.1609 Q146.3375,202.1609 146.85,202.2984 Q147.375,202.4234 147.8125,202.7109 Z " fill="#000000"/><text fill="#000000" font-family="sans-serif" font-size="11.2" lengthAdjust="spacing" textLength="46.4" x="156.8" y="210.6484">Calender</text><line style="stroke:#181818;stroke-width:0.4000000000000001;" x1="134.4" x2="204.8" y1="218.8109" y2="218.8109"/></g><!--class MealID--><g id="elem_MealID"><rect codeLine="15" fill="#F1F1F1" height="54.8344" id="MealID" rx="2" ry="2" style="stroke:#181818;stroke-width:0.4000000000000001;" width="87.2" x="234" y="181.6109"/><ellipse cx="246" cy="205.8281" fill="#ADD1B2" rx="8.8" ry="8.8" style="stroke:#181818;stroke-width:0.8000000000000002;"/><path d="M248.2125,202.5281 Q248.3375,202.3531 248.4875,202.2656 Q248.6375,202.1781 248.8125,202.1781 Q249.1125,202.1781 249.3,202.3906 Q249.4875,202.5906 249.4875,203.0781 L249.4875,204.2406 Q249.4875,204.7281 249.3,204.9406 Q249.1125,205.1531 248.8125,205.1531 Q248.5375,205.1531 248.375,204.9906 Q248.2125,204.8406 248.125,204.4281 Q248.0875,204.1406 247.9375,203.9906 Q247.675,203.6906 247.1875,203.5156 Q246.7,203.3406 246.2,203.3406 Q245.5875,203.3406 245.075,203.6031 Q244.575,203.8656 244.175,204.4656 Q243.7875,205.0656 243.7875,205.8906 L243.7875,206.7656 Q243.7875,207.7531 244.5,208.4156 Q245.2125,209.0656 246.4875,209.0656 Q247.2375,209.0656 247.7625,208.8656 Q248.075,208.7406 248.4125,208.3906 Q248.625,208.1781 248.7375,208.1156 Q248.8625,208.0531 249.025,208.0531 Q249.2875,208.0531 249.4875,208.2656 Q249.7,208.4656 249.7,208.7406 Q249.7,209.0156 249.425,209.3406 Q249.025,209.8031 248.3875,210.0656 Q247.525,210.4281 246.4875,210.4281 Q245.275,210.4281 244.3125,209.9281 Q243.525,209.5281 242.975,208.6781 Q242.425,207.8156 242.425,206.7906 L242.425,205.8656 Q242.425,204.8031 242.9125,203.8906 Q243.4125,202.9656 244.2875,202.4781 Q245.1625,201.9781 246.15,201.9781 Q246.7375,201.9781 247.25,202.1156 Q247.775,202.2406 248.2125,202.5281 Z " fill="#000000"/><text fill="#000000" font-family="sans-serif" font-size="9.6" font-style="italic" lengthAdjust="spacing" textLength="64.8" x="255.6" y="195.9703">&#171;value object&#187;</text><text fill="#000000" font-family="sans-serif" font-size="9.6" font-style="italic" lengthAdjust="spacing" textLength="19.2" x="278.4" y="208.7391">&#171;id&#187;</text><text fill="#000000" font-family="sans-serif" font-size="11.2" lengthAdjust="spacing" textLength="34.4" x="270.8" y="223.2344">MealID</text><line style="stroke:#181818;stroke-width:0.4000000000000001;" x1="234.8" x2="320.4" y1="230.0453" y2="230.0453"/></g><!--class Dish--><g id="elem_Dish"><rect codeLine="24" fill="#F1F1F1" height="76.1313" id="Dish" rx="2" ry="2" style="stroke:#181818;stroke-width:0.4000000000000001;" width="93.6" x="538.8" y="171.2109"/><ellipse cx="567.36" cy="195.4281" fill="#ADD1B2" rx="8.8" ry="8.8" style="stroke:#181818;stroke-width:0.8000000000000002;"/><path d="M569.5725,192.1281 Q569.6975,191.9531 569.8475,191.8656 Q569.9975,191.7781 570.1725,191.7781 Q570.4725,191.7781 570.66,191.9906 Q570.8475,192.1906 570.8475,192.6781 L570.8475,193.8406 Q570.8475,194.3281 570.66,194.5406 Q570.4725,194.7531 570.1725,194.7531 Q569.8975,194.7531 569.735,194.5906 Q569.5725,194.4406 569.485,194.0281 Q569.4475,193.7406 569.2975,193.5906 Q569.035,193.2906 568.5475,193.1156 Q568.06,192.9406 567.56,192.9406 Q566.9475,192.9406 566.435,193.2031 Q565.935,193.4656 565.535,194.0656 Q565.1475,194.6656 565.1475,195.4906 L565.1475,196.3656 Q565.1475,197.3531 565.86,198.0156 Q566.5725,198.6656 567.8475,198.6656 Q568.5975,198.6656 569.1225,198.4656 Q569.435,198.3406 569.7725,197.9906 Q569.985,197.7781 570.0975,197.7156 Q570.2225,197.6531 570.385,197.6531 Q570.6475,197.6531 570.8475,197.8656 Q571.06,198.0656 571.06,198.3406 Q571.06,198.6156 570.785,198.9406 Q570.385,199.4031 569.7475,199.6656 Q568.885,200.0281 567.8475,200.0281 Q566.635,200.0281 565.6725,199.5281 Q564.885,199.1281 564.335,198.2781 Q563.785,197.4156 563.785,196.3906 L563.785,195.4656 Q563.785,194.4031 564.2725,193.4906 Q564.7725,192.5656 565.6475,192.0781 Q566.5225,191.5781 567.51,191.5781 Q568.0975,191.5781 568.61,191.7156 Q569.135,191.8406 569.5725,192.1281 Z " fill="#000000"/><text fill="#000000" font-family="sans-serif" font-size="9.6" font-style="italic" lengthAdjust="spacing" textLength="34.4" x="580.64" y="185.5703">&#171;entity&#187;</text><text fill="#000000" font-family="sans-serif" font-size="9.6" font-style="italic" lengthAdjust="spacing" textLength="28" x="583.84" y="198.3391">&#171;root&#187;</text><text fill="#000000" font-family="sans-serif" font-size="11.2" lengthAdjust="spacing" textLength="22.4" x="586.64" y="212.8344">Dish</text><line style="stroke:#181818;stroke-width:0.4000000000000001;" x1="539.6" x2="631.6" y1="219.6453" y2="219.6453"/><text fill="#000000" font-family="sans-serif" font-size="11.2" lengthAdjust="spacing" textLength="84" x="543.6" y="234.9313">-active : boolean</text><line style="stroke:#181818;stroke-width:0.4000000000000001;" x1="539.6" x2="631.6" y1="240.9422" y2="240.9422"/></g><!--class DishType--><g id="elem_DishType"><rect codeLine="28" fill="#F1F1F1" height="42.0656" id="DishType" rx="2" ry="2" style="stroke:#181818;stroke-width:0.4000000000000001;" width="87.2" x="366.8" y="302.4109"/><ellipse cx="378.8" cy="320.2438" fill="#ADD1B2" rx="8.8" ry="8.8" style="stroke:#181818;stroke-width:0.8000000000000002;"/><path d="M381.0125,316.9438 Q381.1375,316.7688 381.2875,316.6813 Q381.4375,316.5938 381.6125,316.5938 Q381.9125,316.5938 382.1,316.8063 Q382.2875,317.0063 382.2875,317.4938 L382.2875,318.6563 Q382.2875,319.1438 382.1,319.3563 Q381.9125,319.5688 381.6125,319.5688 Q381.3375,319.5688 381.175,319.4063 Q381.0125,319.2563 380.925,318.8438 Q380.8875,318.5563 380.7375,318.4063 Q380.475,318.1063 379.9875,317.9313 Q379.5,317.7563 379,317.7563 Q378.3875,317.7563 377.875,318.0188 Q377.375,318.2813 376.975,318.8813 Q376.5875,319.4813 376.5875,320.3063 L376.5875,321.1813 Q376.5875,322.1688 377.3,322.8313 Q378.0125,323.4813 379.2875,323.4813 Q380.0375,323.4813 380.5625,323.2813 Q380.875,323.1563 381.2125,322.8063 Q381.425,322.5938 381.5375,322.5313 Q381.6625,322.4688 381.825,322.4688 Q382.0875,322.4688 382.2875,322.6813 Q382.5,322.8813 382.5,323.1563 Q382.5,323.4313 382.225,323.7563 Q381.825,324.2188 381.1875,324.4813 Q380.325,324.8438 379.2875,324.8438 Q378.075,324.8438 377.1125,324.3438 Q376.325,323.9438 375.775,323.0938 Q375.225,322.2313 375.225,321.2063 L375.225,320.2813 Q375.225,319.2188 375.7125,318.3063 Q376.2125,317.3813 377.0875,316.8938 Q377.9625,316.3938 378.95,316.3938 Q379.5375,316.3938 380.05,316.5313 Q380.575,316.6563 381.0125,316.9438 Z " fill="#000000"/><text fill="#000000" font-family="sans-serif" font-size="9.6" font-style="italic" lengthAdjust="spacing" textLength="64.8" x="388.4" y="316.7703">&#171;value object&#187;</text><text fill="#000000" font-family="sans-serif" font-size="11.2" lengthAdjust="spacing" textLength="48" x="396.8" y="331.2656">DishType</text><line style="stroke:#181818;stroke-width:0.4000000000000001;" x1="367.6" x2="453.2" y1="338.0766" y2="338.0766"/></g><!--class Description--><g id="elem_Description"><rect codeLine="31" fill="#F1F1F1" height="42.0656" id="Description" rx="2" ry="2" style="stroke:#181818;stroke-width:0.4000000000000001;" width="87.2" x="482" y="302.4109"/><ellipse cx="494" cy="320.2438" fill="#ADD1B2" rx="8.8" ry="8.8" style="stroke:#181818;stroke-width:0.8000000000000002;"/><path d="M496.2125,316.9438 Q496.3375,316.7688 496.4875,316.6813 Q496.6375,316.5938 496.8125,316.5938 Q497.1125,316.5938 497.3,316.8063 Q497.4875,317.0063 497.4875,317.4938 L497.4875,318.6563 Q497.4875,319.1438 497.3,319.3563 Q497.1125,319.5688 496.8125,319.5688 Q496.5375,319.5688 496.375,319.4063 Q496.2125,319.2563 496.125,318.8438 Q496.0875,318.5563 495.9375,318.4063 Q495.675,318.1063 495.1875,317.9313 Q494.7,317.7563 494.2,317.7563 Q493.5875,317.7563 493.075,318.0188 Q492.575,318.2813 492.175,318.8813 Q491.7875,319.4813 491.7875,320.3063 L491.7875,321.1813 Q491.7875,322.1688 492.5,322.8313 Q493.2125,323.4813 494.4875,323.4813 Q495.2375,323.4813 495.7625,323.2813 Q496.075,323.1563 496.4125,322.8063 Q496.625,322.5938 496.7375,322.5313 Q496.8625,322.4688 497.025,322.4688 Q497.2875,322.4688 497.4875,322.6813 Q497.7,322.8813 497.7,323.1563 Q497.7,323.4313 497.425,323.7563 Q497.025,324.2188 496.3875,324.4813 Q495.525,324.8438 494.4875,324.8438 Q493.275,324.8438 492.3125,324.3438 Q491.525,323.9438 490.975,323.0938 Q490.425,322.2313 490.425,321.2063 L490.425,320.2813 Q490.425,319.2188 490.9125,318.3063 Q491.4125,317.3813 492.2875,316.8938 Q493.1625,316.3938 494.15,316.3938 Q494.7375,316.3938 495.25,316.5313 Q495.775,316.6563 496.2125,316.9438 Z " fill="#000000"/><text fill="#000000" font-family="sans-serif" font-size="9.6" font-style="italic" lengthAdjust="spacing" textLength="64.8" x="503.6" y="316.7703">&#171;value object&#187;</text><text fill="#000000" font-family="sans-serif" font-size="11.2" lengthAdjust="spacing" textLength="56.8" x="507.6" y="331.2656">Description</text><line style="stroke:#181818;stroke-width:0.4000000000000001;" x1="482.8" x2="568.4" y1="338.0766" y2="338.0766"/></g><!--class NutricionalInfo--><g id="elem_NutricionalInfo"><rect codeLine="34" fill="#F1F1F1" height="42.0656" id="NutricionalInfo" rx="2" ry="2" style="stroke:#181818;stroke-width:0.4000000000000001;" width="96.8" x="597.2" y="302.4109"/><ellipse cx="609.2" cy="320.2438" fill="#ADD1B2" rx="8.8" ry="8.8" style="stroke:#181818;stroke-width:0.8000000000000002;"/><path d="M611.4125,316.9438 Q611.5375,316.7688 611.6875,316.6813 Q611.8375,316.5938 612.0125,316.5938 Q612.3125,316.5938 612.5,316.8063 Q612.6875,317.0063 612.6875,317.4938 L612.6875,318.6563 Q612.6875,319.1438 612.5,319.3563 Q612.3125,319.5688 612.0125,319.5688 Q611.7375,319.5688 611.575,319.4063 Q611.4125,319.2563 611.325,318.8438 Q611.2875,318.5563 611.1375,318.4063 Q610.875,318.1063 610.3875,317.9313 Q609.9,317.7563 609.4,317.7563 Q608.7875,317.7563 608.275,318.0188 Q607.775,318.2813 607.375,318.8813 Q606.9875,319.4813 606.9875,320.3063 L606.9875,321.1813 Q606.9875,322.1688 607.7,322.8313 Q608.4125,323.4813 609.6875,323.4813 Q610.4375,323.4813 610.9625,323.2813 Q611.275,323.1563 611.6125,322.8063 Q611.825,322.5938 611.9375,322.5313 Q612.0625,322.4688 612.225,322.4688 Q612.4875,322.4688 612.6875,322.6813 Q612.9,322.8813 612.9,323.1563 Q612.9,323.4313 612.625,323.7563 Q612.225,324.2188 611.5875,324.4813 Q610.725,324.8438 609.6875,324.8438 Q608.475,324.8438 607.5125,324.3438 Q606.725,323.9438 606.175,323.0938 Q605.625,322.2313 605.625,321.2063 L605.625,320.2813 Q605.625,319.2188 606.1125,318.3063 Q606.6125,317.3813 607.4875,316.8938 Q608.3625,316.3938 609.35,316.3938 Q609.9375,316.3938 610.45,316.5313 Q610.975,316.6563 611.4125,316.9438 Z " fill="#000000"/><text fill="#000000" font-family="sans-serif" font-size="9.6" font-style="italic" lengthAdjust="spacing" textLength="64.8" x="623.6" y="316.7703">&#171;value object&#187;</text><text fill="#000000" font-family="sans-serif" font-size="11.2" lengthAdjust="spacing" textLength="71.2" x="620.4" y="331.2656">NutricionalInfo</text><line style="stroke:#181818;stroke-width:0.4000000000000001;" x1="598" x2="693.2" y1="338.0766" y2="338.0766"/></g><!--class Money--><g id="elem_Money"><rect codeLine="37" fill="#F1F1F1" height="42.0656" id="Money" rx="2" ry="2" style="stroke:#181818;stroke-width:0.4000000000000001;" width="87.2" x="722" y="302.4109"/><ellipse cx="734" cy="320.2438" fill="#ADD1B2" rx="8.8" ry="8.8" style="stroke:#181818;stroke-width:0.8000000000000002;"/><path d="M736.2125,316.9438 Q736.3375,316.7688 736.4875,316.6813 Q736.6375,316.5938 736.8125,316.5938 Q737.1125,316.5938 737.3,316.8063 Q737.4875,317.0063 737.4875,317.4938 L737.4875,318.6563 Q737.4875,319.1438 737.3,319.3563 Q737.1125,319.5688 736.8125,319.5688 Q736.5375,319.5688 736.375,319.4063 Q736.2125,319.2563 736.125,318.8438 Q736.0875,318.5563 735.9375,318.4063 Q735.675,318.1063 735.1875,317.9313 Q734.7,317.7563 734.2,317.7563 Q733.5875,317.7563 733.075,318.0188 Q732.575,318.2813 732.175,318.8813 Q731.7875,319.4813 731.7875,320.3063 L731.7875,321.1813 Q731.7875,322.1688 732.5,322.8313 Q733.2125,323.4813 734.4875,323.4813 Q735.2375,323.4813 735.7625,323.2813 Q736.075,323.1563 736.4125,322.8063 Q736.625,322.5938 736.7375,322.5313 Q736.8625,322.4688 737.025,322.4688 Q737.2875,322.4688 737.4875,322.6813 Q737.7,322.8813 737.7,323.1563 Q737.7,323.4313 737.425,323.7563 Q737.025,324.2188 736.3875,324.4813 Q735.525,324.8438 734.4875,324.8438 Q733.275,324.8438 732.3125,324.3438 Q731.525,323.9438 730.975,323.0938 Q730.425,322.2313 730.425,321.2063 L730.425,320.2813 Q730.425,319.2188 730.9125,318.3063 Q731.4125,317.3813 732.2875,316.8938 Q733.1625,316.3938 734.15,316.3938 Q734.7375,316.3938 735.25,316.5313 Q735.775,316.6563 736.2125,316.9438 Z " fill="#000000"/><text fill="#000000" font-family="sans-serif" font-size="9.6" font-style="italic" lengthAdjust="spacing" textLength="64.8" x="743.6" y="316.7703">&#171;value object&#187;</text><text fill="#000000" font-family="sans-serif" font-size="11.2" lengthAdjust="spacing" textLength="33.6" x="759.2" y="331.2656">Money</text><line style="stroke:#181818;stroke-width:0.4000000000000001;" x1="722.8" x2="808.4" y1="338.0766" y2="338.0766"/></g><!--class Designation--><g id="elem_Designation"><rect codeLine="40" fill="#F1F1F1" height="54.8344" id="Designation" rx="2" ry="2" style="stroke:#181818;stroke-width:0.4000000000000001;" width="87.2" x="837.2" y="296.0109"/><ellipse cx="849.2" cy="320.2281" fill="#ADD1B2" rx="8.8" ry="8.8" style="stroke:#181818;stroke-width:0.8000000000000002;"/><path d="M851.4125,316.9281 Q851.5375,316.7531 851.6875,316.6656 Q851.8375,316.5781 852.0125,316.5781 Q852.3125,316.5781 852.5,316.7906 Q852.6875,316.9906 852.6875,317.4781 L852.6875,318.6406 Q852.6875,319.1281 852.5,319.3406 Q852.3125,319.5531 852.0125,319.5531 Q851.7375,319.5531 851.575,319.3906 Q851.4125,319.2406 851.325,318.8281 Q851.2875,318.5406 851.1375,318.3906 Q850.875,318.0906 850.3875,317.9156 Q849.9,317.7406 849.4,317.7406 Q848.7875,317.7406 848.275,318.0031 Q847.775,318.2656 847.375,318.8656 Q846.9875,319.4656 846.9875,320.2906 L846.9875,321.1656 Q846.9875,322.1531 847.7,322.8156 Q848.4125,323.4656 849.6875,323.4656 Q850.4375,323.4656 850.9625,323.2656 Q851.275,323.1406 851.6125,322.7906 Q851.825,322.5781 851.9375,322.5156 Q852.0625,322.4531 852.225,322.4531 Q852.4875,322.4531 852.6875,322.6656 Q852.9,322.8656 852.9,323.1406 Q852.9,323.4156 852.625,323.7406 Q852.225,324.2031 851.5875,324.4656 Q850.725,324.8281 849.6875,324.8281 Q848.475,324.8281 847.5125,324.3281 Q846.725,323.9281 846.175,323.0781 Q845.625,322.2156 845.625,321.1906 L845.625,320.2656 Q845.625,319.2031 846.1125,318.2906 Q846.6125,317.3656 847.4875,316.8781 Q848.3625,316.3781 849.35,316.3781 Q849.9375,316.3781 850.45,316.5156 Q850.975,316.6406 851.4125,316.9281 Z " fill="#000000"/><text fill="#000000" font-family="sans-serif" font-size="9.6" font-style="italic" lengthAdjust="spacing" textLength="64.8" x="858.8" y="310.3703">&#171;value object&#187;</text><text fill="#000000" font-family="sans-serif" font-size="9.6" font-style="italic" lengthAdjust="spacing" textLength="19.2" x="881.6" y="323.1391">&#171;id&#187;</text><text fill="#000000" font-family="sans-serif" font-size="11.2" lengthAdjust="spacing" textLength="60" x="861.2" y="337.6344">Designation</text><line style="stroke:#181818;stroke-width:0.4000000000000001;" x1="838" x2="923.6" y1="344.4453" y2="344.4453"/></g><!--link Meal to MealID--><g id="link_Meal_MealID"><path codeLine="18" d="M233.96,89.8589 C243.584,116.0109 256.4296,150.9065 266.0376,177.0025 " fill="none" id="Meal-to-MealID" style="stroke:#181818;stroke-width:0.8000000000000002;"/><polygon fill="#181818" points="267.696,181.5069,268.2113,173.6447,266.314,177.7533,262.2054,175.856,267.696,181.5069" style="stroke:#181818;stroke-width:0.8000000000000002;"/><text fill="#000000" font-family="sans-serif" font-size="10.4" lengthAdjust="spacing" textLength="5.6" x="259.6743" y="172.6093">1</text></g><!--link Meal to MealType--><g id="link_Meal_MealType"><path codeLine="19" d="M195.432,79.5389 C173.552,93.0749 143.28,113.4029 120,135.2109 C102.912,151.2189 89.3656,168.4727 78.3336,183.9207 " fill="none" id="Meal-to-MealType" style="stroke:#181818;stroke-width:0.8000000000000002;"/><polygon fill="#181818" points="75.544,187.8269,82.3325,183.8274,77.8686,184.5718,77.1242,180.1079,75.544,187.8269" style="stroke:#181818;stroke-width:0.8000000000000002;"/><text fill="#000000" font-family="sans-serif" font-size="10.4" lengthAdjust="spacing" textLength="5.6" x="72.5211" y="178.9976">1</text></g><!--link Meal to Calender--><g id="link_Meal_Calender"><path codeLine="20" d="M213.896,89.8589 C202.528,120.2829 186.1356,164.1544 176.9916,188.6344 " fill="none" id="Meal-to-Calender" style="stroke:#181818;stroke-width:0.8000000000000002;"/><polygon fill="#181818" points="175.312,193.1309,180.8291,187.5058,176.7117,189.3838,174.8337,185.2664,175.312,193.1309" style="stroke:#181818;stroke-width:0.8000000000000002;"/><text fill="#000000" font-family="sans-serif" font-size="10.4" lengthAdjust="spacing" textLength="5.6" x="170.5674" y="184.0668">1</text></g><!--link Dish to Designation--><g id="link_Dish_Designation"><path codeLine="43" d="M632.504,225.6189 C680.768,242.0029 757.912,269.0669 823.2,296.0109 C827.688,297.8589 827.942,297.9168 832.566,299.9728 " fill="none" id="Dish-to-Designation" style="stroke:#181818;stroke-width:0.8000000000000002;"/><polygon fill="#181818" points="836.952,301.9229,831.6731,296.0737,833.297,300.2978,829.0729,301.9217,836.952,301.9229" style="stroke:#181818;stroke-width:0.8000000000000002;"/><text fill="#000000" font-family="sans-serif" font-size="10.4" lengthAdjust="spacing" textLength="5.6" x="825.0837" y="295.7577">1</text></g><!--link Dish to NutricionalInfo--><g id="link_Dish_NutricionalInfo"><path codeLine="44" d="M605.416,247.2589 C615.176,265.6109 624.3133,282.7974 632.4733,298.1334 " fill="none" id="Dish-to-NutricionalInfo" style="stroke:#181818;stroke-width:0.8000000000000002;"/><polygon fill="#181818" points="634.728,302.3709,634.171,294.5116,632.8491,298.8397,628.521,297.5178,634.728,302.3709" style="stroke:#181818;stroke-width:0.8000000000000002;"/><text fill="#000000" font-family="sans-serif" font-size="10.4" lengthAdjust="spacing" textLength="5.6" x="625.7955" y="293.228">1</text></g><!--link Dish to Money--><g id="link_Dish_Money"><path codeLine="45" d="M632.424,239.3549 C663.984,259.1309 700.7645,282.1823 728.8525,299.7823 " fill="none" id="Dish-to-Money" style="stroke:#181818;stroke-width:0.8000000000000002;"/><polygon fill="#181818" points="732.92,302.3309,728.5179,295.7963,729.5304,300.207,725.1197,301.2196,732.92,302.3309" style="stroke:#181818;stroke-width:0.8000000000000002;"/><text fill="#000000" font-family="sans-serif" font-size="10.4" lengthAdjust="spacing" textLength="5.6" x="719.1153" y="293.5257">1</text></g><!--link Dish to Description--><g id="link_Dish_Description"><path codeLine="46" d="M565.784,247.2589 C556.024,265.6109 546.8867,282.7974 538.7267,298.1334 " fill="none" id="Dish-to-Description" style="stroke:#181818;stroke-width:0.8000000000000002;"/><polygon fill="#181818" points="536.472,302.3709,542.679,297.5178,538.3509,298.8397,537.029,294.5116,536.472,302.3709" style="stroke:#181818;stroke-width:0.8000000000000002;"/><text fill="#000000" font-family="sans-serif" font-size="10.4" lengthAdjust="spacing" textLength="5.6" x="532.8396" y="293.228">1</text></g><!--link Dish to DishType--><g id="link_Dish_DishType"><path codeLine="47" d="M538.648,240.2429 C508.144,259.8829 473.2119,282.3726 446.2839,299.7086 " fill="none" id="Dish-to-DishType" style="stroke:#181818;stroke-width:0.8000000000000002;"/><polygon fill="#181818" points="442.248,302.3069,450.0341,301.1001,445.6113,300.1417,446.5697,295.7189,442.248,302.3069" style="stroke:#181818;stroke-width:0.8000000000000002;"/><text fill="#000000" font-family="sans-serif" font-size="10.4" lengthAdjust="spacing" textLength="5.6" x="443.3654" y="293.4961">1</text></g><!--link Meal to Dish--><g id="link_Meal_Dish"><path codeLine="50" d="M252.68,74.3549 C314.896,99.4109 458.3556,157.1697 534.3316,187.7697 " fill="none" id="Meal-to-Dish" style="stroke:#181818;stroke-width:0.8000000000000002;"/><polygon fill="#181818" points="538.784,189.5629,533.3008,183.9048,535.0736,188.0686,530.9098,189.8413,538.784,189.5629" style="stroke:#181818;stroke-width:0.8000000000000002;"/><text fill="#000000" font-family="sans-serif" font-size="10.4" lengthAdjust="spacing" textLength="39.2" x="383.2" y="125.6336">contains</text><text fill="#000000" font-family="sans-serif" font-size="10.4" lengthAdjust="spacing" textLength="4" x="258.7201" y="73.128">*</text><text fill="#000000" font-family="sans-serif" font-size="10.4" lengthAdjust="spacing" textLength="5.6" x="526.827" y="183.8035">1</text></g><!--SRC=[ZLFBQiCm4BphAnOT2uRsMeIXr9SSaalx0sjvwspZI4QI0sx9lrTMOsZyADP9xCmEendaJsnQT7W6tQ3tBo4uBhj0EstD6tyHF8eZLmHqRaCFEC9UY1Rr2Mi2gHJMjQCQ0-Kvx0aR2Ty2uacIQG9AaGaS-iXGobaRukMNT1KJxdlVKYHTiEa8RFb9UeNyYWsPYjoQqAwOooZ5rLGj6Soo7EIJl2qkpmTdSsIq8QwheHJiZ_UX39D_GXbEXZhmXU0PIciRGZD_vQ2oEQw2l7RS1hPc4__GnR9rPCT0p8VTjBEtXlgjRhWskEncgQMKs9Zvd-qvE34-9oINYw9ZG0lWBUgXvLI_V91tOEmf_fc0RBpu0G00]--></g></svg>