<?xml version="1.0" encoding="us-ascii" standalone="no"?><svg xmlns="http://www.w3.org/2000/svg" xmlns:xlink="http://www.w3.org/1999/xlink" contentStyleType="text/css" height="527.4px" preserveAspectRatio="none" style="width:566px;height:527px;background:#FFFFFF;" version="1.1" viewBox="0 0 566 527" width="566.4px" zoomAndPan="magnify"><defs/><g><polygon fill="#FFFFFF" points="179.1,72.9199,179.1,72.962,180.3,72.8371,181.5,72.9586,182.7,72.9999,183.9,72.7772,185.1,72.9199,185.0534,72.9199,184.8441,78.9303,184.8699,84.9408,185.0591,90.9512,184.6852,96.9616,185.4322,102.972,184.7218,108.9824,184.9813,114.9929,185.3592,121.0033,185.0485,127.0137,185.1409,133.0241,185.0808,139.0345,185.2071,145.0449,185.2435,151.0554,185.4514,157.0658,185.5026,163.0762,185.5076,169.0866,185.2528,175.097,185.3782,181.1075,185.5213,187.1179,184.6673,193.1283,185.5071,199.1387,184.9221,205.1491,185.4203,211.1596,184.803,217.17,185.0589,223.1804,185.545,229.1908,185.0708,235.2012,185.1632,241.2116,185.3032,247.2221,185.3497,253.2325,185.0977,259.2429,185.2723,265.2533,184.7565,271.2637,185.2706,277.2742,185.4289,283.2846,185.3667,289.295,185.4678,295.3054,184.8102,301.3158,184.7087,307.3263,184.7272,313.3367,185.0647,319.3471,184.9821,325.3575,185.5088,331.3679,184.9952,337.3783,184.8942,343.3888,185.237,349.3992,184.6999,355.4096,184.7885,361.42,185.4894,367.4304,185.3614,373.4409,185.5407,379.4513,184.9069,385.4617,185.2915,391.4721,185.4543,397.4825,184.8166,403.493,185.0425,409.5034,185.1756,415.5138,185.4911,421.5242,185.0975,427.5346,185.3775,433.545,184.7677,439.5555,184.6936,445.5659,185.4022,451.5763,185.1,457.5867,185.1,457.4433,183.9,457.6885,182.7,457.628,181.5,457.5331,180.3,457.516,179.1,457.5867,179.3753,457.5867,178.9204,451.5763,179.4551,445.5659,178.7684,439.5555,179.4705,433.545,179.3906,427.5346,179.247,421.5242,179.1283,415.5138,179.536,409.5034,179.4681,403.493,179.2016,397.4825,179.2609,391.4721,179.0218,385.4617,179.5299,379.4513,179.1929,373.4409,179.2035,367.4304,178.735,361.42,178.8569,355.4096,179.4184,349.3992,179.3579,343.3888,179.0742,337.3783,178.9067,331.3679,178.9686,325.3575,178.6883,319.3471,179.3488,313.3367,179.5437,307.3263,179.4158,301.3158,179.517,295.3054,179.018,289.295,179.1523,283.2846,178.8674,277.2742,179.2704,271.2637,179.2481,265.2533,179.4314,259.2429,178.9622,253.2325,179.0194,247.2221,179.3661,241.2116,179.4404,235.2012,178.7925,229.1908,178.9837,223.1804,179.1896,217.17,178.7335,211.1596,179.312,205.1491,179.2548,199.1387,179.0395,193.1283,179.1853,187.1179,179.5372,181.1075,178.9123,175.097,179.289,169.0866,179.2714,163.0762,179.1695,157.0658,179.1846,151.0554,179.1681,145.0449,178.7255,139.0345,178.8595,133.0241,178.8231,127.0137,179.1383,121.0033,179.1529,114.9929,179.197,108.9824,178.9254,102.972,179.0595,96.9616,179.0279,90.9512,179.4461,84.9408,179.3559,78.9303,179.1,72.9199" style="stroke:#181818;stroke-width:0.6;"/><polygon fill="#FFFFFF" points="321.3,148.0184,321.3,148.0604,322.5,147.9355,323.7,148.057,324.9,148.0983,326.1,147.8757,327.3,148.0184,327.2534,148.0184,327.0441,153.921,327.0699,159.8237,327.2591,165.7263,326.8852,171.6289,327.6322,177.5316,326.9218,183.4342,327.1813,189.3369,327.5592,195.2395,327.2485,201.1422,327.3409,207.0448,327.2808,212.9475,327.4071,218.8501,327.4435,224.7528,327.6514,230.6554,327.7026,236.5581,327.7076,242.4607,327.4528,248.3634,327.5782,254.266,327.7213,260.1687,326.8673,266.0713,327.7071,271.974,327.1221,277.8766,327.6203,283.7793,327.003,289.6819,327.2589,295.5845,327.745,301.4872,327.3,307.3898,327.3,307.3801,326.1,307.4109,324.9,307.4576,323.7,307.4731,322.5,307.3891,321.3,307.3898,321.4723,307.3898,320.9565,301.4872,321.4706,295.5845,321.6289,289.6819,321.5667,283.7793,321.6678,277.8766,321.0102,271.974,320.9087,266.0713,320.9272,260.1687,321.2647,254.266,321.1821,248.3634,321.7088,242.4607,321.1952,236.5581,321.0942,230.6554,321.437,224.7528,320.8999,218.8501,320.9885,212.9475,321.6894,207.0448,321.5614,201.1422,321.7407,195.2395,321.1069,189.3369,321.4915,183.4342,321.6543,177.5316,321.0166,171.6289,321.2425,165.7263,321.3756,159.8237,321.6911,153.921,321.3,148.0184" style="stroke:#181818;stroke-width:0.6;"/><polygon fill="#FFFFFF" points="321.3,363.7137,321.3,363.7557,322.5,363.6308,323.7,363.7523,324.9,363.7936,326.1,363.571,327.3,363.7137,327.2534,363.7137,327.0441,369.4905,327.0699,375.2673,327.2591,381.0441,326.8852,386.8209,327.6322,392.5977,326.9218,398.3745,327.1813,404.1513,327.5592,409.9281,327.2485,415.7049,327.3409,421.4817,327.2808,427.2585,327.4071,433.0353,327.3,438.8121,327.3,438.8599,326.1,438.9292,324.9,438.9463,323.7,438.948,322.5,438.863,321.3,438.8121,321.5782,438.8121,321.7213,433.0353,320.8673,427.2585,321.7071,421.4817,321.1221,415.7049,321.6203,409.9281,321.003,404.1513,321.2589,398.3745,321.745,392.5977,321.2708,386.8209,321.3632,381.0441,321.5032,375.2673,321.5497,369.4905,321.3,363.7137" style="stroke:#181818;stroke-width:0.6;"/><polygon fill="#FFFFFF" points="408.3,199.5422,408.3,199.5842,409.5,199.4593,410.7,199.5808,411.9,199.6221,413.1,199.3995,414.3,199.5422,414.2534,199.5422,414.0441,205.4804,414.0699,211.4186,414.2591,217.3568,413.8852,223.295,414.6322,229.2332,413.9218,235.1714,414.1813,241.1096,414.5592,247.0478,414.2485,252.986,414.3409,258.9242,414.2808,264.8624,414.4071,270.8006,414.4435,276.7388,414.6514,282.677,414.3,288.6152,414.3,288.7494,413.1,288.7511,411.9,288.6662,410.7,288.708,409.5,288.7557,408.3,288.6152,407.8673,288.6152,408.7071,282.677,408.1221,276.7388,408.6203,270.8006,408.003,264.8624,408.2589,258.9242,408.745,252.986,408.2708,247.0478,408.3632,241.1096,408.5032,235.1714,408.5497,229.2332,408.2977,223.295,408.4723,217.3568,407.9565,211.4186,408.4706,205.4804,408.3,199.5422" style="stroke:#181818;stroke-width:0.6;"/><polygon fill="#FFFFFF" points="531.6,251.066,531.6,251.1081,532.8,250.9832,534,251.1047,535.2,251.146,536.4,250.9233,537.6,251.066,537.5845,251.066,537.5147,254.8209,537.5233,258.5759,537.5864,262.3308,537.4617,266.0857,537.6,269.8406,537.6,269.9514,536.4,269.7146,535.2,269.8011,534,269.927,532.8,269.8235,531.6,269.8406,531.6136,269.8406,531.5936,266.0857,531.6357,262.3308,531.6478,258.5759,531.7171,254.8209,531.6,251.066" style="stroke:#181818;stroke-width:0.6;"/><polygon fill="#FFFFFF" points="531.6,401.2629,531.6,401.3049,532.8,401.18,534,401.3015,535.2,401.3428,536.4,401.1202,537.6,401.2629,537.5845,401.2629,537.5147,405.0178,537.5233,408.7727,537.5864,412.5277,537.4617,416.2826,537.6,420.0375,537.6,420.1482,536.4,419.9114,535.2,419.9979,534,420.1239,532.8,420.0203,531.6,420.0375,531.6136,420.0375,531.5936,416.2826,531.6357,412.5277,531.6478,408.7727,531.7171,405.0178,531.6,401.2629" style="stroke:#181818;stroke-width:0.6;"/><path d="M31.8,52.9453 L31.9681,52.9453 L31.4685,58.9662 L31.9546,64.9871 L32.1197,71.008 L31.2293,77.0289 L31.7378,83.0498 L31.4588,89.0707 L31.4932,95.0915 L31.7455,101.1124 L31.2469,107.1333 L32.2429,113.1542 L31.2958,119.1751 L31.6418,125.196 L32.1456,131.2169 L31.7314,137.2378 L31.8546,143.2587 L31.7744,149.2796 L31.9428,155.3004 L31.9913,161.3213 L32.2686,167.3422 L32.3368,173.3631 L32.3434,179.384 L32.0037,185.4049 L32.1709,191.4258 L32.3618,197.4467 L31.2231,203.4676 L32.3428,209.4885 L31.5628,215.5093 L32.227,221.5302 L31.404,227.5511 L31.7452,233.572 L32.3933,239.5929 L31.761,245.6138 L31.8842,251.6347 L32.0709,257.6556 L32.133,263.6765 L31.7969,269.6974 L32.0298,275.7182 L31.3421,281.7391 L32.0275,287.76 L32.2386,293.7809 L32.1556,299.8018 L32.2904,305.8227 L31.4135,311.8436 L31.2783,317.8645 L31.3029,323.8854 L31.7529,329.9063 L31.6428,335.9271 L32.3451,341.948 L31.6603,347.9689 L31.5256,353.9898 L31.9826,360.0107 L31.2665,366.0316 L31.3847,372.0525 L32.3192,378.0734 L32.1485,384.0943 L32.3876,390.1151 L31.5426,396.136 L32.0554,402.1569 L32.2723,408.1778 L31.4221,414.1987 L31.7233,420.2196 L31.9008,426.2405 L32.3214,432.2614 L31.7966,438.2823 L32.1701,444.3032 L31.357,450.324 L31.2582,456.3449 L32.2029,462.3658 L31.8,468.3867 " fill="none" style="stroke:#181818;stroke-width:0.3;stroke-dasharray:5.0,5.0;"/><path d="M181.8,52.9453 L181.9681,52.9453 L181.4685,58.9662 L181.9546,64.9871 L182.1197,71.008 L181.2293,77.0289 L181.7378,83.0498 L181.4588,89.0707 L181.4932,95.0915 L181.7455,101.1124 L181.2469,107.1333 L182.2429,113.1542 L181.2958,119.1751 L181.6418,125.196 L182.1456,131.2169 L181.7314,137.2378 L181.8546,143.2587 L181.7744,149.2796 L181.9428,155.3004 L181.9913,161.3213 L182.2686,167.3422 L182.3368,173.3631 L182.3434,179.384 L182.0037,185.4049 L182.1709,191.4258 L182.3618,197.4467 L181.2231,203.4676 L182.3428,209.4885 L181.5628,215.5093 L182.227,221.5302 L181.404,227.5511 L181.7452,233.572 L182.3933,239.5929 L181.761,245.6138 L181.8842,251.6347 L182.0709,257.6556 L182.133,263.6765 L181.7969,269.6974 L182.0298,275.7182 L181.3421,281.7391 L182.0275,287.76 L182.2386,293.7809 L182.1556,299.8018 L182.2904,305.8227 L181.4135,311.8436 L181.2783,317.8645 L181.3029,323.8854 L181.7529,329.9063 L181.6428,335.9271 L182.3451,341.948 L181.6603,347.9689 L181.5256,353.9898 L181.9826,360.0107 L181.2665,366.0316 L181.3847,372.0525 L182.3192,378.0734 L182.1485,384.0943 L182.3876,390.1151 L181.5426,396.136 L182.0554,402.1569 L182.2723,408.1778 L181.4221,414.1987 L181.7233,420.2196 L181.9008,426.2405 L182.3214,432.2614 L181.7966,438.2823 L182.1701,444.3032 L181.357,450.324 L181.2582,456.3449 L182.2029,462.3658 L181.8,468.3867 " fill="none" style="stroke:#181818;stroke-width:0.3;stroke-dasharray:5.0,5.0;"/><path d="M324,52.9453 L324.1681,52.9453 L323.6685,58.9662 L324.1546,64.9871 L324.3197,71.008 L323.4293,77.0289 L323.9378,83.0498 L323.6588,89.0707 L323.6932,95.0915 L323.9455,101.1124 L323.4469,107.1333 L324.4429,113.1542 L323.4958,119.1751 L323.8418,125.196 L324.3456,131.2169 L323.9314,137.2378 L324.0546,143.2587 L323.9744,149.2796 L324.1428,155.3004 L324.1913,161.3213 L324.4686,167.3422 L324.5368,173.3631 L324.5434,179.384 L324.2037,185.4049 L324.3709,191.4258 L324.5618,197.4467 L323.4231,203.4676 L324.5428,209.4885 L323.7628,215.5093 L324.427,221.5302 L323.604,227.5511 L323.9452,233.572 L324.5933,239.5929 L323.961,245.6138 L324.0842,251.6347 L324.2709,257.6556 L324.333,263.6765 L323.9969,269.6974 L324.2298,275.7182 L323.5421,281.7391 L324.2275,287.76 L324.4386,293.7809 L324.3556,299.8018 L324.4904,305.8227 L323.6135,311.8436 L323.4783,317.8645 L323.5029,323.8854 L323.9529,329.9063 L323.8428,335.9271 L324.5451,341.948 L323.8603,347.9689 L323.7256,353.9898 L324.1826,360.0107 L323.4665,366.0316 L323.5847,372.0525 L324.5192,378.0734 L324.3485,384.0943 L324.5876,390.1151 L323.7426,396.136 L324.2554,402.1569 L324.4723,408.1778 L323.6221,414.1987 L323.9233,420.2196 L324.1008,426.2405 L324.5214,432.2614 L323.9966,438.2823 L324.3701,444.3032 L323.557,450.324 L323.4582,456.3449 L324.4029,462.3658 L324,468.3867 " fill="none" style="stroke:#181818;stroke-width:0.3;stroke-dasharray:5.0,5.0;"/><path d="M411,52.9453 L411.1681,52.9453 L410.6685,58.9662 L411.1546,64.9871 L411.3197,71.008 L410.4293,77.0289 L410.9378,83.0498 L410.6588,89.0707 L410.6932,95.0915 L410.9455,101.1124 L410.4469,107.1333 L411.4429,113.1542 L410.4958,119.1751 L410.8418,125.196 L411.3456,131.2169 L410.9314,137.2378 L411.0546,143.2587 L410.9744,149.2796 L411.1428,155.3004 L411.1913,161.3213 L411.4686,167.3422 L411.5368,173.3631 L411.5434,179.384 L411.2037,185.4049 L411.3709,191.4258 L411.5618,197.4467 L410.4231,203.4676 L411.5428,209.4885 L410.7628,215.5093 L411.427,221.5302 L410.604,227.5511 L410.9452,233.572 L411.5933,239.5929 L410.961,245.6138 L411.0842,251.6347 L411.2709,257.6556 L411.333,263.6765 L410.9969,269.6974 L411.2298,275.7182 L410.5421,281.7391 L411.2275,287.76 L411.4386,293.7809 L411.3556,299.8018 L411.4904,305.8227 L410.6135,311.8436 L410.4783,317.8645 L410.5029,323.8854 L410.9529,329.9063 L410.8428,335.9271 L411.5451,341.948 L410.8603,347.9689 L410.7256,353.9898 L411.1826,360.0107 L410.4665,366.0316 L410.5847,372.0525 L411.5192,378.0734 L411.3485,384.0943 L411.5876,390.1151 L410.7426,396.136 L411.2554,402.1569 L411.4723,408.1778 L410.6221,414.1987 L410.9233,420.2196 L411.1008,426.2405 L411.5214,432.2614 L410.9966,438.2823 L411.3701,444.3032 L410.557,450.324 L410.4582,456.3449 L411.4029,462.3658 L411,468.3867 " fill="none" style="stroke:#181818;stroke-width:0.3;stroke-dasharray:5.0,5.0;"/><path d="M474,52.9453 L474.1681,52.9453 L473.6685,58.9662 L474.1546,64.9871 L474.3197,71.008 L473.4293,77.0289 L473.9378,83.0498 L473.6588,89.0707 L473.6932,95.0915 L473.9455,101.1124 L473.4469,107.1333 L474.4429,113.1542 L473.4958,119.1751 L473.8418,125.196 L474.3456,131.2169 L473.9314,137.2378 L474.0546,143.2587 L473.9744,149.2796 L474.1428,155.3004 L474.1913,161.3213 L474.4686,167.3422 L474.5368,173.3631 L474.5434,179.384 L474.2037,185.4049 L474.3709,191.4258 L474.5618,197.4467 L473.4231,203.4676 L474.5428,209.4885 L473.7628,215.5093 L474.427,221.5302 L473.604,227.5511 L473.9452,233.572 L474.5933,239.5929 L473.961,245.6138 L474.0842,251.6347 L474.2709,257.6556 L474.333,263.6765 L473.9969,269.6974 L474.2298,275.7182 L473.5421,281.7391 L474.2275,287.76 L474.4386,293.7809 L474.3556,299.8018 L474.4904,305.8227 L473.6135,311.8436 L473.4783,317.8645 L473.5029,323.8854 L473.9529,329.9063 L473.8428,335.9271 L474.5451,341.948 L473.8603,347.9689 L473.7256,353.9898 L474.1826,360.0107 L473.4665,366.0316 L473.5847,372.0525 L474.5192,378.0734 L474.3485,384.0943 L474.5876,390.1151 L473.7426,396.136 L474.2554,402.1569 L474.4723,408.1778 L473.6221,414.1987 L473.9233,420.2196 L474.1008,426.2405 L474.5214,432.2614 L473.9966,438.2823 L474.3701,444.3032 L473.557,450.324 L473.4582,456.3449 L474.4029,462.3658 L474,468.3867 " fill="none" style="stroke:#181818;stroke-width:0.3;stroke-dasharray:5.0,5.0;"/><path d="M534.6,52.9453 L534.7681,52.9453 L534.2685,58.9662 L534.7546,64.9871 L534.9197,71.008 L534.0293,77.0289 L534.5378,83.0498 L534.2588,89.0707 L534.2932,95.0915 L534.5455,101.1124 L534.0469,107.1333 L535.0429,113.1542 L534.0958,119.1751 L534.4418,125.196 L534.9456,131.2169 L534.5314,137.2378 L534.6546,143.2587 L534.5744,149.2796 L534.7428,155.3004 L534.7913,161.3213 L535.0686,167.3422 L535.1368,173.3631 L535.1434,179.384 L534.8037,185.4049 L534.9709,191.4258 L535.1618,197.4467 L534.0231,203.4676 L535.1428,209.4885 L534.3628,215.5093 L535.027,221.5302 L534.204,227.5511 L534.5452,233.572 L535.1933,239.5929 L534.561,245.6138 L534.6842,251.6347 L534.8709,257.6556 L534.933,263.6765 L534.5969,269.6974 L534.8298,275.7182 L534.1421,281.7391 L534.8275,287.76 L535.0386,293.7809 L534.9556,299.8018 L535.0904,305.8227 L534.2135,311.8436 L534.0783,317.8645 L534.1029,323.8854 L534.5529,329.9063 L534.4428,335.9271 L535.1451,341.948 L534.4603,347.9689 L534.3256,353.9898 L534.7826,360.0107 L534.0665,366.0316 L534.1847,372.0525 L535.1192,378.0734 L534.9485,384.0943 L535.1876,390.1151 L534.3426,396.136 L534.8554,402.1569 L535.0723,408.1778 L534.2221,414.1987 L534.5233,420.2196 L534.7008,426.2405 L535.1214,432.2614 L534.5966,438.2823 L534.9701,444.3032 L534.157,450.324 L534.0582,456.3449 L535.0029,462.3658 L534.6,468.3867 " fill="none" style="stroke:#181818;stroke-width:0.3;stroke-dasharray:5.0,5.0;"/><text fill="#000000" font-family="FG Virgil" font-size="8.4" lengthAdjust="spacing" textLength="54.6" x="3" y="50.8371">MenuManager</text><polygon fill="#E3E3E3" points="36.9265,12.0402,36.2229,13.0016,35.3907,14.4097,34.2005,15.3586,32.9498,15.8776,31.9525,15.9226,30.6708,15.2736,29.4614,14.8496,28.5434,13.9888,28.0619,13.0033,27.7764,12.2186,27.4966,11.1937,27.0425,10.3117,27.3915,9.4505,27.6972,8.5072,28.8444,7.7612,29.6515,6.7931,30.6506,6.4717,31.8382,6.1949,33.3613,6.3593,34.1955,6.7527,35.1653,6.9311,36.3446,8.1393,36.7557,9.4147,36.9343,10.285,36.732,11.7191" style="stroke:#181818;stroke-width:0.3;"/><path d="M32.1,15.6727 L32.2121,15.6727 L31.879,18.9127 L32.2031,22.1527 L32.3132,25.3927 L31.7195,28.6327 L32.1,31.8727 M24.3,20.4727 L24.3,20.4312 L27.42,20.2452 L30.54,20.2681 L33.66,20.4363 L36.78,20.1039 L39.9,20.4727 M32.1,31.8727 L32.3231,32.066 L30.286,33.4525 L28.9003,35.4036 L27.5941,37.4235 L25.8254,39.0427 L24.3,40.8727 M32.1,31.8727 L32.1275,31.8965 L33.6471,33.6615 L35.292,35.535 L36.8764,37.3562 L38.5761,39.2772 L39.9,40.8727 " fill="none" style="stroke:#181818;stroke-width:0.3;"/><text fill="#000000" font-family="FG Virgil" font-size="8.4" lengthAdjust="spacing" textLength="54.6" x="3" y="476.8512">MenuManager</text><polygon fill="#E3E3E3" points="36.9265,485.2269,36.2229,486.1883,35.3907,487.5964,34.2005,488.5454,32.9498,489.0643,31.9525,489.1093,30.6708,488.4603,29.4614,488.0364,28.5434,487.1755,28.0619,486.19,27.7764,485.4054,27.4966,484.3804,27.0425,483.4984,27.3915,482.6373,27.6972,481.6939,28.8444,480.9479,29.6515,479.9799,30.6506,479.6584,31.8382,479.3816,33.3613,479.5461,34.1955,479.9395,35.1653,480.1178,36.3446,481.326,36.7557,482.6015,36.9343,483.4717,36.732,484.9059" style="stroke:#181818;stroke-width:0.3;"/><path d="M32.1,488.8594 L32.2121,488.8594 L31.879,492.0994 L32.2031,495.3394 L32.3132,498.5794 L31.7195,501.8194 L32.1,505.0594 M24.3,493.6594 L24.3,493.6179 L27.42,493.4319 L30.54,493.4548 L33.66,493.623 L36.78,493.2906 L39.9,493.6594 M32.1,505.0594 L32.3231,505.2528 L30.286,506.6392 L28.9003,508.5903 L27.5941,510.6103 L25.8254,512.2294 L24.3,514.0594 M32.1,505.0594 L32.1275,505.0832 L33.6471,506.8482 L35.292,508.7217 L36.8764,510.5429 L38.5761,512.464 L39.9,514.0594 " fill="none" style="stroke:#181818;stroke-width:0.3;"/><polygon fill="#E3E3E3" points="150.9,21.6,150.9,21.7261,157.14,21.3514,163.38,21.716,169.62,21.8398,175.86,21.172,182.1,21.5534,188.34,21.3441,194.58,21.3699,200.82,21.5591,207.06,21.1852,213.3,21.6,213.3424,21.7023,213.4639,21.5714,213.7091,21.7392,213.9695,21.9434,214.142,21.9356,214.3607,22.0393,214.3733,22.0446,214.4426,22.249,214.5694,22.4773,214.6685,22.694,214.8204,22.9327,214.8,23.1,215.2026,23.1,215.2076,28.6491,214.9528,34.1981,215.0782,39.7472,215.2213,45.2963,214.8,50.8453,214.6667,50.7901,214.8375,51.1094,214.5695,51.2469,214.635,51.5226,214.3571,51.656,214.3607,51.906,214.3554,51.8933,214.2053,52.1309,213.9327,52.0727,213.7323,52.189,213.538,52.32,213.3,52.3453,213.3,52.5951,207.06,52.343,200.82,52.5176,194.58,52.0019,188.34,52.5159,182.1,52.6742,175.86,52.612,169.62,52.7131,163.38,52.0555,157.14,51.954,150.9,52.3453,150.8524,52.2305,150.6834,52.2466,150.4607,52.1333,150.3158,52.2076,150.0381,51.9616,149.8393,51.906,149.776,51.8797,149.7937,51.7113,149.5404,51.4307,149.4798,51.2298,149.6078,51.1071,149.4,50.8453,149.6614,50.8453,149.8407,45.2963,149.2069,39.7472,149.5915,34.1981,149.7543,28.6491,149.4,23.1,149.3127,23.0638,149.4702,22.8805,149.599,22.6854,149.784,22.5135,149.7507,22.2512,149.8393,22.0393,149.8747,22.1248,150.0091,21.8491,150.2118,21.7385,150.5143,21.8688,150.633,21.5554,150.9,21.6" style="stroke:#181818;stroke-width:0.3;"/><text fill="#000000" font-family="FG Virgil" font-size="8.4" font-style="italic" lengthAdjust="spacing" textLength="57" x="153.6" y="34.8645">&#171;presentation&#187;</text><text fill="#000000" font-family="FG Virgil" font-size="8.4" lengthAdjust="spacing" textLength="57" x="153.6" y="46.0371">RegisterMealUI</text><polygon fill="#E3E3E3" points="150.9,467.7867,150.9,467.9128,157.14,467.5381,163.38,467.9027,169.62,468.0265,175.86,467.3587,182.1,467.7401,188.34,467.5308,194.58,467.5566,200.82,467.7458,207.06,467.3719,213.3,467.7867,213.3424,467.889,213.4639,467.7581,213.7091,467.9259,213.9695,468.1301,214.142,468.1223,214.3607,468.2261,214.3733,468.2313,214.4426,468.4357,214.5694,468.664,214.6685,468.8808,214.8204,469.1194,214.8,469.2867,215.2026,469.2867,215.2076,474.8358,214.9528,480.3848,215.0782,485.9339,215.2213,491.483,214.8,497.032,214.6667,496.9768,214.8375,497.2961,214.5695,497.4336,214.635,497.7093,214.3571,497.8427,214.3607,498.0927,214.3554,498.08,214.2053,498.3176,213.9327,498.2594,213.7323,498.3758,213.538,498.5067,213.3,498.532,213.3,498.7818,207.06,498.5297,200.82,498.7044,194.58,498.1886,188.34,498.7027,182.1,498.8609,175.86,498.7988,169.62,498.8998,163.38,498.2422,157.14,498.1407,150.9,498.532,150.8524,498.4172,150.6834,498.4333,150.4607,498.32,150.3158,498.3943,150.0381,498.1483,149.8393,498.0927,149.776,498.0664,149.7937,497.898,149.5404,497.6174,149.4798,497.4166,149.6078,497.2938,149.4,497.032,149.6614,497.032,149.8407,491.483,149.2069,485.9339,149.5915,480.3848,149.7543,474.8358,149.4,469.2867,149.3127,469.2506,149.4702,469.0672,149.599,468.8721,149.784,468.7002,149.7507,468.4379,149.8393,468.2261,149.8747,468.3115,150.0091,468.0359,150.2118,467.9252,150.5143,468.0555,150.633,467.7421,150.9,467.7867" style="stroke:#181818;stroke-width:0.3;"/><text fill="#000000" font-family="FG Virgil" font-size="8.4" font-style="italic" lengthAdjust="spacing" textLength="57" x="153.6" y="481.0512">&#171;presentation&#187;</text><text fill="#000000" font-family="FG Virgil" font-size="8.4" lengthAdjust="spacing" textLength="57" x="153.6" y="492.2238">RegisterMealUI</text><polygon fill="#E3E3E3" points="278.1,21.6,278.1,21.7261,284.26,21.3514,290.42,21.716,296.58,21.8398,302.74,21.172,308.9,21.5534,315.06,21.3441,321.22,21.3699,327.38,21.5591,333.54,21.1852,339.7,21.9322,345.86,21.2218,352.02,21.4813,358.18,21.8592,364.34,21.5485,370.5,21.6,370.5052,21.6126,370.7097,21.682,370.9379,21.8087,371.1547,21.9078,371.3934,22.0597,371.5607,22.0393,371.6847,22.0907,371.774,22.3035,371.7834,22.4831,371.9099,22.7112,372.0419,22.9416,372,23.1,371.5673,23.1,372.4071,28.6491,371.8221,34.1981,372.3203,39.7472,371.703,45.2963,372,50.8453,371.9873,50.8401,372.0492,51.1142,371.8153,51.2658,371.7559,51.4898,371.7111,51.7198,371.5607,51.906,371.5925,51.9829,371.3482,51.9931,371.1584,52.1348,370.8805,52.0638,370.7339,52.31,370.5,52.3453,370.5,52.6742,364.34,52.612,358.18,52.7131,352.02,52.0555,345.86,51.954,339.7,51.9725,333.54,52.31,327.38,52.2274,321.22,52.7542,315.06,52.2405,308.9,52.1395,302.74,52.4823,296.58,51.9452,290.42,52.0338,284.26,52.7347,278.1,52.3453,278.1333,52.4258,277.9441,52.3932,277.6511,52.1101,277.488,52.1407,277.2967,52.1029,277.0393,51.906,276.9521,51.8698,276.9338,51.6865,276.8869,51.4914,276.8962,51.3195,276.6871,51.0571,276.6,50.8453,276.8775,50.8453,276.2677,45.2963,276.1936,39.7472,276.9022,34.1981,276.1698,28.6491,276.6,23.1,276.694,23.139,276.726,22.9037,276.7262,22.6552,276.7982,22.4365,277.0362,22.2866,277.0393,22.0393,277.0164,21.984,277.2968,22.0608,277.4213,21.7615,277.723,21.8898,277.9249,21.7774,278.1,21.6" style="stroke:#181818;stroke-width:0.3;"/><text fill="#000000" font-family="FG Virgil" font-size="8.4" font-style="italic" lengthAdjust="spacing" textLength="50.4" x="299.1" y="34.8645">&#171;application&#187;</text><text fill="#000000" font-family="FG Virgil" font-size="8.4" lengthAdjust="spacing" textLength="87" x="280.8" y="46.0371">RegisterMealController</text><polygon fill="#E3E3E3" points="278.1,467.7867,278.1,467.9128,284.26,467.5381,290.42,467.9027,296.58,468.0265,302.74,467.3587,308.9,467.7401,315.06,467.5308,321.22,467.5566,327.38,467.7458,333.54,467.3719,339.7,468.1189,345.86,467.4086,352.02,467.6681,358.18,468.0459,364.34,467.7353,370.5,467.7867,370.5052,467.7993,370.7097,467.8687,370.9379,467.9954,371.1547,468.0945,371.3934,468.2464,371.5607,468.2261,371.6847,468.2774,371.774,468.4902,371.7834,468.6698,371.9099,468.8979,372.0419,469.1283,372,469.2867,371.5673,469.2867,372.4071,474.8358,371.8221,480.3848,372.3203,485.9339,371.703,491.483,372,497.032,371.9873,497.0268,372.0492,497.3009,371.8153,497.4526,371.7559,497.6765,371.7111,497.9065,371.5607,498.0927,371.5925,498.1696,371.3482,498.1798,371.1584,498.3215,370.8805,498.2505,370.7339,498.4967,370.5,498.532,370.5,498.8609,364.34,498.7988,358.18,498.8998,352.02,498.2422,345.86,498.1407,339.7,498.1592,333.54,498.4967,327.38,498.4141,321.22,498.9409,315.06,498.4272,308.9,498.3262,302.74,498.669,296.58,498.1319,290.42,498.2206,284.26,498.9214,278.1,498.532,278.1333,498.6125,277.9441,498.5799,277.6511,498.2968,277.488,498.3274,277.2967,498.2897,277.0393,498.0927,276.9521,498.0565,276.9338,497.8732,276.8869,497.6781,276.8962,497.5062,276.6871,497.2438,276.6,497.032,276.8775,497.032,276.2677,491.483,276.1936,485.9339,276.9022,480.3848,276.1698,474.8358,276.6,469.2867,276.694,469.3257,276.726,469.0904,276.7262,468.8419,276.7982,468.6232,277.0362,468.4733,277.0393,468.2261,277.0164,468.1707,277.2968,468.2476,277.4213,467.9482,277.723,468.0765,277.9249,467.9641,278.1,467.7867" style="stroke:#181818;stroke-width:0.3;"/><text fill="#000000" font-family="FG Virgil" font-size="8.4" font-style="italic" lengthAdjust="spacing" textLength="50.4" x="299.1" y="481.0512">&#171;application&#187;</text><text fill="#000000" font-family="FG Virgil" font-size="8.4" lengthAdjust="spacing" textLength="87" x="280.8" y="492.2238">RegisterMealController</text><polygon fill="#E3E3E3" points="379.5,21.6,379.5,21.7261,385.2818,21.3514,391.0636,21.716,396.8455,21.8398,402.6273,21.172,408.4091,21.5534,414.1909,21.3441,419.9727,21.3699,425.7545,21.5591,431.5364,21.1852,437.3182,21.9322,443.1,21.6,443.0518,21.4835,443.297,21.6513,443.5573,21.8555,443.7298,21.8478,443.9538,21.9641,444.1607,22.0393,444.1548,22.0369,444.2815,22.2651,444.3806,22.4819,444.5325,22.7206,444.6361,22.9392,444.6,23.1,445.0076,23.1,444.7528,28.6491,444.8782,34.1981,445.0213,39.7472,444.1673,45.2963,444.6,50.8453,444.7254,50.8972,444.4573,51.0348,444.5229,51.3104,444.2449,51.4438,444.2359,51.6886,444.1607,51.906,444.2174,52.043,443.9448,51.9848,443.7445,52.1012,443.5502,52.2321,443.344,52.3344,443.1,52.3453,443.1,52.343,437.3182,52.5176,431.5364,52.0019,425.7545,52.5159,419.9727,52.6742,414.1909,52.612,408.4091,52.7131,402.6273,52.0555,396.8455,51.954,391.0636,51.9725,385.2818,52.31,379.5,52.3453,379.485,52.309,379.34,52.3834,379.0624,52.1373,378.8373,52.0183,378.6689,52.036,378.4393,51.906,378.3161,51.8549,378.2556,51.6541,378.3835,51.5314,378.2562,51.3029,378.2236,51.1137,378,50.8453,377.8069,50.8453,378.1915,45.2963,378.3543,39.7472,377.7166,34.1981,377.9425,28.6491,378,23.1,378.0233,23.1096,378.2083,22.9378,378.175,22.6754,378.3491,22.499,378.2491,22.2091,378.4393,22.0393,378.3875,21.9142,378.69,22.0445,378.8087,21.7311,379.1147,21.8698,379.3037,21.726,379.5,21.6" style="stroke:#181818;stroke-width:0.3;"/><text fill="#000000" font-family="FG Virgil" font-size="8.4" font-style="italic" lengthAdjust="spacing" textLength="50.4" x="386.1" y="34.8645">&#171;application&#187;</text><text fill="#000000" font-family="FG Virgil" font-size="8.4" lengthAdjust="spacing" textLength="58.2" x="382.2" y="46.0371">ListDishService</text><polygon fill="#E3E3E3" points="379.5,467.7867,379.5,467.9128,385.2818,467.5381,391.0636,467.9027,396.8455,468.0265,402.6273,467.3587,408.4091,467.7401,414.1909,467.5308,419.9727,467.5566,425.7545,467.7458,431.5364,467.3719,437.3182,468.1189,443.1,467.7867,443.0518,467.6703,443.297,467.838,443.5573,468.0423,443.7298,468.0345,443.9538,468.1508,444.1607,468.2261,444.1548,468.2236,444.2815,468.4519,444.3806,468.6686,444.5325,468.9073,444.6361,469.1259,444.6,469.2867,445.0076,469.2867,444.7528,474.8358,444.8782,480.3848,445.0213,485.9339,444.1673,491.483,444.6,497.032,444.7254,497.084,444.4573,497.2215,444.5229,497.4972,444.2449,497.6305,444.2359,497.8753,444.1607,498.0927,444.2174,498.2297,443.9448,498.1716,443.7445,498.2879,443.5502,498.4189,443.344,498.5211,443.1,498.532,443.1,498.5297,437.3182,498.7044,431.5364,498.1886,425.7545,498.7027,419.9727,498.8609,414.1909,498.7988,408.4091,498.8998,402.6273,498.2422,396.8455,498.1407,391.0636,498.1592,385.2818,498.4967,379.5,498.532,379.485,498.4957,379.34,498.5701,379.0624,498.324,378.8373,498.205,378.6689,498.2227,378.4393,498.0927,378.3161,498.0417,378.2556,497.8408,378.3835,497.7181,378.2562,497.4896,378.2236,497.3004,378,497.032,377.8069,497.032,378.1915,491.483,378.3543,485.9339,377.7166,480.3848,377.9425,474.8358,378,469.2867,378.0233,469.2964,378.2083,469.1245,378.175,468.8621,378.3491,468.6857,378.2491,468.3958,378.4393,468.2261,378.3875,468.1009,378.69,468.2312,378.8087,467.9178,379.1147,468.0565,379.3037,467.9128,379.5,467.7867" style="stroke:#181818;stroke-width:0.3;"/><text fill="#000000" font-family="FG Virgil" font-size="8.4" font-style="italic" lengthAdjust="spacing" textLength="50.4" x="386.1" y="481.0512">&#171;application&#187;</text><text fill="#000000" font-family="FG Virgil" font-size="8.4" lengthAdjust="spacing" textLength="58.2" x="382.2" y="492.2238">ListDishService</text><polygon fill="#E3E3E3" points="452.1,21.6,452.1,21.7261,458.3571,21.3514,464.6143,21.716,470.8714,21.8398,477.1286,21.172,483.3857,21.5534,489.6429,21.3441,495.9,21.6,495.8706,21.5291,496.1069,21.6753,496.2713,21.648,496.5788,21.9659,496.7003,21.835,496.9607,22.0393,496.9241,22.0242,497.1283,22.2845,497.1205,22.457,497.2369,22.681,497.3062,22.8854,497.4,23.1,497.5071,23.1,497.5435,28.6491,497.7514,34.1981,497.8026,39.7472,497.8076,45.2963,497.4,50.8453,497.447,50.8648,497.3978,51.0929,497.354,51.3233,497.0031,51.4265,497.1739,51.7458,496.9607,51.906,496.938,51.8512,496.7894,52.0925,496.4985,51.9902,496.319,52.1569,496.1689,52.3945,495.9,52.3453,495.9,52.3161,489.6429,52.4085,483.3857,52.5485,477.1286,52.5951,470.8714,52.343,464.6143,52.5176,458.3571,52.0019,452.1,52.3453,452.1218,52.3979,451.9298,52.3587,451.7098,52.2517,451.5105,52.195,451.2145,51.9046,451.0393,51.906,450.9188,51.8561,450.8367,51.6463,450.8527,51.4772,450.7394,51.2545,450.8138,51.1096,450.6,50.8453,450.4952,50.8453,450.3942,45.2963,450.737,39.7472,450.1999,34.1981,450.2885,28.6491,450.6,23.1,450.7199,23.1497,450.7684,22.9212,450.9115,22.732,450.8041,22.439,451.0105,22.2759,451.0393,22.0393,451.0845,22.1484,451.2153,21.8642,451.4563,21.8459,451.6854,21.799,451.9378,21.8083,452.1,21.6" style="stroke:#181818;stroke-width:0.3;"/><text fill="#000000" font-family="FG Virgil" font-size="8.4" font-style="italic" lengthAdjust="spacing" textLength="37.2" x="455.4" y="34.8645">&#171;domain&#187;</text><text fill="#000000" font-family="FG Virgil" font-size="8.4" lengthAdjust="spacing" textLength="38.4" x="454.8" y="46.0371">meal:Meal</text><polygon fill="#E3E3E3" points="452.1,467.7867,452.1,467.9128,458.3571,467.5381,464.6143,467.9027,470.8714,468.0265,477.1286,467.3587,483.3857,467.7401,489.6429,467.5308,495.9,467.7867,495.8706,467.7159,496.1069,467.862,496.2713,467.8347,496.5788,468.1526,496.7003,468.0217,496.9607,468.2261,496.9241,468.2109,497.1283,468.4713,497.1205,468.6438,497.2369,468.8677,497.3062,469.0721,497.4,469.2867,497.5071,469.2867,497.5435,474.8358,497.7514,480.3848,497.8026,485.9339,497.8076,491.483,497.4,497.032,497.447,497.0515,497.3978,497.2796,497.354,497.51,497.0031,497.6132,497.1739,497.9325,496.9607,498.0927,496.938,498.0379,496.7894,498.2792,496.4985,498.177,496.319,498.3436,496.1689,498.5812,495.9,498.532,495.9,498.5028,489.6429,498.5952,483.3857,498.7352,477.1286,498.7818,470.8714,498.5297,464.6143,498.7044,458.3571,498.1886,452.1,498.532,452.1218,498.5846,451.9298,498.5455,451.7098,498.4384,451.5105,498.3817,451.2145,498.0913,451.0393,498.0927,450.9188,498.0428,450.8367,497.833,450.8527,497.6639,450.7394,497.4413,450.8138,497.2963,450.6,497.032,450.4952,497.032,450.3942,491.483,450.737,485.9339,450.1999,480.3848,450.2885,474.8358,450.6,469.2867,450.7199,469.3364,450.7684,469.1079,450.9115,468.9187,450.8041,468.6257,451.0105,468.4626,451.0393,468.2261,451.0845,468.3352,451.2153,468.0509,451.4563,468.0326,451.6854,467.9857,451.9378,467.995,452.1,467.7867" style="stroke:#181818;stroke-width:0.3;"/><text fill="#000000" font-family="FG Virgil" font-size="8.4" font-style="italic" lengthAdjust="spacing" textLength="37.2" x="455.4" y="481.0512">&#171;domain&#187;</text><text fill="#000000" font-family="FG Virgil" font-size="8.4" lengthAdjust="spacing" textLength="38.4" x="454.8" y="492.2238">meal:Meal</text><text fill="#000000" font-family="FG Virgil" font-size="8.4" font-style="italic" lengthAdjust="spacing" textLength="47.4" x="509.1" y="39.6645">&#171;repository&#187;</text><text fill="#000000" font-family="FG Virgil" font-size="8.4" lengthAdjust="spacing" textLength="58.8" x="503.4" y="50.8371">MealRepository</text><path d="M523.8,9 L523.8,9 L523.8391,9.0402 L524.803,7.8708 L525.9959,6.937 L527.1143,5.9264 L527.9874,4.6636 L529.2,3.75 L529.1971,3.7295 L530.2644,3.4873 L531.3459,3.3487 L532.4375,3.282 L533.4946,2.9674 L534.6,3 L534.6,3 L534.6203,3.1462 L535.6569,2.9835 L536.7527,3.2478 L537.8558,3.5641 L538.9169,3.5773 L540,3.75 L540.0127,3.763 L541.0741,4.7939 L542.1932,5.8841 L543.2845,6.9457 L544.4289,8.062 L545.4,9 L545.7579,9 L545.7623,12.12 L545.5358,15.24 L545.6472,18.36 L545.7745,21.48 L545.4,24.6 L545.4,24.6 L545.2659,24.4621 L544.4461,25.7797 L543.1849,26.6433 L542.2592,27.8521 L540.988,28.7054 L540,29.85 L539.9975,29.8319 L538.9472,30.1959 L537.8382,30.1371 L536.7639,30.3278 L535.6924,30.5394 L534.6,30.6 L534.6,30.6 L534.6153,30.7099 L533.5199,30.449 L532.4505,30.3759 L531.339,29.9988 L530.2904,30.0751 L529.2,29.85 L529.3019,29.9548 L528.2026,28.885 L527.154,27.8672 L525.8702,26.6076 L524.7588,25.5253 L523.8,24.6 L523.4686,24.6 L523.7686,21.48 L523.6952,18.36 L524.1634,15.24 L523.7068,12.12 L523.8,9 " fill="#E3E3E3" style="stroke:#181818;stroke-width:0.8999999999999999;"/><path d="M523.8,9 L523.8,9 L523.8391,9.0402 L524.803,9.9708 L525.9959,11.137 L527.1143,12.2264 L527.9874,13.0636 L529.2,14.25 L529.1971,14.2295 L530.2644,14.2873 L531.3459,14.4487 L532.4375,14.682 L533.4946,14.6674 L534.6,15 L534.6,15 L534.6203,15.1462 L535.6569,14.6835 L536.7527,14.6478 L537.8558,14.6641 L538.9169,14.3773 L540,14.25 L540.0127,14.263 L541.0741,13.1939 L542.1932,12.1841 L543.2845,11.1457 L544.4289,10.162 L545.4,9 " fill="none" style="stroke:#181818;stroke-width:0.8999999999999999;"/><text fill="#000000" font-family="FG Virgil" font-size="8.4" font-style="italic" lengthAdjust="spacing" textLength="47.4" x="509.1" y="476.8512">&#171;repository&#187;</text><text fill="#000000" font-family="FG Virgil" font-size="8.4" lengthAdjust="spacing" textLength="58.8" x="503.4" y="488.0238">MealRepository</text><path d="M523.8,496.132 L523.8,496.132 L523.8391,496.1722 L524.803,495.0028 L525.9959,494.069 L527.1143,493.0584 L527.9874,491.7956 L529.2,490.882 L529.1971,490.8615 L530.2644,490.6194 L531.3459,490.4807 L532.4375,490.414 L533.4946,490.0994 L534.6,490.132 L534.6,490.132 L534.6203,490.2783 L535.6569,490.1156 L536.7527,490.3798 L537.8558,490.6961 L538.9169,490.7094 L540,490.882 L540.0127,490.8951 L541.0741,491.9259 L542.1932,493.0162 L543.2845,494.0778 L544.4289,495.194 L545.4,496.132 L545.7579,496.132 L545.7623,499.252 L545.5358,502.372 L545.6472,505.492 L545.7745,508.612 L545.4,511.732 L545.4,511.732 L545.2659,511.5941 L544.4461,512.9118 L543.1849,513.7753 L542.2592,514.9841 L540.988,515.8374 L540,516.982 L539.9975,516.9639 L538.9472,517.3279 L537.8382,517.2692 L536.7639,517.4598 L535.6924,517.6715 L534.6,517.732 L534.6,517.732 L534.6153,517.842 L533.5199,517.581 L532.4505,517.5079 L531.339,517.1308 L530.2904,517.2071 L529.2,516.982 L529.3019,517.0868 L528.2026,516.017 L527.154,514.9992 L525.8702,513.7397 L524.7588,512.6573 L523.8,511.732 L523.4686,511.732 L523.7686,508.612 L523.6952,505.492 L524.1634,502.372 L523.7068,499.252 L523.8,496.132 " fill="#E3E3E3" style="stroke:#181818;stroke-width:0.8999999999999999;"/><path d="M523.8,496.132 L523.8,496.132 L523.8391,496.1722 L524.803,497.1028 L525.9959,498.269 L527.1143,499.3584 L527.9874,500.1956 L529.2,501.382 L529.1971,501.3615 L530.2644,501.4194 L531.3459,501.5807 L532.4375,501.814 L533.4946,501.7994 L534.6,502.132 L534.6,502.132 L534.6203,502.2783 L535.6569,501.8156 L536.7527,501.7798 L537.8558,501.7961 L538.9169,501.5094 L540,501.382 L540.0127,501.3951 L541.0741,500.3259 L542.1932,499.3162 L543.2845,498.2778 L544.4289,497.294 L545.4,496.132 " fill="none" style="stroke:#181818;stroke-width:0.8999999999999999;"/><polygon fill="#FFFFFF" points="179.1,72.9199,179.1,72.962,180.3,72.8371,181.5,72.9586,182.7,72.9999,183.9,72.7772,185.1,72.9199,185.0534,72.9199,184.8441,78.9303,184.8699,84.9408,185.0591,90.9512,184.6852,96.9616,185.4322,102.972,184.7218,108.9824,184.9813,114.9929,185.3592,121.0033,185.0485,127.0137,185.1409,133.0241,185.0808,139.0345,185.2071,145.0449,185.2435,151.0554,185.4514,157.0658,185.5026,163.0762,185.5076,169.0866,185.2528,175.097,185.3782,181.1075,185.5213,187.1179,184.6673,193.1283,185.5071,199.1387,184.9221,205.1491,185.4203,211.1596,184.803,217.17,185.0589,223.1804,185.545,229.1908,185.0708,235.2012,185.1632,241.2116,185.3032,247.2221,185.3497,253.2325,185.0977,259.2429,185.2723,265.2533,184.7565,271.2637,185.2706,277.2742,185.4289,283.2846,185.3667,289.295,185.4678,295.3054,184.8102,301.3158,184.7087,307.3263,184.7272,313.3367,185.0647,319.3471,184.9821,325.3575,185.5088,331.3679,184.9952,337.3783,184.8942,343.3888,185.237,349.3992,184.6999,355.4096,184.7885,361.42,185.4894,367.4304,185.3614,373.4409,185.5407,379.4513,184.9069,385.4617,185.2915,391.4721,185.4543,397.4825,184.8166,403.493,185.0425,409.5034,185.1756,415.5138,185.4911,421.5242,185.0975,427.5346,185.3775,433.545,184.7677,439.5555,184.6936,445.5659,185.4022,451.5763,185.1,457.5867,185.1,457.4433,183.9,457.6885,182.7,457.628,181.5,457.5331,180.3,457.516,179.1,457.5867,179.3753,457.5867,178.9204,451.5763,179.4551,445.5659,178.7684,439.5555,179.4705,433.545,179.3906,427.5346,179.247,421.5242,179.1283,415.5138,179.536,409.5034,179.4681,403.493,179.2016,397.4825,179.2609,391.4721,179.0218,385.4617,179.5299,379.4513,179.1929,373.4409,179.2035,367.4304,178.735,361.42,178.8569,355.4096,179.4184,349.3992,179.3579,343.3888,179.0742,337.3783,178.9067,331.3679,178.9686,325.3575,178.6883,319.3471,179.3488,313.3367,179.5437,307.3263,179.4158,301.3158,179.517,295.3054,179.018,289.295,179.1523,283.2846,178.8674,277.2742,179.2704,271.2637,179.2481,265.2533,179.4314,259.2429,178.9622,253.2325,179.0194,247.2221,179.3661,241.2116,179.4404,235.2012,178.7925,229.1908,178.9837,223.1804,179.1896,217.17,178.7335,211.1596,179.312,205.1491,179.2548,199.1387,179.0395,193.1283,179.1853,187.1179,179.5372,181.1075,178.9123,175.097,179.289,169.0866,179.2714,163.0762,179.1695,157.0658,179.1846,151.0554,179.1681,145.0449,178.7255,139.0345,178.8595,133.0241,178.8231,127.0137,179.1383,121.0033,179.1529,114.9929,179.197,108.9824,178.9254,102.972,179.0595,96.9616,179.0279,90.9512,179.4461,84.9408,179.3559,78.9303,179.1,72.9199" style="stroke:#181818;stroke-width:0.6;"/><polygon fill="#FFFFFF" points="321.3,148.0184,321.3,148.0604,322.5,147.9355,323.7,148.057,324.9,148.0983,326.1,147.8757,327.3,148.0184,327.2534,148.0184,327.0441,153.921,327.0699,159.8237,327.2591,165.7263,326.8852,171.6289,327.6322,177.5316,326.9218,183.4342,327.1813,189.3369,327.5592,195.2395,327.2485,201.1422,327.3409,207.0448,327.2808,212.9475,327.4071,218.8501,327.4435,224.7528,327.6514,230.6554,327.7026,236.5581,327.7076,242.4607,327.4528,248.3634,327.5782,254.266,327.7213,260.1687,326.8673,266.0713,327.7071,271.974,327.1221,277.8766,327.6203,283.7793,327.003,289.6819,327.2589,295.5845,327.745,301.4872,327.3,307.3898,327.3,307.3801,326.1,307.4109,324.9,307.4576,323.7,307.4731,322.5,307.3891,321.3,307.3898,321.4723,307.3898,320.9565,301.4872,321.4706,295.5845,321.6289,289.6819,321.5667,283.7793,321.6678,277.8766,321.0102,271.974,320.9087,266.0713,320.9272,260.1687,321.2647,254.266,321.1821,248.3634,321.7088,242.4607,321.1952,236.5581,321.0942,230.6554,321.437,224.7528,320.8999,218.8501,320.9885,212.9475,321.6894,207.0448,321.5614,201.1422,321.7407,195.2395,321.1069,189.3369,321.4915,183.4342,321.6543,177.5316,321.0166,171.6289,321.2425,165.7263,321.3756,159.8237,321.6911,153.921,321.3,148.0184" style="stroke:#181818;stroke-width:0.6;"/><polygon fill="#FFFFFF" points="321.3,363.7137,321.3,363.7557,322.5,363.6308,323.7,363.7523,324.9,363.7936,326.1,363.571,327.3,363.7137,327.2534,363.7137,327.0441,369.4905,327.0699,375.2673,327.2591,381.0441,326.8852,386.8209,327.6322,392.5977,326.9218,398.3745,327.1813,404.1513,327.5592,409.9281,327.2485,415.7049,327.3409,421.4817,327.2808,427.2585,327.4071,433.0353,327.3,438.8121,327.3,438.8599,326.1,438.9292,324.9,438.9463,323.7,438.948,322.5,438.863,321.3,438.8121,321.5782,438.8121,321.7213,433.0353,320.8673,427.2585,321.7071,421.4817,321.1221,415.7049,321.6203,409.9281,321.003,404.1513,321.2589,398.3745,321.745,392.5977,321.2708,386.8209,321.3632,381.0441,321.5032,375.2673,321.5497,369.4905,321.3,363.7137" style="stroke:#181818;stroke-width:0.6;"/><polygon fill="#FFFFFF" points="408.3,199.5422,408.3,199.5842,409.5,199.4593,410.7,199.5808,411.9,199.6221,413.1,199.3995,414.3,199.5422,414.2534,199.5422,414.0441,205.4804,414.0699,211.4186,414.2591,217.3568,413.8852,223.295,414.6322,229.2332,413.9218,235.1714,414.1813,241.1096,414.5592,247.0478,414.2485,252.986,414.3409,258.9242,414.2808,264.8624,414.4071,270.8006,414.4435,276.7388,414.6514,282.677,414.3,288.6152,414.3,288.7494,413.1,288.7511,411.9,288.6662,410.7,288.708,409.5,288.7557,408.3,288.6152,407.8673,288.6152,408.7071,282.677,408.1221,276.7388,408.6203,270.8006,408.003,264.8624,408.2589,258.9242,408.745,252.986,408.2708,247.0478,408.3632,241.1096,408.5032,235.1714,408.5497,229.2332,408.2977,223.295,408.4723,217.3568,407.9565,211.4186,408.4706,205.4804,408.3,199.5422" style="stroke:#181818;stroke-width:0.6;"/><polygon fill="#FFFFFF" points="531.6,251.066,531.6,251.1081,532.8,250.9832,534,251.1047,535.2,251.146,536.4,250.9233,537.6,251.066,537.5845,251.066,537.5147,254.8209,537.5233,258.5759,537.5864,262.3308,537.4617,266.0857,537.6,269.8406,537.6,269.9514,536.4,269.7146,535.2,269.8011,534,269.927,532.8,269.8235,531.6,269.8406,531.6136,269.8406,531.5936,266.0857,531.6357,262.3308,531.6478,258.5759,531.7171,254.8209,531.6,251.066" style="stroke:#181818;stroke-width:0.6;"/><polygon fill="#FFFFFF" points="531.6,401.2629,531.6,401.3049,532.8,401.18,534,401.3015,535.2,401.3428,536.4,401.1202,537.6,401.2629,537.5845,401.2629,537.5147,405.0178,537.5233,408.7727,537.5864,412.5277,537.4617,416.2826,537.6,420.0375,537.6,420.1482,536.4,419.9114,535.2,419.9979,534,420.1239,532.8,420.0203,531.6,420.0375,531.6136,420.0375,531.5936,416.2826,531.6357,412.5277,531.6478,408.7727,531.7171,405.0178,531.6,401.2629" style="stroke:#181818;stroke-width:0.6;"/><polygon fill="#181818" points="171.9,70.5199,171.9156,70.559,173.0692,70.923,174.3144,71.5158,175.5297,72.0341,176.647,72.3074,177.9,72.9199,177.8942,72.9055,176.6683,73.3207,175.4715,73.8087,174.2949,74.3473,173.0486,74.7115,171.9,75.3199,171.9783,75.3982,172.2909,74.7508,172.832,74.332,173.4011,73.941,173.8079,73.3878,174.3,72.9199,174.3097,72.9296,173.8155,72.4354,173.3652,71.9852,172.8938,71.5137,172.4628,71.0828,171.9,70.5199" style="stroke:#181818;stroke-width:0.6;"/><path d="M32.1,72.9199 L32.1,73.0881 L38.075,72.5885 L44.05,73.0746 L50.025,73.2397 L56,72.3492 L61.975,72.8578 L67.95,72.5787 L73.925,72.6131 L79.9,72.8654 L85.875,72.3668 L91.85,73.3628 L97.825,72.4157 L103.8,72.7617 L109.775,73.2655 L115.75,72.8513 L121.725,72.9745 L127.7,72.8944 L133.675,73.0627 L139.65,73.1112 L145.625,73.3885 L151.6,73.4568 L157.575,73.4633 L163.55,73.1236 L169.525,73.2908 L175.5,72.9199 " fill="none" style="stroke:#181818;stroke-width:0.6;stroke-dasharray:2.0,2.0;"/><text fill="#000000" font-family="FG Virgil" font-size="7.8" lengthAdjust="spacing" textLength="48" x="36.3" y="69.7623">Register Meal</text><polygon fill="#181818" points="317.1,89.2945,317.1156,89.3336,318.2692,89.6976,319.5144,90.2904,320.7297,90.8087,321.847,91.0821,323.1,91.6945,323.0942,91.6801,321.8683,92.0953,320.6715,92.5833,319.4949,93.1219,318.2486,93.4861,317.1,94.0945,317.1783,94.1728,317.4909,93.5254,318.032,93.1066,318.6011,92.7156,319.0079,92.1624,319.5,91.6945,319.5097,91.7042,319.0155,91.21,318.5652,90.7598,318.0938,90.2883,317.6628,89.8574,317.1,89.2945" style="stroke:#181818;stroke-width:0.6;"/><path d="M185.1,91.6945 L185.1,91.8627 L190.9957,91.3631 L196.8913,91.8492 L202.787,92.0143 L208.6826,91.1238 L214.5783,91.6324 L220.4739,91.3533 L226.3696,91.3877 L232.2652,91.64 L238.1609,91.1414 L244.0565,92.1374 L249.9522,91.1903 L255.8478,91.5363 L261.7435,92.0401 L267.6391,91.6259 L273.5348,91.7491 L279.4304,91.669 L285.3261,91.8374 L291.2217,91.8858 L297.1174,92.1631 L303.013,92.2314 L308.9087,92.2379 L314.8043,91.8982 L320.7,91.6945 " fill="none" style="stroke:#181818;stroke-width:0.6;"/><text fill="#000000" font-family="FG Virgil" font-size="7.8" lengthAdjust="spacing" textLength="21.6" x="189.3" y="88.5369">create</text><polygon fill="#181818" points="38.7,108.0691,38.7156,108.1082,37.4692,108.4722,36.3144,109.065,35.1297,109.5834,33.847,109.8567,32.7,110.4691,32.6942,110.4547,33.8683,110.8699,35.0715,111.3579,36.2949,111.8965,37.4486,112.2608,38.7,112.8691,38.7783,112.9474,38.1309,112.3,37.712,111.8812,37.3211,111.4902,36.7679,110.937,36.3,110.4691,36.3097,110.4788,36.7755,109.9846,37.2852,109.5344,37.7738,109.063,38.3028,108.632,38.7,108.0691" style="stroke:#181818;stroke-width:0.6;"/><path d="M35.1,110.4691 L35.1,110.6373 L41.075,110.1377 L47.05,110.6238 L53.025,110.7889 L59,109.8984 L64.975,110.407 L70.95,110.1279 L76.925,110.1623 L82.9,110.4146 L88.875,109.916 L94.85,110.9121 L100.825,109.9649 L106.8,110.3109 L112.775,110.8147 L118.75,110.4005 L124.725,110.5237 L130.7,110.4436 L136.675,110.612 L142.65,110.6604 L148.625,110.9377 L154.6,111.006 L160.575,111.0125 L166.55,110.6728 L172.525,110.84 L178.5,110.4691 " fill="none" style="stroke:#181818;stroke-width:0.6;stroke-dasharray:2.0,2.0;"/><text fill="#000000" font-family="FG Virgil" font-size="7.8" lengthAdjust="spacing" textLength="132.6" x="42.3" y="107.3115">Ask Day and Show List of Meal Types</text><polygon fill="#181818" points="171.9,126.8438,171.9156,126.8828,173.0692,127.2468,174.3144,127.8396,175.5297,128.358,176.647,128.6313,177.9,129.2438,177.8942,129.2293,176.6683,129.6446,175.4715,130.1325,174.2949,130.6711,173.0486,131.0354,171.9,131.6437,171.9783,131.722,172.2909,131.0746,172.832,130.6558,173.4011,130.2648,173.8079,129.7116,174.3,129.2438,174.3097,129.2534,173.8155,128.7592,173.3652,128.309,172.8938,127.8376,172.4628,127.4066,171.9,126.8438" style="stroke:#181818;stroke-width:0.6;"/><path d="M32.1,129.2438 L32.1,129.4119 L38.075,128.9123 L44.05,129.3984 L50.025,129.5635 L56,128.673 L61.975,129.1816 L67.95,128.9026 L73.925,128.937 L79.9,129.1892 L85.875,128.6907 L91.85,129.6867 L97.825,128.7395 L103.8,129.0855 L109.775,129.5893 L115.75,129.1751 L121.725,129.2983 L127.7,129.2182 L133.675,129.3866 L139.65,129.4351 L145.625,129.7123 L151.6,129.7806 L157.575,129.7872 L163.55,129.4475 L169.525,129.6146 L175.5,129.2438 " fill="none" style="stroke:#181818;stroke-width:0.6;stroke-dasharray:2.0,2.0;"/><text fill="#000000" font-family="FG Virgil" font-size="7.8" lengthAdjust="spacing" textLength="67.2" x="36.3" y="126.0861">Day and Meal Type</text><polygon fill="#181818" points="314.1,145.6184,314.1156,145.6574,315.2692,146.0214,316.5144,146.6143,317.7297,147.1326,318.847,147.4059,320.1,148.0184,320.0942,148.0039,318.8683,148.4192,317.6715,148.9071,316.4949,149.4457,315.2486,149.81,314.1,150.4184,314.1783,150.4967,314.4909,149.8492,315.032,149.4304,315.6011,149.0394,316.0079,148.4862,316.5,148.0184,316.5097,148.028,316.0155,147.5338,315.5652,147.0836,315.0938,146.6122,314.6628,146.1812,314.1,145.6184" style="stroke:#181818;stroke-width:0.6;"/><path d="M185.1,148.0184 L185.1,148.1865 L191.1273,147.6869 L197.1545,148.173 L203.1818,148.3381 L209.2091,147.4476 L215.2364,147.9562 L221.2636,147.6772 L227.2909,147.7116 L233.3182,147.9638 L239.3455,147.4653 L245.3727,148.4613 L251.4,147.5141 L257.4273,147.8601 L263.4545,148.3639 L269.4818,147.9497 L275.5091,148.073 L281.5364,147.9928 L287.5636,148.1612 L293.5909,148.2097 L299.6182,148.4869 L305.6455,148.5552 L311.6727,148.5618 L317.7,148.0184 " fill="none" style="stroke:#181818;stroke-width:0.6;"/><text fill="#000000" font-family="FG Virgil" font-size="7.8" lengthAdjust="spacing" textLength="30.6" x="189.3" y="144.8607">listDish()</text><path d="M330,155.8184 L330.1121,155.8184 L329.779,161.0984 L330.1031,166.3784 L330.2132,171.6584 L329.6195,176.9384 L330,182.2184 L330,182.094 L336.0261,181.536 L342.0522,181.6048 L348.0783,182.1093 L354.1043,181.1122 L360.1304,183.1042 L366.1565,181.2099 L372.1826,181.9019 L378.2087,182.9095 L384.2348,182.0811 L390.2609,182.3275 L396.287,182.1672 L402.313,182.504 L408.3391,182.601 L414.3652,183.1555 L420.3913,183.292 L426.4174,183.3052 L432.4435,182.6258 L438.4696,182.9601 L444.4957,183.3419 L450.5217,181.0645 L456.5478,183.304 L462.5739,181.744 L468.6,182.2184 L468.8847,182.2184 L468.336,178.1384 L468.5635,174.0584 L468.9955,169.9784 L468.574,165.8984 L468.6,161.8184 L468.6397,161.8581 L467.5277,160.7461 L466.357,159.5753 L464.9985,158.2169 L463.9083,157.1267 L462.6,155.8184 L462.6,154.9025 L456.5727,156.2734 L450.5455,156.6955 L444.5182,156.5296 L438.4909,156.7992 L432.4636,155.0454 L426.4364,154.7749 L420.4091,154.8241 L414.3818,155.7242 L408.3545,155.5039 L402.3273,156.9086 L396.3,155.5389 L390.2727,155.2695 L384.2455,156.1836 L378.2182,154.7514 L372.1909,154.9878 L366.1636,156.8567 L360.1364,156.5154 L354.1091,156.9935 L348.0818,155.3035 L342.0545,156.3291 L336.0273,156.763 L330,155.8184 " fill="#FAFAFA" style="stroke:#181818;stroke-width:0.3;"/><path d="M462.6,155.8184 L462.3481,155.8184 L462.5489,157.0184 L462.6672,158.2184 L462.9476,159.4184 L462.5978,160.6184 L462.6,161.8184 L462.6,162.0651 L463.8,161.523 L465,161.4572 L466.2,162.087 L467.4,161.436 L468.6,161.8184 L468.7919,162.0103 L467.4779,160.6963 L466.099,159.3173 L464.8666,158.0849 L463.973,157.1914 L462.6,155.8184 " fill="#FAFAFA" style="stroke:#181818;stroke-width:0.3;"/><text fill="#000000" font-family="FG Virgil" font-size="7.8" lengthAdjust="spacing" textLength="123.6" x="333.6" y="167.2354">hidden authorization user guarantee</text><text fill="#000000" font-family="FG Virgil" font-size="7.8" lengthAdjust="spacing" textLength="76.2" x="333.6" y="177.61">(see specific diagram)</text><polygon fill="#181818" points="401.1,197.1422,401.1156,197.1812,402.2692,197.5453,403.5144,198.1381,404.7297,198.6564,405.847,198.9297,407.1,199.5422,407.0942,199.5278,405.8683,199.943,404.6715,200.431,403.4949,200.9695,402.2486,201.3338,401.1,201.9422,401.1783,202.0205,401.4909,201.3731,402.032,200.9542,402.6011,200.5633,403.0079,200.0101,403.5,199.5422,403.5097,199.5518,403.0155,199.0577,402.5652,198.6074,402.0938,198.136,401.6628,197.705,401.1,197.1422" style="stroke:#181818;stroke-width:0.6;"/><path d="M327.3,199.5422 L327.3,199.7103 L333.2538,199.2107 L339.2077,199.6968 L345.1615,199.8619 L351.1154,198.9715 L357.0692,199.48 L363.0231,199.201 L368.9769,199.2354 L374.9308,199.4877 L380.8846,198.9891 L386.8385,199.9851 L392.7923,199.038 L398.7462,199.384 L404.7,199.5422 " fill="none" style="stroke:#181818;stroke-width:0.6;"/><text fill="#000000" font-family="FG Virgil" font-size="7.8" lengthAdjust="spacing" textLength="57.6" x="331.5" y="196.3846">allActiveDishes()</text><path d="M417,207.3422 L417.1121,207.3422 L416.779,212.6222 L417.1031,217.9022 L417.2132,223.1822 L416.6195,228.4622 L417,233.7422 L417,233.6178 L422.92,233.0598 L428.84,233.1286 L434.76,233.6331 L440.68,232.636 L446.6,234.628 L452.52,232.7337 L458.44,233.4258 L464.36,234.4333 L470.28,233.6049 L476.2,233.8514 L482.12,233.6911 L488.04,234.0278 L493.96,234.1248 L499.88,234.6793 L505.8,233.7422 L506.1579,233.7422 L506.1623,229.6622 L505.9358,225.5822 L506.0472,221.5022 L506.1745,217.4222 L505.8,213.3422 L505.528,213.0702 L504.8559,212.3981 L503.2882,210.8304 L502.4013,209.9435 L500.8133,208.3555 L499.8,207.3422 L499.8,207.2326 L493.8857,208.5288 L487.9714,207.2642 L482.0571,207.5107 L476.1429,207.884 L470.2286,208.0082 L464.3143,207.3359 L458.4,207.8017 L452.4857,206.4263 L446.5714,207.7972 L440.6571,208.2193 L434.7429,208.0534 L428.8286,208.323 L422.9143,206.5693 L417,207.3422 " fill="#FAFAFA" style="stroke:#181818;stroke-width:0.3;"/><path d="M499.8,207.3422 L499.4522,207.3422 L499.4686,208.5422 L499.7686,209.7422 L499.6952,210.9422 L500.1634,212.1422 L499.8,213.3422 L499.8,213.249 L501,213.1592 L502.2,213.4639 L503.4,212.9865 L504.6,213.0653 L505.8,213.3422 L506.0447,213.5869 L504.7643,212.3065 L503.677,211.2192 L502.0786,209.6208 L501.1204,208.6626 L499.8,207.3422 " fill="#FAFAFA" style="stroke:#181818;stroke-width:0.3;"/><text fill="#000000" font-family="FG Virgil" font-size="7.8" lengthAdjust="spacing" textLength="76.2" x="420.6" y="218.7592">Simplified persistence</text><text fill="#000000" font-family="FG Virgil" font-size="7.8" lengthAdjust="spacing" textLength="76.2" x="420.6" y="229.1338">(see specific diagram)</text><polygon fill="#181818" points="524.4,248.666,524.4156,248.705,525.5692,249.0691,526.8144,249.6619,528.0297,250.1802,529.147,250.4535,530.4,251.066,530.3942,251.0516,529.1683,251.4668,527.9715,251.9548,526.7949,252.4934,525.5486,252.8576,524.4,253.466,524.4783,253.5443,524.7909,252.8969,525.332,252.478,525.9011,252.0871,526.3079,251.5339,526.8,251.066,526.8097,251.0757,526.3155,250.5815,525.8652,250.1313,525.3938,249.6598,524.9628,249.2288,524.4,248.666" style="stroke:#181818;stroke-width:0.6;"/><path d="M414.3,251.066 L414.3,251.2342 L420.2842,250.7346 L426.2684,251.2206 L432.2526,251.3858 L438.2368,250.4953 L444.2211,251.0038 L450.2053,250.7248 L456.1895,250.7592 L462.1737,251.0115 L468.1579,250.5129 L474.1421,251.5089 L480.1263,250.5618 L486.1105,250.9078 L492.0947,251.4116 L498.0789,250.9974 L504.0632,251.1206 L510.0474,251.0405 L516.0316,251.2088 L522.0158,251.2573 L528,251.066 " fill="none" style="stroke:#181818;stroke-width:0.6;"/><text fill="#000000" font-family="FG Virgil" font-size="7.8" lengthAdjust="spacing" textLength="46.8" x="418.5" y="247.9084">findAllActive()</text><polygon fill="#181818" points="420.9,267.4406,420.9156,267.4797,419.6692,267.8437,418.5144,268.4365,417.3297,268.9548,416.047,269.2282,414.9,269.8406,414.8942,269.8262,416.0683,270.2414,417.2715,270.7294,418.4949,271.268,419.6486,271.6322,420.9,272.2406,420.9783,272.3189,420.3309,271.6715,419.912,271.2527,419.5211,270.8617,418.9679,270.3085,418.5,269.8406,418.5097,269.8503,418.9755,269.3561,419.4852,268.9059,419.9738,268.4344,420.5028,268.0035,420.9,267.4406" style="stroke:#181818;stroke-width:0.6;"/><path d="M417.3,269.8406 L417.3,270.0088 L423.4421,269.5092 L429.5842,269.9953 L435.7263,270.1604 L441.8684,269.2699 L448.0105,269.7785 L454.1526,269.4994 L460.2947,269.5338 L466.4368,269.7861 L472.5789,269.2875 L478.7211,270.2835 L484.8632,269.3364 L491.0053,269.6824 L497.1474,270.1862 L503.2895,269.772 L509.4316,269.8952 L515.5737,269.8151 L521.7158,269.9834 L527.8579,270.0319 L534,269.8406 " fill="none" style="stroke:#181818;stroke-width:0.6;stroke-dasharray:2.0,2.0;"/><text fill="#000000" font-family="FG Virgil" font-size="7.8" lengthAdjust="spacing" textLength="22.8" x="424.5" y="266.683">dishes</text><polygon fill="#181818" points="333.9,286.2152,333.9156,286.2543,332.6692,286.6183,331.5144,287.2111,330.3297,287.7295,329.047,288.0028,327.9,288.6152,327.8942,288.6008,329.0683,289.016,330.2715,289.504,331.4949,290.0426,332.6486,290.4069,333.9,291.0152,333.9783,291.0935,333.3309,290.4461,332.912,290.0273,332.5211,289.6363,331.9679,289.0831,331.5,288.6152,331.5097,288.6249,331.9755,288.1307,332.4852,287.6805,332.9738,287.2091,333.5028,286.7781,333.9,286.2152" style="stroke:#181818;stroke-width:0.6;"/><path d="M330.3,288.6152 L330.3,288.7834 L336.4846,288.2838 L342.6692,288.7699 L348.8538,288.935 L355.0385,288.0445 L361.2231,288.5531 L367.4077,288.274 L373.5923,288.3084 L379.7769,288.5607 L385.9615,288.0621 L392.1462,289.0581 L398.3308,288.111 L404.5154,288.457 L410.7,288.6152 " fill="none" style="stroke:#181818;stroke-width:0.6;stroke-dasharray:2.0,2.0;"/><text fill="#000000" font-family="FG Virgil" font-size="7.8" lengthAdjust="spacing" textLength="22.8" x="337.5" y="285.4576">dishes</text><polygon fill="#181818" points="191.7,304.9898,191.7156,305.0289,190.4692,305.3929,189.3144,305.9857,188.1297,306.5041,186.847,306.7774,185.7,307.3898,185.6942,307.3754,186.8683,307.7906,188.0715,308.2786,189.2949,308.8172,190.4486,309.1815,191.7,309.7898,191.7783,309.8681,191.1309,309.2207,190.712,308.8019,190.3211,308.4109,189.7679,307.8577,189.3,307.3898,189.3097,307.3995,189.7755,306.9053,190.2852,306.4551,190.7738,305.9837,191.3028,305.5527,191.7,304.9898" style="stroke:#181818;stroke-width:0.6;"/><path d="M188.1,307.3898 L188.1,307.558 L193.9957,307.0584 L199.8913,307.5445 L205.787,307.7096 L211.6826,306.8191 L217.5783,307.3277 L223.4739,307.0486 L229.3696,307.083 L235.2652,307.3353 L241.1609,306.8367 L247.0565,307.8328 L252.9522,306.8856 L258.8478,307.2316 L264.7435,307.7354 L270.6391,307.3212 L276.5348,307.4444 L282.4304,307.3643 L288.3261,307.5327 L294.2217,307.5812 L300.1174,307.8584 L306.013,307.9267 L311.9087,307.9332 L317.8043,307.5935 L323.7,307.3898 " fill="none" style="stroke:#181818;stroke-width:0.6;stroke-dasharray:2.0,2.0;"/><text fill="#000000" font-family="FG Virgil" font-size="7.8" lengthAdjust="spacing" textLength="22.8" x="195.3" y="304.2322">dishes</text><polygon fill="#181818" points="38.7,323.7645,38.7156,323.8035,37.4692,324.1675,36.3144,324.7603,35.1297,325.2787,33.847,325.552,32.7,326.1645,32.6942,326.15,33.8683,326.5653,35.0715,327.0532,36.2949,327.5918,37.4486,327.9561,38.7,328.5645,38.7783,328.6427,38.1309,327.9953,37.712,327.5765,37.3211,327.1855,36.7679,326.6323,36.3,326.1645,36.3097,326.1741,36.7755,325.6799,37.2852,325.2297,37.7738,324.7583,38.3028,324.3273,38.7,323.7645" style="stroke:#181818;stroke-width:0.6;"/><path d="M35.1,326.1645 L35.1,326.3326 L41.075,325.833 L47.05,326.3191 L53.025,326.4842 L59,325.5937 L64.975,326.1023 L70.95,325.8233 L76.925,325.8577 L82.9,326.1099 L88.875,325.6114 L94.85,326.6074 L100.825,325.6602 L106.8,326.0062 L112.775,326.51 L118.75,326.0958 L124.725,326.219 L130.7,326.1389 L136.675,326.3073 L142.65,326.3558 L148.625,326.633 L154.6,326.7013 L160.575,326.7079 L166.55,326.3682 L172.525,326.5353 L178.5,326.1645 " fill="none" style="stroke:#181818;stroke-width:0.6;stroke-dasharray:2.0,2.0;"/><text fill="#000000" font-family="FG Virgil" font-size="7.8" lengthAdjust="spacing" textLength="69" x="42.3" y="323.0068">Show List of Dishes</text><polygon fill="#181818" points="171.9,342.5391,171.9156,342.5781,173.0692,342.9421,174.3144,343.535,175.5297,344.0533,176.647,344.3266,177.9,344.9391,177.8942,344.9246,176.6683,345.3399,175.4715,345.8278,174.2949,346.3664,173.0486,346.7307,171.9,347.3391,171.9783,347.4174,172.2909,346.7699,172.832,346.3511,173.4011,345.9601,173.8079,345.4069,174.3,344.9391,174.3097,344.9487,173.8155,344.4545,173.3652,344.0043,172.8938,343.5329,172.4628,343.1019,171.9,342.5391" style="stroke:#181818;stroke-width:0.6;"/><path d="M32.1,344.9391 L32.1,345.1072 L38.075,344.6076 L44.05,345.0937 L50.025,345.2588 L56,344.3683 L61.975,344.8769 L67.95,344.5979 L73.925,344.6323 L79.9,344.8845 L85.875,344.386 L91.85,345.382 L97.825,344.4348 L103.8,344.7808 L109.775,345.2846 L115.75,344.8704 L121.725,344.9937 L127.7,344.9135 L133.675,345.0819 L139.65,345.1304 L145.625,345.4076 L151.6,345.4759 L157.575,345.4825 L163.55,345.1428 L169.525,345.3099 L175.5,344.9391 " fill="none" style="stroke:#181818;stroke-width:0.6;stroke-dasharray:2.0,2.0;"/><text fill="#000000" font-family="FG Virgil" font-size="7.8" lengthAdjust="spacing" textLength="40.2" x="36.3" y="341.7814">Select Dish</text><polygon fill="#181818" points="314.1,361.3137,314.1156,361.3527,315.2692,361.7167,316.5144,362.3096,317.7297,362.8279,318.847,363.1012,320.1,363.7137,320.0942,363.6992,318.8683,364.1145,317.6715,364.6025,316.4949,365.141,315.2486,365.5053,314.1,366.1137,314.1783,366.192,314.4909,365.5445,315.032,365.1257,315.6011,364.7348,316.0079,364.1815,316.5,363.7137,316.5097,363.7233,316.0155,363.2292,315.5652,362.7789,315.0938,362.3075,314.6628,361.8765,314.1,361.3137" style="stroke:#181818;stroke-width:0.6;"/><path d="M185.1,363.7137 L185.1,363.8818 L191.1273,363.3822 L197.1545,363.8683 L203.1818,364.0334 L209.2091,363.143 L215.2364,363.6515 L221.2636,363.3725 L227.2909,363.4069 L233.3182,363.6591 L239.3455,363.1606 L245.3727,364.1566 L251.4,363.2094 L257.4273,363.5555 L263.4545,364.0592 L269.4818,363.6451 L275.5091,363.7683 L281.5364,363.6881 L287.5636,363.8565 L293.5909,363.905 L299.6182,364.1822 L305.6455,364.2505 L311.6727,364.2571 L317.7,363.7137 " fill="none" style="stroke:#181818;stroke-width:0.6;"/><text fill="#000000" font-family="FG Virgil" font-size="7.8" lengthAdjust="spacing" textLength="124.8" x="189.3" y="360.5561">registerMeal(dish, mealType, ofDay)</text><polygon fill="#181818" points="466.8,380.0883,466.8156,380.1273,467.9692,380.4913,469.2144,381.0842,470.4297,381.6025,471.547,381.8758,472.8,382.4883,472.7942,382.4739,471.5683,382.8891,470.3715,383.3771,469.1949,383.9156,467.9486,384.2799,466.8,384.8883,466.8783,384.9666,467.1909,384.3191,467.732,383.9003,468.3011,383.5094,468.7079,382.9562,469.2,382.4883,469.2097,382.4979,468.7155,382.0038,468.2652,381.5535,467.7938,381.0821,467.3628,380.6511,466.8,380.0883" style="stroke:#181818;stroke-width:0.6;"/><path d="M327.3,382.4883 L327.3,382.6564 L333.2625,382.1568 L339.225,382.6429 L345.1875,382.808 L351.15,381.9176 L357.1125,382.4261 L363.075,382.1471 L369.0375,382.1815 L375,382.4338 L380.9625,381.9352 L386.925,382.9312 L392.8875,381.9841 L398.85,382.3301 L404.8125,382.8338 L410.775,382.4197 L416.7375,382.5429 L422.7,382.4627 L428.6625,382.6311 L434.625,382.6796 L440.5875,382.9568 L446.55,383.0251 L452.5125,383.0317 L458.475,382.692 L464.4375,382.8591 L470.4,382.4883 " fill="none" style="stroke:#181818;stroke-width:0.6;"/><text fill="#000000" font-family="FG Virgil" font-size="7.8" lengthAdjust="spacing" textLength="103.8" x="331.5" y="379.3307">create(dish, mealType, ofDay)</text><polygon fill="#181818" points="524.4,398.8629,524.4156,398.9019,525.5692,399.266,526.8144,399.8588,528.0297,400.3771,529.147,400.6504,530.4,401.2629,530.3942,401.2485,529.1683,401.6637,527.9715,402.1517,526.7949,402.6902,525.5486,403.0545,524.4,403.6629,524.4783,403.7412,524.7909,403.0938,525.332,402.6749,525.9011,402.284,526.3079,401.7308,526.8,401.2629,526.8097,401.2725,526.3155,400.7784,525.8652,400.3281,525.3938,399.8567,524.9628,399.4257,524.4,398.8629" style="stroke:#181818;stroke-width:0.6;"/><path d="M327.3,401.2629 L327.3,401.431 L333.3818,400.9314 L339.4636,401.4175 L345.5455,401.5826 L351.6273,400.6922 L357.7091,401.2007 L363.7909,400.9217 L369.8727,400.9561 L375.9545,401.2084 L382.0364,400.7098 L388.1182,401.7058 L394.2,400.7587 L400.2818,401.1047 L406.3636,401.6084 L412.4455,401.1943 L418.5273,401.3175 L424.6091,401.2373 L430.6909,401.4057 L436.7727,401.4542 L442.8545,401.7314 L448.9364,401.7997 L455.0182,401.8063 L461.1,401.4666 L467.1818,401.6338 L473.2636,401.8247 L479.3455,400.6859 L485.4273,401.8057 L491.5091,401.0257 L497.5909,401.6899 L503.6727,400.8669 L509.7545,401.2081 L515.8364,401.8562 L521.9182,401.2239 L528,401.2629 " fill="none" style="stroke:#181818;stroke-width:0.6;"/><text fill="#000000" font-family="FG Virgil" font-size="7.8" lengthAdjust="spacing" textLength="37.2" x="331.5" y="398.1053">save(meal)</text><polygon fill="#181818" points="333.9,417.6375,333.9156,417.6765,332.6692,418.0406,331.5144,418.6334,330.3297,419.1517,329.047,419.425,327.9,420.0375,327.8942,420.0231,329.0683,420.4383,330.2715,420.9263,331.4949,421.4648,332.6486,421.8291,333.9,422.4375,333.9783,422.5158,333.3309,421.8684,332.912,421.4495,332.5211,421.0586,331.9679,420.5054,331.5,420.0375,331.5097,420.0472,331.9755,419.553,332.4852,419.1027,332.9738,418.6313,333.5028,418.2003,333.9,417.6375" style="stroke:#181818;stroke-width:0.6;"/><path d="M330.3,420.0375 L330.3,420.2056 L336.2912,419.706 L342.2824,420.1921 L348.2735,420.3572 L354.2647,419.4668 L360.2559,419.9753 L366.2471,419.6963 L372.2382,419.7307 L378.2294,419.983 L384.2206,419.4844 L390.2118,420.4804 L396.2029,419.5333 L402.1941,419.8793 L408.1853,420.3831 L414.1765,419.9689 L420.1676,420.0921 L426.1588,420.0119 L432.15,420.1803 L438.1412,420.2288 L444.1324,420.5061 L450.1235,420.5743 L456.1147,420.5809 L462.1059,420.2412 L468.0971,420.4084 L474.0882,420.5993 L480.0794,419.4606 L486.0706,420.5803 L492.0618,419.8003 L498.0529,420.4645 L504.0441,419.6415 L510.0353,419.9827 L516.0265,420.6308 L522.0176,419.9985 L528.0088,420.1217 L534,420.0375 " fill="none" style="stroke:#181818;stroke-width:0.6;stroke-dasharray:2.0,2.0;"/><text fill="#000000" font-family="FG Virgil" font-size="7.8" lengthAdjust="spacing" textLength="16.8" x="337.5" y="416.8799">meal</text><polygon fill="#181818" points="191.7,436.4121,191.7156,436.4511,190.4692,436.8152,189.3144,437.408,188.1297,437.9263,186.847,438.1996,185.7,438.8121,185.6942,438.7977,186.8683,439.2129,188.0715,439.7009,189.2949,440.2395,190.4486,440.6037,191.7,441.2121,191.7783,441.2904,191.1309,440.643,190.712,440.2241,190.3211,439.8332,189.7679,439.28,189.3,438.8121,189.3097,438.8218,189.7755,438.3276,190.2852,437.8774,190.7738,437.4059,191.3028,436.9749,191.7,436.4121" style="stroke:#181818;stroke-width:0.6;"/><path d="M188.1,438.8121 L188.1,438.9803 L193.9957,438.4807 L199.8913,438.9667 L205.787,439.1319 L211.6826,438.2414 L217.5783,438.7499 L223.4739,438.4709 L229.3696,438.5053 L235.2652,438.7576 L241.1609,438.259 L247.0565,439.255 L252.9522,438.3079 L258.8478,438.6539 L264.7435,439.1577 L270.6391,438.7435 L276.5348,438.8667 L282.4304,438.7866 L288.3261,438.9549 L294.2217,439.0034 L300.1174,439.2807 L306.013,439.349 L311.9087,439.3555 L317.8043,439.0158 L323.7,438.8121 " fill="none" style="stroke:#181818;stroke-width:0.6;stroke-dasharray:2.0,2.0;"/><text fill="#000000" font-family="FG Virgil" font-size="7.8" lengthAdjust="spacing" textLength="16.8" x="195.3" y="435.6545">meal</text><polygon fill="#181818" points="38.7,455.1867,38.7156,455.2257,37.4692,455.5898,36.3144,456.1826,35.1297,456.7009,33.847,456.9742,32.7,457.5867,32.6942,457.5723,33.8683,457.9875,35.0715,458.4755,36.2949,459.0141,37.4486,459.3783,38.7,459.9867,38.7783,460.065,38.1309,459.4176,37.712,458.9988,37.3211,458.6078,36.7679,458.0546,36.3,457.5867,36.3097,457.5964,36.7755,457.1022,37.2852,456.652,37.7738,456.1805,38.3028,455.7495,38.7,455.1867" style="stroke:#181818;stroke-width:0.6;"/><path d="M35.1,457.5867 L35.1,457.7549 L41.2,457.2553 L47.3,457.7413 L53.4,457.9065 L59.5,457.016 L65.6,457.5245 L71.7,457.2455 L77.8,457.2799 L83.9,457.5322 L90,457.0336 L96.1,458.0296 L102.2,457.0825 L108.3,457.4285 L114.4,457.9323 L120.5,457.5181 L126.6,457.6413 L132.7,457.5612 L138.8,457.7295 L144.9,457.778 L151,458.0553 L157.1,458.1236 L163.2,458.1301 L169.3,457.7904 L175.4,457.9576 L181.5,457.5867 " fill="none" style="stroke:#181818;stroke-width:0.6;stroke-dasharray:2.0,2.0;"/><text fill="#000000" font-family="FG Virgil" font-size="7.8" lengthAdjust="spacing" textLength="86.4" x="42.3" y="454.4291">Display Meal Info or error</text><!--SRC=[fLJ1Zjem4BtdAqPxOgNb1w882HLjXLHws9IUUfd6ayJ2iIFRWEZNT-o5n872hjGSW33lFR_nFDljfExHOWSjQd6qqdlIuEsUCZUKEgDDrLhJqNMbnsg73PN-f0WiLJwf2Qfnh_ohqVuxClNrA_oKjf4gmRWMXJbAtK2Dob6MOUMDXGtf_GOrArj01ylmPyOCBolPe_RmHerqdko6K6tN0SEVHT5RSgGzUcdqOd6NyOKjMQFKkthoLXJOzqfM_nBunlILT6r9zY0h2ipoK3saF7MyM1vMV0hmbUbGQcQ8-8F10Zt-HaSGC6_K6oUvqrC09sz5OOSN9cLnEs0-Nt3J-T1Or0Zx9m_eYKiPyCFRmhYnnHmgIrmVYboDUZaitGvMo8jh0MLhZh5ZC7KKXX-ddbnaJPU_C0PGTcTTTTw_sNC434P7p3ipFDfmmSgcZUid0ygXbK9mGd7lMsFbdxZji7TSQ_OSAUs9u9UUEVvoFLMobXK8YGsdxNbS895acpp7752fPV14mIIviys9LSQD4hS-GnnoA6N7UQWb2UZ9kZ0RNT77bi8J5DZFEFiSQgd5yc8jCJKnDXAcUac8vfS-HMnl0XFqK2cwkfhcbKgYC6pI26ToY4h2IV3Nyv-6SXB4rIWm3M59Yk-UMByNFvkS_rbmyWBXT8R4lh0sn_WJkRoDplbCNuxLFUK72kcm7VAC0_d_vfps7TG-E-oRYGtaE_FQhXbudXHlVg_uCeWNmLhN1dX0P2tVt0bxk_uB]--></g></svg>