<?xml version="1.0" encoding="us-ascii" standalone="no"?><svg xmlns="http://www.w3.org/2000/svg" xmlns:xlink="http://www.w3.org/1999/xlink" contentStyleType="text/css" height="456px" preserveAspectRatio="none" style="width:588px;height:456px;background:#FFFFFF;" version="1.1" viewBox="0 0 588 456" width="588px" zoomAndPan="magnify"><defs/><g><polygon fill="#FFFFFF" points="116.7,72.9199,116.7,72.962,117.9,72.8371,119.1,72.9586,120.3,72.9999,121.5,72.7772,122.7,72.9199,122.6534,72.9199,122.4441,78.9424,122.4699,84.9649,122.6591,90.9873,122.2852,97.0098,123.0322,103.0323,122.3218,109.0547,122.5813,115.0772,122.9592,121.0997,122.6485,127.1221,122.7409,133.1446,122.6808,139.1671,122.8071,145.1895,122.8435,151.212,123.0514,157.2345,123.1026,163.2569,123.1076,169.2794,122.8528,175.3019,122.9782,181.3244,123.1213,187.3468,122.2673,193.3693,123.1071,199.3918,122.5221,205.4142,123.0203,211.4367,122.403,217.4592,122.6589,223.4816,123.145,229.5041,122.6708,235.5266,122.7632,241.549,122.9032,247.5715,122.9497,253.594,122.6977,259.6164,122.8723,265.6389,122.3565,271.6614,122.8706,277.6838,123.0289,283.7063,122.9667,289.7288,123.0678,295.7513,122.4102,301.7737,122.3087,307.7962,122.3272,313.8187,122.6647,319.8411,122.5821,325.8636,123.1088,331.8861,122.5952,337.9085,122.4942,343.931,122.837,349.9535,122.2999,355.9759,122.3885,361.9984,123.0894,368.0209,122.9614,374.0433,123.1407,380.0658,122.7,386.0883,122.7,386.0239,121.5,386.1521,120.3,386.2064,119.1,385.9938,117.9,386.0691,116.7,386.0883,116.7756,386.0883,117.0911,380.0658,116.6975,374.0433,116.9775,368.0209,116.3677,361.9984,116.2936,355.9759,117.0022,349.9535,116.2698,343.931,117.0054,337.9085,116.824,331.8861,116.5392,325.8636,116.4877,319.8411,116.9753,313.8187,116.5204,307.7962,117.0551,301.7737,116.3684,295.7513,117.0705,289.7288,116.9906,283.7063,116.847,277.6838,116.7283,271.6614,117.136,265.6389,117.0681,259.6164,116.8016,253.594,116.8609,247.5715,116.6218,241.549,117.1299,235.5266,116.7929,229.5041,116.8035,223.4816,116.335,217.4592,116.4569,211.4367,117.0184,205.4142,116.9579,199.3918,116.6742,193.3693,116.5067,187.3468,116.5686,181.3244,116.2883,175.3019,116.9488,169.2794,117.1437,163.2569,117.0158,157.2345,117.117,151.212,116.618,145.1895,116.7523,139.1671,116.4674,133.1446,116.8704,127.1221,116.8481,121.0997,117.0314,115.0772,116.5622,109.0547,116.6194,103.0323,116.9661,97.0098,117.0404,90.9873,116.3925,84.9649,116.5837,78.9424,116.7,72.9199" style="stroke:#181818;stroke-width:0.6;"/><polygon fill="#FFFFFF" points="233.7,148.0184,233.7,148.0604,234.9,147.9355,236.1,148.057,237.3,148.0983,238.5,147.8757,239.7,148.0184,239.6534,148.0184,239.4441,153.9453,239.4699,159.8722,239.6591,165.7991,239.2852,171.726,240.0322,177.6529,239.3218,183.5798,239.5813,189.5067,239.9592,195.4336,239.6485,201.3605,239.7409,207.2874,239.6808,213.2143,239.8071,219.1412,239.8435,225.0681,240.0514,230.995,240.1026,236.9219,240.1076,242.8488,239.8528,248.7757,239.9782,254.7026,240.1213,260.6295,239.2673,266.5564,240.1071,272.4833,239.5221,278.4102,240.0203,284.3371,239.403,290.264,239.6589,296.1909,240.145,302.1178,239.6708,308.0447,239.7632,313.9716,239.9032,319.8985,239.9497,325.8254,239.6977,331.7523,239.8723,337.6792,239.3565,343.6061,239.8706,349.533,240.0289,355.4599,239.9667,361.3868,239.7,367.3137,239.7,367.4363,238.5,367.2171,237.3,367.1832,236.1,367.1894,234.9,367.3019,233.7,367.3137,233.5821,367.3137,234.1088,361.3868,233.5952,355.4599,233.4942,349.533,233.837,343.6061,233.2999,337.6792,233.3885,331.7523,234.0894,325.8254,233.9614,319.8985,234.1407,313.9716,233.5069,308.0447,233.8915,302.1178,234.0543,296.1909,233.4166,290.264,233.6425,284.3371,233.7756,278.4102,234.0911,272.4833,233.6975,266.5564,233.9775,260.6295,233.3677,254.7026,233.2936,248.7757,234.0022,242.8488,233.2698,236.9219,234.0054,230.995,233.824,225.0681,233.5392,219.1412,233.4877,213.2143,233.9753,207.2874,233.5204,201.3605,234.0551,195.4336,233.3684,189.5067,234.0705,183.5798,233.9906,177.6529,233.847,171.726,233.7283,165.7991,234.136,159.8722,234.0681,153.9453,233.7,148.0184" style="stroke:#181818;stroke-width:0.6;"/><polygon fill="#FFFFFF" points="340.5,199.5422,340.5,199.5842,341.7,199.4593,342.9,199.5808,344.1,199.6221,345.3,199.3995,346.5,199.5422,346.4534,199.5422,346.2441,205.4206,346.2699,211.2991,346.4591,217.1776,346.0852,223.056,346.8322,228.9345,346.1218,234.8129,346.5,240.6914,346.5,240.6519,345.3,240.7778,344.1,240.6743,342.9,240.7051,341.7,240.685,340.5,240.6914,340.6071,240.6914,340.6435,234.8129,340.8514,228.9345,340.9026,223.056,340.9076,217.1776,340.6528,211.2991,340.7782,205.4206,340.5,199.5422" style="stroke:#181818;stroke-width:0.6;"/><polygon fill="#FFFFFF" points="429.6,259.466,429.6,259.5081,430.8,259.3832,432,259.5047,433.2,259.546,434.4,259.3233,435.6,259.466,435.5534,259.466,435.3441,265.4042,435.3699,271.3424,435.5591,277.2806,435.1852,283.2188,435.9322,289.157,435.2218,295.0952,435.4813,301.0334,435.8592,306.9716,435.5485,312.9098,435.6409,318.848,435.5808,324.7863,435.7071,330.7245,435.7435,336.6627,435.9514,342.6009,435.6,348.5391,435.6,348.6733,434.4,348.6749,433.2,348.59,432,348.6318,430.8,348.6795,429.6,348.5391,429.1673,348.5391,430.0071,342.6009,429.4221,336.6627,429.9203,330.7245,429.303,324.7863,429.5589,318.848,430.045,312.9098,429.5708,306.9716,429.6632,301.0334,429.8032,295.0952,429.8497,289.157,429.5977,283.2188,429.7723,277.2806,429.2565,271.3424,429.7706,265.4042,429.6,259.466" style="stroke:#181818;stroke-width:0.6;"/><polygon fill="#FFFFFF" points="547.2,310.9898,547.2,311.0319,548.4,310.907,549.6,311.0285,550.8,311.0698,552,310.8472,553.2,310.9898,553.1845,310.9898,553.1147,314.7448,553.1233,318.4997,553.1864,322.2546,553.0617,326.0095,553.2,329.7645,553.2,329.8752,552,329.6384,550.8,329.7249,549.6,329.8508,548.4,329.7473,547.2,329.7645,547.2136,329.7645,547.1936,326.0095,547.2357,322.2546,547.2478,318.4997,547.3171,314.7448,547.2,310.9898" style="stroke:#181818;stroke-width:0.6;"/><path d="M30.6,52.9453 L30.7681,52.9453 L30.2685,58.9794 L30.7546,65.0135 L30.9197,71.0476 L30.0293,77.0817 L30.5378,83.1157 L30.2588,89.1498 L30.2932,95.1839 L30.5455,101.218 L30.0469,107.2521 L31.0429,113.2862 L30.0958,119.3203 L30.4418,125.3544 L30.9456,131.3884 L30.5314,137.4225 L30.6546,143.4566 L30.5744,149.4907 L30.7428,155.5248 L30.7913,161.5589 L31.0686,167.593 L31.1368,173.6271 L31.1434,179.6611 L30.8037,185.6952 L30.9709,191.7293 L31.1618,197.7634 L30.0231,203.7975 L31.1428,209.8316 L30.3628,215.8657 L31.027,221.8998 L30.204,227.9338 L30.5452,233.9679 L31.1933,240.002 L30.561,246.0361 L30.6842,252.0702 L30.8709,258.1043 L30.933,264.1384 L30.5969,270.1725 L30.8298,276.2065 L30.1421,282.2406 L30.8275,288.2747 L31.0386,294.3088 L30.9556,300.3429 L31.0904,306.377 L30.2135,312.4111 L30.0783,318.4451 L30.1029,324.4792 L30.5529,330.5133 L30.4428,336.5474 L31.1451,342.5815 L30.4603,348.6156 L30.3256,354.6497 L30.7826,360.6838 L30.0665,366.7178 L30.1847,372.7519 L31.1192,378.786 L30.9485,384.8201 L31.1876,390.8542 L30.6,396.8883 " fill="none" style="stroke:#181818;stroke-width:0.3;stroke-dasharray:5.0,5.0;"/><path d="M119.4,52.9453 L119.5681,52.9453 L119.0685,58.9794 L119.5546,65.0135 L119.7197,71.0476 L118.8293,77.0817 L119.3378,83.1157 L119.0588,89.1498 L119.0932,95.1839 L119.3455,101.218 L118.8469,107.2521 L119.8429,113.2862 L118.8958,119.3203 L119.2418,125.3544 L119.7456,131.3884 L119.3314,137.4225 L119.4546,143.4566 L119.3744,149.4907 L119.5428,155.5248 L119.5913,161.5589 L119.8686,167.593 L119.9368,173.6271 L119.9434,179.6611 L119.6037,185.6952 L119.7709,191.7293 L119.9618,197.7634 L118.8231,203.7975 L119.9428,209.8316 L119.1628,215.8657 L119.827,221.8998 L119.004,227.9338 L119.3452,233.9679 L119.9933,240.002 L119.361,246.0361 L119.4842,252.0702 L119.6709,258.1043 L119.733,264.1384 L119.3969,270.1725 L119.6298,276.2065 L118.9421,282.2406 L119.6275,288.2747 L119.8386,294.3088 L119.7556,300.3429 L119.8904,306.377 L119.0135,312.4111 L118.8783,318.4451 L118.9029,324.4792 L119.3529,330.5133 L119.2428,336.5474 L119.9451,342.5815 L119.2603,348.6156 L119.1256,354.6497 L119.5826,360.6838 L118.8665,366.7178 L118.9847,372.7519 L119.9192,378.786 L119.7485,384.8201 L119.9876,390.8542 L119.4,396.8883 " fill="none" style="stroke:#181818;stroke-width:0.3;stroke-dasharray:5.0,5.0;"/><path d="M236.4,52.9453 L236.5681,52.9453 L236.0685,58.9794 L236.5546,65.0135 L236.7197,71.0476 L235.8293,77.0817 L236.3378,83.1157 L236.0588,89.1498 L236.0932,95.1839 L236.3455,101.218 L235.8469,107.2521 L236.8429,113.2862 L235.8958,119.3203 L236.2418,125.3544 L236.7456,131.3884 L236.3314,137.4225 L236.4546,143.4566 L236.3744,149.4907 L236.5428,155.5248 L236.5913,161.5589 L236.8686,167.593 L236.9368,173.6271 L236.9434,179.6611 L236.6037,185.6952 L236.7709,191.7293 L236.9618,197.7634 L235.8231,203.7975 L236.9428,209.8316 L236.1628,215.8657 L236.827,221.8998 L236.004,227.9338 L236.3452,233.9679 L236.9933,240.002 L236.361,246.0361 L236.4842,252.0702 L236.6709,258.1043 L236.733,264.1384 L236.3969,270.1725 L236.6298,276.2065 L235.9421,282.2406 L236.6275,288.2747 L236.8386,294.3088 L236.7556,300.3429 L236.8904,306.377 L236.0135,312.4111 L235.8783,318.4451 L235.9029,324.4792 L236.3529,330.5133 L236.2428,336.5474 L236.9451,342.5815 L236.2603,348.6156 L236.1256,354.6497 L236.5826,360.6838 L235.8665,366.7178 L235.9847,372.7519 L236.9192,378.786 L236.7485,384.8201 L236.9876,390.8542 L236.4,396.8883 " fill="none" style="stroke:#181818;stroke-width:0.3;stroke-dasharray:5.0,5.0;"/><path d="M343.2,52.9453 L343.3681,52.9453 L342.8685,58.9794 L343.3546,65.0135 L343.5197,71.0476 L342.6293,77.0817 L343.1378,83.1157 L342.8588,89.1498 L342.8932,95.1839 L343.1455,101.218 L342.6469,107.2521 L343.6429,113.2862 L342.6958,119.3203 L343.0418,125.3544 L343.5456,131.3884 L343.1314,137.4225 L343.2546,143.4566 L343.1744,149.4907 L343.3428,155.5248 L343.3913,161.5589 L343.6686,167.593 L343.7368,173.6271 L343.7434,179.6611 L343.4037,185.6952 L343.5709,191.7293 L343.7618,197.7634 L342.6231,203.7975 L343.7428,209.8316 L342.9628,215.8657 L343.627,221.8998 L342.804,227.9338 L343.1452,233.9679 L343.7933,240.002 L343.161,246.0361 L343.2842,252.0702 L343.4709,258.1043 L343.533,264.1384 L343.1969,270.1725 L343.4298,276.2065 L342.7421,282.2406 L343.4275,288.2747 L343.6386,294.3088 L343.5556,300.3429 L343.6904,306.377 L342.8135,312.4111 L342.6783,318.4451 L342.7029,324.4792 L343.1529,330.5133 L343.0428,336.5474 L343.7451,342.5815 L343.0603,348.6156 L342.9256,354.6497 L343.3826,360.6838 L342.6665,366.7178 L342.7847,372.7519 L343.7192,378.786 L343.5485,384.8201 L343.7876,390.8542 L343.2,396.8883 " fill="none" style="stroke:#181818;stroke-width:0.3;stroke-dasharray:5.0,5.0;"/><path d="M432.6,52.9453 L432.7681,52.9453 L432.2685,58.9794 L432.7546,65.0135 L432.9197,71.0476 L432.0293,77.0817 L432.5378,83.1157 L432.2588,89.1498 L432.2932,95.1839 L432.5455,101.218 L432.0469,107.2521 L433.0429,113.2862 L432.0958,119.3203 L432.4418,125.3544 L432.9456,131.3884 L432.5314,137.4225 L432.6546,143.4566 L432.5744,149.4907 L432.7428,155.5248 L432.7913,161.5589 L433.0686,167.593 L433.1368,173.6271 L433.1434,179.6611 L432.8037,185.6952 L432.9709,191.7293 L433.1618,197.7634 L432.0231,203.7975 L433.1428,209.8316 L432.3628,215.8657 L433.027,221.8998 L432.204,227.9338 L432.5452,233.9679 L433.1933,240.002 L432.561,246.0361 L432.6842,252.0702 L432.8709,258.1043 L432.933,264.1384 L432.5969,270.1725 L432.8298,276.2065 L432.1421,282.2406 L432.8275,288.2747 L433.0386,294.3088 L432.9556,300.3429 L433.0904,306.377 L432.2135,312.4111 L432.0783,318.4451 L432.1029,324.4792 L432.5529,330.5133 L432.4428,336.5474 L433.1451,342.5815 L432.4603,348.6156 L432.3256,354.6497 L432.7826,360.6838 L432.0665,366.7178 L432.1847,372.7519 L433.1192,378.786 L432.9485,384.8201 L433.1876,390.8542 L432.6,396.8883 " fill="none" style="stroke:#181818;stroke-width:0.3;stroke-dasharray:5.0,5.0;"/><path d="M549.9,52.9453 L550.0681,52.9453 L549.5685,58.9794 L550.0546,65.0135 L550.2197,71.0476 L549.3293,77.0817 L549.8378,83.1157 L549.5588,89.1498 L549.5932,95.1839 L549.8455,101.218 L549.3469,107.2521 L550.3429,113.2862 L549.3958,119.3203 L549.7418,125.3544 L550.2456,131.3884 L549.8314,137.4225 L549.9546,143.4566 L549.8744,149.4907 L550.0428,155.5248 L550.0913,161.5589 L550.3686,167.593 L550.4368,173.6271 L550.4434,179.6611 L550.1037,185.6952 L550.2709,191.7293 L550.4618,197.7634 L549.3231,203.7975 L550.4428,209.8316 L549.6628,215.8657 L550.327,221.8998 L549.504,227.9338 L549.8452,233.9679 L550.4933,240.002 L549.861,246.0361 L549.9842,252.0702 L550.1709,258.1043 L550.233,264.1384 L549.8969,270.1725 L550.1298,276.2065 L549.4421,282.2406 L550.1275,288.2747 L550.3386,294.3088 L550.2556,300.3429 L550.3904,306.377 L549.5135,312.4111 L549.3783,318.4451 L549.4029,324.4792 L549.8529,330.5133 L549.7428,336.5474 L550.4451,342.5815 L549.7603,348.6156 L549.6256,354.6497 L550.0826,360.6838 L549.3665,366.7178 L549.4847,372.7519 L550.4192,378.786 L550.2485,384.8201 L550.4876,390.8542 L549.9,396.8883 " fill="none" style="stroke:#181818;stroke-width:0.3;stroke-dasharray:5.0,5.0;"/><text fill="#000000" font-family="FG Virgil" font-size="8.4" lengthAdjust="spacing" textLength="52.2" x="3" y="50.8371">CafeteriaUser</text><polygon fill="#E3E3E3" points="35.7265,12.0402,35.0229,13.0016,34.1907,14.4097,33.0005,15.3586,31.7498,15.8776,30.7525,15.9226,29.4708,15.2736,28.2614,14.8496,27.3434,13.9888,26.8619,13.0033,26.5764,12.2186,26.2966,11.1937,25.8425,10.3117,26.1915,9.4505,26.4972,8.5072,27.6444,7.7612,28.4515,6.7931,29.4506,6.4717,30.6382,6.1949,32.1613,6.3593,32.9955,6.7527,33.9653,6.9311,35.1446,8.1393,35.5557,9.4147,35.7343,10.285,35.532,11.7191" style="stroke:#181818;stroke-width:0.3;"/><path d="M30.9,15.6727 L31.0121,15.6727 L30.679,18.9127 L31.0031,22.1527 L31.1132,25.3927 L30.5195,28.6327 L30.9,31.8727 M23.1,20.4727 L23.1,20.4312 L26.22,20.2452 L29.34,20.2681 L32.46,20.4363 L35.58,20.1039 L38.7,20.4727 M30.9,31.8727 L31.1231,32.066 L29.086,33.4525 L27.7003,35.4036 L26.3941,37.4235 L24.6254,39.0427 L23.1,40.8727 M30.9,31.8727 L30.9275,31.8965 L32.4471,33.6615 L34.092,35.535 L35.6764,37.3562 L37.3761,39.2772 L38.7,40.8727 " fill="none" style="stroke:#181818;stroke-width:0.3;"/><text fill="#000000" font-family="FG Virgil" font-size="8.4" lengthAdjust="spacing" textLength="52.2" x="3" y="405.3527">CafeteriaUser</text><polygon fill="#E3E3E3" points="35.7265,413.7285,35.0229,414.6899,34.1907,416.098,33.0005,417.0469,31.7498,417.5659,30.7525,417.6109,29.4708,416.9619,28.2614,416.5379,27.3434,415.6771,26.8619,414.6916,26.5764,413.9069,26.2966,412.882,25.8425,412,26.1915,411.1388,26.4972,410.1955,27.6444,409.4494,28.4515,408.4814,29.4506,408.16,30.6382,407.8831,32.1613,408.0476,32.9955,408.441,33.9653,408.6193,35.1446,409.8275,35.5557,411.103,35.7343,411.9733,35.532,413.4074" style="stroke:#181818;stroke-width:0.3;"/><path d="M30.9,417.3609 L31.0121,417.3609 L30.679,420.6009 L31.0031,423.8409 L31.1132,427.0809 L30.5195,430.3209 L30.9,433.5609 M23.1,422.1609 L23.1,422.1195 L26.22,421.9335 L29.34,421.9564 L32.46,422.1246 L35.58,421.7922 L38.7,422.1609 M30.9,433.5609 L31.1231,433.7543 L29.086,435.1408 L27.7003,437.0919 L26.3941,439.1118 L24.6254,440.731 L23.1,442.5609 M30.9,433.5609 L30.9275,433.5848 L32.4471,435.3498 L34.092,437.2233 L35.6764,439.0445 L37.3761,440.9655 L38.7,442.5609 " fill="none" style="stroke:#181818;stroke-width:0.3;"/><polygon fill="#E3E3E3" points="78.3,21.6,78.3,21.7261,84.2143,21.3514,90.1286,21.716,96.0429,21.8398,101.9571,21.172,107.8714,21.5534,113.7857,21.3441,119.7,21.3699,125.6143,21.5591,131.5286,21.1852,137.4429,21.9322,143.3571,21.2218,149.2714,21.4813,155.1857,21.8592,161.1,21.6,161.0934,21.5842,161.3174,21.7005,161.5218,21.7698,161.7501,21.8966,161.9668,21.9957,162.1607,22.0393,162.2689,22.0842,162.3725,22.3028,162.4619,22.5156,162.4713,22.6952,162.5978,22.9233,162.6,23.1,163.0213,23.1,162.1673,28.6491,163.0071,34.1981,162.4221,39.7472,162.9203,45.2963,162.6,50.8453,162.5085,50.8074,162.4995,51.0522,162.5613,51.3263,162.3274,51.478,162.268,51.7019,162.1607,51.906,162.1866,51.9685,161.9804,52.0708,161.7361,52.081,161.5462,52.2226,161.2683,52.1517,161.1,52.3453,161.1,52.5159,155.1857,52.6742,149.2714,52.612,143.3571,52.7131,137.4429,52.0555,131.5286,51.954,125.6143,51.9725,119.7,52.31,113.7857,52.2274,107.8714,52.7542,101.9571,52.2405,96.0429,52.1395,90.1286,52.4823,84.2143,51.9452,78.3,52.3453,78.2603,52.2494,78.1375,52.3774,77.9091,52.2501,77.7198,52.2174,77.4268,51.9344,77.2393,51.906,77.2983,51.9304,77.2606,51.739,76.9763,51.4456,76.958,51.2622,76.9111,51.0671,76.8,50.8453,77.1911,50.8453,76.7975,45.2963,77.0775,39.7472,76.4677,34.1981,76.3936,28.6491,76.8,23.1,76.8931,23.1385,76.7554,22.833,77.0698,22.7147,77.1018,22.4794,77.102,22.231,77.2393,22.0393,77.2123,21.974,77.4866,22.0362,77.6407,21.8083,77.921,21.8851,78.0456,21.5857,78.3,21.6" style="stroke:#181818;stroke-width:0.3;"/><text fill="#000000" font-family="FG Virgil" font-size="8.4" font-style="italic" lengthAdjust="spacing" textLength="57" x="91.2" y="34.8645">&#171;presentation&#187;</text><text fill="#000000" font-family="FG Virgil" font-size="8.4" lengthAdjust="spacing" textLength="77.4" x="81" y="46.0371">ConsultMyBookingUI</text><polygon fill="#E3E3E3" points="78.3,396.2883,78.3,396.4144,84.2143,396.0397,90.1286,396.4043,96.0429,396.5281,101.9571,395.8602,107.8714,396.2417,113.7857,396.0324,119.7,396.0582,125.6143,396.2474,131.5286,395.8735,137.4429,396.6205,143.3571,395.9101,149.2714,396.1696,155.1857,396.5474,161.1,396.2883,161.0934,396.2724,161.3174,396.3888,161.5218,396.4581,161.7501,396.5849,161.9668,396.6839,162.1607,396.7276,162.2689,396.7724,162.3725,396.9911,162.4619,397.2039,162.4713,397.3835,162.5978,397.6116,162.6,397.7883,163.0213,397.7883,162.1673,403.3373,163.0071,408.8864,162.4221,414.4355,162.9203,419.9845,162.6,425.5336,162.5085,425.4957,162.4995,425.7405,162.5613,426.0146,162.3274,426.1663,162.268,426.3902,162.1607,426.5943,162.1866,426.6568,161.9804,426.759,161.7361,426.7693,161.5462,426.9109,161.2683,426.84,161.1,427.0336,161.1,427.2042,155.1857,427.3625,149.2714,427.3003,143.3571,427.4014,137.4429,426.7437,131.5286,426.6423,125.6143,426.6608,119.7,426.9983,113.7857,426.9157,107.8714,427.4424,101.9571,426.9288,96.0429,426.8278,90.1286,427.1706,84.2143,426.6335,78.3,427.0336,78.2603,426.9377,78.1375,427.0656,77.9091,426.9384,77.7198,426.9057,77.4268,426.6227,77.2393,426.5943,77.2983,426.6187,77.2606,426.4273,76.9763,426.1338,76.958,425.9505,76.9111,425.7554,76.8,425.5336,77.1911,425.5336,76.7975,419.9845,77.0775,414.4355,76.4677,408.8864,76.3936,403.3373,76.8,397.7883,76.8931,397.8268,76.7554,397.5213,77.0698,397.403,77.1018,397.1677,77.102,396.9192,77.2393,396.7276,77.2123,396.6623,77.4866,396.7245,77.6407,396.4966,77.921,396.5734,78.0456,396.274,78.3,396.2883" style="stroke:#181818;stroke-width:0.3;"/><text fill="#000000" font-family="FG Virgil" font-size="8.4" font-style="italic" lengthAdjust="spacing" textLength="57" x="91.2" y="409.5527">&#171;presentation&#187;</text><text fill="#000000" font-family="FG Virgil" font-size="8.4" lengthAdjust="spacing" textLength="77.4" x="81" y="420.7254">ConsultMyBookingUI</text><polygon fill="#E3E3E3" points="180.3,21.6,180.3,21.7261,186.2368,21.3514,192.1737,21.716,198.1105,21.8398,204.0474,21.172,209.9842,21.5534,215.9211,21.3441,221.8579,21.3699,227.7947,21.5591,233.7316,21.1852,239.6684,21.9322,245.6053,21.2218,251.5421,21.4813,257.4789,21.8592,263.4158,21.5485,269.3526,21.6409,275.2895,21.5808,281.2263,21.7071,287.1632,21.7435,293.1,21.6,293.1448,21.7082,293.3635,21.8119,293.5763,21.9012,293.7559,21.9107,293.984,22.0371,294.1607,22.0393,294.2904,22.0931,294.1153,22.1963,294.4618,22.5155,294.3695,22.653,294.6108,22.9287,294.6,23.1,294.303,23.1,294.5589,28.6491,295.045,34.1981,294.5708,39.7472,294.6632,45.2963,294.6,50.8453,294.6626,50.8712,294.589,51.0893,294.4235,51.2693,294.3895,51.5037,294.1428,51.65,294.1607,51.906,294.1824,51.9585,293.9905,52.0951,293.7704,52.1638,293.5712,52.2828,293.2752,52.1682,293.1,52.3453,293.1,51.954,287.1632,51.9725,281.2263,52.31,275.2895,52.2274,269.3526,52.7542,263.4158,52.2405,257.4789,52.1395,251.5421,52.4823,245.6053,51.9452,239.6684,52.0338,233.7316,52.7347,227.7947,52.6067,221.8579,52.786,215.9211,52.1522,209.9842,52.5368,204.0474,52.6996,198.1105,52.0619,192.1737,52.2878,186.2368,52.4209,180.3,52.3453,180.3499,52.4657,180.0875,52.2567,179.9111,52.255,179.6212,51.9794,179.3996,51.8687,179.2393,51.906,179.3324,51.9445,179.019,51.639,179.1576,51.5207,179.0139,51.2854,178.8384,51.0369,178.8,50.8453,178.5877,50.8453,179.0753,45.2963,178.6204,39.7472,179.1551,34.1981,178.4684,28.6491,178.8,23.1,178.9141,23.1473,178.9774,22.9249,179.021,22.6945,179.0723,22.4672,179.2857,22.3071,179.2393,22.0393,179.2863,22.1527,179.4644,21.9827,179.6841,21.9132,179.8658,21.7517,180.1427,21.8203,180.3,21.6" style="stroke:#181818;stroke-width:0.3;"/><text fill="#000000" font-family="FG Virgil" font-size="8.4" font-style="italic" lengthAdjust="spacing" textLength="50.4" x="211.5" y="34.8645">&#171;application&#187;</text><text fill="#000000" font-family="FG Virgil" font-size="8.4" lengthAdjust="spacing" textLength="107.4" x="183" y="46.0371">ConsultMyBookingController</text><polygon fill="#E3E3E3" points="180.3,396.2883,180.3,396.4144,186.2368,396.0397,192.1737,396.4043,198.1105,396.5281,204.0474,395.8602,209.9842,396.2417,215.9211,396.0324,221.8579,396.0582,227.7947,396.2474,233.7316,395.8735,239.6684,396.6205,245.6053,395.9101,251.5421,396.1696,257.4789,396.5474,263.4158,396.2368,269.3526,396.3292,275.2895,396.2691,281.2263,396.3954,287.1632,396.4318,293.1,396.2883,293.1448,396.3965,293.3635,396.5001,293.5763,396.5895,293.7559,396.5989,293.984,396.7254,294.1607,396.7276,294.2904,396.7814,294.1153,396.8846,294.4618,397.2038,294.3695,397.3413,294.6108,397.617,294.6,397.7883,294.303,397.7883,294.5589,403.3373,295.045,408.8864,294.5708,414.4355,294.6632,419.9845,294.6,425.5336,294.6626,425.5595,294.589,425.7776,294.4235,425.9576,294.3895,426.192,294.1428,426.3383,294.1607,426.5943,294.1824,426.6468,293.9905,426.7834,293.7704,426.8521,293.5712,426.9711,293.2752,426.8565,293.1,427.0336,293.1,426.6423,287.1632,426.6608,281.2263,426.9983,275.2895,426.9157,269.3526,427.4424,263.4158,426.9288,257.4789,426.8278,251.5421,427.1706,245.6053,426.6335,239.6684,426.7221,233.7316,427.423,227.7947,427.295,221.8579,427.4743,215.9211,426.8405,209.9842,427.2251,204.0474,427.3878,198.1105,426.7502,192.1737,426.9761,186.2368,427.1092,180.3,427.0336,180.3499,427.154,180.0875,426.945,179.9111,426.9433,179.6212,426.6677,179.3996,426.557,179.2393,426.5943,179.3324,426.6328,179.019,426.3272,179.1576,426.2089,179.0139,425.9737,178.8384,425.7252,178.8,425.5336,178.5877,425.5336,179.0753,419.9845,178.6204,414.4355,179.1551,408.8864,178.4684,403.3373,178.8,397.7883,178.9141,397.8355,178.9774,397.6132,179.021,397.3828,179.0723,397.1555,179.2857,396.9954,179.2393,396.7276,179.2863,396.841,179.4644,396.671,179.6841,396.6014,179.8658,396.4399,180.1427,396.5085,180.3,396.2883" style="stroke:#181818;stroke-width:0.3;"/><text fill="#000000" font-family="FG Virgil" font-size="8.4" font-style="italic" lengthAdjust="spacing" textLength="50.4" x="211.5" y="409.5527">&#171;application&#187;</text><text fill="#000000" font-family="FG Virgil" font-size="8.4" lengthAdjust="spacing" textLength="107.4" x="183" y="420.7254">ConsultMyBookingController</text><polygon fill="#E3E3E3" points="302.1,21.6,302.1,21.7261,308.0143,21.3514,313.9286,21.716,319.8429,21.8398,325.7571,21.172,331.6714,21.5534,337.5857,21.3441,343.5,21.3699,349.4143,21.5591,355.3286,21.1852,361.2429,21.9322,367.1571,21.2218,373.0714,21.4813,378.9857,21.8592,384.9,21.6,384.8934,21.5842,385.1174,21.7005,385.3218,21.7698,385.5501,21.8966,385.7668,21.9957,385.9607,22.0393,386.0689,22.0842,386.1725,22.3028,386.2619,22.5156,386.2713,22.6952,386.3978,22.9233,386.4,23.1,386.8213,23.1,385.9673,28.6491,386.8071,34.1981,386.2221,39.7472,386.7203,45.2963,386.4,50.8453,386.3085,50.8074,386.2995,51.0522,386.3613,51.3263,386.1274,51.478,386.068,51.7019,385.9607,51.906,385.9866,51.9685,385.7804,52.0708,385.5361,52.081,385.3462,52.2226,385.0683,52.1517,384.9,52.3453,384.9,52.5159,378.9857,52.6742,373.0714,52.612,367.1571,52.7131,361.2429,52.0555,355.3286,51.954,349.4143,51.9725,343.5,52.31,337.5857,52.2274,331.6714,52.7542,325.7571,52.2405,319.8429,52.1395,313.9286,52.4823,308.0143,51.9452,302.1,52.3453,302.0603,52.2494,301.9375,52.3774,301.7091,52.2501,301.5198,52.2174,301.2268,51.9344,301.0393,51.906,301.0983,51.9304,301.0606,51.739,300.7763,51.4456,300.758,51.2622,300.7111,51.0671,300.6,50.8453,300.9911,50.8453,300.5975,45.2963,300.8775,39.7472,300.2677,34.1981,300.1936,28.6491,300.6,23.1,300.6931,23.1385,300.5554,22.833,300.8698,22.7147,300.9018,22.4794,300.902,22.231,301.0393,22.0393,301.0123,21.974,301.2866,22.0362,301.4407,21.8083,301.721,21.8851,301.8456,21.5857,302.1,21.6" style="stroke:#181818;stroke-width:0.3;"/><text fill="#000000" font-family="FG Virgil" font-size="8.4" font-style="italic" lengthAdjust="spacing" textLength="50.4" x="318.3" y="34.8645">&#171;application&#187;</text><text fill="#000000" font-family="FG Virgil" font-size="8.4" lengthAdjust="spacing" textLength="77.4" x="304.8" y="46.0371">AuthorizationService</text><polygon fill="#E3E3E3" points="302.1,396.2883,302.1,396.4144,308.0143,396.0397,313.9286,396.4043,319.8429,396.5281,325.7571,395.8602,331.6714,396.2417,337.5857,396.0324,343.5,396.0582,349.4143,396.2474,355.3286,395.8735,361.2429,396.6205,367.1571,395.9101,373.0714,396.1696,378.9857,396.5474,384.9,396.2883,384.8934,396.2724,385.1174,396.3888,385.3218,396.4581,385.5501,396.5849,385.7668,396.6839,385.9607,396.7276,386.0689,396.7724,386.1725,396.9911,386.2619,397.2039,386.2713,397.3835,386.3978,397.6116,386.4,397.7883,386.8213,397.7883,385.9673,403.3373,386.8071,408.8864,386.2221,414.4355,386.7203,419.9845,386.4,425.5336,386.3085,425.4957,386.2995,425.7405,386.3613,426.0146,386.1274,426.1663,386.068,426.3902,385.9607,426.5943,385.9866,426.6568,385.7804,426.759,385.5361,426.7693,385.3462,426.9109,385.0683,426.84,384.9,427.0336,384.9,427.2042,378.9857,427.3625,373.0714,427.3003,367.1571,427.4014,361.2429,426.7437,355.3286,426.6423,349.4143,426.6608,343.5,426.9983,337.5857,426.9157,331.6714,427.4424,325.7571,426.9288,319.8429,426.8278,313.9286,427.1706,308.0143,426.6335,302.1,427.0336,302.0603,426.9377,301.9375,427.0656,301.7091,426.9384,301.5198,426.9057,301.2268,426.6227,301.0393,426.5943,301.0983,426.6187,301.0606,426.4273,300.7763,426.1338,300.758,425.9505,300.7111,425.7554,300.6,425.5336,300.9911,425.5336,300.5975,419.9845,300.8775,414.4355,300.2677,408.8864,300.1936,403.3373,300.6,397.7883,300.6931,397.8268,300.5554,397.5213,300.8698,397.403,300.9018,397.1677,300.902,396.9192,301.0393,396.7276,301.0123,396.6623,301.2866,396.7245,301.4407,396.4966,301.721,396.5734,301.8456,396.274,302.1,396.2883" style="stroke:#181818;stroke-width:0.3;"/><text fill="#000000" font-family="FG Virgil" font-size="8.4" font-style="italic" lengthAdjust="spacing" textLength="50.4" x="318.3" y="409.5527">&#171;application&#187;</text><text fill="#000000" font-family="FG Virgil" font-size="8.4" lengthAdjust="spacing" textLength="77.4" x="304.8" y="420.7254">AuthorizationService</text><polygon fill="#E3E3E3" points="393.9,21.6,393.9,21.7261,399.8538,21.3514,405.8077,21.716,411.7615,21.8398,417.7154,21.172,423.6692,21.5534,429.6231,21.3441,435.5769,21.3699,441.5308,21.5591,447.4846,21.1852,453.4385,21.9322,459.3923,21.2218,465.3462,21.4813,471.3,21.6,471.3331,21.6798,471.5056,21.672,471.7295,21.7883,471.934,21.8577,472.1622,21.9845,472.3607,22.0393,472.4048,22.0576,472.5567,22.2963,472.6604,22.515,472.7498,22.7277,472.7592,22.9074,472.8,23.1,473.0782,23.1,473.2213,28.6491,472.3673,34.1981,473.2071,39.7472,472.6221,45.2963,472.8,50.8453,472.8986,50.8862,472.6207,51.0196,472.6116,51.2643,472.6734,51.5385,472.4395,51.6901,472.3607,51.906,472.3687,51.9254,472.1744,52.0564,471.9683,52.1586,471.724,52.1689,471.5341,52.3105,471.3,52.3453,471.3,52.0019,465.3462,52.5159,459.3923,52.6742,453.4385,52.612,447.4846,52.7131,441.5308,52.0555,435.5769,51.954,429.6231,51.9725,423.6692,52.31,417.7154,52.2274,411.7615,52.7542,405.8077,52.2405,399.8538,52.1395,393.9,52.3453,393.9175,52.3875,393.6368,52.1342,393.436,52.0737,393.3133,52.2016,393.0848,52.0743,392.8393,51.906,392.9751,51.9622,392.692,51.6692,392.7226,51.5061,392.6848,51.3148,392.4006,51.0213,392.4,50.8453,392.3425,50.8453,392.4756,45.2963,392.7911,39.7472,392.3975,34.1981,392.6775,28.6491,392.4,23.1,392.2977,23.0576,392.3627,22.836,392.6688,22.7143,392.5311,22.4087,392.8455,22.2904,392.8393,22.0393,392.8552,22.0775,393.031,21.902,393.2365,21.7982,393.5108,21.8605,393.665,21.6326,393.9,21.6" style="stroke:#181818;stroke-width:0.3;"/><text fill="#000000" font-family="FG Virgil" font-size="8.4" font-style="italic" lengthAdjust="spacing" textLength="50.4" x="407.4" y="34.8645">&#171;application&#187;</text><text fill="#000000" font-family="FG Virgil" font-size="8.4" lengthAdjust="spacing" textLength="72" x="396.6" y="46.0371">ListBookingService</text><polygon fill="#E3E3E3" points="393.9,396.2883,393.9,396.4144,399.8538,396.0397,405.8077,396.4043,411.7615,396.5281,417.7154,395.8602,423.6692,396.2417,429.6231,396.0324,435.5769,396.0582,441.5308,396.2474,447.4846,395.8735,453.4385,396.6205,459.3923,395.9101,465.3462,396.1696,471.3,396.2883,471.3331,396.3681,471.5056,396.3603,471.7295,396.4766,471.934,396.546,472.1622,396.6727,472.3607,396.7276,472.4048,396.7459,472.5567,396.9846,472.6604,397.2032,472.7498,397.416,472.7592,397.5956,472.8,397.7883,473.0782,397.7883,473.2213,403.3373,472.3673,408.8864,473.2071,414.4355,472.6221,419.9845,472.8,425.5336,472.8986,425.5744,472.6207,425.7078,472.6116,425.9526,472.6734,426.2267,472.4395,426.3784,472.3607,426.5943,472.3687,426.6137,472.1744,426.7447,471.9683,426.8469,471.724,426.8571,471.5341,426.9988,471.3,427.0336,471.3,426.6901,465.3462,427.2042,459.3923,427.3625,453.4385,427.3003,447.4846,427.4014,441.5308,426.7437,435.5769,426.6423,429.6231,426.6608,423.6692,426.9983,417.7154,426.9157,411.7615,427.4424,405.8077,426.9288,399.8538,426.8278,393.9,427.0336,393.9175,427.0758,393.6368,426.8225,393.436,426.7619,393.3133,426.8899,393.0848,426.7626,392.8393,426.5943,392.9751,426.6505,392.692,426.3575,392.7226,426.1944,392.6848,426.003,392.4006,425.7096,392.4,425.5336,392.3425,425.5336,392.4756,419.9845,392.7911,414.4355,392.3975,408.8864,392.6775,403.3373,392.4,397.7883,392.2977,397.7459,392.3627,397.5243,392.6688,397.4026,392.5311,397.097,392.8455,396.9787,392.8393,396.7276,392.8552,396.7658,393.031,396.5902,393.2365,396.4865,393.5108,396.5488,393.665,396.3208,393.9,396.2883" style="stroke:#181818;stroke-width:0.3;"/><text fill="#000000" font-family="FG Virgil" font-size="8.4" font-style="italic" lengthAdjust="spacing" textLength="50.4" x="407.4" y="409.5527">&#171;application&#187;</text><text fill="#000000" font-family="FG Virgil" font-size="8.4" lengthAdjust="spacing" textLength="72" x="396.6" y="420.7254">ListBookingService</text><text fill="#000000" font-family="FG Virgil" font-size="8.4" font-style="italic" lengthAdjust="spacing" textLength="47.4" x="524.7" y="39.6645">&#171;repository&#187;</text><text fill="#000000" font-family="FG Virgil" font-size="8.4" lengthAdjust="spacing" textLength="71.4" x="512.7" y="50.8371">BookingRepository</text><path d="M539.4,9 L539.4,9 L539.4391,9.0402 L540.403,7.8708 L541.5959,6.937 L542.7143,5.9264 L543.5874,4.6636 L544.8,3.75 L544.7971,3.7295 L545.8644,3.4873 L546.9459,3.3487 L548.0375,3.282 L549.0946,2.9674 L550.2,3 L550.2,3 L550.2203,3.1462 L551.2569,2.9835 L552.3527,3.2478 L553.4558,3.5641 L554.5169,3.5773 L555.6,3.75 L555.6127,3.763 L556.6741,4.7939 L557.7932,5.8841 L558.8845,6.9457 L560.0289,8.062 L561,9 L561.3579,9 L561.3623,12.12 L561.1358,15.24 L561.2472,18.36 L561.3745,21.48 L561,24.6 L561,24.6 L560.8659,24.4621 L560.0461,25.7797 L558.7849,26.6433 L557.8592,27.8521 L556.588,28.7054 L555.6,29.85 L555.5975,29.8319 L554.5472,30.1959 L553.4382,30.1371 L552.3639,30.3278 L551.2924,30.5394 L550.2,30.6 L550.2,30.6 L550.2153,30.7099 L549.1199,30.449 L548.0505,30.3759 L546.939,29.9988 L545.8904,30.0751 L544.8,29.85 L544.9019,29.9548 L543.8026,28.885 L542.754,27.8672 L541.4702,26.6076 L540.3588,25.5253 L539.4,24.6 L539.0686,24.6 L539.3686,21.48 L539.2952,18.36 L539.7634,15.24 L539.3068,12.12 L539.4,9 " fill="#E3E3E3" style="stroke:#181818;stroke-width:0.8999999999999999;"/><path d="M539.4,9 L539.4,9 L539.4391,9.0402 L540.403,9.9708 L541.5959,11.137 L542.7143,12.2264 L543.5874,13.0636 L544.8,14.25 L544.7971,14.2295 L545.8644,14.2873 L546.9459,14.4487 L548.0375,14.682 L549.0946,14.6674 L550.2,15 L550.2,15 L550.2203,15.1462 L551.2569,14.6835 L552.3527,14.6478 L553.4558,14.6641 L554.5169,14.3773 L555.6,14.25 L555.6127,14.263 L556.6741,13.1939 L557.7932,12.1841 L558.8845,11.1457 L560.0289,10.162 L561,9 " fill="none" style="stroke:#181818;stroke-width:0.8999999999999999;"/><text fill="#000000" font-family="FG Virgil" font-size="8.4" font-style="italic" lengthAdjust="spacing" textLength="47.4" x="524.7" y="405.3527">&#171;repository&#187;</text><text fill="#000000" font-family="FG Virgil" font-size="8.4" lengthAdjust="spacing" textLength="71.4" x="512.7" y="416.5254">BookingRepository</text><path d="M539.4,424.6336 L539.4,424.6336 L539.4391,424.6738 L540.403,423.5044 L541.5959,422.5705 L542.7143,421.56 L543.5874,420.2972 L544.8,419.3836 L544.7971,419.3631 L545.8644,419.1209 L546.9459,418.9823 L548.0375,418.9156 L549.0946,418.601 L550.2,418.6336 L550.2,418.6336 L550.2203,418.7798 L551.2569,418.6171 L552.3527,418.8814 L553.4558,419.1977 L554.5169,419.2109 L555.6,419.3836 L555.6127,419.3966 L556.6741,420.4275 L557.7932,421.5177 L558.8845,422.5793 L560.0289,423.6956 L561,424.6336 L561.3579,424.6336 L561.3623,427.7536 L561.1358,430.8736 L561.2472,433.9936 L561.3745,437.1136 L561,440.2336 L561,440.2336 L560.8659,440.0957 L560.0461,441.4133 L558.7849,442.2769 L557.8592,443.4857 L556.588,444.3389 L555.6,445.4836 L555.5975,445.4655 L554.5472,445.8295 L553.4382,445.7707 L552.3639,445.9614 L551.2924,446.173 L550.2,446.2336 L550.2,446.2336 L550.2153,446.3435 L549.1199,446.0826 L548.0505,446.0095 L546.939,445.6324 L545.8904,445.7087 L544.8,445.4836 L544.9019,445.5884 L543.8026,444.5186 L542.754,443.5008 L541.4702,442.2412 L540.3588,441.1589 L539.4,440.2336 L539.0686,440.2336 L539.3686,437.1136 L539.2952,433.9936 L539.7634,430.8736 L539.3068,427.7536 L539.4,424.6336 " fill="#E3E3E3" style="stroke:#181818;stroke-width:0.8999999999999999;"/><path d="M539.4,424.6336 L539.4,424.6336 L539.4391,424.6738 L540.403,425.6044 L541.5959,426.7705 L542.7143,427.86 L543.5874,428.6972 L544.8,429.8836 L544.7971,429.8631 L545.8644,429.9209 L546.9459,430.0823 L548.0375,430.3156 L549.0946,430.301 L550.2,430.6336 L550.2,430.6336 L550.2203,430.7798 L551.2569,430.3171 L552.3527,430.2814 L553.4558,430.2977 L554.5169,430.0109 L555.6,429.8836 L555.6127,429.8966 L556.6741,428.8275 L557.7932,427.8177 L558.8845,426.7793 L560.0289,425.7956 L561,424.6336 " fill="none" style="stroke:#181818;stroke-width:0.8999999999999999;"/><polygon fill="#FFFFFF" points="116.7,72.9199,116.7,72.962,117.9,72.8371,119.1,72.9586,120.3,72.9999,121.5,72.7772,122.7,72.9199,122.6534,72.9199,122.4441,78.9424,122.4699,84.9649,122.6591,90.9873,122.2852,97.0098,123.0322,103.0323,122.3218,109.0547,122.5813,115.0772,122.9592,121.0997,122.6485,127.1221,122.7409,133.1446,122.6808,139.1671,122.8071,145.1895,122.8435,151.212,123.0514,157.2345,123.1026,163.2569,123.1076,169.2794,122.8528,175.3019,122.9782,181.3244,123.1213,187.3468,122.2673,193.3693,123.1071,199.3918,122.5221,205.4142,123.0203,211.4367,122.403,217.4592,122.6589,223.4816,123.145,229.5041,122.6708,235.5266,122.7632,241.549,122.9032,247.5715,122.9497,253.594,122.6977,259.6164,122.8723,265.6389,122.3565,271.6614,122.8706,277.6838,123.0289,283.7063,122.9667,289.7288,123.0678,295.7513,122.4102,301.7737,122.3087,307.7962,122.3272,313.8187,122.6647,319.8411,122.5821,325.8636,123.1088,331.8861,122.5952,337.9085,122.4942,343.931,122.837,349.9535,122.2999,355.9759,122.3885,361.9984,123.0894,368.0209,122.9614,374.0433,123.1407,380.0658,122.7,386.0883,122.7,386.0239,121.5,386.1521,120.3,386.2064,119.1,385.9938,117.9,386.0691,116.7,386.0883,116.7756,386.0883,117.0911,380.0658,116.6975,374.0433,116.9775,368.0209,116.3677,361.9984,116.2936,355.9759,117.0022,349.9535,116.2698,343.931,117.0054,337.9085,116.824,331.8861,116.5392,325.8636,116.4877,319.8411,116.9753,313.8187,116.5204,307.7962,117.0551,301.7737,116.3684,295.7513,117.0705,289.7288,116.9906,283.7063,116.847,277.6838,116.7283,271.6614,117.136,265.6389,117.0681,259.6164,116.8016,253.594,116.8609,247.5715,116.6218,241.549,117.1299,235.5266,116.7929,229.5041,116.8035,223.4816,116.335,217.4592,116.4569,211.4367,117.0184,205.4142,116.9579,199.3918,116.6742,193.3693,116.5067,187.3468,116.5686,181.3244,116.2883,175.3019,116.9488,169.2794,117.1437,163.2569,117.0158,157.2345,117.117,151.212,116.618,145.1895,116.7523,139.1671,116.4674,133.1446,116.8704,127.1221,116.8481,121.0997,117.0314,115.0772,116.5622,109.0547,116.6194,103.0323,116.9661,97.0098,117.0404,90.9873,116.3925,84.9649,116.5837,78.9424,116.7,72.9199" style="stroke:#181818;stroke-width:0.6;"/><polygon fill="#FFFFFF" points="233.7,148.0184,233.7,148.0604,234.9,147.9355,236.1,148.057,237.3,148.0983,238.5,147.8757,239.7,148.0184,239.6534,148.0184,239.4441,153.9453,239.4699,159.8722,239.6591,165.7991,239.2852,171.726,240.0322,177.6529,239.3218,183.5798,239.5813,189.5067,239.9592,195.4336,239.6485,201.3605,239.7409,207.2874,239.6808,213.2143,239.8071,219.1412,239.8435,225.0681,240.0514,230.995,240.1026,236.9219,240.1076,242.8488,239.8528,248.7757,239.9782,254.7026,240.1213,260.6295,239.2673,266.5564,240.1071,272.4833,239.5221,278.4102,240.0203,284.3371,239.403,290.264,239.6589,296.1909,240.145,302.1178,239.6708,308.0447,239.7632,313.9716,239.9032,319.8985,239.9497,325.8254,239.6977,331.7523,239.8723,337.6792,239.3565,343.6061,239.8706,349.533,240.0289,355.4599,239.9667,361.3868,239.7,367.3137,239.7,367.4363,238.5,367.2171,237.3,367.1832,236.1,367.1894,234.9,367.3019,233.7,367.3137,233.5821,367.3137,234.1088,361.3868,233.5952,355.4599,233.4942,349.533,233.837,343.6061,233.2999,337.6792,233.3885,331.7523,234.0894,325.8254,233.9614,319.8985,234.1407,313.9716,233.5069,308.0447,233.8915,302.1178,234.0543,296.1909,233.4166,290.264,233.6425,284.3371,233.7756,278.4102,234.0911,272.4833,233.6975,266.5564,233.9775,260.6295,233.3677,254.7026,233.2936,248.7757,234.0022,242.8488,233.2698,236.9219,234.0054,230.995,233.824,225.0681,233.5392,219.1412,233.4877,213.2143,233.9753,207.2874,233.5204,201.3605,234.0551,195.4336,233.3684,189.5067,234.0705,183.5798,233.9906,177.6529,233.847,171.726,233.7283,165.7991,234.136,159.8722,234.0681,153.9453,233.7,148.0184" style="stroke:#181818;stroke-width:0.6;"/><polygon fill="#FFFFFF" points="340.5,199.5422,340.5,199.5842,341.7,199.4593,342.9,199.5808,344.1,199.6221,345.3,199.3995,346.5,199.5422,346.4534,199.5422,346.2441,205.4206,346.2699,211.2991,346.4591,217.1776,346.0852,223.056,346.8322,228.9345,346.1218,234.8129,346.5,240.6914,346.5,240.6519,345.3,240.7778,344.1,240.6743,342.9,240.7051,341.7,240.685,340.5,240.6914,340.6071,240.6914,340.6435,234.8129,340.8514,228.9345,340.9026,223.056,340.9076,217.1776,340.6528,211.2991,340.7782,205.4206,340.5,199.5422" style="stroke:#181818;stroke-width:0.6;"/><polygon fill="#FFFFFF" points="429.6,259.466,429.6,259.5081,430.8,259.3832,432,259.5047,433.2,259.546,434.4,259.3233,435.6,259.466,435.5534,259.466,435.3441,265.4042,435.3699,271.3424,435.5591,277.2806,435.1852,283.2188,435.9322,289.157,435.2218,295.0952,435.4813,301.0334,435.8592,306.9716,435.5485,312.9098,435.6409,318.848,435.5808,324.7863,435.7071,330.7245,435.7435,336.6627,435.9514,342.6009,435.6,348.5391,435.6,348.6733,434.4,348.6749,433.2,348.59,432,348.6318,430.8,348.6795,429.6,348.5391,429.1673,348.5391,430.0071,342.6009,429.4221,336.6627,429.9203,330.7245,429.303,324.7863,429.5589,318.848,430.045,312.9098,429.5708,306.9716,429.6632,301.0334,429.8032,295.0952,429.8497,289.157,429.5977,283.2188,429.7723,277.2806,429.2565,271.3424,429.7706,265.4042,429.6,259.466" style="stroke:#181818;stroke-width:0.6;"/><polygon fill="#FFFFFF" points="547.2,310.9898,547.2,311.0319,548.4,310.907,549.6,311.0285,550.8,311.0698,552,310.8472,553.2,310.9898,553.1845,310.9898,553.1147,314.7448,553.1233,318.4997,553.1864,322.2546,553.0617,326.0095,553.2,329.7645,553.2,329.8752,552,329.6384,550.8,329.7249,549.6,329.8508,548.4,329.7473,547.2,329.7645,547.2136,329.7645,547.1936,326.0095,547.2357,322.2546,547.2478,318.4997,547.3171,314.7448,547.2,310.9898" style="stroke:#181818;stroke-width:0.6;"/><polygon fill="#181818" points="109.5,70.5199,109.5156,70.559,110.6692,70.923,111.9144,71.5158,113.1297,72.0341,114.247,72.3074,115.5,72.9199,115.4942,72.9055,114.2683,73.3207,113.0715,73.8087,111.8949,74.3473,110.6486,74.7115,109.5,75.3199,109.5783,75.3982,109.8909,74.7508,110.432,74.332,111.0011,73.941,111.4079,73.3878,111.9,72.9199,111.9097,72.9296,111.4155,72.4354,110.9652,71.9852,110.4938,71.5137,110.0628,71.0828,109.5,70.5199" style="stroke:#181818;stroke-width:0.6;"/><path d="M30.9,72.9199 L30.9,73.0881 L36.7714,72.5885 L42.6429,73.0746 L48.5143,73.2397 L54.3857,72.3492 L60.2571,72.8578 L66.1286,72.5787 L72,72.6131 L77.8714,72.8654 L83.7429,72.3668 L89.6143,73.3628 L95.4857,72.4157 L101.3571,72.7617 L107.2286,73.2655 L113.1,72.9199 " fill="none" style="stroke:#181818;stroke-width:0.6;stroke-dasharray:2.0,2.0;"/><text fill="#000000" font-family="FG Virgil" font-size="7.8" lengthAdjust="spacing" textLength="74.4" x="35.1" y="69.7623">Consult My Bookings</text><polygon fill="#181818" points="229.5,89.2945,229.5156,89.3336,230.6692,89.6976,231.9144,90.2904,233.1297,90.8087,234.247,91.0821,235.5,91.6945,235.4942,91.6801,234.2683,92.0953,233.0715,92.5833,231.8949,93.1219,230.6486,93.4861,229.5,94.0945,229.5783,94.1728,229.8909,93.5254,230.432,93.1066,231.0011,92.7156,231.4079,92.1624,231.9,91.6945,231.9097,91.7042,231.4155,91.21,230.9652,90.7598,230.4938,90.2883,230.0628,89.8574,229.5,89.2945" style="stroke:#181818;stroke-width:0.6;"/><path d="M122.7,91.6945 L122.7,91.8627 L128.8333,91.3631 L134.9667,91.8492 L141.1,92.0143 L147.2333,91.1238 L153.3667,91.6324 L159.5,91.3533 L165.6333,91.3877 L171.7667,91.64 L177.9,91.1414 L184.0333,92.1374 L190.1667,91.1903 L196.3,91.5363 L202.4333,92.0401 L208.5667,91.6259 L214.7,91.7491 L220.8333,91.669 L226.9667,91.8374 L233.1,91.6945 " fill="none" style="stroke:#181818;stroke-width:0.6;"/><text fill="#000000" font-family="FG Virgil" font-size="7.8" lengthAdjust="spacing" textLength="21.6" x="126.9" y="88.5369">create</text><polygon fill="#181818" points="37.5,108.0691,37.5156,108.1082,36.2692,108.4722,35.1144,109.065,33.9297,109.5834,32.647,109.8567,31.5,110.4691,31.4942,110.4547,32.6683,110.8699,33.8715,111.3579,35.0949,111.8965,36.2486,112.2608,37.5,112.8691,37.5783,112.9474,36.9309,112.3,36.512,111.8812,36.1211,111.4902,35.5679,110.937,35.1,110.4691,35.1097,110.4788,35.5755,109.9846,36.0852,109.5344,36.5738,109.063,37.1028,108.632,37.5,108.0691" style="stroke:#181818;stroke-width:0.6;"/><path d="M33.9,110.4691 L33.9,110.6373 L39.7714,110.1377 L45.6429,110.6238 L51.5143,110.7889 L57.3857,109.8984 L63.2571,110.407 L69.1286,110.1279 L75,110.1623 L80.8714,110.4146 L86.7429,109.916 L92.6143,110.9121 L98.4857,109.9649 L104.3571,110.3109 L110.2286,110.8147 L116.1,110.4691 " fill="none" style="stroke:#181818;stroke-width:0.6;stroke-dasharray:2.0,2.0;"/><text fill="#000000" font-family="FG Virgil" font-size="7.8" lengthAdjust="spacing" textLength="30" x="41.1" y="107.3115">Ask Day</text><polygon fill="#181818" points="109.5,126.8438,109.5156,126.8828,110.6692,127.2468,111.9144,127.8396,113.1297,128.358,114.247,128.6313,115.5,129.2438,115.4942,129.2293,114.2683,129.6446,113.0715,130.1325,111.8949,130.6711,110.6486,131.0354,109.5,131.6437,109.5783,131.722,109.8909,131.0746,110.432,130.6558,111.0011,130.2648,111.4079,129.7116,111.9,129.2438,111.9097,129.2534,111.4155,128.7592,110.9652,128.309,110.4938,127.8376,110.0628,127.4066,109.5,126.8438" style="stroke:#181818;stroke-width:0.6;"/><path d="M30.9,129.2438 L30.9,129.4119 L36.7714,128.9123 L42.6429,129.3984 L48.5143,129.5635 L54.3857,128.673 L60.2571,129.1816 L66.1286,128.9026 L72,128.937 L77.8714,129.1892 L83.7429,128.6907 L89.6143,129.6867 L95.4857,128.7395 L101.3571,129.0855 L107.2286,129.5893 L113.1,129.2438 " fill="none" style="stroke:#181818;stroke-width:0.6;stroke-dasharray:2.0,2.0;"/><text fill="#000000" font-family="FG Virgil" font-size="7.8" lengthAdjust="spacing" textLength="13.8" x="35.1" y="126.0861">Day</text><polygon fill="#181818" points="226.5,145.6184,226.5156,145.6574,227.6692,146.0214,228.9144,146.6143,230.1297,147.1326,231.247,147.4059,232.5,148.0184,232.4942,148.0039,231.2683,148.4192,230.0715,148.9071,228.8949,149.4457,227.6486,149.81,226.5,150.4184,226.5783,150.4967,226.8909,149.8492,227.432,149.4304,228.0011,149.0394,228.4079,148.4862,228.9,148.0184,228.9097,148.028,228.4155,147.5338,227.9652,147.0836,227.4938,146.6122,227.0628,146.1812,226.5,145.6184" style="stroke:#181818;stroke-width:0.6;"/><path d="M122.7,148.0184 L122.7,148.1865 L128.6667,147.6869 L134.6333,148.173 L140.6,148.3381 L146.5667,147.4476 L152.5333,147.9562 L158.5,147.6772 L164.4667,147.7116 L170.4333,147.9638 L176.4,147.4653 L182.3667,148.4613 L188.3333,147.5141 L194.3,147.8601 L200.2667,148.3639 L206.2333,147.9497 L212.2,148.073 L218.1667,147.9928 L224.1333,148.1612 L230.1,148.0184 " fill="none" style="stroke:#181818;stroke-width:0.6;"/><text fill="#000000" font-family="FG Virgil" font-size="7.8" lengthAdjust="spacing" textLength="99.6" x="126.9" y="144.8607">bookingsByUserForDay(day)</text><path d="M242.4,155.8184 L242.5121,155.8184 L242.179,161.0984 L242.5031,166.3784 L242.6132,171.6584 L242.0195,176.9384 L242.4,182.2184 L242.4,182.094 L248.4261,181.536 L254.4522,181.6048 L260.4783,182.1093 L266.5043,181.1122 L272.5304,183.1042 L278.5565,181.2099 L284.5826,181.9019 L290.6087,182.9095 L296.6348,182.0811 L302.6609,182.3275 L308.687,182.1672 L314.713,182.504 L320.7391,182.601 L326.7652,183.1555 L332.7913,183.292 L338.8174,183.3052 L344.8435,182.6258 L350.8696,182.9601 L356.8957,183.3419 L362.9217,181.0645 L368.9478,183.304 L374.9739,181.744 L381,182.2184 L381.2847,182.2184 L380.736,178.1384 L380.9635,174.0584 L381.3955,169.9784 L380.974,165.8984 L381,161.8184 L381.0397,161.8581 L379.9277,160.7461 L378.757,159.5753 L377.3985,158.2169 L376.3083,157.1267 L375,155.8184 L375,154.9025 L368.9727,156.2734 L362.9455,156.6955 L356.9182,156.5296 L350.8909,156.7992 L344.8636,155.0454 L338.8364,154.7749 L332.8091,154.8241 L326.7818,155.7242 L320.7545,155.5039 L314.7273,156.9086 L308.7,155.5389 L302.6727,155.2695 L296.6455,156.1836 L290.6182,154.7514 L284.5909,154.9878 L278.5636,156.8567 L272.5364,156.5154 L266.5091,156.9935 L260.4818,155.3035 L254.4545,156.3291 L248.4273,156.763 L242.4,155.8184 " fill="#FAFAFA" style="stroke:#181818;stroke-width:0.3;"/><path d="M375,155.8184 L374.7481,155.8184 L374.9489,157.0184 L375.0672,158.2184 L375.3476,159.4184 L374.9978,160.6184 L375,161.8184 L375,162.0651 L376.2,161.523 L377.4,161.4572 L378.6,162.087 L379.8,161.436 L381,161.8184 L381.1919,162.0103 L379.8779,160.6963 L378.499,159.3173 L377.2666,158.0849 L376.373,157.1914 L375,155.8184 " fill="#FAFAFA" style="stroke:#181818;stroke-width:0.3;"/><text fill="#000000" font-family="FG Virgil" font-size="7.8" lengthAdjust="spacing" textLength="123.6" x="246" y="167.2354">hidden authorization user guarantee</text><text fill="#000000" font-family="FG Virgil" font-size="7.8" lengthAdjust="spacing" textLength="76.2" x="246" y="177.61">(see specific diagram)</text><polygon fill="#181818" points="333.3,197.1422,333.3156,197.1812,334.4692,197.5453,335.7144,198.1381,336.9297,198.6564,338.047,198.9297,339.3,199.5422,339.2942,199.5278,338.0683,199.943,336.8715,200.431,335.6949,200.9695,334.4486,201.3338,333.3,201.9422,333.3783,202.0205,333.6909,201.3731,334.232,200.9542,334.8011,200.5633,335.2079,200.0101,335.7,199.5422,335.7097,199.5518,335.2155,199.0577,334.7652,198.6074,334.2938,198.136,333.8628,197.705,333.3,197.1422" style="stroke:#181818;stroke-width:0.6;"/><path d="M239.7,199.5422 L239.7,199.7103 L245.775,199.2107 L251.85,199.6968 L257.925,199.8619 L264,198.9715 L270.075,199.48 L276.15,199.201 L282.225,199.2354 L288.3,199.4877 L294.375,198.9891 L300.45,199.9851 L306.525,199.038 L312.6,199.384 L318.675,199.8877 L324.75,199.4736 L330.825,199.5968 L336.9,199.5422 " fill="none" style="stroke:#181818;stroke-width:0.6;"/><text fill="#000000" font-family="FG Virgil" font-size="7.8" lengthAdjust="spacing" textLength="45" x="243.9" y="196.3846">currentUser()</text><path d="M349.2,207.3422 L349.3121,207.3422 L348.979,210.5822 L349.3031,213.8222 L349.4132,217.0622 L348.8195,220.3022 L349.2,223.5422 L349.2,223.4178 L355.1,222.8598 L361,222.9286 L366.9,223.4331 L372.8,222.436 L378.7,224.428 L384.6,222.5337 L390.5,223.2258 L396.4,224.2333 L402.3,223.4049 L408.2,223.6514 L414.1,223.4911 L420,223.8278 L425.9,223.9248 L431.8,224.4793 L437.7,224.6159 L443.6,224.629 L449.5,223.9496 L455.4,223.5422 L455.6472,223.5422 L455.7745,221.5022 L455.0154,219.4622 L455.7619,217.4222 L455.2419,215.3822 L455.4,213.3422 L455.6013,213.5435 L454.0133,211.9555 L452.9742,210.9164 L452.0797,210.0219 L450.5816,208.5238 L449.4,207.3422 L449.4,207.5107 L443.5059,207.884 L437.6118,208.0082 L431.7176,207.3359 L425.8235,207.8017 L419.9294,206.4263 L414.0353,207.7972 L408.1412,208.2193 L402.2471,208.0534 L396.3529,208.323 L390.4588,206.5693 L384.5647,206.2987 L378.6706,206.3479 L372.7765,207.248 L366.8824,207.0277 L360.9882,208.4324 L355.0941,207.0627 L349.2,207.3422 " fill="#FAFAFA" style="stroke:#181818;stroke-width:0.3;"/><path d="M449.4,207.3422 L449.217,207.3422 L449.5217,208.5422 L449.0444,209.7422 L449.1231,210.9422 L449.7461,212.1422 L449.4,213.3422 L449.4,213.5745 L450.6,213.7339 L451.8,213.1706 L453,213.5124 L454.2,213.6571 L455.4,213.3422 L455.2218,213.164 L454.1638,212.106 L453.0475,210.9897 L452.0458,209.988 L450.5984,208.5406 L449.4,207.3422 " fill="#FAFAFA" style="stroke:#181818;stroke-width:0.3;"/><text fill="#000000" font-family="FG Virgil" font-size="7.8" lengthAdjust="spacing" textLength="93.6" x="352.8" y="218.7592">Framework implementation</text><polygon fill="#181818" points="246.3,238.2914,246.3156,238.3304,245.0692,238.6945,243.9144,239.2873,242.7297,239.8056,241.447,240.0789,240.3,240.6914,240.2942,240.677,241.4683,241.0922,242.6715,241.5802,243.8949,242.1187,245.0486,242.483,246.3,243.0914,246.3783,243.1697,245.7309,242.5223,245.312,242.1034,244.9211,241.7125,244.3679,241.1593,243.9,240.6914,243.9097,240.7011,244.3755,240.2069,244.8852,239.7567,245.3738,239.2852,245.9028,238.8542,246.3,238.2914" style="stroke:#181818;stroke-width:0.6;"/><path d="M242.7,240.6914 L242.7,240.8596 L248.5941,240.3599 L254.4882,240.846 L260.3824,241.0111 L266.2765,240.1207 L272.1706,240.6292 L278.0647,240.3502 L283.9588,240.3846 L289.8529,240.6369 L295.7471,240.1383 L301.6412,241.1343 L307.5353,240.1872 L313.4294,240.5332 L319.3235,241.037 L325.2176,240.6228 L331.1118,240.746 L337.0059,240.6658 L342.9,240.6914 " fill="none" style="stroke:#181818;stroke-width:0.6;stroke-dasharray:2.0,2.0;"/><text fill="#000000" font-family="FG Virgil" font-size="7.8" lengthAdjust="spacing" textLength="15" x="249.9" y="237.5338">user</text><polygon fill="#181818" points="422.4,257.066,422.4156,257.105,423.5692,257.4691,424.8144,258.0619,426.0297,258.5802,427.147,258.8535,428.4,259.466,428.3942,259.4516,427.1683,259.8668,425.9715,260.3548,424.7949,260.8934,423.5486,261.2576,422.4,261.866,422.4783,261.9443,422.7909,261.2969,423.332,260.878,423.9011,260.4871,424.3079,259.9339,424.8,259.466,424.8097,259.4757,424.3155,258.9815,423.8652,258.5313,423.3938,258.0598,422.9628,257.6288,422.4,257.066" style="stroke:#181818;stroke-width:0.6;"/><path d="M239.7,259.466 L239.7,259.6342 L245.7097,259.1346 L251.7194,259.6206 L257.729,259.7858 L263.7387,258.8953 L269.7484,259.4038 L275.7581,259.1248 L281.7677,259.1592 L287.7774,259.4115 L293.7871,258.9129 L299.7968,259.9089 L305.8065,258.9618 L311.8161,259.3078 L317.8258,259.8116 L323.8355,259.3974 L329.8452,259.5206 L335.8548,259.4405 L341.8645,259.6088 L347.8742,259.6573 L353.8839,259.9346 L359.8935,260.0029 L365.9032,260.0094 L371.9129,259.6697 L377.9226,259.8369 L383.9323,260.0278 L389.9419,258.8891 L395.9516,260.0088 L401.9613,259.2288 L407.971,259.8931 L413.9806,259.07 L419.9903,259.4112 L426,259.466 " fill="none" style="stroke:#181818;stroke-width:0.6;"/><text fill="#000000" font-family="FG Virgil" font-size="7.8" lengthAdjust="spacing" textLength="124.2" x="243.9" y="256.3084">allBookingByUserForDay(user, day)</text><path d="M438.6,267.266 L438.7121,267.266 L438.379,272.546 L438.7031,277.826 L438.8132,283.106 L438.2195,288.386 L438.6,293.666 L438.6,293.5417 L444.52,292.9836 L450.44,293.0524 L456.36,293.557 L462.28,292.5598 L468.2,294.5518 L474.12,292.6576 L480.04,293.3496 L485.96,294.3571 L491.88,293.5288 L497.8,293.7752 L503.72,293.6149 L509.64,293.9517 L515.56,294.0486 L521.48,294.6031 L527.4,293.666 L527.7579,293.666 L527.7623,289.586 L527.5358,285.506 L527.6472,281.426 L527.7745,277.346 L527.4,273.266 L527.128,272.994 L526.4559,272.3219 L524.8882,270.7542 L524.0013,269.8673 L522.4133,268.2793 L521.4,267.266 L521.4,267.1564 L515.4857,268.4526 L509.5714,267.188 L503.6571,267.4345 L497.7429,267.8078 L491.8286,267.932 L485.9143,267.2598 L480,267.7256 L474.0857,266.3501 L468.1714,267.721 L462.2571,268.1431 L456.3429,267.9773 L450.4286,268.2469 L444.5143,266.4931 L438.6,267.266 " fill="#FAFAFA" style="stroke:#181818;stroke-width:0.3;"/><path d="M521.4,267.266 L521.0522,267.266 L521.0686,268.466 L521.3686,269.666 L521.2952,270.866 L521.7634,272.066 L521.4,273.266 L521.4,273.1729 L522.6,273.0831 L523.8,273.3878 L525,272.9104 L526.2,272.9891 L527.4,273.266 L527.6447,273.5108 L526.3643,272.2303 L525.277,271.143 L523.6786,269.5447 L522.7204,268.5864 L521.4,267.266 " fill="#FAFAFA" style="stroke:#181818;stroke-width:0.3;"/><text fill="#000000" font-family="FG Virgil" font-size="7.8" lengthAdjust="spacing" textLength="76.2" x="442.2" y="278.683">Simplified persistence</text><text fill="#000000" font-family="FG Virgil" font-size="7.8" lengthAdjust="spacing" textLength="76.2" x="442.2" y="289.0576">(see specific diagram)</text><polygon fill="#181818" points="540,308.5898,540.0156,308.6289,541.1692,308.9929,542.4144,309.5857,543.6297,310.1041,544.747,310.3774,546,310.9898,545.9942,310.9754,544.7683,311.3906,543.5715,311.8786,542.3949,312.4172,541.1486,312.7815,540,313.3898,540.0783,313.4681,540.3909,312.8207,540.932,312.4019,541.5011,312.0109,541.9079,311.4577,542.4,310.9898,542.4097,310.9995,541.9155,310.5053,541.4652,310.0551,540.9938,309.5837,540.5628,309.1527,540,308.5898" style="stroke:#181818;stroke-width:0.6;"/><path d="M435.6,310.9898 L435.6,311.158 L441.6,310.6584 L447.6,311.1445 L453.6,311.3096 L459.6,310.4191 L465.6,310.9277 L471.6,310.6486 L477.6,310.683 L483.6,310.9353 L489.6,310.4367 L495.6,311.4328 L501.6,310.4856 L507.6,310.8316 L513.6,311.3354 L519.6,310.9212 L525.6,311.0444 L531.6,310.9643 L537.6,311.1327 L543.6,310.9898 " fill="none" style="stroke:#181818;stroke-width:0.6;"/><text fill="#000000" font-family="FG Virgil" font-size="7.8" lengthAdjust="spacing" textLength="100.2" x="439.8" y="307.8322">findByUserForDay(user, day)</text><polygon fill="#181818" points="442.2,327.3645,442.2156,327.4035,440.9692,327.7675,439.8144,328.3603,438.6297,328.8787,437.347,329.152,436.2,329.7645,436.1942,329.75,437.3683,330.1653,438.5715,330.6532,439.7949,331.1918,440.9486,331.5561,442.2,332.1645,442.2783,332.2427,441.6309,331.5953,441.212,331.1765,440.8211,330.7855,440.2679,330.2323,439.8,329.7645,439.8097,329.7741,440.2755,329.2799,440.7852,328.8297,441.2738,328.3583,441.8028,327.9273,442.2,327.3645" style="stroke:#181818;stroke-width:0.6;"/><path d="M438.6,329.7645 L438.6,329.9326 L444.4421,329.433 L450.2842,329.9191 L456.1263,330.0842 L461.9684,329.1937 L467.8105,329.7023 L473.6526,329.4233 L479.4947,329.4577 L485.3368,329.7099 L491.1789,329.2114 L497.0211,330.2074 L502.8632,329.2602 L508.7053,329.6062 L514.5474,330.11 L520.3895,329.6958 L526.2316,329.819 L532.0737,329.7389 L537.9158,329.9073 L543.7579,329.9558 L549.6,329.7645 " fill="none" style="stroke:#181818;stroke-width:0.6;stroke-dasharray:2.0,2.0;"/><text fill="#000000" font-family="FG Virgil" font-size="7.8" lengthAdjust="spacing" textLength="31.2" x="445.8" y="326.6068">bookings</text><polygon fill="#181818" points="246.3,346.1391,246.3156,346.1781,245.0692,346.5421,243.9144,347.135,242.7297,347.6533,241.447,347.9266,240.3,348.5391,240.2942,348.5246,241.4683,348.9399,242.6715,349.4278,243.8949,349.9664,245.0486,350.3307,246.3,350.9391,246.3783,351.0174,245.7309,350.3699,245.312,349.9511,244.9211,349.5601,244.3679,349.0069,243.9,348.5391,243.9097,348.5487,244.3755,348.0545,244.8852,347.6043,245.3738,347.1329,245.9028,346.7019,246.3,346.1391" style="stroke:#181818;stroke-width:0.6;"/><path d="M242.7,348.5391 L242.7,348.7072 L248.6156,348.2076 L254.5313,348.6937 L260.4469,348.8588 L266.3625,347.9683 L272.2781,348.4769 L278.1937,348.1979 L284.1094,348.2323 L290.025,348.4845 L295.9406,347.986 L301.8563,348.982 L307.7719,348.0348 L313.6875,348.3808 L319.6031,348.8846 L325.5188,348.4704 L331.4344,348.5937 L337.35,348.5135 L343.2656,348.6819 L349.1813,348.7304 L355.0969,349.0076 L361.0125,349.0759 L366.9281,349.0825 L372.8438,348.7428 L378.7594,348.9099 L384.675,349.1008 L390.5906,347.9621 L396.5062,349.0819 L402.4219,348.3019 L408.3375,348.9661 L414.2531,348.143 L420.1688,348.4843 L426.0844,349.1323 L432,348.5391 " fill="none" style="stroke:#181818;stroke-width:0.6;stroke-dasharray:2.0,2.0;"/><text fill="#000000" font-family="FG Virgil" font-size="7.8" lengthAdjust="spacing" textLength="31.2" x="249.9" y="345.3814">bookings</text><polygon fill="#181818" points="129.3,364.9137,129.3156,364.9527,128.0692,365.3167,126.9144,365.9096,125.7297,366.4279,124.447,366.7012,123.3,367.3137,123.2942,367.2992,124.4683,367.7145,125.6715,368.2025,126.8949,368.741,128.0486,369.1053,129.3,369.7137,129.3783,369.792,128.7309,369.1445,128.312,368.7257,127.9211,368.3348,127.3679,367.7815,126.9,367.3137,126.9097,367.3233,127.3755,366.8292,127.8852,366.3789,128.3738,365.9075,128.9028,365.4765,129.3,364.9137" style="stroke:#181818;stroke-width:0.6;"/><path d="M125.7,367.3137 L125.7,367.4818 L131.8333,366.9822 L137.9667,367.4683 L144.1,367.6334 L150.2333,366.743 L156.3667,367.2515 L162.5,366.9725 L168.6333,367.0069 L174.7667,367.2591 L180.9,366.7606 L187.0333,367.7566 L193.1667,366.8094 L199.3,367.1555 L205.4333,367.6592 L211.5667,367.2451 L217.7,367.3683 L223.8333,367.2881 L229.9667,367.4565 L236.1,367.3137 " fill="none" style="stroke:#181818;stroke-width:0.6;stroke-dasharray:2.0,2.0;"/><text fill="#000000" font-family="FG Virgil" font-size="7.8" lengthAdjust="spacing" textLength="31.2" x="132.9" y="364.1561">bookings</text><polygon fill="#181818" points="37.5,383.6883,37.5156,383.7273,36.2692,384.0913,35.1144,384.6842,33.9297,385.2025,32.647,385.4758,31.5,386.0883,31.4942,386.0739,32.6683,386.4891,33.8715,386.9771,35.0949,387.5156,36.2486,387.8799,37.5,388.4883,37.5783,388.5666,36.9309,387.9191,36.512,387.5003,36.1211,387.1094,35.5679,386.5562,35.1,386.0883,35.1097,386.0979,35.5755,385.6038,36.0852,385.1535,36.5738,384.6821,37.1028,384.2511,37.5,383.6883" style="stroke:#181818;stroke-width:0.6;"/><path d="M33.9,386.0883 L33.9,386.2564 L39.9857,385.7568 L46.0714,386.2429 L52.1571,386.408 L58.2429,385.5176 L64.3286,386.0261 L70.4143,385.7471 L76.5,385.7815 L82.5857,386.0338 L88.6714,385.5352 L94.7571,386.5312 L100.8429,385.5841 L106.9286,385.9301 L113.0143,386.4338 L119.1,386.0883 " fill="none" style="stroke:#181818;stroke-width:0.6;stroke-dasharray:2.0,2.0;"/><text fill="#000000" font-family="FG Virgil" font-size="7.8" lengthAdjust="spacing" textLength="60.6" x="41.1" y="382.9307">Display Bookings</text><!--SRC=[ZLFBZjim3BpxAtXCWEO732D0TXSf5kZsq20zzSB8j4t4aGn9Jk1-VQci7t9tdTQ7118vGt8uScVM3LgyG8KwlrdsdZHusrBYnj35QACgQoxqTwH1TSQI3hwh2Imf7yLoAh2j_Tve_nq5klyAFzcMN4SvhiBSt5YNK63jA4bGUMFX6GloP1cFZYoWWrsuJWJZMN63siEpqKxOtxedOuIkFBw6FFdDiiQI8-tHiz7RxKEKdBqrTVrU9Jfb6JPDpUepabthAsFvzprs87jbHG6ESd-ugeVOR-nyNpj2dkJcCsIE7a_e27h83sgCOv6Y6r3HJPRPyI3OvAuPR3PRKIKT9eUtRY1pGMo-eYT9I40-KK-o9nLIK9OadenH2TzfKzYvCxnWTu_CAuNR1RfJN_cf2ulT6okvgnoxzJr_R6U2l1E5Jni9M2uh3wQ8DvL2nNakfiLuBT06vvIjk4nx8lYbLqx-N4EA2rQGCvPYmFLK87mHhNJUxrDKQAqLGuMUL-iPO6ovpvtJpNiUx972NYhJpTWpyAMfwJAOTOuUyZSp4GKUHfjbvhJSntoatcWfO5ttDfZj8b1_WN4Zin5xxACH1n-dS0YJYTAKGqFMYUj9A_g_BGmiVR-JnLCeMEV_QlX3qnF1nphH-zd4-WnENT9vYNViVS7voGBNAEm44ehmd6R821K_akEh9FSFyuLTKsFqoYFCyVKF]--></g></svg>