<?xml version="1.0" encoding="us-ascii" standalone="no"?><svg xmlns="http://www.w3.org/2000/svg" xmlns:xlink="http://www.w3.org/1999/xlink" contentStyleType="text/css" height="823px" preserveAspectRatio="none" style="width:1052px;height:823px;background:#FFFFFF;" version="1.1" viewBox="0 0 1052 823" width="1052px" zoomAndPan="magnify"><defs/><g><polygon fill="#FFFFFF" points="194.5,121.5332,194.5,121.6033,196.5,121.3951,198.5,121.5976,200.5,121.6664,202.5,121.2954,204.5,121.5332,204.4223,121.5332,204.0735,131.6113,204.1165,141.6894,204.4318,151.7675,203.8086,161.8456,205.0536,171.9237,203.8697,182.0018,204.3022,192.0798,204.9319,202.1579,204.4142,212.236,204.5682,222.3141,204.4681,232.3922,204.6785,242.4703,204.7391,252.5484,205.0857,262.6265,205.1711,272.7046,205.1793,282.7827,204.7546,292.8608,204.9636,302.9388,205.2022,313.0169,203.7788,323.095,205.1785,333.1731,204.2035,343.2512,205.0338,353.3293,204.005,363.4074,204.4315,373.4855,205.2416,383.5636,204.4513,393.6417,204.6053,403.7198,204.8386,413.7979,204.9162,423.8759,204.4961,433.954,204.7872,444.0321,203.9276,454.1102,204.7844,464.1883,205.0482,474.2664,204.9445,484.3445,205.113,494.4226,204.0169,504.5007,203.8478,514.5788,203.8786,524.6569,204.4411,534.7349,204.3035,544.813,205.1814,554.8911,204.3253,564.9692,204.1569,575.0473,204.7283,585.1254,203.8332,595.2035,203.9809,605.2816,205.149,615.3597,204.9357,625.4378,205.2345,635.5159,204.1782,645.594,204.8192,655.672,205.0904,665.7501,204.0276,675.8282,204.4041,685.9063,204.626,695.9844,204.5,706.0625,204.5,706.2798,202.5,706.0611,200.5,706.2167,198.5,705.8779,196.5,705.8367,194.5,706.0625,195.0036,706.0625,193.7831,695.9844,195.009,685.9063,194.7066,675.8282,194.2321,665.7501,194.1462,655.672,194.9588,645.594,194.2007,635.5159,195.0919,625.4378,193.9473,615.3597,195.1174,605.2816,194.9843,595.2035,194.745,585.1254,194.5472,575.0473,195.2266,564.9692,195.1136,554.8911,194.6693,544.813,194.7682,534.7349,194.3697,524.6569,195.2165,514.5788,194.6549,504.5007,194.6726,494.4226,193.8916,484.3445,194.0948,474.2664,195.0307,464.1883,194.9298,454.1102,194.4571,444.0321,194.1778,433.954,194.2811,423.8759,193.8138,413.7979,194.9147,403.7198,195.2396,393.6417,195.0264,383.5636,195.1949,373.4855,194.3633,363.4074,194.5872,353.3293,194.1124,343.2512,194.784,333.1731,194.7468,323.095,195.0524,313.0169,194.2703,302.9388,194.3656,292.8608,194.9435,282.7827,195.0673,272.7046,193.9875,262.6265,194.3061,252.5484,194.6493,242.4703,193.8892,232.3922,194.8534,222.3141,194.758,212.236,194.3992,202.1579,194.6422,192.0798,195.2287,182.0018,194.1871,171.9237,194.815,161.8456,194.7856,151.7675,194.6158,141.6894,194.6409,131.6113,194.5,121.5332" style="stroke:#181818;stroke-width:1.0;"/><polygon fill="#FFFFFF" points="336.5,184.1152,336.5,184.1853,338.5,183.9771,340.5,184.1797,342.5,184.2485,344.5,183.8774,346.5,184.1152,346.4223,184.1152,346.0735,194.2671,346.1165,204.4189,346.4318,214.5708,345.8086,224.7227,347.0536,234.8745,345.8697,245.0264,346.3022,255.1782,346.9319,265.3301,346.4142,275.4819,346.5682,285.6338,346.4681,295.7856,346.6785,305.9375,346.7391,316.0894,347.0857,326.2412,347.1711,336.3931,347.1793,346.5449,346.7546,356.6968,346.9636,366.8486,347.2022,377.0005,346.5,387.1523,346.5,386.9119,344.5,387.3785,342.5,387.0535,340.5,387.3303,338.5,386.9873,336.5,387.1523,336.4315,387.1523,337.2416,377.0005,336.4513,366.8486,336.6053,356.6968,336.8386,346.5449,336.9162,336.3931,336.4961,326.2412,336.7872,316.0894,335.9276,305.9375,336.7844,295.7856,337.0482,285.6338,336.9445,275.4819,337.113,265.3301,336.0169,255.1782,335.8478,245.0264,335.8786,234.8745,336.4411,224.7227,336.3035,214.5708,337.1814,204.4189,336.3253,194.2671,336.5,184.1152" style="stroke:#181818;stroke-width:1.0;"/><polygon fill="#FFFFFF" points="336.5,481.0254,336.5,481.0955,338.5,480.8873,340.5,481.0898,342.5,481.1586,344.5,480.7876,346.5,481.0254,346.4223,481.0254,346.0735,491.2226,346.1165,501.4197,346.4318,511.6169,345.8086,521.814,347.0536,532.0112,345.8697,542.2084,346.3022,552.4055,346.9319,562.6027,346.4142,572.7999,346.5682,582.997,346.4681,593.1942,346.6785,603.3913,346.7391,613.5885,347.0857,623.7857,347.1711,633.9828,347.1793,644.18,346.7546,654.3772,346.9636,664.5743,346.5,674.7715,346.5,675.0056,344.5,674.5311,342.5,674.9977,340.5,674.6726,338.5,674.9494,336.5,674.7715,336.005,674.7715,336.4315,664.5743,337.2416,654.3772,336.4513,644.18,336.6053,633.9828,336.8386,623.7857,336.9162,613.5885,336.4961,603.3913,336.7872,593.1942,335.9276,582.997,336.7844,572.7999,337.0482,562.6027,336.9445,552.4055,337.113,542.2084,336.0169,532.0112,335.8478,521.814,335.8786,511.6169,336.4411,501.4197,336.3035,491.2226,336.5,481.0254" style="stroke:#181818;stroke-width:1.0;"/><polygon fill="#FFFFFF" points="474.5,512.3164,474.5,512.3865,476.5,512.1783,478.5,512.3808,480.5,512.4496,482.5,512.0786,484.5,512.3164,484.4741,512.3164,484.3578,518.5746,484.3722,524.8328,484.4773,531.091,484.2695,537.3492,484.5,543.6074,484.5,543.792,482.5,543.3973,480.5,543.5415,478.5,543.7514,476.5,543.5788,474.5,543.6074,474.5227,543.6074,474.4894,537.3492,474.5595,531.091,474.5797,524.8328,474.6952,518.5746,474.5,512.3164" style="stroke:#181818;stroke-width:1.0;"/><polygon fill="#FFFFFF" points="633.5,574.8984,633.5,574.9685,635.5,574.7603,637.5,574.9629,639.5,575.0317,641.5,574.6606,643.5,574.8984,643.4223,574.8984,643.0735,584.6959,643.1165,594.4933,643.4318,604.2907,642.8086,614.0882,644.0536,623.8856,642.8697,633.683,643.5,643.4805,643.5,643.4145,641.5,643.6245,639.5,643.4519,637.5,643.5032,635.5,643.4698,633.5,643.4805,633.6785,643.4805,633.7391,633.683,634.0857,623.8856,634.1711,614.0882,634.1793,604.2907,633.7546,594.4933,633.9636,584.6959,633.5,574.8984" style="stroke:#181818;stroke-width:1.0;"/><polygon fill="#FFFFFF" points="965.5,324.5703,965.5,324.6404,967.5,324.4322,969.5,324.6347,971.5,324.7035,973.5,324.3325,975.5,324.5703,975.4741,324.5703,975.3578,330.8285,975.3722,337.0867,975.4773,343.3449,975.2695,349.6031,975.5,355.8613,975.5,356.0459,973.5,355.6512,971.5,355.7954,969.5,356.0053,967.5,355.8327,965.5,355.8613,965.5227,355.8613,965.4894,349.6031,965.5595,343.3449,965.5797,337.0867,965.6952,330.8285,965.5,324.5703" style="stroke:#181818;stroke-width:1.0;"/><path d="M27,88.2422 L27.2802,88.2422 L26.4476,98.1769 L27.2577,108.1116 L27.5329,118.0463 L26.0488,127.981 L26.8964,137.9156 L26.4313,147.8503 L26.4887,157.785 L26.9091,167.7197 L26.0782,177.6544 L27.7382,187.5891 L26.1596,197.5238 L26.7363,207.4585 L27.5759,217.3932 L26.8856,227.3279 L27.091,237.2626 L26.9574,247.1973 L27.238,257.132 L27.3188,267.0667 L27.7809,277.0013 L27.8947,286.936 L27.9057,296.8707 L27.3395,306.8054 L27.6181,316.7401 L27.9363,326.6748 L26.0384,336.6095 L27.9047,346.5442 L26.6047,356.4789 L27.7117,366.4136 L26.34,376.3483 L26.9087,386.283 L27.9888,396.2177 L26.935,406.1523 L27.1404,416.087 L27.4515,426.0217 L27.555,435.9564 L26.9948,445.8911 L27.383,455.8258 L26.2368,465.7605 L27.3792,475.6952 L27.7309,485.6299 L27.5927,495.5646 L27.8174,505.4993 L26.3559,515.434 L26.1304,525.3687 L26.1715,535.3033 L26.9215,545.238 L26.738,555.1727 L27.9085,565.1074 L26.7671,575.0421 L26.5426,584.9768 L27.3044,594.9115 L26.1109,604.8462 L26.3078,614.7809 L27.8653,624.7156 L27.5809,634.6503 L27.9793,644.585 L26.5709,654.5197 L27.4256,664.4543 L27.7872,674.389 L26.3701,684.3237 L26.8722,694.2584 L27.168,704.1931 L27.869,714.1278 L27,724.0625 " fill="none" style="stroke:#181818;stroke-width:0.5;stroke-dasharray:5.0,5.0;"/><path d="M199,88.2422 L199.2802,88.2422 L198.4476,98.1769 L199.2577,108.1116 L199.5329,118.0463 L198.0488,127.981 L198.8964,137.9156 L198.4313,147.8503 L198.4887,157.785 L198.9091,167.7197 L198.0782,177.6544 L199.7382,187.5891 L198.1596,197.5238 L198.7363,207.4585 L199.5759,217.3932 L198.8856,227.3279 L199.091,237.2626 L198.9574,247.1973 L199.238,257.132 L199.3188,267.0667 L199.7809,277.0013 L199.8947,286.936 L199.9057,296.8707 L199.3395,306.8054 L199.6181,316.7401 L199.9363,326.6748 L198.0384,336.6095 L199.9047,346.5442 L198.6047,356.4789 L199.7117,366.4136 L198.34,376.3483 L198.9087,386.283 L199.9888,396.2177 L198.935,406.1523 L199.1404,416.087 L199.4515,426.0217 L199.555,435.9564 L198.9948,445.8911 L199.383,455.8258 L198.2368,465.7605 L199.3792,475.6952 L199.7309,485.6299 L199.5927,495.5646 L199.8174,505.4993 L198.3559,515.434 L198.1304,525.3687 L198.1715,535.3033 L198.9215,545.238 L198.738,555.1727 L199.9085,565.1074 L198.7671,575.0421 L198.5426,584.9768 L199.3044,594.9115 L198.1109,604.8462 L198.3078,614.7809 L199.8653,624.7156 L199.5809,634.6503 L199.9793,644.585 L198.5709,654.5197 L199.4256,664.4543 L199.7872,674.389 L198.3701,684.3237 L198.8722,694.2584 L199.168,704.1931 L199.869,714.1278 L199,724.0625 " fill="none" style="stroke:#181818;stroke-width:0.5;stroke-dasharray:5.0,5.0;"/><path d="M341,88.2422 L341.2802,88.2422 L340.4476,98.1769 L341.2577,108.1116 L341.5329,118.0463 L340.0488,127.981 L340.8964,137.9156 L340.4313,147.8503 L340.4887,157.785 L340.9091,167.7197 L340.0782,177.6544 L341.7382,187.5891 L340.1596,197.5238 L340.7363,207.4585 L341.5759,217.3932 L340.8856,227.3279 L341.091,237.2626 L340.9574,247.1973 L341.238,257.132 L341.3188,267.0667 L341.7809,277.0013 L341.8947,286.936 L341.9057,296.8707 L341.3395,306.8054 L341.6181,316.7401 L341.9363,326.6748 L340.0384,336.6095 L341.9047,346.5442 L340.6047,356.4789 L341.7117,366.4136 L340.34,376.3483 L340.9087,386.283 L341.9888,396.2177 L340.935,406.1523 L341.1404,416.087 L341.4515,426.0217 L341.555,435.9564 L340.9948,445.8911 L341.383,455.8258 L340.2368,465.7605 L341.3792,475.6952 L341.7309,485.6299 L341.5927,495.5646 L341.8174,505.4993 L340.3559,515.434 L340.1304,525.3687 L340.1715,535.3033 L340.9215,545.238 L340.738,555.1727 L341.9085,565.1074 L340.7671,575.0421 L340.5426,584.9768 L341.3044,594.9115 L340.1109,604.8462 L340.3078,614.7809 L341.8653,624.7156 L341.5809,634.6503 L341.9793,644.585 L340.5709,654.5197 L341.4256,664.4543 L341.7872,674.389 L340.3701,684.3237 L340.8722,694.2584 L341.168,704.1931 L341.869,714.1278 L341,724.0625 " fill="none" style="stroke:#181818;stroke-width:0.5;stroke-dasharray:5.0,5.0;"/><path d="M479,88.2422 L479.2802,88.2422 L478.4476,98.1769 L479.2577,108.1116 L479.5329,118.0463 L478.0488,127.981 L478.8964,137.9156 L478.4313,147.8503 L478.4887,157.785 L478.9091,167.7197 L478.0782,177.6544 L479.7382,187.5891 L478.1596,197.5238 L478.7363,207.4585 L479.5759,217.3932 L478.8856,227.3279 L479.091,237.2626 L478.9574,247.1973 L479.238,257.132 L479.3188,267.0667 L479.7809,277.0013 L479.8947,286.936 L479.9057,296.8707 L479.3395,306.8054 L479.6181,316.7401 L479.9363,326.6748 L478.0384,336.6095 L479.9047,346.5442 L478.6047,356.4789 L479.7117,366.4136 L478.34,376.3483 L478.9087,386.283 L479.9888,396.2177 L478.935,406.1523 L479.1404,416.087 L479.4515,426.0217 L479.555,435.9564 L478.9948,445.8911 L479.383,455.8258 L478.2368,465.7605 L479.3792,475.6952 L479.7309,485.6299 L479.5927,495.5646 L479.8174,505.4993 L478.3559,515.434 L478.1304,525.3687 L478.1715,535.3033 L478.9215,545.238 L478.738,555.1727 L479.9085,565.1074 L478.7671,575.0421 L478.5426,584.9768 L479.3044,594.9115 L478.1109,604.8462 L478.3078,614.7809 L479.8653,624.7156 L479.5809,634.6503 L479.9793,644.585 L478.5709,654.5197 L479.4256,664.4543 L479.7872,674.389 L478.3701,684.3237 L478.8722,694.2584 L479.168,704.1931 L479.869,714.1278 L479,724.0625 " fill="none" style="stroke:#181818;stroke-width:0.5;stroke-dasharray:5.0,5.0;"/><path d="M638,88.2422 L638.2802,88.2422 L637.4476,98.1769 L638.2577,108.1116 L638.5329,118.0463 L637.0488,127.981 L637.8964,137.9156 L637.4313,147.8503 L637.4887,157.785 L637.9091,167.7197 L637.0782,177.6544 L638.7382,187.5891 L637.1596,197.5238 L637.7363,207.4585 L638.5759,217.3932 L637.8856,227.3279 L638.091,237.2626 L637.9574,247.1973 L638.238,257.132 L638.3188,267.0667 L638.7809,277.0013 L638.8947,286.936 L638.9057,296.8707 L638.3395,306.8054 L638.6181,316.7401 L638.9363,326.6748 L637.0384,336.6095 L638.9047,346.5442 L637.6047,356.4789 L638.7117,366.4136 L637.34,376.3483 L637.9087,386.283 L638.9888,396.2177 L637.935,406.1523 L638.1404,416.087 L638.4515,426.0217 L638.555,435.9564 L637.9948,445.8911 L638.383,455.8258 L637.2368,465.7605 L638.3792,475.6952 L638.7309,485.6299 L638.5927,495.5646 L638.8174,505.4993 L637.3559,515.434 L637.1304,525.3687 L637.1715,535.3033 L637.9215,545.238 L637.738,555.1727 L638.9085,565.1074 L637.7671,575.0421 L637.5426,584.9768 L638.3044,594.9115 L637.1109,604.8462 L637.3078,614.7809 L638.8653,624.7156 L638.5809,634.6503 L638.9793,644.585 L637.5709,654.5197 L638.4256,664.4543 L638.7872,674.389 L637.3701,684.3237 L637.8722,694.2584 L638.168,704.1931 L638.869,714.1278 L638,724.0625 " fill="none" style="stroke:#181818;stroke-width:0.5;stroke-dasharray:5.0,5.0;"/><path d="M813,88.2422 L813.2802,88.2422 L812.4476,98.1769 L813.2577,108.1116 L813.5329,118.0463 L812.0488,127.981 L812.8964,137.9156 L812.4313,147.8503 L812.4887,157.785 L812.9091,167.7197 L812.0782,177.6544 L813.7382,187.5891 L812.1596,197.5238 L812.7363,207.4585 L813.5759,217.3932 L812.8856,227.3279 L813.091,237.2626 L812.9574,247.1973 L813.238,257.132 L813.3188,267.0667 L813.7809,277.0013 L813.8947,286.936 L813.9057,296.8707 L813.3395,306.8054 L813.6181,316.7401 L813.9363,326.6748 L812.0384,336.6095 L813.9047,346.5442 L812.6047,356.4789 L813.7117,366.4136 L812.34,376.3483 L812.9087,386.283 L813.9888,396.2177 L812.935,406.1523 L813.1404,416.087 L813.4515,426.0217 L813.555,435.9564 L812.9948,445.8911 L813.383,455.8258 L812.2368,465.7605 L813.3792,475.6952 L813.7309,485.6299 L813.5927,495.5646 L813.8174,505.4993 L812.3559,515.434 L812.1304,525.3687 L812.1715,535.3033 L812.9215,545.238 L812.738,555.1727 L813.9085,565.1074 L812.7671,575.0421 L812.5426,584.9768 L813.3044,594.9115 L812.1109,604.8462 L812.3078,614.7809 L813.8653,624.7156 L813.5809,634.6503 L813.9793,644.585 L812.5709,654.5197 L813.4256,664.4543 L813.7872,674.389 L812.3701,684.3237 L812.8722,694.2584 L813.168,704.1931 L813.869,714.1278 L813,724.0625 " fill="none" style="stroke:#181818;stroke-width:0.5;stroke-dasharray:5.0,5.0;"/><path d="M970,88.2422 L970.2802,88.2422 L969.4476,98.1769 L970.2577,108.1116 L970.5329,118.0463 L969.0488,127.981 L969.8964,137.9156 L969.4313,147.8503 L969.4887,157.785 L969.9091,167.7197 L969.0782,177.6544 L970.7382,187.5891 L969.1596,197.5238 L969.7363,207.4585 L970.5759,217.3932 L969.8856,227.3279 L970.091,237.2626 L969.9574,247.1973 L970.238,257.132 L970.3188,267.0667 L970.7809,277.0013 L970.8947,286.936 L970.9057,296.8707 L970.3395,306.8054 L970.6181,316.7401 L970.9363,326.6748 L969.0384,336.6095 L970.9047,346.5442 L969.6047,356.4789 L970.7117,366.4136 L969.34,376.3483 L969.9087,386.283 L970.9888,396.2177 L969.935,406.1523 L970.1404,416.087 L970.4515,426.0217 L970.555,435.9564 L969.9948,445.8911 L970.383,455.8258 L969.2368,465.7605 L970.3792,475.6952 L970.7309,485.6299 L970.5927,495.5646 L970.8174,505.4993 L969.3559,515.434 L969.1304,525.3687 L969.1715,535.3033 L969.9215,545.238 L969.738,555.1727 L970.9085,565.1074 L969.7671,575.0421 L969.5426,584.9768 L970.3044,594.9115 L969.1109,604.8462 L969.3078,614.7809 L970.8653,624.7156 L970.5809,634.6503 L970.9793,644.585 L969.5709,654.5197 L970.4256,664.4543 L970.7872,674.389 L969.3701,684.3237 L969.8722,694.2584 L970.168,704.1931 L970.869,714.1278 L970,724.0625 " fill="none" style="stroke:#181818;stroke-width:0.5;stroke-dasharray:5.0,5.0;"/><text fill="#000000" font-family="FG Virgil" font-size="14" lengthAdjust="spacing" textLength="39" x="5" y="84.7285">Admin</text><polygon fill="#E3E3E3" points="35.5442,20.067,34.3715,21.6693,32.9845,24.0162,31.0008,25.5977,28.9163,26.4626,27.2542,26.5377,25.118,25.456,23.1023,24.7494,21.5724,23.3147,20.7699,21.6722,20.2939,20.3644,19.8277,18.6561,19.0709,17.1862,19.6525,15.7509,20.162,14.1787,22.074,12.9353,23.4192,11.3219,25.0843,10.7861,27.0637,10.3248,29.6021,10.5989,30.9924,11.2546,32.6089,11.5518,34.5743,13.5654,35.2595,15.6912,35.5571,17.1417,35.22,19.5319" style="stroke:#181818;stroke-width:0.5;"/><path d="M27.5,26.1211 L27.6868,26.1211 L27.1317,31.5211 L27.6718,36.9211 L27.8553,42.3211 L26.8659,47.7211 L27.5,53.1211 M14.5,34.1211 L14.5,34.052 L19.7,33.742 L24.9,33.7802 L30.1,34.0605 L35.3,33.5065 L40.5,34.1211 M27.5,53.1211 L27.8719,53.4434 L24.4766,55.7542 L22.1672,59.006 L19.9901,62.3726 L17.0424,65.0712 L14.5,68.1211 M27.5,53.1211 L27.5458,53.1608 L30.0785,56.1025 L32.8199,59.225 L35.4606,62.2603 L38.2934,65.4621 L40.5,68.1211 " fill="none" style="stroke:#181818;stroke-width:0.5;"/><text fill="#000000" font-family="FG Virgil" font-size="14" lengthAdjust="spacing" textLength="39" x="5" y="738.1699">Admin</text><polygon fill="#E3E3E3" points="35.5442,752.1295,34.3715,753.7318,32.9845,756.0787,31.0008,757.6602,28.9163,758.5251,27.2542,758.6002,25.118,757.5185,23.1023,756.8119,21.5724,755.3772,20.7699,753.7347,20.2939,752.4269,19.8277,750.7186,19.0709,749.2487,19.6525,747.8134,20.162,746.2412,22.074,744.9978,23.4192,743.3844,25.0843,742.8486,27.0637,742.3873,29.6021,742.6614,30.9924,743.3171,32.6089,743.6143,34.5743,745.6279,35.2595,747.7537,35.5571,749.2042,35.22,751.5944" style="stroke:#181818;stroke-width:0.5;"/><path d="M27.5,758.1836 L27.6868,758.1836 L27.1317,763.5836 L27.6718,768.9836 L27.8553,774.3836 L26.8659,779.7836 L27.5,785.1836 M14.5,766.1836 L14.5,766.1145 L19.7,765.8045 L24.9,765.8427 L30.1,766.123 L35.3,765.569 L40.5,766.1836 M27.5,785.1836 L27.8719,785.5059 L24.4766,787.8167 L22.1672,791.0685 L19.9901,794.4351 L17.0424,797.1337 L14.5,800.1836 M27.5,785.1836 L27.5458,785.2233 L30.0785,788.165 L32.8199,791.2875 L35.4606,794.3228 L38.2934,797.5246 L40.5,800.1836 " fill="none" style="stroke:#181818;stroke-width:0.5;"/><polygon fill="#E3E3E3" points="147.5,36,147.5,36.2102,157.9,35.5857,168.3,36.1933,178.7,36.3997,189.1,35.2866,199.5,35.9223,209.9,35.5735,220.3,35.6165,230.7,35.9318,241.1,35.3086,251.5,36,251.5706,36.1705,251.7732,35.9523,252.1819,36.232,252.6158,36.5724,252.9033,36.5594,253.2678,36.7322,253.2888,36.7409,253.4044,37.0817,253.6156,37.4621,253.7808,37.8234,254.0339,38.2212,254,38.5,254.6711,38.5,254.6793,47.7484,254.2546,56.9969,254.4636,66.2453,254.7022,75.4938,254,84.7422,253.7779,84.6502,254.0625,85.1823,253.6158,85.4115,253.7251,85.8709,253.2618,86.0933,253.2678,86.51,253.259,86.4889,253.0088,86.8848,252.5544,86.7878,252.2205,86.9817,251.8967,87.2,251.5,87.2422,251.5,87.6584,241.1,87.2383,230.7,87.5294,220.3,86.6698,209.9,87.5266,199.5,87.7904,189.1,87.6867,178.7,87.8552,168.3,86.7591,157.9,86.59,147.5,87.2422,147.4207,87.0508,147.1389,87.0776,146.7678,86.8888,146.5263,87.0127,146.0635,86.6026,145.7322,86.51,145.6266,86.4662,145.6561,86.1855,145.234,85.7178,145.133,85.3831,145.3463,85.1785,145,84.7422,145.4357,84.7422,145.7345,75.4938,144.6782,66.2453,145.3192,56.9969,145.5904,47.7484,145,38.5,144.8545,38.4397,145.1169,38.1342,145.3317,37.809,145.6401,37.5225,145.5845,37.0853,145.7322,36.7322,145.7912,36.8747,146.0151,36.4152,146.3529,36.2308,146.8571,36.448,147.055,35.9257,147.5,36" style="stroke:#181818;stroke-width:0.5;"/><text fill="#000000" font-family="FG Virgil" font-size="14" font-style="italic" lengthAdjust="spacing" textLength="95" x="152" y="58.1074">&#171;presentation&#187;</text><text fill="#000000" font-family="FG Virgil" font-size="14" lengthAdjust="spacing" textLength="91" x="154" y="76.7285">ActivateUserUI</text><polygon fill="#E3E3E3" points="147.5,723.0625,147.5,723.2727,157.9,722.6482,168.3,723.2558,178.7,723.4622,189.1,722.3491,199.5,722.9848,209.9,722.636,220.3,722.679,230.7,722.9943,241.1,722.3711,251.5,723.0625,251.5706,723.233,251.7732,723.0148,252.1819,723.2945,252.6158,723.6349,252.9033,723.6219,253.2678,723.7947,253.2888,723.8034,253.4044,724.1442,253.6156,724.5246,253.7808,724.8859,254.0339,725.2837,254,725.5625,254.6711,725.5625,254.6793,734.8109,254.2546,744.0594,254.4636,753.3078,254.7022,762.5563,254,771.8047,253.7779,771.7127,254.0625,772.2448,253.6158,772.474,253.7251,772.9334,253.2618,773.1558,253.2678,773.5725,253.259,773.5514,253.0088,773.9473,252.5544,773.8503,252.2205,774.0442,251.8967,774.2625,251.5,774.3047,251.5,774.7209,241.1,774.3008,230.7,774.5919,220.3,773.7323,209.9,774.5891,199.5,774.8529,189.1,774.7492,178.7,774.9177,168.3,773.8216,157.9,773.6525,147.5,774.3047,147.4207,774.1133,147.1389,774.1401,146.7678,773.9513,146.5263,774.0752,146.0635,773.6651,145.7322,773.5725,145.6266,773.5287,145.6561,773.248,145.234,772.7803,145.133,772.4456,145.3463,772.241,145,771.8047,145.4357,771.8047,145.7345,762.5563,144.6782,753.3078,145.3192,744.0594,145.5904,734.8109,145,725.5625,144.8545,725.5022,145.1169,725.1967,145.3317,724.8715,145.6401,724.585,145.5845,724.1478,145.7322,723.7947,145.7912,723.9372,146.0151,723.4777,146.3529,723.2933,146.8571,723.5105,147.055,722.9882,147.5,723.0625" style="stroke:#181818;stroke-width:0.5;"/><text fill="#000000" font-family="FG Virgil" font-size="14" font-style="italic" lengthAdjust="spacing" textLength="95" x="152" y="745.1699">&#171;presentation&#187;</text><text fill="#000000" font-family="FG Virgil" font-size="14" lengthAdjust="spacing" textLength="91" x="154" y="763.791">ActivateUserUI</text><polygon fill="#E3E3E3" points="266.5,36,266.5,36.2102,276.5,35.5857,286.5,36.1933,296.5,36.3997,306.5,35.2866,316.5,35.9223,326.5,35.5735,336.5,35.6165,346.5,35.9318,356.5,35.3086,366.5,36.5536,376.5,35.3697,386.5,35.8022,396.5,36.4319,406.5,35.9142,416.5,36,416.5087,36.021,416.8495,36.1366,417.2299,36.3479,417.5912,36.513,417.9889,36.7662,418.2678,36.7322,418.4744,36.8178,418.6234,37.1724,418.6391,37.4718,418.8499,37.852,419.0698,38.236,419,38.5,418.2788,38.5,419.6785,47.7484,418.7035,56.9969,419.5338,66.2453,418.505,75.4938,419,84.7422,418.9789,84.7334,419.0819,85.1903,418.6921,85.4431,418.5931,85.8163,418.5185,86.1996,418.2678,86.51,418.3209,86.6381,417.9137,86.6552,417.5973,86.8913,417.1341,86.773,416.8898,87.1833,416.5,87.2422,416.5,87.7904,406.5,87.6867,396.5,87.8552,386.5,86.7591,376.5,86.59,366.5,86.6208,356.5,87.1833,346.5,87.0457,336.5,87.9236,326.5,87.0675,316.5,86.8991,306.5,87.4705,296.5,86.5753,286.5,86.7231,276.5,87.8911,266.5,87.2422,266.5556,87.3764,266.2401,87.3219,265.7518,86.8502,265.4801,86.9011,265.1611,86.8382,264.7322,86.51,264.5868,86.4497,264.5563,86.1442,264.4781,85.8189,264.4936,85.5324,264.1452,85.0952,264,84.7422,264.4626,84.7422,263.4462,75.4938,263.3227,66.2453,264.5036,56.9969,263.2831,47.7484,264,38.5,264.1567,38.5649,264.2101,38.1728,264.2104,37.7587,264.3304,37.3942,264.7271,37.1443,264.7322,36.7322,264.694,36.6401,265.1613,36.7681,265.3688,36.2691,265.8717,36.483,266.2082,36.2956,266.5,36" style="stroke:#181818;stroke-width:0.5;"/><text fill="#000000" font-family="FG Virgil" font-size="14" font-style="italic" lengthAdjust="spacing" textLength="84" x="299.5" y="58.1074">&#171;application&#187;</text><text fill="#000000" font-family="FG Virgil" font-size="14" lengthAdjust="spacing" textLength="141" x="271" y="76.7285">ActivateUserController</text><polygon fill="#E3E3E3" points="266.5,723.0625,266.5,723.2727,276.5,722.6482,286.5,723.2558,296.5,723.4622,306.5,722.3491,316.5,722.9848,326.5,722.636,336.5,722.679,346.5,722.9943,356.5,722.3711,366.5,723.6161,376.5,722.4322,386.5,722.8647,396.5,723.4944,406.5,722.9767,416.5,723.0625,416.5087,723.0835,416.8495,723.1991,417.2299,723.4104,417.5912,723.5755,417.9889,723.8287,418.2678,723.7947,418.4744,723.8803,418.6234,724.2349,418.6391,724.5343,418.8499,724.9145,419.0698,725.2985,419,725.5625,418.2788,725.5625,419.6785,734.8109,418.7035,744.0594,419.5338,753.3078,418.505,762.5563,419,771.8047,418.9789,771.7959,419.0819,772.2528,418.6921,772.5056,418.5931,772.8788,418.5185,773.2621,418.2678,773.5725,418.3209,773.7006,417.9137,773.7177,417.5973,773.9538,417.1341,773.8355,416.8898,774.2458,416.5,774.3047,416.5,774.8529,406.5,774.7492,396.5,774.9177,386.5,773.8216,376.5,773.6525,366.5,773.6833,356.5,774.2458,346.5,774.1082,336.5,774.9861,326.5,774.13,316.5,773.9616,306.5,774.533,296.5,773.6378,286.5,773.7856,276.5,774.9536,266.5,774.3047,266.5556,774.4389,266.2401,774.3844,265.7518,773.9127,265.4801,773.9636,265.1611,773.9007,264.7322,773.5725,264.5868,773.5122,264.5563,773.2067,264.4781,772.8814,264.4936,772.5949,264.1452,772.1577,264,771.8047,264.4626,771.8047,263.4462,762.5563,263.3227,753.3078,264.5036,744.0594,263.2831,734.8109,264,725.5625,264.1567,725.6274,264.2101,725.2353,264.2104,724.8212,264.3304,724.4567,264.7271,724.2068,264.7322,723.7947,264.694,723.7026,265.1613,723.8306,265.3688,723.3316,265.8717,723.5455,266.2082,723.3581,266.5,723.0625" style="stroke:#181818;stroke-width:0.5;"/><text fill="#000000" font-family="FG Virgil" font-size="14" font-style="italic" lengthAdjust="spacing" textLength="84" x="299.5" y="745.1699">&#171;application&#187;</text><text fill="#000000" font-family="FG Virgil" font-size="14" lengthAdjust="spacing" textLength="141" x="271" y="763.791">ActivateUserController</text><polygon fill="#E3E3E3" points="431.5,36,431.5,36.2102,441.1,35.5857,450.7,36.1933,460.3,36.3997,469.9,35.2866,479.5,35.9223,489.1,35.5735,498.7,35.6165,508.3,35.9318,517.9,35.3086,527.5,36,527.5706,36.1705,527.7732,35.9523,528.1819,36.232,528.6158,36.5724,528.9033,36.5594,529.2678,36.7322,529.2888,36.7409,529.4044,37.0817,529.6156,37.4621,529.7808,37.8234,530.0339,38.2212,530,38.5,530.6711,38.5,530.6793,47.7484,530.2546,56.9969,530.4636,66.2453,530.7022,75.4938,530,84.7422,529.7779,84.6502,530.0625,85.1823,529.6158,85.4115,529.7251,85.8709,529.2618,86.0933,529.2678,86.51,529.259,86.4889,529.0088,86.8848,528.5544,86.7878,528.2205,86.9817,527.8967,87.2,527.5,87.2422,527.5,87.6584,517.9,87.2383,508.3,87.5294,498.7,86.6698,489.1,87.5266,479.5,87.7904,469.9,87.6867,460.3,87.8552,450.7,86.7591,441.1,86.59,431.5,87.2422,431.4207,87.0508,431.1389,87.0776,430.7678,86.8888,430.5263,87.0127,430.0635,86.6026,429.7322,86.51,429.6266,86.4662,429.6561,86.1855,429.234,85.7178,429.133,85.3831,429.3463,85.1785,429,84.7422,429.4357,84.7422,429.7345,75.4938,428.6782,66.2453,429.3192,56.9969,429.5904,47.7484,429,38.5,428.8545,38.4397,429.1169,38.1342,429.3317,37.809,429.6401,37.5225,429.5845,37.0853,429.7322,36.7322,429.7912,36.8747,430.0151,36.4152,430.3529,36.2308,430.8571,36.448,431.055,35.9257,431.5,36" style="stroke:#181818;stroke-width:0.5;"/><text fill="#000000" font-family="FG Virgil" font-size="14" font-style="italic" lengthAdjust="spacing" textLength="48" x="455.5" y="58.1074">&#171;utility&#187;</text><text fill="#000000" font-family="FG Virgil" font-size="14" lengthAdjust="spacing" textLength="87" x="436" y="76.7285">AuthzRegistry</text><polygon fill="#E3E3E3" points="431.5,723.0625,431.5,723.2727,441.1,722.6482,450.7,723.2558,460.3,723.4622,469.9,722.3491,479.5,722.9848,489.1,722.636,498.7,722.679,508.3,722.9943,517.9,722.3711,527.5,723.0625,527.5706,723.233,527.7732,723.0148,528.1819,723.2945,528.6158,723.6349,528.9033,723.6219,529.2678,723.7947,529.2888,723.8034,529.4044,724.1442,529.6156,724.5246,529.7808,724.8859,530.0339,725.2837,530,725.5625,530.6711,725.5625,530.6793,734.8109,530.2546,744.0594,530.4636,753.3078,530.7022,762.5563,530,771.8047,529.7779,771.7127,530.0625,772.2448,529.6158,772.474,529.7251,772.9334,529.2618,773.1558,529.2678,773.5725,529.259,773.5514,529.0088,773.9473,528.5544,773.8503,528.2205,774.0442,527.8967,774.2625,527.5,774.3047,527.5,774.7209,517.9,774.3008,508.3,774.5919,498.7,773.7323,489.1,774.5891,479.5,774.8529,469.9,774.7492,460.3,774.9177,450.7,773.8216,441.1,773.6525,431.5,774.3047,431.4207,774.1133,431.1389,774.1401,430.7678,773.9513,430.5263,774.0752,430.0635,773.6651,429.7322,773.5725,429.6266,773.5287,429.6561,773.248,429.234,772.7803,429.133,772.4456,429.3463,772.241,429,771.8047,429.4357,771.8047,429.7345,762.5563,428.6782,753.3078,429.3192,744.0594,429.5904,734.8109,429,725.5625,428.8545,725.5022,429.1169,725.1967,429.3317,724.8715,429.6401,724.585,429.5845,724.1478,429.7322,723.7947,429.7912,723.9372,430.0151,723.4777,430.3529,723.2933,430.8571,723.5105,431.055,722.9882,431.5,723.0625" style="stroke:#181818;stroke-width:0.5;"/><text fill="#000000" font-family="FG Virgil" font-size="14" font-style="italic" lengthAdjust="spacing" textLength="48" x="455.5" y="745.1699">&#171;utility&#187;</text><text fill="#000000" font-family="FG Virgil" font-size="14" lengthAdjust="spacing" textLength="87" x="436" y="763.791">AuthzRegistry</text><polygon fill="#E3E3E3" points="542.5,36,542.5,36.2102,552.6053,35.5857,562.7105,36.1933,572.8158,36.3997,582.9211,35.2866,593.0263,35.9223,603.1316,35.5735,613.2368,35.6165,623.3421,35.9318,633.4474,35.3086,643.5526,36.5536,653.6579,35.3697,663.7632,35.8022,673.8684,36.4319,683.9737,35.9142,694.0789,36.0682,704.1842,35.9681,714.2895,36.1785,724.3947,36.2391,734.5,36,734.5747,36.1804,734.9392,36.3531,735.2938,36.5021,735.5931,36.5178,735.9733,36.7286,736.2678,36.7322,736.484,36.8218,736.1921,36.9938,736.7696,37.5259,736.6158,37.7551,737.0179,38.2145,737,38.5,736.505,38.5,736.9315,47.7484,737.7416,56.9969,736.9513,66.2453,737.1053,75.4938,737,84.7422,737.1043,84.7854,736.9817,85.1488,736.7059,85.4488,736.6491,85.8395,736.2379,86.0834,736.2678,86.51,736.304,86.5975,735.9841,86.8252,735.6174,86.9397,735.2853,87.1381,734.7919,86.947,734.5,87.2422,734.5,86.59,724.3947,86.6208,714.2895,87.1833,704.1842,87.0457,694.0789,87.9236,683.9737,87.0675,673.8684,86.8991,663.7632,87.4705,653.6579,86.5753,643.5526,86.7231,633.4474,87.8911,623.3421,87.6779,613.2368,87.9767,603.1316,86.9204,593.0263,87.5614,582.9211,87.8326,572.8158,86.7698,562.7105,87.1463,552.6053,87.3682,542.5,87.2422,542.5831,87.4429,542.1459,87.0945,541.8519,87.0917,541.3687,86.6323,540.9994,86.4478,540.7322,86.51,540.8873,86.5742,540.365,86.0649,540.5961,85.8678,540.3565,85.4757,540.0639,85.0616,540,84.7422,539.6462,84.7422,540.4588,75.4938,539.7007,66.2453,540.5919,56.9969,539.4473,47.7484,540,38.5,540.1901,38.5788,540.2956,38.2082,540.3683,37.8241,540.4539,37.4454,540.8096,37.1785,540.7322,36.7322,540.8105,36.9212,541.1074,36.6379,541.4736,36.5219,541.7763,36.2528,542.2378,36.3671,542.5,36" style="stroke:#181818;stroke-width:0.5;"/><text fill="#000000" font-family="FG Virgil" font-size="14" font-style="italic" lengthAdjust="spacing" textLength="84" x="596.5" y="58.1074">&#171;application&#187;</text><text fill="#000000" font-family="FG Virgil" font-size="14" lengthAdjust="spacing" textLength="183" x="547" y="76.7285">svc:UserManagementService</text><polygon fill="#E3E3E3" points="542.5,723.0625,542.5,723.2727,552.6053,722.6482,562.7105,723.2558,572.8158,723.4622,582.9211,722.3491,593.0263,722.9848,603.1316,722.636,613.2368,722.679,623.3421,722.9943,633.4474,722.3711,643.5526,723.6161,653.6579,722.4322,663.7632,722.8647,673.8684,723.4944,683.9737,722.9767,694.0789,723.1307,704.1842,723.0306,714.2895,723.241,724.3947,723.3016,734.5,723.0625,734.5747,723.2429,734.9392,723.4156,735.2938,723.5646,735.5931,723.5803,735.9733,723.7911,736.2678,723.7947,736.484,723.8843,736.1921,724.0563,736.7696,724.5884,736.6158,724.8176,737.0179,725.277,737,725.5625,736.505,725.5625,736.9315,734.8109,737.7416,744.0594,736.9513,753.3078,737.1053,762.5563,737,771.8047,737.1043,771.8479,736.9817,772.2113,736.7059,772.5113,736.6491,772.902,736.2379,773.1459,736.2678,773.5725,736.304,773.66,735.9841,773.8877,735.6174,774.0022,735.2853,774.2006,734.7919,774.0095,734.5,774.3047,734.5,773.6525,724.3947,773.6833,714.2895,774.2458,704.1842,774.1082,694.0789,774.9861,683.9737,774.13,673.8684,773.9616,663.7632,774.533,653.6579,773.6378,643.5526,773.7856,633.4474,774.9536,623.3421,774.7404,613.2368,775.0392,603.1316,773.9829,593.0263,774.6239,582.9211,774.8951,572.8158,773.8323,562.7105,774.2088,552.6053,774.4307,542.5,774.3047,542.5831,774.5054,542.1459,774.157,541.8519,774.1542,541.3687,773.6948,540.9994,773.5103,540.7322,773.5725,540.8873,773.6367,540.365,773.1274,540.5961,772.9303,540.3565,772.5382,540.0639,772.1241,540,771.8047,539.6462,771.8047,540.4588,762.5563,539.7007,753.3078,540.5919,744.0594,539.4473,734.8109,540,725.5625,540.1901,725.6413,540.2956,725.2707,540.3683,724.8866,540.4539,724.5079,540.8096,724.241,540.7322,723.7947,540.8105,723.9837,541.1074,723.7004,541.4736,723.5844,541.7763,723.3153,542.2378,723.4296,542.5,723.0625" style="stroke:#181818;stroke-width:0.5;"/><text fill="#000000" font-family="FG Virgil" font-size="14" font-style="italic" lengthAdjust="spacing" textLength="84" x="596.5" y="745.1699">&#171;application&#187;</text><text fill="#000000" font-family="FG Virgil" font-size="14" lengthAdjust="spacing" textLength="183" x="547" y="763.791">svc:UserManagementService</text><polygon fill="#E3E3E3" points="749.5,36,749.5,36.2102,759.3462,35.5857,769.1923,36.1933,779.0385,36.3997,788.8846,35.2866,798.7308,35.9223,808.5769,35.5735,818.4231,35.6165,828.2692,35.9318,838.1154,35.3086,847.9615,36.5536,857.8077,35.3697,867.6538,35.8022,877.5,36,877.5551,36.133,877.8426,36.12,878.2158,36.3139,878.5566,36.4295,878.937,36.6408,879.2678,36.7322,879.3414,36.7627,879.5946,37.1605,879.7673,37.5249,879.9163,37.8795,879.932,38.1789,880,38.5,880.4636,38.5,880.7022,47.7484,879.2788,56.9969,880.6785,66.2453,879.7035,75.4938,880,84.7422,880.1644,84.8103,879.7011,85.0326,879.686,85.4406,879.789,85.8974,879.3992,86.1502,879.2678,86.51,879.2812,86.5424,878.9574,86.7607,878.6138,86.931,878.2066,86.9481,877.8902,87.1842,877.5,87.2422,877.5,86.6698,867.6538,87.5266,857.8077,87.7904,847.9615,87.6867,838.1154,87.8552,828.2692,86.7591,818.4231,86.59,808.5769,86.6208,798.7308,87.1833,788.8846,87.0457,779.0385,87.9236,769.1923,87.0675,759.3462,86.8991,749.5,87.2422,749.5291,87.3125,749.0614,86.8904,748.7267,86.7894,748.5221,87.0027,748.1414,86.7906,747.7322,86.51,747.9584,86.6036,747.4867,86.1154,747.5376,85.8436,747.4747,85.5246,747.001,85.0355,747,84.7422,746.9041,84.7422,747.126,75.4938,747.6518,66.2453,746.9958,56.9969,747.4626,47.7484,747,38.5,746.8295,38.4294,746.9379,38.0601,747.448,37.8571,747.2186,37.3479,747.7425,37.1507,747.7322,36.7322,747.7586,36.7959,748.0516,36.5033,748.3942,36.3304,748.8514,36.4342,749.1083,36.0543,749.5,36" style="stroke:#181818;stroke-width:0.5;"/><text fill="#000000" font-family="FG Virgil" font-size="14" font-style="italic" lengthAdjust="spacing" textLength="62" x="782.5" y="58.1074">&#171;domain&#187;</text><text fill="#000000" font-family="FG Virgil" font-size="14" lengthAdjust="spacing" textLength="119" x="754" y="76.7285">user:CafeteriaUser</text><polygon fill="#E3E3E3" points="749.5,723.0625,749.5,723.2727,759.3462,722.6482,769.1923,723.2558,779.0385,723.4622,788.8846,722.3491,798.7308,722.9848,808.5769,722.636,818.4231,722.679,828.2692,722.9943,838.1154,722.3711,847.9615,723.6161,857.8077,722.4322,867.6538,722.8647,877.5,723.0625,877.5551,723.1955,877.8426,723.1825,878.2158,723.3764,878.5566,723.492,878.937,723.7033,879.2678,723.7947,879.3414,723.8252,879.5946,724.223,879.7673,724.5874,879.9163,724.942,879.932,725.2414,880,725.5625,880.4636,725.5625,880.7022,734.8109,879.2788,744.0594,880.6785,753.3078,879.7035,762.5563,880,771.8047,880.1644,771.8728,879.7011,772.0951,879.686,772.5031,879.789,772.9599,879.3992,773.2127,879.2678,773.5725,879.2812,773.6049,878.9574,773.8232,878.6138,773.9935,878.2066,774.0106,877.8902,774.2467,877.5,774.3047,877.5,773.7323,867.6538,774.5891,857.8077,774.8529,847.9615,774.7492,838.1154,774.9177,828.2692,773.8216,818.4231,773.6525,808.5769,773.6833,798.7308,774.2458,788.8846,774.1082,779.0385,774.9861,769.1923,774.13,759.3462,773.9616,749.5,774.3047,749.5291,774.375,749.0614,773.9529,748.7267,773.8519,748.5221,774.0652,748.1414,773.8531,747.7322,773.5725,747.9584,773.6661,747.4867,773.1779,747.5376,772.9061,747.4747,772.5871,747.001,772.098,747,771.8047,746.9041,771.8047,747.126,762.5563,747.6518,753.3078,746.9958,744.0594,747.4626,734.8109,747,725.5625,746.8295,725.4919,746.9379,725.1226,747.448,724.9196,747.2186,724.4104,747.7425,724.2132,747.7322,723.7947,747.7586,723.8584,748.0516,723.5658,748.3942,723.3929,748.8514,723.4967,749.1083,723.1168,749.5,723.0625" style="stroke:#181818;stroke-width:0.5;"/><text fill="#000000" font-family="FG Virgil" font-size="14" font-style="italic" lengthAdjust="spacing" textLength="62" x="782.5" y="745.1699">&#171;domain&#187;</text><text fill="#000000" font-family="FG Virgil" font-size="14" lengthAdjust="spacing" textLength="119" x="754" y="763.791">user:CafeteriaUser</text><text fill="#000000" font-family="FG Virgil" font-size="14" font-style="italic" lengthAdjust="spacing" textLength="79" x="928" y="66.1074">&#171;repository&#187;</text><text fill="#000000" font-family="FG Virgil" font-size="14" lengthAdjust="spacing" textLength="155" x="890" y="84.7285">CafeteriaUserRepository</text><path d="M952.5,15 L952.5,15 L952.5651,15.067 L954.1716,13.118 L956.1599,11.5616 L958.0238,9.8774 L959.479,7.7727 L961.5,6.25 L961.4952,6.2158 L963.2739,5.8122 L965.0766,5.5812 L966.8958,5.47 L968.6577,4.9456 L970.5,5 L970.5,5 L970.5339,5.2437 L972.2615,4.9725 L974.0879,5.4129 L975.9264,5.9402 L977.6948,5.9622 L979.5,6.25 L979.5211,6.2717 L981.2901,7.9898 L983.1553,9.8069 L984.9741,11.5762 L986.8815,13.4366 L988.5,15 L989.0965,15 L989.1038,20.2 L988.7263,25.4 L988.9121,30.6 L989.1242,35.8 L988.5,41 L988.5,41 L988.2766,40.7702 L986.9102,42.9662 L984.8081,44.4055 L983.2654,46.4201 L981.1466,47.8423 L979.5,49.75 L979.4958,49.7198 L977.7453,50.3265 L975.897,50.2285 L974.1064,50.5464 L972.3207,50.8991 L970.5,51 L970.5,51 L970.5254,51.1832 L968.6998,50.7483 L966.9176,50.6264 L965.065,49.998 L963.3174,50.1252 L961.5,49.75 L961.6698,49.9247 L959.8377,48.1417 L958.0899,46.4453 L955.9503,44.3461 L954.0979,42.5422 L952.5,41 L951.9476,41 L952.4477,35.8 L952.3253,30.6 L953.1057,25.4 L952.3447,20.2 L952.5,15 " fill="#E3E3E3" style="stroke:#181818;stroke-width:1.5;"/><path d="M952.5,15 L952.5,15 L952.5651,15.067 L954.1716,16.618 L956.1599,18.5616 L958.0238,20.3774 L959.479,21.7727 L961.5,23.75 L961.4952,23.7158 L963.2739,23.8122 L965.0766,24.0812 L966.8958,24.47 L968.6577,24.4456 L970.5,25 L970.5,25 L970.5339,25.2437 L972.2615,24.4725 L974.0879,24.4129 L975.9264,24.4402 L977.6948,23.9622 L979.5,23.75 L979.5211,23.7717 L981.2901,21.9898 L983.1553,20.3069 L984.9741,18.5762 L986.8815,16.9366 L988.5,15 " fill="none" style="stroke:#181818;stroke-width:1.5;"/><text fill="#000000" font-family="FG Virgil" font-size="14" font-style="italic" lengthAdjust="spacing" textLength="79" x="928" y="738.1699">&#171;repository&#187;</text><text fill="#000000" font-family="FG Virgil" font-size="14" lengthAdjust="spacing" textLength="155" x="890" y="756.791">CafeteriaUserRepository</text><path d="M952.5,770.3047 L952.5,770.3047 L952.5651,770.3717 L954.1716,768.4227 L956.1599,766.8663 L958.0238,765.1821 L959.479,763.0774 L961.5,761.5547 L961.4952,761.5205 L963.2739,761.1169 L965.0766,760.8859 L966.8958,760.7747 L968.6577,760.2503 L970.5,760.3047 L970.5,760.3047 L970.5339,760.5484 L972.2615,760.2772 L974.0879,760.7176 L975.9264,761.2448 L977.6948,761.2669 L979.5,761.5547 L979.5211,761.5764 L981.2901,763.2945 L983.1553,765.1116 L984.9741,766.8809 L986.8815,768.7413 L988.5,770.3047 L989.0965,770.3047 L989.1038,775.5047 L988.7263,780.7047 L988.9121,785.9047 L989.1242,791.1047 L988.5,796.3047 L988.5,796.3047 L988.2766,796.0749 L986.9102,798.2709 L984.8081,799.7102 L983.2654,801.7248 L981.1466,803.1469 L979.5,805.0547 L979.4958,805.0245 L977.7453,805.6312 L975.897,805.5332 L974.1064,805.851 L972.3207,806.2038 L970.5,806.3047 L970.5,806.3047 L970.5254,806.4879 L968.6998,806.053 L966.9176,805.9311 L965.065,805.3027 L963.3174,805.4299 L961.5,805.0547 L961.6698,805.2294 L959.8377,803.4463 L958.0899,801.75 L955.9503,799.6507 L954.0979,797.8469 L952.5,796.3047 L951.9476,796.3047 L952.4477,791.1047 L952.3253,785.9047 L953.1057,780.7047 L952.3447,775.5047 L952.5,770.3047 " fill="#E3E3E3" style="stroke:#181818;stroke-width:1.5;"/><path d="M952.5,770.3047 L952.5,770.3047 L952.5651,770.3717 L954.1716,771.9227 L956.1599,773.8663 L958.0238,775.6821 L959.479,777.0774 L961.5,779.0547 L961.4952,779.0205 L963.2739,779.1169 L965.0766,779.3859 L966.8958,779.7747 L968.6577,779.7503 L970.5,780.3047 L970.5,780.3047 L970.5339,780.5484 L972.2615,779.7772 L974.0879,779.7176 L975.9264,779.7448 L977.6948,779.2669 L979.5,779.0547 L979.5211,779.0764 L981.2901,777.2945 L983.1553,775.6116 L984.9741,773.8809 L986.8815,772.2413 L988.5,770.3047 " fill="none" style="stroke:#181818;stroke-width:1.5;"/><polygon fill="#FFFFFF" points="194.5,121.5332,194.5,121.6033,196.5,121.3951,198.5,121.5976,200.5,121.6664,202.5,121.2954,204.5,121.5332,204.4223,121.5332,204.0735,131.6113,204.1165,141.6894,204.4318,151.7675,203.8086,161.8456,205.0536,171.9237,203.8697,182.0018,204.3022,192.0798,204.9319,202.1579,204.4142,212.236,204.5682,222.3141,204.4681,232.3922,204.6785,242.4703,204.7391,252.5484,205.0857,262.6265,205.1711,272.7046,205.1793,282.7827,204.7546,292.8608,204.9636,302.9388,205.2022,313.0169,203.7788,323.095,205.1785,333.1731,204.2035,343.2512,205.0338,353.3293,204.005,363.4074,204.4315,373.4855,205.2416,383.5636,204.4513,393.6417,204.6053,403.7198,204.8386,413.7979,204.9162,423.8759,204.4961,433.954,204.7872,444.0321,203.9276,454.1102,204.7844,464.1883,205.0482,474.2664,204.9445,484.3445,205.113,494.4226,204.0169,504.5007,203.8478,514.5788,203.8786,524.6569,204.4411,534.7349,204.3035,544.813,205.1814,554.8911,204.3253,564.9692,204.1569,575.0473,204.7283,585.1254,203.8332,595.2035,203.9809,605.2816,205.149,615.3597,204.9357,625.4378,205.2345,635.5159,204.1782,645.594,204.8192,655.672,205.0904,665.7501,204.0276,675.8282,204.4041,685.9063,204.626,695.9844,204.5,706.0625,204.5,706.2798,202.5,706.0611,200.5,706.2167,198.5,705.8779,196.5,705.8367,194.5,706.0625,195.0036,706.0625,193.7831,695.9844,195.009,685.9063,194.7066,675.8282,194.2321,665.7501,194.1462,655.672,194.9588,645.594,194.2007,635.5159,195.0919,625.4378,193.9473,615.3597,195.1174,605.2816,194.9843,595.2035,194.745,585.1254,194.5472,575.0473,195.2266,564.9692,195.1136,554.8911,194.6693,544.813,194.7682,534.7349,194.3697,524.6569,195.2165,514.5788,194.6549,504.5007,194.6726,494.4226,193.8916,484.3445,194.0948,474.2664,195.0307,464.1883,194.9298,454.1102,194.4571,444.0321,194.1778,433.954,194.2811,423.8759,193.8138,413.7979,194.9147,403.7198,195.2396,393.6417,195.0264,383.5636,195.1949,373.4855,194.3633,363.4074,194.5872,353.3293,194.1124,343.2512,194.784,333.1731,194.7468,323.095,195.0524,313.0169,194.2703,302.9388,194.3656,292.8608,194.9435,282.7827,195.0673,272.7046,193.9875,262.6265,194.3061,252.5484,194.6493,242.4703,193.8892,232.3922,194.8534,222.3141,194.758,212.236,194.3992,202.1579,194.6422,192.0798,195.2287,182.0018,194.1871,171.9237,194.815,161.8456,194.7856,151.7675,194.6158,141.6894,194.6409,131.6113,194.5,121.5332" style="stroke:#181818;stroke-width:1.0;"/><polygon fill="#FFFFFF" points="336.5,184.1152,336.5,184.1853,338.5,183.9771,340.5,184.1797,342.5,184.2485,344.5,183.8774,346.5,184.1152,346.4223,184.1152,346.0735,194.2671,346.1165,204.4189,346.4318,214.5708,345.8086,224.7227,347.0536,234.8745,345.8697,245.0264,346.3022,255.1782,346.9319,265.3301,346.4142,275.4819,346.5682,285.6338,346.4681,295.7856,346.6785,305.9375,346.7391,316.0894,347.0857,326.2412,347.1711,336.3931,347.1793,346.5449,346.7546,356.6968,346.9636,366.8486,347.2022,377.0005,346.5,387.1523,346.5,386.9119,344.5,387.3785,342.5,387.0535,340.5,387.3303,338.5,386.9873,336.5,387.1523,336.4315,387.1523,337.2416,377.0005,336.4513,366.8486,336.6053,356.6968,336.8386,346.5449,336.9162,336.3931,336.4961,326.2412,336.7872,316.0894,335.9276,305.9375,336.7844,295.7856,337.0482,285.6338,336.9445,275.4819,337.113,265.3301,336.0169,255.1782,335.8478,245.0264,335.8786,234.8745,336.4411,224.7227,336.3035,214.5708,337.1814,204.4189,336.3253,194.2671,336.5,184.1152" style="stroke:#181818;stroke-width:1.0;"/><polygon fill="#FFFFFF" points="336.5,481.0254,336.5,481.0955,338.5,480.8873,340.5,481.0898,342.5,481.1586,344.5,480.7876,346.5,481.0254,346.4223,481.0254,346.0735,491.2226,346.1165,501.4197,346.4318,511.6169,345.8086,521.814,347.0536,532.0112,345.8697,542.2084,346.3022,552.4055,346.9319,562.6027,346.4142,572.7999,346.5682,582.997,346.4681,593.1942,346.6785,603.3913,346.7391,613.5885,347.0857,623.7857,347.1711,633.9828,347.1793,644.18,346.7546,654.3772,346.9636,664.5743,346.5,674.7715,346.5,675.0056,344.5,674.5311,342.5,674.9977,340.5,674.6726,338.5,674.9494,336.5,674.7715,336.005,674.7715,336.4315,664.5743,337.2416,654.3772,336.4513,644.18,336.6053,633.9828,336.8386,623.7857,336.9162,613.5885,336.4961,603.3913,336.7872,593.1942,335.9276,582.997,336.7844,572.7999,337.0482,562.6027,336.9445,552.4055,337.113,542.2084,336.0169,532.0112,335.8478,521.814,335.8786,511.6169,336.4411,501.4197,336.3035,491.2226,336.5,481.0254" style="stroke:#181818;stroke-width:1.0;"/><polygon fill="#FFFFFF" points="474.5,512.3164,474.5,512.3865,476.5,512.1783,478.5,512.3808,480.5,512.4496,482.5,512.0786,484.5,512.3164,484.4741,512.3164,484.3578,518.5746,484.3722,524.8328,484.4773,531.091,484.2695,537.3492,484.5,543.6074,484.5,543.792,482.5,543.3973,480.5,543.5415,478.5,543.7514,476.5,543.5788,474.5,543.6074,474.5227,543.6074,474.4894,537.3492,474.5595,531.091,474.5797,524.8328,474.6952,518.5746,474.5,512.3164" style="stroke:#181818;stroke-width:1.0;"/><polygon fill="#FFFFFF" points="633.5,574.8984,633.5,574.9685,635.5,574.7603,637.5,574.9629,639.5,575.0317,641.5,574.6606,643.5,574.8984,643.4223,574.8984,643.0735,584.6959,643.1165,594.4933,643.4318,604.2907,642.8086,614.0882,644.0536,623.8856,642.8697,633.683,643.5,643.4805,643.5,643.4145,641.5,643.6245,639.5,643.4519,637.5,643.5032,635.5,643.4698,633.5,643.4805,633.6785,643.4805,633.7391,633.683,634.0857,623.8856,634.1711,614.0882,634.1793,604.2907,633.7546,594.4933,633.9636,584.6959,633.5,574.8984" style="stroke:#181818;stroke-width:1.0;"/><polygon fill="#FFFFFF" points="965.5,324.5703,965.5,324.6404,967.5,324.4322,969.5,324.6347,971.5,324.7035,973.5,324.3325,975.5,324.5703,975.4741,324.5703,975.3578,330.8285,975.3722,337.0867,975.4773,343.3449,975.2695,349.6031,975.5,355.8613,975.5,356.0459,973.5,355.6512,971.5,355.7954,969.5,356.0053,967.5,355.8327,965.5,355.8613,965.5227,355.8613,965.4894,349.6031,965.5595,343.3449,965.5797,337.0867,965.6952,330.8285,965.5,324.5703" style="stroke:#181818;stroke-width:1.0;"/><polygon fill="#181818" points="182.5,117.5332,182.526,117.5983,184.4487,118.205,186.5239,119.193,188.5495,120.0569,190.4117,120.5124,192.5,121.5332,192.4904,121.5092,190.4472,122.2012,188.4525,123.0145,186.4916,123.9121,184.4144,124.5192,182.5,125.5332,182.6305,125.6637,183.1514,124.5846,184.0534,123.8866,185.0018,123.235,185.6798,122.313,186.5,121.5332,186.5161,121.5493,185.6925,120.7257,184.9421,119.9753,184.1564,119.1896,183.438,118.4713,182.5,117.5332" style="stroke:#181818;stroke-width:1.0;"/><path d="M27.5,121.5332 L27.5,121.8134 L37.5625,120.9808 L47.625,121.7909 L57.6875,122.0661 L67.75,120.582 L77.8125,121.4296 L87.875,120.9645 L97.9375,121.0219 L108,121.4423 L118.0625,120.6114 L128.125,122.2714 L138.1875,120.6928 L148.25,121.2695 L158.3125,122.1091 L168.375,121.4188 L178.4375,121.6242 L188.5,121.5332 " fill="none" style="stroke:#181818;stroke-width:1.0;stroke-dasharray:2.0,2.0;"/><text fill="#000000" font-family="FG Virgil" font-size="13" lengthAdjust="spacing" textLength="77" x="34.5" y="116.2705">Activate User</text><polygon fill="#181818" points="329.5,148.8242,329.526,148.8893,331.4487,149.496,333.5239,150.484,335.5495,151.3479,337.4117,151.8034,339.5,152.8242,339.4904,152.8002,337.4472,153.4922,335.4525,154.3055,333.4916,155.2031,331.4144,155.8102,329.5,156.8242,329.6305,156.9547,330.1514,155.8757,331.0534,155.1776,332.0018,154.526,332.6798,153.604,333.5,152.8242,333.5161,152.8403,332.6925,152.0167,331.9421,151.2663,331.1564,150.4806,330.438,149.7623,329.5,148.8242" style="stroke:#181818;stroke-width:1.0;"/><path d="M204.5,152.8242 L204.5,153.1045 L214.5769,152.2718 L224.6538,153.0819 L234.7308,153.3571 L244.8077,151.873 L254.8846,152.7206 L264.9615,152.2556 L275.0385,152.3129 L285.1154,152.7333 L295.1923,151.9024 L305.2692,153.5624 L315.3462,151.9838 L325.4231,152.5605 L335.5,152.8242 " fill="none" style="stroke:#181818;stroke-width:1.0;"/><text fill="#000000" font-family="FG Virgil" font-size="13" lengthAdjust="spacing" textLength="36" x="211.5" y="147.5615">create</text><polygon fill="#181818" points="324.5,180.1152,324.526,180.1803,326.4487,180.787,328.5239,181.7751,330.5495,182.6389,332.4117,183.0944,334.5,184.1152,334.4904,184.0912,332.4472,184.7832,330.4525,185.5965,328.4916,186.4941,326.4144,187.1013,324.5,188.1152,324.6305,188.2457,325.1514,187.1667,326.0534,186.4686,327.0018,185.817,327.6798,184.895,328.5,184.1152,328.5161,184.1313,327.6925,183.3077,326.9421,182.5573,326.1564,181.7716,325.438,181.0533,324.5,180.1152" style="stroke:#181818;stroke-width:1.0;"/><path d="M204.5,184.1152 L204.5,184.3955 L214.1923,183.5628 L223.8846,184.3729 L233.5769,184.6481 L243.2692,183.164 L252.9615,184.0116 L262.6538,183.5466 L272.3462,183.6039 L282.0385,184.0244 L291.7308,183.1934 L301.4231,184.8534 L311.1154,183.2749 L320.8077,183.8515 L330.5,184.1152 " fill="none" style="stroke:#181818;stroke-width:1.0;"/><text fill="#000000" font-family="FG Virgil" font-size="13" lengthAdjust="spacing" textLength="90" x="211.5" y="178.8525">disabledUsers()</text><path d="M351,197.1152 L351.1868,197.1152 L350.6317,205.9152 L351.1718,214.7152 L351.3553,223.5152 L350.3659,232.3152 L351,241.1152 L351,240.908 L361.0435,239.9779 L371.087,240.0926 L381.1304,240.9335 L391.1739,239.2716 L401.2174,242.5916 L411.2609,239.4345 L421.3043,240.5879 L431.3478,242.2671 L441.3913,240.8865 L451.4348,241.2972 L461.4783,241.03 L471.5217,241.5913 L481.5652,241.7529 L491.6087,242.6771 L501.6522,242.9047 L511.6957,242.9266 L521.7391,241.7942 L531.7826,242.3515 L541.8261,242.9879 L551.8696,239.1921 L561.913,242.9246 L571.9565,240.3246 L582,241.1152 L582.4745,241.1152 L581.56,234.3152 L581.9391,227.5152 L582.6592,220.7152 L581.9567,213.9152 L582,207.1152 L582.0662,207.1814 L580.2128,205.3281 L578.2616,203.3769 L575.9975,201.1128 L574.1805,199.2958 L572,197.1152 L572,195.5888 L561.9545,197.8736 L551.9091,198.5771 L541.8636,198.3007 L531.8182,198.75 L521.7727,195.827 L511.7273,195.3761 L501.6818,195.4582 L491.6364,196.9582 L481.5909,196.5912 L471.5455,198.9323 L461.5,196.6494 L451.4545,196.2004 L441.4091,197.7239 L431.3636,195.337 L421.3182,195.7309 L411.2727,198.8458 L401.2273,198.277 L391.1818,199.0739 L381.1364,196.2571 L371.0909,197.9664 L361.0455,198.6897 L351,197.1152 " fill="#FAFAFA" style="stroke:#181818;stroke-width:0.5;"/><path d="M572,197.1152 L571.5801,197.1152 L571.9148,199.1152 L572.112,201.1152 L572.5793,203.1152 L571.9963,205.1152 L572,207.1152 L572,207.5264 L574,206.623 L576,206.5132 L578,207.5629 L580,206.478 L582,207.1152 L582.3199,207.4351 L580.1299,205.2451 L577.8316,202.9468 L575.7776,200.8929 L574.2883,199.4036 L572,197.1152 " fill="#FAFAFA" style="stroke:#181818;stroke-width:0.5;"/><text fill="#000000" font-family="FG Virgil" font-size="13" lengthAdjust="spacing" textLength="206" x="357" y="216.1436">hidden authorization user guarantee</text><text fill="#000000" font-family="FG Virgil" font-size="13" lengthAdjust="spacing" textLength="127" x="357" y="233.4346">(see specific diagram)</text><path d="M351,251.6973 L351.1868,251.6973 L350.6317,260.4973 L351.1718,269.2973 L351.3553,278.0973 L350.3659,286.8973 L351,295.6973 L351,295.49 L360.8667,294.5599 L370.7333,294.6746 L380.6,295.5155 L390.4667,293.8536 L400.3333,297.1736 L410.2,294.0165 L420.0667,295.1699 L429.9333,296.8491 L439.8,295.4685 L449.6667,295.8792 L459.5333,295.6121 L469.4,296.1733 L479.2667,296.335 L489.1333,297.2591 L499,295.6973 L499.5965,295.6973 L499.6038,288.8973 L499.2263,282.0973 L499.4121,275.2973 L499.6242,268.4973 L499,261.6973 L498.5467,261.244 L497.4265,260.1237 L494.8136,257.5109 L493.3355,256.0328 L490.6889,253.3861 L489,251.6973 L489,251.5146 L479.1429,253.6749 L469.2857,251.5673 L459.4286,251.9781 L449.5714,252.6003 L439.7143,252.8072 L429.8571,251.6868 L420,252.4632 L410.1429,250.1708 L400.2857,252.4556 L390.4286,253.1591 L380.5714,252.8827 L370.7143,253.332 L360.8571,250.4091 L351,251.6973 " fill="#FAFAFA" style="stroke:#181818;stroke-width:0.5;"/><path d="M489,251.6973 L488.4203,251.6973 L488.4476,253.6973 L488.9477,255.6973 L488.8253,257.6973 L489.6057,259.6973 L489,261.6973 L489,261.542 L491,261.3923 L493,261.9002 L495,261.1045 L497,261.2358 L499,261.6973 L499.4079,262.1052 L497.2738,259.9711 L495.4617,258.1589 L492.7977,255.495 L491.2006,253.8979 L489,251.6973 " fill="#FAFAFA" style="stroke:#181818;stroke-width:0.5;"/><text fill="#000000" font-family="FG Virgil" font-size="13" lengthAdjust="spacing" textLength="127" x="357" y="270.7256">Simplified persistence</text><text fill="#000000" font-family="FG Virgil" font-size="13" lengthAdjust="spacing" textLength="127" x="357" y="288.0166">(see specific diagram)</text><polygon fill="#181818" points="953.5,320.5703,953.526,320.6354,955.4487,321.2421,957.5239,322.2301,959.5495,323.094,961.4117,323.5495,963.5,324.5703,963.4904,324.5463,961.4472,325.2383,959.4525,326.0516,957.4916,326.9492,955.4144,327.5563,953.5,328.5703,953.6305,328.7008,954.1514,327.6218,955.0534,326.9237,956.0018,326.2721,956.6798,325.3501,957.5,324.5703,957.5161,324.5864,956.6925,323.7628,955.9421,323.0124,955.1564,322.2267,954.438,321.5084,953.5,320.5703" style="stroke:#181818;stroke-width:1.0;"/><path d="M346.5,324.5703 L346.5,324.8506 L356.5492,324.0179 L366.5984,324.828 L376.6475,325.1032 L386.6967,323.6191 L396.7459,324.4667 L406.7951,324.0017 L416.8443,324.059 L426.8934,324.4794 L436.9426,323.6485 L446.9918,325.3085 L457.041,323.7299 L467.0902,324.3066 L477.1393,325.1462 L487.1885,324.4559 L497.2377,324.6613 L507.2869,324.5277 L517.3361,324.8083 L527.3852,324.8892 L537.4344,325.3512 L547.4836,325.4651 L557.5328,325.476 L567.582,324.9098 L577.6311,325.1884 L587.6803,325.5066 L597.7295,323.6087 L607.7787,325.475 L617.8279,324.175 L627.877,325.2821 L637.9262,323.9103 L647.9754,324.479 L658.0246,325.5591 L668.0738,324.5053 L678.123,324.7107 L688.1721,325.0218 L698.2213,325.1253 L708.2705,324.5651 L718.3197,324.9533 L728.3689,323.8071 L738.418,324.9495 L748.4672,325.3012 L758.5164,325.163 L768.5656,325.3877 L778.6148,323.9262 L788.6639,323.7007 L798.7131,323.7418 L808.7623,324.4918 L818.8115,324.3083 L828.8607,325.4789 L838.9098,324.3374 L848.959,324.1129 L859.0082,324.8747 L869.0574,323.6812 L879.1066,323.8781 L889.1557,325.4356 L899.2049,325.1512 L909.2541,325.5496 L919.3033,324.1413 L929.3525,324.9959 L939.4016,325.3575 L949.4508,323.9404 L959.5,324.5703 " fill="none" style="stroke:#181818;stroke-width:1.0;"/><text fill="#000000" font-family="FG Virgil" font-size="13" lengthAdjust="spacing" textLength="93" x="353.5" y="319.3076">findAllDisabled()</text><polygon fill="#181818" points="357.5,351.8613,357.526,351.9264,355.4487,352.5331,353.5239,353.5211,351.5495,354.385,349.4117,354.8405,347.5,355.8613,347.4904,355.8373,349.4472,356.5293,351.4525,357.3426,353.4916,358.2402,355.4144,358.8474,357.5,359.8613,357.6305,359.9918,356.5514,358.9128,355.8534,358.2147,355.2018,357.5631,354.2798,356.6411,353.5,355.8613,353.5161,355.8774,354.2925,355.0538,355.1421,354.3034,355.9564,353.5177,356.838,352.7994,357.5,351.8613" style="stroke:#181818;stroke-width:1.0;"/><path d="M351.5,355.8613 L351.5,356.1416 L361.4677,355.3089 L371.4355,356.119 L381.4032,356.3942 L391.371,354.9101 L401.3387,355.7577 L411.3065,355.2927 L421.2742,355.35 L431.2419,355.7705 L441.2097,354.9395 L451.1774,356.5995 L461.1452,355.021 L471.1129,355.5976 L481.0806,356.4373 L491.0484,355.747 L501.0161,355.9523 L510.9839,355.8187 L520.9516,356.0994 L530.9194,356.1802 L540.8871,356.6422 L550.8548,356.7561 L560.8226,356.767 L570.7903,356.2008 L580.7581,356.4794 L590.7258,356.7976 L600.6935,354.8997 L610.6613,356.766 L620.629,355.466 L630.5968,356.5731 L640.5645,355.2013 L650.5323,355.77 L660.5,356.8501 L670.4677,355.7963 L680.4355,356.0017 L690.4032,356.3128 L700.371,356.4163 L710.3387,355.8561 L720.3065,356.2443 L730.2742,355.0981 L740.2419,356.2405 L750.2097,356.5923 L760.1774,356.454 L770.1452,356.6787 L780.1129,355.2172 L790.0806,354.9918 L800.0484,355.0328 L810.0161,355.7828 L819.9839,355.5993 L829.9516,356.7699 L839.9194,355.6284 L849.8871,355.4039 L859.8548,356.1657 L869.8226,354.9722 L879.7903,355.1692 L889.7581,356.7266 L899.7258,356.4422 L909.6935,356.8406 L919.6613,355.4323 L929.629,356.2869 L939.5968,356.6486 L949.5645,355.2315 L959.5323,355.7335 L969.5,355.8613 " fill="none" style="stroke:#181818;stroke-width:1.0;stroke-dasharray:2.0,2.0;"/><text fill="#000000" font-family="FG Virgil" font-size="13" lengthAdjust="spacing" textLength="82" x="363.5" y="350.5986">disabledUsers</text><polygon fill="#181818" points="215.5,383.1523,215.526,383.2174,213.4487,383.8241,211.5239,384.8122,209.5495,385.676,207.4117,386.1316,205.5,387.1523,205.4904,387.1283,207.4472,387.8203,209.4525,388.6337,211.4916,389.5312,213.4144,390.1384,215.5,391.1523,215.6305,391.2828,214.5514,390.2038,213.8534,389.5057,213.2018,388.8542,212.2798,387.9321,211.5,387.1523,211.5161,387.1684,212.2925,386.3448,213.1421,385.5944,213.9564,384.8087,214.838,384.0904,215.5,383.1523" style="stroke:#181818;stroke-width:1.0;"/><path d="M209.5,387.1523 L209.5,387.4326 L219.5769,386.5999 L229.6538,387.4101 L239.7308,387.6852 L249.8077,386.2012 L259.8846,387.0487 L269.9615,386.5837 L280.0385,386.641 L290.1154,387.0615 L300.1923,386.2305 L310.2692,387.8905 L320.3462,386.312 L330.4231,386.8887 L340.5,387.1523 " fill="none" style="stroke:#181818;stroke-width:1.0;stroke-dasharray:2.0,2.0;"/><text fill="#000000" font-family="FG Virgil" font-size="13" lengthAdjust="spacing" textLength="82" x="221.5" y="381.8896">disabledUsers</text><polygon fill="#181818" points="38.5,414.4434,38.526,414.5084,36.4487,415.1151,34.5239,416.1032,32.5495,416.9671,30.4117,417.4226,28.5,418.4434,28.4904,418.4193,30.4472,419.1114,32.4525,419.9247,34.4916,420.8223,36.4144,421.4294,38.5,422.4434,38.6305,422.5739,37.5514,421.4948,36.8534,420.7967,36.2018,420.1452,35.2798,419.2231,34.5,418.4434,34.5161,418.4594,35.2925,417.6358,36.1421,416.8854,36.9564,416.0997,37.838,415.3814,38.5,414.4434" style="stroke:#181818;stroke-width:1.0;"/><path d="M32.5,418.4434 L32.5,418.7236 L42.5625,417.8909 L52.625,418.7011 L62.6875,418.9763 L72.75,417.4922 L82.8125,418.3397 L92.875,417.8747 L102.9375,417.932 L113,418.3525 L123.0625,417.5215 L133.125,419.1815 L143.1875,417.603 L153.25,418.1797 L163.3125,419.0193 L173.375,418.329 L183.4375,418.5343 L193.5,418.4434 " fill="none" style="stroke:#181818;stroke-width:1.0;stroke-dasharray:2.0,2.0;"/><text fill="#000000" font-family="FG Virgil" font-size="13" lengthAdjust="spacing" textLength="124" x="44.5" y="413.1807">Show Disabled Users</text><polygon fill="#181818" points="182.5,445.7344,182.526,445.7994,184.4487,446.4061,186.5239,447.3942,188.5495,448.2581,190.4117,448.7136,192.5,449.7344,192.4904,449.7103,190.4472,450.4024,188.4525,451.2157,186.4916,452.1133,184.4144,452.7204,182.5,453.7344,182.6305,453.8649,183.1514,452.7858,184.0534,452.0878,185.0018,451.4362,185.6798,450.5142,186.5,449.7344,186.5161,449.7505,185.6925,448.9268,184.9421,448.1765,184.1564,447.3907,183.438,446.6724,182.5,445.7344" style="stroke:#181818;stroke-width:1.0;"/><path d="M27.5,449.7344 L27.5,450.0146 L37.5625,449.1819 L47.625,449.9921 L57.6875,450.2673 L67.75,448.7832 L77.8125,449.6308 L87.875,449.1657 L97.9375,449.223 L108,449.6435 L118.0625,448.8125 L128.125,450.4726 L138.1875,448.894 L148.25,449.4707 L158.3125,450.3103 L168.375,449.62 L178.4375,449.8254 L188.5,449.7344 " fill="none" style="stroke:#181818;stroke-width:1.0;stroke-dasharray:2.0,2.0;"/><text fill="#000000" font-family="FG Virgil" font-size="13" lengthAdjust="spacing" textLength="68" x="34.5" y="444.4717">Select User</text><polygon fill="#181818" points="324.5,477.0254,324.526,477.0904,326.4487,477.6972,328.5239,478.6852,330.5495,479.5491,332.4117,480.0046,334.5,481.0254,334.4904,481.0013,332.4472,481.6934,330.4525,482.5067,328.4916,483.4043,326.4144,484.0114,324.5,485.0254,324.6305,485.1559,325.1514,484.0768,326.0534,483.3788,327.0018,482.7272,327.6798,481.8052,328.5,481.0254,328.5161,481.0415,327.6925,480.2179,326.9421,479.4675,326.1564,478.6818,325.438,477.9634,324.5,477.0254" style="stroke:#181818;stroke-width:1.0;"/><path d="M204.5,481.0254 L204.5,481.3056 L214.1923,480.473 L223.8846,481.2831 L233.5769,481.5583 L243.2692,480.0742 L252.9615,480.9218 L262.6538,480.4567 L272.3462,480.5141 L282.0385,480.9345 L291.7308,480.1036 L301.4231,481.7636 L311.1154,480.185 L320.8077,480.7617 L330.5,481.0254 " fill="none" style="stroke:#181818;stroke-width:1.0;"/><text fill="#000000" font-family="FG Virgil" font-size="13" lengthAdjust="spacing" textLength="98" x="211.5" y="475.7627">enableUser(user)</text><polygon fill="#181818" points="462.5,508.3164,462.526,508.3815,464.4487,508.9882,466.5239,509.9762,468.5495,510.8401,470.4117,511.2956,472.5,512.3164,472.4904,512.2924,470.4472,512.9844,468.4525,513.7977,466.4916,514.6953,464.4144,515.3024,462.5,516.3164,462.6305,516.4469,463.1514,515.3678,464.0534,514.6698,465.0018,514.0182,465.6798,513.0962,466.5,512.3164,466.5161,512.3325,465.6925,511.5089,464.9421,510.7585,464.1564,509.9728,463.438,509.2545,462.5,508.3164" style="stroke:#181818;stroke-width:1.0;"/><path d="M346.5,512.3164 L346.5,512.5966 L356.6667,511.764 L366.8333,512.5741 L377,512.8493 L387.1667,511.3652 L397.3333,512.2128 L407.5,511.7477 L417.6667,511.8051 L427.8333,512.2255 L438,511.3946 L448.1667,513.0546 L458.3333,511.476 L468.5,512.3164 " fill="none" style="stroke:#181818;stroke-width:1.0;"/><text fill="#000000" font-family="FG Virgil" font-size="13" lengthAdjust="spacing" textLength="75" x="353.5" y="507.0537">userService()</text><polygon fill="#181818" points="357.5,539.6074,357.526,539.6725,355.4487,540.2792,353.5239,541.2672,351.5495,542.1311,349.4117,542.5866,347.5,543.6074,347.4904,543.5834,349.4472,544.2754,351.4525,545.0887,353.4916,545.9863,355.4144,546.5934,357.5,547.6074,357.6305,547.7379,356.5514,546.6589,355.8534,545.9608,355.2018,545.3092,354.2798,544.3872,353.5,543.6074,353.5161,543.6235,354.2925,542.7999,355.1421,542.0495,355.9564,541.2638,356.838,540.5455,357.5,539.6074" style="stroke:#181818;stroke-width:1.0;"/><path d="M351.5,543.6074 L351.5,543.8877 L361.2692,543.055 L371.0385,543.8651 L380.8077,544.1403 L390.5769,542.6562 L400.3462,543.5038 L410.1154,543.0388 L419.8846,543.0961 L429.6538,543.5165 L439.4231,542.6856 L449.1923,544.3456 L458.9615,542.767 L468.7308,543.3437 L478.5,543.6074 " fill="none" style="stroke:#181818;stroke-width:1.0;stroke-dasharray:2.0,2.0;"/><text fill="#000000" font-family="FG Virgil" font-size="13" lengthAdjust="spacing" textLength="19" x="363.5" y="538.3447">svc</text><polygon fill="#181818" points="621.5,570.8984,621.526,570.9635,623.4487,571.5702,625.5239,572.5583,627.5495,573.4221,629.4117,573.8776,631.5,574.8984,631.4904,574.8744,629.4472,575.5664,627.4525,576.3797,625.4916,577.2773,623.4144,577.8845,621.5,578.8984,621.6305,579.0289,622.1514,577.9499,623.0534,577.2518,624.0018,576.6002,624.6798,575.6782,625.5,574.8984,625.5161,574.9145,624.6925,574.0909,623.9421,573.3405,623.1564,572.5548,622.438,571.8365,621.5,570.8984" style="stroke:#181818;stroke-width:1.0;"/><path d="M346.5,574.8984 L346.5,575.1787 L356.5357,574.346 L366.5714,575.1562 L376.6071,575.4313 L386.6429,573.9472 L396.6786,574.7948 L406.7143,574.3298 L416.75,574.3871 L426.7857,574.8076 L436.8214,573.9766 L446.8571,575.6366 L456.8929,574.0581 L466.9286,574.6347 L476.9643,575.4744 L487,574.7841 L497.0357,574.9894 L507.0714,574.8558 L517.1071,575.1365 L527.1429,575.2173 L537.1786,575.6794 L547.2143,575.7932 L557.25,575.8041 L567.2857,575.2379 L577.3214,575.5166 L587.3571,575.8347 L597.3929,573.9369 L607.4286,575.8031 L617.4643,574.5031 L627.5,574.8984 " fill="none" style="stroke:#181818;stroke-width:1.0;"/><text fill="#000000" font-family="FG Virgil" font-size="13" lengthAdjust="spacing" textLength="104" x="353.5" y="569.6357">activateUser(user)</text><path d="M648,587.8984 L648.1868,587.8984 L647.6317,593.2984 L648.1718,598.6984 L648.3553,604.0984 L647.3659,609.4984 L648,614.8984 L648,614.6912 L657.8333,613.7611 L667.6667,613.8758 L677.5,614.7167 L687.3333,613.0548 L697.1667,616.3748 L707,613.2177 L716.8333,614.3711 L726.6667,616.0503 L736.5,614.6697 L746.3333,615.0804 L756.1667,614.8132 L766,615.3745 L775.8333,615.5361 L785.6667,616.4603 L795.5,616.6879 L805.3333,616.7098 L815.1667,615.5774 L825,614.8984 L825.4121,614.8984 L825.6242,611.4984 L824.3589,608.0984 L825.6031,604.6984 L824.7364,601.2984 L825,597.8984 L825.3355,598.234 L822.6889,595.5873 L820.9569,593.8554 L819.4661,592.3646 L816.9694,589.8678 L815,587.8984 L815,588.1792 L805.1765,588.8014 L795.3529,589.0084 L785.5294,587.888 L775.7059,588.6643 L765.8824,586.372 L756.0588,588.6568 L746.2353,589.3603 L736.4118,589.0839 L726.5882,589.5332 L716.7647,586.6102 L706.9412,586.1593 L697.1176,586.2414 L687.2941,587.7414 L677.4706,587.3744 L667.6471,589.7155 L657.8235,587.4326 L648,587.8984 " fill="#FAFAFA" style="stroke:#181818;stroke-width:0.5;"/><path d="M815,587.8984 L814.6951,587.8984 L815.2029,589.8984 L814.4073,591.8984 L814.5386,593.8984 L815.5768,595.8984 L815,597.8984 L815,598.2857 L817,598.5513 L819,597.6124 L821,598.1822 L823,598.4233 L825,597.8984 L824.7031,597.6015 L822.9397,595.8382 L821.0792,593.9776 L819.4097,592.3081 L816.9974,589.8958 L815,587.8984 " fill="#FAFAFA" style="stroke:#181818;stroke-width:0.5;"/><text fill="#000000" font-family="FG Virgil" font-size="13" lengthAdjust="spacing" textLength="156" x="654" y="606.9268">Framework implementation</text><polygon fill="#181818" points="357.5,639.4805,357.526,639.5455,355.4487,640.1522,353.5239,641.1403,351.5495,642.0042,349.4117,642.4597,347.5,643.4805,347.4904,643.4564,349.4472,644.1485,351.4525,644.9618,353.4916,645.8594,355.4144,646.4665,357.5,647.4805,357.6305,647.611,356.5514,646.5319,355.8534,645.8339,355.2018,645.1823,354.2798,644.2603,353.5,643.4805,353.5161,643.4966,354.2925,642.6729,355.1421,641.9225,355.9564,641.1368,356.838,640.4185,357.5,639.4805" style="stroke:#181818;stroke-width:1.0;"/><path d="M351.5,643.4805 L351.5,643.7607 L361.3621,642.928 L371.2241,643.7382 L381.0862,644.0134 L390.9483,642.5293 L400.8103,643.3769 L410.6724,642.9118 L420.5345,642.9691 L430.3966,643.3896 L440.2586,642.5586 L450.1207,644.2187 L459.9828,642.6401 L469.8448,643.2168 L479.7069,644.0564 L489.569,643.3661 L499.431,643.5715 L509.2931,643.4379 L519.1552,643.7185 L529.0172,643.7993 L538.8793,644.2614 L548.7414,644.3752 L558.6034,644.3861 L568.4655,643.82 L578.3276,644.0986 L588.1897,644.4168 L598.0517,642.5189 L607.9138,644.3851 L617.7759,643.0851 L627.6379,644.1922 L637.5,643.4805 " fill="none" style="stroke:#181818;stroke-width:1.0;stroke-dasharray:2.0,2.0;"/><text fill="#000000" font-family="FG Virgil" font-size="13" lengthAdjust="spacing" textLength="25" x="363.5" y="638.2178">user</text><polygon fill="#181818" points="215.5,670.7715,215.526,670.8365,213.4487,671.4433,211.5239,672.4313,209.5495,673.2952,207.4117,673.7507,205.5,674.7715,205.4904,674.7474,207.4472,675.4395,209.4525,676.2528,211.4916,677.1504,213.4144,677.7575,215.5,678.7715,215.6305,678.902,214.5514,677.8229,213.8534,677.1249,213.2018,676.4733,212.2798,675.5513,211.5,674.7715,211.5161,674.7876,212.2925,673.964,213.1421,673.2136,213.9564,672.4278,214.838,671.7095,215.5,670.7715" style="stroke:#181818;stroke-width:1.0;"/><path d="M209.5,674.7715 L209.5,675.0517 L219.5769,674.2191 L229.6538,675.0292 L239.7308,675.3044 L249.8077,673.8203 L259.8846,674.6679 L269.9615,674.2028 L280.0385,674.2602 L290.1154,674.6806 L300.1923,673.8497 L310.2692,675.5097 L320.3462,673.9311 L330.4231,674.5078 L340.5,674.7715 " fill="none" style="stroke:#181818;stroke-width:1.0;"/><text fill="#000000" font-family="FG Virgil" font-size="13" lengthAdjust="spacing" textLength="25" x="221.5" y="669.5088">user</text><polygon fill="#181818" points="38.5,702.0625,38.526,702.1275,36.4487,702.7343,34.5239,703.7223,32.5495,704.5862,30.4117,705.0417,28.5,706.0625,28.4904,706.0384,30.4472,706.7305,32.4525,707.5438,34.4916,708.4414,36.4144,709.0485,38.5,710.0625,38.6305,710.193,37.5514,709.1139,36.8534,708.4159,36.2018,707.7643,35.2798,706.8423,34.5,706.0625,34.5161,706.0786,35.2925,705.255,36.1421,704.5046,36.9564,703.7189,37.838,703.0005,38.5,702.0625" style="stroke:#181818;stroke-width:1.0;"/><path d="M32.5,706.0625 L32.5,706.3427 L42.2647,705.5101 L52.0294,706.3202 L61.7941,706.5954 L71.5588,705.1113 L81.3235,705.9589 L91.0882,705.4938 L100.8529,705.5512 L110.6176,705.9716 L120.3824,705.1407 L130.1471,706.8007 L139.9118,705.2221 L149.6765,705.7988 L159.4412,706.6384 L169.2059,705.9481 L178.9706,706.1535 L188.7353,706.0199 L198.5,706.0625 " fill="none" style="stroke:#181818;stroke-width:1.0;stroke-dasharray:2.0,2.0;"/><text fill="#000000" font-family="FG Virgil" font-size="13" lengthAdjust="spacing" textLength="143" x="44.5" y="700.7998">Display User Info or error</text><!--SRC=[ZLJ1Rk8m4BtdAqOzqGC_44L8LQkkE7GFZRgdlKpjIJB2iIFRWEZNxpXaGq89knmWnk-zcRnvTjYnxT1Z2mrQVVGS8rc8VazP6BTQPvrgl6lfUgT3jSEQodWo19vKdEnfgd1lugkpyISAzVK7_69VivbWGeFQ7TdMKA49b6MeelFmf5ksW06UqZ8JR6J57TgO_k43Hle8v3-s2IFVHT5v2cGZHdPsirbaF4iptXb3FZ4dgwB0hZEiRWhiO_FrJZM7w4-9DpuNnJwouNYwOZo4WyfJlJUqOayhdPNa3wpe8V7BWxfRy64lrFmPAuha6PDGptjnBOelHQ7x1s5fZFY9WM06VgVE1HRdXcx7LL7uSI7ihBSNrkkDc9YFHa7II9COLjii0_c8pmAyU9Q3yYI0y-uj1EIWEU2d8Pqam-fnX8xg5_H5nphPy5mt4LmrrsjOQmaeoaYSvw_UFKXsGRsNHDb81B_jAiXFw4XnnKfwm5h2zdWfy8yY9RSocef9GoTjowp9Ale_sOcGU37nFeUAhNuovcMmPEB6p94BPwuyqLhVjNd6qdHNUDfk7uD5iOdGT6PfvaBiaoJEDUu8VryGpWBpa9Lav9euHsmXLcGJFI5MQR9dc-u6vfRnmn7D-tGCfs_PyZFwokz1uflRShgNFHwKxlGcnpyVQr-zvhVMogjQyzYccoI7LuaX7PtVGGfkVztq1sFUHC9-UvLKUUbTKkaRGLblqXn7uc8kfDQG2Wb4P_3K3nssjd8WWI3lvMgVi3-sVm00]--></g></svg>