<?xml version="1.0" encoding="us-ascii" standalone="no"?><svg xmlns="http://www.w3.org/2000/svg" xmlns:xlink="http://www.w3.org/1999/xlink" contentStyleType="text/css" height="381px" preserveAspectRatio="none" style="width:1875px;height:381px;background:#FFFFFF;" version="1.1" viewBox="0 0 1875 381" width="1875px" zoomAndPan="magnify"><defs/><g><!--cluster <<aggregate>> CafeteriaUser--><g id="cluster_&lt;&lt;aggregate&gt;&gt; CafeteriaUser"><path d="M1008.3,106.2082 L1122.3,106.2082 A2.25,2.25 0 0 1 1123.8,107.7082 L1128,120.9809 L1218.3,120.9809 A1.5,1.5 0 0 1 1219.8,122.4809 L1219.8,289.5082 A1.5,1.5 0 0 1 1218.3,291.0082 L1008.3,291.0082 A1.5,1.5 0 0 1 1006.8,289.5082 L1006.8,107.7082 A1.5,1.5 0 0 1 1008.3,106.2082 " fill="none" style="stroke:#000000;stroke-width:0.8999999999999999;"/><line style="stroke:#000000;stroke-width:0.8999999999999999;" x1="1006.8" x2="1128" y1="120.9809" y2="120.9809"/><text fill="#000000" font-family="sans-serif" font-size="8.4" font-weight="bold" lengthAdjust="spacing" textLength="113.4" x="1009.2" y="116.4727">&#171;aggregate&#187; CafeteriaUser</text></g><!--cluster <<aggregate>> Meal--><g id="cluster_&lt;&lt;aggregate&gt;&gt; Meal"><path d="M294.3,106.2082 L370.5,106.2082 A2.25,2.25 0 0 1 372,107.7082 L376.2,120.9809 L538.5,120.9809 A1.5,1.5 0 0 1 540,122.4809 L540,289.5082 A1.5,1.5 0 0 1 538.5,291.0082 L294.3,291.0082 A1.5,1.5 0 0 1 292.8,289.5082 L292.8,107.7082 A1.5,1.5 0 0 1 294.3,106.2082 " fill="none" style="stroke:#000000;stroke-width:0.8999999999999999;"/><line style="stroke:#000000;stroke-width:0.8999999999999999;" x1="292.8" x2="376.2" y1="120.9809" y2="120.9809"/><text fill="#000000" font-family="sans-serif" font-size="8.4" font-weight="bold" lengthAdjust="spacing" textLength="75.6" x="295.2" y="116.4727">&#171;aggregate&#187; Meal</text></g><!--cluster <<aggregate>> Dish--><g id="cluster_&lt;&lt;aggregate&gt;&gt; Dish"><path d="M555.9,210.0082 L630.3,210.0082 A2.25,2.25 0 0 1 631.8,211.5082 L636,224.7809 L990.9,224.7809 A1.5,1.5 0 0 1 992.4,226.2809 L992.4,375.3082 A1.5,1.5 0 0 1 990.9,376.8082 L555.9,376.8082 A1.5,1.5 0 0 1 554.4,375.3082 L554.4,211.5082 A1.5,1.5 0 0 1 555.9,210.0082 " fill="none" style="stroke:#000000;stroke-width:0.8999999999999999;"/><line style="stroke:#000000;stroke-width:0.8999999999999999;" x1="554.4" x2="636" y1="224.7809" y2="224.7809"/><text fill="#000000" font-family="sans-serif" font-size="8.4" font-weight="bold" lengthAdjust="spacing" textLength="73.8" x="556.8" y="220.2727">&#171;aggregate&#187; Dish</text></g><!--cluster <<aggregate>> Booking--><g id="cluster_&lt;&lt;aggregate&gt;&gt; Booking"><path d="M5.1,3.6082 L95.7,3.6082 A2.25,2.25 0 0 1 97.2,5.1082 L101.4,18.3809 L276.9,18.3809 A1.5,1.5 0 0 1 278.4,19.8809 L278.4,177.9082 A1.5,1.5 0 0 1 276.9,179.4082 L5.1,179.4082 A1.5,1.5 0 0 1 3.6,177.9082 L3.6,5.1082 A1.5,1.5 0 0 1 5.1,3.6082 " fill="none" style="stroke:#000000;stroke-width:0.8999999999999999;"/><line style="stroke:#000000;stroke-width:0.8999999999999999;" x1="3.6" x2="101.4" y1="18.3809" y2="18.3809"/><text fill="#000000" font-family="sans-serif" font-size="8.4" font-weight="bold" lengthAdjust="spacing" textLength="90" x="6" y="13.8727">&#171;aggregate&#187; Booking</text></g><!--cluster <<aggregate>> CardBalance--><g id="cluster_&lt;&lt;aggregate&gt;&gt; CardBalance"><path d="M1235.7,3.6082 L1344.9,3.6082 A2.25,2.25 0 0 1 1346.4,5.1082 L1350.6,18.3809 L1490.1,18.3809 A1.5,1.5 0 0 1 1491.6,19.8809 L1491.6,177.9082 A1.5,1.5 0 0 1 1490.1,179.4082 L1235.7,179.4082 A1.5,1.5 0 0 1 1234.2,177.9082 L1234.2,5.1082 A1.5,1.5 0 0 1 1235.7,3.6082 " fill="none" style="stroke:#000000;stroke-width:0.8999999999999999;"/><line style="stroke:#000000;stroke-width:0.8999999999999999;" x1="1234.2" x2="1350.6" y1="18.3809" y2="18.3809"/><text fill="#000000" font-family="sans-serif" font-size="8.4" font-weight="bold" lengthAdjust="spacing" textLength="108.6" x="1236.6" y="13.8727">&#171;aggregate&#187; CardBalance</text></g><!--cluster <<aggregate>> CardMovement--><g id="cluster_&lt;&lt;aggregate&gt;&gt; CardMovement"><path d="M1507.5,3.6082 L1628.1,3.6082 A2.25,2.25 0 0 1 1629.6,5.1082 L1633.8,18.3809 L1869.3,18.3809 A1.5,1.5 0 0 1 1870.8,19.8809 L1870.8,177.9082 A1.5,1.5 0 0 1 1869.3,179.4082 L1507.5,179.4082 A1.5,1.5 0 0 1 1506,177.9082 L1506,5.1082 A1.5,1.5 0 0 1 1507.5,3.6082 " fill="none" style="stroke:#000000;stroke-width:0.8999999999999999;"/><line style="stroke:#000000;stroke-width:0.8999999999999999;" x1="1506" x2="1633.8" y1="18.3809" y2="18.3809"/><text fill="#000000" font-family="sans-serif" font-size="8.4" font-weight="bold" lengthAdjust="spacing" textLength="120" x="1508.4" y="13.8727">&#171;aggregate&#187; CardMovement</text></g><!--class CafeteriaUser--><g id="elem_CafeteriaUser"><rect codeLine="6" fill="#F1F1F1" height="41.1258" id="CafeteriaUser" rx="1.5" ry="1.5" style="stroke:#181818;stroke-width:0.3;" width="71.4" x="1121.1" y="128.4082"/><ellipse cx="1130.1" cy="146.5711" fill="#ADD1B2" rx="6.6" ry="6.6" style="stroke:#181818;stroke-width:0.6;"/><path d="M1131.7594,144.0961 Q1131.8531,143.9648 1131.9656,143.8992 Q1132.0781,143.8336 1132.2094,143.8336 Q1132.4344,143.8336 1132.575,143.993 Q1132.7156,144.143 1132.7156,144.5086 L1132.7156,145.3805 Q1132.7156,145.7461 1132.575,145.9055 Q1132.4344,146.0648 1132.2094,146.0648 Q1132.0031,146.0648 1131.8813,145.943 Q1131.7594,145.8305 1131.6938,145.5211 Q1131.6656,145.3055 1131.5531,145.193 Q1131.3563,144.968 1130.9906,144.8367 Q1130.625,144.7055 1130.25,144.7055 Q1129.7906,144.7055 1129.4063,144.9023 Q1129.0313,145.0992 1128.7313,145.5492 Q1128.4406,145.9992 1128.4406,146.618 L1128.4406,147.2742 Q1128.4406,148.0148 1128.975,148.5117 Q1129.5094,148.9992 1130.4656,148.9992 Q1131.0281,148.9992 1131.4219,148.8492 Q1131.6563,148.7555 1131.9094,148.493 Q1132.0688,148.3336 1132.1531,148.2867 Q1132.2469,148.2398 1132.3687,148.2398 Q1132.5656,148.2398 1132.7156,148.3992 Q1132.875,148.5492 1132.875,148.7555 Q1132.875,148.9617 1132.6688,149.2055 Q1132.3687,149.5523 1131.8906,149.7492 Q1131.2437,150.0211 1130.4656,150.0211 Q1129.5562,150.0211 1128.8344,149.6461 Q1128.2437,149.3461 1127.8313,148.7086 Q1127.4188,148.0617 1127.4188,147.293 L1127.4188,146.5992 Q1127.4188,145.8023 1127.7844,145.118 Q1128.1594,144.4242 1128.8156,144.0586 Q1129.4719,143.6836 1130.2125,143.6836 Q1130.6531,143.6836 1131.0375,143.7867 Q1131.4312,143.8805 1131.7594,144.0961 Z " fill="#000000"/><text fill="#000000" font-family="sans-serif" font-size="7.2" font-style="italic" lengthAdjust="spacing" textLength="25.8" x="1151.7" y="139.1777">&#171;entity&#187;</text><text fill="#000000" font-family="sans-serif" font-size="7.2" font-style="italic" lengthAdjust="spacing" textLength="21" x="1154.1" y="148.7543">&#171;root&#187;</text><text fill="#000000" font-family="sans-serif" font-size="8.4" lengthAdjust="spacing" textLength="52.2" x="1138.5" y="159.6258">CafeteriaUser</text><line style="stroke:#181818;stroke-width:0.3;" x1="1121.7" x2="1191.9" y1="164.734" y2="164.734"/></g><!--class Role--><g id="elem_Role"><rect codeLine="9" fill="#F1F1F1" height="31.5492" id="Role" rx="1.5" ry="1.5" style="stroke:#181818;stroke-width:0.3;" width="65.4" x="1016.7" y="244.8082"/><ellipse cx="1025.7" cy="258.1828" fill="#ADD1B2" rx="6.6" ry="6.6" style="stroke:#181818;stroke-width:0.6;"/><path d="M1027.3594,255.7078 Q1027.4531,255.5766 1027.5656,255.5109 Q1027.6781,255.4453 1027.8094,255.4453 Q1028.0344,255.4453 1028.175,255.6047 Q1028.3156,255.7547 1028.3156,256.1203 L1028.3156,256.9922 Q1028.3156,257.3578 1028.175,257.5172 Q1028.0344,257.6766 1027.8094,257.6766 Q1027.6031,257.6766 1027.4813,257.5547 Q1027.3594,257.4422 1027.2938,257.1328 Q1027.2656,256.9172 1027.1531,256.8047 Q1026.9563,256.5797 1026.5906,256.4484 Q1026.225,256.3172 1025.85,256.3172 Q1025.3906,256.3172 1025.0063,256.5141 Q1024.6313,256.7109 1024.3313,257.1609 Q1024.0406,257.6109 1024.0406,258.2297 L1024.0406,258.8859 Q1024.0406,259.6266 1024.575,260.1234 Q1025.1094,260.6109 1026.0656,260.6109 Q1026.6281,260.6109 1027.0219,260.4609 Q1027.2563,260.3672 1027.5094,260.1047 Q1027.6688,259.9453 1027.7531,259.8984 Q1027.8469,259.8516 1027.9688,259.8516 Q1028.1656,259.8516 1028.3156,260.0109 Q1028.475,260.1609 1028.475,260.3672 Q1028.475,260.5734 1028.2688,260.8172 Q1027.9688,261.1641 1027.4906,261.3609 Q1026.8438,261.6328 1026.0656,261.6328 Q1025.1563,261.6328 1024.4344,261.2578 Q1023.8438,260.9578 1023.4313,260.3203 Q1023.0188,259.6734 1023.0188,258.9047 L1023.0188,258.2109 Q1023.0188,257.4141 1023.3844,256.7297 Q1023.7594,256.0359 1024.4156,255.6703 Q1025.0719,255.2953 1025.8125,255.2953 Q1026.2531,255.2953 1026.6375,255.3984 Q1027.0313,255.4922 1027.3594,255.7078 Z " fill="#000000"/><text fill="#000000" font-family="sans-serif" font-size="7.2" font-style="italic" lengthAdjust="spacing" textLength="48.6" x="1032.9" y="255.5777">&#171;value object&#187;</text><text fill="#000000" font-family="sans-serif" font-size="8.4" lengthAdjust="spacing" textLength="17.4" x="1048.5" y="266.4492">Role</text><line style="stroke:#181818;stroke-width:0.3;" x1="1017.3" x2="1081.5" y1="271.5574" y2="271.5574"/></g><!--class MecanographicNumber--><g id="elem_MecanographicNumber"><rect codeLine="12" fill="#F1F1F1" height="41.1258" id="MecanographicNumber" rx="1.5" ry="1.5" style="stroke:#181818;stroke-width:0.3;" width="106.8" x="1103.4" y="240.0082"/><ellipse cx="1112.4" cy="258.1711" fill="#ADD1B2" rx="6.6" ry="6.6" style="stroke:#181818;stroke-width:0.6;"/><path d="M1114.0594,255.6961 Q1114.1531,255.5648 1114.2656,255.4992 Q1114.3781,255.4336 1114.5094,255.4336 Q1114.7344,255.4336 1114.875,255.593 Q1115.0156,255.743 1115.0156,256.1086 L1115.0156,256.9805 Q1115.0156,257.3461 1114.875,257.5055 Q1114.7344,257.6648 1114.5094,257.6648 Q1114.3031,257.6648 1114.1812,257.543 Q1114.0594,257.4305 1113.9937,257.1211 Q1113.9656,256.9055 1113.8531,256.793 Q1113.6563,256.568 1113.2906,256.4367 Q1112.925,256.3055 1112.55,256.3055 Q1112.0906,256.3055 1111.7063,256.5023 Q1111.3313,256.6992 1111.0313,257.1492 Q1110.7406,257.5992 1110.7406,258.218 L1110.7406,258.8742 Q1110.7406,259.6148 1111.275,260.1117 Q1111.8094,260.5992 1112.7656,260.5992 Q1113.3281,260.5992 1113.7219,260.4492 Q1113.9563,260.3555 1114.2094,260.093 Q1114.3687,259.9336 1114.4531,259.8867 Q1114.5469,259.8398 1114.6688,259.8398 Q1114.8656,259.8398 1115.0156,259.9992 Q1115.175,260.1492 1115.175,260.3555 Q1115.175,260.5617 1114.9688,260.8055 Q1114.6688,261.1523 1114.1906,261.3492 Q1113.5438,261.6211 1112.7656,261.6211 Q1111.8563,261.6211 1111.1344,261.2461 Q1110.5438,260.9461 1110.1313,260.3086 Q1109.7188,259.6617 1109.7188,258.893 L1109.7188,258.1992 Q1109.7188,257.4023 1110.0844,256.718 Q1110.4594,256.0242 1111.1156,255.6586 Q1111.7719,255.2836 1112.5125,255.2836 Q1112.9531,255.2836 1113.3375,255.3867 Q1113.7313,255.4805 1114.0594,255.6961 Z " fill="#000000"/><text fill="#000000" font-family="sans-serif" font-size="7.2" font-style="italic" lengthAdjust="spacing" textLength="48.6" x="1140.3" y="250.7777">&#171;value object&#187;</text><text fill="#000000" font-family="sans-serif" font-size="7.2" font-style="italic" lengthAdjust="spacing" textLength="14.4" x="1157.4" y="260.3543">&#171;id&#187;</text><text fill="#000000" font-family="sans-serif" font-size="8.4" lengthAdjust="spacing" textLength="87.6" x="1120.8" y="271.2258">MecanographicNumber</text><line style="stroke:#181818;stroke-width:0.3;" x1="1104" x2="1209.6" y1="276.334" y2="276.334"/></g><!--class Meal--><g id="elem_Meal"><rect codeLine="20" fill="#F1F1F1" height="41.1258" id="Meal" rx="1.5" ry="1.5" style="stroke:#181818;stroke-width:0.3;" width="42.6" x="395.1" y="128.4082"/><ellipse cx="404.1" cy="146.5711" fill="#ADD1B2" rx="6.6" ry="6.6" style="stroke:#181818;stroke-width:0.6;"/><path d="M405.7594,144.0961 Q405.8531,143.9648 405.9656,143.8992 Q406.0781,143.8336 406.2094,143.8336 Q406.4344,143.8336 406.575,143.993 Q406.7156,144.143 406.7156,144.5086 L406.7156,145.3805 Q406.7156,145.7461 406.575,145.9055 Q406.4344,146.0648 406.2094,146.0648 Q406.0031,146.0648 405.8812,145.943 Q405.7594,145.8305 405.6937,145.5211 Q405.6656,145.3055 405.5531,145.193 Q405.3563,144.968 404.9906,144.8367 Q404.625,144.7055 404.25,144.7055 Q403.7906,144.7055 403.4063,144.9023 Q403.0313,145.0992 402.7313,145.5492 Q402.4406,145.9992 402.4406,146.618 L402.4406,147.2742 Q402.4406,148.0148 402.975,148.5117 Q403.5094,148.9992 404.4656,148.9992 Q405.0281,148.9992 405.4219,148.8492 Q405.6563,148.7555 405.9094,148.493 Q406.0687,148.3336 406.1531,148.2867 Q406.2469,148.2398 406.3688,148.2398 Q406.5656,148.2398 406.7156,148.3992 Q406.875,148.5492 406.875,148.7555 Q406.875,148.9617 406.6688,149.2055 Q406.3688,149.5523 405.8906,149.7492 Q405.2438,150.0211 404.4656,150.0211 Q403.5563,150.0211 402.8344,149.6461 Q402.2438,149.3461 401.8313,148.7086 Q401.4188,148.0617 401.4188,147.293 L401.4188,146.5992 Q401.4188,145.8023 401.7844,145.118 Q402.1594,144.4242 402.8156,144.0586 Q403.4719,143.6836 404.2125,143.6836 Q404.6531,143.6836 405.0375,143.7867 Q405.4313,143.8805 405.7594,144.0961 Z " fill="#000000"/><text fill="#000000" font-family="sans-serif" font-size="7.2" font-style="italic" lengthAdjust="spacing" textLength="25.8" x="411.3" y="139.1777">&#171;entity&#187;</text><text fill="#000000" font-family="sans-serif" font-size="7.2" font-style="italic" lengthAdjust="spacing" textLength="21" x="413.7" y="148.7543">&#171;root&#187;</text><text fill="#000000" font-family="sans-serif" font-size="8.4" lengthAdjust="spacing" textLength="18" x="415.2" y="159.6258">Meal</text><line style="stroke:#181818;stroke-width:0.3;" x1="395.7" x2="437.1" y1="164.734" y2="164.734"/></g><!--class MealType--><g id="elem_MealType"><rect codeLine="23" fill="#F1F1F1" height="31.5492" id="MealType" rx="1.5" ry="1.5" style="stroke:#181818;stroke-width:0.3;" width="65.4" x="302.7" y="244.8082"/><ellipse cx="311.7" cy="258.1828" fill="#ADD1B2" rx="6.6" ry="6.6" style="stroke:#181818;stroke-width:0.6;"/><path d="M313.3594,255.7078 Q313.4531,255.5766 313.5656,255.5109 Q313.6781,255.4453 313.8094,255.4453 Q314.0344,255.4453 314.175,255.6047 Q314.3156,255.7547 314.3156,256.1203 L314.3156,256.9922 Q314.3156,257.3578 314.175,257.5172 Q314.0344,257.6766 313.8094,257.6766 Q313.6031,257.6766 313.4813,257.5547 Q313.3594,257.4422 313.2938,257.1328 Q313.2656,256.9172 313.1531,256.8047 Q312.9563,256.5797 312.5906,256.4484 Q312.225,256.3172 311.85,256.3172 Q311.3906,256.3172 311.0062,256.5141 Q310.6312,256.7109 310.3313,257.1609 Q310.0406,257.6109 310.0406,258.2297 L310.0406,258.8859 Q310.0406,259.6266 310.575,260.1234 Q311.1094,260.6109 312.0656,260.6109 Q312.6281,260.6109 313.0219,260.4609 Q313.2562,260.3672 313.5094,260.1047 Q313.6688,259.9453 313.7531,259.8984 Q313.8469,259.8516 313.9688,259.8516 Q314.1656,259.8516 314.3156,260.0109 Q314.475,260.1609 314.475,260.3672 Q314.475,260.5734 314.2688,260.8172 Q313.9688,261.1641 313.4906,261.3609 Q312.8438,261.6328 312.0656,261.6328 Q311.1563,261.6328 310.4344,261.2578 Q309.8438,260.9578 309.4313,260.3203 Q309.0188,259.6734 309.0188,258.9047 L309.0188,258.2109 Q309.0188,257.4141 309.3844,256.7297 Q309.7594,256.0359 310.4156,255.6703 Q311.0719,255.2953 311.8125,255.2953 Q312.2531,255.2953 312.6375,255.3984 Q313.0313,255.4922 313.3594,255.7078 Z " fill="#000000"/><text fill="#000000" font-family="sans-serif" font-size="7.2" font-style="italic" lengthAdjust="spacing" textLength="48.6" x="318.9" y="255.5777">&#171;value object&#187;</text><text fill="#000000" font-family="sans-serif" font-size="8.4" lengthAdjust="spacing" textLength="37.2" x="324.6" y="266.4492">MealType</text><line style="stroke:#181818;stroke-width:0.3;" x1="303.3" x2="367.5" y1="271.5574" y2="271.5574"/></g><!--class Calender--><g id="elem_Calender"><rect codeLine="26" fill="#F1F1F1" height="24" id="Calender" rx="1.5" ry="1.5" style="stroke:#181818;stroke-width:0.3;" width="54" x="389.4" y="248.7082"/><ellipse cx="398.4" cy="258.3082" fill="#ADD1B2" rx="6.6" ry="6.6" style="stroke:#181818;stroke-width:0.6;"/><path d="M400.0594,255.8332 Q400.1531,255.702 400.2656,255.6363 Q400.3781,255.5707 400.5094,255.5707 Q400.7344,255.5707 400.875,255.7301 Q401.0156,255.8801 401.0156,256.2457 L401.0156,257.1176 Q401.0156,257.4832 400.875,257.6426 Q400.7344,257.802 400.5094,257.802 Q400.3031,257.802 400.1813,257.6801 Q400.0594,257.5676 399.9938,257.2582 Q399.9656,257.0426 399.8531,256.9301 Q399.6563,256.7051 399.2906,256.5738 Q398.925,256.4426 398.55,256.4426 Q398.0906,256.4426 397.7063,256.6395 Q397.3313,256.8363 397.0313,257.2863 Q396.7406,257.7363 396.7406,258.3551 L396.7406,259.0113 Q396.7406,259.752 397.275,260.2488 Q397.8094,260.7363 398.7656,260.7363 Q399.3281,260.7363 399.7219,260.5863 Q399.9563,260.4926 400.2094,260.2301 Q400.3688,260.0707 400.4531,260.0238 Q400.5469,259.977 400.6688,259.977 Q400.8656,259.977 401.0156,260.1363 Q401.175,260.2863 401.175,260.4926 Q401.175,260.6988 400.9688,260.9426 Q400.6688,261.2895 400.1906,261.4863 Q399.5438,261.7582 398.7656,261.7582 Q397.8563,261.7582 397.1344,261.3832 Q396.5438,261.0832 396.1312,260.4457 Q395.7188,259.7988 395.7188,259.0301 L395.7188,258.3363 Q395.7188,257.5395 396.0844,256.8551 Q396.4594,256.1613 397.1156,255.7957 Q397.7719,255.4207 398.5125,255.4207 Q398.9531,255.4207 399.3375,255.5238 Q399.7313,255.6176 400.0594,255.8332 Z " fill="#000000"/><text fill="#000000" font-family="sans-serif" font-size="8.4" lengthAdjust="spacing" textLength="34.8" x="406.8" y="261.7863">Calender</text><line style="stroke:#181818;stroke-width:0.3;" x1="390" x2="442.8" y1="267.9082" y2="267.9082"/></g><!--class MealID--><g id="elem_MealID"><rect codeLine="29" fill="#F1F1F1" height="41.1258" id="MealID" rx="1.5" ry="1.5" style="stroke:#181818;stroke-width:0.3;" width="65.4" x="464.7" y="240.0082"/><ellipse cx="473.7" cy="258.1711" fill="#ADD1B2" rx="6.6" ry="6.6" style="stroke:#181818;stroke-width:0.6;"/><path d="M475.3594,255.6961 Q475.4531,255.5648 475.5656,255.4992 Q475.6781,255.4336 475.8094,255.4336 Q476.0344,255.4336 476.175,255.593 Q476.3156,255.743 476.3156,256.1086 L476.3156,256.9805 Q476.3156,257.3461 476.175,257.5055 Q476.0344,257.6648 475.8094,257.6648 Q475.6031,257.6648 475.4813,257.543 Q475.3594,257.4305 475.2938,257.1211 Q475.2656,256.9055 475.1531,256.793 Q474.9562,256.568 474.5906,256.4367 Q474.225,256.3055 473.85,256.3055 Q473.3906,256.3055 473.0062,256.5023 Q472.6312,256.6992 472.3312,257.1492 Q472.0406,257.5992 472.0406,258.218 L472.0406,258.8742 Q472.0406,259.6148 472.575,260.1117 Q473.1094,260.5992 474.0656,260.5992 Q474.6281,260.5992 475.0219,260.4492 Q475.2562,260.3555 475.5094,260.093 Q475.6688,259.9336 475.7531,259.8867 Q475.8469,259.8398 475.9688,259.8398 Q476.1656,259.8398 476.3156,259.9992 Q476.475,260.1492 476.475,260.3555 Q476.475,260.5617 476.2687,260.8055 Q475.9688,261.1523 475.4906,261.3492 Q474.8438,261.6211 474.0656,261.6211 Q473.1563,261.6211 472.4344,261.2461 Q471.8438,260.9461 471.4313,260.3086 Q471.0187,259.6617 471.0187,258.893 L471.0187,258.1992 Q471.0187,257.4023 471.3844,256.718 Q471.7594,256.0242 472.4156,255.6586 Q473.0719,255.2836 473.8125,255.2836 Q474.2531,255.2836 474.6375,255.3867 Q475.0313,255.4805 475.3594,255.6961 Z " fill="#000000"/><text fill="#000000" font-family="sans-serif" font-size="7.2" font-style="italic" lengthAdjust="spacing" textLength="48.6" x="480.9" y="250.7777">&#171;value object&#187;</text><text fill="#000000" font-family="sans-serif" font-size="7.2" font-style="italic" lengthAdjust="spacing" textLength="14.4" x="498" y="260.3543">&#171;id&#187;</text><text fill="#000000" font-family="sans-serif" font-size="8.4" lengthAdjust="spacing" textLength="25.8" x="492.3" y="271.2258">MealID</text><line style="stroke:#181818;stroke-width:0.3;" x1="465.3" x2="529.5" y1="276.334" y2="276.334"/></g><!--class Dish--><g id="elem_Dish"><rect codeLine="38" fill="#F1F1F1" height="57.0984" id="Dish" rx="1.5" ry="1.5" style="stroke:#181818;stroke-width:0.3;" width="70.2" x="693.3" y="232.2082"/><ellipse cx="714.72" cy="250.3711" fill="#ADD1B2" rx="6.6" ry="6.6" style="stroke:#181818;stroke-width:0.6;"/><path d="M716.3794,247.8961 Q716.4731,247.7648 716.5856,247.6992 Q716.6981,247.6336 716.8294,247.6336 Q717.0544,247.6336 717.195,247.793 Q717.3356,247.943 717.3356,248.3086 L717.3356,249.1805 Q717.3356,249.5461 717.195,249.7055 Q717.0544,249.8648 716.8294,249.8648 Q716.6231,249.8648 716.5013,249.743 Q716.3794,249.6305 716.3138,249.3211 Q716.2856,249.1055 716.1731,248.993 Q715.9763,248.768 715.6106,248.6367 Q715.245,248.5055 714.87,248.5055 Q714.4106,248.5055 714.0263,248.7023 Q713.6513,248.8992 713.3513,249.3492 Q713.0606,249.7992 713.0606,250.418 L713.0606,251.0742 Q713.0606,251.8148 713.595,252.3117 Q714.1294,252.7992 715.0856,252.7992 Q715.6481,252.7992 716.0419,252.6492 Q716.2763,252.5555 716.5294,252.293 Q716.6888,252.1336 716.7731,252.0867 Q716.8669,252.0398 716.9888,252.0398 Q717.1856,252.0398 717.3356,252.1992 Q717.495,252.3492 717.495,252.5555 Q717.495,252.7617 717.2888,253.0055 Q716.9888,253.3523 716.5106,253.5492 Q715.8638,253.8211 715.0856,253.8211 Q714.1763,253.8211 713.4544,253.4461 Q712.8638,253.1461 712.4513,252.5086 Q712.0388,251.8617 712.0388,251.093 L712.0388,250.3992 Q712.0388,249.6023 712.4044,248.918 Q712.7794,248.2242 713.4356,247.8586 Q714.0919,247.4836 714.8325,247.4836 Q715.2731,247.4836 715.6575,247.5867 Q716.0513,247.6805 716.3794,247.8961 Z " fill="#000000"/><text fill="#000000" font-family="sans-serif" font-size="7.2" font-style="italic" lengthAdjust="spacing" textLength="25.8" x="724.68" y="242.9777">&#171;entity&#187;</text><text fill="#000000" font-family="sans-serif" font-size="7.2" font-style="italic" lengthAdjust="spacing" textLength="21" x="727.08" y="252.5543">&#171;root&#187;</text><text fill="#000000" font-family="sans-serif" font-size="8.4" lengthAdjust="spacing" textLength="16.8" x="729.18" y="263.4258">Dish</text><line style="stroke:#181818;stroke-width:0.3;" x1="693.9" x2="762.9" y1="268.534" y2="268.534"/><text fill="#000000" font-family="sans-serif" font-size="8.4" lengthAdjust="spacing" textLength="63" x="696.9" y="279.9984">-active : boolean</text><line style="stroke:#181818;stroke-width:0.3;" x1="693.9" x2="762.9" y1="284.5066" y2="284.5066"/></g><!--class DishType--><g id="elem_DishType"><rect codeLine="42" fill="#F1F1F1" height="31.5492" id="DishType" rx="1.5" ry="1.5" style="stroke:#181818;stroke-width:0.3;" width="65.4" x="564.3" y="330.6082"/><ellipse cx="573.3" cy="343.9828" fill="#ADD1B2" rx="6.6" ry="6.6" style="stroke:#181818;stroke-width:0.6;"/><path d="M574.9594,341.5078 Q575.0531,341.3766 575.1656,341.3109 Q575.2781,341.2453 575.4094,341.2453 Q575.6344,341.2453 575.775,341.4047 Q575.9156,341.5547 575.9156,341.9203 L575.9156,342.7922 Q575.9156,343.1578 575.775,343.3172 Q575.6344,343.4766 575.4094,343.4766 Q575.2031,343.4766 575.0813,343.3547 Q574.9594,343.2422 574.8938,342.9328 Q574.8656,342.7172 574.7531,342.6047 Q574.5563,342.3797 574.1906,342.2484 Q573.825,342.1172 573.45,342.1172 Q572.9906,342.1172 572.6062,342.3141 Q572.2312,342.5109 571.9313,342.9609 Q571.6406,343.4109 571.6406,344.0297 L571.6406,344.6859 Q571.6406,345.4266 572.175,345.9234 Q572.7094,346.4109 573.6656,346.4109 Q574.2281,346.4109 574.6219,346.2609 Q574.8562,346.1672 575.1094,345.9047 Q575.2688,345.7453 575.3531,345.6984 Q575.4469,345.6516 575.5688,345.6516 Q575.7656,345.6516 575.9156,345.8109 Q576.075,345.9609 576.075,346.1672 Q576.075,346.3734 575.8688,346.6172 Q575.5688,346.9641 575.0906,347.1609 Q574.4438,347.4328 573.6656,347.4328 Q572.7563,347.4328 572.0344,347.0578 Q571.4438,346.7578 571.0313,346.1203 Q570.6188,345.4734 570.6188,344.7047 L570.6188,344.0109 Q570.6188,343.2141 570.9844,342.5297 Q571.3594,341.8359 572.0156,341.4703 Q572.6719,341.0953 573.4125,341.0953 Q573.8531,341.0953 574.2375,341.1984 Q574.6313,341.2922 574.9594,341.5078 Z " fill="#000000"/><text fill="#000000" font-family="sans-serif" font-size="7.2" font-style="italic" lengthAdjust="spacing" textLength="48.6" x="580.5" y="341.3777">&#171;value object&#187;</text><text fill="#000000" font-family="sans-serif" font-size="8.4" lengthAdjust="spacing" textLength="36" x="586.8" y="352.2492">DishType</text><line style="stroke:#181818;stroke-width:0.3;" x1="564.9" x2="629.1" y1="357.3574" y2="357.3574"/></g><!--class Description--><g id="elem_Description"><rect codeLine="45" fill="#F1F1F1" height="31.5492" id="Description" rx="1.5" ry="1.5" style="stroke:#181818;stroke-width:0.3;" width="65.4" x="650.7" y="330.6082"/><ellipse cx="659.7" cy="343.9828" fill="#ADD1B2" rx="6.6" ry="6.6" style="stroke:#181818;stroke-width:0.6;"/><path d="M661.3594,341.5078 Q661.4531,341.3766 661.5656,341.3109 Q661.6781,341.2453 661.8094,341.2453 Q662.0344,341.2453 662.175,341.4047 Q662.3156,341.5547 662.3156,341.9203 L662.3156,342.7922 Q662.3156,343.1578 662.175,343.3172 Q662.0344,343.4766 661.8094,343.4766 Q661.6031,343.4766 661.4812,343.3547 Q661.3594,343.2422 661.2937,342.9328 Q661.2656,342.7172 661.1531,342.6047 Q660.9563,342.3797 660.5906,342.2484 Q660.225,342.1172 659.85,342.1172 Q659.3906,342.1172 659.0063,342.3141 Q658.6313,342.5109 658.3313,342.9609 Q658.0406,343.4109 658.0406,344.0297 L658.0406,344.6859 Q658.0406,345.4266 658.575,345.9234 Q659.1094,346.4109 660.0656,346.4109 Q660.6281,346.4109 661.0219,346.2609 Q661.2563,346.1672 661.5094,345.9047 Q661.6687,345.7453 661.7531,345.6984 Q661.8469,345.6516 661.9688,345.6516 Q662.1656,345.6516 662.3156,345.8109 Q662.475,345.9609 662.475,346.1672 Q662.475,346.3734 662.2688,346.6172 Q661.9688,346.9641 661.4906,347.1609 Q660.8438,347.4328 660.0656,347.4328 Q659.1563,347.4328 658.4344,347.0578 Q657.8438,346.7578 657.4313,346.1203 Q657.0188,345.4734 657.0188,344.7047 L657.0188,344.0109 Q657.0188,343.2141 657.3844,342.5297 Q657.7594,341.8359 658.4156,341.4703 Q659.0719,341.0953 659.8125,341.0953 Q660.2531,341.0953 660.6375,341.1984 Q661.0313,341.2922 661.3594,341.5078 Z " fill="#000000"/><text fill="#000000" font-family="sans-serif" font-size="7.2" font-style="italic" lengthAdjust="spacing" textLength="48.6" x="666.9" y="341.3777">&#171;value object&#187;</text><text fill="#000000" font-family="sans-serif" font-size="8.4" lengthAdjust="spacing" textLength="42.6" x="669.9" y="352.2492">Description</text><line style="stroke:#181818;stroke-width:0.3;" x1="651.3" x2="715.5" y1="357.3574" y2="357.3574"/></g><!--class NutricionalInfo--><g id="elem_NutricionalInfo"><rect codeLine="48" fill="#F1F1F1" height="31.5492" id="NutricionalInfo" rx="1.5" ry="1.5" style="stroke:#181818;stroke-width:0.3;" width="72.6" x="737.1" y="330.6082"/><ellipse cx="746.1" cy="343.9828" fill="#ADD1B2" rx="6.6" ry="6.6" style="stroke:#181818;stroke-width:0.6;"/><path d="M747.7594,341.5078 Q747.8531,341.3766 747.9656,341.3109 Q748.0781,341.2453 748.2094,341.2453 Q748.4344,341.2453 748.575,341.4047 Q748.7156,341.5547 748.7156,341.9203 L748.7156,342.7922 Q748.7156,343.1578 748.575,343.3172 Q748.4344,343.4766 748.2094,343.4766 Q748.0031,343.4766 747.8813,343.3547 Q747.7594,343.2422 747.6938,342.9328 Q747.6656,342.7172 747.5531,342.6047 Q747.3562,342.3797 746.9906,342.2484 Q746.625,342.1172 746.25,342.1172 Q745.7906,342.1172 745.4063,342.3141 Q745.0313,342.5109 744.7312,342.9609 Q744.4406,343.4109 744.4406,344.0297 L744.4406,344.6859 Q744.4406,345.4266 744.975,345.9234 Q745.5094,346.4109 746.4656,346.4109 Q747.0281,346.4109 747.4219,346.2609 Q747.6563,346.1672 747.9094,345.9047 Q748.0688,345.7453 748.1531,345.6984 Q748.2469,345.6516 748.3688,345.6516 Q748.5656,345.6516 748.7156,345.8109 Q748.875,345.9609 748.875,346.1672 Q748.875,346.3734 748.6687,346.6172 Q748.3688,346.9641 747.8906,347.1609 Q747.2438,347.4328 746.4656,347.4328 Q745.5563,347.4328 744.8344,347.0578 Q744.2438,346.7578 743.8313,346.1203 Q743.4187,345.4734 743.4187,344.7047 L743.4187,344.0109 Q743.4187,343.2141 743.7844,342.5297 Q744.1594,341.8359 744.8156,341.4703 Q745.4719,341.0953 746.2125,341.0953 Q746.6531,341.0953 747.0375,341.1984 Q747.4313,341.2922 747.7594,341.5078 Z " fill="#000000"/><text fill="#000000" font-family="sans-serif" font-size="7.2" font-style="italic" lengthAdjust="spacing" textLength="48.6" x="756.9" y="341.3777">&#171;value object&#187;</text><text fill="#000000" font-family="sans-serif" font-size="8.4" lengthAdjust="spacing" textLength="53.4" x="754.5" y="352.2492">NutricionalInfo</text><line style="stroke:#181818;stroke-width:0.3;" x1="737.7" x2="809.1" y1="357.3574" y2="357.3574"/></g><!--class Money--><g id="elem_Money"><rect codeLine="51" fill="#F1F1F1" height="31.5492" id="Money" rx="1.5" ry="1.5" style="stroke:#181818;stroke-width:0.3;" width="65.4" x="830.7" y="330.6082"/><ellipse cx="839.7" cy="343.9828" fill="#ADD1B2" rx="6.6" ry="6.6" style="stroke:#181818;stroke-width:0.6;"/><path d="M841.3594,341.5078 Q841.4531,341.3766 841.5656,341.3109 Q841.6781,341.2453 841.8094,341.2453 Q842.0344,341.2453 842.175,341.4047 Q842.3156,341.5547 842.3156,341.9203 L842.3156,342.7922 Q842.3156,343.1578 842.175,343.3172 Q842.0344,343.4766 841.8094,343.4766 Q841.6031,343.4766 841.4812,343.3547 Q841.3594,343.2422 841.2937,342.9328 Q841.2656,342.7172 841.1531,342.6047 Q840.9563,342.3797 840.5906,342.2484 Q840.225,342.1172 839.85,342.1172 Q839.3906,342.1172 839.0063,342.3141 Q838.6313,342.5109 838.3313,342.9609 Q838.0406,343.4109 838.0406,344.0297 L838.0406,344.6859 Q838.0406,345.4266 838.575,345.9234 Q839.1094,346.4109 840.0656,346.4109 Q840.6281,346.4109 841.0219,346.2609 Q841.2563,346.1672 841.5094,345.9047 Q841.6687,345.7453 841.7531,345.6984 Q841.8469,345.6516 841.9688,345.6516 Q842.1656,345.6516 842.3156,345.8109 Q842.475,345.9609 842.475,346.1672 Q842.475,346.3734 842.2688,346.6172 Q841.9688,346.9641 841.4906,347.1609 Q840.8438,347.4328 840.0656,347.4328 Q839.1563,347.4328 838.4344,347.0578 Q837.8438,346.7578 837.4313,346.1203 Q837.0188,345.4734 837.0188,344.7047 L837.0188,344.0109 Q837.0188,343.2141 837.3844,342.5297 Q837.7594,341.8359 838.4156,341.4703 Q839.0719,341.0953 839.8125,341.0953 Q840.2531,341.0953 840.6375,341.1984 Q841.0313,341.2922 841.3594,341.5078 Z " fill="#000000"/><text fill="#000000" font-family="sans-serif" font-size="7.2" font-style="italic" lengthAdjust="spacing" textLength="48.6" x="846.9" y="341.3777">&#171;value object&#187;</text><text fill="#000000" font-family="sans-serif" font-size="8.4" lengthAdjust="spacing" textLength="25.2" x="858.6" y="352.2492">Money</text><line style="stroke:#181818;stroke-width:0.3;" x1="831.3" x2="895.5" y1="357.3574" y2="357.3574"/></g><!--class Designation--><g id="elem_Designation"><rect codeLine="54" fill="#F1F1F1" height="41.1258" id="Designation" rx="1.5" ry="1.5" style="stroke:#181818;stroke-width:0.3;" width="65.4" x="917.1" y="325.8082"/><ellipse cx="926.1" cy="343.9711" fill="#ADD1B2" rx="6.6" ry="6.6" style="stroke:#181818;stroke-width:0.6;"/><path d="M927.7594,341.4961 Q927.8531,341.3648 927.9656,341.2992 Q928.0781,341.2336 928.2094,341.2336 Q928.4344,341.2336 928.575,341.393 Q928.7156,341.543 928.7156,341.9086 L928.7156,342.7805 Q928.7156,343.1461 928.575,343.3055 Q928.4344,343.4648 928.2094,343.4648 Q928.0031,343.4648 927.8812,343.343 Q927.7594,343.2305 927.6937,342.9211 Q927.6656,342.7055 927.5531,342.593 Q927.3562,342.368 926.9906,342.2367 Q926.625,342.1055 926.25,342.1055 Q925.7906,342.1055 925.4063,342.3023 Q925.0313,342.4992 924.7312,342.9492 Q924.4406,343.3992 924.4406,344.018 L924.4406,344.6742 Q924.4406,345.4148 924.975,345.9117 Q925.5094,346.3992 926.4656,346.3992 Q927.0281,346.3992 927.4219,346.2492 Q927.6563,346.1555 927.9094,345.893 Q928.0687,345.7336 928.1531,345.6867 Q928.2469,345.6398 928.3688,345.6398 Q928.5656,345.6398 928.7156,345.7992 Q928.875,345.9492 928.875,346.1555 Q928.875,346.3617 928.6687,346.6055 Q928.3688,346.9523 927.8906,347.1492 Q927.2438,347.4211 926.4656,347.4211 Q925.5563,347.4211 924.8344,347.0461 Q924.2438,346.7461 923.8313,346.1086 Q923.4187,345.4617 923.4187,344.693 L923.4187,343.9992 Q923.4187,343.2023 923.7844,342.518 Q924.1594,341.8242 924.8156,341.4586 Q925.4719,341.0836 926.2125,341.0836 Q926.6531,341.0836 927.0375,341.1867 Q927.4313,341.2805 927.7594,341.4961 Z " fill="#000000"/><text fill="#000000" font-family="sans-serif" font-size="7.2" font-style="italic" lengthAdjust="spacing" textLength="48.6" x="933.3" y="336.5777">&#171;value object&#187;</text><text fill="#000000" font-family="sans-serif" font-size="7.2" font-style="italic" lengthAdjust="spacing" textLength="14.4" x="950.4" y="346.1543">&#171;id&#187;</text><text fill="#000000" font-family="sans-serif" font-size="8.4" lengthAdjust="spacing" textLength="45" x="935.1" y="357.0258">Designation</text><line style="stroke:#181818;stroke-width:0.3;" x1="917.7" x2="981.9" y1="362.134" y2="362.134"/></g><!--class Booking--><g id="elem_Booking"><rect codeLine="65" fill="#F1F1F1" height="41.1258" id="Booking" rx="1.5" ry="1.5" style="stroke:#181818;stroke-width:0.3;" width="49.8" x="206.7" y="25.8082"/><ellipse cx="215.7" cy="43.9711" fill="#ADD1B2" rx="6.6" ry="6.6" style="stroke:#181818;stroke-width:0.6;"/><path d="M217.3594,41.4961 Q217.4531,41.3648 217.5656,41.2992 Q217.6781,41.2336 217.8094,41.2336 Q218.0344,41.2336 218.175,41.393 Q218.3156,41.543 218.3156,41.9086 L218.3156,42.7805 Q218.3156,43.1461 218.175,43.3055 Q218.0344,43.4648 217.8094,43.4648 Q217.6031,43.4648 217.4813,43.343 Q217.3594,43.2305 217.2938,42.9211 Q217.2656,42.7055 217.1531,42.593 Q216.9562,42.368 216.5906,42.2367 Q216.225,42.1055 215.85,42.1055 Q215.3906,42.1055 215.0063,42.3023 Q214.6313,42.4992 214.3312,42.9492 Q214.0406,43.3992 214.0406,44.018 L214.0406,44.6742 Q214.0406,45.4148 214.575,45.9117 Q215.1094,46.3992 216.0656,46.3992 Q216.6281,46.3992 217.0219,46.2492 Q217.2563,46.1555 217.5094,45.893 Q217.6688,45.7336 217.7531,45.6867 Q217.8469,45.6398 217.9688,45.6398 Q218.1656,45.6398 218.3156,45.7992 Q218.475,45.9492 218.475,46.1555 Q218.475,46.3617 218.2687,46.6055 Q217.9688,46.9523 217.4906,47.1492 Q216.8438,47.4211 216.0656,47.4211 Q215.1563,47.4211 214.4344,47.0461 Q213.8438,46.7461 213.4313,46.1086 Q213.0187,45.4617 213.0187,44.693 L213.0187,43.9992 Q213.0187,43.2023 213.3844,42.518 Q213.7594,41.8242 214.4156,41.4586 Q215.0719,41.0836 215.8125,41.0836 Q216.2531,41.0836 216.6375,41.1867 Q217.0313,41.2805 217.3594,41.4961 Z " fill="#000000"/><text fill="#000000" font-family="sans-serif" font-size="7.2" font-style="italic" lengthAdjust="spacing" textLength="25.8" x="226.5" y="36.5777">&#171;entity&#187;</text><text fill="#000000" font-family="sans-serif" font-size="7.2" font-style="italic" lengthAdjust="spacing" textLength="21" x="228.9" y="46.1543">&#171;root&#187;</text><text fill="#000000" font-family="sans-serif" font-size="8.4" lengthAdjust="spacing" textLength="30.6" x="224.1" y="57.0258">Booking</text><line style="stroke:#181818;stroke-width:0.3;" x1="207.3" x2="255.9" y1="62.134" y2="62.134"/></g><!--class BookingStatus--><g id="elem_BookingStatus"><rect codeLine="68" fill="#F1F1F1" height="31.5492" id="BookingStatus" rx="1.5" ry="1.5" style="stroke:#181818;stroke-width:0.3;" width="73.8" x="194.7" y="133.2082"/><ellipse cx="203.7" cy="146.5828" fill="#ADD1B2" rx="6.6" ry="6.6" style="stroke:#181818;stroke-width:0.6;"/><path d="M205.3594,144.1078 Q205.4531,143.9766 205.5656,143.9109 Q205.6781,143.8453 205.8094,143.8453 Q206.0344,143.8453 206.175,144.0047 Q206.3156,144.1547 206.3156,144.5203 L206.3156,145.3922 Q206.3156,145.7578 206.175,145.9172 Q206.0344,146.0766 205.8094,146.0766 Q205.6031,146.0766 205.4813,145.9547 Q205.3594,145.8422 205.2938,145.5328 Q205.2656,145.3172 205.1531,145.2047 Q204.9562,144.9797 204.5906,144.8484 Q204.225,144.7172 203.85,144.7172 Q203.3906,144.7172 203.0063,144.9141 Q202.6313,145.1109 202.3312,145.5609 Q202.0406,146.0109 202.0406,146.6297 L202.0406,147.2859 Q202.0406,148.0266 202.575,148.5234 Q203.1094,149.0109 204.0656,149.0109 Q204.6281,149.0109 205.0219,148.8609 Q205.2563,148.7672 205.5094,148.5047 Q205.6688,148.3453 205.7531,148.2984 Q205.8469,148.2516 205.9688,148.2516 Q206.1656,148.2516 206.3156,148.4109 Q206.475,148.5609 206.475,148.7672 Q206.475,148.9734 206.2687,149.2172 Q205.9688,149.5641 205.4906,149.7609 Q204.8438,150.0328 204.0656,150.0328 Q203.1563,150.0328 202.4344,149.6578 Q201.8438,149.3578 201.4313,148.7203 Q201.0187,148.0734 201.0187,147.3047 L201.0187,146.6109 Q201.0187,145.8141 201.3844,145.1297 Q201.7594,144.4359 202.4156,144.0703 Q203.0719,143.6953 203.8125,143.6953 Q204.2531,143.6953 204.6375,143.7984 Q205.0313,143.8922 205.3594,144.1078 Z " fill="#000000"/><text fill="#000000" font-family="sans-serif" font-size="7.2" font-style="italic" lengthAdjust="spacing" textLength="48.6" x="215.1" y="143.9777">&#171;value object&#187;</text><text fill="#000000" font-family="sans-serif" font-size="8.4" lengthAdjust="spacing" textLength="54.6" x="212.1" y="154.8492">BookingStatus</text><line style="stroke:#181818;stroke-width:0.3;" x1="195.3" x2="267.9" y1="159.9574" y2="159.9574"/></g><!--class Money--><g id="elem_Money"><rect codeLine="71" fill="#F1F1F1" height="31.5492" id="Money" rx="1.5" ry="1.5" style="stroke:#181818;stroke-width:0.3;" width="65.4" x="13.5" y="133.2082"/><ellipse cx="22.5" cy="146.5828" fill="#ADD1B2" rx="6.6" ry="6.6" style="stroke:#181818;stroke-width:0.6;"/><path d="M24.1594,144.1078 Q24.2531,143.9766 24.3656,143.9109 Q24.4781,143.8453 24.6094,143.8453 Q24.8344,143.8453 24.975,144.0047 Q25.1156,144.1547 25.1156,144.5203 L25.1156,145.3922 Q25.1156,145.7578 24.975,145.9172 Q24.8344,146.0766 24.6094,146.0766 Q24.4031,146.0766 24.2813,145.9547 Q24.1594,145.8422 24.0938,145.5328 Q24.0656,145.3172 23.9531,145.2047 Q23.7562,144.9797 23.3906,144.8484 Q23.025,144.7172 22.65,144.7172 Q22.1906,144.7172 21.8063,144.9141 Q21.4313,145.1109 21.1312,145.5609 Q20.8406,146.0109 20.8406,146.6297 L20.8406,147.2859 Q20.8406,148.0266 21.375,148.5234 Q21.9094,149.0109 22.8656,149.0109 Q23.4281,149.0109 23.8219,148.8609 Q24.0563,148.7672 24.3094,148.5047 Q24.4688,148.3453 24.5531,148.2984 Q24.6469,148.2516 24.7688,148.2516 Q24.9656,148.2516 25.1156,148.4109 Q25.275,148.5609 25.275,148.7672 Q25.275,148.9734 25.0687,149.2172 Q24.7688,149.5641 24.2906,149.7609 Q23.6438,150.0328 22.8656,150.0328 Q21.9563,150.0328 21.2344,149.6578 Q20.6438,149.3578 20.2313,148.7203 Q19.8187,148.0734 19.8187,147.3047 L19.8187,146.6109 Q19.8187,145.8141 20.1844,145.1297 Q20.5594,144.4359 21.2156,144.0703 Q21.8719,143.6953 22.6125,143.6953 Q23.0531,143.6953 23.4375,143.7984 Q23.8313,143.8922 24.1594,144.1078 Z " fill="#000000"/><text fill="#000000" font-family="sans-serif" font-size="7.2" font-style="italic" lengthAdjust="spacing" textLength="48.6" x="29.7" y="143.9777">&#171;value object&#187;</text><text fill="#000000" font-family="sans-serif" font-size="8.4" lengthAdjust="spacing" textLength="25.2" x="41.4" y="154.8492">Money</text><line style="stroke:#181818;stroke-width:0.3;" x1="14.1" x2="78.3" y1="159.9574" y2="159.9574"/></g><!--class BookingToken--><g id="elem_BookingToken"><rect codeLine="74" fill="#F1F1F1" height="41.1258" id="BookingToken" rx="1.5" ry="1.5" style="stroke:#181818;stroke-width:0.3;" width="73.8" x="99.9" y="128.4082"/><ellipse cx="108.9" cy="146.5711" fill="#ADD1B2" rx="6.6" ry="6.6" style="stroke:#181818;stroke-width:0.6;"/><path d="M110.5594,144.0961 Q110.6531,143.9648 110.7656,143.8992 Q110.8781,143.8336 111.0094,143.8336 Q111.2344,143.8336 111.375,143.993 Q111.5156,144.143 111.5156,144.5086 L111.5156,145.3805 Q111.5156,145.7461 111.375,145.9055 Q111.2344,146.0648 111.0094,146.0648 Q110.8031,146.0648 110.6812,145.943 Q110.5594,145.8305 110.4937,145.5211 Q110.4656,145.3055 110.3531,145.193 Q110.1563,144.968 109.7906,144.8367 Q109.425,144.7055 109.05,144.7055 Q108.5906,144.7055 108.2063,144.9023 Q107.8313,145.0992 107.5313,145.5492 Q107.2406,145.9992 107.2406,146.618 L107.2406,147.2742 Q107.2406,148.0148 107.775,148.5117 Q108.3094,148.9992 109.2656,148.9992 Q109.8281,148.9992 110.2219,148.8492 Q110.4563,148.7555 110.7094,148.493 Q110.8687,148.3336 110.9531,148.2867 Q111.0469,148.2398 111.1688,148.2398 Q111.3656,148.2398 111.5156,148.3992 Q111.675,148.5492 111.675,148.7555 Q111.675,148.9617 111.4688,149.2055 Q111.1688,149.5523 110.6906,149.7492 Q110.0438,150.0211 109.2656,150.0211 Q108.3563,150.0211 107.6344,149.6461 Q107.0438,149.3461 106.6313,148.7086 Q106.2188,148.0617 106.2188,147.293 L106.2188,146.5992 Q106.2188,145.8023 106.5844,145.118 Q106.9594,144.4242 107.6156,144.0586 Q108.2719,143.6836 109.0125,143.6836 Q109.4531,143.6836 109.8375,143.7867 Q110.2313,143.8805 110.5594,144.0961 Z " fill="#000000"/><text fill="#000000" font-family="sans-serif" font-size="7.2" font-style="italic" lengthAdjust="spacing" textLength="48.6" x="120.3" y="139.1777">&#171;value object&#187;</text><text fill="#000000" font-family="sans-serif" font-size="7.2" font-style="italic" lengthAdjust="spacing" textLength="14.4" x="137.4" y="148.7543">&#171;id&#187;</text><text fill="#000000" font-family="sans-serif" font-size="8.4" lengthAdjust="spacing" textLength="54.6" x="117.3" y="159.6258">BookingToken</text><line style="stroke:#181818;stroke-width:0.3;" x1="100.5" x2="173.1" y1="164.734" y2="164.734"/></g><!--class CardBalance--><g id="elem_CardBalance"><rect codeLine="83" fill="#F1F1F1" height="41.1258" id="CardBalance" rx="1.5" ry="1.5" style="stroke:#181818;stroke-width:0.3;" width="68.4" x="1283.4" y="25.8082"/><ellipse cx="1292.4" cy="43.9711" fill="#ADD1B2" rx="6.6" ry="6.6" style="stroke:#181818;stroke-width:0.6;"/><path d="M1294.0594,41.4961 Q1294.1531,41.3648 1294.2656,41.2992 Q1294.3781,41.2336 1294.5094,41.2336 Q1294.7344,41.2336 1294.875,41.393 Q1295.0156,41.543 1295.0156,41.9086 L1295.0156,42.7805 Q1295.0156,43.1461 1294.875,43.3055 Q1294.7344,43.4648 1294.5094,43.4648 Q1294.3031,43.4648 1294.1812,43.343 Q1294.0594,43.2305 1293.9937,42.9211 Q1293.9656,42.7055 1293.8531,42.593 Q1293.6563,42.368 1293.2906,42.2367 Q1292.925,42.1055 1292.55,42.1055 Q1292.0906,42.1055 1291.7063,42.3023 Q1291.3313,42.4992 1291.0313,42.9492 Q1290.7406,43.3992 1290.7406,44.018 L1290.7406,44.6742 Q1290.7406,45.4148 1291.275,45.9117 Q1291.8094,46.3992 1292.7656,46.3992 Q1293.3281,46.3992 1293.7219,46.2492 Q1293.9563,46.1555 1294.2094,45.893 Q1294.3687,45.7336 1294.4531,45.6867 Q1294.5469,45.6398 1294.6688,45.6398 Q1294.8656,45.6398 1295.0156,45.7992 Q1295.175,45.9492 1295.175,46.1555 Q1295.175,46.3617 1294.9688,46.6055 Q1294.6688,46.9523 1294.1906,47.1492 Q1293.5438,47.4211 1292.7656,47.4211 Q1291.8563,47.4211 1291.1344,47.0461 Q1290.5438,46.7461 1290.1313,46.1086 Q1289.7188,45.4617 1289.7188,44.693 L1289.7188,43.9992 Q1289.7188,43.2023 1290.0844,42.518 Q1290.4594,41.8242 1291.1156,41.4586 Q1291.7719,41.0836 1292.5125,41.0836 Q1292.9531,41.0836 1293.3375,41.1867 Q1293.7313,41.2805 1294.0594,41.4961 Z " fill="#000000"/><text fill="#000000" font-family="sans-serif" font-size="7.2" font-style="italic" lengthAdjust="spacing" textLength="25.8" x="1312.5" y="36.5777">&#171;entity&#187;</text><text fill="#000000" font-family="sans-serif" font-size="7.2" font-style="italic" lengthAdjust="spacing" textLength="21" x="1314.9" y="46.1543">&#171;root&#187;</text><text fill="#000000" font-family="sans-serif" font-size="8.4" lengthAdjust="spacing" textLength="49.2" x="1300.8" y="57.0258">CardBalance</text><line style="stroke:#181818;stroke-width:0.3;" x1="1284" x2="1351.2" y1="62.134" y2="62.134"/></g><!--class Money--><g id="elem_Money"><rect codeLine="86" fill="#F1F1F1" height="31.5492" id="Money" rx="1.5" ry="1.5" style="stroke:#181818;stroke-width:0.3;" width="65.4" x="1416.3" y="133.2082"/><ellipse cx="1425.3" cy="146.5828" fill="#ADD1B2" rx="6.6" ry="6.6" style="stroke:#181818;stroke-width:0.6;"/><path d="M1426.9594,144.1078 Q1427.0531,143.9766 1427.1656,143.9109 Q1427.2781,143.8453 1427.4094,143.8453 Q1427.6344,143.8453 1427.775,144.0047 Q1427.9156,144.1547 1427.9156,144.5203 L1427.9156,145.3922 Q1427.9156,145.7578 1427.775,145.9172 Q1427.6344,146.0766 1427.4094,146.0766 Q1427.2031,146.0766 1427.0813,145.9547 Q1426.9594,145.8422 1426.8938,145.5328 Q1426.8656,145.3172 1426.7531,145.2047 Q1426.5562,144.9797 1426.1906,144.8484 Q1425.825,144.7172 1425.45,144.7172 Q1424.9906,144.7172 1424.6063,144.9141 Q1424.2313,145.1109 1423.9312,145.5609 Q1423.6406,146.0109 1423.6406,146.6297 L1423.6406,147.2859 Q1423.6406,148.0266 1424.175,148.5234 Q1424.7094,149.0109 1425.6656,149.0109 Q1426.2281,149.0109 1426.6219,148.8609 Q1426.8563,148.7672 1427.1094,148.5047 Q1427.2688,148.3453 1427.3531,148.2984 Q1427.4469,148.2516 1427.5688,148.2516 Q1427.7656,148.2516 1427.9156,148.4109 Q1428.075,148.5609 1428.075,148.7672 Q1428.075,148.9734 1427.8687,149.2172 Q1427.5688,149.5641 1427.0906,149.7609 Q1426.4438,150.0328 1425.6656,150.0328 Q1424.7563,150.0328 1424.0344,149.6578 Q1423.4438,149.3578 1423.0313,148.7203 Q1422.6187,148.0734 1422.6187,147.3047 L1422.6187,146.6109 Q1422.6187,145.8141 1422.9844,145.1297 Q1423.3594,144.4359 1424.0156,144.0703 Q1424.6719,143.6953 1425.4125,143.6953 Q1425.8531,143.6953 1426.2375,143.7984 Q1426.6313,143.8922 1426.9594,144.1078 Z " fill="#000000"/><text fill="#000000" font-family="sans-serif" font-size="7.2" font-style="italic" lengthAdjust="spacing" textLength="48.6" x="1432.5" y="143.9777">&#171;value object&#187;</text><text fill="#000000" font-family="sans-serif" font-size="8.4" lengthAdjust="spacing" textLength="25.2" x="1444.2" y="154.8492">Money</text><line style="stroke:#181818;stroke-width:0.3;" x1="1416.9" x2="1481.1" y1="159.9574" y2="159.9574"/></g><!--class Calender--><g id="elem_Calender"><rect codeLine="89" fill="#F1F1F1" height="24" id="Calender" rx="1.5" ry="1.5" style="stroke:#181818;stroke-width:0.3;" width="54" x="1243.8" y="137.1082"/><ellipse cx="1252.8" cy="146.7082" fill="#ADD1B2" rx="6.6" ry="6.6" style="stroke:#181818;stroke-width:0.6;"/><path d="M1254.4594,144.2332 Q1254.5531,144.102 1254.6656,144.0363 Q1254.7781,143.9707 1254.9094,143.9707 Q1255.1344,143.9707 1255.275,144.1301 Q1255.4156,144.2801 1255.4156,144.6457 L1255.4156,145.5176 Q1255.4156,145.8832 1255.275,146.0426 Q1255.1344,146.202 1254.9094,146.202 Q1254.7031,146.202 1254.5813,146.0801 Q1254.4594,145.9676 1254.3938,145.6582 Q1254.3656,145.4426 1254.2531,145.3301 Q1254.0562,145.1051 1253.6906,144.9738 Q1253.325,144.8426 1252.95,144.8426 Q1252.4906,144.8426 1252.1063,145.0395 Q1251.7313,145.2363 1251.4312,145.6863 Q1251.1406,146.1363 1251.1406,146.7551 L1251.1406,147.4113 Q1251.1406,148.152 1251.675,148.6488 Q1252.2094,149.1363 1253.1656,149.1363 Q1253.7281,149.1363 1254.1219,148.9863 Q1254.3563,148.8926 1254.6094,148.6301 Q1254.7688,148.4707 1254.8531,148.4238 Q1254.9469,148.377 1255.0688,148.377 Q1255.2656,148.377 1255.4156,148.5363 Q1255.575,148.6863 1255.575,148.8926 Q1255.575,149.0988 1255.3687,149.3426 Q1255.0688,149.6895 1254.5906,149.8863 Q1253.9438,150.1582 1253.1656,150.1582 Q1252.2563,150.1582 1251.5344,149.7832 Q1250.9438,149.4832 1250.5313,148.8457 Q1250.1187,148.1988 1250.1187,147.4301 L1250.1187,146.7363 Q1250.1187,145.9395 1250.4844,145.2551 Q1250.8594,144.5613 1251.5156,144.1957 Q1252.1719,143.8207 1252.9125,143.8207 Q1253.3531,143.8207 1253.7375,143.9238 Q1254.1313,144.0176 1254.4594,144.2332 Z " fill="#000000"/><text fill="#000000" font-family="sans-serif" font-size="8.4" lengthAdjust="spacing" textLength="34.8" x="1261.2" y="150.1863">Calender</text><line style="stroke:#181818;stroke-width:0.3;" x1="1244.4" x2="1297.2" y1="156.3082" y2="156.3082"/></g><!--class CardBalanceID--><g id="elem_CardBalanceID"><rect codeLine="92" fill="#F1F1F1" height="41.1258" id="CardBalanceID" rx="1.5" ry="1.5" style="stroke:#181818;stroke-width:0.3;" width="76.2" x="1319.1" y="128.4082"/><ellipse cx="1328.1" cy="146.5711" fill="#ADD1B2" rx="6.6" ry="6.6" style="stroke:#181818;stroke-width:0.6;"/><path d="M1329.7594,144.0961 Q1329.8531,143.9648 1329.9656,143.8992 Q1330.0781,143.8336 1330.2094,143.8336 Q1330.4344,143.8336 1330.575,143.993 Q1330.7156,144.143 1330.7156,144.5086 L1330.7156,145.3805 Q1330.7156,145.7461 1330.575,145.9055 Q1330.4344,146.0648 1330.2094,146.0648 Q1330.0031,146.0648 1329.8813,145.943 Q1329.7594,145.8305 1329.6938,145.5211 Q1329.6656,145.3055 1329.5531,145.193 Q1329.3563,144.968 1328.9906,144.8367 Q1328.625,144.7055 1328.25,144.7055 Q1327.7906,144.7055 1327.4063,144.9023 Q1327.0313,145.0992 1326.7313,145.5492 Q1326.4406,145.9992 1326.4406,146.618 L1326.4406,147.2742 Q1326.4406,148.0148 1326.975,148.5117 Q1327.5094,148.9992 1328.4656,148.9992 Q1329.0281,148.9992 1329.4219,148.8492 Q1329.6563,148.7555 1329.9094,148.493 Q1330.0688,148.3336 1330.1531,148.2867 Q1330.2469,148.2398 1330.3687,148.2398 Q1330.5656,148.2398 1330.7156,148.3992 Q1330.875,148.5492 1330.875,148.7555 Q1330.875,148.9617 1330.6688,149.2055 Q1330.3687,149.5523 1329.8906,149.7492 Q1329.2437,150.0211 1328.4656,150.0211 Q1327.5562,150.0211 1326.8344,149.6461 Q1326.2437,149.3461 1325.8313,148.7086 Q1325.4188,148.0617 1325.4188,147.293 L1325.4188,146.5992 Q1325.4188,145.8023 1325.7844,145.118 Q1326.1594,144.4242 1326.8156,144.0586 Q1327.4719,143.6836 1328.2125,143.6836 Q1328.6531,143.6836 1329.0375,143.7867 Q1329.4312,143.8805 1329.7594,144.0961 Z " fill="#000000"/><text fill="#000000" font-family="sans-serif" font-size="7.2" font-style="italic" lengthAdjust="spacing" textLength="48.6" x="1340.7" y="139.1777">&#171;value object&#187;</text><text fill="#000000" font-family="sans-serif" font-size="7.2" font-style="italic" lengthAdjust="spacing" textLength="14.4" x="1357.8" y="148.7543">&#171;id&#187;</text><text fill="#000000" font-family="sans-serif" font-size="8.4" lengthAdjust="spacing" textLength="57" x="1336.5" y="159.6258">CardBalanceID</text><line style="stroke:#181818;stroke-width:0.3;" x1="1319.7" x2="1394.7" y1="164.734" y2="164.734"/></g><!--class CardMovement--><g id="elem_CardMovement"><rect codeLine="101" fill="#F1F1F1" height="41.1258" id="CardMovement" rx="1.5" ry="1.5" style="stroke:#181818;stroke-width:0.3;" width="76.8" x="1608.6" y="25.8082"/><ellipse cx="1617.6" cy="43.9711" fill="#ADD1B2" rx="6.6" ry="6.6" style="stroke:#181818;stroke-width:0.6;"/><path d="M1619.2594,41.4961 Q1619.3531,41.3648 1619.4656,41.2992 Q1619.5781,41.2336 1619.7094,41.2336 Q1619.9344,41.2336 1620.075,41.393 Q1620.2156,41.543 1620.2156,41.9086 L1620.2156,42.7805 Q1620.2156,43.1461 1620.075,43.3055 Q1619.9344,43.4648 1619.7094,43.4648 Q1619.5031,43.4648 1619.3813,43.343 Q1619.2594,43.2305 1619.1938,42.9211 Q1619.1656,42.7055 1619.0531,42.593 Q1618.8563,42.368 1618.4906,42.2367 Q1618.125,42.1055 1617.75,42.1055 Q1617.2906,42.1055 1616.9063,42.3023 Q1616.5313,42.4992 1616.2313,42.9492 Q1615.9406,43.3992 1615.9406,44.018 L1615.9406,44.6742 Q1615.9406,45.4148 1616.475,45.9117 Q1617.0094,46.3992 1617.9656,46.3992 Q1618.5281,46.3992 1618.9219,46.2492 Q1619.1563,46.1555 1619.4094,45.893 Q1619.5688,45.7336 1619.6531,45.6867 Q1619.7469,45.6398 1619.8687,45.6398 Q1620.0656,45.6398 1620.2156,45.7992 Q1620.375,45.9492 1620.375,46.1555 Q1620.375,46.3617 1620.1688,46.6055 Q1619.8687,46.9523 1619.3906,47.1492 Q1618.7437,47.4211 1617.9656,47.4211 Q1617.0562,47.4211 1616.3344,47.0461 Q1615.7437,46.7461 1615.3313,46.1086 Q1614.9188,45.4617 1614.9188,44.693 L1614.9188,43.9992 Q1614.9188,43.2023 1615.2844,42.518 Q1615.6594,41.8242 1616.3156,41.4586 Q1616.9719,41.0836 1617.7125,41.0836 Q1618.1531,41.0836 1618.5375,41.1867 Q1618.9312,41.2805 1619.2594,41.4961 Z " fill="#000000"/><text fill="#000000" font-family="sans-serif" font-size="7.2" font-style="italic" lengthAdjust="spacing" textLength="25.8" x="1641.9" y="36.5777">&#171;entity&#187;</text><text fill="#000000" font-family="sans-serif" font-size="7.2" font-style="italic" lengthAdjust="spacing" textLength="21" x="1644.3" y="46.1543">&#171;root&#187;</text><text fill="#000000" font-family="sans-serif" font-size="8.4" lengthAdjust="spacing" textLength="57.6" x="1626" y="57.0258">CardMovement</text><line style="stroke:#181818;stroke-width:0.3;" x1="1609.2" x2="1684.8" y1="62.134" y2="62.134"/></g><!--class MovementType--><g id="elem_MovementType"><rect codeLine="104" fill="#F1F1F1" height="31.5492" id="MovementType" rx="1.5" ry="1.5" style="stroke:#181818;stroke-width:0.3;" width="77.4" x="1515.9" y="133.2082"/><ellipse cx="1524.9" cy="146.5828" fill="#ADD1B2" rx="6.6" ry="6.6" style="stroke:#181818;stroke-width:0.6;"/><path d="M1526.5594,144.1078 Q1526.6531,143.9766 1526.7656,143.9109 Q1526.8781,143.8453 1527.0094,143.8453 Q1527.2344,143.8453 1527.375,144.0047 Q1527.5156,144.1547 1527.5156,144.5203 L1527.5156,145.3922 Q1527.5156,145.7578 1527.375,145.9172 Q1527.2344,146.0766 1527.0094,146.0766 Q1526.8031,146.0766 1526.6812,145.9547 Q1526.5594,145.8422 1526.4937,145.5328 Q1526.4656,145.3172 1526.3531,145.2047 Q1526.1563,144.9797 1525.7906,144.8484 Q1525.425,144.7172 1525.05,144.7172 Q1524.5906,144.7172 1524.2063,144.9141 Q1523.8313,145.1109 1523.5313,145.5609 Q1523.2406,146.0109 1523.2406,146.6297 L1523.2406,147.2859 Q1523.2406,148.0266 1523.775,148.5234 Q1524.3094,149.0109 1525.2656,149.0109 Q1525.8281,149.0109 1526.2219,148.8609 Q1526.4563,148.7672 1526.7094,148.5047 Q1526.8687,148.3453 1526.9531,148.2984 Q1527.0469,148.2516 1527.1688,148.2516 Q1527.3656,148.2516 1527.5156,148.4109 Q1527.675,148.5609 1527.675,148.7672 Q1527.675,148.9734 1527.4688,149.2172 Q1527.1688,149.5641 1526.6906,149.7609 Q1526.0438,150.0328 1525.2656,150.0328 Q1524.3563,150.0328 1523.6344,149.6578 Q1523.0438,149.3578 1522.6313,148.7203 Q1522.2188,148.0734 1522.2188,147.3047 L1522.2188,146.6109 Q1522.2188,145.8141 1522.5844,145.1297 Q1522.9594,144.4359 1523.6156,144.0703 Q1524.2719,143.6953 1525.0125,143.6953 Q1525.4531,143.6953 1525.8375,143.7984 Q1526.2313,143.8922 1526.5594,144.1078 Z " fill="#000000"/><text fill="#000000" font-family="sans-serif" font-size="7.2" font-style="italic" lengthAdjust="spacing" textLength="48.6" x="1538.1" y="143.9777">&#171;value object&#187;</text><text fill="#000000" font-family="sans-serif" font-size="8.4" lengthAdjust="spacing" textLength="58.2" x="1533.3" y="154.8492">MovementType</text><line style="stroke:#181818;stroke-width:0.3;" x1="1516.5" x2="1592.7" y1="159.9574" y2="159.9574"/></g><!--class Money--><g id="elem_Money"><rect codeLine="107" fill="#F1F1F1" height="31.5492" id="Money" rx="1.5" ry="1.5" style="stroke:#181818;stroke-width:0.3;" width="65.4" x="1614.3" y="133.2082"/><ellipse cx="1623.3" cy="146.5828" fill="#ADD1B2" rx="6.6" ry="6.6" style="stroke:#181818;stroke-width:0.6;"/><path d="M1624.9594,144.1078 Q1625.0531,143.9766 1625.1656,143.9109 Q1625.2781,143.8453 1625.4094,143.8453 Q1625.6344,143.8453 1625.775,144.0047 Q1625.9156,144.1547 1625.9156,144.5203 L1625.9156,145.3922 Q1625.9156,145.7578 1625.775,145.9172 Q1625.6344,146.0766 1625.4094,146.0766 Q1625.2031,146.0766 1625.0813,145.9547 Q1624.9594,145.8422 1624.8938,145.5328 Q1624.8656,145.3172 1624.7531,145.2047 Q1624.5562,144.9797 1624.1906,144.8484 Q1623.825,144.7172 1623.45,144.7172 Q1622.9906,144.7172 1622.6063,144.9141 Q1622.2313,145.1109 1621.9312,145.5609 Q1621.6406,146.0109 1621.6406,146.6297 L1621.6406,147.2859 Q1621.6406,148.0266 1622.175,148.5234 Q1622.7094,149.0109 1623.6656,149.0109 Q1624.2281,149.0109 1624.6219,148.8609 Q1624.8563,148.7672 1625.1094,148.5047 Q1625.2688,148.3453 1625.3531,148.2984 Q1625.4469,148.2516 1625.5688,148.2516 Q1625.7656,148.2516 1625.9156,148.4109 Q1626.075,148.5609 1626.075,148.7672 Q1626.075,148.9734 1625.8687,149.2172 Q1625.5688,149.5641 1625.0906,149.7609 Q1624.4438,150.0328 1623.6656,150.0328 Q1622.7563,150.0328 1622.0344,149.6578 Q1621.4438,149.3578 1621.0313,148.7203 Q1620.6187,148.0734 1620.6187,147.3047 L1620.6187,146.6109 Q1620.6187,145.8141 1620.9844,145.1297 Q1621.3594,144.4359 1622.0156,144.0703 Q1622.6719,143.6953 1623.4125,143.6953 Q1623.8531,143.6953 1624.2375,143.7984 Q1624.6313,143.8922 1624.9594,144.1078 Z " fill="#000000"/><text fill="#000000" font-family="sans-serif" font-size="7.2" font-style="italic" lengthAdjust="spacing" textLength="48.6" x="1630.5" y="143.9777">&#171;value object&#187;</text><text fill="#000000" font-family="sans-serif" font-size="8.4" lengthAdjust="spacing" textLength="25.2" x="1642.2" y="154.8492">Money</text><line style="stroke:#181818;stroke-width:0.3;" x1="1614.9" x2="1679.1" y1="159.9574" y2="159.9574"/></g><!--class Calender--><g id="elem_Calender"><rect codeLine="110" fill="#F1F1F1" height="24" id="Calender" rx="1.5" ry="1.5" style="stroke:#181818;stroke-width:0.3;" width="54" x="1701" y="137.1082"/><ellipse cx="1710" cy="146.7082" fill="#ADD1B2" rx="6.6" ry="6.6" style="stroke:#181818;stroke-width:0.6;"/><path d="M1711.6594,144.2332 Q1711.7531,144.102 1711.8656,144.0363 Q1711.9781,143.9707 1712.1094,143.9707 Q1712.3344,143.9707 1712.475,144.1301 Q1712.6156,144.2801 1712.6156,144.6457 L1712.6156,145.5176 Q1712.6156,145.8832 1712.475,146.0426 Q1712.3344,146.202 1712.1094,146.202 Q1711.9031,146.202 1711.7813,146.0801 Q1711.6594,145.9676 1711.5938,145.6582 Q1711.5656,145.4426 1711.4531,145.3301 Q1711.2563,145.1051 1710.8906,144.9738 Q1710.525,144.8426 1710.15,144.8426 Q1709.6906,144.8426 1709.3062,145.0395 Q1708.9312,145.2363 1708.6313,145.6863 Q1708.3406,146.1363 1708.3406,146.7551 L1708.3406,147.4113 Q1708.3406,148.152 1708.875,148.6488 Q1709.4094,149.1363 1710.3656,149.1363 Q1710.9281,149.1363 1711.3219,148.9863 Q1711.5562,148.8926 1711.8094,148.6301 Q1711.9688,148.4707 1712.0531,148.4238 Q1712.1469,148.377 1712.2688,148.377 Q1712.4656,148.377 1712.6156,148.5363 Q1712.775,148.6863 1712.775,148.8926 Q1712.775,149.0988 1712.5688,149.3426 Q1712.2688,149.6895 1711.7906,149.8863 Q1711.1438,150.1582 1710.3656,150.1582 Q1709.4563,150.1582 1708.7344,149.7832 Q1708.1438,149.4832 1707.7313,148.8457 Q1707.3188,148.1988 1707.3188,147.4301 L1707.3188,146.7363 Q1707.3188,145.9395 1707.6844,145.2551 Q1708.0594,144.5613 1708.7156,144.1957 Q1709.3719,143.8207 1710.1125,143.8207 Q1710.5531,143.8207 1710.9375,143.9238 Q1711.3313,144.0176 1711.6594,144.2332 Z " fill="#000000"/><text fill="#000000" font-family="sans-serif" font-size="8.4" lengthAdjust="spacing" textLength="34.8" x="1718.4" y="150.1863">Calender</text><line style="stroke:#181818;stroke-width:0.3;" x1="1701.6" x2="1754.4" y1="156.3082" y2="156.3082"/></g><!--class CardMovementID--><g id="elem_CardMovementID"><rect codeLine="113" fill="#F1F1F1" height="41.1258" id="CardMovementID" rx="1.5" ry="1.5" style="stroke:#181818;stroke-width:0.3;" width="84.6" x="1776.3" y="128.4082"/><ellipse cx="1785.3" cy="146.5711" fill="#ADD1B2" rx="6.6" ry="6.6" style="stroke:#181818;stroke-width:0.6;"/><path d="M1786.9594,144.0961 Q1787.0531,143.9648 1787.1656,143.8992 Q1787.2781,143.8336 1787.4094,143.8336 Q1787.6344,143.8336 1787.775,143.993 Q1787.9156,144.143 1787.9156,144.5086 L1787.9156,145.3805 Q1787.9156,145.7461 1787.775,145.9055 Q1787.6344,146.0648 1787.4094,146.0648 Q1787.2031,146.0648 1787.0813,145.943 Q1786.9594,145.8305 1786.8938,145.5211 Q1786.8656,145.3055 1786.7531,145.193 Q1786.5562,144.968 1786.1906,144.8367 Q1785.825,144.7055 1785.45,144.7055 Q1784.9906,144.7055 1784.6063,144.9023 Q1784.2313,145.0992 1783.9312,145.5492 Q1783.6406,145.9992 1783.6406,146.618 L1783.6406,147.2742 Q1783.6406,148.0148 1784.175,148.5117 Q1784.7094,148.9992 1785.6656,148.9992 Q1786.2281,148.9992 1786.6219,148.8492 Q1786.8563,148.7555 1787.1094,148.493 Q1787.2688,148.3336 1787.3531,148.2867 Q1787.4469,148.2398 1787.5688,148.2398 Q1787.7656,148.2398 1787.9156,148.3992 Q1788.075,148.5492 1788.075,148.7555 Q1788.075,148.9617 1787.8687,149.2055 Q1787.5688,149.5523 1787.0906,149.7492 Q1786.4438,150.0211 1785.6656,150.0211 Q1784.7563,150.0211 1784.0344,149.6461 Q1783.4438,149.3461 1783.0313,148.7086 Q1782.6187,148.0617 1782.6187,147.293 L1782.6187,146.5992 Q1782.6187,145.8023 1782.9844,145.118 Q1783.3594,144.4242 1784.0156,144.0586 Q1784.6719,143.6836 1785.4125,143.6836 Q1785.8531,143.6836 1786.2375,143.7867 Q1786.6313,143.8805 1786.9594,144.0961 Z " fill="#000000"/><text fill="#000000" font-family="sans-serif" font-size="7.2" font-style="italic" lengthAdjust="spacing" textLength="48.6" x="1802.1" y="139.1777">&#171;value object&#187;</text><text fill="#000000" font-family="sans-serif" font-size="7.2" font-style="italic" lengthAdjust="spacing" textLength="14.4" x="1819.2" y="148.7543">&#171;id&#187;</text><text fill="#000000" font-family="sans-serif" font-size="8.4" lengthAdjust="spacing" textLength="65.4" x="1793.7" y="159.6258">CardMovementID</text><line style="stroke:#181818;stroke-width:0.3;" x1="1776.9" x2="1860.3" y1="164.734" y2="164.734"/></g><!--link CafeteriaUser to Role--><g id="link_CafeteriaUser_Role"><path codeLine="15" d="M1131.702,169.8142 C1119.6,179.9482 1105.158,192.7162 1093.2,205.2082 C1081.23,217.7182 1071.2139,230.3542 1062.7539,241.7002 " fill="none" id="CafeteriaUser-to-Role" style="stroke:#181818;stroke-width:0.6;"/><polygon fill="#181818" points="1060.602,244.5862,1065.7539,241.6918,1062.3953,242.1812,1061.9059,238.8225,1060.602,244.5862" style="stroke:#181818;stroke-width:0.6;"/><text fill="#000000" font-family="sans-serif" font-size="7.8" lengthAdjust="spacing" textLength="4.2" x="1058.5068" y="237.9448">1</text></g><!--link CafeteriaUser to MecanographicNumber--><g id="link_CafeteriaUser_MecanographicNumber"><path codeLine="16" d="M1156.8,169.9582 C1156.8,189.8782 1156.8,216.5122 1156.8,236.3902 " fill="none" id="CafeteriaUser-to-MecanographicNumber" style="stroke:#181818;stroke-width:0.6;"/><polygon fill="#181818" points="1156.8,239.9902,1159.2,234.5902,1156.8,236.9902,1154.4,234.5902,1156.8,239.9902" style="stroke:#181818;stroke-width:0.6;"/><text fill="#000000" font-family="sans-serif" font-size="7.8" lengthAdjust="spacing" textLength="4.2" x="1152.1997" y="233.3284">1</text></g><!--link Meal to MealID--><g id="link_Meal_MealID"><path codeLine="32" d="M431.256,169.9582 C445.872,189.8782 465.9243,217.2098 480.5103,237.0878 " fill="none" id="Meal-to-MealID" style="stroke:#181818;stroke-width:0.6;"/><polygon fill="#181818" points="482.64,239.9902,481.3803,234.2167,480.8652,237.5715,477.5104,237.0564,482.64,239.9902" style="stroke:#181818;stroke-width:0.6;"/><text fill="#000000" font-family="sans-serif" font-size="7.8" lengthAdjust="spacing" textLength="4.2" x="475.2261" y="233.3284">1</text></g><!--link Meal to MealType--><g id="link_Meal_MealType"><path codeLine="33" d="M401.544,169.9582 C385.698,191.5582 363.0777,222.3877 348.7737,241.8817 " fill="none" id="Meal-to-MealType" style="stroke:#181818;stroke-width:0.6;"/><polygon fill="#181818" points="346.644,244.7842,351.7736,241.8503,348.4188,242.3655,347.9036,239.0107,346.644,244.7842" style="stroke:#181818;stroke-width:0.6;"/><text fill="#000000" font-family="sans-serif" font-size="7.8" lengthAdjust="spacing" textLength="4.2" x="344.6729" y="237.9284">1</text></g><!--link Meal to Calender--><g id="link_Meal_Calender"><path codeLine="34" d="M416.4,169.9582 C416.4,193.0522 416.4,226.4122 416.4,245.0182 " fill="none" id="Meal-to-Calender" style="stroke:#181818;stroke-width:0.6;"/><polygon fill="#181818" points="416.4,248.6182,418.8,243.2182,416.4,245.6182,414,243.2182,416.4,248.6182" style="stroke:#181818;stroke-width:0.6;"/><text fill="#000000" font-family="sans-serif" font-size="7.8" lengthAdjust="spacing" textLength="4.2" x="411.6094" y="242.0251">1</text></g><!--link Dish to Designation--><g id="link_Dish_Designation"><path codeLine="57" d="M763.578,273.0142 C799.776,285.3022 857.634,305.6002 906.6,325.8082 C909.966,327.1942 910.1565,327.2376 913.6245,328.7796 " fill="none" id="Dish-to-Designation" style="stroke:#181818;stroke-width:0.6;"/><polygon fill="#181818" points="916.914,330.2422,912.9549,325.8553,914.1728,329.0233,911.0047,330.2413,916.914,330.2422" style="stroke:#181818;stroke-width:0.6;"/><text fill="#000000" font-family="sans-serif" font-size="7.8" lengthAdjust="spacing" textLength="4.2" x="908.0128" y="325.6183">1</text></g><!--link Dish to NutricionalInfo--><g id="link_Dish_NutricionalInfo"><path codeLine="58" d="M743.262,289.2442 C750.582,303.0082 757.435,315.8981 763.555,327.4001 " fill="none" id="Dish-to-NutricionalInfo" style="stroke:#181818;stroke-width:0.6;"/><polygon fill="#181818" points="765.246,330.5782,764.8282,324.6837,763.8368,327.9298,760.5907,326.9384,765.246,330.5782" style="stroke:#181818;stroke-width:0.6;"/><text fill="#000000" font-family="sans-serif" font-size="7.8" lengthAdjust="spacing" textLength="4.2" x="758.5466" y="323.721">1</text></g><!--link Dish to Money--><g id="link_Dish_Money"><path codeLine="59" d="M763.518,283.3162 C787.188,298.1482 814.7734,315.4367 835.8394,328.6367 " fill="none" id="Dish-to-Money" style="stroke:#181818;stroke-width:0.6;"/><polygon fill="#181818" points="838.89,330.5482,835.5884,325.6472,836.3478,328.9553,833.0398,329.7147,838.89,330.5482" style="stroke:#181818;stroke-width:0.6;"/><text fill="#000000" font-family="sans-serif" font-size="7.8" lengthAdjust="spacing" textLength="4.2" x="828.5364" y="323.9443">1</text></g><!--link Dish to Description--><g id="link_Dish_Description"><path codeLine="60" d="M713.538,289.2442 C706.218,303.0082 699.365,315.8981 693.245,327.4001 " fill="none" id="Dish-to-Description" style="stroke:#181818;stroke-width:0.6;"/><polygon fill="#181818" points="691.554,330.5782,696.2093,326.9384,692.9632,327.9298,691.9718,324.6837,691.554,330.5782" style="stroke:#181818;stroke-width:0.6;"/><text fill="#000000" font-family="sans-serif" font-size="7.8" lengthAdjust="spacing" textLength="4.2" x="688.8297" y="323.721">1</text></g><!--link Dish to DishType--><g id="link_Dish_DishType"><path codeLine="61" d="M693.186,283.9822 C670.308,298.7122 644.109,315.5795 623.913,328.5815 " fill="none" id="Dish-to-DishType" style="stroke:#181818;stroke-width:0.6;"/><polygon fill="#181818" points="620.886,330.5302,626.7256,329.6251,623.4085,328.9063,624.1273,325.5891,620.886,330.5302" style="stroke:#181818;stroke-width:0.6;"/><text fill="#000000" font-family="sans-serif" font-size="7.8" lengthAdjust="spacing" textLength="4.2" x="621.724" y="323.9221">1</text></g><!--link Booking to BookingToken--><g id="link_Booking_BookingToken"><path codeLine="77" d="M212.646,67.3822 C196.11,85.0702 174.7064,107.9644 158.1824,125.6404 " fill="none" id="Booking-to-BookingToken" style="stroke:#181818;stroke-width:0.6;"/><polygon fill="#181818" points="155.724,128.2702,161.1649,125.9644,157.7727,126.0787,157.6584,122.6865,155.724,128.2702" style="stroke:#181818;stroke-width:0.6;"/><text fill="#000000" font-family="sans-serif" font-size="7.8" lengthAdjust="spacing" textLength="4.2" x="154.7311" y="121.5855">1</text></g><!--link Booking to BookingStatus--><g id="link_Booking_BookingStatus"><path codeLine="78" d="M231.6,67.3822 C231.6,86.7442 231.6,111.9022 231.6,129.4702 " fill="none" id="Booking-to-BookingStatus" style="stroke:#181818;stroke-width:0.6;"/><polygon fill="#181818" points="231.6,133.0702,234,127.6702,231.6,130.0702,229.2,127.6702,231.6,133.0702" style="stroke:#181818;stroke-width:0.6;"/><text fill="#000000" font-family="sans-serif" font-size="7.8" lengthAdjust="spacing" textLength="4.2" x="226.9144" y="126.4482">1</text></g><!--link Booking to Money--><g id="link_Booking_Money"><path codeLine="79" d="M206.556,52.8982 C176.778,60.5962 126.45,76.2382 89.4,101.4082 C76.734,110.0122 67.3933,120.1932 59.4193,130.3632 " fill="none" id="Booking-to-Money" style="stroke:#181818;stroke-width:0.6;"/><polygon fill="#181818" points="57.198,133.1962,62.4186,130.4275,59.0491,130.8354,58.6412,127.4658,57.198,133.1962" style="stroke:#181818;stroke-width:0.6;"/><text fill="#000000" font-family="sans-serif" font-size="7.8" lengthAdjust="spacing" textLength="4.2" x="55.1669" y="126.3434">1</text></g><!--link CardBalance to Money--><g id="link_CardBalance_Money"><path codeLine="95" d="M1351.956,65.2882 C1368.912,74.9842 1389.228,87.7282 1405.8,101.4082 C1417.266,110.8762 1426.2491,120.5811 1434.4151,130.3071 " fill="none" id="CardBalance-to-Money" style="stroke:#181818;stroke-width:0.6;"/><polygon fill="#181818" points="1436.73,133.0642,1435.0958,127.3854,1434.801,130.7666,1431.4197,130.4718,1436.73,133.0642" style="stroke:#181818;stroke-width:0.6;"/><text fill="#000000" font-family="sans-serif" font-size="7.8" lengthAdjust="spacing" textLength="4.2" x="1429.2069" y="126.4408">1</text></g><!--link CardBalance to Calender--><g id="link_CardBalance_Calender"><path codeLine="96" d="M1308.24,67.3822 C1298.586,88.3042 1285.3764,116.9254 1277.5824,133.8154 " fill="none" id="CardBalance-to-Calender" style="stroke:#181818;stroke-width:0.6;"/><polygon fill="#181818" points="1276.074,137.0842,1280.5158,133.1867,1277.331,134.3602,1276.1574,131.1755,1276.074,137.0842" style="stroke:#181818;stroke-width:0.6;"/><text fill="#000000" font-family="sans-serif" font-size="7.8" lengthAdjust="spacing" textLength="4.2" x="1272.8064" y="130.2967">1</text></g><!--link CardBalance to CardBalanceID--><g id="link_CardBalance_CardBalanceID"><path codeLine="97" d="M1325.52,67.3822 C1332.426,85.0702 1341.0819,107.241 1347.9879,124.917 " fill="none" id="CardBalance-to-CardBalanceID" style="stroke:#181818;stroke-width:0.6;"/><polygon fill="#181818" points="1349.298,128.2702,1349.5683,122.3671,1348.2063,125.4759,1345.0974,124.1138,1349.298,128.2702" style="stroke:#181818;stroke-width:0.6;"/><text fill="#000000" font-family="sans-serif" font-size="7.8" lengthAdjust="spacing" textLength="4.2" x="1343.1914" y="121.5855">1</text></g><!--link CardMovement to MovementType--><g id="link_CardMovement_MovementType"><path codeLine="116" d="M1628.526,67.3822 C1610.88,86.7442 1587.1027,112.8412 1571.0947,130.4092 " fill="none" id="CardMovement-to-MovementType" style="stroke:#181818;stroke-width:0.6;"/><polygon fill="#181818" points="1568.67,133.0702,1574.081,130.6952,1570.6906,130.8527,1570.5331,127.4623,1568.67,133.0702" style="stroke:#181818;stroke-width:0.6;"/><text fill="#000000" font-family="sans-serif" font-size="7.8" lengthAdjust="spacing" textLength="4.2" x="1567.2381" y="126.4482">1</text></g><!--link CardMovement to Money--><g id="link_CardMovement_Money"><path codeLine="117" d="M1647,67.3822 C1647,86.7442 1647,111.9022 1647,129.4702 " fill="none" id="CardMovement-to-Money" style="stroke:#181818;stroke-width:0.6;"/><polygon fill="#181818" points="1647,133.0702,1649.4,127.6702,1647,130.0702,1644.6,127.6702,1647,133.0702" style="stroke:#181818;stroke-width:0.6;"/><text fill="#000000" font-family="sans-serif" font-size="7.8" lengthAdjust="spacing" textLength="4.2" x="1642.3144" y="126.4482">1</text></g><!--link CardMovement to Calender--><g id="link_CardMovement_Calender"><path codeLine="118" d="M1663.194,67.3822 C1679.91,88.3042 1703.1395,117.3811 1716.6275,134.2711 " fill="none" id="CardMovement-to-Calender" style="stroke:#181818;stroke-width:0.6;"/><polygon fill="#181818" points="1718.874,137.0842,1717.3797,131.3669,1717.0019,134.74,1713.6289,134.3622,1718.874,137.0842" style="stroke:#181818;stroke-width:0.6;"/><text fill="#000000" font-family="sans-serif" font-size="7.8" lengthAdjust="spacing" textLength="4.2" x="1711.3764" y="130.2967">1</text></g><!--link CardMovement to CardMovementID--><g id="link_CardMovement_CardMovementID"><path codeLine="119" d="M1685.43,61.2442 C1709.466,70.9042 1740.546,84.9142 1765.8,101.4082 C1777.524,109.0642 1786.6644,116.7706 1796.0964,125.7046 " fill="none" id="CardMovement-to-CardMovementID" style="stroke:#181818;stroke-width:0.6;"/><polygon fill="#181818" points="1798.71,128.1802,1796.44,122.7243,1796.532,126.1172,1793.1391,126.2092,1798.71,128.1802" style="stroke:#181818;stroke-width:0.6;"/><text fill="#000000" font-family="sans-serif" font-size="7.8" lengthAdjust="spacing" textLength="4.2" x="1790.4556" y="121.6397">1</text></g><!--link Meal to Dish--><g id="link_Meal_Dish"><path codeLine="122" d="M437.844,157.2982 C490.782,176.0302 624.6802,223.4053 689.7742,246.4393 " fill="none" id="Meal-to-Dish" style="stroke:#181818;stroke-width:0.6;"/><polygon fill="#181818" points="693.168,247.6402,688.8779,243.5763,690.3398,246.6394,687.2767,248.1014,693.168,247.6402" style="stroke:#181818;stroke-width:0.6;"/><text fill="#000000" font-family="sans-serif" font-size="7.8" lengthAdjust="spacing" textLength="29.4" x="554.4" y="198.0252">contains</text><text fill="#000000" font-family="sans-serif" font-size="7.8" lengthAdjust="spacing" textLength="3" x="442.5762" y="156.1988">*</text><text fill="#000000" font-family="sans-serif" font-size="7.8" lengthAdjust="spacing" textLength="4.2" x="684.1848" y="243.5343">1</text></g><!--link Booking to Meal--><g id="link_Booking_Meal"><path codeLine="123" d="M256.524,60.7822 C293.076,80.8402 357.4439,116.1584 391.8659,135.0464 " fill="none" id="Booking-to-Meal" style="stroke:#181818;stroke-width:0.6;"/><polygon fill="#181818" points="395.022,136.7782,391.4424,132.0764,392.3919,135.335,389.1333,136.2846,395.022,136.7782" style="stroke:#181818;stroke-width:0.6;"/><text fill="#000000" font-family="sans-serif" font-size="7.8" lengthAdjust="spacing" textLength="28.8" x="319.2" y="94.2252">reserves</text><text fill="#000000" font-family="sans-serif" font-size="7.8" lengthAdjust="spacing" textLength="3" x="261.2308" y="60.6733">*</text><text fill="#000000" font-family="sans-serif" font-size="7.8" lengthAdjust="spacing" textLength="4.2" x="385.9797" y="131.4465">1</text></g><!--link Booking to CafeteriaUser--><g id="link_Booking_CafeteriaUser"><path codeLine="124" d="M256.584,49.8442 C384.894,63.9082 965.9734,127.596 1117.3474,144.186 " fill="none" id="Booking-to-CafeteriaUser" style="stroke:#181818;stroke-width:0.6;"/><polygon fill="#181818" points="1120.926,144.5782,1115.8196,141.6042,1117.9439,144.2514,1115.2967,146.3756,1120.926,144.5782" style="stroke:#181818;stroke-width:0.6;"/><text fill="#000000" font-family="sans-serif" font-size="7.8" lengthAdjust="spacing" textLength="35.4" x="667.2" y="94.2252">belongsTo</text><text fill="#000000" font-family="sans-serif" font-size="7.8" lengthAdjust="spacing" textLength="3" x="261.3015" y="47.787">*</text><text fill="#000000" font-family="sans-serif" font-size="7.8" lengthAdjust="spacing" textLength="4.2" x="1112.0979" y="141.6489">1</text></g><!--link CardBalance to CafeteriaUser--><g id="link_CardBalance_CafeteriaUser"><path codeLine="125" d="M1283.238,64.7602 C1271.694,70.9522 1258.842,78.1342 1247.4,85.2082 C1225.53,98.7262 1204.6413,113.3213 1186.9293,126.1793 " fill="none" id="CardBalance-to-CafeteriaUser" style="stroke:#181818;stroke-width:0.6;"/><polygon fill="#181818" points="1184.016,128.2942,1189.7959,127.0641,1186.4437,126.5318,1186.976,123.1797,1184.016,128.2942" style="stroke:#181818;stroke-width:0.6;"/><text fill="#000000" font-family="sans-serif" font-size="7.8" lengthAdjust="spacing" textLength="42" x="1248" y="94.2252">has balance</text><text fill="#000000" font-family="sans-serif" font-size="7.8" lengthAdjust="spacing" textLength="4.2" x="1274.3663" y="64.691">1</text><text fill="#000000" font-family="sans-serif" font-size="7.8" lengthAdjust="spacing" textLength="4.2" x="1184.6037" y="121.6141">1</text></g><!--link CardMovement to CafeteriaUser--><g id="link_CardMovement_CafeteriaUser"><path codeLine="126" d="M1608.492,62.8222 C1577.502,74.6182 1532.526,89.8582 1491.6,96.6082 C1463.376,101.2642 1261.668,93.4282 1234.2,101.4082 C1215.396,106.8682 1199.5141,116.0827 1185.1381,126.2407 " fill="none" id="CardMovement-to-CafeteriaUser" style="stroke:#181818;stroke-width:0.6;"/><polygon fill="#181818" points="1182.198,128.3182,1187.9931,127.1621,1184.6481,126.587,1185.2232,123.242,1182.198,128.3182" style="stroke:#181818;stroke-width:0.6;"/><text fill="#000000" font-family="sans-serif" font-size="7.8" lengthAdjust="spacing" textLength="45" x="1539.6" y="94.2252">performed by</text><text fill="#000000" font-family="sans-serif" font-size="7.8" lengthAdjust="spacing" textLength="3" x="1600.8661" y="62.3618">*</text><text fill="#000000" font-family="sans-serif" font-size="7.8" lengthAdjust="spacing" textLength="4.2" x="1187.4398" y="121.6427">1</text></g><!--SRC=[hPR1RkCW48RlF0NoSQL8tMjbHTesbnxIGvjzW36UE6nii017Sgky-s8xJd2CAPNgKyJy0p_Vm11zvA861HLb9MZznnZ5iyRW2vFYdNyWVI07dYF5gZOjXJ6i2Qc17Q50cgGf58N20Wokr_GPzcXGSVYhKINqar3xzNDFGpHDKHXkMfkJfafAOtyCwZDnajvaYLPmWh91AhD_o1Q4MsGWPA6WFd3ssbHPlyPTNfho_3vzQckrMjFaTzAl6mXxLYFdHIXRX7BAeXk9HT1fTsqTX-4PIXIvTRemqSicZaflyBRRBj4_tZcRHqOR0IWRhWzJADr804hthO0PVaBwI3DfAmHYlijkbcXS6zHCyTfmAQBqhusz0SogBH2nbt4dKmfiOztmGe3VZQzAFR6HkPCz3zuPdmjwbzv9Hq2Uu0LreCfFKjeMKqmBVHcClG0N-Ri1q-WVHdwPUoUF6CbyD3z2S6S82GRxNiN0_XnegYf_WX84m_kMUWr4TvDeDA5MuYmSsr5Sh_D3vujUcyYom77n1R-jF65b2Sq1Zf5uWeC-kidy7F9nwUymlsxl1ltcFwHoIpCBpshZKRX-k-hqBqJoAvdq3zlAxNyD0rneCjuBLzCdFLA5zlazeLypVQFjsu2b58NUIUAUcawvb740JRD1HoQx2IrJezfBLM5EivRy1m00]--></g></svg>