<?xml version="1.0" encoding="us-ascii" standalone="no"?><svg xmlns="http://www.w3.org/2000/svg" xmlns:xlink="http://www.w3.org/1999/xlink" contentStyleType="text/css" height="290px" preserveAspectRatio="none" style="width:743px;height:290px;background:#FFFFFF;" version="1.1" viewBox="0 0 743 290" width="743px" zoomAndPan="magnify"><defs/><g><!--cluster <<aggregate>> Dish--><g id="cluster_&lt;&lt;aggregate&gt;&gt; Dish"><path d="M8.5,6.0137 L132.5,6.0137 A3.75,3.75 0 0 1 135,8.5137 L142,30.6348 L733.5,30.6348 A2.5,2.5 0 0 1 736,33.1348 L736,280.5137 A2.5,2.5 0 0 1 733.5,283.0137 L8.5,283.0137 A2.5,2.5 0 0 1 6,280.5137 L6,8.5137 A2.5,2.5 0 0 1 8.5,6.0137 " fill="none" style="stroke:#000000;stroke-width:1.5;"/><line style="stroke:#000000;stroke-width:1.5;" x1="6" x2="142" y1="30.6348" y2="30.6348"/><text fill="#000000" font-family="sans-serif" font-size="14" font-weight="bold" lengthAdjust="spacing" textLength="123" x="10" y="23.1211">&#171;aggregate&#187; Dish</text></g><!--class Dish--><g id="elem_Dish"><rect codeLine="6" fill="#F1F1F1" height="95.1641" id="Dish" rx="2.5" ry="2.5" style="stroke:#181818;stroke-width:0.5;" width="117" x="312.5" y="43.0137"/><ellipse cx="348.2" cy="73.2852" fill="#ADD1B2" rx="11" ry="11" style="stroke:#181818;stroke-width:1.0;"/><path d="M350.9656,69.1602 Q351.1219,68.9414 351.3094,68.832 Q351.4969,68.7227 351.7156,68.7227 Q352.0906,68.7227 352.325,68.9883 Q352.5594,69.2383 352.5594,69.8477 L352.5594,71.3008 Q352.5594,71.9102 352.325,72.1758 Q352.0906,72.4414 351.7156,72.4414 Q351.3719,72.4414 351.1688,72.2383 Q350.9656,72.0508 350.8563,71.5352 Q350.8094,71.1758 350.6219,70.9883 Q350.2938,70.6133 349.6844,70.3945 Q349.075,70.1758 348.45,70.1758 Q347.6844,70.1758 347.0438,70.5039 Q346.4188,70.832 345.9188,71.582 Q345.4344,72.332 345.4344,73.3633 L345.4344,74.457 Q345.4344,75.6914 346.325,76.5195 Q347.2156,77.332 348.8094,77.332 Q349.7469,77.332 350.4031,77.082 Q350.7938,76.9258 351.2156,76.4883 Q351.4813,76.2227 351.6219,76.1445 Q351.7781,76.0664 351.9813,76.0664 Q352.3094,76.0664 352.5594,76.332 Q352.825,76.582 352.825,76.9258 Q352.825,77.2695 352.4813,77.6758 Q351.9813,78.2539 351.1844,78.582 Q350.1063,79.0352 348.8094,79.0352 Q347.2938,79.0352 346.0906,78.4102 Q345.1063,77.9102 344.4188,76.8477 Q343.7313,75.7695 343.7313,74.4883 L343.7313,73.332 Q343.7313,72.0039 344.3406,70.8633 Q344.9656,69.707 346.0594,69.0977 Q347.1531,68.4727 348.3875,68.4727 Q349.1219,68.4727 349.7625,68.6445 Q350.4188,68.8008 350.9656,69.1602 Z " fill="#000000"/><text fill="#000000" font-family="sans-serif" font-size="12" font-style="italic" lengthAdjust="spacing" textLength="43" x="364.8" y="60.9629">&#171;entity&#187;</text><text fill="#000000" font-family="sans-serif" font-size="12" font-style="italic" lengthAdjust="spacing" textLength="35" x="368.8" y="76.9238">&#171;root&#187;</text><text fill="#000000" font-family="sans-serif" font-size="14" lengthAdjust="spacing" textLength="28" x="372.3" y="95.043">Dish</text><line style="stroke:#181818;stroke-width:0.5;" x1="313.5" x2="428.5" y1="103.5566" y2="103.5566"/><text fill="#000000" font-family="sans-serif" font-size="14" lengthAdjust="spacing" textLength="105" x="318.5" y="122.6641">-active : boolean</text><line style="stroke:#181818;stroke-width:0.5;" x1="313.5" x2="428.5" y1="130.1777" y2="130.1777"/></g><!--class DishType--><g id="elem_DishType"><rect codeLine="10" fill="#F1F1F1" height="52.582" id="DishType" rx="2.5" ry="2.5" style="stroke:#181818;stroke-width:0.5;" width="109" x="22.5" y="206.0137"/><ellipse cx="37.5" cy="228.3047" fill="#ADD1B2" rx="11" ry="11" style="stroke:#181818;stroke-width:1.0;"/><path d="M40.2656,224.1797 Q40.4219,223.9609 40.6094,223.8516 Q40.7969,223.7422 41.0156,223.7422 Q41.3906,223.7422 41.625,224.0078 Q41.8594,224.2578 41.8594,224.8672 L41.8594,226.3203 Q41.8594,226.9297 41.625,227.1953 Q41.3906,227.4609 41.0156,227.4609 Q40.6719,227.4609 40.4688,227.2578 Q40.2656,227.0703 40.1563,226.5547 Q40.1094,226.1953 39.9219,226.0078 Q39.5938,225.6328 38.9844,225.4141 Q38.375,225.1953 37.75,225.1953 Q36.9844,225.1953 36.3438,225.5234 Q35.7188,225.8516 35.2188,226.6016 Q34.7344,227.3516 34.7344,228.3828 L34.7344,229.4766 Q34.7344,230.7109 35.625,231.5391 Q36.5156,232.3516 38.1094,232.3516 Q39.0469,232.3516 39.7031,232.1016 Q40.0938,231.9453 40.5156,231.5078 Q40.7813,231.2422 40.9219,231.1641 Q41.0781,231.0859 41.2813,231.0859 Q41.6094,231.0859 41.8594,231.3516 Q42.125,231.6016 42.125,231.9453 Q42.125,232.2891 41.7813,232.6953 Q41.2813,233.2734 40.4844,233.6016 Q39.4063,234.0547 38.1094,234.0547 Q36.5938,234.0547 35.3906,233.4297 Q34.4063,232.9297 33.7188,231.8672 Q33.0313,230.7891 33.0313,229.5078 L33.0313,228.3516 Q33.0313,227.0234 33.6406,225.8828 Q34.2656,224.7266 35.3594,224.1172 Q36.4531,223.4922 37.6875,223.4922 Q38.4219,223.4922 39.0625,223.6641 Q39.7188,223.8203 40.2656,224.1797 Z " fill="#000000"/><text fill="#000000" font-family="sans-serif" font-size="12" font-style="italic" lengthAdjust="spacing" textLength="81" x="49.5" y="223.9629">&#171;value object&#187;</text><text fill="#000000" font-family="sans-serif" font-size="14" lengthAdjust="spacing" textLength="60" x="60" y="242.082">DishType</text><line style="stroke:#181818;stroke-width:0.5;" x1="23.5" x2="130.5" y1="250.5957" y2="250.5957"/></g><!--class Description--><g id="elem_Description"><rect codeLine="13" fill="#F1F1F1" height="52.582" id="Description" rx="2.5" ry="2.5" style="stroke:#181818;stroke-width:0.5;" width="109" x="166.5" y="206.0137"/><ellipse cx="181.5" cy="228.3047" fill="#ADD1B2" rx="11" ry="11" style="stroke:#181818;stroke-width:1.0;"/><path d="M184.2656,224.1797 Q184.4219,223.9609 184.6094,223.8516 Q184.7969,223.7422 185.0156,223.7422 Q185.3906,223.7422 185.625,224.0078 Q185.8594,224.2578 185.8594,224.8672 L185.8594,226.3203 Q185.8594,226.9297 185.625,227.1953 Q185.3906,227.4609 185.0156,227.4609 Q184.6719,227.4609 184.4688,227.2578 Q184.2656,227.0703 184.1563,226.5547 Q184.1094,226.1953 183.9219,226.0078 Q183.5938,225.6328 182.9844,225.4141 Q182.375,225.1953 181.75,225.1953 Q180.9844,225.1953 180.3438,225.5234 Q179.7188,225.8516 179.2188,226.6016 Q178.7344,227.3516 178.7344,228.3828 L178.7344,229.4766 Q178.7344,230.7109 179.625,231.5391 Q180.5156,232.3516 182.1094,232.3516 Q183.0469,232.3516 183.7031,232.1016 Q184.0938,231.9453 184.5156,231.5078 Q184.7813,231.2422 184.9219,231.1641 Q185.0781,231.0859 185.2813,231.0859 Q185.6094,231.0859 185.8594,231.3516 Q186.125,231.6016 186.125,231.9453 Q186.125,232.2891 185.7813,232.6953 Q185.2813,233.2734 184.4844,233.6016 Q183.4063,234.0547 182.1094,234.0547 Q180.5938,234.0547 179.3906,233.4297 Q178.4063,232.9297 177.7188,231.8672 Q177.0313,230.7891 177.0313,229.5078 L177.0313,228.3516 Q177.0313,227.0234 177.6406,225.8828 Q178.2656,224.7266 179.3594,224.1172 Q180.4531,223.4922 181.6875,223.4922 Q182.4219,223.4922 183.0625,223.6641 Q183.7188,223.8203 184.2656,224.1797 Z " fill="#000000"/><text fill="#000000" font-family="sans-serif" font-size="12" font-style="italic" lengthAdjust="spacing" textLength="81" x="193.5" y="223.9629">&#171;value object&#187;</text><text fill="#000000" font-family="sans-serif" font-size="14" lengthAdjust="spacing" textLength="71" x="198.5" y="242.082">Description</text><line style="stroke:#181818;stroke-width:0.5;" x1="167.5" x2="274.5" y1="250.5957" y2="250.5957"/></g><!--class NutricionalInfo--><g id="elem_NutricionalInfo"><rect codeLine="16" fill="#F1F1F1" height="52.582" id="NutricionalInfo" rx="2.5" ry="2.5" style="stroke:#181818;stroke-width:0.5;" width="121" x="310.5" y="206.0137"/><ellipse cx="325.5" cy="228.3047" fill="#ADD1B2" rx="11" ry="11" style="stroke:#181818;stroke-width:1.0;"/><path d="M328.2656,224.1797 Q328.4219,223.9609 328.6094,223.8516 Q328.7969,223.7422 329.0156,223.7422 Q329.3906,223.7422 329.625,224.0078 Q329.8594,224.2578 329.8594,224.8672 L329.8594,226.3203 Q329.8594,226.9297 329.625,227.1953 Q329.3906,227.4609 329.0156,227.4609 Q328.6719,227.4609 328.4688,227.2578 Q328.2656,227.0703 328.1563,226.5547 Q328.1094,226.1953 327.9219,226.0078 Q327.5938,225.6328 326.9844,225.4141 Q326.375,225.1953 325.75,225.1953 Q324.9844,225.1953 324.3438,225.5234 Q323.7188,225.8516 323.2188,226.6016 Q322.7344,227.3516 322.7344,228.3828 L322.7344,229.4766 Q322.7344,230.7109 323.625,231.5391 Q324.5156,232.3516 326.1094,232.3516 Q327.0469,232.3516 327.7031,232.1016 Q328.0938,231.9453 328.5156,231.5078 Q328.7813,231.2422 328.9219,231.1641 Q329.0781,231.0859 329.2813,231.0859 Q329.6094,231.0859 329.8594,231.3516 Q330.125,231.6016 330.125,231.9453 Q330.125,232.2891 329.7813,232.6953 Q329.2813,233.2734 328.4844,233.6016 Q327.4063,234.0547 326.1094,234.0547 Q324.5938,234.0547 323.3906,233.4297 Q322.4063,232.9297 321.7188,231.8672 Q321.0313,230.7891 321.0313,229.5078 L321.0313,228.3516 Q321.0313,227.0234 321.6406,225.8828 Q322.2656,224.7266 323.3594,224.1172 Q324.4531,223.4922 325.6875,223.4922 Q326.4219,223.4922 327.0625,223.6641 Q327.7188,223.8203 328.2656,224.1797 Z " fill="#000000"/><text fill="#000000" font-family="sans-serif" font-size="12" font-style="italic" lengthAdjust="spacing" textLength="81" x="343.5" y="223.9629">&#171;value object&#187;</text><text fill="#000000" font-family="sans-serif" font-size="14" lengthAdjust="spacing" textLength="89" x="339.5" y="242.082">NutricionalInfo</text><line style="stroke:#181818;stroke-width:0.5;" x1="311.5" x2="430.5" y1="250.5957" y2="250.5957"/></g><!--class Money--><g id="elem_Money"><rect codeLine="19" fill="#F1F1F1" height="52.582" id="Money" rx="2.5" ry="2.5" style="stroke:#181818;stroke-width:0.5;" width="109" x="466.5" y="206.0137"/><ellipse cx="481.5" cy="228.3047" fill="#ADD1B2" rx="11" ry="11" style="stroke:#181818;stroke-width:1.0;"/><path d="M484.2656,224.1797 Q484.4219,223.9609 484.6094,223.8516 Q484.7969,223.7422 485.0156,223.7422 Q485.3906,223.7422 485.625,224.0078 Q485.8594,224.2578 485.8594,224.8672 L485.8594,226.3203 Q485.8594,226.9297 485.625,227.1953 Q485.3906,227.4609 485.0156,227.4609 Q484.6719,227.4609 484.4688,227.2578 Q484.2656,227.0703 484.1563,226.5547 Q484.1094,226.1953 483.9219,226.0078 Q483.5938,225.6328 482.9844,225.4141 Q482.375,225.1953 481.75,225.1953 Q480.9844,225.1953 480.3438,225.5234 Q479.7188,225.8516 479.2188,226.6016 Q478.7344,227.3516 478.7344,228.3828 L478.7344,229.4766 Q478.7344,230.7109 479.625,231.5391 Q480.5156,232.3516 482.1094,232.3516 Q483.0469,232.3516 483.7031,232.1016 Q484.0938,231.9453 484.5156,231.5078 Q484.7813,231.2422 484.9219,231.1641 Q485.0781,231.0859 485.2813,231.0859 Q485.6094,231.0859 485.8594,231.3516 Q486.125,231.6016 486.125,231.9453 Q486.125,232.2891 485.7813,232.6953 Q485.2813,233.2734 484.4844,233.6016 Q483.4063,234.0547 482.1094,234.0547 Q480.5938,234.0547 479.3906,233.4297 Q478.4063,232.9297 477.7188,231.8672 Q477.0313,230.7891 477.0313,229.5078 L477.0313,228.3516 Q477.0313,227.0234 477.6406,225.8828 Q478.2656,224.7266 479.3594,224.1172 Q480.4531,223.4922 481.6875,223.4922 Q482.4219,223.4922 483.0625,223.6641 Q483.7188,223.8203 484.2656,224.1797 Z " fill="#000000"/><text fill="#000000" font-family="sans-serif" font-size="12" font-style="italic" lengthAdjust="spacing" textLength="81" x="493.5" y="223.9629">&#171;value object&#187;</text><text fill="#000000" font-family="sans-serif" font-size="14" lengthAdjust="spacing" textLength="42" x="513" y="242.082">Money</text><line style="stroke:#181818;stroke-width:0.5;" x1="467.5" x2="574.5" y1="250.5957" y2="250.5957"/></g><!--class Designation--><g id="elem_Designation"><rect codeLine="22" fill="#F1F1F1" height="68.543" id="Designation" rx="2.5" ry="2.5" style="stroke:#181818;stroke-width:0.5;" width="109" x="610.5" y="198.0137"/><ellipse cx="625.5" cy="228.2852" fill="#ADD1B2" rx="11" ry="11" style="stroke:#181818;stroke-width:1.0;"/><path d="M628.2656,224.1602 Q628.4219,223.9414 628.6094,223.832 Q628.7969,223.7227 629.0156,223.7227 Q629.3906,223.7227 629.625,223.9883 Q629.8594,224.2383 629.8594,224.8477 L629.8594,226.3008 Q629.8594,226.9102 629.625,227.1758 Q629.3906,227.4414 629.0156,227.4414 Q628.6719,227.4414 628.4688,227.2383 Q628.2656,227.0508 628.1563,226.5352 Q628.1094,226.1758 627.9219,225.9883 Q627.5938,225.6133 626.9844,225.3945 Q626.375,225.1758 625.75,225.1758 Q624.9844,225.1758 624.3438,225.5039 Q623.7188,225.832 623.2188,226.582 Q622.7344,227.332 622.7344,228.3633 L622.7344,229.457 Q622.7344,230.6914 623.625,231.5195 Q624.5156,232.332 626.1094,232.332 Q627.0469,232.332 627.7031,232.082 Q628.0938,231.9258 628.5156,231.4883 Q628.7813,231.2227 628.9219,231.1445 Q629.0781,231.0664 629.2813,231.0664 Q629.6094,231.0664 629.8594,231.332 Q630.125,231.582 630.125,231.9258 Q630.125,232.2695 629.7813,232.6758 Q629.2813,233.2539 628.4844,233.582 Q627.4063,234.0352 626.1094,234.0352 Q624.5938,234.0352 623.3906,233.4102 Q622.4063,232.9102 621.7188,231.8477 Q621.0313,230.7695 621.0313,229.4883 L621.0313,228.332 Q621.0313,227.0039 621.6406,225.8633 Q622.2656,224.707 623.3594,224.0977 Q624.4531,223.4727 625.6875,223.4727 Q626.4219,223.4727 627.0625,223.6445 Q627.7188,223.8008 628.2656,224.1602 Z " fill="#000000"/><text fill="#000000" font-family="sans-serif" font-size="12" font-style="italic" lengthAdjust="spacing" textLength="81" x="637.5" y="215.9629">&#171;value object&#187;</text><text fill="#000000" font-family="sans-serif" font-size="12" font-style="italic" lengthAdjust="spacing" textLength="24" x="666" y="231.9238">&#171;id&#187;</text><text fill="#000000" font-family="sans-serif" font-size="14" lengthAdjust="spacing" textLength="75" x="640.5" y="250.043">Designation</text><line style="stroke:#181818;stroke-width:0.5;" x1="611.5" x2="718.5" y1="258.5566" y2="258.5566"/></g><!--link Dish to Designation--><g id="link_Dish_Designation"><path codeLine="25" d="M429.79,119.5037 C482.41,144.5637 553.5329,178.4339 604.8729,202.8839 " fill="none" id="Dish-to-Designation" style="stroke:#181818;stroke-width:1.0;"/><polygon fill="#181818" points="610.29,205.4637,603.8843,197.9826,605.7758,203.3138,600.4445,205.2053,610.29,205.4637" style="stroke:#181818;stroke-width:1.0;"/><text fill="#000000" font-family="sans-serif" font-size="13" lengthAdjust="spacing" textLength="7" x="595.468" y="197.7652">1</text></g><!--link Dish to NutricionalInfo--><g id="link_Dish_NutricionalInfo"><path codeLine="26" d="M371,138.1337 C371,160.7237 371,180.9837 371,199.8937 " fill="none" id="Dish-to-NutricionalInfo" style="stroke:#181818;stroke-width:1.0;"/><polygon fill="#181818" points="371,205.8937,375,196.8937,371,200.8937,367,196.8937,371,205.8937" style="stroke:#181818;stroke-width:1.0;"/><text fill="#000000" font-family="sans-serif" font-size="13" lengthAdjust="spacing" textLength="7" x="363.1906" y="194.8825">1</text></g><!--link Dish to Money--><g id="link_Dish_Money"><path codeLine="27" d="M420.95,138.1337 C445.15,160.7237 468.9037,182.8897 489.1637,201.7997 " fill="none" id="Dish-to-Money" style="stroke:#181818;stroke-width:1.0;"/><polygon fill="#181818" points="493.55,205.8937,489.6999,196.8285,489.8948,202.482,484.2413,202.6769,493.55,205.8937" style="stroke:#181818;stroke-width:1.0;"/><text fill="#000000" font-family="sans-serif" font-size="13" lengthAdjust="spacing" textLength="7" x="479.3928" y="194.8825">1</text></g><!--link Dish to Description--><g id="link_Dish_Description"><path codeLine="28" d="M321.05,138.1337 C296.85,160.7237 273.0963,182.8897 252.8363,201.7997 " fill="none" id="Dish-to-Description" style="stroke:#181818;stroke-width:1.0;"/><polygon fill="#181818" points="248.45,205.8937,257.7587,202.6769,252.1052,202.482,252.3001,196.8285,248.45,205.8937" style="stroke:#181818;stroke-width:1.0;"/><text fill="#000000" font-family="sans-serif" font-size="13" lengthAdjust="spacing" textLength="7" x="246.9884" y="194.8825">1</text></g><!--link Dish to DishType--><g id="link_Dish_DishType"><path codeLine="29" d="M312.21,119.5037 C259.26,144.7237 187.4873,178.9043 136.1573,203.3443 " fill="none" id="Dish-to-DishType" style="stroke:#181818;stroke-width:1.0;"/><polygon fill="#181818" points="130.74,205.9237,140.5855,205.6662,135.2544,203.7742,137.1463,198.4431,130.74,205.9237" style="stroke:#181818;stroke-width:1.0;"/><text fill="#000000" font-family="sans-serif" font-size="13" lengthAdjust="spacing" textLength="7" x="135.358" y="194.9194">1</text></g><!--SRC=[ZP11JyCm38Nl-HLMxvNWYg9AI5nsW0ly0JSpcLaNHuaxgKpxxmk12UXwg4zHtlUUdftt728cF80RCET7rSJzgBHn4bxva-3Ex7XBG8Ue4-1LpiP4T7lq18srw7qYZqfT1q-STmsS39IfaVK7hAMWh5CXh4qYMXxVqDUqw9IF10_GYmo4eIfdCqjvco8L-n67aK3w3tA_CVzXoYvnL9QmYdyPorwkq3XimhkiyZnBe6bj6_O1bzjOozkvhLwiRJjexfk_xbjnLlmMg2qNGwy7MX1_JctEvW80]--></g></svg>