<?xml version="1.0" encoding="us-ascii" standalone="no"?><svg xmlns="http://www.w3.org/2000/svg" xmlns:xlink="http://www.w3.org/1999/xlink" contentStyleType="text/css" height="571.9px" preserveAspectRatio="none" style="width:608px;height:571px;background:#FFFFFF;" version="1.1" viewBox="0 0 608 571" width="608.3px" zoomAndPan="magnify"><defs/><g><polygon fill="#FFFFFF" points="159.25,85.0732,159.25,85.1223,160.65,84.9766,162.05,85.1183,163.45,85.1665,164.85,84.9068,166.25,85.0732,166.1956,85.0732,165.9515,92.0555,165.9816,99.0377,166.2023,106.02,165.766,113.0022,166.6375,119.9845,165.8088,126.9667,166.1116,133.949,166.5524,140.9312,166.19,147.9135,166.2978,154.8957,166.2276,161.878,166.375,168.8602,166.4174,175.8425,166.66,182.8247,166.7197,189.807,166.7255,196.7892,166.4282,203.7715,166.5745,210.7537,166.7416,217.736,165.7452,224.7182,166.725,231.7005,166.0424,238.6827,166.6237,245.665,165.9035,252.6472,166.2021,259.6295,166.7691,266.6117,166.2159,273.594,166.3237,280.5762,166.487,287.5585,166.5414,294.5407,166.2473,301.523,166.451,308.5052,165.8493,315.4875,166.4491,322.4697,166.6337,329.452,166.5612,336.4342,166.6791,343.4165,165.9118,350.3987,165.7935,357.381,165.815,364.3632,166.2088,371.3455,166.1124,378.3277,166.727,385.31,166.1277,392.2922,166.0099,399.2745,166.4098,406.2567,165.7832,413.239,165.8866,420.2212,166.7043,427.2035,166.555,434.1857,166.7641,441.168,166.0247,448.1502,166.4734,455.1325,166.6633,462.1147,165.9193,469.097,166.1829,476.0792,166.3382,483.0615,166.25,490.0437,166.25,490.1958,164.85,490.0428,163.45,490.1517,162.05,489.9145,160.65,489.8857,159.25,490.0437,159.6025,490.0437,158.7481,483.0615,159.6063,476.0792,159.3946,469.097,159.0625,462.1147,159.0024,455.1325,159.5711,448.1502,159.0405,441.168,159.6643,434.1857,158.8631,427.2035,159.6822,420.2212,159.589,413.239,159.4215,406.2567,159.2831,399.2745,159.7586,392.2922,159.6795,385.31,159.3685,378.3277,159.4377,371.3455,159.1588,364.3632,159.7515,357.381,159.3584,350.3987,159.3708,343.4165,158.8242,336.4342,158.9663,329.452,159.6215,322.4697,159.5508,315.4875,159.2199,308.5052,159.0245,301.523,159.0968,294.5407,158.7697,287.5585,159.5403,280.5762,159.7677,273.594,159.6185,266.6117,159.7365,259.6295,159.1543,252.6472,159.3111,245.665,158.9787,238.6827,159.4488,231.7005,159.4227,224.7182,159.6367,217.736,159.0892,210.7537,159.1559,203.7715,159.5604,196.7892,159.6471,189.807,158.8912,182.8247,159.1143,175.8425,159.3545,168.8602,158.8224,161.878,159.4974,154.8957,159.4306,147.9135,159.1795,140.9312,159.3496,133.949,159.7601,126.9667,159.031,119.9845,159.4705,113.0022,159.45,106.02,159.331,99.0377,159.3486,92.0555,159.25,85.0732" style="stroke:#181818;stroke-width:0.6999999999999998;"/><polygon fill="#FFFFFF" points="303.45,128.8807,303.45,128.9297,304.85,128.784,306.25,128.9258,307.65,128.9739,309.05,128.7142,310.45,128.8807,310.3956,128.8807,310.1515,135.7671,310.1816,142.6535,310.4023,149.5399,309.966,156.4264,310.8375,163.3128,310.0088,170.1992,310.3116,177.0856,310.7524,183.972,310.39,190.8585,310.4978,197.7449,310.4276,204.6313,310.575,211.5177,310.6174,218.4042,310.86,225.2906,310.9197,232.177,310.9255,239.0634,310.6282,245.9498,310.7745,252.8363,310.9416,259.7227,309.9452,266.6091,310.925,273.4955,310.2424,280.382,310.8237,287.2684,310.1035,294.1548,310.4021,301.0412,310.9691,307.9276,310.45,314.8141,310.45,314.8027,309.05,314.8386,307.65,314.8931,306.25,314.9112,304.85,314.8132,303.45,314.8141,303.651,314.8141,303.0493,307.9276,303.6491,301.0412,303.8337,294.1548,303.7612,287.2684,303.8791,280.382,303.1118,273.4955,302.9935,266.6091,303.015,259.7227,303.4088,252.8363,303.3124,245.9498,303.927,239.0634,303.3277,232.177,303.2099,225.2906,303.6098,218.4042,302.9832,211.5177,303.0866,204.6313,303.9043,197.7449,303.755,190.8585,303.9641,183.972,303.2247,177.0856,303.6734,170.1992,303.8633,163.3128,303.1193,156.4264,303.3829,149.5399,303.5382,142.6535,303.9062,135.7671,303.45,128.8807" style="stroke:#181818;stroke-width:0.6999999999999998;"/><polygon fill="#FFFFFF" points="303.45,380.5252,303.45,380.5742,304.85,380.4285,306.25,380.5703,307.65,380.6185,309.05,380.3587,310.45,380.5252,310.3956,380.5252,310.1515,387.2648,310.1816,394.0044,310.4023,400.744,309.966,407.4836,310.8375,414.2232,310.0088,420.9628,310.3116,427.7024,310.7524,434.442,310.39,441.1816,310.4978,447.9212,310.4276,454.6608,310.575,461.4004,310.45,468.14,310.45,468.1958,309.05,468.2767,307.65,468.2966,306.25,468.2985,304.85,468.1995,303.45,468.14,303.7745,468.14,303.9416,461.4004,302.9452,454.6608,303.925,447.9212,303.2424,441.1816,303.8237,434.442,303.1035,427.7024,303.4021,420.9628,303.9691,414.2232,303.4159,407.4836,303.5237,400.744,303.687,394.0044,303.7414,387.2648,303.45,380.5252" style="stroke:#181818;stroke-width:0.6999999999999998;"/><polygon fill="#FFFFFF" points="426.65,188.9918,426.65,189.0408,428.05,188.8951,429.45,189.0369,430.85,189.0851,432.25,188.8253,433.65,188.9918,433.5956,188.9918,433.3515,195.9197,433.3816,202.8476,433.6023,209.7755,433.166,216.7034,434.0375,223.6313,433.2088,230.5592,433.5116,237.4871,433.9524,244.415,433.59,251.3429,433.6978,258.2708,433.6276,265.1987,433.775,272.1266,433.8174,279.0545,434.06,285.9824,433.65,292.9104,433.65,293.0669,432.25,293.0688,430.85,292.9698,429.45,293.0185,428.05,293.0742,426.65,292.9104,426.1452,292.9104,427.125,285.9824,426.4424,279.0545,427.0237,272.1266,426.3035,265.1987,426.6021,258.2708,427.1691,251.3429,426.6159,244.415,426.7237,237.4871,426.887,230.5592,426.9414,223.6313,426.6473,216.7034,426.851,209.7755,426.2493,202.8476,426.8491,195.9197,426.65,188.9918" style="stroke:#181818;stroke-width:0.6999999999999998;"/><polygon fill="#FFFFFF" points="568.4,249.1029,568.4,249.152,569.8,249.0063,571.2,249.148,572.6,249.1962,574,248.9365,575.4,249.1029,575.3819,249.1029,575.3005,253.4837,575.3105,257.8644,575.3841,262.2452,575.2387,266.6259,575.4,271.0066,575.4,271.1358,574,270.8596,572.6,270.9605,571.2,271.1074,569.8,270.9866,568.4,271.0066,568.4159,271.0066,568.3925,266.6259,568.4417,262.2452,568.4558,257.8644,568.5367,253.4837,568.4,249.1029" style="stroke:#181818;stroke-width:0.6999999999999998;"/><polygon fill="#FFFFFF" points="568.4,424.3326,568.4,424.3817,569.8,424.2359,571.2,424.3777,572.6,424.4259,574,424.1662,575.4,424.3326,575.3819,424.3326,575.3005,428.7134,575.3105,433.0941,575.3841,437.4748,575.2387,441.8556,575.4,446.2363,575.4,446.3655,574,446.0893,572.6,446.1902,571.2,446.3371,569.8,446.2163,568.4,446.2363,568.4159,446.2363,568.3925,441.8556,568.4417,437.4748,568.4558,433.0941,568.5367,428.7134,568.4,424.3326" style="stroke:#181818;stroke-width:0.6999999999999998;"/><path d="M37.1,61.7695 L37.2962,61.7695 L36.7133,68.7675 L37.2804,75.7655 L37.473,82.7635 L36.4342,89.7615 L37.0275,96.7595 L36.7019,103.7576 L36.7421,110.7556 L37.0364,117.7536 L36.4547,124.7516 L37.6167,131.7496 L36.5117,138.7476 L36.9154,145.7456 L37.5032,152.7436 L37.0199,159.7416 L37.1637,166.7396 L37.0702,173.7376 L37.2666,180.7356 L37.3232,187.7336 L37.6466,194.7316 L37.7263,201.7296 L37.734,208.7276 L37.3377,215.7256 L37.5327,222.7236 L37.7554,229.7216 L36.4269,236.7196 L37.7333,243.7176 L36.8233,250.7156 L37.5982,257.7136 L36.638,264.7116 L37.0361,271.7096 L37.7922,278.7076 L37.0545,285.7056 L37.1983,292.7036 L37.4161,299.7016 L37.4885,306.6997 L37.0964,313.6977 L37.3681,320.6957 L36.5657,327.6937 L37.3654,334.6917 L37.6116,341.6897 L37.5149,348.6877 L37.6722,355.6857 L36.6491,362.6837 L36.4913,369.6817 L36.52,376.6797 L37.045,383.6777 L36.9166,390.6757 L37.736,397.6737 L36.937,404.6717 L36.7798,411.6697 L37.3131,418.6677 L36.4776,425.6657 L36.6155,432.6637 L37.7057,439.6617 L37.5066,446.6597 L37.7855,453.6577 L36.7997,460.6557 L37.3979,467.6537 L37.6511,474.6517 L36.6591,481.6497 L37.0105,488.6477 L37.2176,495.6457 L37.1,502.6437 " fill="none" style="stroke:#181818;stroke-width:0.3499999999999999;stroke-dasharray:5.0,5.0;"/><path d="M162.4,61.7695 L162.5962,61.7695 L162.0133,68.7675 L162.5804,75.7655 L162.773,82.7635 L161.7342,89.7615 L162.3275,96.7595 L162.0019,103.7576 L162.0421,110.7556 L162.3364,117.7536 L161.7547,124.7516 L162.9167,131.7496 L161.8117,138.7476 L162.2154,145.7456 L162.8032,152.7436 L162.3199,159.7416 L162.4637,166.7396 L162.3702,173.7376 L162.5666,180.7356 L162.6232,187.7336 L162.9466,194.7316 L163.0263,201.7296 L163.034,208.7276 L162.6377,215.7256 L162.8327,222.7236 L163.0554,229.7216 L161.7269,236.7196 L163.0333,243.7176 L162.1233,250.7156 L162.8982,257.7136 L161.938,264.7116 L162.3361,271.7096 L163.0922,278.7076 L162.3545,285.7056 L162.4983,292.7036 L162.7161,299.7016 L162.7885,306.6997 L162.3964,313.6977 L162.6681,320.6957 L161.8657,327.6937 L162.6654,334.6917 L162.9116,341.6897 L162.8149,348.6877 L162.9722,355.6857 L161.9491,362.6837 L161.7913,369.6817 L161.82,376.6797 L162.345,383.6777 L162.2166,390.6757 L163.036,397.6737 L162.237,404.6717 L162.0798,411.6697 L162.6131,418.6677 L161.7776,425.6657 L161.9155,432.6637 L163.0057,439.6617 L162.8066,446.6597 L163.0855,453.6577 L162.0997,460.6557 L162.6979,467.6537 L162.9511,474.6517 L161.9591,481.6497 L162.3105,488.6477 L162.5176,495.6457 L162.4,502.6437 " fill="none" style="stroke:#181818;stroke-width:0.3499999999999999;stroke-dasharray:5.0,5.0;"/><path d="M306.6,61.7695 L306.7962,61.7695 L306.2133,68.7675 L306.7804,75.7655 L306.973,82.7635 L305.9342,89.7615 L306.5275,96.7595 L306.2019,103.7576 L306.2421,110.7556 L306.5364,117.7536 L305.9547,124.7516 L307.1167,131.7496 L306.0117,138.7476 L306.4154,145.7456 L307.0032,152.7436 L306.5199,159.7416 L306.6637,166.7396 L306.5702,173.7376 L306.7666,180.7356 L306.8232,187.7336 L307.1466,194.7316 L307.2263,201.7296 L307.234,208.7276 L306.8377,215.7256 L307.0327,222.7236 L307.2554,229.7216 L305.9269,236.7196 L307.2333,243.7176 L306.3233,250.7156 L307.0982,257.7136 L306.138,264.7116 L306.5361,271.7096 L307.2922,278.7076 L306.5545,285.7056 L306.6983,292.7036 L306.9161,299.7016 L306.9885,306.6997 L306.5964,313.6977 L306.8681,320.6957 L306.0657,327.6937 L306.8654,334.6917 L307.1116,341.6897 L307.0149,348.6877 L307.1722,355.6857 L306.1491,362.6837 L305.9913,369.6817 L306.02,376.6797 L306.545,383.6777 L306.4166,390.6757 L307.236,397.6737 L306.437,404.6717 L306.2798,411.6697 L306.8131,418.6677 L305.9776,425.6657 L306.1155,432.6637 L307.2057,439.6617 L307.0066,446.6597 L307.2855,453.6577 L306.2997,460.6557 L306.8979,467.6537 L307.1511,474.6517 L306.1591,481.6497 L306.5105,488.6477 L306.7176,495.6457 L306.6,502.6437 " fill="none" style="stroke:#181818;stroke-width:0.3499999999999999;stroke-dasharray:5.0,5.0;"/><path d="M429.8,61.7695 L429.9962,61.7695 L429.4133,68.7675 L429.9804,75.7655 L430.173,82.7635 L429.1342,89.7615 L429.7275,96.7595 L429.4019,103.7576 L429.4421,110.7556 L429.7364,117.7536 L429.1547,124.7516 L430.3167,131.7496 L429.2117,138.7476 L429.6154,145.7456 L430.2032,152.7436 L429.7199,159.7416 L429.8637,166.7396 L429.7702,173.7376 L429.9666,180.7356 L430.0232,187.7336 L430.3466,194.7316 L430.4263,201.7296 L430.434,208.7276 L430.0377,215.7256 L430.2327,222.7236 L430.4554,229.7216 L429.1269,236.7196 L430.4333,243.7176 L429.5233,250.7156 L430.2982,257.7136 L429.338,264.7116 L429.7361,271.7096 L430.4922,278.7076 L429.7545,285.7056 L429.8983,292.7036 L430.1161,299.7016 L430.1885,306.6997 L429.7964,313.6977 L430.0681,320.6957 L429.2657,327.6937 L430.0654,334.6917 L430.3116,341.6897 L430.2149,348.6877 L430.3722,355.6857 L429.3491,362.6837 L429.1913,369.6817 L429.22,376.6797 L429.745,383.6777 L429.6166,390.6757 L430.436,397.6737 L429.637,404.6717 L429.4798,411.6697 L430.0131,418.6677 L429.1776,425.6657 L429.3155,432.6637 L430.4057,439.6617 L430.2066,446.6597 L430.4855,453.6577 L429.4997,460.6557 L430.0979,467.6537 L430.3511,474.6517 L429.3591,481.6497 L429.7105,488.6477 L429.9176,495.6457 L429.8,502.6437 " fill="none" style="stroke:#181818;stroke-width:0.3499999999999999;stroke-dasharray:5.0,5.0;"/><path d="M502.6,61.7695 L502.7962,61.7695 L502.2133,68.7675 L502.7804,75.7655 L502.973,82.7635 L501.9342,89.7615 L502.5275,96.7595 L502.2019,103.7576 L502.2421,110.7556 L502.5364,117.7536 L501.9547,124.7516 L503.1167,131.7496 L502.0117,138.7476 L502.4154,145.7456 L503.0032,152.7436 L502.5199,159.7416 L502.6637,166.7396 L502.5702,173.7376 L502.7666,180.7356 L502.8232,187.7336 L503.1466,194.7316 L503.2263,201.7296 L503.234,208.7276 L502.8377,215.7256 L503.0327,222.7236 L503.2554,229.7216 L501.9269,236.7196 L503.2333,243.7176 L502.3233,250.7156 L503.0982,257.7136 L502.138,264.7116 L502.5361,271.7096 L503.2922,278.7076 L502.5545,285.7056 L502.6983,292.7036 L502.9161,299.7016 L502.9885,306.6997 L502.5964,313.6977 L502.8681,320.6957 L502.0657,327.6937 L502.8654,334.6917 L503.1116,341.6897 L503.0149,348.6877 L503.1722,355.6857 L502.1491,362.6837 L501.9913,369.6817 L502.02,376.6797 L502.545,383.6777 L502.4166,390.6757 L503.236,397.6737 L502.437,404.6717 L502.2798,411.6697 L502.8131,418.6677 L501.9776,425.6657 L502.1155,432.6637 L503.2057,439.6617 L503.0066,446.6597 L503.2855,453.6577 L502.2997,460.6557 L502.8979,467.6537 L503.1511,474.6517 L502.1591,481.6497 L502.5105,488.6477 L502.7176,495.6457 L502.6,502.6437 " fill="none" style="stroke:#181818;stroke-width:0.3499999999999999;stroke-dasharray:5.0,5.0;"/><path d="M571.9,61.7695 L572.0962,61.7695 L571.5133,68.7675 L572.0804,75.7655 L572.273,82.7635 L571.2342,89.7615 L571.8275,96.7595 L571.5019,103.7576 L571.5421,110.7556 L571.8364,117.7536 L571.2547,124.7516 L572.4167,131.7496 L571.3117,138.7476 L571.7154,145.7456 L572.3032,152.7436 L571.8199,159.7416 L571.9637,166.7396 L571.8702,173.7376 L572.0666,180.7356 L572.1232,187.7336 L572.4466,194.7316 L572.5263,201.7296 L572.534,208.7276 L572.1377,215.7256 L572.3327,222.7236 L572.5554,229.7216 L571.2269,236.7196 L572.5333,243.7176 L571.6233,250.7156 L572.3982,257.7136 L571.438,264.7116 L571.8361,271.7096 L572.5922,278.7076 L571.8545,285.7056 L571.9983,292.7036 L572.2161,299.7016 L572.2885,306.6997 L571.8964,313.6977 L572.1681,320.6957 L571.3657,327.6937 L572.1654,334.6917 L572.4116,341.6897 L572.3149,348.6877 L572.4722,355.6857 L571.4491,362.6837 L571.2913,369.6817 L571.32,376.6797 L571.845,383.6777 L571.7166,390.6757 L572.536,397.6737 L571.737,404.6717 L571.5798,411.6697 L572.1131,418.6677 L571.2776,425.6657 L571.4155,432.6637 L572.5057,439.6617 L572.3066,446.6597 L572.5855,453.6577 L571.5997,460.6557 L572.1979,467.6537 L572.4511,474.6517 L571.4591,481.6497 L571.8105,488.6477 L572.0176,495.6457 L571.9,502.6437 " fill="none" style="stroke:#181818;stroke-width:0.3499999999999999;stroke-dasharray:5.0,5.0;"/><text fill="#000000" font-family="FG Virgil" font-size="9.8" lengthAdjust="spacing" textLength="63.7" x="3.5" y="59.31">MenuManager</text><polygon fill="#E3E3E3" points="43.0809,14.0469,42.2601,15.1685,41.2892,16.8113,39.9006,17.9184,38.4414,18.5238,37.2779,18.5764,35.7826,17.8192,34.3716,17.3246,33.3007,16.3203,32.7389,15.1705,32.4058,14.2551,32.0794,13.0593,31.5496,12.0303,31.9567,11.0256,32.3134,9.9251,33.6518,9.0547,34.5935,7.9253,35.759,7.5503,37.1446,7.2273,38.9215,7.4192,39.8947,7.8782,41.0262,8.0862,42.402,9.4958,42.8816,10.9839,43.09,11.9992,42.854,13.6723" style="stroke:#181818;stroke-width:0.3499999999999999;"/><path d="M37.45,18.2848 L37.5808,18.2848 L37.1922,22.0648 L37.5703,25.8448 L37.6987,29.6248 L37.0061,33.4048 L37.45,37.1848 M28.35,23.8848 L28.35,23.8364 L31.99,23.6194 L35.63,23.6461 L39.27,23.8424 L42.91,23.4546 L46.55,23.8848 M37.45,37.1848 L37.7103,37.4104 L35.3336,39.0279 L33.717,41.3042 L32.1931,43.6608 L30.1297,45.5498 L28.35,47.6848 M37.45,37.1848 L37.4821,37.2126 L39.255,39.2717 L41.1739,41.4575 L43.0224,43.5822 L45.0054,45.8234 L46.55,47.6848 " fill="none" style="stroke:#181818;stroke-width:0.3499999999999999;"/><text fill="#000000" font-family="FG Virgil" font-size="9.8" lengthAdjust="spacing" textLength="63.7" x="3.5" y="512.5189">MenuManager</text><polygon fill="#E3E3E3" points="43.0809,522.2907,42.2601,523.4123,41.2892,525.0551,39.9006,526.1622,38.4414,526.7676,37.2779,526.8201,35.7826,526.063,34.3716,525.5683,33.3007,524.564,32.7389,523.4143,32.4058,522.4988,32.0794,521.3031,31.5496,520.2741,31.9567,519.2694,32.3134,518.1688,33.6518,517.2984,34.5935,516.1691,35.759,515.794,37.1446,515.4711,38.9215,515.663,39.8947,516.1219,41.0262,516.33,42.402,517.7396,42.8816,519.2276,43.09,520.2429,42.854,521.9161" style="stroke:#181818;stroke-width:0.3499999999999999;"/><path d="M37.45,526.5285 L37.5808,526.5285 L37.1922,530.3085 L37.5703,534.0885 L37.6987,537.8685 L37.0061,541.6485 L37.45,545.4285 M28.35,532.1285 L28.35,532.0802 L31.99,531.8631 L35.63,531.8899 L39.27,532.0861 L42.91,531.6983 L46.55,532.1285 M37.45,545.4285 L37.7103,545.6541 L35.3336,547.2717 L33.717,549.5479 L32.1931,551.9045 L30.1297,553.7936 L28.35,555.9285 M37.45,545.4285 L37.4821,545.4563 L39.255,547.5155 L41.1739,549.7013 L43.0224,551.826 L45.0054,554.0672 L46.55,555.9285 " fill="none" style="stroke:#181818;stroke-width:0.3499999999999999;"/><polygon fill="#E3E3E3" points="104.65,25.2,104.65,25.3471,111.4853,24.91,118.3206,25.3353,125.1559,25.4798,131.9912,24.7006,138.8265,25.1456,145.6618,24.9015,152.4971,24.9316,159.3324,25.1523,166.1676,24.716,173.0029,25.5875,179.8382,24.7588,186.6735,25.0616,193.5088,25.5024,200.3441,25.14,207.1794,25.2478,214.0147,25.1776,220.85,25.2,220.8659,25.2385,221.1188,25.3541,221.3973,25.5313,221.6524,25.6522,221.9006,25.7565,222.0874,25.7126,222.1423,25.7353,222.2899,26.0014,222.4438,26.2702,222.2395,26.3906,222.6438,26.7631,222.6,26.95,222.3924,26.95,222.9737,33.4239,222.2535,39.8978,222.5521,46.3717,223.1191,52.8456,222.6,59.3195,222.5895,59.3152,222.5202,59.5764,222.468,59.8447,222.3822,60.0992,222.1891,60.3091,222.0874,60.557,222.1131,60.6189,221.7888,60.5361,221.6179,60.8233,221.3939,60.9827,221.1372,61.0628,220.85,61.0695,220.85,61.4986,214.0147,60.7314,207.1794,60.613,200.3441,60.6346,193.5088,61.0283,186.6735,60.932,179.8382,61.5465,173.0029,60.9473,166.1676,60.8294,159.3324,61.2293,152.4971,60.6027,145.6618,60.7061,138.8265,61.5238,131.9912,61.3745,125.1559,61.5837,118.3206,60.8443,111.4853,61.293,104.65,61.0695,104.7027,61.1968,104.3603,60.8652,104.1465,60.8438,103.9188,60.7892,103.7182,60.8,103.4126,60.557,103.4117,60.5566,103.4098,60.3508,103.0882,60.0125,102.959,59.754,103.1111,59.612,102.9,59.3195,102.3981,59.3195,103.2563,52.8456,103.0446,46.3717,102.7125,39.8978,102.6524,33.4239,102.9,26.95,102.9989,26.991,102.938,26.6758,103.2326,26.5079,103.0884,26.1582,103.4432,26.0152,103.4126,25.7126,103.4558,25.817,103.6819,25.6629,103.9118,25.5177,104.2199,25.5617,104.4573,25.4348,104.65,25.2" style="stroke:#181818;stroke-width:0.3499999999999999;"/><text fill="#000000" font-family="FG Virgil" font-size="9.8" font-style="italic" lengthAdjust="spacing" textLength="66.5" x="129.5" y="40.6752">&#171;presentation&#187;</text><text fill="#000000" font-family="FG Virgil" font-size="9.8" lengthAdjust="spacing" textLength="109.9" x="107.8" y="53.71">ActivateDeactivateDishUI</text><polygon fill="#E3E3E3" points="104.65,501.9437,104.65,502.0909,111.4853,501.6537,118.3206,502.0791,125.1559,502.2235,131.9912,501.4444,138.8265,501.8894,145.6618,501.6452,152.4971,501.6753,159.3324,501.896,166.1676,501.4598,173.0029,502.3313,179.8382,501.5026,186.6735,501.8053,193.5088,502.2461,200.3441,501.8837,207.1794,501.9915,214.0147,501.9214,220.85,501.9437,220.8659,501.9822,221.1188,502.0978,221.3973,502.275,221.6524,502.3959,221.9006,502.5002,222.0874,502.4563,222.1423,502.479,222.2899,502.7452,222.4438,503.014,222.2395,503.1344,222.6438,503.5068,222.6,503.6937,222.3924,503.6937,222.9737,510.1677,222.2535,516.6416,222.5521,523.1155,223.1191,529.5894,222.6,536.0633,222.5895,536.0589,222.5202,536.3202,222.468,536.5885,222.3822,536.8429,222.1891,537.0529,222.0874,537.3007,222.1131,537.3626,221.7888,537.2798,221.6179,537.567,221.3939,537.7264,221.1372,537.8066,220.85,537.8133,220.85,538.2424,214.0147,537.4751,207.1794,537.3568,200.3441,537.3783,193.5088,537.7721,186.6735,537.6757,179.8382,538.2903,173.0029,537.691,166.1676,537.5731,159.3324,537.9731,152.4971,537.3465,145.6618,537.4499,138.8265,538.2675,131.9912,538.1182,125.1559,538.3274,118.3206,537.588,111.4853,538.0367,104.65,537.8133,104.7027,537.9406,104.3603,537.6089,104.1465,537.5876,103.9188,537.5329,103.7182,537.5437,103.4126,537.3007,103.4117,537.3003,103.4098,537.0945,103.0882,536.7563,102.959,536.4978,103.1111,536.3557,102.9,536.0633,102.3981,536.0633,103.2563,529.5894,103.0446,523.1155,102.7125,516.6416,102.6524,510.1677,102.9,503.6937,102.9989,503.7347,102.938,503.4195,103.2326,503.2516,103.0884,502.9019,103.4432,502.7589,103.4126,502.4563,103.4558,502.5607,103.6819,502.4066,103.9118,502.2615,104.2199,502.3054,104.4573,502.1785,104.65,501.9437" style="stroke:#181818;stroke-width:0.3499999999999999;"/><text fill="#000000" font-family="FG Virgil" font-size="9.8" font-style="italic" lengthAdjust="spacing" textLength="66.5" x="129.5" y="517.4189">&#171;presentation&#187;</text><text fill="#000000" font-family="FG Virgil" font-size="9.8" lengthAdjust="spacing" textLength="109.9" x="107.8" y="530.4537">ActivateDeactivateDishUI</text><polygon fill="#E3E3E3" points="231.35,25.2,231.35,25.3471,238.2227,24.91,245.0955,25.3353,251.9682,25.4798,258.8409,24.7006,265.7136,25.1456,272.5864,24.9015,279.4591,24.9316,286.3318,25.1523,293.2045,24.716,300.0773,25.5875,306.95,24.7588,313.8227,25.0616,320.6955,25.5024,327.5682,25.14,334.4409,25.2478,341.3136,25.1776,348.1864,25.325,355.0591,25.3674,361.9318,25.61,368.8045,25.6697,375.6773,25.6755,382.55,25.2,382.5727,25.2549,382.8389,25.4024,383.1077,25.5564,383.2281,25.3521,383.6005,25.7563,383.7874,25.7126,383.7235,25.6861,384.005,26.0077,383.8857,26.1633,384.0802,26.4489,384.3574,26.7687,384.3,26.95,384.2659,26.95,384.3737,33.4239,384.537,39.8978,384.5914,46.3717,384.2973,52.8456,384.3,59.3195,384.3619,59.3452,384.0741,59.5159,384.1563,59.8399,384.1106,60.1109,383.9858,60.3492,383.7874,60.557,383.8422,60.6891,383.4968,60.5553,383.2342,60.6214,382.9895,60.7305,382.7922,60.9543,382.55,61.0695,382.55,60.932,375.6773,61.5465,368.8045,60.9473,361.9318,60.8294,355.0591,61.2293,348.1864,60.6027,341.3136,60.7061,334.4409,61.5238,327.5682,61.3745,320.6955,61.5837,313.8227,60.8443,306.95,61.293,300.0773,61.4828,293.2045,60.7388,286.3318,61.0024,279.4591,61.1577,272.5864,61.5258,265.7136,61.0666,258.8409,61.3933,251.9682,60.6819,245.0955,60.5955,238.2227,61.4221,231.35,61.0695,231.286,60.915,231.148,61.0767,230.8735,60.909,230.5836,60.7042,230.3285,60.5832,230.1126,60.557,230.2115,60.5979,229.9455,60.2828,230.0351,60.1148,229.6859,59.7651,229.8356,59.6222,229.6,59.3195,229.939,59.3195,229.7715,52.8456,229.6331,46.3717,230.1086,39.8978,230.0295,33.4239,229.6,26.95,229.6365,26.9651,229.7603,26.7265,229.7769,26.4434,230.062,26.2715,230.0434,25.9739,230.1126,25.7126,230.128,25.7498,230.3057,25.4789,230.5714,25.4202,230.9024,25.5194,231.1409,25.3952,231.35,25.2" style="stroke:#181818;stroke-width:0.3499999999999999;"/><text fill="#000000" font-family="FG Virgil" font-size="9.8" font-style="italic" lengthAdjust="spacing" textLength="58.8" x="277.55" y="40.6752">&#171;application&#187;</text><text fill="#000000" font-family="FG Virgil" font-size="9.8" lengthAdjust="spacing" textLength="144.9" x="234.5" y="53.71">ActivateDeactivateDishController</text><polygon fill="#E3E3E3" points="231.35,501.9437,231.35,502.0909,238.2227,501.6537,245.0955,502.0791,251.9682,502.2235,258.8409,501.4444,265.7136,501.8894,272.5864,501.6452,279.4591,501.6753,286.3318,501.896,293.2045,501.4598,300.0773,502.3313,306.95,501.5026,313.8227,501.8053,320.6955,502.2461,327.5682,501.8837,334.4409,501.9915,341.3136,501.9214,348.1864,502.0687,355.0591,502.1111,361.9318,502.3537,368.8045,502.4135,375.6773,502.4192,382.55,501.9437,382.5727,501.9986,382.8389,502.1462,383.1077,502.3002,383.2281,502.0958,383.6005,502.5001,383.7874,502.4563,383.7235,502.4298,384.005,502.7515,383.8857,502.9071,384.0802,503.1927,384.3574,503.5125,384.3,503.6937,384.2659,503.6937,384.3737,510.1677,384.537,516.6416,384.5914,523.1155,384.2973,529.5894,384.3,536.0633,384.3619,536.0889,384.0741,536.2597,384.1563,536.5836,384.1106,536.8547,383.9858,537.0929,383.7874,537.3007,383.8422,537.4329,383.4968,537.2991,383.2342,537.3652,382.9895,537.4743,382.7922,537.6981,382.55,537.8133,382.55,537.6757,375.6773,538.2903,368.8045,537.691,361.9318,537.5731,355.0591,537.9731,348.1864,537.3465,341.3136,537.4499,334.4409,538.2675,327.5682,538.1182,320.6955,538.3274,313.8227,537.588,306.95,538.0367,300.0773,538.2266,293.2045,537.4826,286.3318,537.7462,279.4591,537.9015,272.5864,538.2695,265.7136,537.8103,258.8409,538.1371,251.9682,537.4256,245.0955,537.3392,238.2227,538.1658,231.35,537.8133,231.286,537.6587,231.148,537.8205,230.8735,537.6528,230.5836,537.448,230.3285,537.327,230.1126,537.3007,230.2115,537.3417,229.9455,537.0265,230.0351,536.8586,229.6859,536.5089,229.8356,536.3659,229.6,536.0633,229.939,536.0633,229.7715,529.5894,229.6331,523.1155,230.1086,516.6416,230.0295,510.1677,229.6,503.6937,229.6365,503.7089,229.7603,503.4702,229.7769,503.1871,230.062,503.0153,230.0434,502.7176,230.1126,502.4563,230.128,502.4935,230.3057,502.2227,230.5714,502.1639,230.9024,502.2632,231.1409,502.1389,231.35,501.9437" style="stroke:#181818;stroke-width:0.3499999999999999;"/><text fill="#000000" font-family="FG Virgil" font-size="9.8" font-style="italic" lengthAdjust="spacing" textLength="58.8" x="277.55" y="517.4189">&#171;application&#187;</text><text fill="#000000" font-family="FG Virgil" font-size="9.8" lengthAdjust="spacing" textLength="144.9" x="234.5" y="530.4537">ActivateDeactivateDishController</text><polygon fill="#E3E3E3" points="393.05,25.2,393.05,25.3471,399.7955,24.91,406.5409,25.3353,413.2864,25.4798,420.0318,24.7006,426.7773,25.1456,433.5227,24.9015,440.2682,24.9316,447.0136,25.1523,453.7591,24.716,460.5045,25.5875,467.25,25.2,467.1937,25.0641,467.4798,25.2599,467.7835,25.4981,467.9848,25.489,468.246,25.6248,468.4874,25.7126,468.4805,25.7097,468.6284,25.976,468.744,26.2289,468.9212,26.5073,469.0421,26.7624,469,26.95,469.4755,26.95,469.1782,33.4239,469.3245,39.8978,469.4916,46.3717,468.4952,52.8456,469,59.3195,469.1463,59.3801,468.8336,59.5405,468.91,59.8622,468.5857,60.0178,468.5752,60.3034,468.4874,60.557,468.5537,60.7168,468.2356,60.649,468.0019,60.7847,467.7752,60.9375,467.5347,61.0567,467.25,61.0695,467.25,61.0668,460.5045,61.2706,453.7591,60.6688,447.0136,61.2686,440.2682,61.4533,433.5227,61.3807,426.7773,61.4986,420.0318,60.7314,413.2864,60.613,406.5409,60.6346,399.7955,61.0283,393.05,61.0695,393.0325,61.0272,392.8634,61.1139,392.5394,60.8269,392.2769,60.688,392.0804,60.7087,391.8126,60.557,391.6688,60.4974,391.5981,60.2631,391.7474,60.1199,391.5989,59.8534,391.5608,59.6326,391.3,59.3195,391.0747,59.3195,391.5234,52.8456,391.7133,46.3717,390.9693,39.8978,391.2329,33.4239,391.3,26.95,391.3272,26.9612,391.543,26.7607,391.5041,26.4547,391.7073,26.2488,391.5907,25.9106,391.8126,25.7126,391.7521,25.5666,392.105,25.7186,392.2435,25.353,392.6005,25.5147,392.821,25.3471,393.05,25.2" style="stroke:#181818;stroke-width:0.3499999999999999;"/><text fill="#000000" font-family="FG Virgil" font-size="9.8" font-style="italic" lengthAdjust="spacing" textLength="58.8" x="400.75" y="40.6752">&#171;application&#187;</text><text fill="#000000" font-family="FG Virgil" font-size="9.8" lengthAdjust="spacing" textLength="67.9" x="396.2" y="53.71">ListDishService</text><polygon fill="#E3E3E3" points="393.05,501.9437,393.05,502.0909,399.7955,501.6537,406.5409,502.0791,413.2864,502.2235,420.0318,501.4444,426.7773,501.8894,433.5227,501.6452,440.2682,501.6753,447.0136,501.896,453.7591,501.4598,460.5045,502.3313,467.25,501.9437,467.1937,501.8079,467.4798,502.0036,467.7835,502.2419,467.9848,502.2328,468.246,502.3685,468.4874,502.4563,468.4805,502.4535,468.6284,502.7197,468.744,502.9726,468.9212,503.2511,469.0421,503.5062,469,503.6937,469.4755,503.6937,469.1782,510.1677,469.3245,516.6416,469.4916,523.1155,468.4952,529.5894,469,536.0633,469.1463,536.1239,468.8336,536.2843,468.91,536.6059,468.5857,536.7615,468.5752,537.0471,468.4874,537.3007,468.5537,537.4606,468.2356,537.3927,468.0019,537.5284,467.7752,537.6813,467.5347,537.8005,467.25,537.8133,467.25,537.8105,460.5045,538.0143,453.7591,537.4126,447.0136,538.0124,440.2682,538.197,433.5227,538.1245,426.7773,538.2424,420.0318,537.4751,413.2864,537.3568,406.5409,537.3783,399.7955,537.7721,393.05,537.8133,393.0325,537.7709,392.8634,537.8577,392.5394,537.5706,392.2769,537.4318,392.0804,537.4524,391.8126,537.3007,391.6688,537.2412,391.5981,537.0069,391.7474,536.8637,391.5989,536.5972,391.5608,536.3764,391.3,536.0633,391.0747,536.0633,391.5234,529.5894,391.7133,523.1155,390.9693,516.6416,391.2329,510.1677,391.3,503.6937,391.3272,503.705,391.543,503.5045,391.5041,503.1984,391.7073,502.9926,391.5907,502.6544,391.8126,502.4563,391.7521,502.3103,392.105,502.4624,392.2435,502.0967,392.6005,502.2585,392.821,502.0908,393.05,501.9437" style="stroke:#181818;stroke-width:0.3499999999999999;"/><text fill="#000000" font-family="FG Virgil" font-size="9.8" font-style="italic" lengthAdjust="spacing" textLength="58.8" x="400.75" y="517.4189">&#171;application&#187;</text><text fill="#000000" font-family="FG Virgil" font-size="9.8" lengthAdjust="spacing" textLength="67.9" x="396.2" y="530.4537">ListDishService</text><polygon fill="#E3E3E3" points="477.75,25.2,477.75,25.3471,484.85,24.91,491.95,25.3353,499.05,25.4798,506.15,24.7006,513.25,25.1456,520.35,24.9015,527.45,25.2,527.4158,25.1173,527.6914,25.2878,527.8832,25.256,528.2419,25.6269,528.3837,25.4742,528.6874,25.7126,528.6448,25.6949,528.8831,25.9986,528.874,26.1999,529.0097,26.4611,529.0906,26.6997,529.2,26.95,529.325,26.95,529.3674,33.4239,529.61,39.8978,529.6697,46.3717,529.6755,52.8456,529.2,59.3195,529.2549,59.3423,529.1974,59.6084,529.1464,59.8772,528.737,59.9976,528.9362,60.3701,528.6874,60.557,528.661,60.4931,528.4876,60.7746,528.1483,60.6553,527.9389,60.8497,527.7637,61.1269,527.45,61.0695,527.45,61.0354,520.35,61.1432,513.25,61.3066,506.15,61.3609,499.05,61.0668,491.95,61.2706,484.85,60.6688,477.75,61.0695,477.7754,61.1308,477.5515,61.0852,477.2947,60.9603,477.0623,60.8941,476.7169,60.5553,476.5126,60.557,476.372,60.4987,476.2761,60.254,476.2948,60.0567,476.1627,59.797,476.2494,59.6279,476,59.3195,475.8777,59.3195,475.7599,52.8456,476.1598,46.3717,475.5332,39.8978,475.6366,33.4239,476,26.95,476.1399,27.0079,476.1964,26.7414,476.3634,26.5206,476.2382,26.1788,476.4789,25.9886,476.5126,25.7126,476.5653,25.8398,476.7179,25.5082,476.999,25.4869,477.2663,25.4322,477.5607,25.443,477.75,25.2" style="stroke:#181818;stroke-width:0.3499999999999999;"/><text fill="#000000" font-family="FG Virgil" font-size="9.8" font-style="italic" lengthAdjust="spacing" textLength="43.4" x="480.9" y="40.6752">&#171;domain&#187;</text><text fill="#000000" font-family="FG Virgil" font-size="9.8" lengthAdjust="spacing" textLength="40.6" x="482.3" y="53.71">dish:Dish</text><polygon fill="#E3E3E3" points="477.75,501.9437,477.75,502.0909,484.85,501.6537,491.95,502.0791,499.05,502.2235,506.15,501.4444,513.25,501.8894,520.35,501.6452,527.45,501.9437,527.4158,501.8611,527.6914,502.0316,527.8832,501.9997,528.2419,502.3706,528.3837,502.2179,528.6874,502.4563,528.6448,502.4387,528.8831,502.7424,528.874,502.9436,529.0097,503.2049,529.0906,503.4434,529.2,503.6937,529.325,503.6937,529.3674,510.1677,529.61,516.6416,529.6697,523.1155,529.6755,529.5894,529.2,536.0633,529.2549,536.086,529.1974,536.3522,529.1464,536.621,528.737,536.7413,528.9362,537.1138,528.6874,537.3007,528.661,537.2368,528.4876,537.5183,528.1483,537.399,527.9389,537.5935,527.7637,537.8706,527.45,537.8133,527.45,537.7792,520.35,537.887,513.25,538.0503,506.15,538.1046,499.05,537.8105,491.95,538.0143,484.85,537.4126,477.75,537.8133,477.7754,537.8746,477.5515,537.8289,477.2947,537.7041,477.0623,537.6379,476.7169,537.2991,476.5126,537.3007,476.372,537.2425,476.2761,536.9977,476.2948,536.8005,476.1627,536.5407,476.2494,536.3716,476,536.0633,475.8777,536.0633,475.7599,529.5894,476.1598,523.1155,475.5332,516.6416,475.6366,510.1677,476,503.6937,476.1399,503.7517,476.1964,503.4852,476.3634,503.2644,476.2382,502.9226,476.4789,502.7323,476.5126,502.4563,476.5653,502.5836,476.7179,502.252,476.999,502.2306,477.2663,502.1759,477.5607,502.1868,477.75,501.9437" style="stroke:#181818;stroke-width:0.3499999999999999;"/><text fill="#000000" font-family="FG Virgil" font-size="9.8" font-style="italic" lengthAdjust="spacing" textLength="43.4" x="480.9" y="517.4189">&#171;domain&#187;</text><text fill="#000000" font-family="FG Virgil" font-size="9.8" lengthAdjust="spacing" textLength="40.6" x="482.3" y="530.4537">dish:Dish</text><text fill="#000000" font-family="FG Virgil" font-size="9.8" font-style="italic" lengthAdjust="spacing" textLength="55.3" x="542.15" y="46.2752">&#171;repository&#187;</text><text fill="#000000" font-family="FG Virgil" font-size="9.8" lengthAdjust="spacing" textLength="67.2" x="536.2" y="59.31">DishRepository</text><path d="M559.3,10.5 L559.3,10.5 L559.3456,10.5469 L560.4701,9.1826 L561.8619,8.0931 L563.1667,6.9142 L564.1853,5.4409 L565.6,4.375 L565.5967,4.3511 L566.8417,4.0686 L568.1036,3.9068 L569.3771,3.829 L570.6104,3.462 L571.9,3.5 L571.9,3.5 L571.9237,3.6706 L573.133,3.4808 L574.4115,3.7891 L575.6985,4.1581 L576.9363,4.1736 L578.2,4.375 L578.2148,4.3902 L579.4531,5.5929 L580.7587,6.8648 L582.0319,8.1033 L583.367,9.4056 L584.5,10.5 L584.9175,10.5 L584.9226,14.14 L584.6584,17.78 L584.7885,21.42 L584.9369,25.06 L584.5,28.7 L584.5,28.7 L584.3436,28.5391 L583.3871,30.0764 L581.9157,31.0839 L580.8358,32.4941 L579.3526,33.4896 L578.2,34.825 L578.1971,34.8039 L576.9717,35.2285 L575.6779,35.16 L574.4245,35.3824 L573.1745,35.6293 L571.9,35.7 L571.9,35.7 L571.9178,35.8283 L570.6398,35.5238 L569.3923,35.4385 L568.0955,34.9986 L566.8722,35.0876 L565.6,34.825 L565.7189,34.9473 L564.4364,33.6992 L563.2129,32.5117 L561.7152,31.0422 L560.4186,29.7795 L559.3,28.7 L558.9134,28.7 L559.2634,25.06 L559.1777,21.42 L559.724,17.78 L559.1913,14.14 L559.3,10.5 " fill="#E3E3E3" style="stroke:#181818;stroke-width:1.0499999999999998;"/><path d="M559.3,10.5 L559.3,10.5 L559.3456,10.5469 L560.4701,11.6326 L561.8619,12.9931 L563.1667,14.2642 L564.1853,15.2409 L565.6,16.625 L565.5967,16.6011 L566.8417,16.6686 L568.1036,16.8568 L569.3771,17.129 L570.6104,17.112 L571.9,17.5 L571.9,17.5 L571.9237,17.6706 L573.133,17.1308 L574.4115,17.0891 L575.6985,17.1081 L576.9363,16.7736 L578.2,16.625 L578.2148,16.6402 L579.4531,15.3929 L580.7587,14.2148 L582.0319,13.0033 L583.367,11.8556 L584.5,10.5 " fill="none" style="stroke:#181818;stroke-width:1.0499999999999998;"/><text fill="#000000" font-family="FG Virgil" font-size="9.8" font-style="italic" lengthAdjust="spacing" textLength="55.3" x="542.15" y="512.5189">&#171;repository&#187;</text><text fill="#000000" font-family="FG Virgil" font-size="9.8" lengthAdjust="spacing" textLength="67.2" x="536.2" y="525.5537">DishRepository</text><path d="M559.3,535.0133 L559.3,535.0133 L559.3456,535.0602 L560.4701,533.6959 L561.8619,532.6064 L563.1667,531.4274 L564.1853,529.9541 L565.6,528.8883 L565.5967,528.8643 L566.8417,528.5819 L568.1036,528.4201 L569.3771,528.3423 L570.6104,527.9752 L571.9,528.0133 L571.9,528.0133 L571.9237,528.1839 L573.133,527.9941 L574.4115,528.3023 L575.6985,528.6714 L576.9363,528.6868 L578.2,528.8883 L578.2148,528.9035 L579.4531,530.1062 L580.7587,531.3781 L582.0319,532.6166 L583.367,533.9189 L584.5,535.0133 L584.9175,535.0133 L584.9226,538.6533 L584.6584,542.2933 L584.7885,545.9333 L584.9369,549.5733 L584.5,553.2133 L584.5,553.2133 L584.3436,553.0524 L583.3871,554.5896 L581.9157,555.5971 L580.8358,557.0074 L579.3526,558.0029 L578.2,559.3383 L578.1971,559.3172 L576.9717,559.7418 L575.6779,559.6733 L574.4245,559.8957 L573.1745,560.1426 L571.9,560.2133 L571.9,560.2133 L571.9178,560.3415 L570.6398,560.0371 L569.3923,559.9518 L568.0955,559.5119 L566.8722,559.6009 L565.6,559.3383 L565.7189,559.4606 L564.4364,558.2124 L563.2129,557.025 L561.7152,555.5555 L560.4186,554.2928 L559.3,553.2133 L558.9134,553.2133 L559.2634,549.5733 L559.1777,545.9333 L559.724,542.2933 L559.1913,538.6533 L559.3,535.0133 " fill="#E3E3E3" style="stroke:#181818;stroke-width:1.0499999999999998;"/><path d="M559.3,535.0133 L559.3,535.0133 L559.3456,535.0602 L560.4701,536.1459 L561.8619,537.5064 L563.1667,538.7774 L564.1853,539.7541 L565.6,541.1383 L565.5967,541.1143 L566.8417,541.1819 L568.1036,541.3701 L569.3771,541.6423 L570.6104,541.6252 L571.9,542.0133 L571.9,542.0133 L571.9237,542.1839 L573.133,541.6441 L574.4115,541.6023 L575.6985,541.6214 L576.9363,541.2868 L578.2,541.1383 L578.2148,541.1535 L579.4531,539.9062 L580.7587,538.7281 L582.0319,537.5166 L583.367,536.3689 L584.5,535.0133 " fill="none" style="stroke:#181818;stroke-width:1.0499999999999998;"/><polygon fill="#FFFFFF" points="159.25,85.0732,159.25,85.1223,160.65,84.9766,162.05,85.1183,163.45,85.1665,164.85,84.9068,166.25,85.0732,166.1956,85.0732,165.9515,92.0555,165.9816,99.0377,166.2023,106.02,165.766,113.0022,166.6375,119.9845,165.8088,126.9667,166.1116,133.949,166.5524,140.9312,166.19,147.9135,166.2978,154.8957,166.2276,161.878,166.375,168.8602,166.4174,175.8425,166.66,182.8247,166.7197,189.807,166.7255,196.7892,166.4282,203.7715,166.5745,210.7537,166.7416,217.736,165.7452,224.7182,166.725,231.7005,166.0424,238.6827,166.6237,245.665,165.9035,252.6472,166.2021,259.6295,166.7691,266.6117,166.2159,273.594,166.3237,280.5762,166.487,287.5585,166.5414,294.5407,166.2473,301.523,166.451,308.5052,165.8493,315.4875,166.4491,322.4697,166.6337,329.452,166.5612,336.4342,166.6791,343.4165,165.9118,350.3987,165.7935,357.381,165.815,364.3632,166.2088,371.3455,166.1124,378.3277,166.727,385.31,166.1277,392.2922,166.0099,399.2745,166.4098,406.2567,165.7832,413.239,165.8866,420.2212,166.7043,427.2035,166.555,434.1857,166.7641,441.168,166.0247,448.1502,166.4734,455.1325,166.6633,462.1147,165.9193,469.097,166.1829,476.0792,166.3382,483.0615,166.25,490.0437,166.25,490.1958,164.85,490.0428,163.45,490.1517,162.05,489.9145,160.65,489.8857,159.25,490.0437,159.6025,490.0437,158.7481,483.0615,159.6063,476.0792,159.3946,469.097,159.0625,462.1147,159.0024,455.1325,159.5711,448.1502,159.0405,441.168,159.6643,434.1857,158.8631,427.2035,159.6822,420.2212,159.589,413.239,159.4215,406.2567,159.2831,399.2745,159.7586,392.2922,159.6795,385.31,159.3685,378.3277,159.4377,371.3455,159.1588,364.3632,159.7515,357.381,159.3584,350.3987,159.3708,343.4165,158.8242,336.4342,158.9663,329.452,159.6215,322.4697,159.5508,315.4875,159.2199,308.5052,159.0245,301.523,159.0968,294.5407,158.7697,287.5585,159.5403,280.5762,159.7677,273.594,159.6185,266.6117,159.7365,259.6295,159.1543,252.6472,159.3111,245.665,158.9787,238.6827,159.4488,231.7005,159.4227,224.7182,159.6367,217.736,159.0892,210.7537,159.1559,203.7715,159.5604,196.7892,159.6471,189.807,158.8912,182.8247,159.1143,175.8425,159.3545,168.8602,158.8224,161.878,159.4974,154.8957,159.4306,147.9135,159.1795,140.9312,159.3496,133.949,159.7601,126.9667,159.031,119.9845,159.4705,113.0022,159.45,106.02,159.331,99.0377,159.3486,92.0555,159.25,85.0732" style="stroke:#181818;stroke-width:0.6999999999999998;"/><polygon fill="#FFFFFF" points="303.45,128.8807,303.45,128.9297,304.85,128.784,306.25,128.9258,307.65,128.9739,309.05,128.7142,310.45,128.8807,310.3956,128.8807,310.1515,135.7671,310.1816,142.6535,310.4023,149.5399,309.966,156.4264,310.8375,163.3128,310.0088,170.1992,310.3116,177.0856,310.7524,183.972,310.39,190.8585,310.4978,197.7449,310.4276,204.6313,310.575,211.5177,310.6174,218.4042,310.86,225.2906,310.9197,232.177,310.9255,239.0634,310.6282,245.9498,310.7745,252.8363,310.9416,259.7227,309.9452,266.6091,310.925,273.4955,310.2424,280.382,310.8237,287.2684,310.1035,294.1548,310.4021,301.0412,310.9691,307.9276,310.45,314.8141,310.45,314.8027,309.05,314.8386,307.65,314.8931,306.25,314.9112,304.85,314.8132,303.45,314.8141,303.651,314.8141,303.0493,307.9276,303.6491,301.0412,303.8337,294.1548,303.7612,287.2684,303.8791,280.382,303.1118,273.4955,302.9935,266.6091,303.015,259.7227,303.4088,252.8363,303.3124,245.9498,303.927,239.0634,303.3277,232.177,303.2099,225.2906,303.6098,218.4042,302.9832,211.5177,303.0866,204.6313,303.9043,197.7449,303.755,190.8585,303.9641,183.972,303.2247,177.0856,303.6734,170.1992,303.8633,163.3128,303.1193,156.4264,303.3829,149.5399,303.5382,142.6535,303.9062,135.7671,303.45,128.8807" style="stroke:#181818;stroke-width:0.6999999999999998;"/><polygon fill="#FFFFFF" points="303.45,380.5252,303.45,380.5742,304.85,380.4285,306.25,380.5703,307.65,380.6185,309.05,380.3587,310.45,380.5252,310.3956,380.5252,310.1515,387.2648,310.1816,394.0044,310.4023,400.744,309.966,407.4836,310.8375,414.2232,310.0088,420.9628,310.3116,427.7024,310.7524,434.442,310.39,441.1816,310.4978,447.9212,310.4276,454.6608,310.575,461.4004,310.45,468.14,310.45,468.1958,309.05,468.2767,307.65,468.2966,306.25,468.2985,304.85,468.1995,303.45,468.14,303.7745,468.14,303.9416,461.4004,302.9452,454.6608,303.925,447.9212,303.2424,441.1816,303.8237,434.442,303.1035,427.7024,303.4021,420.9628,303.9691,414.2232,303.4159,407.4836,303.5237,400.744,303.687,394.0044,303.7414,387.2648,303.45,380.5252" style="stroke:#181818;stroke-width:0.6999999999999998;"/><polygon fill="#FFFFFF" points="426.65,188.9918,426.65,189.0408,428.05,188.8951,429.45,189.0369,430.85,189.0851,432.25,188.8253,433.65,188.9918,433.5956,188.9918,433.3515,195.9197,433.3816,202.8476,433.6023,209.7755,433.166,216.7034,434.0375,223.6313,433.2088,230.5592,433.5116,237.4871,433.9524,244.415,433.59,251.3429,433.6978,258.2708,433.6276,265.1987,433.775,272.1266,433.8174,279.0545,434.06,285.9824,433.65,292.9104,433.65,293.0669,432.25,293.0688,430.85,292.9698,429.45,293.0185,428.05,293.0742,426.65,292.9104,426.1452,292.9104,427.125,285.9824,426.4424,279.0545,427.0237,272.1266,426.3035,265.1987,426.6021,258.2708,427.1691,251.3429,426.6159,244.415,426.7237,237.4871,426.887,230.5592,426.9414,223.6313,426.6473,216.7034,426.851,209.7755,426.2493,202.8476,426.8491,195.9197,426.65,188.9918" style="stroke:#181818;stroke-width:0.6999999999999998;"/><polygon fill="#FFFFFF" points="568.4,249.1029,568.4,249.152,569.8,249.0063,571.2,249.148,572.6,249.1962,574,248.9365,575.4,249.1029,575.3819,249.1029,575.3005,253.4837,575.3105,257.8644,575.3841,262.2452,575.2387,266.6259,575.4,271.0066,575.4,271.1358,574,270.8596,572.6,270.9605,571.2,271.1074,569.8,270.9866,568.4,271.0066,568.4159,271.0066,568.3925,266.6259,568.4417,262.2452,568.4558,257.8644,568.5367,253.4837,568.4,249.1029" style="stroke:#181818;stroke-width:0.6999999999999998;"/><polygon fill="#FFFFFF" points="568.4,424.3326,568.4,424.3817,569.8,424.2359,571.2,424.3777,572.6,424.4259,574,424.1662,575.4,424.3326,575.3819,424.3326,575.3005,428.7134,575.3105,433.0941,575.3841,437.4748,575.2387,441.8556,575.4,446.2363,575.4,446.3655,574,446.0893,572.6,446.1902,571.2,446.3371,569.8,446.2163,568.4,446.2363,568.4159,446.2363,568.3925,441.8556,568.4417,437.4748,568.4558,433.0941,568.5367,428.7134,568.4,424.3326" style="stroke:#181818;stroke-width:0.6999999999999998;"/><polygon fill="#181818" points="150.85,82.2732,150.8682,82.3188,152.2141,82.7435,153.6667,83.4351,155.0846,84.0398,156.3882,84.3587,157.85,85.0732,157.8433,85.0564,156.413,85.5408,155.0168,86.1102,153.6441,86.7385,152.1901,87.1635,150.85,87.8732,150.9413,87.9646,151.306,87.2093,151.9374,86.7206,152.6013,86.2645,153.0758,85.6191,153.65,85.0732,153.6613,85.0845,153.0847,84.508,152.5595,83.9827,152.0095,83.4327,151.5066,82.9299,150.85,82.2732" style="stroke:#181818;stroke-width:0.6999999999999998;"/><path d="M37.45,85.0732 L37.45,85.2694 L44.3676,84.6865 L51.2853,85.2536 L58.2029,85.4463 L65.1206,84.4074 L72.0382,85.0007 L78.9559,84.6752 L85.8735,84.7153 L92.7912,85.0096 L99.7088,84.428 L106.6265,85.59 L113.5441,84.485 L120.4618,84.8887 L127.3794,85.4764 L134.2971,84.9932 L141.2147,85.1369 L148.1324,85.0434 L155.05,85.0732 " fill="none" style="stroke:#181818;stroke-width:0.6999999999999998;stroke-dasharray:2.0,2.0;"/><text fill="#000000" font-family="FG Virgil" font-size="9.1" lengthAdjust="spacing" textLength="108.5" x="42.35" y="81.3894">Activate or Deactivate Dish</text><polygon fill="#181818" points="298.55,104.177,298.5682,104.2225,299.9141,104.6472,301.3667,105.3388,302.7846,105.9435,304.0882,106.2624,305.55,106.977,305.5433,106.9601,304.113,107.4446,302.7168,108.0139,301.3441,108.6422,299.8901,109.0672,298.55,109.777,298.6413,109.8683,299.006,109.113,299.6374,108.6243,300.3013,108.1682,300.7758,107.5228,301.35,106.977,301.3613,106.9882,300.7847,106.4117,300.2595,105.8864,299.7095,105.3364,299.2066,104.8336,298.55,104.177" style="stroke:#181818;stroke-width:0.6999999999999998;"/><path d="M166.25,106.977 L166.25,107.1731 L173.075,106.5903 L179.9,107.1574 L186.725,107.35 L193.55,106.3111 L200.375,106.9044 L207.2,106.5789 L214.025,106.619 L220.85,106.9133 L227.675,106.3317 L234.5,107.4937 L241.325,106.3887 L248.15,106.7924 L254.975,107.3801 L261.8,106.8969 L268.625,107.0406 L275.45,106.9471 L282.275,107.1436 L289.1,107.2001 L295.925,107.5236 L302.75,106.977 " fill="none" style="stroke:#181818;stroke-width:0.6999999999999998;"/><text fill="#000000" font-family="FG Virgil" font-size="9.1" lengthAdjust="spacing" textLength="25.2" x="171.15" y="103.2931">create</text><polygon fill="#181818" points="295.05,126.0807,295.0682,126.1262,296.4141,126.5509,297.8667,127.2425,299.2846,127.8473,300.5882,128.1661,302.05,128.8807,302.0433,128.8638,300.613,129.3483,299.2168,129.9176,297.8441,130.5459,296.3901,130.9709,295.05,131.6807,295.1413,131.772,295.506,131.0167,296.1374,130.528,296.8013,130.0719,297.2758,129.4265,297.85,128.8807,297.8613,128.8919,297.2847,128.3154,296.7595,127.7901,296.2095,127.2401,295.7066,126.7373,295.05,126.0807" style="stroke:#181818;stroke-width:0.6999999999999998;"/><path d="M166.25,128.8807 L166.25,129.0768 L173.25,128.494 L180.25,129.0611 L187.25,129.2537 L194.25,128.2148 L201.25,128.8081 L208.25,128.4826 L215.25,128.5227 L222.25,128.8171 L229.25,128.2354 L236.25,129.3974 L243.25,128.2924 L250.25,128.6961 L257.25,129.2838 L264.25,128.8006 L271.25,128.9444 L278.25,128.8508 L285.25,129.0473 L292.25,129.1039 L299.25,128.8807 " fill="none" style="stroke:#181818;stroke-width:0.6999999999999998;"/><text fill="#000000" font-family="FG Virgil" font-size="9.1" lengthAdjust="spacing" textLength="35.7" x="171.15" y="125.1968">listDish()</text><path d="M313.6,137.9807 L313.7308,137.9807 L313.3422,144.1407 L313.7203,150.3007 L313.8487,156.4607 L313.1561,162.6207 L313.6,168.7807 L313.6,168.6356 L320.6304,167.9845 L327.6609,168.0648 L334.6913,168.6534 L341.7217,167.4901 L348.7522,169.8141 L355.7826,167.6041 L362.813,168.4115 L369.8435,169.587 L376.8739,168.6205 L383.9043,168.908 L390.9348,168.721 L397.9652,169.1139 L404.9957,169.227 L412.0261,169.874 L419.0565,170.0333 L426.087,170.0486 L433.1174,169.256 L440.1478,169.646 L447.1783,170.0915 L454.2087,167.4345 L461.2391,170.0472 L468.2696,168.2272 L475.3,168.7807 L475.6321,168.7807 L474.992,164.0207 L475.2574,159.2607 L475.7614,154.5007 L475.2697,149.7407 L475.3,144.9807 L475.3463,145.027 L474.049,143.7297 L472.6831,142.3638 L471.0983,140.7789 L469.8264,139.507 L468.3,137.9807 L468.3,136.9122 L461.2682,138.5115 L454.2364,139.004 L447.2045,138.8105 L440.1727,139.125 L433.1409,137.0789 L426.1091,136.7633 L419.0773,136.8207 L412.0455,137.8708 L405.0136,137.6138 L397.9818,139.2526 L390.95,137.6546 L383.9182,137.3403 L376.8864,138.4068 L369.8545,136.7359 L362.8227,137.0116 L355.7909,139.192 L348.7591,138.7939 L341.7273,139.3517 L334.6955,137.38 L327.6636,138.5765 L320.6318,139.0828 L313.6,137.9807 " fill="#FAFAFA" style="stroke:#181818;stroke-width:0.3499999999999999;"/><path d="M468.3,137.9807 L468.0061,137.9807 L468.2404,139.3807 L468.3784,140.7807 L468.7055,142.1807 L468.2974,143.5807 L468.3,144.9807 L468.3,145.2685 L469.7,144.6361 L471.1,144.5593 L472.5,145.294 L473.9,144.5346 L475.3,144.9807 L475.5239,145.2046 L473.9909,143.6716 L472.3821,142.0628 L470.9443,140.625 L469.9018,139.5825 L468.3,137.9807 " fill="#FAFAFA" style="stroke:#181818;stroke-width:0.3499999999999999;"/><text fill="#000000" font-family="FG Virgil" font-size="9.1" lengthAdjust="spacing" textLength="144.2" x="317.8" y="151.3005">hidden authorization user guarantee</text><text fill="#000000" font-family="FG Virgil" font-size="9.1" lengthAdjust="spacing" textLength="88.9" x="317.8" y="163.4042">(see specific diagram)</text><polygon fill="#181818" points="418.25,186.1918,418.2682,186.2373,419.6141,186.662,421.0667,187.3537,422.4846,187.9584,423.7882,188.2772,425.25,188.9918,425.2433,188.975,423.813,189.4594,422.4168,190.0287,421.0441,190.657,419.5901,191.082,418.25,191.7918,418.3413,191.8831,418.706,191.1278,419.3374,190.6392,420.0013,190.1831,420.4758,189.5376,421.05,188.9918,421.0613,189.0031,420.4847,188.4265,419.9595,187.9013,419.4095,187.3513,418.9066,186.8484,418.25,186.1918" style="stroke:#181818;stroke-width:0.6999999999999998;"/><path d="M310.45,188.9918 L310.45,189.188 L317.45,188.6051 L324.45,189.1722 L331.45,189.3648 L338.45,188.326 L345.45,188.9193 L352.45,188.5937 L359.45,188.6339 L366.45,188.9282 L373.45,188.3465 L380.45,189.5085 L387.45,188.4035 L394.45,188.8072 L401.45,189.3949 L408.45,188.9117 L415.45,189.0555 L422.45,188.9918 " fill="none" style="stroke:#181818;stroke-width:0.6999999999999998;"/><text fill="#000000" font-family="FG Virgil" font-size="9.1" lengthAdjust="spacing" textLength="42.7" x="315.35" y="185.3079">allDishes()</text><path d="M436.8,198.0918 L436.9308,198.0918 L436.5422,204.2518 L436.9203,210.4118 L437.0487,216.5718 L436.3561,222.7318 L436.8,228.8918 L436.8,228.7467 L443.7067,228.0957 L450.6133,228.1759 L457.52,228.7646 L464.4267,227.6012 L471.3333,229.9253 L478.24,227.7153 L485.1467,228.5226 L492.0533,229.6981 L498.96,228.7317 L505.8667,229.0192 L512.7733,228.8322 L519.68,229.225 L526.5867,229.3382 L533.4933,229.9851 L540.4,228.8918 L540.8175,228.8918 L540.8226,224.1318 L540.5584,219.3718 L540.6885,214.6118 L540.8369,209.8518 L540.4,205.0918 L540.0827,204.7745 L539.2985,203.9903 L537.4695,202.1613 L536.4349,201.1267 L534.5822,199.274 L533.4,198.0918 L533.4,197.9639 L526.5,199.4761 L519.6,198.0008 L512.7,198.2884 L505.8,198.7239 L498.9,198.8688 L492,198.0845 L485.1,198.6279 L478.2,197.0233 L471.3,198.6227 L464.4,199.1151 L457.5,198.9216 L450.6,199.2361 L443.7,197.19 L436.8,198.0918 " fill="#FAFAFA" style="stroke:#181818;stroke-width:0.3499999999999999;"/><path d="M533.4,198.0918 L532.9942,198.0918 L533.0134,199.4918 L533.3634,200.8918 L533.2777,202.2918 L533.824,203.6918 L533.4,205.0918 L533.4,204.9831 L534.8,204.8783 L536.2,205.2338 L537.6,204.6769 L539,204.7688 L540.4,205.0918 L540.6855,205.3773 L539.1917,203.8835 L537.9232,202.615 L536.0584,200.7502 L534.9404,199.6322 L533.4,198.0918 " fill="#FAFAFA" style="stroke:#181818;stroke-width:0.3499999999999999;"/><text fill="#000000" font-family="FG Virgil" font-size="9.1" lengthAdjust="spacing" textLength="88.9" x="441" y="211.4116">Simplified persistence</text><text fill="#000000" font-family="FG Virgil" font-size="9.1" lengthAdjust="spacing" textLength="88.9" x="441" y="223.5153">(see specific diagram)</text><polygon fill="#181818" points="560,246.3029,560.0182,246.3485,561.3641,246.7732,562.8167,247.4648,564.2346,248.0695,565.5382,248.3884,567,249.1029,566.9933,249.0861,565.563,249.5705,564.1668,250.1398,562.7941,250.7682,561.3401,251.1931,560,251.9029,560.0913,251.9943,560.456,251.2389,561.0874,250.7503,561.7513,250.2942,562.2258,249.6488,562.8,249.1029,562.8113,249.1142,562.2347,248.5377,561.7095,248.0124,561.1595,247.4624,560.6566,246.9596,560,246.3029" style="stroke:#181818;stroke-width:0.6999999999999998;"/><path d="M433.65,249.1029 L433.65,249.2991 L440.5211,248.7162 L447.3921,249.2833 L454.2632,249.476 L461.1342,248.4371 L468.0053,249.0304 L474.8763,248.7049 L481.7474,248.745 L488.6184,249.0393 L495.4895,248.4577 L502.3605,249.6197 L509.2316,248.5147 L516.1026,248.9183 L522.9737,249.5061 L529.8447,249.0229 L536.7158,249.1666 L543.5868,249.0731 L550.4579,249.2696 L557.3289,249.3261 L564.2,249.1029 " fill="none" style="stroke:#181818;stroke-width:0.6999999999999998;"/><text fill="#000000" font-family="FG Virgil" font-size="9.1" lengthAdjust="spacing" textLength="30.1" x="438.55" y="245.419">findAll()</text><polygon fill="#181818" points="441.35,268.2066,441.3682,268.2522,439.9141,268.6769,438.5667,269.3685,437.1846,269.9732,435.6882,270.2921,434.35,271.0066,434.3433,270.9898,435.713,271.4742,437.1168,272.0436,438.5441,272.6719,439.8901,273.0969,441.35,273.8066,441.4413,273.898,440.686,273.1426,440.1974,272.654,439.7413,272.1979,439.0958,271.5525,438.55,271.0066,438.5613,271.0179,439.1047,270.4414,439.6995,269.9161,440.2695,269.3661,440.8866,268.8633,441.35,268.2066" style="stroke:#181818;stroke-width:0.6999999999999998;"/><path d="M437.15,271.0066 L437.15,271.2028 L444.2053,270.6199 L451.2605,271.187 L458.3158,271.3797 L465.3711,270.3408 L472.4263,270.9341 L479.4816,270.6086 L486.5368,270.6487 L493.5921,270.943 L500.6474,270.3614 L507.7026,271.5234 L514.7579,270.4184 L521.8132,270.8221 L528.8684,271.4098 L535.9237,270.9266 L542.9789,271.0703 L550.0342,270.9768 L557.0895,271.1733 L564.1447,271.2298 L571.2,271.0066 " fill="none" style="stroke:#181818;stroke-width:0.6999999999999998;stroke-dasharray:2.0,2.0;"/><text fill="#000000" font-family="FG Virgil" font-size="9.1" lengthAdjust="spacing" textLength="26.6" x="445.55" y="267.3228">dishes</text><polygon fill="#181818" points="318.15,290.1104,318.1682,290.1559,316.7141,290.5806,315.3667,291.2722,313.9846,291.8769,312.4882,292.1958,311.15,292.9104,311.1433,292.8935,312.513,293.378,313.9168,293.9473,315.3441,294.5756,316.6901,295.0006,318.15,295.7104,318.2413,295.8017,317.486,295.0464,316.9974,294.5577,316.5413,294.1016,315.8958,293.4562,315.35,292.9104,315.3613,292.9216,315.9047,292.3451,316.4995,291.8198,317.0695,291.2698,317.6866,290.767,318.15,290.1104" style="stroke:#181818;stroke-width:0.6999999999999998;"/><path d="M313.95,292.9104 L313.95,293.1065 L320.7441,292.5237 L327.5382,293.0908 L334.3324,293.2834 L341.1265,292.2445 L347.9206,292.8378 L354.7147,292.5123 L361.5088,292.5524 L368.3029,292.8467 L375.0971,292.2651 L381.8912,293.4271 L388.6853,292.3221 L395.4794,292.7258 L402.2735,293.3135 L409.0676,292.8303 L415.8618,292.974 L422.6559,292.8805 L429.45,292.9104 " fill="none" style="stroke:#181818;stroke-width:0.6999999999999998;stroke-dasharray:2.0,2.0;"/><text fill="#000000" font-family="FG Virgil" font-size="9.1" lengthAdjust="spacing" textLength="26.6" x="322.35" y="289.2265">dishes</text><polygon fill="#181818" points="173.95,312.0141,173.9682,312.0596,172.5141,312.4843,171.1667,313.1759,169.7846,313.7807,168.2882,314.0995,166.95,314.8141,166.9433,314.7972,168.313,315.2817,169.7168,315.851,171.1441,316.4793,172.4901,316.9043,173.95,317.6141,174.0413,317.7054,173.286,316.9501,172.7974,316.4614,172.3413,316.0053,171.6958,315.3599,171.15,314.8141,171.1613,314.8253,171.7047,314.2488,172.2995,313.7235,172.8695,313.1735,173.4866,312.6707,173.95,312.0141" style="stroke:#181818;stroke-width:0.6999999999999998;"/><path d="M169.75,314.8141 L169.75,315.0102 L176.575,314.4274 L183.4,314.9945 L190.225,315.1871 L197.05,314.1482 L203.875,314.7415 L210.7,314.416 L217.525,314.4561 L224.35,314.7504 L231.175,314.1688 L238,315.3308 L244.825,314.2258 L251.65,314.6295 L258.475,315.2172 L265.3,314.734 L272.125,314.8778 L278.95,314.7842 L285.775,314.9807 L292.6,315.0373 L299.425,315.3607 L306.25,314.8141 " fill="none" style="stroke:#181818;stroke-width:0.6999999999999998;"/><text fill="#000000" font-family="FG Virgil" font-size="9.1" lengthAdjust="spacing" textLength="26.6" x="178.15" y="311.1302">dishes</text><polygon fill="#181818" points="45.15,333.9178,45.1682,333.9633,43.7141,334.388,42.3667,335.0796,40.9846,335.6844,39.4882,336.0032,38.15,336.7178,38.1433,336.7009,39.513,337.1854,40.9168,337.7547,42.3441,338.383,43.6901,338.808,45.15,339.5178,45.2413,339.6091,44.486,338.8538,43.9974,338.3651,43.5413,337.909,42.8958,337.2636,42.35,336.7178,42.3613,336.729,42.9047,336.1525,43.4995,335.6272,44.0695,335.0772,44.6866,334.5744,45.15,333.9178" style="stroke:#181818;stroke-width:0.6999999999999998;"/><path d="M40.95,336.7178 L40.95,336.9139 L47.8676,336.3311 L54.7853,336.8982 L61.7029,337.0908 L68.6206,336.0519 L75.5382,336.6452 L82.4559,336.3197 L89.3735,336.3598 L96.2912,336.6542 L103.2088,336.0725 L110.1265,337.2345 L117.0441,336.1295 L123.9618,336.5332 L130.8794,337.1209 L137.7971,336.6377 L144.7147,336.7815 L151.6324,336.688 L158.55,336.7178 " fill="none" style="stroke:#181818;stroke-width:0.6999999999999998;stroke-dasharray:2.0,2.0;"/><text fill="#000000" font-family="FG Virgil" font-size="9.1" lengthAdjust="spacing" textLength="53.2" x="49.35" y="333.0339">Show Dishes</text><polygon fill="#181818" points="150.85,355.8215,150.8682,355.867,152.2141,356.2917,153.6667,356.9834,155.0846,357.5881,156.3882,357.9069,157.85,358.6215,157.8433,358.6046,156.413,359.0891,155.0168,359.6584,153.6441,360.2867,152.1901,360.7117,150.85,361.4215,150.9413,361.5128,151.306,360.7575,151.9374,360.2689,152.6013,359.8128,153.0758,359.1673,153.65,358.6215,153.6613,358.6327,153.0847,358.0562,152.5595,357.5309,152.0095,356.9809,151.5066,356.4781,150.85,355.8215" style="stroke:#181818;stroke-width:0.6999999999999998;"/><path d="M37.45,358.6215 L37.45,358.8177 L44.3676,358.2348 L51.2853,358.8019 L58.2029,358.9945 L65.1206,357.9556 L72.0382,358.549 L78.9559,358.2234 L85.8735,358.2636 L92.7912,358.5579 L99.7088,357.9762 L106.6265,359.1382 L113.5441,358.0332 L120.4618,358.4369 L127.3794,359.0246 L134.2971,358.5414 L141.2147,358.6852 L148.1324,358.5917 L155.05,358.6215 " fill="none" style="stroke:#181818;stroke-width:0.6999999999999998;stroke-dasharray:2.0,2.0;"/><text fill="#000000" font-family="FG Virgil" font-size="9.1" lengthAdjust="spacing" textLength="46.9" x="42.35" y="354.9376">Select Dish</text><polygon fill="#181818" points="295.05,377.7252,295.0682,377.7707,296.4141,378.1954,297.8667,378.8871,299.2846,379.4918,300.5882,379.8106,302.05,380.5252,302.0433,380.5084,300.613,380.9928,299.2168,381.5621,297.8441,382.1904,296.3901,382.6154,295.05,383.3252,295.1413,383.4165,295.506,382.6612,296.1374,382.1726,296.8013,381.7165,297.2758,381.071,297.85,380.5252,297.8613,380.5365,297.2847,379.9599,296.7595,379.4347,296.2095,378.8847,295.7066,378.3818,295.05,377.7252" style="stroke:#181818;stroke-width:0.6999999999999998;"/><path d="M166.25,380.5252 L166.25,380.7214 L173.25,380.1385 L180.25,380.7056 L187.25,380.8982 L194.25,379.8594 L201.25,380.4527 L208.25,380.1271 L215.25,380.1673 L222.25,380.4616 L229.25,379.8799 L236.25,381.0419 L243.25,379.9369 L250.25,380.3406 L257.25,380.9283 L264.25,380.4451 L271.25,380.5889 L278.25,380.4954 L285.25,380.6918 L292.25,380.7484 L299.25,380.5252 " fill="none" style="stroke:#181818;stroke-width:0.6999999999999998;"/><text fill="#000000" font-family="FG Virgil" font-size="9.1" lengthAdjust="spacing" textLength="91.7" x="171.15" y="376.8413">changeDishState(dish)</text><polygon fill="#181818" points="494.2,399.6289,494.2182,399.6744,495.5641,400.0991,497.0167,400.7908,498.4346,401.3955,499.7382,401.7144,501.2,402.4289,501.1933,402.4121,499.763,402.8965,498.3668,403.4658,496.9941,404.0941,495.5401,404.5191,494.2,405.2289,494.2913,405.3203,494.656,404.5649,495.2874,404.0763,495.9513,403.6202,496.4258,402.9748,497,402.4289,497.0113,402.4402,496.4347,401.8636,495.9095,401.3384,495.3595,400.7884,494.8566,400.2855,494.2,399.6289" style="stroke:#181818;stroke-width:0.6999999999999998;"/><path d="M310.45,402.4289 L310.45,402.6251 L317.4111,402.0422 L324.3722,402.6093 L331.3333,402.8019 L338.2944,401.7631 L345.2556,402.3564 L352.2167,402.0308 L359.1778,402.071 L366.1389,402.3653 L373.1,401.7836 L380.0611,402.9456 L387.0222,401.8406 L393.9833,402.2443 L400.9444,402.8321 L407.9056,402.3488 L414.8667,402.4926 L421.8278,402.3991 L428.7889,402.5955 L435.75,402.6521 L442.7111,402.9756 L449.6722,403.0552 L456.6333,403.0629 L463.5944,402.6666 L470.5556,402.8616 L477.5167,403.0843 L484.4778,401.7558 L491.4389,403.0622 L498.4,402.4289 " fill="none" style="stroke:#181818;stroke-width:0.6999999999999998;"/><text fill="#000000" font-family="FG Virgil" font-size="9.1" lengthAdjust="spacing" textLength="51.8" x="315.35" y="398.745">toogleState()</text><polygon fill="#181818" points="560,421.5326,560.0182,421.5782,561.3641,422.0029,562.8167,422.6945,564.2346,423.2992,565.5382,423.6181,567,424.3326,566.9933,424.3158,565.563,424.8002,564.1668,425.3695,562.7941,425.9979,561.3401,426.4228,560,427.1326,560.0913,427.224,560.456,426.4686,561.0874,425.98,561.7513,425.5239,562.2258,424.8785,562.8,424.3326,562.8113,424.3439,562.2347,423.7673,561.7095,423.2421,561.1595,422.6921,560.6566,422.1893,560,421.5326" style="stroke:#181818;stroke-width:0.6999999999999998;"/><path d="M310.45,424.3326 L310.45,424.5288 L317.4986,423.9459 L324.5472,424.513 L331.5958,424.7057 L338.6444,423.6668 L345.6931,424.2601 L352.7417,423.9346 L359.7903,423.9747 L366.8389,424.269 L373.8875,423.6873 L380.9361,424.8493 L387.9847,423.7444 L395.0333,424.148 L402.0819,424.7358 L409.1306,424.2526 L416.1792,424.3963 L423.2278,424.3028 L430.2764,424.4992 L437.325,424.5558 L444.3736,424.8793 L451.4222,424.9589 L458.4708,424.9666 L465.5194,424.5703 L472.5681,424.7653 L479.6167,424.988 L486.6653,423.6595 L493.7139,424.9659 L500.7625,424.0559 L507.8111,424.8308 L514.8597,423.8706 L521.9083,424.2687 L528.9569,425.0248 L536.0056,424.2871 L543.0542,424.4309 L550.1028,424.6487 L557.1514,424.7211 L564.2,424.3326 " fill="none" style="stroke:#181818;stroke-width:0.6999999999999998;"/><text fill="#000000" font-family="FG Virgil" font-size="9.1" lengthAdjust="spacing" textLength="40.6" x="315.35" y="420.6487">save(dish)</text><polygon fill="#181818" points="318.15,443.4363,318.1682,443.4819,316.7141,443.9066,315.3667,444.5982,313.9846,445.2029,312.4882,445.5218,311.15,446.2363,311.1433,446.2195,312.513,446.7039,313.9168,447.2732,315.3441,447.9016,316.6901,448.3265,318.15,449.0363,318.2413,449.1277,317.486,448.3723,316.9974,447.8837,316.5413,447.4276,315.8958,446.7822,315.35,446.2363,315.3613,446.2476,315.9047,445.6711,316.4995,445.1458,317.0695,444.5958,317.6866,444.093,318.15,443.4363" style="stroke:#181818;stroke-width:0.6999999999999998;"/><path d="M313.95,446.2363 L313.95,446.4325 L320.9027,445.8496 L327.8554,446.4167 L334.8081,446.6094 L341.7608,445.5705 L348.7135,446.1638 L355.6662,445.8383 L362.6189,445.8784 L369.5716,446.1727 L376.5243,445.5911 L383.477,446.7531 L390.4297,445.6481 L397.3824,446.0517 L404.3351,446.6395 L411.2878,446.1563 L418.2405,446.3 L425.1932,446.2065 L432.1459,446.403 L439.0986,446.4595 L446.0514,446.783 L453.0041,446.8626 L459.9568,446.8703 L466.9095,446.474 L473.8622,446.669 L480.8149,446.8917 L487.7676,445.5632 L494.7203,446.8696 L501.673,445.9596 L508.6257,446.7346 L515.5784,445.7743 L522.5311,446.1724 L529.4838,446.9285 L536.4365,446.1908 L543.3892,446.3346 L550.3419,446.5524 L557.2946,446.6248 L564.2473,446.2327 L571.2,446.2363 " fill="none" style="stroke:#181818;stroke-width:0.6999999999999998;stroke-dasharray:2.0,2.0;"/><text fill="#000000" font-family="FG Virgil" font-size="9.1" lengthAdjust="spacing" textLength="16.8" x="322.35" y="442.5524">dish</text><polygon fill="#181818" points="173.95,465.34,173.9682,465.3856,172.5141,465.8103,171.1667,466.5019,169.7846,467.1066,168.2882,467.4255,166.95,468.14,166.9433,468.1232,168.313,468.6076,169.7168,469.177,171.1441,469.8053,172.4901,470.2303,173.95,470.94,174.0413,471.0314,173.286,470.276,172.7974,469.7874,172.3413,469.3313,171.6958,468.6859,171.15,468.14,171.1613,468.1513,171.7047,467.5748,172.2995,467.0495,172.8695,466.4995,173.4866,465.9967,173.95,465.34" style="stroke:#181818;stroke-width:0.6999999999999998;"/><path d="M169.75,468.14 L169.75,468.3362 L176.575,467.7533 L183.4,468.3204 L190.225,468.5131 L197.05,467.4742 L203.875,468.0675 L210.7,467.742 L217.525,467.7821 L224.35,468.0764 L231.175,467.4948 L238,468.6568 L244.825,467.5518 L251.65,467.9555 L258.475,468.5432 L265.3,468.06 L272.125,468.2037 L278.95,468.1102 L285.775,468.3067 L292.6,468.3632 L299.425,468.6867 L306.25,468.14 " fill="none" style="stroke:#181818;stroke-width:0.6999999999999998;"/><text fill="#000000" font-family="FG Virgil" font-size="9.1" lengthAdjust="spacing" textLength="16.8" x="178.15" y="464.4562">dish</text><polygon fill="#181818" points="45.15,487.2437,45.1682,487.2893,43.7141,487.714,42.3667,488.4056,40.9846,489.0103,39.4882,489.3292,38.15,490.0437,38.1433,490.0269,39.513,490.5114,40.9168,491.0807,42.3441,491.709,43.6901,492.134,45.15,492.8437,45.2413,492.9351,44.486,492.1798,43.9974,491.6911,43.5413,491.235,42.8958,490.5896,42.35,490.0437,42.3613,490.055,42.9047,489.4785,43.4995,488.9532,44.0695,488.4032,44.6866,487.9004,45.15,487.2437" style="stroke:#181818;stroke-width:0.6999999999999998;"/><path d="M40.95,490.0437 L40.95,490.2399 L48.0735,489.6571 L55.1971,490.2242 L62.3206,490.4168 L69.4441,489.3779 L76.5676,489.9712 L83.6912,489.6457 L90.8147,489.6858 L97.9382,489.9801 L105.0618,489.3985 L112.1853,490.5605 L119.3088,489.4555 L126.4324,489.8592 L133.5559,490.4469 L140.6794,489.9637 L147.8029,490.1074 L154.9265,490.0139 L162.05,490.0437 " fill="none" style="stroke:#181818;stroke-width:0.6999999999999998;stroke-dasharray:2.0,2.0;"/><text fill="#000000" font-family="FG Virgil" font-size="9.1" lengthAdjust="spacing" textLength="99.4" x="49.35" y="486.3599">Display Dish Info or error</text><!--SRC=[dLHDZzem4BtdLupsn1xu0r64jEfgAwHk3utegPUfFKb6Q-p8Ta3qrtSS835qbzBw0B5dtdozPuStjZrwt4A7LkyznqWMeX-e29DfwwnJdNTRkhRqgDwmfJeU384d5JERfWO74r-SZLzHe2-VuJlxbatc4phKRi-sXGPDeA905Ps7LxB3Arg9x043FAN3GX2H5VTeOphX7KPw9Zn_SUWsw-GjlrNLUmfa8qPsThMw0_j9olJEc6F6R5TLsFU6rNkX7hvmY0bTaz-neeU4hNVgDaWBe4oeqVtPRP6j8FJu8SuQ8_x4G91ylb7l0al_X-ISxQhAJni15UEGOBbSoG3AgKcGixdHCM8nxJRh0cJ9m0Grjro2yYJsuWEhEJMzU1mTfd2ppn6PbdLYyDns4LoJZxM4ZhKMhU4GE-VvrpWg68BOsa74OICH_B2B87-X9yKDAz2ChUZcSKwGLXPMIfNvbu36f18fd8eyhwbOyReCSbbf8h64chV2OiEaeISVf6-oYkuhAaMGQcR6IcZOwYTZFYffThsCb96-FFUdn-Okt3JzDT9OqnMRjoDTZ6c6BLT9P1aqW-GoIEAHVACsPPoTsyEHbYkvrcJayJZAyoDDoWFLZbUrbcjDYvJy3W7-gO_JXIiXEjSQEaQxgQYSmu2xFFV_adZDmBym-HuDjqWuupPhoNoYGkRO6poC4uUrRLnwACXxUMUpA9lrRm00]--></g></svg>