<?xml version="1.0" encoding="us-ascii" standalone="no"?><svg xmlns="http://www.w3.org/2000/svg" xmlns:xlink="http://www.w3.org/1999/xlink" contentStyleType="text/css" height="444.5px" preserveAspectRatio="none" style="width:1427px;height:444px;background:#FFFFFF;" version="1.1" viewBox="0 0 1427 444" width="1428px" zoomAndPan="magnify"><defs/><g><!--cluster <<aggregate>> CafeteriaUser--><g id="cluster_&lt;&lt;aggregate&gt;&gt; CafeteriaUser"><path d="M343.35,123.9096 L476.35,123.9096 A2.625,2.625 0 0 1 478.1,125.6596 L483,141.1443 L588.35,141.1443 A1.75,1.75 0 0 1 590.1,142.8943 L590.1,337.7596 A1.75,1.75 0 0 1 588.35,339.5096 L343.35,339.5096 A1.75,1.75 0 0 1 341.6,337.7596 L341.6,125.6596 A1.75,1.75 0 0 1 343.35,123.9096 " fill="none" style="stroke:#000000;stroke-width:1.0499999999999998;"/><line style="stroke:#000000;stroke-width:1.0499999999999998;" x1="341.6" x2="483" y1="141.1443" y2="141.1443"/><text fill="#000000" font-family="sans-serif" font-size="9.8" font-weight="bold" lengthAdjust="spacing" textLength="132.3" x="344.4" y="135.8848">&#171;aggregate&#187; CafeteriaUser</text></g><!--cluster <<aggregate>> Meal--><g id="cluster_&lt;&lt;aggregate&gt;&gt; Meal"><path d="M608.65,123.9096 L697.55,123.9096 A2.625,2.625 0 0 1 699.3,125.6596 L704.2,141.1443 L893.55,141.1443 A1.75,1.75 0 0 1 895.3,142.8943 L895.3,337.7596 A1.75,1.75 0 0 1 893.55,339.5096 L608.65,339.5096 A1.75,1.75 0 0 1 606.9,337.7596 L606.9,125.6596 A1.75,1.75 0 0 1 608.65,123.9096 " fill="none" style="stroke:#000000;stroke-width:1.0499999999999998;"/><line style="stroke:#000000;stroke-width:1.0499999999999998;" x1="606.9" x2="704.2" y1="141.1443" y2="141.1443"/><text fill="#000000" font-family="sans-serif" font-size="9.8" font-weight="bold" lengthAdjust="spacing" textLength="88.2" x="609.7" y="135.8848">&#171;aggregate&#187; Meal</text></g><!--cluster <<aggregate>> Dish--><g id="cluster_&lt;&lt;aggregate&gt;&gt; Dish"><path d="M913.85,245.0096 L1000.65,245.0096 A2.625,2.625 0 0 1 1002.4,246.7596 L1007.3,262.2443 L1421.35,262.2443 A1.75,1.75 0 0 1 1423.1,263.9943 L1423.1,437.8596 A1.75,1.75 0 0 1 1421.35,439.6096 L913.85,439.6096 A1.75,1.75 0 0 1 912.1,437.8596 L912.1,246.7596 A1.75,1.75 0 0 1 913.85,245.0096 " fill="none" style="stroke:#000000;stroke-width:1.0499999999999998;"/><line style="stroke:#000000;stroke-width:1.0499999999999998;" x1="912.1" x2="1007.3" y1="262.2443" y2="262.2443"/><text fill="#000000" font-family="sans-serif" font-size="9.8" font-weight="bold" lengthAdjust="spacing" textLength="86.1" x="914.9" y="256.9848">&#171;aggregate&#187; Dish</text></g><!--cluster <<aggregate>> Booking--><g id="cluster_&lt;&lt;aggregate&gt;&gt; Booking"><path d="M5.95,4.2096 L111.65,4.2096 A2.625,2.625 0 0 1 113.4,5.9596 L118.3,21.4443 L323.05,21.4443 A1.75,1.75 0 0 1 324.8,23.1943 L324.8,207.5596 A1.75,1.75 0 0 1 323.05,209.3096 L5.95,209.3096 A1.75,1.75 0 0 1 4.2,207.5596 L4.2,5.9596 A1.75,1.75 0 0 1 5.95,4.2096 " fill="none" style="stroke:#000000;stroke-width:1.0499999999999998;"/><line style="stroke:#000000;stroke-width:1.0499999999999998;" x1="4.2" x2="118.3" y1="21.4443" y2="21.4443"/><text fill="#000000" font-family="sans-serif" font-size="9.8" font-weight="bold" lengthAdjust="spacing" textLength="105" x="7" y="16.1848">&#171;aggregate&#187; Booking</text></g><!--class CafeteriaUser--><g id="elem_CafeteriaUser"><rect codeLine="6" fill="#F1F1F1" height="47.9801" id="CafeteriaUser" rx="1.75" ry="1.75" style="stroke:#181818;stroke-width:0.3499999999999999;" width="83.3" x="353.15" y="149.8096"/><ellipse cx="363.65" cy="170.9996" fill="#ADD1B2" rx="7.7" ry="7.7" style="stroke:#181818;stroke-width:0.6999999999999998;"/><path d="M365.5859,168.1121 Q365.6953,167.959 365.8266,167.8824 Q365.9578,167.8059 366.1109,167.8059 Q366.3734,167.8059 366.5375,167.9918 Q366.7016,168.1668 366.7016,168.5934 L366.7016,169.6105 Q366.7016,170.0371 366.5375,170.223 Q366.3734,170.409 366.1109,170.409 Q365.8703,170.409 365.7281,170.2668 Q365.5859,170.1355 365.5094,169.7746 Q365.4766,169.523 365.3453,169.3918 Q365.1156,169.1293 364.6891,168.9762 Q364.2625,168.823 363.825,168.823 Q363.2891,168.823 362.8406,169.0527 Q362.4031,169.2824 362.0531,169.8074 Q361.7141,170.3324 361.7141,171.0543 L361.7141,171.8199 Q361.7141,172.684 362.3375,173.2637 Q362.9609,173.8324 364.0766,173.8324 Q364.7328,173.8324 365.1922,173.6574 Q365.4656,173.548 365.7609,173.2418 Q365.9469,173.0559 366.0453,173.0012 Q366.1547,172.9465 366.2969,172.9465 Q366.5266,172.9465 366.7016,173.1324 Q366.8875,173.3074 366.8875,173.548 Q366.8875,173.7887 366.6469,174.073 Q366.2969,174.4777 365.7391,174.7074 Q364.9844,175.0246 364.0766,175.0246 Q363.0156,175.0246 362.1734,174.5871 Q361.4844,174.2371 361.0031,173.4934 Q360.5219,172.7387 360.5219,171.8418 L360.5219,171.0324 Q360.5219,170.1027 360.9484,169.3043 Q361.3859,168.4949 362.1516,168.0684 Q362.9172,167.6309 363.7812,167.6309 Q364.2953,167.6309 364.7437,167.7512 Q365.2031,167.8605 365.5859,168.1121 Z " fill="#000000"/><text fill="#000000" font-family="sans-serif" font-size="8.4" font-style="italic" lengthAdjust="spacing" textLength="30.1" x="388.85" y="162.374">&#171;entity&#187;</text><text fill="#000000" font-family="sans-serif" font-size="8.4" font-style="italic" lengthAdjust="spacing" textLength="24.5" x="391.65" y="173.5467">&#171;root&#187;</text><text fill="#000000" font-family="sans-serif" font-size="9.8" lengthAdjust="spacing" textLength="60.9" x="373.45" y="186.2301">CafeteriaUser</text><line style="stroke:#181818;stroke-width:0.3499999999999999;" x1="353.85" x2="435.75" y1="192.1896" y2="192.1896"/></g><!--class Role--><g id="elem_Role"><rect codeLine="9" fill="#F1F1F1" height="36.8074" id="Role" rx="1.75" ry="1.75" style="stroke:#181818;stroke-width:0.3499999999999999;" width="76.3" x="353.15" y="285.6096"/><ellipse cx="363.65" cy="301.2133" fill="#ADD1B2" rx="7.7" ry="7.7" style="stroke:#181818;stroke-width:0.6999999999999998;"/><path d="M365.5859,298.3258 Q365.6953,298.1727 365.8266,298.0961 Q365.9578,298.0195 366.1109,298.0195 Q366.3734,298.0195 366.5375,298.2055 Q366.7016,298.3805 366.7016,298.807 L366.7016,299.8242 Q366.7016,300.2508 366.5375,300.4367 Q366.3734,300.6227 366.1109,300.6227 Q365.8703,300.6227 365.7281,300.4805 Q365.5859,300.3492 365.5094,299.9883 Q365.4766,299.7367 365.3453,299.6055 Q365.1156,299.343 364.6891,299.1898 Q364.2625,299.0367 363.825,299.0367 Q363.2891,299.0367 362.8406,299.2664 Q362.4031,299.4961 362.0531,300.0211 Q361.7141,300.5461 361.7141,301.268 L361.7141,302.0336 Q361.7141,302.8977 362.3375,303.4773 Q362.9609,304.0461 364.0766,304.0461 Q364.7328,304.0461 365.1922,303.8711 Q365.4656,303.7617 365.7609,303.4555 Q365.9469,303.2695 366.0453,303.2148 Q366.1547,303.1602 366.2969,303.1602 Q366.5266,303.1602 366.7016,303.3461 Q366.8875,303.5211 366.8875,303.7617 Q366.8875,304.0023 366.6469,304.2867 Q366.2969,304.6914 365.7391,304.9211 Q364.9844,305.2383 364.0766,305.2383 Q363.0156,305.2383 362.1734,304.8008 Q361.4844,304.4508 361.0031,303.707 Q360.5219,302.9523 360.5219,302.0555 L360.5219,301.2461 Q360.5219,300.3164 360.9484,299.518 Q361.3859,298.7086 362.1516,298.282 Q362.9172,297.8445 363.7812,297.8445 Q364.2953,297.8445 364.7437,297.9648 Q365.2031,298.0742 365.5859,298.3258 Z " fill="#000000"/><text fill="#000000" font-family="sans-serif" font-size="8.4" font-style="italic" lengthAdjust="spacing" textLength="56.7" x="372.05" y="298.174">&#171;value object&#187;</text><text fill="#000000" font-family="sans-serif" font-size="9.8" lengthAdjust="spacing" textLength="20.3" x="390.25" y="310.8574">Role</text><line style="stroke:#181818;stroke-width:0.3499999999999999;" x1="353.85" x2="428.75" y1="316.817" y2="316.817"/></g><!--class MecanographicNumber--><g id="elem_MecanographicNumber"><rect codeLine="12" fill="#F1F1F1" height="47.9801" id="MecanographicNumber" rx="1.75" ry="1.75" style="stroke:#181818;stroke-width:0.3499999999999999;" width="124.6" x="454.3" y="280.0096"/><ellipse cx="464.8" cy="301.1996" fill="#ADD1B2" rx="7.7" ry="7.7" style="stroke:#181818;stroke-width:0.6999999999999998;"/><path d="M466.7359,298.3121 Q466.8453,298.159 466.9766,298.0824 Q467.1078,298.0059 467.2609,298.0059 Q467.5234,298.0059 467.6875,298.1918 Q467.8516,298.3668 467.8516,298.7934 L467.8516,299.8105 Q467.8516,300.2371 467.6875,300.423 Q467.5234,300.609 467.2609,300.609 Q467.0203,300.609 466.8781,300.4668 Q466.7359,300.3355 466.6594,299.9746 Q466.6266,299.723 466.4953,299.5918 Q466.2656,299.3293 465.8391,299.1762 Q465.4125,299.023 464.975,299.023 Q464.4391,299.023 463.9906,299.2527 Q463.5531,299.4824 463.2031,300.0074 Q462.8641,300.5324 462.8641,301.2543 L462.8641,302.0199 Q462.8641,302.884 463.4875,303.4637 Q464.1109,304.0324 465.2266,304.0324 Q465.8828,304.0324 466.3422,303.8574 Q466.6156,303.748 466.9109,303.4418 Q467.0969,303.2559 467.1953,303.2012 Q467.3047,303.1465 467.4469,303.1465 Q467.6766,303.1465 467.8516,303.3324 Q468.0375,303.5074 468.0375,303.748 Q468.0375,303.9887 467.7969,304.273 Q467.4469,304.6777 466.8891,304.9074 Q466.1344,305.2246 465.2266,305.2246 Q464.1656,305.2246 463.3234,304.7871 Q462.6344,304.4371 462.1531,303.6934 Q461.6719,302.9387 461.6719,302.0418 L461.6719,301.2324 Q461.6719,300.3027 462.0984,299.5043 Q462.5359,298.6949 463.3016,298.2684 Q464.0672,297.8309 464.9312,297.8309 Q465.4453,297.8309 465.8937,297.9512 Q466.3531,298.0605 466.7359,298.3121 Z " fill="#000000"/><text fill="#000000" font-family="sans-serif" font-size="8.4" font-style="italic" lengthAdjust="spacing" textLength="56.7" x="497.35" y="292.574">&#171;value object&#187;</text><text fill="#000000" font-family="sans-serif" font-size="8.4" font-style="italic" lengthAdjust="spacing" textLength="16.8" x="517.3" y="303.7467">&#171;id&#187;</text><text fill="#000000" font-family="sans-serif" font-size="9.8" lengthAdjust="spacing" textLength="102.2" x="474.6" y="316.4301">MecanographicNumber</text><line style="stroke:#181818;stroke-width:0.3499999999999999;" x1="455" x2="578.2" y1="322.3896" y2="322.3896"/></g><!--class Meal--><g id="elem_Meal"><rect codeLine="20" fill="#F1F1F1" height="47.9801" id="Meal" rx="1.75" ry="1.75" style="stroke:#181818;stroke-width:0.3499999999999999;" width="49.7" x="726.25" y="149.8096"/><ellipse cx="736.75" cy="170.9996" fill="#ADD1B2" rx="7.7" ry="7.7" style="stroke:#181818;stroke-width:0.6999999999999998;"/><path d="M738.6859,168.1121 Q738.7953,167.959 738.9266,167.8824 Q739.0578,167.8059 739.2109,167.8059 Q739.4734,167.8059 739.6375,167.9918 Q739.8016,168.1668 739.8016,168.5934 L739.8016,169.6105 Q739.8016,170.0371 739.6375,170.223 Q739.4734,170.409 739.2109,170.409 Q738.9703,170.409 738.8281,170.2668 Q738.6859,170.1355 738.6094,169.7746 Q738.5766,169.523 738.4453,169.3918 Q738.2156,169.1293 737.7891,168.9762 Q737.3625,168.823 736.925,168.823 Q736.3891,168.823 735.9406,169.0527 Q735.5031,169.2824 735.1531,169.8074 Q734.8141,170.3324 734.8141,171.0543 L734.8141,171.8199 Q734.8141,172.684 735.4375,173.2637 Q736.0609,173.8324 737.1766,173.8324 Q737.8328,173.8324 738.2922,173.6574 Q738.5656,173.548 738.8609,173.2418 Q739.0469,173.0559 739.1453,173.0012 Q739.2547,172.9465 739.3969,172.9465 Q739.6266,172.9465 739.8016,173.1324 Q739.9875,173.3074 739.9875,173.548 Q739.9875,173.7887 739.7469,174.073 Q739.3969,174.4777 738.8391,174.7074 Q738.0844,175.0246 737.1766,175.0246 Q736.1156,175.0246 735.2734,174.5871 Q734.5844,174.2371 734.1031,173.4934 Q733.6219,172.7387 733.6219,171.8418 L733.6219,171.0324 Q733.6219,170.1027 734.0484,169.3043 Q734.4859,168.4949 735.2516,168.0684 Q736.0172,167.6309 736.8812,167.6309 Q737.3953,167.6309 737.8437,167.7512 Q738.3031,167.8605 738.6859,168.1121 Z " fill="#000000"/><text fill="#000000" font-family="sans-serif" font-size="8.4" font-style="italic" lengthAdjust="spacing" textLength="30.1" x="745.15" y="162.374">&#171;entity&#187;</text><text fill="#000000" font-family="sans-serif" font-size="8.4" font-style="italic" lengthAdjust="spacing" textLength="24.5" x="747.95" y="173.5467">&#171;root&#187;</text><text fill="#000000" font-family="sans-serif" font-size="9.8" lengthAdjust="spacing" textLength="21" x="749.7" y="186.2301">Meal</text><line style="stroke:#181818;stroke-width:0.3499999999999999;" x1="726.95" x2="775.25" y1="192.1896" y2="192.1896"/></g><!--class MealType--><g id="elem_MealType"><rect codeLine="23" fill="#F1F1F1" height="36.8074" id="MealType" rx="1.75" ry="1.75" style="stroke:#181818;stroke-width:0.3499999999999999;" width="76.3" x="618.45" y="285.6096"/><ellipse cx="628.95" cy="301.2133" fill="#ADD1B2" rx="7.7" ry="7.7" style="stroke:#181818;stroke-width:0.6999999999999998;"/><path d="M630.8859,298.3258 Q630.9953,298.1727 631.1266,298.0961 Q631.2578,298.0195 631.4109,298.0195 Q631.6734,298.0195 631.8375,298.2055 Q632.0016,298.3805 632.0016,298.807 L632.0016,299.8242 Q632.0016,300.2508 631.8375,300.4367 Q631.6734,300.6227 631.4109,300.6227 Q631.1703,300.6227 631.0281,300.4805 Q630.8859,300.3492 630.8094,299.9883 Q630.7766,299.7367 630.6453,299.6055 Q630.4156,299.343 629.9891,299.1898 Q629.5625,299.0367 629.125,299.0367 Q628.5891,299.0367 628.1406,299.2664 Q627.7031,299.4961 627.3531,300.0211 Q627.0141,300.5461 627.0141,301.268 L627.0141,302.0336 Q627.0141,302.8977 627.6375,303.4773 Q628.2609,304.0461 629.3766,304.0461 Q630.0328,304.0461 630.4922,303.8711 Q630.7656,303.7617 631.0609,303.4555 Q631.2469,303.2695 631.3453,303.2148 Q631.4547,303.1602 631.5969,303.1602 Q631.8266,303.1602 632.0016,303.3461 Q632.1875,303.5211 632.1875,303.7617 Q632.1875,304.0023 631.9469,304.2867 Q631.5969,304.6914 631.0391,304.9211 Q630.2844,305.2383 629.3766,305.2383 Q628.3156,305.2383 627.4734,304.8008 Q626.7844,304.4508 626.3031,303.707 Q625.8219,302.9523 625.8219,302.0555 L625.8219,301.2461 Q625.8219,300.3164 626.2484,299.518 Q626.6859,298.7086 627.4516,298.282 Q628.2172,297.8445 629.0812,297.8445 Q629.5953,297.8445 630.0437,297.9648 Q630.5031,298.0742 630.8859,298.3258 Z " fill="#000000"/><text fill="#000000" font-family="sans-serif" font-size="8.4" font-style="italic" lengthAdjust="spacing" textLength="56.7" x="637.35" y="298.174">&#171;value object&#187;</text><text fill="#000000" font-family="sans-serif" font-size="9.8" lengthAdjust="spacing" textLength="43.4" x="644" y="310.8574">MealType</text><line style="stroke:#181818;stroke-width:0.3499999999999999;" x1="619.15" x2="694.05" y1="316.817" y2="316.817"/></g><!--class Calender--><g id="elem_Calender"><rect codeLine="26" fill="#F1F1F1" height="28" id="Calender" rx="1.75" ry="1.75" style="stroke:#181818;stroke-width:0.3499999999999999;" width="63" x="719.6" y="290.1596"/><ellipse cx="730.1" cy="301.3596" fill="#ADD1B2" rx="7.7" ry="7.7" style="stroke:#181818;stroke-width:0.6999999999999998;"/><path d="M732.0359,298.4721 Q732.1453,298.3189 732.2766,298.2424 Q732.4078,298.1658 732.5609,298.1658 Q732.8234,298.1658 732.9875,298.3518 Q733.1516,298.5268 733.1516,298.9533 L733.1516,299.9705 Q733.1516,300.3971 732.9875,300.583 Q732.8234,300.7689 732.5609,300.7689 Q732.3203,300.7689 732.1781,300.6268 Q732.0359,300.4955 731.9594,300.1346 Q731.9266,299.883 731.7953,299.7518 Q731.5656,299.4893 731.1391,299.3361 Q730.7125,299.183 730.275,299.183 Q729.7391,299.183 729.2906,299.4127 Q728.8531,299.6424 728.5031,300.1674 Q728.1641,300.6924 728.1641,301.4143 L728.1641,302.1799 Q728.1641,303.0439 728.7875,303.6236 Q729.4109,304.1924 730.5266,304.1924 Q731.1828,304.1924 731.6422,304.0174 Q731.9156,303.908 732.2109,303.6018 Q732.3969,303.4158 732.4953,303.3611 Q732.6047,303.3064 732.7469,303.3064 Q732.9766,303.3064 733.1516,303.4924 Q733.3375,303.6674 733.3375,303.908 Q733.3375,304.1486 733.0969,304.433 Q732.7469,304.8377 732.1891,305.0674 Q731.4344,305.3846 730.5266,305.3846 Q729.4656,305.3846 728.6234,304.9471 Q727.9344,304.5971 727.4531,303.8533 Q726.9719,303.0986 726.9719,302.2018 L726.9719,301.3924 Q726.9719,300.4627 727.3984,299.6643 Q727.8359,298.8549 728.6016,298.4283 Q729.3672,297.9908 730.2312,297.9908 Q730.7453,297.9908 731.1937,298.1111 Q731.6531,298.2205 732.0359,298.4721 Z " fill="#000000"/><text fill="#000000" font-family="sans-serif" font-size="9.8" lengthAdjust="spacing" textLength="40.6" x="739.9" y="305.4174">Calender</text><line style="stroke:#181818;stroke-width:0.3499999999999999;" x1="720.3" x2="781.9" y1="312.5596" y2="312.5596"/></g><!--class MealID--><g id="elem_MealID"><rect codeLine="29" fill="#F1F1F1" height="47.9801" id="MealID" rx="1.75" ry="1.75" style="stroke:#181818;stroke-width:0.3499999999999999;" width="76.3" x="807.45" y="280.0096"/><ellipse cx="817.95" cy="301.1996" fill="#ADD1B2" rx="7.7" ry="7.7" style="stroke:#181818;stroke-width:0.6999999999999998;"/><path d="M819.8859,298.3121 Q819.9953,298.159 820.1266,298.0824 Q820.2578,298.0059 820.4109,298.0059 Q820.6734,298.0059 820.8375,298.1918 Q821.0016,298.3668 821.0016,298.7934 L821.0016,299.8105 Q821.0016,300.2371 820.8375,300.423 Q820.6734,300.609 820.4109,300.609 Q820.1703,300.609 820.0281,300.4668 Q819.8859,300.3355 819.8094,299.9746 Q819.7766,299.723 819.6453,299.5918 Q819.4156,299.3293 818.9891,299.1762 Q818.5625,299.023 818.125,299.023 Q817.5891,299.023 817.1406,299.2527 Q816.7031,299.4824 816.3531,300.0074 Q816.0141,300.5324 816.0141,301.2543 L816.0141,302.0199 Q816.0141,302.884 816.6375,303.4637 Q817.2609,304.0324 818.3766,304.0324 Q819.0328,304.0324 819.4922,303.8574 Q819.7656,303.748 820.0609,303.4418 Q820.2469,303.2559 820.3453,303.2012 Q820.4547,303.1465 820.5969,303.1465 Q820.8266,303.1465 821.0016,303.3324 Q821.1875,303.5074 821.1875,303.748 Q821.1875,303.9887 820.9469,304.273 Q820.5969,304.6777 820.0391,304.9074 Q819.2844,305.2246 818.3766,305.2246 Q817.3156,305.2246 816.4734,304.7871 Q815.7844,304.4371 815.3031,303.6934 Q814.8219,302.9387 814.8219,302.0418 L814.8219,301.2324 Q814.8219,300.3027 815.2484,299.5043 Q815.6859,298.6949 816.4516,298.2684 Q817.2172,297.8309 818.0812,297.8309 Q818.5953,297.8309 819.0437,297.9512 Q819.5031,298.0605 819.8859,298.3121 Z " fill="#000000"/><text fill="#000000" font-family="sans-serif" font-size="8.4" font-style="italic" lengthAdjust="spacing" textLength="56.7" x="826.35" y="292.574">&#171;value object&#187;</text><text fill="#000000" font-family="sans-serif" font-size="8.4" font-style="italic" lengthAdjust="spacing" textLength="16.8" x="846.3" y="303.7467">&#171;id&#187;</text><text fill="#000000" font-family="sans-serif" font-size="9.8" lengthAdjust="spacing" textLength="30.1" x="839.65" y="316.4301">MealID</text><line style="stroke:#181818;stroke-width:0.3499999999999999;" x1="808.15" x2="883.05" y1="322.3896" y2="322.3896"/></g><!--class Dish--><g id="elem_Dish"><rect codeLine="38" fill="#F1F1F1" height="66.6148" id="Dish" rx="1.75" ry="1.75" style="stroke:#181818;stroke-width:0.3499999999999999;" width="81.9" x="1074.15" y="270.9096"/><ellipse cx="1099.14" cy="292.0996" fill="#ADD1B2" rx="7.7" ry="7.7" style="stroke:#181818;stroke-width:0.6999999999999998;"/><path d="M1101.0759,289.2121 Q1101.1853,289.059 1101.3166,288.9824 Q1101.4478,288.9059 1101.6009,288.9059 Q1101.8634,288.9059 1102.0275,289.0918 Q1102.1916,289.2668 1102.1916,289.6934 L1102.1916,290.7105 Q1102.1916,291.1371 1102.0275,291.323 Q1101.8634,291.509 1101.6009,291.509 Q1101.3603,291.509 1101.2181,291.3668 Q1101.0759,291.2355 1100.9994,290.8746 Q1100.9666,290.623 1100.8353,290.4918 Q1100.6056,290.2293 1100.1791,290.0762 Q1099.7525,289.923 1099.315,289.923 Q1098.7791,289.923 1098.3306,290.1527 Q1097.8931,290.3824 1097.5431,290.9074 Q1097.2041,291.4324 1097.2041,292.1543 L1097.2041,292.9199 Q1097.2041,293.784 1097.8275,294.3637 Q1098.4509,294.9324 1099.5666,294.9324 Q1100.2228,294.9324 1100.6822,294.7574 Q1100.9556,294.648 1101.2509,294.3418 Q1101.4369,294.1559 1101.5353,294.1012 Q1101.6447,294.0465 1101.7869,294.0465 Q1102.0166,294.0465 1102.1916,294.2324 Q1102.3775,294.4074 1102.3775,294.648 Q1102.3775,294.8887 1102.1369,295.173 Q1101.7869,295.5777 1101.2291,295.8074 Q1100.4744,296.1246 1099.5666,296.1246 Q1098.5056,296.1246 1097.6634,295.6871 Q1096.9744,295.3371 1096.4931,294.5934 Q1096.0119,293.8387 1096.0119,292.9418 L1096.0119,292.1324 Q1096.0119,291.2027 1096.4384,290.4043 Q1096.8759,289.5949 1097.6416,289.1684 Q1098.4072,288.7309 1099.2712,288.7309 Q1099.7853,288.7309 1100.2337,288.8512 Q1100.6931,288.9605 1101.0759,289.2121 Z " fill="#000000"/><text fill="#000000" font-family="sans-serif" font-size="8.4" font-style="italic" lengthAdjust="spacing" textLength="30.1" x="1110.76" y="283.474">&#171;entity&#187;</text><text fill="#000000" font-family="sans-serif" font-size="8.4" font-style="italic" lengthAdjust="spacing" textLength="24.5" x="1113.56" y="294.6467">&#171;root&#187;</text><text fill="#000000" font-family="sans-serif" font-size="9.8" lengthAdjust="spacing" textLength="19.6" x="1116.01" y="307.3301">Dish</text><line style="stroke:#181818;stroke-width:0.3499999999999999;" x1="1074.85" x2="1155.35" y1="313.2896" y2="313.2896"/><text fill="#000000" font-family="sans-serif" font-size="9.8" lengthAdjust="spacing" textLength="73.5" x="1078.35" y="326.6648">-active : boolean</text><line style="stroke:#181818;stroke-width:0.3499999999999999;" x1="1074.85" x2="1155.35" y1="331.9244" y2="331.9244"/></g><!--class DishType--><g id="elem_DishType"><rect codeLine="42" fill="#F1F1F1" height="36.8074" id="DishType" rx="1.75" ry="1.75" style="stroke:#181818;stroke-width:0.3499999999999999;" width="76.3" x="923.65" y="385.7096"/><ellipse cx="934.15" cy="401.3133" fill="#ADD1B2" rx="7.7" ry="7.7" style="stroke:#181818;stroke-width:0.6999999999999998;"/><path d="M936.0859,398.4258 Q936.1953,398.2727 936.3266,398.1961 Q936.4578,398.1195 936.6109,398.1195 Q936.8734,398.1195 937.0375,398.3055 Q937.2016,398.4805 937.2016,398.907 L937.2016,399.9242 Q937.2016,400.3508 937.0375,400.5367 Q936.8734,400.7227 936.6109,400.7227 Q936.3703,400.7227 936.2281,400.5805 Q936.0859,400.4492 936.0094,400.0883 Q935.9766,399.8367 935.8453,399.7055 Q935.6156,399.443 935.1891,399.2898 Q934.7625,399.1367 934.325,399.1367 Q933.7891,399.1367 933.3406,399.3664 Q932.9031,399.5961 932.5531,400.1211 Q932.2141,400.6461 932.2141,401.368 L932.2141,402.1336 Q932.2141,402.9977 932.8375,403.5773 Q933.4609,404.1461 934.5766,404.1461 Q935.2328,404.1461 935.6922,403.9711 Q935.9656,403.8617 936.2609,403.5555 Q936.4469,403.3695 936.5453,403.3148 Q936.6547,403.2602 936.7969,403.2602 Q937.0266,403.2602 937.2016,403.4461 Q937.3875,403.6211 937.3875,403.8617 Q937.3875,404.1023 937.1469,404.3867 Q936.7969,404.7914 936.2391,405.0211 Q935.4844,405.3383 934.5766,405.3383 Q933.5156,405.3383 932.6734,404.9008 Q931.9844,404.5508 931.5031,403.807 Q931.0219,403.0523 931.0219,402.1555 L931.0219,401.3461 Q931.0219,400.4164 931.4484,399.618 Q931.8859,398.8086 932.6516,398.382 Q933.4172,397.9445 934.2812,397.9445 Q934.7953,397.9445 935.2437,398.0648 Q935.7031,398.1742 936.0859,398.4258 Z " fill="#000000"/><text fill="#000000" font-family="sans-serif" font-size="8.4" font-style="italic" lengthAdjust="spacing" textLength="56.7" x="942.55" y="398.274">&#171;value object&#187;</text><text fill="#000000" font-family="sans-serif" font-size="9.8" lengthAdjust="spacing" textLength="42" x="949.9" y="410.9574">DishType</text><line style="stroke:#181818;stroke-width:0.3499999999999999;" x1="924.35" x2="999.25" y1="416.917" y2="416.917"/></g><!--class Description--><g id="elem_Description"><rect codeLine="45" fill="#F1F1F1" height="36.8074" id="Description" rx="1.75" ry="1.75" style="stroke:#181818;stroke-width:0.3499999999999999;" width="76.3" x="1024.45" y="385.7096"/><ellipse cx="1034.95" cy="401.3133" fill="#ADD1B2" rx="7.7" ry="7.7" style="stroke:#181818;stroke-width:0.6999999999999998;"/><path d="M1036.8859,398.4258 Q1036.9953,398.2727 1037.1266,398.1961 Q1037.2578,398.1195 1037.4109,398.1195 Q1037.6734,398.1195 1037.8375,398.3055 Q1038.0016,398.4805 1038.0016,398.907 L1038.0016,399.9242 Q1038.0016,400.3508 1037.8375,400.5367 Q1037.6734,400.7227 1037.4109,400.7227 Q1037.1703,400.7227 1037.0281,400.5805 Q1036.8859,400.4492 1036.8094,400.0883 Q1036.7766,399.8367 1036.6453,399.7055 Q1036.4156,399.443 1035.9891,399.2898 Q1035.5625,399.1367 1035.125,399.1367 Q1034.5891,399.1367 1034.1406,399.3664 Q1033.7031,399.5961 1033.3531,400.1211 Q1033.0141,400.6461 1033.0141,401.368 L1033.0141,402.1336 Q1033.0141,402.9977 1033.6375,403.5773 Q1034.2609,404.1461 1035.3766,404.1461 Q1036.0328,404.1461 1036.4922,403.9711 Q1036.7656,403.8617 1037.0609,403.5555 Q1037.2469,403.3695 1037.3453,403.3148 Q1037.4547,403.2602 1037.5969,403.2602 Q1037.8266,403.2602 1038.0016,403.4461 Q1038.1875,403.6211 1038.1875,403.8617 Q1038.1875,404.1023 1037.9469,404.3867 Q1037.5969,404.7914 1037.0391,405.0211 Q1036.2844,405.3383 1035.3766,405.3383 Q1034.3156,405.3383 1033.4734,404.9008 Q1032.7844,404.5508 1032.3031,403.807 Q1031.8219,403.0523 1031.8219,402.1555 L1031.8219,401.3461 Q1031.8219,400.4164 1032.2484,399.618 Q1032.6859,398.8086 1033.4516,398.382 Q1034.2172,397.9445 1035.0812,397.9445 Q1035.5953,397.9445 1036.0437,398.0648 Q1036.5031,398.1742 1036.8859,398.4258 Z " fill="#000000"/><text fill="#000000" font-family="sans-serif" font-size="8.4" font-style="italic" lengthAdjust="spacing" textLength="56.7" x="1043.35" y="398.274">&#171;value object&#187;</text><text fill="#000000" font-family="sans-serif" font-size="9.8" lengthAdjust="spacing" textLength="49.7" x="1046.85" y="410.9574">Description</text><line style="stroke:#181818;stroke-width:0.3499999999999999;" x1="1025.15" x2="1100.05" y1="416.917" y2="416.917"/></g><!--class NutricionalInfo--><g id="elem_NutricionalInfo"><rect codeLine="48" fill="#F1F1F1" height="36.8074" id="NutricionalInfo" rx="1.75" ry="1.75" style="stroke:#181818;stroke-width:0.3499999999999999;" width="84.7" x="1125.25" y="385.7096"/><ellipse cx="1135.75" cy="401.3133" fill="#ADD1B2" rx="7.7" ry="7.7" style="stroke:#181818;stroke-width:0.6999999999999998;"/><path d="M1137.6859,398.4258 Q1137.7953,398.2727 1137.9266,398.1961 Q1138.0578,398.1195 1138.2109,398.1195 Q1138.4734,398.1195 1138.6375,398.3055 Q1138.8016,398.4805 1138.8016,398.907 L1138.8016,399.9242 Q1138.8016,400.3508 1138.6375,400.5367 Q1138.4734,400.7227 1138.2109,400.7227 Q1137.9703,400.7227 1137.8281,400.5805 Q1137.6859,400.4492 1137.6094,400.0883 Q1137.5766,399.8367 1137.4453,399.7055 Q1137.2156,399.443 1136.7891,399.2898 Q1136.3625,399.1367 1135.925,399.1367 Q1135.3891,399.1367 1134.9406,399.3664 Q1134.5031,399.5961 1134.1531,400.1211 Q1133.8141,400.6461 1133.8141,401.368 L1133.8141,402.1336 Q1133.8141,402.9977 1134.4375,403.5773 Q1135.0609,404.1461 1136.1766,404.1461 Q1136.8328,404.1461 1137.2922,403.9711 Q1137.5656,403.8617 1137.8609,403.5555 Q1138.0469,403.3695 1138.1453,403.3148 Q1138.2547,403.2602 1138.3969,403.2602 Q1138.6266,403.2602 1138.8016,403.4461 Q1138.9875,403.6211 1138.9875,403.8617 Q1138.9875,404.1023 1138.7469,404.3867 Q1138.3969,404.7914 1137.8391,405.0211 Q1137.0844,405.3383 1136.1766,405.3383 Q1135.1156,405.3383 1134.2734,404.9008 Q1133.5844,404.5508 1133.1031,403.807 Q1132.6219,403.0523 1132.6219,402.1555 L1132.6219,401.3461 Q1132.6219,400.4164 1133.0484,399.618 Q1133.4859,398.8086 1134.2516,398.382 Q1135.0172,397.9445 1135.8812,397.9445 Q1136.3953,397.9445 1136.8437,398.0648 Q1137.3031,398.1742 1137.6859,398.4258 Z " fill="#000000"/><text fill="#000000" font-family="sans-serif" font-size="8.4" font-style="italic" lengthAdjust="spacing" textLength="56.7" x="1148.35" y="398.274">&#171;value object&#187;</text><text fill="#000000" font-family="sans-serif" font-size="9.8" lengthAdjust="spacing" textLength="62.3" x="1145.55" y="410.9574">NutricionalInfo</text><line style="stroke:#181818;stroke-width:0.3499999999999999;" x1="1125.95" x2="1209.25" y1="416.917" y2="416.917"/></g><!--class Money--><g id="elem_Money"><rect codeLine="51" fill="#F1F1F1" height="36.8074" id="Money" rx="1.75" ry="1.75" style="stroke:#181818;stroke-width:0.3499999999999999;" width="76.3" x="1234.45" y="385.7096"/><ellipse cx="1244.95" cy="401.3133" fill="#ADD1B2" rx="7.7" ry="7.7" style="stroke:#181818;stroke-width:0.6999999999999998;"/><path d="M1246.8859,398.4258 Q1246.9953,398.2727 1247.1266,398.1961 Q1247.2578,398.1195 1247.4109,398.1195 Q1247.6734,398.1195 1247.8375,398.3055 Q1248.0016,398.4805 1248.0016,398.907 L1248.0016,399.9242 Q1248.0016,400.3508 1247.8375,400.5367 Q1247.6734,400.7227 1247.4109,400.7227 Q1247.1703,400.7227 1247.0281,400.5805 Q1246.8859,400.4492 1246.8094,400.0883 Q1246.7766,399.8367 1246.6453,399.7055 Q1246.4156,399.443 1245.9891,399.2898 Q1245.5625,399.1367 1245.125,399.1367 Q1244.5891,399.1367 1244.1406,399.3664 Q1243.7031,399.5961 1243.3531,400.1211 Q1243.0141,400.6461 1243.0141,401.368 L1243.0141,402.1336 Q1243.0141,402.9977 1243.6375,403.5773 Q1244.2609,404.1461 1245.3766,404.1461 Q1246.0328,404.1461 1246.4922,403.9711 Q1246.7656,403.8617 1247.0609,403.5555 Q1247.2469,403.3695 1247.3453,403.3148 Q1247.4547,403.2602 1247.5969,403.2602 Q1247.8266,403.2602 1248.0016,403.4461 Q1248.1875,403.6211 1248.1875,403.8617 Q1248.1875,404.1023 1247.9469,404.3867 Q1247.5969,404.7914 1247.0391,405.0211 Q1246.2844,405.3383 1245.3766,405.3383 Q1244.3156,405.3383 1243.4734,404.9008 Q1242.7844,404.5508 1242.3031,403.807 Q1241.8219,403.0523 1241.8219,402.1555 L1241.8219,401.3461 Q1241.8219,400.4164 1242.2484,399.618 Q1242.6859,398.8086 1243.4516,398.382 Q1244.2172,397.9445 1245.0812,397.9445 Q1245.5953,397.9445 1246.0437,398.0648 Q1246.5031,398.1742 1246.8859,398.4258 Z " fill="#000000"/><text fill="#000000" font-family="sans-serif" font-size="8.4" font-style="italic" lengthAdjust="spacing" textLength="56.7" x="1253.35" y="398.274">&#171;value object&#187;</text><text fill="#000000" font-family="sans-serif" font-size="9.8" lengthAdjust="spacing" textLength="29.4" x="1267" y="410.9574">Money</text><line style="stroke:#181818;stroke-width:0.3499999999999999;" x1="1235.15" x2="1310.05" y1="416.917" y2="416.917"/></g><!--class Designation--><g id="elem_Designation"><rect codeLine="54" fill="#F1F1F1" height="47.9801" id="Designation" rx="1.75" ry="1.75" style="stroke:#181818;stroke-width:0.3499999999999999;" width="76.3" x="1335.25" y="380.1096"/><ellipse cx="1345.75" cy="401.2996" fill="#ADD1B2" rx="7.7" ry="7.7" style="stroke:#181818;stroke-width:0.6999999999999998;"/><path d="M1347.6859,398.4121 Q1347.7953,398.259 1347.9266,398.1824 Q1348.0578,398.1059 1348.2109,398.1059 Q1348.4734,398.1059 1348.6375,398.2918 Q1348.8016,398.4668 1348.8016,398.8934 L1348.8016,399.9105 Q1348.8016,400.3371 1348.6375,400.523 Q1348.4734,400.709 1348.2109,400.709 Q1347.9703,400.709 1347.8281,400.5668 Q1347.6859,400.4355 1347.6094,400.0746 Q1347.5766,399.823 1347.4453,399.6918 Q1347.2156,399.4293 1346.7891,399.2762 Q1346.3625,399.123 1345.925,399.123 Q1345.3891,399.123 1344.9406,399.3527 Q1344.5031,399.5824 1344.1531,400.1074 Q1343.8141,400.6324 1343.8141,401.3543 L1343.8141,402.1199 Q1343.8141,402.984 1344.4375,403.5637 Q1345.0609,404.1324 1346.1766,404.1324 Q1346.8328,404.1324 1347.2922,403.9574 Q1347.5656,403.848 1347.8609,403.5418 Q1348.0469,403.3559 1348.1453,403.3012 Q1348.2547,403.2465 1348.3969,403.2465 Q1348.6266,403.2465 1348.8016,403.4324 Q1348.9875,403.6074 1348.9875,403.848 Q1348.9875,404.0887 1348.7469,404.373 Q1348.3969,404.7777 1347.8391,405.0074 Q1347.0844,405.3246 1346.1766,405.3246 Q1345.1156,405.3246 1344.2734,404.8871 Q1343.5844,404.5371 1343.1031,403.7934 Q1342.6219,403.0387 1342.6219,402.1418 L1342.6219,401.3324 Q1342.6219,400.4027 1343.0484,399.6043 Q1343.4859,398.7949 1344.2516,398.3684 Q1345.0172,397.9309 1345.8812,397.9309 Q1346.3953,397.9309 1346.8437,398.0512 Q1347.3031,398.1605 1347.6859,398.4121 Z " fill="#000000"/><text fill="#000000" font-family="sans-serif" font-size="8.4" font-style="italic" lengthAdjust="spacing" textLength="56.7" x="1354.15" y="392.674">&#171;value object&#187;</text><text fill="#000000" font-family="sans-serif" font-size="8.4" font-style="italic" lengthAdjust="spacing" textLength="16.8" x="1374.1" y="403.8467">&#171;id&#187;</text><text fill="#000000" font-family="sans-serif" font-size="9.8" lengthAdjust="spacing" textLength="52.5" x="1356.25" y="416.5301">Designation</text><line style="stroke:#181818;stroke-width:0.3499999999999999;" x1="1335.95" x2="1410.85" y1="422.4896" y2="422.4896"/></g><!--class Booking--><g id="elem_Booking"><rect codeLine="65" fill="#F1F1F1" height="47.9801" id="Booking" rx="1.75" ry="1.75" style="stroke:#181818;stroke-width:0.3499999999999999;" width="58.1" x="241.15" y="30.1096"/><ellipse cx="251.65" cy="51.2996" fill="#ADD1B2" rx="7.7" ry="7.7" style="stroke:#181818;stroke-width:0.6999999999999998;"/><path d="M253.5859,48.4121 Q253.6953,48.259 253.8266,48.1824 Q253.9578,48.1059 254.1109,48.1059 Q254.3734,48.1059 254.5375,48.2918 Q254.7016,48.4668 254.7016,48.8934 L254.7016,49.9105 Q254.7016,50.3371 254.5375,50.523 Q254.3734,50.709 254.1109,50.709 Q253.8703,50.709 253.7281,50.5668 Q253.5859,50.4355 253.5094,50.0746 Q253.4766,49.823 253.3453,49.6918 Q253.1156,49.4293 252.6891,49.2762 Q252.2625,49.123 251.825,49.123 Q251.2891,49.123 250.8406,49.3527 Q250.4031,49.5824 250.0531,50.1074 Q249.7141,50.6324 249.7141,51.3543 L249.7141,52.1199 Q249.7141,52.984 250.3375,53.5637 Q250.9609,54.1324 252.0766,54.1324 Q252.7328,54.1324 253.1922,53.9574 Q253.4656,53.848 253.7609,53.5418 Q253.9469,53.3559 254.0453,53.3012 Q254.1547,53.2465 254.2969,53.2465 Q254.5266,53.2465 254.7016,53.4324 Q254.8875,53.6074 254.8875,53.848 Q254.8875,54.0887 254.6469,54.373 Q254.2969,54.7777 253.7391,55.0074 Q252.9844,55.3246 252.0766,55.3246 Q251.0156,55.3246 250.1734,54.8871 Q249.4844,54.5371 249.0031,53.7934 Q248.5219,53.0387 248.5219,52.1418 L248.5219,51.3324 Q248.5219,50.4027 248.9484,49.6043 Q249.3859,48.7949 250.1516,48.3684 Q250.9172,47.9309 251.7812,47.9309 Q252.2953,47.9309 252.7437,48.0512 Q253.2031,48.1605 253.5859,48.4121 Z " fill="#000000"/><text fill="#000000" font-family="sans-serif" font-size="8.4" font-style="italic" lengthAdjust="spacing" textLength="30.1" x="264.25" y="42.674">&#171;entity&#187;</text><text fill="#000000" font-family="sans-serif" font-size="8.4" font-style="italic" lengthAdjust="spacing" textLength="24.5" x="267.05" y="53.8467">&#171;root&#187;</text><text fill="#000000" font-family="sans-serif" font-size="9.8" lengthAdjust="spacing" textLength="35.7" x="261.45" y="66.5301">Booking</text><line style="stroke:#181818;stroke-width:0.3499999999999999;" x1="241.85" x2="298.55" y1="72.4896" y2="72.4896"/></g><!--class BookingStatus--><g id="elem_BookingStatus"><rect codeLine="68" fill="#F1F1F1" height="36.8074" id="BookingStatus" rx="1.75" ry="1.75" style="stroke:#181818;stroke-width:0.3499999999999999;" width="86.1" x="15.75" y="155.4096"/><ellipse cx="26.25" cy="171.0133" fill="#ADD1B2" rx="7.7" ry="7.7" style="stroke:#181818;stroke-width:0.6999999999999998;"/><path d="M28.1859,168.1258 Q28.2953,167.9727 28.4266,167.8961 Q28.5578,167.8195 28.7109,167.8195 Q28.9734,167.8195 29.1375,168.0055 Q29.3016,168.1805 29.3016,168.607 L29.3016,169.6242 Q29.3016,170.0508 29.1375,170.2367 Q28.9734,170.4227 28.7109,170.4227 Q28.4703,170.4227 28.3281,170.2805 Q28.1859,170.1492 28.1094,169.7883 Q28.0766,169.5367 27.9453,169.4055 Q27.7156,169.143 27.2891,168.9898 Q26.8625,168.8367 26.425,168.8367 Q25.8891,168.8367 25.4406,169.0664 Q25.0031,169.2961 24.6531,169.8211 Q24.3141,170.3461 24.3141,171.068 L24.3141,171.8336 Q24.3141,172.6977 24.9375,173.2773 Q25.5609,173.8461 26.6766,173.8461 Q27.3328,173.8461 27.7922,173.6711 Q28.0656,173.5617 28.3609,173.2555 Q28.5469,173.0695 28.6453,173.0148 Q28.7547,172.9602 28.8969,172.9602 Q29.1266,172.9602 29.3016,173.1461 Q29.4875,173.3211 29.4875,173.5617 Q29.4875,173.8023 29.2469,174.0867 Q28.8969,174.4914 28.3391,174.7211 Q27.5844,175.0383 26.6766,175.0383 Q25.6156,175.0383 24.7734,174.6008 Q24.0844,174.2508 23.6031,173.507 Q23.1219,172.7523 23.1219,171.8555 L23.1219,171.0461 Q23.1219,170.1164 23.5484,169.318 Q23.9859,168.5086 24.7516,168.082 Q25.5172,167.6445 26.3812,167.6445 Q26.8953,167.6445 27.3437,167.7648 Q27.8031,167.8742 28.1859,168.1258 Z " fill="#000000"/><text fill="#000000" font-family="sans-serif" font-size="8.4" font-style="italic" lengthAdjust="spacing" textLength="56.7" x="39.55" y="167.974">&#171;value object&#187;</text><text fill="#000000" font-family="sans-serif" font-size="9.8" lengthAdjust="spacing" textLength="63.7" x="36.05" y="180.6574">BookingStatus</text><line style="stroke:#181818;stroke-width:0.3499999999999999;" x1="16.45" x2="101.15" y1="186.617" y2="186.617"/></g><!--class Money--><g id="elem_Money"><rect codeLine="71" fill="#F1F1F1" height="36.8074" id="Money" rx="1.75" ry="1.75" style="stroke:#181818;stroke-width:0.3499999999999999;" width="76.3" x="126.35" y="155.4096"/><ellipse cx="136.85" cy="171.0133" fill="#ADD1B2" rx="7.7" ry="7.7" style="stroke:#181818;stroke-width:0.6999999999999998;"/><path d="M138.7859,168.1258 Q138.8953,167.9727 139.0266,167.8961 Q139.1578,167.8195 139.3109,167.8195 Q139.5734,167.8195 139.7375,168.0055 Q139.9016,168.1805 139.9016,168.607 L139.9016,169.6242 Q139.9016,170.0508 139.7375,170.2367 Q139.5734,170.4227 139.3109,170.4227 Q139.0703,170.4227 138.9281,170.2805 Q138.7859,170.1492 138.7094,169.7883 Q138.6766,169.5367 138.5453,169.4055 Q138.3156,169.143 137.8891,168.9898 Q137.4625,168.8367 137.025,168.8367 Q136.4891,168.8367 136.0406,169.0664 Q135.6031,169.2961 135.2531,169.8211 Q134.9141,170.3461 134.9141,171.068 L134.9141,171.8336 Q134.9141,172.6977 135.5375,173.2773 Q136.1609,173.8461 137.2766,173.8461 Q137.9328,173.8461 138.3922,173.6711 Q138.6656,173.5617 138.9609,173.2555 Q139.1469,173.0695 139.2453,173.0148 Q139.3547,172.9602 139.4969,172.9602 Q139.7266,172.9602 139.9016,173.1461 Q140.0875,173.3211 140.0875,173.5617 Q140.0875,173.8023 139.8469,174.0867 Q139.4969,174.4914 138.9391,174.7211 Q138.1844,175.0383 137.2766,175.0383 Q136.2156,175.0383 135.3734,174.6008 Q134.6844,174.2508 134.2031,173.507 Q133.7219,172.7523 133.7219,171.8555 L133.7219,171.0461 Q133.7219,170.1164 134.1484,169.318 Q134.5859,168.5086 135.3516,168.082 Q136.1172,167.6445 136.9812,167.6445 Q137.4953,167.6445 137.9437,167.7648 Q138.4031,167.8742 138.7859,168.1258 Z " fill="#000000"/><text fill="#000000" font-family="sans-serif" font-size="8.4" font-style="italic" lengthAdjust="spacing" textLength="56.7" x="145.25" y="167.974">&#171;value object&#187;</text><text fill="#000000" font-family="sans-serif" font-size="9.8" lengthAdjust="spacing" textLength="29.4" x="158.9" y="180.6574">Money</text><line style="stroke:#181818;stroke-width:0.3499999999999999;" x1="127.05" x2="201.95" y1="186.617" y2="186.617"/></g><!--class BookingToken--><g id="elem_BookingToken"><rect codeLine="74" fill="#F1F1F1" height="47.9801" id="BookingToken" rx="1.75" ry="1.75" style="stroke:#181818;stroke-width:0.3499999999999999;" width="86.1" x="227.15" y="149.8096"/><ellipse cx="237.65" cy="170.9996" fill="#ADD1B2" rx="7.7" ry="7.7" style="stroke:#181818;stroke-width:0.6999999999999998;"/><path d="M239.5859,168.1121 Q239.6953,167.959 239.8266,167.8824 Q239.9578,167.8059 240.1109,167.8059 Q240.3734,167.8059 240.5375,167.9918 Q240.7016,168.1668 240.7016,168.5934 L240.7016,169.6105 Q240.7016,170.0371 240.5375,170.223 Q240.3734,170.409 240.1109,170.409 Q239.8703,170.409 239.7281,170.2668 Q239.5859,170.1355 239.5094,169.7746 Q239.4766,169.523 239.3453,169.3918 Q239.1156,169.1293 238.6891,168.9762 Q238.2625,168.823 237.825,168.823 Q237.2891,168.823 236.8406,169.0527 Q236.4031,169.2824 236.0531,169.8074 Q235.7141,170.3324 235.7141,171.0543 L235.7141,171.8199 Q235.7141,172.684 236.3375,173.2637 Q236.9609,173.8324 238.0766,173.8324 Q238.7328,173.8324 239.1922,173.6574 Q239.4656,173.548 239.7609,173.2418 Q239.9469,173.0559 240.0453,173.0012 Q240.1547,172.9465 240.2969,172.9465 Q240.5266,172.9465 240.7016,173.1324 Q240.8875,173.3074 240.8875,173.548 Q240.8875,173.7887 240.6469,174.073 Q240.2969,174.4777 239.7391,174.7074 Q238.9844,175.0246 238.0766,175.0246 Q237.0156,175.0246 236.1734,174.5871 Q235.4844,174.2371 235.0031,173.4934 Q234.5219,172.7387 234.5219,171.8418 L234.5219,171.0324 Q234.5219,170.1027 234.9484,169.3043 Q235.3859,168.4949 236.1516,168.0684 Q236.9172,167.6309 237.7812,167.6309 Q238.2953,167.6309 238.7437,167.7512 Q239.2031,167.8605 239.5859,168.1121 Z " fill="#000000"/><text fill="#000000" font-family="sans-serif" font-size="8.4" font-style="italic" lengthAdjust="spacing" textLength="56.7" x="250.95" y="162.374">&#171;value object&#187;</text><text fill="#000000" font-family="sans-serif" font-size="8.4" font-style="italic" lengthAdjust="spacing" textLength="16.8" x="270.9" y="173.5467">&#171;id&#187;</text><text fill="#000000" font-family="sans-serif" font-size="9.8" lengthAdjust="spacing" textLength="63.7" x="247.45" y="186.2301">BookingToken</text><line style="stroke:#181818;stroke-width:0.3499999999999999;" x1="227.85" x2="312.55" y1="192.1896" y2="192.1896"/></g><!--link CafeteriaUser to Role--><g id="link_CafeteriaUser_Role"><path codeLine="15" d="M394.156,198.2846 C393.47,223.4846 392.521,258.6401 391.898,281.3831 " fill="none" id="CafeteriaUser-to-Role" style="stroke:#181818;stroke-width:0.6999999999999998;"/><polygon fill="#181818" points="391.783,285.5816,394.7545,279.3606,391.8788,282.0829,389.1566,279.2073,391.783,285.5816" style="stroke:#181818;stroke-width:0.6999999999999998;"/><text fill="#000000" font-family="sans-serif" font-size="9.1" lengthAdjust="spacing" textLength="4.9" x="386.4035" y="277.5832">1</text></g><!--link CafeteriaUser to MecanographicNumber--><g id="link_CafeteriaUser_MecanographicNumber"><path codeLine="16" d="M417.137,198.2846 C439.117,221.5246 469.5862,253.746 491.5172,276.937 " fill="none" id="CafeteriaUser-to-MecanographicNumber" style="stroke:#181818;stroke-width:0.6999999999999998;"/><polygon fill="#181818" points="494.403,279.9886,492.1087,273.4873,491.9982,277.4456,488.0399,277.335,494.403,279.9886" style="stroke:#181818;stroke-width:0.6999999999999998;"/><text fill="#000000" font-family="sans-serif" font-size="9.1" lengthAdjust="spacing" textLength="4.9" x="484.8047" y="272.2165">1</text></g><!--link Meal to MealID--><g id="link_Meal_MealID"><path codeLine="32" d="M768.432,198.2846 C785.484,221.5246 808.8783,253.4114 825.8953,276.6024 " fill="none" id="Meal-to-MealID" style="stroke:#181818;stroke-width:0.6999999999999998;"/><polygon fill="#181818" points="828.38,279.9886,826.9104,273.2528,826.3094,277.1667,822.3955,276.5658,828.38,279.9886" style="stroke:#181818;stroke-width:0.6999999999999998;"/><text fill="#000000" font-family="sans-serif" font-size="9.1" lengthAdjust="spacing" textLength="4.9" x="819.7304" y="272.2165">1</text></g><!--link Meal to MealType--><g id="link_Meal_MealType"><path codeLine="33" d="M733.768,198.2846 C715.281,223.4846 688.8907,259.4524 672.2027,282.1954 " fill="none" id="Meal-to-MealType" style="stroke:#181818;stroke-width:0.6999999999999998;"/><polygon fill="#181818" points="669.718,285.5816,675.7025,282.1587,671.7886,282.7597,671.1875,278.8458,669.718,285.5816" style="stroke:#181818;stroke-width:0.6999999999999998;"/><text fill="#000000" font-family="sans-serif" font-size="9.1" lengthAdjust="spacing" textLength="4.9" x="667.4183" y="277.5832">1</text></g><!--link Meal to Calender--><g id="link_Meal_Calender"><path codeLine="34" d="M751.1,198.2846 C751.1,225.2276 751.1,264.1476 751.1,285.8546 " fill="none" id="Meal-to-Calender" style="stroke:#181818;stroke-width:0.6999999999999998;"/><polygon fill="#181818" points="751.1,290.0546,753.9,283.7546,751.1,286.5546,748.3,283.7546,751.1,290.0546" style="stroke:#181818;stroke-width:0.6999999999999998;"/><text fill="#000000" font-family="sans-serif" font-size="9.1" lengthAdjust="spacing" textLength="4.9" x="745.5109" y="282.3626">1</text></g><!--link Dish to Designation--><g id="link_Dish_Designation"><path codeLine="57" d="M1156.141,318.5166 C1198.372,332.8526 1265.873,356.5336 1323,380.1096 C1326.927,381.7266 1327.1493,381.7772 1331.1953,383.5762 " fill="none" id="Dish-to-Designation" style="stroke:#181818;stroke-width:0.6999999999999998;"/><polygon fill="#181818" points="1335.033,385.2826,1330.414,380.1645,1331.8349,383.8606,1328.1388,385.2815,1335.033,385.2826" style="stroke:#181818;stroke-width:0.6999999999999998;"/><text fill="#000000" font-family="sans-serif" font-size="9.1" lengthAdjust="spacing" textLength="4.9" x="1324.6482" y="379.888">1</text></g><!--link Dish to NutricionalInfo--><g id="link_Dish_NutricionalInfo"><path codeLine="58" d="M1132.439,337.4516 C1140.979,353.5096 1148.9741,368.5478 1156.1141,381.9668 " fill="none" id="Dish-to-NutricionalInfo" style="stroke:#181818;stroke-width:0.6999999999999998;"/><polygon fill="#181818" points="1158.087,385.6746,1157.5996,378.7976,1156.443,382.5847,1152.6558,381.4281,1158.087,385.6746" style="stroke:#181818;stroke-width:0.6999999999999998;"/><text fill="#000000" font-family="sans-serif" font-size="9.1" lengthAdjust="spacing" textLength="4.9" x="1150.271" y="377.6745">1</text></g><!--link Dish to Money--><g id="link_Dish_Money"><path codeLine="59" d="M1156.071,330.5356 C1183.686,347.8396 1215.869,368.0095 1240.446,383.4095 " fill="none" id="Dish-to-Money" style="stroke:#181818;stroke-width:0.6999999999999998;"/><polygon fill="#181818" points="1244.005,385.6396,1240.1532,379.9217,1241.0391,383.7812,1237.1797,384.6671,1244.005,385.6396" style="stroke:#181818;stroke-width:0.6999999999999998;"/><text fill="#000000" font-family="sans-serif" font-size="9.1" lengthAdjust="spacing" textLength="4.9" x="1231.9258" y="377.935">1</text></g><!--link Dish to Description--><g id="link_Dish_Description"><path codeLine="60" d="M1097.761,337.4516 C1089.221,353.5096 1081.2259,368.5478 1074.0859,381.9668 " fill="none" id="Dish-to-Description" style="stroke:#181818;stroke-width:0.6999999999999998;"/><polygon fill="#181818" points="1072.113,385.6746,1077.5442,381.4281,1073.757,382.5847,1072.6004,378.7976,1072.113,385.6746" style="stroke:#181818;stroke-width:0.6999999999999998;"/><text fill="#000000" font-family="sans-serif" font-size="9.1" lengthAdjust="spacing" textLength="4.9" x="1068.9346" y="377.6745">1</text></g><!--link Dish to DishType--><g id="link_Dish_DishType"><path codeLine="61" d="M1074.017,331.3126 C1047.326,348.4976 1016.7604,368.1761 993.1984,383.3451 " fill="none" id="Dish-to-DishType" style="stroke:#181818;stroke-width:0.6999999999999998;"/><polygon fill="#181818" points="989.667,385.6186,996.4798,384.5626,992.6099,383.724,993.4485,379.854,989.667,385.6186" style="stroke:#181818;stroke-width:0.6999999999999998;"/><text fill="#000000" font-family="sans-serif" font-size="9.1" lengthAdjust="spacing" textLength="4.9" x="990.6447" y="377.9091">1</text></g><!--link Booking to BookingToken--><g id="link_Booking_BookingToken"><path codeLine="77" d="M270.2,78.6126 C270.2,99.2486 270.2,124.8266 270.2,145.4486 " fill="none" id="Booking-to-BookingToken" style="stroke:#181818;stroke-width:0.6999999999999998;"/><polygon fill="#181818" points="270.2,149.6486,273,143.3486,270.2,146.1486,267.4,143.3486,270.2,149.6486" style="stroke:#181818;stroke-width:0.6999999999999998;"/><text fill="#000000" font-family="sans-serif" font-size="9.1" lengthAdjust="spacing" textLength="4.9" x="264.833" y="141.8498">1</text></g><!--link Booking to BookingStatus--><g id="link_Booking_BookingStatus"><path codeLine="78" d="M240.905,63.0166 C208.215,72.8516 154.609,91.5486 114.1,118.3096 C98.63,128.5296 86.6604,140.4027 76.2864,152.1557 " fill="none" id="Booking-to-BookingStatus" style="stroke:#181818;stroke-width:0.6999999999999998;"/><polygon fill="#181818" points="73.507,155.3046,79.7753,152.4342,75.8231,152.6805,75.5768,148.7284,73.507,155.3046" style="stroke:#181818;stroke-width:0.6999999999999998;"/><text fill="#000000" font-family="sans-serif" font-size="9.1" lengthAdjust="spacing" textLength="4.9" x="71.4414" y="147.5919">1</text></g><!--link Booking to Money--><g id="link_Booking_Money"><path codeLine="79" d="M249.067,78.6126 C228.879,101.2016 201.7033,131.6205 183.3913,152.1165 " fill="none" id="Booking-to-Money" style="stroke:#181818;stroke-width:0.6999999999999998;"/><polygon fill="#181818" points="180.593,155.2486,186.8784,152.4161,182.9249,152.6385,182.7024,148.685,180.593,155.2486" style="stroke:#181818;stroke-width:0.6999999999999998;"/><text fill="#000000" font-family="sans-serif" font-size="9.1" lengthAdjust="spacing" textLength="4.9" x="178.8479" y="147.5229">1</text></g><!--link Meal to Dish--><g id="link_Meal_Dish"><path codeLine="82" d="M776.118,183.5146 C837.879,205.3686 994.0936,260.6395 1070.0366,287.5125 " fill="none" id="Meal-to-Dish" style="stroke:#181818;stroke-width:0.6999999999999998;"/><polygon fill="#181818" points="1073.996,288.9136,1068.9909,284.1724,1070.6965,287.746,1067.1228,289.4516,1073.996,288.9136" style="stroke:#181818;stroke-width:0.6999999999999998;"/><text fill="#000000" font-family="sans-serif" font-size="9.1" lengthAdjust="spacing" textLength="34.3" x="911.4" y="231.0294">contains</text><text fill="#000000" font-family="sans-serif" font-size="9.1" lengthAdjust="spacing" textLength="3.5" x="781.6389" y="182.2319">*</text><text fill="#000000" font-family="sans-serif" font-size="9.1" lengthAdjust="spacing" textLength="4.9" x="1063.5156" y="284.1234">1</text></g><!--link Booking to Meal--><g id="link_Booking_Meal"><path codeLine="83" d="M299.39,59.3976 C355.999,68.3086 484.428,89.9456 590.1,118.3096 C639.023,131.4416 690.725,150.1472 722.12,162.0542 " fill="none" id="Booking-to-Meal" style="stroke:#181818;stroke-width:0.6999999999999998;"/><polygon fill="#181818" points="726.047,163.5436,721.1494,158.6915,722.7745,162.3024,719.1635,163.9275,726.047,163.5436" style="stroke:#181818;stroke-width:0.6999999999999998;"/><text fill="#000000" font-family="sans-serif" font-size="9.1" lengthAdjust="spacing" textLength="33.6" x="565.6" y="109.9294">reserves</text><text fill="#000000" font-family="sans-serif" font-size="9.1" lengthAdjust="spacing" textLength="3.5" x="304.9012" y="57.2194">*</text><text fill="#000000" font-family="sans-serif" font-size="9.1" lengthAdjust="spacing" textLength="4.9" x="715.7323" y="158.2929">1</text></g><!--link Booking to CafeteriaUser--><g id="link_Booking_CafeteriaUser"><path codeLine="84" d="M295.113,78.6126 C316.848,99.2486 345.1621,126.1348 366.8831,146.7568 " fill="none" id="Booking-to-CafeteriaUser" style="stroke:#181818;stroke-width:0.6999999999999998;"/><polygon fill="#181818" points="369.929,149.6486,367.288,143.2803,367.3907,147.2387,363.4323,147.3415,369.929,149.6486" style="stroke:#181818;stroke-width:0.6999999999999998;"/><text fill="#000000" font-family="sans-serif" font-size="9.1" lengthAdjust="spacing" textLength="41.3" x="329.7" y="109.9294">belongsTo</text><text fill="#000000" font-family="sans-serif" font-size="9.1" lengthAdjust="spacing" textLength="3.5" x="295.4494" y="93.4947">*</text><text fill="#000000" font-family="sans-serif" font-size="9.1" lengthAdjust="spacing" textLength="4.9" x="359.8209" y="141.8498">1</text></g><!--SRC=[hPInRiCW48PtdW9vh1IfNICKgKsM3idGf0zm9XT2uu05E99RvTsBYQtQCR4OocJT_NVyVFYm9wbAC72cl01hNvqpCgySldEjjl8RwJCvoZrIF9Ukfj2bBI4by1C8f1bZ88H10GuN2xg40peq4Zujcep-4EfNw3rCKSPGEUbgNyEOqThvZvlwIdf57xf0BxX0KI7L-HVo1y8rSb1Q62YFac-gSnxskAjZJExlouUsPhC5pLwoiEz4Eh8RkJw4iaOeXYoQI2g2HhkhopGCIoXGxRtJ1utULsbKWi6_qpQ5yNZZR9pfR4n0MKbx749f8XDGcZK3xkG5wPpcsjyGgF4fcox9k5PekP6barebwJULdm3krHw8EkYqFrChh5FTIA4WxYPsIu5OnxnNFKxU6HyBWijeqmvG9DcYdhZbDwtz4oE65zq6KmUWbMyTkCh-C_AszqwVC95vPxw3qEym9RZPZofkx7t_C4FPKpOWx7zs_nexaCgIhhAl2KLpQj0_K1UCQuQlc9yUBBGITgV9Bm00]--></g></svg>