<?xml version="1.0" encoding="us-ascii" standalone="no"?><svg xmlns="http://www.w3.org/2000/svg" xmlns:xlink="http://www.w3.org/1999/xlink" contentStyleType="text/css" height="476.4px" preserveAspectRatio="none" style="width:578px;height:476px;background:#FFFFFF;" version="1.1" viewBox="0 0 578 476" width="578.4px" zoomAndPan="magnify"><defs/><g><polygon fill="#FFFFFF" points="147.9,72.9199,147.9,72.962,149.1,72.8371,150.3,72.9586,151.5,72.9999,152.7,72.7772,153.9,72.9199,153.8534,72.9199,153.6441,78.8689,153.6699,84.8179,153.8591,90.7669,153.4852,96.7158,154.2322,102.6648,153.5218,108.6138,153.7813,114.5628,154.1592,120.5118,153.8485,126.4608,153.9409,132.4097,153.8808,138.3587,154.0071,144.3077,154.0435,150.2567,154.2514,156.2057,154.3026,162.1546,154.3076,168.1036,154.0528,174.0526,154.1782,180.0016,154.3213,185.9506,153.4673,191.8996,154.3071,197.8485,153.7221,203.7975,154.2203,209.7465,153.603,215.6955,153.8589,221.6445,154.345,227.5934,153.8708,233.5424,153.9632,239.4914,154.1032,245.4404,154.1497,251.3894,153.8977,257.3384,154.0723,263.2873,153.5565,269.2363,154.0706,275.1853,154.2289,281.1343,154.1667,287.0833,154.2678,293.0322,153.6102,298.9812,153.5087,304.9302,153.5272,310.8792,153.8647,316.8282,153.7821,322.7771,154.3088,328.7261,153.7952,334.6751,153.6942,340.6241,154.037,346.5731,153.4999,352.5221,153.5885,358.471,154.2894,364.42,154.1614,370.369,154.3407,376.318,153.7069,382.267,154.0915,388.2159,154.2543,394.1649,153.6166,400.1139,153.9,406.0629,153.9,406.0437,152.7,406.0881,151.5,406.1932,150.3,406.0621,149.1,406.1554,147.9,406.0629,147.5677,406.0629,147.4936,400.1139,148.2022,394.1649,147.4698,388.2159,148.2054,382.267,148.024,376.318,147.7392,370.369,147.6877,364.42,148.1753,358.471,147.7204,352.5221,148.2551,346.5731,147.5684,340.6241,148.2705,334.6751,148.1906,328.7261,148.047,322.7771,147.9283,316.8282,148.336,310.8792,148.2681,304.9302,148.0016,298.9812,148.0609,293.0322,147.8218,287.0833,148.3299,281.1343,147.9929,275.1853,148.0035,269.2363,147.535,263.2873,147.6569,257.3384,148.2184,251.3894,148.1579,245.4404,147.8742,239.4914,147.7067,233.5424,147.7686,227.5934,147.4883,221.6445,148.1488,215.6955,148.3437,209.7465,148.2158,203.7975,148.317,197.8485,147.818,191.8996,147.9523,185.9506,147.6674,180.0016,148.0704,174.0526,148.0481,168.1036,148.2314,162.1546,147.7622,156.2057,147.8194,150.2567,148.1661,144.3077,148.2404,138.3587,147.5925,132.4097,147.7837,126.4608,147.9896,120.5118,147.5335,114.5628,148.112,108.6138,148.0548,102.6648,147.8395,96.7158,147.9853,90.7669,148.3372,84.8179,147.7123,78.8689,147.9,72.9199" style="stroke:#181818;stroke-width:0.6;"/><polygon fill="#FFFFFF" points="266.7,148.0184,266.7,148.0604,267.9,147.9355,269.1,148.057,270.3,148.0983,271.5,147.8757,272.7,148.0184,272.6534,148.0184,272.4441,154.0001,272.4699,159.9819,272.6591,165.9636,272.2852,171.9454,273.0322,177.9271,272.3218,183.9088,272.5813,189.8906,272.9592,195.8723,272.6485,201.8541,272.7409,207.8358,272.6808,213.8176,272.8071,219.7993,272.8435,225.7811,273.0514,231.7628,273.1026,237.7446,273.1076,243.7263,272.8528,249.7081,272.9782,255.6898,273.1213,261.6716,272.2673,267.6533,273.1071,273.6351,272.5221,279.6168,273.0203,285.5986,272.403,291.5803,272.6589,297.5621,273.145,303.5438,272.6708,309.5256,272.7632,315.5073,272.9032,321.4891,272.9497,327.4708,272.6977,333.4525,272.8723,339.4343,272.3565,345.416,272.8706,351.3978,273.0289,357.3795,272.9667,363.3613,273.0678,369.343,272.4102,375.3248,272.3087,381.3065,272.7,387.2883,272.7,387.164,271.5,387.2765,270.3,387.249,269.1,387.4246,267.9,387.2533,266.7,387.2883,266.4942,387.2883,266.837,381.3065,266.2999,375.3248,266.3885,369.343,267.0894,363.3613,266.9614,357.3795,267.1407,351.3978,266.5069,345.416,266.8915,339.4343,267.0543,333.4525,266.4166,327.4708,266.6425,321.4891,266.7756,315.5073,267.0911,309.5256,266.6975,303.5438,266.9775,297.5621,266.3677,291.5803,266.2936,285.5986,267.0022,279.6168,266.2698,273.6351,267.0054,267.6533,266.824,261.6716,266.5392,255.6898,266.4877,249.7081,266.9753,243.7263,266.5204,237.7446,267.0551,231.7628,266.3684,225.7811,267.0705,219.7993,266.9906,213.8176,266.847,207.8358,266.7283,201.8541,267.136,195.8723,267.0681,189.8906,266.8016,183.9088,266.8609,177.9271,266.6218,171.9454,267.1299,165.9636,266.7929,159.9819,266.8035,154.0001,266.7,148.0184" style="stroke:#181818;stroke-width:0.6;"/><polygon fill="#FFFFFF" points="376.5,199.5422,376.5,199.5842,377.7,199.4593,378.9,199.5808,380.1,199.6221,381.3,199.3995,382.5,199.5422,382.4534,199.5422,382.2441,205.4804,382.2699,211.4186,382.4591,217.3568,382.0852,223.295,382.8322,229.2332,382.1218,235.1714,382.3813,241.1096,382.7592,247.0478,382.4485,252.986,382.5409,258.9242,382.4808,264.8624,382.6071,270.8006,382.6435,276.7388,382.8514,282.677,382.5,288.6152,382.5,288.7494,381.3,288.7511,380.1,288.6662,378.9,288.708,377.7,288.7557,376.5,288.6152,376.0673,288.6152,376.9071,282.677,376.3221,276.7388,376.8203,270.8006,376.203,264.8624,376.4589,258.9242,376.945,252.986,376.4708,247.0478,376.5632,241.1096,376.7032,235.1714,376.7497,229.2332,376.4977,223.295,376.6723,217.3568,376.1565,211.4186,376.6706,205.4804,376.5,199.5422" style="stroke:#181818;stroke-width:0.6;"/><polygon fill="#FFFFFF" points="458.4,323.1645,458.4,323.2065,459.6,323.0816,460.8,323.2031,462,323.2444,463.2,323.0218,464.4,323.1645,464.3845,323.1645,464.3147,326.9194,464.3233,330.6743,464.3864,334.4292,464.2617,338.1841,464.4,341.9391,464.4,342.0498,463.2,341.813,462,341.8995,460.8,342.0255,459.6,341.9219,458.4,341.9391,458.4136,341.9391,458.3936,338.1841,458.4357,334.4292,458.4478,330.6743,458.5171,326.9194,458.4,323.1645" style="stroke:#181818;stroke-width:0.6;"/><polygon fill="#FFFFFF" points="537.6,251.066,537.6,251.1081,538.8,250.9832,540,251.1047,541.2,251.146,542.4,250.9233,543.6,251.066,543.5845,251.066,543.5147,254.8209,543.5233,258.5759,543.5864,262.3308,543.4617,266.0857,543.6,269.8406,543.6,269.9514,542.4,269.7146,541.2,269.8011,540,269.927,538.8,269.8235,537.6,269.8406,537.6136,269.8406,537.5936,266.0857,537.6357,262.3308,537.6478,258.5759,537.7171,254.8209,537.6,251.066" style="stroke:#181818;stroke-width:0.6;"/><polygon fill="none" points="200.1,297.6152,200.1,297.7413,206.0412,297.3666,211.9824,297.7312,217.9235,297.855,223.8647,297.1872,229.8059,297.5686,235.7471,297.3593,241.6882,297.3851,247.6294,297.5743,253.5706,297.2004,259.5118,297.9474,265.4529,297.2371,271.3941,297.4966,277.3353,297.8744,283.2765,297.5638,289.2176,297.6562,295.1588,297.5961,301.1,297.7224,307.0412,297.7587,312.9824,297.9666,318.9235,298.0179,324.8647,298.0228,330.8059,297.768,336.7471,297.8934,342.6882,298.0366,348.6294,297.1825,354.5706,298.0223,360.5118,297.4373,366.4529,297.9355,372.3941,297.3182,378.3353,297.5741,384.2765,298.0602,390.2176,297.586,396.1588,297.6784,402.1,297.8184,408.0412,297.865,413.9824,297.6129,419.9235,297.7876,425.8647,297.2718,431.8059,297.7859,437.7471,297.9442,443.6882,297.882,449.6294,297.983,455.5706,297.3254,461.5118,297.2239,467.4529,297.2424,473.3941,297.5799,479.3353,297.4973,485.2765,298.0241,491.2176,297.5104,497.1588,297.4094,503.1,297.6152,503.237,297.6152,502.6999,303.5734,502.7885,309.5316,503.4894,315.4898,503.3614,321.448,503.5407,327.4063,502.9069,333.3645,503.2915,339.3227,503.4543,345.2809,502.8166,351.2391,503.0425,357.1973,503.1756,363.1555,503.1,369.1137,503.1,369.5047,497.1588,369.1112,491.2176,369.3912,485.2765,368.7814,479.3353,368.7073,473.3941,369.4158,467.4529,368.6835,461.5118,369.419,455.5706,369.2376,449.6294,368.9529,443.6882,368.9014,437.7471,369.3889,431.8059,368.9341,425.8647,369.4688,419.9235,368.782,413.9824,369.4841,408.0412,369.4043,402.1,369.2607,396.1588,369.142,390.2176,369.5496,384.2765,369.4818,378.3353,369.2152,372.3941,369.2746,366.4529,369.0355,360.5118,369.5435,354.5706,369.2066,348.6294,369.2172,342.6882,368.7487,336.7471,368.8705,330.8059,369.4321,324.8647,369.3715,318.9235,369.0879,312.9824,368.9204,307.0412,368.9823,301.1,368.702,295.1588,369.3625,289.2176,369.5574,283.2765,369.4295,277.3353,369.5306,271.3941,369.0316,265.4529,369.166,259.5118,368.8811,253.5706,369.2841,247.6294,369.2617,241.6882,369.4451,235.7471,368.9759,229.8059,369.033,223.8647,369.3797,217.9235,369.4541,211.9824,368.8062,206.0412,368.9973,200.1,369.1137,200.1896,369.1137,199.7335,363.1555,200.312,357.1973,200.2548,351.2391,200.0395,345.2809,200.1853,339.3227,200.5372,333.3645,199.9123,327.4063,200.289,321.448,200.2714,315.4898,200.1695,309.5316,200.1846,303.5734,200.1,297.6152" style="stroke:#000000;stroke-width:0.8999999999999999;"/><path d="M35.4,52.9453 L35.5681,52.9453 L35.0685,58.9112 L35.5546,64.877 L35.7197,70.8429 L34.8293,76.8088 L35.3378,82.7746 L35.0588,88.7405 L35.0932,94.7063 L35.3455,100.6722 L34.8469,106.6381 L35.8429,112.6039 L34.8958,118.5698 L35.2418,124.5357 L35.7456,130.5015 L35.3314,136.4674 L35.4546,142.4332 L35.3744,148.3991 L35.5428,154.365 L35.5913,160.3308 L35.8686,166.2967 L35.9368,172.2626 L35.9434,178.2284 L35.6037,184.1943 L35.7709,190.1601 L35.9618,196.126 L34.8231,202.0919 L35.9428,208.0577 L35.1628,214.0236 L35.827,219.9894 L35.004,225.9553 L35.3452,231.9212 L35.9933,237.887 L35.361,243.8529 L35.4842,249.8188 L35.6709,255.7846 L35.733,261.7505 L35.3969,267.7163 L35.6298,273.6822 L34.9421,279.6481 L35.6275,285.6139 L35.8386,291.5798 L35.7556,297.5457 L35.8904,303.5115 L35.0135,309.4774 L34.8783,315.4432 L34.9029,321.4091 L35.3529,327.375 L35.2428,333.3408 L35.9451,339.3067 L35.2603,345.2725 L35.1256,351.2384 L35.5826,357.2043 L34.8665,363.1701 L34.9847,369.136 L35.9192,375.1019 L35.7485,381.0677 L35.9876,387.0336 L35.1426,392.9994 L35.6554,398.9653 L35.8723,404.9312 L35.0221,410.897 L35.4,416.8629 " fill="none" style="stroke:#181818;stroke-width:0.3;stroke-dasharray:5.0,5.0;"/><path d="M150.9,52.9453 L151.0681,52.9453 L150.5685,58.9112 L151.0546,64.877 L151.2197,70.8429 L150.3293,76.8088 L150.8378,82.7746 L150.5588,88.7405 L150.5932,94.7063 L150.8455,100.6722 L150.3469,106.6381 L151.3429,112.6039 L150.3958,118.5698 L150.7418,124.5357 L151.2456,130.5015 L150.8314,136.4674 L150.9546,142.4332 L150.8744,148.3991 L151.0428,154.365 L151.0913,160.3308 L151.3686,166.2967 L151.4368,172.2626 L151.4434,178.2284 L151.1037,184.1943 L151.2709,190.1601 L151.4618,196.126 L150.3231,202.0919 L151.4428,208.0577 L150.6628,214.0236 L151.327,219.9894 L150.504,225.9553 L150.8452,231.9212 L151.4933,237.887 L150.861,243.8529 L150.9842,249.8188 L151.1709,255.7846 L151.233,261.7505 L150.8969,267.7163 L151.1298,273.6822 L150.4421,279.6481 L151.1275,285.6139 L151.3386,291.5798 L151.2556,297.5457 L151.3904,303.5115 L150.5135,309.4774 L150.3783,315.4432 L150.4029,321.4091 L150.8529,327.375 L150.7428,333.3408 L151.4451,339.3067 L150.7603,345.2725 L150.6256,351.2384 L151.0826,357.2043 L150.3665,363.1701 L150.4847,369.136 L151.4192,375.1019 L151.2485,381.0677 L151.4876,387.0336 L150.6426,392.9994 L151.1554,398.9653 L151.3723,404.9312 L150.5221,410.897 L150.9,416.8629 " fill="none" style="stroke:#181818;stroke-width:0.3;stroke-dasharray:5.0,5.0;"/><path d="M269.7,52.9453 L269.8681,52.9453 L269.3685,58.9112 L269.8546,64.877 L270.0197,70.8429 L269.1293,76.8088 L269.6378,82.7746 L269.3588,88.7405 L269.3932,94.7063 L269.6455,100.6722 L269.1469,106.6381 L270.1429,112.6039 L269.1958,118.5698 L269.5418,124.5357 L270.0456,130.5015 L269.6314,136.4674 L269.7546,142.4332 L269.6744,148.3991 L269.8428,154.365 L269.8913,160.3308 L270.1686,166.2967 L270.2368,172.2626 L270.2434,178.2284 L269.9037,184.1943 L270.0709,190.1601 L270.2618,196.126 L269.1231,202.0919 L270.2428,208.0577 L269.4628,214.0236 L270.127,219.9894 L269.304,225.9553 L269.6452,231.9212 L270.2933,237.887 L269.661,243.8529 L269.7842,249.8188 L269.9709,255.7846 L270.033,261.7505 L269.6969,267.7163 L269.9298,273.6822 L269.2421,279.6481 L269.9275,285.6139 L270.1386,291.5798 L270.0556,297.5457 L270.1904,303.5115 L269.3135,309.4774 L269.1783,315.4432 L269.2029,321.4091 L269.6529,327.375 L269.5428,333.3408 L270.2451,339.3067 L269.5603,345.2725 L269.4256,351.2384 L269.8826,357.2043 L269.1665,363.1701 L269.2847,369.136 L270.2192,375.1019 L270.0485,381.0677 L270.2876,387.0336 L269.4426,392.9994 L269.9554,398.9653 L270.1723,404.9312 L269.3221,410.897 L269.7,416.8629 " fill="none" style="stroke:#181818;stroke-width:0.3;stroke-dasharray:5.0,5.0;"/><path d="M379.5,52.9453 L379.6681,52.9453 L379.1685,58.9112 L379.6546,64.877 L379.8197,70.8429 L378.9293,76.8088 L379.4378,82.7746 L379.1588,88.7405 L379.1932,94.7063 L379.4455,100.6722 L378.9469,106.6381 L379.9429,112.6039 L378.9958,118.5698 L379.3418,124.5357 L379.8456,130.5015 L379.4314,136.4674 L379.5546,142.4332 L379.4744,148.3991 L379.6428,154.365 L379.6913,160.3308 L379.9686,166.2967 L380.0368,172.2626 L380.0434,178.2284 L379.7037,184.1943 L379.8709,190.1601 L380.0618,196.126 L378.9231,202.0919 L380.0428,208.0577 L379.2628,214.0236 L379.927,219.9894 L379.104,225.9553 L379.4452,231.9212 L380.0933,237.887 L379.461,243.8529 L379.5842,249.8188 L379.7709,255.7846 L379.833,261.7505 L379.4969,267.7163 L379.7298,273.6822 L379.0421,279.6481 L379.7275,285.6139 L379.9386,291.5798 L379.8556,297.5457 L379.9904,303.5115 L379.1135,309.4774 L378.9783,315.4432 L379.0029,321.4091 L379.4529,327.375 L379.3428,333.3408 L380.0451,339.3067 L379.3603,345.2725 L379.2256,351.2384 L379.6826,357.2043 L378.9665,363.1701 L379.0847,369.136 L380.0192,375.1019 L379.8485,381.0677 L380.0876,387.0336 L379.2426,392.9994 L379.7554,398.9653 L379.9723,404.9312 L379.1221,410.897 L379.5,416.8629 " fill="none" style="stroke:#181818;stroke-width:0.3;stroke-dasharray:5.0,5.0;"/><path d="M461.1,52.9453 L461.2681,52.9453 L460.7685,58.9112 L461.2546,64.877 L461.4197,70.8429 L460.5293,76.8088 L461.0378,82.7746 L460.7588,88.7405 L460.7932,94.7063 L461.0455,100.6722 L460.5469,106.6381 L461.5429,112.6039 L460.5958,118.5698 L460.9418,124.5357 L461.4456,130.5015 L461.0314,136.4674 L461.1546,142.4332 L461.0744,148.3991 L461.2428,154.365 L461.2913,160.3308 L461.5686,166.2967 L461.6368,172.2626 L461.6434,178.2284 L461.3037,184.1943 L461.4709,190.1601 L461.6618,196.126 L460.5231,202.0919 L461.6428,208.0577 L460.8628,214.0236 L461.527,219.9894 L460.704,225.9553 L461.0452,231.9212 L461.6933,237.887 L461.061,243.8529 L461.1842,249.8188 L461.3709,255.7846 L461.433,261.7505 L461.0969,267.7163 L461.3298,273.6822 L460.6421,279.6481 L461.3275,285.6139 L461.5386,291.5798 L461.4556,297.5457 L461.5904,303.5115 L460.7135,309.4774 L460.5783,315.4432 L460.6029,321.4091 L461.0529,327.375 L460.9428,333.3408 L461.6451,339.3067 L460.9603,345.2725 L460.8256,351.2384 L461.2826,357.2043 L460.5665,363.1701 L460.6847,369.136 L461.6192,375.1019 L461.4485,381.0677 L461.6876,387.0336 L460.8426,392.9994 L461.3554,398.9653 L461.5723,404.9312 L460.7221,410.897 L461.1,416.8629 " fill="none" style="stroke:#181818;stroke-width:0.3;stroke-dasharray:5.0,5.0;"/><path d="M540.3,52.9453 L540.4681,52.9453 L539.9685,58.9112 L540.4546,64.877 L540.6197,70.8429 L539.7293,76.8088 L540.2378,82.7746 L539.9588,88.7405 L539.9932,94.7063 L540.2455,100.6722 L539.7469,106.6381 L540.7429,112.6039 L539.7958,118.5698 L540.1418,124.5357 L540.6456,130.5015 L540.2314,136.4674 L540.3546,142.4332 L540.2744,148.3991 L540.4428,154.365 L540.4913,160.3308 L540.7686,166.2967 L540.8368,172.2626 L540.8434,178.2284 L540.5037,184.1943 L540.6709,190.1601 L540.8618,196.126 L539.7231,202.0919 L540.8428,208.0577 L540.0628,214.0236 L540.727,219.9894 L539.904,225.9553 L540.2452,231.9212 L540.8933,237.887 L540.261,243.8529 L540.3842,249.8188 L540.5709,255.7846 L540.633,261.7505 L540.2969,267.7163 L540.5298,273.6822 L539.8421,279.6481 L540.5275,285.6139 L540.7386,291.5798 L540.6556,297.5457 L540.7904,303.5115 L539.9135,309.4774 L539.7783,315.4432 L539.8029,321.4091 L540.2529,327.375 L540.1428,333.3408 L540.8451,339.3067 L540.1603,345.2725 L540.0256,351.2384 L540.4826,357.2043 L539.7665,363.1701 L539.8847,369.136 L540.8192,375.1019 L540.6485,381.0677 L540.8876,387.0336 L540.0426,392.9994 L540.5554,398.9653 L540.7723,404.9312 L539.9221,410.897 L540.3,416.8629 " fill="none" style="stroke:#181818;stroke-width:0.3;stroke-dasharray:5.0,5.0;"/><text fill="#000000" font-family="FG Virgil" font-size="8.4" lengthAdjust="spacing" textLength="61.8" x="3" y="50.8371">KitchenManager</text><polygon fill="#E3E3E3" points="40.5265,12.0402,39.8229,13.0016,38.9907,14.4097,37.8005,15.3586,36.5498,15.8776,35.5525,15.9226,34.2708,15.2736,33.0614,14.8496,32.1434,13.9888,31.6619,13.0033,31.3764,12.2186,31.0966,11.1937,30.6425,10.3117,30.9915,9.4505,31.2972,8.5072,32.4444,7.7612,33.2515,6.7931,34.2506,6.4717,35.4382,6.1949,36.9613,6.3593,37.7955,6.7527,38.7653,6.9311,39.9446,8.1393,40.3557,9.4147,40.5343,10.285,40.332,11.7191" style="stroke:#181818;stroke-width:0.3;"/><path d="M35.7,15.6727 L35.8121,15.6727 L35.479,18.9127 L35.8031,22.1527 L35.9132,25.3927 L35.3195,28.6327 L35.7,31.8727 M27.9,20.4727 L27.9,20.4312 L31.02,20.2452 L34.14,20.2681 L37.26,20.4363 L40.38,20.1039 L43.5,20.4727 M35.7,31.8727 L35.9231,32.066 L33.886,33.4525 L32.5003,35.4036 L31.1941,37.4235 L29.4254,39.0427 L27.9,40.8727 M35.7,31.8727 L35.7275,31.8965 L37.2471,33.6615 L38.892,35.535 L40.4764,37.3562 L42.1761,39.2772 L43.5,40.8727 " fill="none" style="stroke:#181818;stroke-width:0.3;"/><text fill="#000000" font-family="FG Virgil" font-size="8.4" lengthAdjust="spacing" textLength="61.8" x="3" y="425.3273">KitchenManager</text><polygon fill="#E3E3E3" points="40.5265,433.7031,39.8229,434.6645,38.9907,436.0726,37.8005,437.0215,36.5498,437.5405,35.5525,437.5855,34.2708,436.9365,33.0614,436.5125,32.1434,435.6517,31.6619,434.6662,31.3764,433.8815,31.0966,432.8566,30.6425,431.9746,30.9915,431.1134,31.2972,430.1701,32.4444,429.424,33.2515,428.456,34.2506,428.1346,35.4382,427.8578,36.9613,428.0222,37.7955,428.4156,38.7653,428.594,39.9446,429.8022,40.3557,431.0776,40.5343,431.9479,40.332,433.382" style="stroke:#181818;stroke-width:0.3;"/><path d="M35.7,437.3355 L35.8121,437.3355 L35.479,440.5755 L35.8031,443.8155 L35.9132,447.0555 L35.3195,450.2955 L35.7,453.5355 M27.9,442.1355 L27.9,442.0941 L31.02,441.9081 L34.14,441.931 L37.26,442.0992 L40.38,441.7668 L43.5,442.1355 M35.7,453.5355 L35.9231,453.7289 L33.886,455.1154 L32.5003,457.0665 L31.1941,459.0864 L29.4254,460.7056 L27.9,462.5355 M35.7,453.5355 L35.7275,453.5594 L37.2471,455.3244 L38.892,457.1979 L40.4764,459.0191 L42.1761,460.9401 L43.5,462.5355 " fill="none" style="stroke:#181818;stroke-width:0.3;"/><polygon fill="#E3E3E3" points="103.8,21.6,103.8,21.7261,109.6875,21.3514,115.575,21.716,121.4625,21.8398,127.35,21.172,133.2375,21.5534,139.125,21.3441,145.0125,21.3699,150.9,21.5591,156.7875,21.1852,162.675,21.9322,168.5625,21.2218,174.45,21.4813,180.3375,21.8592,186.225,21.5485,192.1125,21.6409,198,21.6,197.9976,21.5941,198.2258,21.7209,198.4426,21.8199,198.6812,21.9718,198.8999,22.0755,199.0607,22.0393,199.1862,22.0913,199.1956,22.271,199.3221,22.4991,199.454,22.7295,199.2789,22.8327,199.5,23.1,199.9071,23.1,199.3221,28.6491,199.8203,34.1981,199.203,39.7472,199.4589,45.2963,199.5,50.8453,199.637,50.9021,199.4031,51.0537,199.3437,51.2776,199.299,51.5076,199.2254,51.7257,199.0607,51.906,199.0604,51.9053,198.8705,52.0469,198.5926,51.9759,198.446,52.2221,198.2541,52.3587,198,52.3453,198,52.612,192.1125,52.7131,186.225,52.0555,180.3375,51.954,174.45,51.9725,168.5625,52.31,162.675,52.2274,156.7875,52.7542,150.9,52.2405,145.0125,52.1395,139.125,52.4823,133.2375,51.9452,127.35,52.0338,121.4625,52.7347,115.575,52.6067,109.6875,52.786,103.8,52.3453,103.7754,52.2859,103.6123,52.3164,103.4209,52.2787,103.1274,51.9944,102.9441,51.9761,102.7393,51.906,102.7626,51.9156,102.7719,51.7437,102.5628,51.4814,102.5612,51.305,102.2855,51.0151,102.3,50.8453,101.8936,50.8453,102.6022,45.2963,101.8698,39.7472,102.6054,34.1981,102.424,28.6491,102.3,23.1,102.2505,23.0795,102.3225,22.8608,102.5605,22.7108,102.5083,22.4407,102.7608,22.2968,102.7393,22.0393,102.697,21.9372,102.9987,22.0656,103.2007,21.9531,103.3945,21.821,103.5915,21.6966,103.8,21.6" style="stroke:#181818;stroke-width:0.3;"/><text fill="#000000" font-family="FG Virgil" font-size="8.4" font-style="italic" lengthAdjust="spacing" textLength="57" x="122.4" y="34.8645">&#171;presentation&#187;</text><text fill="#000000" font-family="FG Virgil" font-size="8.4" lengthAdjust="spacing" textLength="88.8" x="106.5" y="46.0371">ConsultBookingMealsUI</text><polygon fill="#E3E3E3" points="103.8,416.2629,103.8,416.389,109.6875,416.0143,115.575,416.3789,121.4625,416.5027,127.35,415.8349,133.2375,416.2163,139.125,416.007,145.0125,416.0328,150.9,416.222,156.7875,415.8481,162.675,416.5951,168.5625,415.8847,174.45,416.1442,180.3375,416.5221,186.225,416.2114,192.1125,416.3038,198,416.2629,197.9976,416.257,198.2258,416.3837,198.4426,416.4828,198.6812,416.6347,198.8999,416.7384,199.0607,416.7022,199.1862,416.7542,199.1956,416.9339,199.3221,417.162,199.454,417.3924,199.2789,417.4956,199.5,417.7629,199.9071,417.7629,199.3221,423.312,199.8203,428.861,199.203,434.4101,199.4589,439.9591,199.5,445.5082,199.637,445.565,199.4031,445.7166,199.3437,445.9405,199.299,446.1705,199.2254,446.3886,199.0607,446.5689,199.0604,446.5681,198.8705,446.7098,198.5926,446.6388,198.446,446.885,198.2541,447.0216,198,447.0082,198,447.2749,192.1125,447.376,186.225,446.7184,180.3375,446.6169,174.45,446.6354,168.5625,446.9729,162.675,446.8903,156.7875,447.4171,150.9,446.9034,145.0125,446.8024,139.125,447.1452,133.2375,446.6081,127.35,446.6967,121.4625,447.3976,115.575,447.2696,109.6875,447.4489,103.8,447.0082,103.7754,446.9487,103.6123,446.9793,103.4209,446.9416,103.1274,446.6573,102.9441,446.639,102.7393,446.5689,102.7626,446.5785,102.7719,446.4066,102.5628,446.1443,102.5612,445.9679,102.2855,445.678,102.3,445.5082,101.8936,445.5082,102.6022,439.9591,101.8698,434.4101,102.6054,428.861,102.424,423.312,102.3,417.7629,102.2505,417.7424,102.3225,417.5237,102.5605,417.3737,102.5083,417.1036,102.7608,416.9597,102.7393,416.7022,102.697,416.6001,102.9987,416.7284,103.2007,416.616,103.3945,416.4839,103.5915,416.3595,103.8,416.2629" style="stroke:#181818;stroke-width:0.3;"/><text fill="#000000" font-family="FG Virgil" font-size="8.4" font-style="italic" lengthAdjust="spacing" textLength="57" x="122.4" y="429.5273">&#171;presentation&#187;</text><text fill="#000000" font-family="FG Virgil" font-size="8.4" lengthAdjust="spacing" textLength="88.8" x="106.5" y="440.7">ConsultBookingMealsUI</text><polygon fill="#E3E3E3" points="207.6,21.6,207.6,21.7261,213.5143,21.3514,219.4286,21.716,225.3429,21.8398,231.2571,21.172,237.1714,21.5534,243.0857,21.3441,249,21.3699,254.9143,21.5591,260.8286,21.1852,266.7429,21.9322,272.6571,21.2218,278.5714,21.4813,284.4857,21.8592,290.4,21.5485,296.3143,21.6409,302.2286,21.5808,308.1429,21.7071,314.0571,21.7435,319.9714,21.9514,325.8857,22.0026,331.8,21.6,331.852,21.7255,332.0316,21.7349,332.2597,21.8614,332.4901,21.9934,332.5933,21.8182,332.8607,22.0393,332.986,22.0913,332.8937,22.2288,333.135,22.5045,333.0328,22.6378,333.1995,22.8826,333.3,23.1,333.745,23.1,333.2708,28.6491,333.3632,34.1981,333.5032,39.7472,333.5497,45.2963,333.3,50.8453,333.2993,50.845,333.2652,51.0794,333.0185,51.2258,333.0889,51.5035,333.0498,51.7358,332.8607,51.906,332.8947,51.9881,332.6954,52.1071,332.3994,51.9924,332.1743,52.0491,331.9646,52.1426,331.8,52.3453,331.8,52.31,325.8857,52.2274,319.9714,52.7542,314.0571,52.2405,308.1429,52.1395,302.2286,52.4823,296.3143,51.9452,290.4,52.0338,284.4857,52.7347,278.5714,52.6067,272.6571,52.786,266.7429,52.1522,260.8286,52.5368,254.9143,52.6996,249,52.0619,243.0857,52.2878,237.1714,52.4209,231.2571,52.7364,225.3429,52.3428,219.4286,52.6229,213.5143,52.013,207.6,52.3453,207.5482,52.2202,207.4264,52.3505,207.1209,52.0371,207.0026,52.1758,206.7673,52.032,206.5393,51.906,206.4898,51.8855,206.3861,51.6668,206.4484,51.5168,206.2204,51.2467,206.2972,51.1027,206.1,50.8453,205.7684,50.8453,206.4705,45.2963,206.3906,39.7472,206.247,34.1981,206.1283,28.6491,206.1,23.1,206.2343,23.1556,206.3012,22.9348,206.307,22.6887,206.4132,22.4841,206.4274,22.2415,206.5393,22.0393,206.5942,22.1717,206.7633,21.9801,206.9768,21.8955,207.1292,21.6633,207.3569,21.613,207.6,21.6" style="stroke:#181818;stroke-width:0.3;"/><text fill="#000000" font-family="FG Virgil" font-size="8.4" font-style="italic" lengthAdjust="spacing" textLength="50.4" x="244.5" y="34.8645">&#171;application&#187;</text><text fill="#000000" font-family="FG Virgil" font-size="8.4" lengthAdjust="spacing" textLength="118.8" x="210.3" y="46.0371">ConsultBookingMealsController</text><polygon fill="#E3E3E3" points="207.6,416.2629,207.6,416.389,213.5143,416.0143,219.4286,416.3789,225.3429,416.5027,231.2571,415.8349,237.1714,416.2163,243.0857,416.007,249,416.0328,254.9143,416.222,260.8286,415.8481,266.7429,416.5951,272.6571,415.8847,278.5714,416.1442,284.4857,416.5221,290.4,416.2114,296.3143,416.3038,302.2286,416.2437,308.1429,416.37,314.0571,416.4064,319.9714,416.6143,325.8857,416.6655,331.8,416.2629,331.852,416.3884,332.0316,416.3978,332.2597,416.5243,332.4901,416.6563,332.5933,416.4811,332.8607,416.7022,332.986,416.7542,332.8937,416.8917,333.135,417.1674,333.0328,417.3007,333.1995,417.5455,333.3,417.7629,333.745,417.7629,333.2708,423.312,333.3632,428.861,333.5032,434.4101,333.5497,439.9591,333.3,445.5082,333.2993,445.5079,333.2652,445.7423,333.0185,445.8887,333.0889,446.1664,333.0498,446.3987,332.8607,446.5689,332.8947,446.651,332.6954,446.77,332.3994,446.6553,332.1743,446.712,331.9646,446.8055,331.8,447.0082,331.8,446.9729,325.8857,446.8903,319.9714,447.4171,314.0571,446.9034,308.1429,446.8024,302.2286,447.1452,296.3143,446.6081,290.4,446.6967,284.4857,447.3976,278.5714,447.2696,272.6571,447.4489,266.7429,446.8151,260.8286,447.1997,254.9143,447.3625,249,446.7248,243.0857,446.9507,237.1714,447.0838,231.2571,447.3993,225.3429,447.0057,219.4286,447.2857,213.5143,446.6759,207.6,447.0082,207.5482,446.8831,207.4264,447.0134,207.1209,446.7,207.0026,446.8386,206.7673,446.6949,206.5393,446.5689,206.4898,446.5484,206.3861,446.3297,206.4484,446.1797,206.2204,445.9096,206.2972,445.7656,206.1,445.5082,205.7684,445.5082,206.4705,439.9591,206.3906,434.4101,206.247,428.861,206.1283,423.312,206.1,417.7629,206.2343,417.8185,206.3012,417.5977,206.307,417.3516,206.4132,417.147,206.4274,416.9044,206.5393,416.7022,206.5942,416.8346,206.7633,416.643,206.9768,416.5584,207.1292,416.3262,207.3569,416.2759,207.6,416.2629" style="stroke:#181818;stroke-width:0.3;"/><text fill="#000000" font-family="FG Virgil" font-size="8.4" font-style="italic" lengthAdjust="spacing" textLength="50.4" x="244.5" y="429.5273">&#171;application&#187;</text><text fill="#000000" font-family="FG Virgil" font-size="8.4" lengthAdjust="spacing" textLength="118.8" x="210.3" y="440.7">ConsultBookingMealsController</text><polygon fill="#E3E3E3" points="340.8,21.6,340.8,21.7261,346.7538,21.3514,352.7077,21.716,358.6615,21.8398,364.6154,21.172,370.5692,21.5534,376.5231,21.3441,382.4769,21.3699,388.4308,21.5591,394.3846,21.1852,400.3385,21.9322,406.2923,21.2218,412.2462,21.4813,418.2,21.6,418.2331,21.6798,418.4056,21.672,418.6295,21.7883,418.834,21.8577,419.0622,21.9845,419.2607,22.0393,419.3048,22.0576,419.4567,22.2963,419.5604,22.515,419.6498,22.7277,419.6592,22.9074,419.7,23.1,419.9782,23.1,420.1213,28.6491,419.2673,34.1981,420.1071,39.7472,419.5221,45.2963,419.7,50.8453,419.7986,50.8862,419.5207,51.0196,419.5116,51.2643,419.5734,51.5385,419.3395,51.6901,419.2607,51.906,419.2687,51.9254,419.0744,52.0564,418.8683,52.1586,418.624,52.1689,418.4341,52.3105,418.2,52.3453,418.2,52.0019,412.2462,52.5159,406.2923,52.6742,400.3385,52.612,394.3846,52.7131,388.4308,52.0555,382.4769,51.954,376.5231,51.9725,370.5692,52.31,364.6154,52.2274,358.6615,52.7542,352.7077,52.2405,346.7538,52.1395,340.8,52.3453,340.8175,52.3875,340.5368,52.1342,340.336,52.0737,340.2133,52.2016,339.9848,52.0743,339.7393,51.906,339.8751,51.9622,339.592,51.6692,339.6226,51.5061,339.5848,51.3148,339.3006,51.0213,339.3,50.8453,339.2425,50.8453,339.3756,45.2963,339.6911,39.7472,339.2975,34.1981,339.5775,28.6491,339.3,23.1,339.1977,23.0576,339.2627,22.836,339.5688,22.7143,339.4311,22.4087,339.7455,22.2904,339.7393,22.0393,339.7552,22.0775,339.931,21.902,340.1365,21.7982,340.4108,21.8605,340.565,21.6326,340.8,21.6" style="stroke:#181818;stroke-width:0.3;"/><text fill="#000000" font-family="FG Virgil" font-size="8.4" font-style="italic" lengthAdjust="spacing" textLength="50.4" x="354.3" y="34.8645">&#171;application&#187;</text><text fill="#000000" font-family="FG Virgil" font-size="8.4" lengthAdjust="spacing" textLength="72" x="343.5" y="46.0371">ListBookingService</text><polygon fill="#E3E3E3" points="340.8,416.2629,340.8,416.389,346.7538,416.0143,352.7077,416.3789,358.6615,416.5027,364.6154,415.8349,370.5692,416.2163,376.5231,416.007,382.4769,416.0328,388.4308,416.222,394.3846,415.8481,400.3385,416.5951,406.2923,415.8847,412.2462,416.1442,418.2,416.2629,418.2331,416.3427,418.4056,416.3349,418.6295,416.4512,418.834,416.5206,419.0622,416.6473,419.2607,416.7022,419.3048,416.7205,419.4567,416.9592,419.5604,417.1779,419.6498,417.3906,419.6592,417.5702,419.7,417.7629,419.9782,417.7629,420.1213,423.312,419.2673,428.861,420.1071,434.4101,419.5221,439.9591,419.7,445.5082,419.7986,445.5491,419.5207,445.6824,419.5116,445.9272,419.5734,446.2014,419.3395,446.353,419.2607,446.5689,419.2687,446.5883,419.0744,446.7193,418.8683,446.8215,418.624,446.8317,418.4341,446.9734,418.2,447.0082,418.2,446.6648,412.2462,447.1788,406.2923,447.3371,400.3385,447.2749,394.3846,447.376,388.4308,446.7184,382.4769,446.6169,376.5231,446.6354,370.5692,446.9729,364.6154,446.8903,358.6615,447.4171,352.7077,446.9034,346.7538,446.8024,340.8,447.0082,340.8175,447.0504,340.5368,446.7971,340.336,446.7365,340.2133,446.8645,339.9848,446.7372,339.7393,446.5689,339.8751,446.6251,339.592,446.3321,339.6226,446.169,339.5848,445.9777,339.3006,445.6842,339.3,445.5082,339.2425,445.5082,339.3756,439.9591,339.6911,434.4101,339.2975,428.861,339.5775,423.312,339.3,417.7629,339.1977,417.7205,339.2627,417.4989,339.5688,417.3772,339.4311,417.0716,339.7455,416.9533,339.7393,416.7022,339.7552,416.7404,339.931,416.5649,340.1365,416.4611,340.4108,416.5234,340.565,416.2954,340.8,416.2629" style="stroke:#181818;stroke-width:0.3;"/><text fill="#000000" font-family="FG Virgil" font-size="8.4" font-style="italic" lengthAdjust="spacing" textLength="50.4" x="354.3" y="429.5273">&#171;application&#187;</text><text fill="#000000" font-family="FG Virgil" font-size="8.4" lengthAdjust="spacing" textLength="72" x="343.5" y="440.7">ListBookingService</text><polygon fill="#E3E3E3" points="427.2,21.6,427.2,21.7261,433.4182,21.3514,439.6364,21.716,445.8545,21.8398,452.0727,21.172,458.2909,21.5534,464.5091,21.3441,470.7273,21.3699,476.9455,21.5591,483.1636,21.1852,489.3818,21.9322,495.6,21.6,495.5518,21.4835,495.797,21.6513,496.0573,21.8555,496.2298,21.8478,496.4538,21.9641,496.6607,22.0393,496.6548,22.0369,496.7815,22.2651,496.8806,22.4819,497.0325,22.7206,497.1361,22.9392,497.1,23.1,497.5076,23.1,497.2528,28.6491,497.3782,34.1981,497.5213,39.7472,496.6673,45.2963,497.1,50.8453,497.2254,50.8972,496.9573,51.0348,497.0229,51.3104,496.7449,51.4438,496.7359,51.6886,496.6607,51.906,496.7174,52.043,496.4448,51.9848,496.2445,52.1012,496.0502,52.2321,495.844,52.3344,495.6,52.3453,495.6,52.343,489.3818,52.5176,483.1636,52.0019,476.9455,52.5159,470.7273,52.6742,464.5091,52.612,458.2909,52.7131,452.0727,52.0555,445.8545,51.954,439.6364,51.9725,433.4182,52.31,427.2,52.3453,427.185,52.309,427.04,52.3834,426.7624,52.1373,426.5373,52.0183,426.3689,52.036,426.1393,51.906,426.0161,51.8549,425.9556,51.6541,426.0835,51.5314,425.9562,51.3029,425.9236,51.1137,425.7,50.8453,425.5069,50.8453,425.8915,45.2963,426.0543,39.7472,425.4166,34.1981,425.6425,28.6491,425.7,23.1,425.7233,23.1096,425.9083,22.9378,425.875,22.6754,426.0491,22.499,425.9491,22.2091,426.1393,22.0393,426.0875,21.9142,426.39,22.0445,426.5087,21.7311,426.8147,21.8698,427.0037,21.726,427.2,21.6" style="stroke:#181818;stroke-width:0.3;"/><text fill="#000000" font-family="FG Virgil" font-size="8.4" font-style="italic" lengthAdjust="spacing" textLength="37.2" x="442.8" y="34.8645">&#171;domain&#187;</text><text fill="#000000" font-family="FG Virgil" font-size="8.4" lengthAdjust="spacing" textLength="63" x="429.9" y="46.0371">booking:Booking</text><polygon fill="#E3E3E3" points="427.2,416.2629,427.2,416.389,433.4182,416.0143,439.6364,416.3789,445.8545,416.5027,452.0727,415.8349,458.2909,416.2163,464.5091,416.007,470.7273,416.0328,476.9455,416.222,483.1636,415.8481,489.3818,416.5951,495.6,416.2629,495.5518,416.1464,495.797,416.3142,496.0573,416.5184,496.2298,416.5106,496.4538,416.627,496.6607,416.7022,496.6548,416.6998,496.7815,416.928,496.8806,417.1448,497.0325,417.3835,497.1361,417.6021,497.1,417.7629,497.5076,417.7629,497.2528,423.312,497.3782,428.861,497.5213,434.4101,496.6673,439.9591,497.1,445.5082,497.2254,445.5601,496.9573,445.6976,497.0229,445.9733,496.7449,446.1067,496.7359,446.3515,496.6607,446.5689,496.7174,446.7059,496.4448,446.6477,496.2445,446.7641,496.0502,446.895,495.844,446.9972,495.6,447.0082,495.6,447.0059,489.3818,447.1805,483.1636,446.6648,476.9455,447.1788,470.7273,447.3371,464.5091,447.2749,458.2909,447.376,452.0727,446.7184,445.8545,446.6169,439.6364,446.6354,433.4182,446.9729,427.2,447.0082,427.185,446.9719,427.04,447.0462,426.7624,446.8002,426.5373,446.6812,426.3689,446.6989,426.1393,446.5689,426.0161,446.5178,425.9556,446.317,426.0835,446.1943,425.9562,445.9658,425.9236,445.7766,425.7,445.5082,425.5069,445.5082,425.8915,439.9591,426.0543,434.4101,425.4166,428.861,425.6425,423.312,425.7,417.7629,425.7233,417.7725,425.9083,417.6006,425.875,417.3383,426.0491,417.1619,425.9491,416.872,426.1393,416.7022,426.0875,416.5771,426.39,416.7074,426.5087,416.394,426.8147,416.5327,427.0037,416.3889,427.2,416.2629" style="stroke:#181818;stroke-width:0.3;"/><text fill="#000000" font-family="FG Virgil" font-size="8.4" font-style="italic" lengthAdjust="spacing" textLength="37.2" x="442.8" y="429.5273">&#171;domain&#187;</text><text fill="#000000" font-family="FG Virgil" font-size="8.4" lengthAdjust="spacing" textLength="63" x="429.9" y="440.7">booking:Booking</text><text fill="#000000" font-family="FG Virgil" font-size="8.4" font-style="italic" lengthAdjust="spacing" textLength="47.4" x="515.1" y="39.6645">&#171;repository&#187;</text><text fill="#000000" font-family="FG Virgil" font-size="8.4" lengthAdjust="spacing" textLength="71.4" x="503.1" y="50.8371">BookingRepository</text><path d="M529.8,9 L529.8,9 L529.8391,9.0402 L530.803,7.8708 L531.9959,6.937 L533.1143,5.9264 L533.9874,4.6636 L535.2,3.75 L535.1971,3.7295 L536.2644,3.4873 L537.3459,3.3487 L538.4375,3.282 L539.4946,2.9674 L540.6,3 L540.6,3 L540.6203,3.1462 L541.6569,2.9835 L542.7527,3.2478 L543.8558,3.5641 L544.9169,3.5773 L546,3.75 L546.0127,3.763 L547.0741,4.7939 L548.1932,5.8841 L549.2845,6.9457 L550.4289,8.062 L551.4,9 L551.7579,9 L551.7623,12.12 L551.5358,15.24 L551.6472,18.36 L551.7745,21.48 L551.4,24.6 L551.4,24.6 L551.2659,24.4621 L550.4461,25.7797 L549.1849,26.6433 L548.2592,27.8521 L546.988,28.7054 L546,29.85 L545.9975,29.8319 L544.9472,30.1959 L543.8382,30.1371 L542.7639,30.3278 L541.6924,30.5394 L540.6,30.6 L540.6,30.6 L540.6153,30.7099 L539.5199,30.449 L538.4505,30.3759 L537.339,29.9988 L536.2904,30.0751 L535.2,29.85 L535.3019,29.9548 L534.2026,28.885 L533.154,27.8672 L531.8702,26.6076 L530.7588,25.5253 L529.8,24.6 L529.4686,24.6 L529.7686,21.48 L529.6952,18.36 L530.1634,15.24 L529.7068,12.12 L529.8,9 " fill="#E3E3E3" style="stroke:#181818;stroke-width:0.8999999999999999;"/><path d="M529.8,9 L529.8,9 L529.8391,9.0402 L530.803,9.9708 L531.9959,11.137 L533.1143,12.2264 L533.9874,13.0636 L535.2,14.25 L535.1971,14.2295 L536.2644,14.2873 L537.3459,14.4487 L538.4375,14.682 L539.4946,14.6674 L540.6,15 L540.6,15 L540.6203,15.1462 L541.6569,14.6835 L542.7527,14.6478 L543.8558,14.6641 L544.9169,14.3773 L546,14.25 L546.0127,14.263 L547.0741,13.1939 L548.1932,12.1841 L549.2845,11.1457 L550.4289,10.162 L551.4,9 " fill="none" style="stroke:#181818;stroke-width:0.8999999999999999;"/><text fill="#000000" font-family="FG Virgil" font-size="8.4" font-style="italic" lengthAdjust="spacing" textLength="47.4" x="515.1" y="425.3273">&#171;repository&#187;</text><text fill="#000000" font-family="FG Virgil" font-size="8.4" lengthAdjust="spacing" textLength="71.4" x="503.1" y="436.5">BookingRepository</text><path d="M529.8,444.6082 L529.8,444.6082 L529.8391,444.6484 L530.803,443.479 L531.9959,442.5452 L533.1143,441.5346 L533.9874,440.2718 L535.2,439.3582 L535.1971,439.3377 L536.2644,439.0956 L537.3459,438.9569 L538.4375,438.8902 L539.4946,438.5756 L540.6,438.6082 L540.6,438.6082 L540.6203,438.7544 L541.6569,438.5917 L542.7527,438.856 L543.8558,439.1723 L544.9169,439.1855 L546,439.3582 L546.0127,439.3713 L547.0741,440.4021 L548.1932,441.4923 L549.2845,442.5539 L550.4289,443.6702 L551.4,444.6082 L551.7579,444.6082 L551.7623,447.7282 L551.5358,450.8482 L551.6472,453.9682 L551.7745,457.0882 L551.4,460.2082 L551.4,460.2082 L551.2659,460.0703 L550.4461,461.3879 L549.1849,462.2515 L548.2592,463.4603 L546.988,464.3136 L546,465.4582 L545.9975,465.4401 L544.9472,465.8041 L543.8382,465.7453 L542.7639,465.936 L541.6924,466.1476 L540.6,466.2082 L540.6,466.2082 L540.6153,466.3181 L539.5199,466.0572 L538.4505,465.9841 L537.339,465.607 L536.2904,465.6833 L535.2,465.4582 L535.3019,465.563 L534.2026,464.4932 L533.154,463.4754 L531.8702,462.2158 L530.7588,461.1335 L529.8,460.2082 L529.4686,460.2082 L529.7686,457.0882 L529.6952,453.9682 L530.1634,450.8482 L529.7068,447.7282 L529.8,444.6082 " fill="#E3E3E3" style="stroke:#181818;stroke-width:0.8999999999999999;"/><path d="M529.8,444.6082 L529.8,444.6082 L529.8391,444.6484 L530.803,445.579 L531.9959,446.7452 L533.1143,447.8346 L533.9874,448.6718 L535.2,449.8582 L535.1971,449.8377 L536.2644,449.8956 L537.3459,450.0569 L538.4375,450.2902 L539.4946,450.2756 L540.6,450.6082 L540.6,450.6082 L540.6203,450.7544 L541.6569,450.2917 L542.7527,450.256 L543.8558,450.2723 L544.9169,449.9855 L546,449.8582 L546.0127,449.8713 L547.0741,448.8021 L548.1932,447.7923 L549.2845,446.7539 L550.4289,445.7702 L551.4,444.6082 " fill="none" style="stroke:#181818;stroke-width:0.8999999999999999;"/><polygon fill="#FFFFFF" points="147.9,72.9199,147.9,72.962,149.1,72.8371,150.3,72.9586,151.5,72.9999,152.7,72.7772,153.9,72.9199,153.8534,72.9199,153.6441,78.8689,153.6699,84.8179,153.8591,90.7669,153.4852,96.7158,154.2322,102.6648,153.5218,108.6138,153.7813,114.5628,154.1592,120.5118,153.8485,126.4608,153.9409,132.4097,153.8808,138.3587,154.0071,144.3077,154.0435,150.2567,154.2514,156.2057,154.3026,162.1546,154.3076,168.1036,154.0528,174.0526,154.1782,180.0016,154.3213,185.9506,153.4673,191.8996,154.3071,197.8485,153.7221,203.7975,154.2203,209.7465,153.603,215.6955,153.8589,221.6445,154.345,227.5934,153.8708,233.5424,153.9632,239.4914,154.1032,245.4404,154.1497,251.3894,153.8977,257.3384,154.0723,263.2873,153.5565,269.2363,154.0706,275.1853,154.2289,281.1343,154.1667,287.0833,154.2678,293.0322,153.6102,298.9812,153.5087,304.9302,153.5272,310.8792,153.8647,316.8282,153.7821,322.7771,154.3088,328.7261,153.7952,334.6751,153.6942,340.6241,154.037,346.5731,153.4999,352.5221,153.5885,358.471,154.2894,364.42,154.1614,370.369,154.3407,376.318,153.7069,382.267,154.0915,388.2159,154.2543,394.1649,153.6166,400.1139,153.9,406.0629,153.9,406.0437,152.7,406.0881,151.5,406.1932,150.3,406.0621,149.1,406.1554,147.9,406.0629,147.5677,406.0629,147.4936,400.1139,148.2022,394.1649,147.4698,388.2159,148.2054,382.267,148.024,376.318,147.7392,370.369,147.6877,364.42,148.1753,358.471,147.7204,352.5221,148.2551,346.5731,147.5684,340.6241,148.2705,334.6751,148.1906,328.7261,148.047,322.7771,147.9283,316.8282,148.336,310.8792,148.2681,304.9302,148.0016,298.9812,148.0609,293.0322,147.8218,287.0833,148.3299,281.1343,147.9929,275.1853,148.0035,269.2363,147.535,263.2873,147.6569,257.3384,148.2184,251.3894,148.1579,245.4404,147.8742,239.4914,147.7067,233.5424,147.7686,227.5934,147.4883,221.6445,148.1488,215.6955,148.3437,209.7465,148.2158,203.7975,148.317,197.8485,147.818,191.8996,147.9523,185.9506,147.6674,180.0016,148.0704,174.0526,148.0481,168.1036,148.2314,162.1546,147.7622,156.2057,147.8194,150.2567,148.1661,144.3077,148.2404,138.3587,147.5925,132.4097,147.7837,126.4608,147.9896,120.5118,147.5335,114.5628,148.112,108.6138,148.0548,102.6648,147.8395,96.7158,147.9853,90.7669,148.3372,84.8179,147.7123,78.8689,147.9,72.9199" style="stroke:#181818;stroke-width:0.6;"/><polygon fill="#FFFFFF" points="266.7,148.0184,266.7,148.0604,267.9,147.9355,269.1,148.057,270.3,148.0983,271.5,147.8757,272.7,148.0184,272.6534,148.0184,272.4441,154.0001,272.4699,159.9819,272.6591,165.9636,272.2852,171.9454,273.0322,177.9271,272.3218,183.9088,272.5813,189.8906,272.9592,195.8723,272.6485,201.8541,272.7409,207.8358,272.6808,213.8176,272.8071,219.7993,272.8435,225.7811,273.0514,231.7628,273.1026,237.7446,273.1076,243.7263,272.8528,249.7081,272.9782,255.6898,273.1213,261.6716,272.2673,267.6533,273.1071,273.6351,272.5221,279.6168,273.0203,285.5986,272.403,291.5803,272.6589,297.5621,273.145,303.5438,272.6708,309.5256,272.7632,315.5073,272.9032,321.4891,272.9497,327.4708,272.6977,333.4525,272.8723,339.4343,272.3565,345.416,272.8706,351.3978,273.0289,357.3795,272.9667,363.3613,273.0678,369.343,272.4102,375.3248,272.3087,381.3065,272.7,387.2883,272.7,387.164,271.5,387.2765,270.3,387.249,269.1,387.4246,267.9,387.2533,266.7,387.2883,266.4942,387.2883,266.837,381.3065,266.2999,375.3248,266.3885,369.343,267.0894,363.3613,266.9614,357.3795,267.1407,351.3978,266.5069,345.416,266.8915,339.4343,267.0543,333.4525,266.4166,327.4708,266.6425,321.4891,266.7756,315.5073,267.0911,309.5256,266.6975,303.5438,266.9775,297.5621,266.3677,291.5803,266.2936,285.5986,267.0022,279.6168,266.2698,273.6351,267.0054,267.6533,266.824,261.6716,266.5392,255.6898,266.4877,249.7081,266.9753,243.7263,266.5204,237.7446,267.0551,231.7628,266.3684,225.7811,267.0705,219.7993,266.9906,213.8176,266.847,207.8358,266.7283,201.8541,267.136,195.8723,267.0681,189.8906,266.8016,183.9088,266.8609,177.9271,266.6218,171.9454,267.1299,165.9636,266.7929,159.9819,266.8035,154.0001,266.7,148.0184" style="stroke:#181818;stroke-width:0.6;"/><polygon fill="#FFFFFF" points="376.5,199.5422,376.5,199.5842,377.7,199.4593,378.9,199.5808,380.1,199.6221,381.3,199.3995,382.5,199.5422,382.4534,199.5422,382.2441,205.4804,382.2699,211.4186,382.4591,217.3568,382.0852,223.295,382.8322,229.2332,382.1218,235.1714,382.3813,241.1096,382.7592,247.0478,382.4485,252.986,382.5409,258.9242,382.4808,264.8624,382.6071,270.8006,382.6435,276.7388,382.8514,282.677,382.5,288.6152,382.5,288.7494,381.3,288.7511,380.1,288.6662,378.9,288.708,377.7,288.7557,376.5,288.6152,376.0673,288.6152,376.9071,282.677,376.3221,276.7388,376.8203,270.8006,376.203,264.8624,376.4589,258.9242,376.945,252.986,376.4708,247.0478,376.5632,241.1096,376.7032,235.1714,376.7497,229.2332,376.4977,223.295,376.6723,217.3568,376.1565,211.4186,376.6706,205.4804,376.5,199.5422" style="stroke:#181818;stroke-width:0.6;"/><polygon fill="#FFFFFF" points="458.4,323.1645,458.4,323.2065,459.6,323.0816,460.8,323.2031,462,323.2444,463.2,323.0218,464.4,323.1645,464.3845,323.1645,464.3147,326.9194,464.3233,330.6743,464.3864,334.4292,464.2617,338.1841,464.4,341.9391,464.4,342.0498,463.2,341.813,462,341.8995,460.8,342.0255,459.6,341.9219,458.4,341.9391,458.4136,341.9391,458.3936,338.1841,458.4357,334.4292,458.4478,330.6743,458.5171,326.9194,458.4,323.1645" style="stroke:#181818;stroke-width:0.6;"/><polygon fill="#FFFFFF" points="537.6,251.066,537.6,251.1081,538.8,250.9832,540,251.1047,541.2,251.146,542.4,250.9233,543.6,251.066,543.5845,251.066,543.5147,254.8209,543.5233,258.5759,543.5864,262.3308,543.4617,266.0857,543.6,269.8406,543.6,269.9514,542.4,269.7146,541.2,269.8011,540,269.927,538.8,269.8235,537.6,269.8406,537.6136,269.8406,537.5936,266.0857,537.6357,262.3308,537.6478,258.5759,537.7171,254.8209,537.6,251.066" style="stroke:#181818;stroke-width:0.6;"/><polygon fill="#181818" points="140.7,70.5199,140.7156,70.559,141.8692,70.923,143.1144,71.5158,144.3297,72.0341,145.447,72.3074,146.7,72.9199,146.6942,72.9055,145.4683,73.3207,144.2715,73.8087,143.0949,74.3473,141.8486,74.7115,140.7,75.3199,140.7783,75.3982,141.0909,74.7508,141.632,74.332,142.2011,73.941,142.6079,73.3878,143.1,72.9199,143.1097,72.9296,142.6155,72.4354,142.1652,71.9852,141.6938,71.5137,141.2628,71.0828,140.7,70.5199" style="stroke:#181818;stroke-width:0.6;"/><path d="M35.7,72.9199 L35.7,73.0881 L41.7333,72.5885 L47.7667,73.0746 L53.8,73.2397 L59.8333,72.3492 L65.8667,72.8578 L71.9,72.5787 L77.9333,72.6131 L83.9667,72.8654 L90,72.3668 L96.0333,73.3628 L102.0667,72.4157 L108.1,72.7617 L114.1333,73.2655 L120.1667,72.8513 L126.2,72.9745 L132.2333,72.8944 L138.2667,73.0627 L144.3,72.9199 " fill="none" style="stroke:#181818;stroke-width:0.6;stroke-dasharray:2.0,2.0;"/><text fill="#000000" font-family="FG Virgil" font-size="7.8" lengthAdjust="spacing" textLength="80.4" x="39.9" y="69.7623">Consult Booking Meals</text><polygon fill="#181818" points="262.5,89.2945,262.5156,89.3336,263.6692,89.6976,264.9144,90.2904,266.1297,90.8087,267.247,91.0821,268.5,91.6945,268.4942,91.6801,267.2683,92.0953,266.0715,92.5833,264.8949,93.1219,263.6486,93.4861,262.5,94.0945,262.5783,94.1728,262.8909,93.5254,263.432,93.1066,264.0011,92.7156,264.4079,92.1624,264.9,91.6945,264.9097,91.7042,264.4155,91.21,263.9652,90.7598,263.4938,90.2883,263.0628,89.8574,262.5,89.2945" style="stroke:#181818;stroke-width:0.6;"/><path d="M153.9,91.6945 L153.9,91.8627 L159.8053,91.3631 L165.7105,91.8492 L171.6158,92.0143 L177.5211,91.1238 L183.4263,91.6324 L189.3316,91.3533 L195.2368,91.3877 L201.1421,91.64 L207.0474,91.1414 L212.9526,92.1374 L218.8579,91.1903 L224.7632,91.5363 L230.6684,92.0401 L236.5737,91.6259 L242.4789,91.7491 L248.3842,91.669 L254.2895,91.8374 L260.1947,91.8858 L266.1,91.6945 " fill="none" style="stroke:#181818;stroke-width:0.6;"/><text fill="#000000" font-family="FG Virgil" font-size="7.8" lengthAdjust="spacing" textLength="21.6" x="158.1" y="88.5369">create</text><polygon fill="#181818" points="42.3,108.0691,42.3156,108.1082,41.0692,108.4722,39.9144,109.065,38.7297,109.5834,37.447,109.8567,36.3,110.4691,36.2942,110.4547,37.4683,110.8699,38.6715,111.3579,39.8949,111.8965,41.0486,112.2608,42.3,112.8691,42.3783,112.9474,41.7309,112.3,41.312,111.8812,40.9211,111.4902,40.3679,110.937,39.9,110.4691,39.9097,110.4788,40.3755,109.9846,40.8852,109.5344,41.3738,109.063,41.9028,108.632,42.3,108.0691" style="stroke:#181818;stroke-width:0.6;"/><path d="M38.7,110.4691 L38.7,110.6373 L44.7333,110.1377 L50.7667,110.6238 L56.8,110.7889 L62.8333,109.8984 L68.8667,110.407 L74.9,110.1279 L80.9333,110.1623 L86.9667,110.4146 L93,109.916 L99.0333,110.9121 L105.0667,109.9649 L111.1,110.3109 L117.1333,110.8147 L123.1667,110.4005 L129.2,110.5237 L135.2333,110.4436 L141.2667,110.612 L147.3,110.4691 " fill="none" style="stroke:#181818;stroke-width:0.6;stroke-dasharray:2.0,2.0;"/><text fill="#000000" font-family="FG Virgil" font-size="7.8" lengthAdjust="spacing" textLength="30" x="45.9" y="107.3115">Ask Day</text><polygon fill="#181818" points="140.7,126.8438,140.7156,126.8828,141.8692,127.2468,143.1144,127.8396,144.3297,128.358,145.447,128.6313,146.7,129.2438,146.6942,129.2293,145.4683,129.6446,144.2715,130.1325,143.0949,130.6711,141.8486,131.0354,140.7,131.6437,140.7783,131.722,141.0909,131.0746,141.632,130.6558,142.2011,130.2648,142.6079,129.7116,143.1,129.2438,143.1097,129.2534,142.6155,128.7592,142.1652,128.309,141.6938,127.8376,141.2628,127.4066,140.7,126.8438" style="stroke:#181818;stroke-width:0.6;"/><path d="M35.7,129.2438 L35.7,129.4119 L41.7333,128.9123 L47.7667,129.3984 L53.8,129.5635 L59.8333,128.673 L65.8667,129.1816 L71.9,128.9026 L77.9333,128.937 L83.9667,129.1892 L90,128.6907 L96.0333,129.6867 L102.0667,128.7395 L108.1,129.0855 L114.1333,129.5893 L120.1667,129.1751 L126.2,129.2983 L132.2333,129.2182 L138.2667,129.3866 L144.3,129.2438 " fill="none" style="stroke:#181818;stroke-width:0.6;stroke-dasharray:2.0,2.0;"/><text fill="#000000" font-family="FG Virgil" font-size="7.8" lengthAdjust="spacing" textLength="13.8" x="39.9" y="126.0861">Day</text><polygon fill="#181818" points="259.5,145.6184,259.5156,145.6574,260.6692,146.0214,261.9144,146.6143,263.1297,147.1326,264.247,147.4059,265.5,148.0184,265.4942,148.0039,264.2683,148.4192,263.0715,148.9071,261.8949,149.4457,260.6486,149.81,259.5,150.4184,259.5783,150.4967,259.8909,149.8492,260.432,149.4304,261.0011,149.0394,261.4079,148.4862,261.9,148.0184,261.9097,148.028,261.4155,147.5338,260.9652,147.0836,260.4938,146.6122,260.0628,146.1812,259.5,145.6184" style="stroke:#181818;stroke-width:0.6;"/><path d="M153.9,148.0184 L153.9,148.1865 L159.9667,147.6869 L166.0333,148.173 L172.1,148.3381 L178.1667,147.4476 L184.2333,147.9562 L190.3,147.6772 L196.3667,147.7116 L202.4333,147.9638 L208.5,147.4653 L214.5667,148.4613 L220.6333,147.5141 L226.7,147.8601 L232.7667,148.3639 L238.8333,147.9497 L244.9,148.073 L250.9667,147.9928 L257.0333,148.1612 L263.1,148.0184 " fill="none" style="stroke:#181818;stroke-width:0.6;"/><text fill="#000000" font-family="FG Virgil" font-size="7.8" lengthAdjust="spacing" textLength="101.4" x="158.1" y="144.8607">bookingsPerMealOnDay(day)</text><path d="M275.4,155.8184 L275.5121,155.8184 L275.179,161.0984 L275.5031,166.3784 L275.6132,171.6584 L275.0195,176.9384 L275.4,182.2184 L275.4,182.094 L281.4261,181.536 L287.4522,181.6048 L293.4783,182.1093 L299.5043,181.1122 L305.5304,183.1042 L311.5565,181.2099 L317.5826,181.9019 L323.6087,182.9095 L329.6348,182.0811 L335.6609,182.3275 L341.687,182.1672 L347.713,182.504 L353.7391,182.601 L359.7652,183.1555 L365.7913,183.292 L371.8174,183.3052 L377.8435,182.6258 L383.8696,182.9601 L389.8957,183.3419 L395.9217,181.0645 L401.9478,183.304 L407.9739,181.744 L414,182.2184 L414.2847,182.2184 L413.736,178.1384 L413.9635,174.0584 L414.3955,169.9784 L413.974,165.8984 L414,161.8184 L414.0397,161.8581 L412.9277,160.7461 L411.757,159.5753 L410.3985,158.2169 L409.3083,157.1267 L408,155.8184 L408,154.9025 L401.9727,156.2734 L395.9455,156.6955 L389.9182,156.5296 L383.8909,156.7992 L377.8636,155.0454 L371.8364,154.7749 L365.8091,154.8241 L359.7818,155.7242 L353.7545,155.5039 L347.7273,156.9086 L341.7,155.5389 L335.6727,155.2695 L329.6455,156.1836 L323.6182,154.7514 L317.5909,154.9878 L311.5636,156.8567 L305.5364,156.5154 L299.5091,156.9935 L293.4818,155.3035 L287.4545,156.3291 L281.4273,156.763 L275.4,155.8184 " fill="#FAFAFA" style="stroke:#181818;stroke-width:0.3;"/><path d="M408,155.8184 L407.7481,155.8184 L407.9489,157.0184 L408.0672,158.2184 L408.3476,159.4184 L407.9978,160.6184 L408,161.8184 L408,162.0651 L409.2,161.523 L410.4,161.4572 L411.6,162.087 L412.8,161.436 L414,161.8184 L414.1919,162.0103 L412.8779,160.6963 L411.499,159.3173 L410.2666,158.0849 L409.373,157.1914 L408,155.8184 " fill="#FAFAFA" style="stroke:#181818;stroke-width:0.3;"/><text fill="#000000" font-family="FG Virgil" font-size="7.8" lengthAdjust="spacing" textLength="123.6" x="279" y="167.2354">hidden authorization user guarantee</text><text fill="#000000" font-family="FG Virgil" font-size="7.8" lengthAdjust="spacing" textLength="76.2" x="279" y="177.61">(see specific diagram)</text><polygon fill="#181818" points="369.3,197.1422,369.3156,197.1812,370.4692,197.5453,371.7144,198.1381,372.9297,198.6564,374.047,198.9297,375.3,199.5422,375.2942,199.5278,374.0683,199.943,372.8715,200.431,371.6949,200.9695,370.4486,201.3338,369.3,201.9422,369.3783,202.0205,369.6909,201.3731,370.232,200.9542,370.8011,200.5633,371.2079,200.0101,371.7,199.5422,371.7097,199.5518,371.2155,199.0577,370.7652,198.6074,370.2938,198.136,369.8628,197.705,369.3,197.1422" style="stroke:#181818;stroke-width:0.6;"/><path d="M272.7,199.5422 L272.7,199.7103 L278.5941,199.2107 L284.4882,199.6968 L290.3824,199.8619 L296.2765,198.9715 L302.1706,199.48 L308.0647,199.201 L313.9588,199.2354 L319.8529,199.4877 L325.7471,198.9891 L331.6412,199.9851 L337.5353,199.038 L343.4294,199.384 L349.3235,199.8877 L355.2176,199.4736 L361.1118,199.5968 L367.0059,199.5166 L372.9,199.5422 " fill="none" style="stroke:#181818;stroke-width:0.6;"/><text fill="#000000" font-family="FG Virgil" font-size="7.8" lengthAdjust="spacing" textLength="78.6" x="276.9" y="196.3846">allBookingForDay(day)</text><path d="M385.2,207.3422 L385.3121,207.3422 L384.979,212.6222 L385.3031,217.9022 L385.4132,223.1822 L384.8195,228.4622 L385.2,233.7422 L385.2,233.6178 L391.12,233.0598 L397.04,233.1286 L402.96,233.6331 L408.88,232.636 L414.8,234.628 L420.72,232.7337 L426.64,233.4258 L432.56,234.4333 L438.48,233.6049 L444.4,233.8514 L450.32,233.6911 L456.24,234.0278 L462.16,234.1248 L468.08,234.6793 L474,233.7422 L474.3579,233.7422 L474.3623,229.6622 L474.1358,225.5822 L474.2472,221.5022 L474.3745,217.4222 L474,213.3422 L473.728,213.0702 L473.0559,212.3981 L471.4882,210.8304 L470.6013,209.9435 L469.0133,208.3555 L468,207.3422 L468,207.2326 L462.0857,208.5288 L456.1714,207.2642 L450.2571,207.5107 L444.3429,207.884 L438.4286,208.0082 L432.5143,207.3359 L426.6,207.8017 L420.6857,206.4263 L414.7714,207.7972 L408.8571,208.2193 L402.9429,208.0534 L397.0286,208.323 L391.1143,206.5693 L385.2,207.3422 " fill="#FAFAFA" style="stroke:#181818;stroke-width:0.3;"/><path d="M468,207.3422 L467.6522,207.3422 L467.6686,208.5422 L467.9686,209.7422 L467.8952,210.9422 L468.3634,212.1422 L468,213.3422 L468,213.249 L469.2,213.1592 L470.4,213.4639 L471.6,212.9865 L472.8,213.0653 L474,213.3422 L474.2447,213.5869 L472.9643,212.3065 L471.877,211.2192 L470.2786,209.6208 L469.3204,208.6626 L468,207.3422 " fill="#FAFAFA" style="stroke:#181818;stroke-width:0.3;"/><text fill="#000000" font-family="FG Virgil" font-size="7.8" lengthAdjust="spacing" textLength="76.2" x="388.8" y="218.7592">Simplified persistence</text><text fill="#000000" font-family="FG Virgil" font-size="7.8" lengthAdjust="spacing" textLength="76.2" x="388.8" y="229.1338">(see specific diagram)</text><polygon fill="#181818" points="530.4,248.666,530.4156,248.705,531.5692,249.0691,532.8144,249.6619,534.0297,250.1802,535.147,250.4535,536.4,251.066,536.3942,251.0516,535.1683,251.4668,533.9715,251.9548,532.7949,252.4934,531.5486,252.8576,530.4,253.466,530.4783,253.5443,530.7909,252.8969,531.332,252.478,531.9011,252.0871,532.3079,251.5339,532.8,251.066,532.8097,251.0757,532.3155,250.5815,531.8652,250.1313,531.3938,249.6598,530.9628,249.2288,530.4,248.666" style="stroke:#181818;stroke-width:0.6;"/><path d="M382.5,251.066 L382.5,251.2342 L388.56,250.7346 L394.62,251.2206 L400.68,251.3858 L406.74,250.4953 L412.8,251.0038 L418.86,250.7248 L424.92,250.7592 L430.98,251.0115 L437.04,250.5129 L443.1,251.5089 L449.16,250.5618 L455.22,250.9078 L461.28,251.4116 L467.34,250.9974 L473.4,251.1206 L479.46,251.0405 L485.52,251.2088 L491.58,251.2573 L497.64,251.5346 L503.7,251.6029 L509.76,251.6094 L515.82,251.2697 L521.88,251.4369 L527.94,251.6278 L534,251.066 " fill="none" style="stroke:#181818;stroke-width:0.6;"/><text fill="#000000" font-family="FG Virgil" font-size="7.8" lengthAdjust="spacing" textLength="63.6" x="386.7" y="247.9084">findAllForDay(day)</text><polygon fill="#181818" points="389.1,267.4406,389.1156,267.4797,387.8692,267.8437,386.7144,268.4365,385.5297,268.9548,384.247,269.2282,383.1,269.8406,383.0942,269.8262,384.2683,270.2414,385.4715,270.7294,386.6949,271.268,387.8486,271.6322,389.1,272.2406,389.1783,272.3189,388.5309,271.6715,388.112,271.2527,387.7211,270.8617,387.1679,270.3085,386.7,269.8406,386.7097,269.8503,387.1755,269.3561,387.6852,268.9059,388.1738,268.4344,388.7028,268.0035,389.1,267.4406" style="stroke:#181818;stroke-width:0.6;"/><path d="M385.5,269.8406 L385.5,270.0088 L391.4423,269.5092 L397.3846,269.9953 L403.3269,270.1604 L409.2692,269.2699 L415.2115,269.7785 L421.1538,269.4994 L427.0962,269.5338 L433.0385,269.7861 L438.9808,269.2875 L444.9231,270.2835 L450.8654,269.3364 L456.8077,269.6824 L462.75,270.1862 L468.6923,269.772 L474.6346,269.8952 L480.5769,269.8151 L486.5192,269.9834 L492.4615,270.0319 L498.4038,270.3092 L504.3462,270.3775 L510.2885,270.384 L516.2308,270.0443 L522.1731,270.2115 L528.1154,270.4024 L534.0577,269.2637 L540,269.8406 " fill="none" style="stroke:#181818;stroke-width:0.6;stroke-dasharray:2.0,2.0;"/><text fill="#000000" font-family="FG Virgil" font-size="7.8" lengthAdjust="spacing" textLength="31.2" x="392.7" y="266.683">bookings</text><polygon fill="#181818" points="279.3,286.2152,279.3156,286.2543,278.0692,286.6183,276.9144,287.2111,275.7297,287.7295,274.447,288.0028,273.3,288.6152,273.2942,288.6008,274.4683,289.016,275.6715,289.504,276.8949,290.0426,278.0486,290.4069,279.3,291.0152,279.3783,291.0935,278.7309,290.4461,278.312,290.0273,277.9211,289.6363,277.3679,289.0831,276.9,288.6152,276.9097,288.6249,277.3755,288.1307,277.8852,287.6805,278.3738,287.2091,278.9028,286.7781,279.3,286.2152" style="stroke:#181818;stroke-width:0.6;"/><path d="M275.7,288.6152 L275.7,288.7834 L281.7706,288.2838 L287.8412,288.7699 L293.9118,288.935 L299.9824,288.0445 L306.0529,288.5531 L312.1235,288.274 L318.1941,288.3084 L324.2647,288.5607 L330.3353,288.0621 L336.4059,289.0581 L342.4765,288.111 L348.5471,288.457 L354.6176,288.9608 L360.6882,288.5466 L366.7588,288.6698 L372.8294,288.5897 L378.9,288.6152 " fill="none" style="stroke:#181818;stroke-width:0.6;stroke-dasharray:2.0,2.0;"/><text fill="#000000" font-family="FG Virgil" font-size="7.8" lengthAdjust="spacing" textLength="31.2" x="282.9" y="285.4576">bookings</text><path d="M200.1,297.6152 L200.1,297.9515 L206.3571,296.9523 L212.6143,297.9245 L218.8714,298.2547 L225.1286,296.4738 L231.3857,297.4909 L237.6429,296.9328 L243.9,297.6152 L243.6955,297.6152 L243.8636,298.7302 L243.5313,299.8451 L244.1953,300.96 L243.5639,302.0749 L243.9,303.1898 L243.8254,303.1153 L242.8629,304.5527 L241.4677,305.5575 L240.3257,306.8156 L239.088,307.9778 L237.9,309.1898 L237.9,309.4755 L231.6,309.5725 L225.3,310.1269 L219,310.2635 L212.7,310.2767 L206.4,309.5972 L200.1,309.1898 L200.3472,309.1898 L200.4745,306.8749 L199.7154,304.56 L200.4619,302.2451 L199.9419,299.9302 L200.1,297.6152 " fill="#EEEEEE" style="stroke:#000000;stroke-width:0.8999999999999999;"/><polygon fill="none" points="200.1,297.6152,200.1,297.7413,206.0412,297.3666,211.9824,297.7312,217.9235,297.855,223.8647,297.1872,229.8059,297.5686,235.7471,297.3593,241.6882,297.3851,247.6294,297.5743,253.5706,297.2004,259.5118,297.9474,265.4529,297.2371,271.3941,297.4966,277.3353,297.8744,283.2765,297.5638,289.2176,297.6562,295.1588,297.5961,301.1,297.7224,307.0412,297.7587,312.9824,297.9666,318.9235,298.0179,324.8647,298.0228,330.8059,297.768,336.7471,297.8934,342.6882,298.0366,348.6294,297.1825,354.5706,298.0223,360.5118,297.4373,366.4529,297.9355,372.3941,297.3182,378.3353,297.5741,384.2765,298.0602,390.2176,297.586,396.1588,297.6784,402.1,297.8184,408.0412,297.865,413.9824,297.6129,419.9235,297.7876,425.8647,297.2718,431.8059,297.7859,437.7471,297.9442,443.6882,297.882,449.6294,297.983,455.5706,297.3254,461.5118,297.2239,467.4529,297.2424,473.3941,297.5799,479.3353,297.4973,485.2765,298.0241,491.2176,297.5104,497.1588,297.4094,503.1,297.6152,503.237,297.6152,502.6999,303.5734,502.7885,309.5316,503.4894,315.4898,503.3614,321.448,503.5407,327.4063,502.9069,333.3645,503.2915,339.3227,503.4543,345.2809,502.8166,351.2391,503.0425,357.1973,503.1756,363.1555,503.1,369.1137,503.1,369.5047,497.1588,369.1112,491.2176,369.3912,485.2765,368.7814,479.3353,368.7073,473.3941,369.4158,467.4529,368.6835,461.5118,369.419,455.5706,369.2376,449.6294,368.9529,443.6882,368.9014,437.7471,369.3889,431.8059,368.9341,425.8647,369.4688,419.9235,368.782,413.9824,369.4841,408.0412,369.4043,402.1,369.2607,396.1588,369.142,390.2176,369.5496,384.2765,369.4818,378.3353,369.2152,372.3941,369.2746,366.4529,369.0355,360.5118,369.5435,354.5706,369.2066,348.6294,369.2172,342.6882,368.7487,336.7471,368.8705,330.8059,369.4321,324.8647,369.3715,318.9235,369.0879,312.9824,368.9204,307.0412,368.9823,301.1,368.702,295.1588,369.3625,289.2176,369.5574,283.2765,369.4295,277.3353,369.5306,271.3941,369.0316,265.4529,369.166,259.5118,368.8811,253.5706,369.2841,247.6294,369.2617,241.6882,369.4451,235.7471,368.9759,229.8059,369.033,223.8647,369.3797,217.9235,369.4541,211.9824,368.8062,206.0412,368.9973,200.1,369.1137,200.1896,369.1137,199.7335,363.1555,200.312,357.1973,200.2548,351.2391,200.0395,345.2809,200.1853,339.3227,200.5372,333.3645,199.9123,327.4063,200.289,321.448,200.2714,315.4898,200.1695,309.5316,200.1846,303.5734,200.1,297.6152" style="stroke:#000000;stroke-width:0.8999999999999999;"/><text fill="#000000" font-family="FG Virgil" font-size="7.8" font-weight="bold" lengthAdjust="spacing" textLength="16.8" x="209.1" y="306.6322">loop</text><text fill="#000000" font-family="FG Virgil" font-size="6.6" font-weight="bold" lengthAdjust="spacing" textLength="60.6" x="252.9" y="305.9373">[for each booking]</text><polygon fill="#181818" points="451.2,320.7645,451.2156,320.8035,452.3692,321.1675,453.6144,321.7603,454.8297,322.2787,455.947,322.552,457.2,323.1645,457.1942,323.15,455.9683,323.5653,454.7715,324.0532,453.5949,324.5918,452.3486,324.9561,451.2,325.5645,451.2783,325.6427,451.5909,324.9953,452.132,324.5765,452.7011,324.1855,453.1079,323.6323,453.6,323.1645,453.6097,323.1741,453.1155,322.6799,452.6652,322.2297,452.1938,321.7583,451.7628,321.3273,451.2,320.7645" style="stroke:#181818;stroke-width:0.6;"/><path d="M272.7,323.1645 L272.7,323.3326 L278.77,322.833 L284.84,323.3191 L290.91,323.4842 L296.98,322.5937 L303.05,323.1023 L309.12,322.8233 L315.19,322.8577 L321.26,323.1099 L327.33,322.6114 L333.4,323.6074 L339.47,322.6602 L345.54,323.0062 L351.61,323.51 L357.68,323.0958 L363.75,323.219 L369.82,323.1389 L375.89,323.3073 L381.96,323.3558 L388.03,323.633 L394.1,323.7013 L400.17,323.7079 L406.24,323.3682 L412.31,323.5353 L418.38,323.7262 L424.45,322.5875 L430.52,323.7073 L436.59,322.9273 L442.66,323.5915 L448.73,322.7684 L454.8,323.1645 " fill="none" style="stroke:#181818;stroke-width:0.6;"/><text fill="#000000" font-family="FG Virgil" font-size="7.8" lengthAdjust="spacing" textLength="21.6" x="276.9" y="320.0068">meal()</text><polygon fill="#181818" points="279.3,339.5391,279.3156,339.5781,278.0692,339.9421,276.9144,340.535,275.7297,341.0533,274.447,341.3266,273.3,341.9391,273.2942,341.9246,274.4683,342.3399,275.6715,342.8278,276.8949,343.3664,278.0486,343.7307,279.3,344.3391,279.3783,344.4174,278.7309,343.7699,278.312,343.3511,277.9211,342.9601,277.3679,342.4069,276.9,341.9391,276.9097,341.9487,277.3755,341.4545,277.8852,341.0043,278.3738,340.5329,278.9028,340.1019,279.3,339.5391" style="stroke:#181818;stroke-width:0.6;"/><path d="M275.7,341.9391 L275.7,342.1072 L281.671,341.6076 L287.6419,342.0937 L293.6129,342.2588 L299.5839,341.3683 L305.5548,341.8769 L311.5258,341.5979 L317.4968,341.6323 L323.4677,341.8845 L329.4387,341.386 L335.4097,342.382 L341.3806,341.4348 L347.3516,341.7808 L353.3226,342.2846 L359.2935,341.8704 L365.2645,341.9937 L371.2355,341.9135 L377.2065,342.0819 L383.1774,342.1304 L389.1484,342.4076 L395.1194,342.4759 L401.0903,342.4825 L407.0613,342.1428 L413.0323,342.3099 L419.0032,342.5008 L424.9742,341.3621 L430.9452,342.4819 L436.9161,341.7019 L442.8871,342.3661 L448.8581,341.543 L454.829,341.8843 L460.8,341.9391 " fill="none" style="stroke:#181818;stroke-width:0.6;stroke-dasharray:2.0,2.0;"/><text fill="#000000" font-family="FG Virgil" font-size="7.8" lengthAdjust="spacing" textLength="16.8" x="282.9" y="338.7814">meal</text><path d="M275.4,349.7391 L275.5121,349.7391 L275.179,352.9791 L275.5031,356.2191 L275.6132,359.4591 L275.0195,362.6991 L275.4,365.9391 L275.4,365.8147 L281.4706,365.2567 L287.5412,365.3255 L293.6118,365.83 L299.6824,364.8329 L305.7529,366.8249 L311.8235,364.9306 L317.8941,365.6226 L323.9647,366.6302 L330.0353,365.8018 L336.1059,366.0482 L342.1765,365.8879 L348.2471,366.2247 L354.3176,366.3217 L360.3882,366.8762 L366.4588,367.0127 L372.5294,367.0259 L378.6,365.9391 L378.7358,365.9391 L378.8472,363.8991 L378.9745,361.8591 L378.2154,359.8191 L378.9619,357.7791 L378.6,355.7391 L378.4882,355.6272 L377.6013,354.7404 L376.0133,353.1524 L374.9742,352.1132 L374.0797,351.2187 L372.6,349.7391 L372.6,349.6611 L366.525,349.9075 L360.45,350.2809 L354.375,350.405 L348.3,349.7328 L342.225,350.1986 L336.15,348.8232 L330.075,350.1941 L324,350.6162 L317.925,350.4503 L311.85,350.7199 L305.775,348.9661 L299.7,348.6956 L293.625,348.7448 L287.55,349.6449 L281.475,349.4246 L275.4,349.7391 " fill="#FAFAFA" style="stroke:#181818;stroke-width:0.3;"/><path d="M372.6,349.7391 L372.9634,349.7391 L372.5068,350.9391 L372.417,352.1391 L372.7217,353.3391 L372.2444,354.5391 L372.6,355.7391 L372.6,355.4622 L373.8,356.0852 L375,355.9714 L376.2,356.1308 L377.4,355.5674 L378.6,355.7391 L378.7204,355.8594 L377.6227,354.7617 L376.0218,353.1609 L374.9638,352.1029 L373.8475,350.9866 L372.6,349.7391 " fill="#FAFAFA" style="stroke:#181818;stroke-width:0.3;"/><text fill="#000000" font-family="FG Virgil" font-size="7.8" lengthAdjust="spacing" textLength="90.6" x="279" y="361.1561">add count to meal on map</text><polygon fill="#181818" points="160.5,384.8883,160.5156,384.9273,159.2692,385.2913,158.1144,385.8842,156.9297,386.4025,155.647,386.6758,154.5,387.2883,154.4942,387.2739,155.6683,387.6891,156.8715,388.1771,158.0949,388.7156,159.2486,389.0799,160.5,389.6883,160.5783,389.7666,159.9309,389.1191,159.512,388.7003,159.1211,388.3094,158.5679,387.7562,158.1,387.2883,158.1097,387.2979,158.5755,386.8038,159.0852,386.3535,159.5738,385.8821,160.1028,385.4511,160.5,384.8883" style="stroke:#181818;stroke-width:0.6;"/><path d="M156.9,387.2883 L156.9,387.4564 L162.8053,386.9568 L168.7105,387.4429 L174.6158,387.608 L180.5211,386.7176 L186.4263,387.2261 L192.3316,386.9471 L198.2368,386.9815 L204.1421,387.2338 L210.0474,386.7352 L215.9526,387.7312 L221.8579,386.7841 L227.7632,387.1301 L233.6684,387.6338 L239.5737,387.2197 L245.4789,387.3429 L251.3842,387.2627 L257.2895,387.4311 L263.1947,387.4796 L269.1,387.2883 " fill="none" style="stroke:#181818;stroke-width:0.6;stroke-dasharray:2.0,2.0;"/><text fill="#000000" font-family="FG Virgil" font-size="7.8" lengthAdjust="spacing" textLength="75" x="164.1" y="384.1307">bookingsPerMealMap</text><polygon fill="#181818" points="42.3,403.6629,42.3156,403.7019,41.0692,404.066,39.9144,404.6588,38.7297,405.1771,37.447,405.4504,36.3,406.0629,36.2942,406.0485,37.4683,406.4637,38.6715,406.9517,39.8949,407.4902,41.0486,407.8545,42.3,408.4629,42.3783,408.5412,41.7309,407.8938,41.312,407.4749,40.9211,407.084,40.3679,406.5308,39.9,406.0629,39.9097,406.0725,40.3755,405.5784,40.8852,405.1281,41.3738,404.6567,41.9028,404.2257,42.3,403.6629" style="stroke:#181818;stroke-width:0.6;"/><path d="M38.7,406.0629 L38.7,406.231 L44.5737,405.7314 L50.4474,406.2175 L56.3211,406.3826 L62.1947,405.4922 L68.0684,406.0007 L73.9421,405.7217 L79.8158,405.7561 L85.6895,406.0084 L91.5632,405.5098 L97.4368,406.5058 L103.3105,405.5587 L109.1842,405.9047 L115.0579,406.4084 L120.9316,405.9943 L126.8053,406.1175 L132.6789,406.0373 L138.5526,406.2057 L144.4263,406.2542 L150.3,406.0629 " fill="none" style="stroke:#181818;stroke-width:0.6;stroke-dasharray:2.0,2.0;"/><text fill="#000000" font-family="FG Virgil" font-size="7.8" lengthAdjust="spacing" textLength="97.8" x="45.9" y="402.9053">Display Meals by Quantities</text><!--SRC=[XLHDRzim3BtxLn0zfOV-0SCeqAt846pPLz2TTc4asYOgIuOaj_1-_UYls4wRHWSx5lcU7gd7X6UsDNgie4IhNpt7I1QYRoW9fr3bh5EbTnMTHsfKprZG8RQ6m9EAYvYc71iJjyx6xoZGxHVumxvWiyW99MhtohQ074sW944LdOUl75L9TezMo3rWW8TkFn5GPCKrsWYVdGr2_yavOIls9FYdNPSgpoohFGMo4ICxUtz_3IXRqJjZXhCMNrc6TMrOlSVpZSD4SY3_meewy55s3Y_gG-JDSO2b8_oc0pww2jaAJlS_1A8nuX43mPZscseNMFhGJWSjThBCdpu4c_GDWxkxU-b7EjKyCK5VTTTiVi58afA0BEcSvC_bfw0yIJmvHINS4wVm49xX4Ti-iZwhsxr0DzOTVfBl5FomahlHsDxs-ISvCsGWwfPr4l1Sb15SlhoY54hMMaoBJIoTvtzznw494YiQSPcDHF3NReAyGasASrQW6GinuErym89IL8_Nc08QCpPjw_nAxahoc3_JlTKyEIE50rTYZPn9Gqq-Y8_8AhekiLiJowXnTa0AELlzOCnxEjzedN5lwHUkkbksOhgz5K3JLTwJv0jkI2vmhVffdAiX5vj9JZb1LqhM5pYCKmgL-6npeH53pYesJk6vr8xbKjaZomStlt8hQWtADV8t45tF2-BM2kiJdgmUo6QOoEacwsnyzYDeeMKvEKyxWOtJ-iYXDjWESm_75durCXSScKAoW3_j_WC0]--></g></svg>