<?xml version="1.0" encoding="us-ascii" standalone="no"?><svg xmlns="http://www.w3.org/2000/svg" xmlns:xlink="http://www.w3.org/1999/xlink" contentStyleType="text/css" height="456px" preserveAspectRatio="none" style="width:702px;height:456px;background:#FFFFFF;" version="1.1" viewBox="0 0 702 456" width="702.6px" zoomAndPan="magnify"><defs/><g><polygon fill="#FFFFFF" points="131.7,72.9199,131.7,72.962,132.9,72.8371,134.1,72.9586,135.3,72.9999,136.5,72.7772,137.7,72.9199,137.6534,72.9199,137.4441,78.9424,137.4699,84.9649,137.6591,90.9873,137.2852,97.0098,138.0322,103.0323,137.3218,109.0547,137.5813,115.0772,137.9592,121.0997,137.6485,127.1221,137.7409,133.1446,137.6808,139.1671,137.8071,145.1895,137.8435,151.212,138.0514,157.2345,138.1026,163.2569,138.1076,169.2794,137.8528,175.3019,137.9782,181.3244,138.1213,187.3468,137.2673,193.3693,138.1071,199.3918,137.5221,205.4142,138.0203,211.4367,137.403,217.4592,137.6589,223.4816,138.145,229.5041,137.6708,235.5266,137.7632,241.549,137.9032,247.5715,137.9497,253.594,137.6977,259.6164,137.8723,265.6389,137.3565,271.6614,137.8706,277.6838,138.0289,283.7063,137.9667,289.7288,138.0678,295.7513,137.4102,301.7737,137.3087,307.7962,137.3272,313.8187,137.6647,319.8411,137.5821,325.8636,138.1088,331.8861,137.5952,337.9085,137.4942,343.931,137.837,349.9535,137.2999,355.9759,137.3885,361.9984,138.0894,368.0209,137.9614,374.0433,138.1407,380.0658,137.7,386.0883,137.7,386.0239,136.5,386.1521,135.3,386.2064,134.1,385.9938,132.9,386.0691,131.7,386.0883,131.7756,386.0883,132.0911,380.0658,131.6975,374.0433,131.9775,368.0209,131.3677,361.9984,131.2936,355.9759,132.0022,349.9535,131.2698,343.931,132.0054,337.9085,131.824,331.8861,131.5392,325.8636,131.4877,319.8411,131.9753,313.8187,131.5204,307.7962,132.0551,301.7737,131.3684,295.7513,132.0705,289.7288,131.9906,283.7063,131.847,277.6838,131.7283,271.6614,132.136,265.6389,132.0681,259.6164,131.8016,253.594,131.8609,247.5715,131.6218,241.549,132.1299,235.5266,131.7929,229.5041,131.8035,223.4816,131.335,217.4592,131.4569,211.4367,132.0184,205.4142,131.9579,199.3918,131.6742,193.3693,131.5067,187.3468,131.5686,181.3244,131.2883,175.3019,131.9488,169.2794,132.1437,163.2569,132.0158,157.2345,132.117,151.212,131.618,145.1895,131.7523,139.1671,131.4674,133.1446,131.8704,127.1221,131.8481,121.0997,132.0314,115.0772,131.5622,109.0547,131.6194,103.0323,131.9661,97.0098,132.0404,90.9873,131.3925,84.9649,131.5837,78.9424,131.7,72.9199" style="stroke:#181818;stroke-width:0.6;"/><polygon fill="#FFFFFF" points="335.7,148.0184,335.7,148.0604,336.9,147.9355,338.1,148.057,339.3,148.0983,340.5,147.8757,341.7,148.0184,341.6534,148.0184,341.4441,153.9453,341.4699,159.8722,341.6591,165.7991,341.2852,171.726,342.0322,177.6529,341.3218,183.5798,341.5813,189.5067,341.9592,195.4336,341.6485,201.3605,341.7409,207.2874,341.6808,213.2143,341.8071,219.1412,341.8435,225.0681,342.0514,230.995,342.1026,236.9219,342.1076,242.8488,341.8528,248.7757,341.9782,254.7026,342.1213,260.6295,341.2673,266.5564,342.1071,272.4833,341.5221,278.4102,342.0203,284.3371,341.403,290.264,341.6589,296.1909,342.145,302.1178,341.6708,308.0447,341.7632,313.9716,341.9032,319.8985,341.9497,325.8254,341.6977,331.7523,341.8723,337.6792,341.3565,343.6061,341.8706,349.533,342.0289,355.4599,341.9667,361.3868,341.7,367.3137,341.7,367.4363,340.5,367.2171,339.3,367.1832,338.1,367.1894,336.9,367.3019,335.7,367.3137,335.5821,367.3137,336.1088,361.3868,335.5952,355.4599,335.4942,349.533,335.837,343.6061,335.2999,337.6792,335.3885,331.7523,336.0894,325.8254,335.9614,319.8985,336.1407,313.9716,335.5069,308.0447,335.8915,302.1178,336.0543,296.1909,335.4166,290.264,335.6425,284.3371,335.7756,278.4102,336.0911,272.4833,335.6975,266.5564,335.9775,260.6295,335.3677,254.7026,335.2936,248.7757,336.0022,242.8488,335.2698,236.9219,336.0054,230.995,335.824,225.0681,335.5392,219.1412,335.4877,213.2143,335.9753,207.2874,335.5204,201.3605,336.0551,195.4336,335.3684,189.5067,336.0705,183.5798,335.9906,177.6529,335.847,171.726,335.7283,165.7991,336.136,159.8722,336.0681,153.9453,335.7,148.0184" style="stroke:#181818;stroke-width:0.6;"/><polygon fill="#FFFFFF" points="461.4,199.5422,461.4,199.5842,462.6,199.4593,463.8,199.5808,465,199.6221,466.2,199.3995,467.4,199.5422,467.3534,199.5422,467.1441,205.4206,467.1699,211.2991,467.3591,217.1776,466.9852,223.056,467.7322,228.9345,467.0218,234.8129,467.4,240.6914,467.4,240.6519,466.2,240.7778,465,240.6743,463.8,240.7051,462.6,240.685,461.4,240.6914,461.5071,240.6914,461.5435,234.8129,461.7514,228.9345,461.8026,223.056,461.8076,217.1776,461.5528,211.2991,461.6782,205.4206,461.4,199.5422" style="stroke:#181818;stroke-width:0.6;"/><polygon fill="#FFFFFF" points="550.2,259.466,550.2,259.5081,551.4,259.3832,552.6,259.5047,553.8,259.546,555,259.3233,556.2,259.466,556.1845,259.466,556.1147,263.2209,556.1233,266.9759,556.1864,270.7308,556.0617,274.4857,556.2,278.2406,556.2,278.3514,555,278.1146,553.8,278.2011,552.6,278.327,551.4,278.2235,550.2,278.2406,550.2136,278.2406,550.1936,274.4857,550.2357,270.7308,550.2478,266.9759,550.3171,263.2209,550.2,259.466" style="stroke:#181818;stroke-width:0.6;"/><polygon fill="#FFFFFF" points="648.3,329.7645,648.3,329.8065,649.5,329.6816,650.7,329.8031,651.9,329.8444,653.1,329.6218,654.3,329.7645,654.2845,329.7645,654.2147,333.5194,654.2233,337.2743,654.2864,341.0292,654.1617,344.7841,654.3,348.5391,654.3,348.6498,653.1,348.413,651.9,348.4995,650.7,348.6255,649.5,348.5219,648.3,348.5391,648.3136,348.5391,648.2936,344.7841,648.3357,341.0292,648.3478,337.2743,648.4171,333.5194,648.3,329.7645" style="stroke:#181818;stroke-width:0.6;"/><path d="M30.6,52.9453 L30.7681,52.9453 L30.2685,58.9794 L30.7546,65.0135 L30.9197,71.0476 L30.0293,77.0817 L30.5378,83.1157 L30.2588,89.1498 L30.2932,95.1839 L30.5455,101.218 L30.0469,107.2521 L31.0429,113.2862 L30.0958,119.3203 L30.4418,125.3544 L30.9456,131.3884 L30.5314,137.4225 L30.6546,143.4566 L30.5744,149.4907 L30.7428,155.5248 L30.7913,161.5589 L31.0686,167.593 L31.1368,173.6271 L31.1434,179.6611 L30.8037,185.6952 L30.9709,191.7293 L31.1618,197.7634 L30.0231,203.7975 L31.1428,209.8316 L30.3628,215.8657 L31.027,221.8998 L30.204,227.9338 L30.5452,233.9679 L31.1933,240.002 L30.561,246.0361 L30.6842,252.0702 L30.8709,258.1043 L30.933,264.1384 L30.5969,270.1725 L30.8298,276.2065 L30.1421,282.2406 L30.8275,288.2747 L31.0386,294.3088 L30.9556,300.3429 L31.0904,306.377 L30.2135,312.4111 L30.0783,318.4451 L30.1029,324.4792 L30.5529,330.5133 L30.4428,336.5474 L31.1451,342.5815 L30.4603,348.6156 L30.3256,354.6497 L30.7826,360.6838 L30.0665,366.7178 L30.1847,372.7519 L31.1192,378.786 L30.9485,384.8201 L31.1876,390.8542 L30.6,396.8883 " fill="none" style="stroke:#181818;stroke-width:0.3;stroke-dasharray:5.0,5.0;"/><path d="M134.7,52.9453 L134.8681,52.9453 L134.3685,58.9794 L134.8546,65.0135 L135.0197,71.0476 L134.1293,77.0817 L134.6378,83.1157 L134.3588,89.1498 L134.3932,95.1839 L134.6455,101.218 L134.1469,107.2521 L135.1429,113.2862 L134.1958,119.3203 L134.5418,125.3544 L135.0456,131.3884 L134.6314,137.4225 L134.7546,143.4566 L134.6744,149.4907 L134.8428,155.5248 L134.8913,161.5589 L135.1686,167.593 L135.2368,173.6271 L135.2434,179.6611 L134.9037,185.6952 L135.0709,191.7293 L135.2618,197.7634 L134.1231,203.7975 L135.2428,209.8316 L134.4628,215.8657 L135.127,221.8998 L134.304,227.9338 L134.6452,233.9679 L135.2933,240.002 L134.661,246.0361 L134.7842,252.0702 L134.9709,258.1043 L135.033,264.1384 L134.6969,270.1725 L134.9298,276.2065 L134.2421,282.2406 L134.9275,288.2747 L135.1386,294.3088 L135.0556,300.3429 L135.1904,306.377 L134.3135,312.4111 L134.1783,318.4451 L134.2029,324.4792 L134.6529,330.5133 L134.5428,336.5474 L135.2451,342.5815 L134.5603,348.6156 L134.4256,354.6497 L134.8826,360.6838 L134.1665,366.7178 L134.2847,372.7519 L135.2192,378.786 L135.0485,384.8201 L135.2876,390.8542 L134.7,396.8883 " fill="none" style="stroke:#181818;stroke-width:0.3;stroke-dasharray:5.0,5.0;"/><path d="M338.7,52.9453 L338.8681,52.9453 L338.3685,58.9794 L338.8546,65.0135 L339.0197,71.0476 L338.1293,77.0817 L338.6378,83.1157 L338.3588,89.1498 L338.3932,95.1839 L338.6455,101.218 L338.1469,107.2521 L339.1429,113.2862 L338.1958,119.3203 L338.5418,125.3544 L339.0456,131.3884 L338.6314,137.4225 L338.7546,143.4566 L338.6744,149.4907 L338.8428,155.5248 L338.8913,161.5589 L339.1686,167.593 L339.2368,173.6271 L339.2434,179.6611 L338.9037,185.6952 L339.0709,191.7293 L339.2618,197.7634 L338.1231,203.7975 L339.2428,209.8316 L338.4628,215.8657 L339.127,221.8998 L338.304,227.9338 L338.6452,233.9679 L339.2933,240.002 L338.661,246.0361 L338.7842,252.0702 L338.9709,258.1043 L339.033,264.1384 L338.6969,270.1725 L338.9298,276.2065 L338.2421,282.2406 L338.9275,288.2747 L339.1386,294.3088 L339.0556,300.3429 L339.1904,306.377 L338.3135,312.4111 L338.1783,318.4451 L338.2029,324.4792 L338.6529,330.5133 L338.5428,336.5474 L339.2451,342.5815 L338.5603,348.6156 L338.4256,354.6497 L338.8826,360.6838 L338.1665,366.7178 L338.2847,372.7519 L339.2192,378.786 L339.0485,384.8201 L339.2876,390.8542 L338.7,396.8883 " fill="none" style="stroke:#181818;stroke-width:0.3;stroke-dasharray:5.0,5.0;"/><path d="M464.1,52.9453 L464.2681,52.9453 L463.7685,58.9794 L464.2546,65.0135 L464.4197,71.0476 L463.5293,77.0817 L464.0378,83.1157 L463.7588,89.1498 L463.7932,95.1839 L464.0455,101.218 L463.5469,107.2521 L464.5429,113.2862 L463.5958,119.3203 L463.9418,125.3544 L464.4456,131.3884 L464.0314,137.4225 L464.1546,143.4566 L464.0744,149.4907 L464.2428,155.5248 L464.2913,161.5589 L464.5686,167.593 L464.6368,173.6271 L464.6434,179.6611 L464.3037,185.6952 L464.4709,191.7293 L464.6618,197.7634 L463.5231,203.7975 L464.6428,209.8316 L463.8628,215.8657 L464.527,221.8998 L463.704,227.9338 L464.0452,233.9679 L464.6933,240.002 L464.061,246.0361 L464.1842,252.0702 L464.3709,258.1043 L464.433,264.1384 L464.0969,270.1725 L464.3298,276.2065 L463.6421,282.2406 L464.3275,288.2747 L464.5386,294.3088 L464.4556,300.3429 L464.5904,306.377 L463.7135,312.4111 L463.5783,318.4451 L463.6029,324.4792 L464.0529,330.5133 L463.9428,336.5474 L464.6451,342.5815 L463.9603,348.6156 L463.8256,354.6497 L464.2826,360.6838 L463.5665,366.7178 L463.6847,372.7519 L464.6192,378.786 L464.4485,384.8201 L464.6876,390.8542 L464.1,396.8883 " fill="none" style="stroke:#181818;stroke-width:0.3;stroke-dasharray:5.0,5.0;"/><path d="M552.9,52.9453 L553.0681,52.9453 L552.5685,58.9794 L553.0546,65.0135 L553.2197,71.0476 L552.3293,77.0817 L552.8378,83.1157 L552.5588,89.1498 L552.5932,95.1839 L552.8455,101.218 L552.3469,107.2521 L553.3429,113.2862 L552.3958,119.3203 L552.7418,125.3544 L553.2456,131.3884 L552.8314,137.4225 L552.9546,143.4566 L552.8744,149.4907 L553.0428,155.5248 L553.0913,161.5589 L553.3686,167.593 L553.4368,173.6271 L553.4434,179.6611 L553.1037,185.6952 L553.2709,191.7293 L553.4618,197.7634 L552.3231,203.7975 L553.4428,209.8316 L552.6628,215.8657 L553.327,221.8998 L552.504,227.9338 L552.8452,233.9679 L553.4933,240.002 L552.861,246.0361 L552.9842,252.0702 L553.1709,258.1043 L553.233,264.1384 L552.8969,270.1725 L553.1298,276.2065 L552.4421,282.2406 L553.1275,288.2747 L553.3386,294.3088 L553.2556,300.3429 L553.3904,306.377 L552.5135,312.4111 L552.3783,318.4451 L552.4029,324.4792 L552.8529,330.5133 L552.7428,336.5474 L553.4451,342.5815 L552.7603,348.6156 L552.6256,354.6497 L553.0826,360.6838 L552.3665,366.7178 L552.4847,372.7519 L553.4192,378.786 L553.2485,384.8201 L553.4876,390.8542 L552.9,396.8883 " fill="none" style="stroke:#181818;stroke-width:0.3;stroke-dasharray:5.0,5.0;"/><path d="M651.3,52.9453 L651.4681,52.9453 L650.9685,58.9794 L651.4546,65.0135 L651.6197,71.0476 L650.7293,77.0817 L651.2378,83.1157 L650.9588,89.1498 L650.9932,95.1839 L651.2455,101.218 L650.7469,107.2521 L651.7429,113.2862 L650.7958,119.3203 L651.1418,125.3544 L651.6456,131.3884 L651.2314,137.4225 L651.3546,143.4566 L651.2744,149.4907 L651.4428,155.5248 L651.4913,161.5589 L651.7686,167.593 L651.8368,173.6271 L651.8434,179.6611 L651.5037,185.6952 L651.6709,191.7293 L651.8618,197.7634 L650.7231,203.7975 L651.8428,209.8316 L651.0628,215.8657 L651.727,221.8998 L650.904,227.9338 L651.2452,233.9679 L651.8933,240.002 L651.261,246.0361 L651.3842,252.0702 L651.5709,258.1043 L651.633,264.1384 L651.2969,270.1725 L651.5298,276.2065 L650.8421,282.2406 L651.5275,288.2747 L651.7386,294.3088 L651.6556,300.3429 L651.7904,306.377 L650.9135,312.4111 L650.7783,318.4451 L650.8029,324.4792 L651.2529,330.5133 L651.1428,336.5474 L651.8451,342.5815 L651.1603,348.6156 L651.0256,354.6497 L651.4826,360.6838 L650.7665,366.7178 L650.8847,372.7519 L651.8192,378.786 L651.6485,384.8201 L651.8876,390.8542 L651.3,396.8883 " fill="none" style="stroke:#181818;stroke-width:0.3;stroke-dasharray:5.0,5.0;"/><text fill="#000000" font-family="FG Virgil" font-size="8.4" lengthAdjust="spacing" textLength="52.2" x="3" y="50.8371">CafeteriaUser</text><polygon fill="#E3E3E3" points="35.7265,12.0402,35.0229,13.0016,34.1907,14.4097,33.0005,15.3586,31.7498,15.8776,30.7525,15.9226,29.4708,15.2736,28.2614,14.8496,27.3434,13.9888,26.8619,13.0033,26.5764,12.2186,26.2966,11.1937,25.8425,10.3117,26.1915,9.4505,26.4972,8.5072,27.6444,7.7612,28.4515,6.7931,29.4506,6.4717,30.6382,6.1949,32.1613,6.3593,32.9955,6.7527,33.9653,6.9311,35.1446,8.1393,35.5557,9.4147,35.7343,10.285,35.532,11.7191" style="stroke:#181818;stroke-width:0.3;"/><path d="M30.9,15.6727 L31.0121,15.6727 L30.679,18.9127 L31.0031,22.1527 L31.1132,25.3927 L30.5195,28.6327 L30.9,31.8727 M23.1,20.4727 L23.1,20.4312 L26.22,20.2452 L29.34,20.2681 L32.46,20.4363 L35.58,20.1039 L38.7,20.4727 M30.9,31.8727 L31.1231,32.066 L29.086,33.4525 L27.7003,35.4036 L26.3941,37.4235 L24.6254,39.0427 L23.1,40.8727 M30.9,31.8727 L30.9275,31.8965 L32.4471,33.6615 L34.092,35.535 L35.6764,37.3562 L37.3761,39.2772 L38.7,40.8727 " fill="none" style="stroke:#181818;stroke-width:0.3;"/><text fill="#000000" font-family="FG Virgil" font-size="8.4" lengthAdjust="spacing" textLength="52.2" x="3" y="405.3527">CafeteriaUser</text><polygon fill="#E3E3E3" points="35.7265,413.7285,35.0229,414.6899,34.1907,416.098,33.0005,417.0469,31.7498,417.5659,30.7525,417.6109,29.4708,416.9619,28.2614,416.5379,27.3434,415.6771,26.8619,414.6916,26.5764,413.9069,26.2966,412.882,25.8425,412,26.1915,411.1388,26.4972,410.1955,27.6444,409.4494,28.4515,408.4814,29.4506,408.16,30.6382,407.8831,32.1613,408.0476,32.9955,408.441,33.9653,408.6193,35.1446,409.8275,35.5557,411.103,35.7343,411.9733,35.532,413.4074" style="stroke:#181818;stroke-width:0.3;"/><path d="M30.9,417.3609 L31.0121,417.3609 L30.679,420.6009 L31.0031,423.8409 L31.1132,427.0809 L30.5195,430.3209 L30.9,433.5609 M23.1,422.1609 L23.1,422.1195 L26.22,421.9335 L29.34,421.9564 L32.46,422.1246 L35.58,421.7922 L38.7,422.1609 M30.9,433.5609 L31.1231,433.7543 L29.086,435.1408 L27.7003,437.0919 L26.3941,439.1118 L24.6254,440.731 L23.1,442.5609 M30.9,433.5609 L30.9275,433.5848 L32.4471,435.3498 L34.092,437.2233 L35.6764,439.0445 L37.3761,440.9655 L38.7,442.5609 " fill="none" style="stroke:#181818;stroke-width:0.3;"/><polygon fill="#E3E3E3" points="74.4,21.6,74.4,21.7261,80.43,21.3514,86.46,21.716,92.49,21.8398,98.52,21.172,104.55,21.5534,110.58,21.3441,116.61,21.3699,122.64,21.5591,128.67,21.1852,134.7,21.9322,140.73,21.2218,146.76,21.4813,152.79,21.8592,158.82,21.5485,164.85,21.6409,170.88,21.5808,176.91,21.7071,182.94,21.7435,188.97,21.9514,195,21.6,195.0514,21.724,195.2641,21.8134,195.4438,21.8228,195.6719,21.9493,195.9023,22.0812,196.0607,22.0393,195.9274,21.9841,196.2739,22.3034,196.1816,22.4409,196.4229,22.7166,196.3207,22.85,196.5,23.1,196.4589,23.1,196.945,28.6491,196.4708,34.1981,196.5632,39.7472,196.7032,45.2963,196.5,50.8453,196.5769,50.8772,196.4114,51.0571,196.3773,51.2916,196.1306,51.4379,196.2011,51.7156,196.0607,51.906,196.1026,52.0073,195.8826,52.076,195.6833,52.195,195.3873,52.0803,195.1622,52.1369,195,52.3453,195,51.9725,188.97,52.31,182.94,52.2274,176.91,52.7542,170.88,52.2405,164.85,52.1395,158.82,52.4823,152.79,51.9452,146.76,52.0338,140.73,52.7347,134.7,52.6067,128.67,52.786,122.64,52.1522,116.61,52.5368,110.58,52.6996,104.55,52.0619,98.52,52.2878,92.49,52.4209,86.46,52.7364,80.43,52.3428,74.4,52.3453,74.4354,52.4308,74.1455,52.1551,73.9239,52.0444,73.8021,52.1748,73.4966,51.8614,73.3393,51.906,73.4334,51.9449,73.2897,51.7097,73.1141,51.4612,73.0104,51.2425,73.0726,51.0926,72.9,50.8453,72.7204,50.8453,73.2551,45.2963,72.5684,39.7472,73.2705,34.1981,73.1906,28.6491,72.9,23.1,72.9453,23.1187,72.9966,22.8915,73.21,22.7313,73.277,22.5106,73.2827,22.2644,73.3393,22.0393,73.3599,22.0889,73.5415,21.9274,73.8184,21.996,73.9876,21.8044,74.2011,21.7198,74.4,21.6" style="stroke:#181818;stroke-width:0.3;"/><text fill="#000000" font-family="FG Virgil" font-size="8.4" font-style="italic" lengthAdjust="spacing" textLength="57" x="106.2" y="34.8645">&#171;presentation&#187;</text><text fill="#000000" font-family="FG Virgil" font-size="8.4" lengthAdjust="spacing" textLength="115.2" x="77.1" y="46.0371">ConsultUserCardMovementsUI</text><polygon fill="#E3E3E3" points="74.4,396.2883,74.4,396.4144,80.43,396.0397,86.46,396.4043,92.49,396.5281,98.52,395.8602,104.55,396.2417,110.58,396.0324,116.61,396.0582,122.64,396.2474,128.67,395.8735,134.7,396.6205,140.73,395.9101,146.76,396.1696,152.79,396.5474,158.82,396.2368,164.85,396.3292,170.88,396.2691,176.91,396.3954,182.94,396.4318,188.97,396.6397,195,396.2883,195.0514,396.4123,195.2641,396.5017,195.4438,396.5111,195.6719,396.6375,195.9023,396.7695,196.0607,396.7276,195.9274,396.6724,196.2739,396.9917,196.1816,397.1292,196.4229,397.4049,196.3207,397.5383,196.5,397.7883,196.4589,397.7883,196.945,403.3373,196.4708,408.8864,196.5632,414.4355,196.7032,419.9845,196.5,425.5336,196.5769,425.5655,196.4114,425.7454,196.3773,425.9798,196.1306,426.1262,196.2011,426.4039,196.0607,426.5943,196.1026,426.6955,195.8826,426.7643,195.6833,426.8833,195.3873,426.7686,195.1622,426.8252,195,427.0336,195,426.6608,188.97,426.9983,182.94,426.9157,176.91,427.4424,170.88,426.9288,164.85,426.8278,158.82,427.1706,152.79,426.6335,146.76,426.7221,140.73,427.423,134.7,427.295,128.67,427.4743,122.64,426.8405,116.61,427.2251,110.58,427.3878,104.55,426.7502,98.52,426.9761,92.49,427.1092,86.46,427.4246,80.43,427.0311,74.4,427.0336,74.4354,427.1191,74.1455,426.8434,73.9239,426.7327,73.8021,426.863,73.4966,426.5496,73.3393,426.5943,73.4334,426.6332,73.2897,426.3979,73.1141,426.1495,73.0104,425.9308,73.0726,425.7808,72.9,425.5336,72.7204,425.5336,73.2551,419.9845,72.5684,414.4355,73.2705,408.8864,73.1906,403.3373,72.9,397.7883,72.9453,397.807,72.9966,397.5798,73.21,397.4196,73.277,397.1988,73.2827,396.9527,73.3393,396.7276,73.3599,396.7772,73.5415,396.6157,73.8184,396.6843,73.9876,396.4926,74.2011,396.408,74.4,396.2883" style="stroke:#181818;stroke-width:0.3;"/><text fill="#000000" font-family="FG Virgil" font-size="8.4" font-style="italic" lengthAdjust="spacing" textLength="57" x="106.2" y="409.5527">&#171;presentation&#187;</text><text fill="#000000" font-family="FG Virgil" font-size="8.4" lengthAdjust="spacing" textLength="115.2" x="77.1" y="420.7254">ConsultUserCardMovementsUI</text><polygon fill="#E3E3E3" points="263.4,21.6,263.4,21.7261,269.424,21.3514,275.448,21.716,281.472,21.8398,287.496,21.172,293.52,21.5534,299.544,21.3441,305.568,21.3699,311.592,21.5591,317.616,21.1852,323.64,21.9322,329.664,21.2218,335.688,21.4813,341.712,21.8592,347.736,21.5485,353.76,21.6409,359.784,21.5808,365.808,21.7071,371.832,21.7435,377.856,21.9514,383.88,22.0026,389.904,22.0076,395.928,21.7528,401.952,21.8782,407.976,22.0213,414,21.6,413.9448,21.4667,414.2641,21.8132,414.4016,21.7209,414.6773,21.9622,414.8106,21.86,415.0607,22.0393,415.048,22.0341,415.2856,22.3082,415.2274,22.4599,415.3437,22.6838,415.4747,22.9138,415.5,23.1,415.7497,23.1,415.4977,28.6491,415.6723,34.1981,415.1565,39.7472,415.6706,45.2963,415.5,50.8453,415.6013,50.8873,415.4943,51.0915,415.4375,51.3165,415.1471,51.4447,415.028,51.6439,415.0607,51.906,415.0131,51.7912,414.844,51.983,414.6214,52.0454,414.4764,52.2955,414.1988,52.2252,414,52.3453,414,52.1395,407.976,52.4823,401.952,51.9452,395.928,52.0338,389.904,52.7347,383.88,52.6067,377.856,52.786,371.832,52.1522,365.808,52.5368,359.784,52.6996,353.76,52.0619,347.736,52.2878,341.712,52.4209,335.688,52.7364,329.664,52.3428,323.64,52.6229,317.616,52.013,311.592,51.939,305.568,52.6475,299.544,51.9151,293.52,52.6507,287.496,52.4693,281.472,52.1846,275.448,52.133,269.424,52.6206,263.4,52.3453,263.3771,52.29,263.2332,52.3668,262.9334,52.0674,262.8109,52.1958,262.5885,52.0833,262.3393,51.906,262.3846,51.9247,262.2602,51.6975,262.2979,51.5373,262.1891,51.3165,262.0191,51.0704,261.9,50.8453,262.0609,50.8453,261.8218,45.2963,262.3299,39.7472,261.9929,34.1981,262.0035,28.6491,261.9,23.1,261.7876,23.0534,261.913,22.8569,262.1738,22.7164,262.243,22.4965,262.2435,22.2482,262.3393,22.0393,262.3147,21.9798,262.5347,21.911,262.7111,21.7368,263.0075,21.8524,263.2445,21.8245,263.4,21.6" style="stroke:#181818;stroke-width:0.3;"/><text fill="#000000" font-family="FG Virgil" font-size="8.4" font-style="italic" lengthAdjust="spacing" textLength="50.4" x="313.5" y="34.8645">&#171;application&#187;</text><text fill="#000000" font-family="FG Virgil" font-size="8.4" lengthAdjust="spacing" textLength="145.2" x="266.1" y="46.0371">ConsultUserCardMovementsController</text><polygon fill="#E3E3E3" points="263.4,396.2883,263.4,396.4144,269.424,396.0397,275.448,396.4043,281.472,396.5281,287.496,395.8602,293.52,396.2417,299.544,396.0324,305.568,396.0582,311.592,396.2474,317.616,395.8735,323.64,396.6205,329.664,395.9101,335.688,396.1696,341.712,396.5474,347.736,396.2368,353.76,396.3292,359.784,396.2691,365.808,396.3954,371.832,396.4318,377.856,396.6397,383.88,396.6909,389.904,396.6958,395.928,396.4411,401.952,396.5664,407.976,396.7096,414,396.2883,413.9448,396.155,414.2641,396.5015,414.4016,396.4092,414.6773,396.6505,414.8106,396.5483,415.0607,396.7276,415.048,396.7224,415.2856,396.9965,415.2274,397.1482,415.3437,397.3721,415.4747,397.6021,415.5,397.7883,415.7497,397.7883,415.4977,403.3373,415.6723,408.8864,415.1565,414.4355,415.6706,419.9845,415.5,425.5336,415.6013,425.5756,415.4943,425.7797,415.4375,426.0048,415.1471,426.133,415.028,426.3322,415.0607,426.5943,415.0131,426.4794,414.844,426.6712,414.6214,426.7337,414.4764,426.9838,414.1988,426.9134,414,427.0336,414,426.8278,407.976,427.1706,401.952,426.6335,395.928,426.7221,389.904,427.423,383.88,427.295,377.856,427.4743,371.832,426.8405,365.808,427.2251,359.784,427.3878,353.76,426.7502,347.736,426.9761,341.712,427.1092,335.688,427.4246,329.664,427.0311,323.64,427.3111,317.616,426.7013,311.592,426.6272,305.568,427.3358,299.544,426.6034,293.52,427.339,287.496,427.1576,281.472,426.8728,275.448,426.8213,269.424,427.3088,263.4,427.0336,263.3771,426.9783,263.2332,427.0551,262.9334,426.7557,262.8109,426.8841,262.5885,426.7716,262.3393,426.5943,262.3846,426.613,262.2602,426.3857,262.2979,426.2256,262.1891,426.0048,262.0191,425.7587,261.9,425.5336,262.0609,425.5336,261.8218,419.9845,262.3299,414.4355,261.9929,408.8864,262.0035,403.3373,261.9,397.7883,261.7876,397.7417,261.913,397.5451,262.1738,397.4046,262.243,397.1848,262.2435,396.9365,262.3393,396.7276,262.3147,396.6681,262.5347,396.5993,262.7111,396.4251,263.0075,396.5407,263.2445,396.5128,263.4,396.2883" style="stroke:#181818;stroke-width:0.3;"/><text fill="#000000" font-family="FG Virgil" font-size="8.4" font-style="italic" lengthAdjust="spacing" textLength="50.4" x="313.5" y="409.5527">&#171;application&#187;</text><text fill="#000000" font-family="FG Virgil" font-size="8.4" lengthAdjust="spacing" textLength="145.2" x="266.1" y="420.7254">ConsultUserCardMovementsController</text><polygon fill="#E3E3E3" points="423,21.6,423,21.7261,428.9143,21.3514,434.8286,21.716,440.7429,21.8398,446.6571,21.172,452.5714,21.5534,458.4857,21.3441,464.4,21.3699,470.3143,21.5591,476.2286,21.1852,482.1429,21.9322,488.0571,21.2218,493.9714,21.4813,499.8857,21.8592,505.8,21.6,505.7934,21.5842,506.0174,21.7005,506.2218,21.7698,506.4501,21.8966,506.6668,21.9957,506.8607,22.0393,506.9689,22.0842,507.0725,22.3028,507.1619,22.5156,507.1713,22.6952,507.2978,22.9233,507.3,23.1,507.7213,23.1,506.8673,28.6491,507.7071,34.1981,507.1221,39.7472,507.6203,45.2963,507.3,50.8453,507.2085,50.8074,507.1995,51.0522,507.2613,51.3263,507.0274,51.478,506.968,51.7019,506.8607,51.906,506.8866,51.9685,506.6804,52.0708,506.4361,52.081,506.2462,52.2226,505.9683,52.1517,505.8,52.3453,505.8,52.5159,499.8857,52.6742,493.9714,52.612,488.0571,52.7131,482.1429,52.0555,476.2286,51.954,470.3143,51.9725,464.4,52.31,458.4857,52.2274,452.5714,52.7542,446.6571,52.2405,440.7429,52.1395,434.8286,52.4823,428.9143,51.9452,423,52.3453,422.9603,52.2494,422.8375,52.3774,422.6091,52.2501,422.4198,52.2174,422.1268,51.9344,421.9393,51.906,421.9983,51.9304,421.9606,51.739,421.6763,51.4456,421.658,51.2622,421.6111,51.0671,421.5,50.8453,421.8911,50.8453,421.4975,45.2963,421.7775,39.7472,421.1677,34.1981,421.0936,28.6491,421.5,23.1,421.5931,23.1385,421.4554,22.833,421.7698,22.7147,421.8018,22.4794,421.802,22.231,421.9393,22.0393,421.9123,21.974,422.1866,22.0362,422.3407,21.8083,422.621,21.8851,422.7456,21.5857,423,21.6" style="stroke:#181818;stroke-width:0.3;"/><text fill="#000000" font-family="FG Virgil" font-size="8.4" font-style="italic" lengthAdjust="spacing" textLength="50.4" x="439.2" y="34.8645">&#171;application&#187;</text><text fill="#000000" font-family="FG Virgil" font-size="8.4" lengthAdjust="spacing" textLength="77.4" x="425.7" y="46.0371">AuthorizationService</text><polygon fill="#E3E3E3" points="423,396.2883,423,396.4144,428.9143,396.0397,434.8286,396.4043,440.7429,396.5281,446.6571,395.8602,452.5714,396.2417,458.4857,396.0324,464.4,396.0582,470.3143,396.2474,476.2286,395.8735,482.1429,396.6205,488.0571,395.9101,493.9714,396.1696,499.8857,396.5474,505.8,396.2883,505.7934,396.2724,506.0174,396.3888,506.2218,396.4581,506.4501,396.5849,506.6668,396.6839,506.8607,396.7276,506.9689,396.7724,507.0725,396.9911,507.1619,397.2039,507.1713,397.3835,507.2978,397.6116,507.3,397.7883,507.7213,397.7883,506.8673,403.3373,507.7071,408.8864,507.1221,414.4355,507.6203,419.9845,507.3,425.5336,507.2085,425.4957,507.1995,425.7405,507.2613,426.0146,507.0274,426.1663,506.968,426.3902,506.8607,426.5943,506.8866,426.6568,506.6804,426.759,506.4361,426.7693,506.2462,426.9109,505.9683,426.84,505.8,427.0336,505.8,427.2042,499.8857,427.3625,493.9714,427.3003,488.0571,427.4014,482.1429,426.7437,476.2286,426.6423,470.3143,426.6608,464.4,426.9983,458.4857,426.9157,452.5714,427.4424,446.6571,426.9288,440.7429,426.8278,434.8286,427.1706,428.9143,426.6335,423,427.0336,422.9603,426.9377,422.8375,427.0656,422.6091,426.9384,422.4198,426.9057,422.1268,426.6227,421.9393,426.5943,421.9983,426.6187,421.9606,426.4273,421.6763,426.1338,421.658,425.9505,421.6111,425.7554,421.5,425.5336,421.8911,425.5336,421.4975,419.9845,421.7775,414.4355,421.1677,408.8864,421.0936,403.3373,421.5,397.7883,421.5931,397.8268,421.4554,397.5213,421.7698,397.403,421.8018,397.1677,421.802,396.9192,421.9393,396.7276,421.9123,396.6623,422.1866,396.7245,422.3407,396.4966,422.621,396.5734,422.7456,396.274,423,396.2883" style="stroke:#181818;stroke-width:0.3;"/><text fill="#000000" font-family="FG Virgil" font-size="8.4" font-style="italic" lengthAdjust="spacing" textLength="50.4" x="439.2" y="409.5527">&#171;application&#187;</text><text fill="#000000" font-family="FG Virgil" font-size="8.4" lengthAdjust="spacing" textLength="77.4" x="425.7" y="420.7254">AuthorizationService</text><polygon fill="#E3E3E3" points="514.8,21.6,514.8,21.7261,520.7077,21.3514,526.6154,21.716,532.5231,21.8398,538.4308,21.172,544.3385,21.5534,550.2462,21.3441,556.1538,21.3699,562.0615,21.5591,567.9692,21.1852,573.8769,21.9322,579.7846,21.2218,585.6923,21.4813,591.6,21.6,591.6331,21.6798,591.8056,21.672,592.0295,21.7883,592.234,21.8577,592.4622,21.9845,592.6607,22.0393,592.7048,22.0576,592.8567,22.2963,592.9604,22.515,593.0498,22.7277,593.0592,22.9074,593.1,23.1,593.3782,23.1,593.5213,28.6491,592.6673,34.1981,593.5071,39.7472,592.9221,45.2963,593.1,50.8453,593.1986,50.8862,592.9207,51.0196,592.9116,51.2643,592.9734,51.5385,592.7395,51.6901,592.6607,51.906,592.6687,51.9254,592.4744,52.0564,592.2683,52.1586,592.024,52.1689,591.8341,52.3105,591.6,52.3453,591.6,52.0019,585.6923,52.5159,579.7846,52.6742,573.8769,52.612,567.9692,52.7131,562.0615,52.0555,556.1538,51.954,550.2462,51.9725,544.3385,52.31,538.4308,52.2274,532.5231,52.7542,526.6154,52.2405,520.7077,52.1395,514.8,52.3453,514.8175,52.3875,514.5368,52.1342,514.336,52.0737,514.2133,52.2016,513.9848,52.0743,513.7393,51.906,513.8751,51.9622,513.592,51.6692,513.6226,51.5061,513.5848,51.3148,513.3006,51.0213,513.3,50.8453,513.2425,50.8453,513.3756,45.2963,513.6911,39.7472,513.2975,34.1981,513.5775,28.6491,513.3,23.1,513.1977,23.0576,513.2627,22.836,513.5688,22.7143,513.4311,22.4087,513.7455,22.2904,513.7393,22.0393,513.7552,22.0775,513.931,21.902,514.1365,21.7982,514.4108,21.8605,514.565,21.6326,514.8,21.6" style="stroke:#181818;stroke-width:0.3;"/><text fill="#000000" font-family="FG Virgil" font-size="8.4" font-style="italic" lengthAdjust="spacing" textLength="37.2" x="534.6" y="34.8645">&#171;domain&#187;</text><text fill="#000000" font-family="FG Virgil" font-size="8.4" lengthAdjust="spacing" textLength="71.4" x="517.5" y="46.0371">user:CafeteriaUser</text><polygon fill="#E3E3E3" points="514.8,396.2883,514.8,396.4144,520.7077,396.0397,526.6154,396.4043,532.5231,396.5281,538.4308,395.8602,544.3385,396.2417,550.2462,396.0324,556.1538,396.0582,562.0615,396.2474,567.9692,395.8735,573.8769,396.6205,579.7846,395.9101,585.6923,396.1696,591.6,396.2883,591.6331,396.3681,591.8056,396.3603,592.0295,396.4766,592.234,396.546,592.4622,396.6727,592.6607,396.7276,592.7048,396.7459,592.8567,396.9846,592.9604,397.2032,593.0498,397.416,593.0592,397.5956,593.1,397.7883,593.3782,397.7883,593.5213,403.3373,592.6673,408.8864,593.5071,414.4355,592.9221,419.9845,593.1,425.5336,593.1986,425.5744,592.9207,425.7078,592.9116,425.9526,592.9734,426.2267,592.7395,426.3784,592.6607,426.5943,592.6687,426.6137,592.4744,426.7447,592.2683,426.8469,592.024,426.8571,591.8341,426.9988,591.6,427.0336,591.6,426.6901,585.6923,427.2042,579.7846,427.3625,573.8769,427.3003,567.9692,427.4014,562.0615,426.7437,556.1538,426.6423,550.2462,426.6608,544.3385,426.9983,538.4308,426.9157,532.5231,427.4424,526.6154,426.9288,520.7077,426.8278,514.8,427.0336,514.8175,427.0758,514.5368,426.8225,514.336,426.7619,514.2133,426.8899,513.9848,426.7626,513.7393,426.5943,513.8751,426.6505,513.592,426.3575,513.6226,426.1944,513.5848,426.003,513.3006,425.7096,513.3,425.5336,513.2425,425.5336,513.3756,419.9845,513.6911,414.4355,513.2975,408.8864,513.5775,403.3373,513.3,397.7883,513.1977,397.7459,513.2627,397.5243,513.5688,397.4026,513.4311,397.097,513.7455,396.9787,513.7393,396.7276,513.7552,396.7658,513.931,396.5902,514.1365,396.4865,514.4108,396.5488,514.565,396.3208,514.8,396.2883" style="stroke:#181818;stroke-width:0.3;"/><text fill="#000000" font-family="FG Virgil" font-size="8.4" font-style="italic" lengthAdjust="spacing" textLength="37.2" x="534.6" y="409.5527">&#171;domain&#187;</text><text fill="#000000" font-family="FG Virgil" font-size="8.4" lengthAdjust="spacing" textLength="71.4" x="517.5" y="420.7254">user:CafeteriaUser</text><text fill="#000000" font-family="FG Virgil" font-size="8.4" font-style="italic" lengthAdjust="spacing" textLength="47.4" x="625.8" y="39.6645">&#171;repository&#187;</text><text fill="#000000" font-family="FG Virgil" font-size="8.4" lengthAdjust="spacing" textLength="98.4" x="600.3" y="50.8371">CardMovementRepository</text><path d="M640.5,9 L640.5,9 L640.5391,9.0402 L641.503,7.8708 L642.6959,6.937 L643.8143,5.9264 L644.6874,4.6636 L645.9,3.75 L645.8971,3.7295 L646.9644,3.4873 L648.0459,3.3487 L649.1375,3.282 L650.1946,2.9674 L651.3,3 L651.3,3 L651.3203,3.1462 L652.3569,2.9835 L653.4527,3.2478 L654.5558,3.5641 L655.6169,3.5773 L656.7,3.75 L656.7127,3.763 L657.7741,4.7939 L658.8932,5.8841 L659.9845,6.9457 L661.1289,8.062 L662.1,9 L662.4579,9 L662.4623,12.12 L662.2358,15.24 L662.3472,18.36 L662.4745,21.48 L662.1,24.6 L662.1,24.6 L661.9659,24.4621 L661.1461,25.7797 L659.8849,26.6433 L658.9592,27.8521 L657.688,28.7054 L656.7,29.85 L656.6975,29.8319 L655.6472,30.1959 L654.5382,30.1371 L653.4639,30.3278 L652.3924,30.5394 L651.3,30.6 L651.3,30.6 L651.3153,30.7099 L650.2199,30.449 L649.1505,30.3759 L648.039,29.9988 L646.9904,30.0751 L645.9,29.85 L646.0019,29.9548 L644.9026,28.885 L643.854,27.8672 L642.5702,26.6076 L641.4588,25.5253 L640.5,24.6 L640.1686,24.6 L640.4686,21.48 L640.3952,18.36 L640.8634,15.24 L640.4068,12.12 L640.5,9 " fill="#E3E3E3" style="stroke:#181818;stroke-width:0.8999999999999999;"/><path d="M640.5,9 L640.5,9 L640.5391,9.0402 L641.503,9.9708 L642.6959,11.137 L643.8143,12.2264 L644.6874,13.0636 L645.9,14.25 L645.8971,14.2295 L646.9644,14.2873 L648.0459,14.4487 L649.1375,14.682 L650.1946,14.6674 L651.3,15 L651.3,15 L651.3203,15.1462 L652.3569,14.6835 L653.4527,14.6478 L654.5558,14.6641 L655.6169,14.3773 L656.7,14.25 L656.7127,14.263 L657.7741,13.1939 L658.8932,12.1841 L659.9845,11.1457 L661.1289,10.162 L662.1,9 " fill="none" style="stroke:#181818;stroke-width:0.8999999999999999;"/><text fill="#000000" font-family="FG Virgil" font-size="8.4" font-style="italic" lengthAdjust="spacing" textLength="47.4" x="625.8" y="405.3527">&#171;repository&#187;</text><text fill="#000000" font-family="FG Virgil" font-size="8.4" lengthAdjust="spacing" textLength="98.4" x="600.3" y="416.5254">CardMovementRepository</text><path d="M640.5,424.6336 L640.5,424.6336 L640.5391,424.6738 L641.503,423.5044 L642.6959,422.5705 L643.8143,421.56 L644.6874,420.2972 L645.9,419.3836 L645.8971,419.3631 L646.9644,419.1209 L648.0459,418.9823 L649.1375,418.9156 L650.1946,418.601 L651.3,418.6336 L651.3,418.6336 L651.3203,418.7798 L652.3569,418.6171 L653.4527,418.8814 L654.5558,419.1977 L655.6169,419.2109 L656.7,419.3836 L656.7127,419.3966 L657.7741,420.4275 L658.8932,421.5177 L659.9845,422.5793 L661.1289,423.6956 L662.1,424.6336 L662.4579,424.6336 L662.4623,427.7536 L662.2358,430.8736 L662.3472,433.9936 L662.4745,437.1136 L662.1,440.2336 L662.1,440.2336 L661.9659,440.0957 L661.1461,441.4133 L659.8849,442.2769 L658.9592,443.4857 L657.688,444.3389 L656.7,445.4836 L656.6975,445.4655 L655.6472,445.8295 L654.5382,445.7707 L653.4639,445.9614 L652.3924,446.173 L651.3,446.2336 L651.3,446.2336 L651.3153,446.3435 L650.2199,446.0826 L649.1505,446.0095 L648.039,445.6324 L646.9904,445.7087 L645.9,445.4836 L646.0019,445.5884 L644.9026,444.5186 L643.854,443.5008 L642.5702,442.2412 L641.4588,441.1589 L640.5,440.2336 L640.1686,440.2336 L640.4686,437.1136 L640.3952,433.9936 L640.8634,430.8736 L640.4068,427.7536 L640.5,424.6336 " fill="#E3E3E3" style="stroke:#181818;stroke-width:0.8999999999999999;"/><path d="M640.5,424.6336 L640.5,424.6336 L640.5391,424.6738 L641.503,425.6044 L642.6959,426.7705 L643.8143,427.86 L644.6874,428.6972 L645.9,429.8836 L645.8971,429.8631 L646.9644,429.9209 L648.0459,430.0823 L649.1375,430.3156 L650.1946,430.301 L651.3,430.6336 L651.3,430.6336 L651.3203,430.7798 L652.3569,430.3171 L653.4527,430.2814 L654.5558,430.2977 L655.6169,430.0109 L656.7,429.8836 L656.7127,429.8966 L657.7741,428.8275 L658.8932,427.8177 L659.9845,426.7793 L661.1289,425.7956 L662.1,424.6336 " fill="none" style="stroke:#181818;stroke-width:0.8999999999999999;"/><polygon fill="#FFFFFF" points="131.7,72.9199,131.7,72.962,132.9,72.8371,134.1,72.9586,135.3,72.9999,136.5,72.7772,137.7,72.9199,137.6534,72.9199,137.4441,78.9424,137.4699,84.9649,137.6591,90.9873,137.2852,97.0098,138.0322,103.0323,137.3218,109.0547,137.5813,115.0772,137.9592,121.0997,137.6485,127.1221,137.7409,133.1446,137.6808,139.1671,137.8071,145.1895,137.8435,151.212,138.0514,157.2345,138.1026,163.2569,138.1076,169.2794,137.8528,175.3019,137.9782,181.3244,138.1213,187.3468,137.2673,193.3693,138.1071,199.3918,137.5221,205.4142,138.0203,211.4367,137.403,217.4592,137.6589,223.4816,138.145,229.5041,137.6708,235.5266,137.7632,241.549,137.9032,247.5715,137.9497,253.594,137.6977,259.6164,137.8723,265.6389,137.3565,271.6614,137.8706,277.6838,138.0289,283.7063,137.9667,289.7288,138.0678,295.7513,137.4102,301.7737,137.3087,307.7962,137.3272,313.8187,137.6647,319.8411,137.5821,325.8636,138.1088,331.8861,137.5952,337.9085,137.4942,343.931,137.837,349.9535,137.2999,355.9759,137.3885,361.9984,138.0894,368.0209,137.9614,374.0433,138.1407,380.0658,137.7,386.0883,137.7,386.0239,136.5,386.1521,135.3,386.2064,134.1,385.9938,132.9,386.0691,131.7,386.0883,131.7756,386.0883,132.0911,380.0658,131.6975,374.0433,131.9775,368.0209,131.3677,361.9984,131.2936,355.9759,132.0022,349.9535,131.2698,343.931,132.0054,337.9085,131.824,331.8861,131.5392,325.8636,131.4877,319.8411,131.9753,313.8187,131.5204,307.7962,132.0551,301.7737,131.3684,295.7513,132.0705,289.7288,131.9906,283.7063,131.847,277.6838,131.7283,271.6614,132.136,265.6389,132.0681,259.6164,131.8016,253.594,131.8609,247.5715,131.6218,241.549,132.1299,235.5266,131.7929,229.5041,131.8035,223.4816,131.335,217.4592,131.4569,211.4367,132.0184,205.4142,131.9579,199.3918,131.6742,193.3693,131.5067,187.3468,131.5686,181.3244,131.2883,175.3019,131.9488,169.2794,132.1437,163.2569,132.0158,157.2345,132.117,151.212,131.618,145.1895,131.7523,139.1671,131.4674,133.1446,131.8704,127.1221,131.8481,121.0997,132.0314,115.0772,131.5622,109.0547,131.6194,103.0323,131.9661,97.0098,132.0404,90.9873,131.3925,84.9649,131.5837,78.9424,131.7,72.9199" style="stroke:#181818;stroke-width:0.6;"/><polygon fill="#FFFFFF" points="335.7,148.0184,335.7,148.0604,336.9,147.9355,338.1,148.057,339.3,148.0983,340.5,147.8757,341.7,148.0184,341.6534,148.0184,341.4441,153.9453,341.4699,159.8722,341.6591,165.7991,341.2852,171.726,342.0322,177.6529,341.3218,183.5798,341.5813,189.5067,341.9592,195.4336,341.6485,201.3605,341.7409,207.2874,341.6808,213.2143,341.8071,219.1412,341.8435,225.0681,342.0514,230.995,342.1026,236.9219,342.1076,242.8488,341.8528,248.7757,341.9782,254.7026,342.1213,260.6295,341.2673,266.5564,342.1071,272.4833,341.5221,278.4102,342.0203,284.3371,341.403,290.264,341.6589,296.1909,342.145,302.1178,341.6708,308.0447,341.7632,313.9716,341.9032,319.8985,341.9497,325.8254,341.6977,331.7523,341.8723,337.6792,341.3565,343.6061,341.8706,349.533,342.0289,355.4599,341.9667,361.3868,341.7,367.3137,341.7,367.4363,340.5,367.2171,339.3,367.1832,338.1,367.1894,336.9,367.3019,335.7,367.3137,335.5821,367.3137,336.1088,361.3868,335.5952,355.4599,335.4942,349.533,335.837,343.6061,335.2999,337.6792,335.3885,331.7523,336.0894,325.8254,335.9614,319.8985,336.1407,313.9716,335.5069,308.0447,335.8915,302.1178,336.0543,296.1909,335.4166,290.264,335.6425,284.3371,335.7756,278.4102,336.0911,272.4833,335.6975,266.5564,335.9775,260.6295,335.3677,254.7026,335.2936,248.7757,336.0022,242.8488,335.2698,236.9219,336.0054,230.995,335.824,225.0681,335.5392,219.1412,335.4877,213.2143,335.9753,207.2874,335.5204,201.3605,336.0551,195.4336,335.3684,189.5067,336.0705,183.5798,335.9906,177.6529,335.847,171.726,335.7283,165.7991,336.136,159.8722,336.0681,153.9453,335.7,148.0184" style="stroke:#181818;stroke-width:0.6;"/><polygon fill="#FFFFFF" points="461.4,199.5422,461.4,199.5842,462.6,199.4593,463.8,199.5808,465,199.6221,466.2,199.3995,467.4,199.5422,467.3534,199.5422,467.1441,205.4206,467.1699,211.2991,467.3591,217.1776,466.9852,223.056,467.7322,228.9345,467.0218,234.8129,467.4,240.6914,467.4,240.6519,466.2,240.7778,465,240.6743,463.8,240.7051,462.6,240.685,461.4,240.6914,461.5071,240.6914,461.5435,234.8129,461.7514,228.9345,461.8026,223.056,461.8076,217.1776,461.5528,211.2991,461.6782,205.4206,461.4,199.5422" style="stroke:#181818;stroke-width:0.6;"/><polygon fill="#FFFFFF" points="550.2,259.466,550.2,259.5081,551.4,259.3832,552.6,259.5047,553.8,259.546,555,259.3233,556.2,259.466,556.1845,259.466,556.1147,263.2209,556.1233,266.9759,556.1864,270.7308,556.0617,274.4857,556.2,278.2406,556.2,278.3514,555,278.1146,553.8,278.2011,552.6,278.327,551.4,278.2235,550.2,278.2406,550.2136,278.2406,550.1936,274.4857,550.2357,270.7308,550.2478,266.9759,550.3171,263.2209,550.2,259.466" style="stroke:#181818;stroke-width:0.6;"/><polygon fill="#FFFFFF" points="648.3,329.7645,648.3,329.8065,649.5,329.6816,650.7,329.8031,651.9,329.8444,653.1,329.6218,654.3,329.7645,654.2845,329.7645,654.2147,333.5194,654.2233,337.2743,654.2864,341.0292,654.1617,344.7841,654.3,348.5391,654.3,348.6498,653.1,348.413,651.9,348.4995,650.7,348.6255,649.5,348.5219,648.3,348.5391,648.3136,348.5391,648.2936,344.7841,648.3357,341.0292,648.3478,337.2743,648.4171,333.5194,648.3,329.7645" style="stroke:#181818;stroke-width:0.6;"/><polygon fill="#181818" points="124.5,70.5199,124.5156,70.559,125.6692,70.923,126.9144,71.5158,128.1297,72.0341,129.247,72.3074,130.5,72.9199,130.4942,72.9055,129.2683,73.3207,128.0715,73.8087,126.8949,74.3473,125.6486,74.7115,124.5,75.3199,124.5783,75.3982,124.8909,74.7508,125.432,74.332,126.0011,73.941,126.4079,73.3878,126.9,72.9199,126.9097,72.9296,126.4155,72.4354,125.9652,71.9852,125.4938,71.5137,125.0628,71.0828,124.5,70.5199" style="stroke:#181818;stroke-width:0.6;"/><path d="M30.9,72.9199 L30.9,73.0881 L36.975,72.5885 L43.05,73.0746 L49.125,73.2397 L55.2,72.3492 L61.275,72.8578 L67.35,72.5787 L73.425,72.6131 L79.5,72.8654 L85.575,72.3668 L91.65,73.3628 L97.725,72.4157 L103.8,72.7617 L109.875,73.2655 L115.95,72.8513 L122.025,72.9745 L128.1,72.9199 " fill="none" style="stroke:#181818;stroke-width:0.6;stroke-dasharray:2.0,2.0;"/><text fill="#000000" font-family="FG Virgil" font-size="7.8" lengthAdjust="spacing" textLength="87" x="35.1" y="69.7623">Consult Card Movements</text><polygon fill="#181818" points="37.5,89.2945,37.5156,89.3336,36.2692,89.6976,35.1144,90.2904,33.9297,90.8087,32.647,91.0821,31.5,91.6945,31.4942,91.6801,32.6683,92.0953,33.8715,92.5833,35.0949,93.1219,36.2486,93.4861,37.5,94.0945,37.5783,94.1728,36.9309,93.5254,36.512,93.1066,36.1211,92.7156,35.5679,92.1624,35.1,91.6945,35.1097,91.7042,35.5755,91.21,36.0852,90.7598,36.5738,90.2883,37.1028,89.8574,37.5,89.2945" style="stroke:#181818;stroke-width:0.6;"/><path d="M33.9,91.6945 L33.9,91.8627 L39.975,91.3631 L46.05,91.8492 L52.125,92.0143 L58.2,91.1238 L64.275,91.6324 L70.35,91.3533 L76.425,91.3877 L82.5,91.64 L88.575,91.1414 L94.65,92.1374 L100.725,91.1903 L106.8,91.5363 L112.875,92.0401 L118.95,91.6259 L125.025,91.7491 L131.1,91.6945 " fill="none" style="stroke:#181818;stroke-width:0.6;stroke-dasharray:2.0,2.0;"/><text fill="#000000" font-family="FG Virgil" font-size="7.8" lengthAdjust="spacing" textLength="36.6" x="41.1" y="88.5369">Ask Dates</text><polygon fill="#181818" points="124.5,108.0691,124.5156,108.1082,125.6692,108.4722,126.9144,109.065,128.1297,109.5834,129.247,109.8567,130.5,110.4691,130.4942,110.4547,129.2683,110.8699,128.0715,111.3579,126.8949,111.8965,125.6486,112.2608,124.5,112.8691,124.5783,112.9474,124.8909,112.3,125.432,111.8812,126.0011,111.4902,126.4079,110.937,126.9,110.4691,126.9097,110.4788,126.4155,109.9846,125.9652,109.5344,125.4938,109.063,125.0628,108.632,124.5,108.0691" style="stroke:#181818;stroke-width:0.6;"/><path d="M30.9,110.4691 L30.9,110.6373 L36.975,110.1377 L43.05,110.6238 L49.125,110.7889 L55.2,109.8984 L61.275,110.407 L67.35,110.1279 L73.425,110.1623 L79.5,110.4146 L85.575,109.916 L91.65,110.9121 L97.725,109.9649 L103.8,110.3109 L109.875,110.8147 L115.95,110.4005 L122.025,110.5237 L128.1,110.4691 " fill="none" style="stroke:#181818;stroke-width:0.6;stroke-dasharray:2.0,2.0;"/><text fill="#000000" font-family="FG Virgil" font-size="7.8" lengthAdjust="spacing" textLength="69.6" x="35.1" y="107.3115">Begin and End Date</text><polygon fill="#181818" points="331.5,126.8438,331.5156,126.8828,332.6692,127.2468,333.9144,127.8396,335.1297,128.358,336.247,128.6313,337.5,129.2438,337.4942,129.2293,336.2683,129.6446,335.0715,130.1325,333.8949,130.6711,332.6486,131.0354,331.5,131.6437,331.5783,131.722,331.8909,131.0746,332.432,130.6558,333.0011,130.2648,333.4079,129.7116,333.9,129.2438,333.9097,129.2534,333.4155,128.7592,332.9652,128.309,332.4938,127.8376,332.0628,127.4066,331.5,126.8438" style="stroke:#181818;stroke-width:0.6;"/><path d="M137.7,129.2438 L137.7,129.4119 L143.6818,128.9123 L149.6636,129.3984 L155.6455,129.5635 L161.6273,128.673 L167.6091,129.1816 L173.5909,128.9026 L179.5727,128.937 L185.5545,129.1892 L191.5364,128.6907 L197.5182,129.6867 L203.5,128.7395 L209.4818,129.0855 L215.4636,129.5893 L221.4455,129.1751 L227.4273,129.2983 L233.4091,129.2182 L239.3909,129.3866 L245.3727,129.4351 L251.3545,129.7123 L257.3364,129.7806 L263.3182,129.7872 L269.3,129.4475 L275.2818,129.6146 L281.2636,129.8055 L287.2455,128.6668 L293.2273,129.7866 L299.2091,129.0065 L305.1909,129.6708 L311.1727,128.8477 L317.1545,129.189 L323.1364,129.837 L329.1182,129.2048 L335.1,129.2438 " fill="none" style="stroke:#181818;stroke-width:0.6;"/><text fill="#000000" font-family="FG Virgil" font-size="7.8" lengthAdjust="spacing" textLength="21.6" x="141.9" y="126.0861">create</text><polygon fill="#181818" points="328.5,145.6184,328.5156,145.6574,329.6692,146.0214,330.9144,146.6143,332.1297,147.1326,333.247,147.4059,334.5,148.0184,334.4942,148.0039,333.2683,148.4192,332.0715,148.9071,330.8949,149.4457,329.6486,149.81,328.5,150.4184,328.5783,150.4967,328.8909,149.8492,329.432,149.4304,330.0011,149.0394,330.4079,148.4862,330.9,148.0184,330.9097,148.028,330.4155,147.5338,329.9652,147.0836,329.4938,146.6122,329.0628,146.1812,328.5,145.6184" style="stroke:#181818;stroke-width:0.6;"/><path d="M137.7,148.0184 L137.7,148.1865 L143.775,147.6869 L149.85,148.173 L155.925,148.3381 L162,147.4476 L168.075,147.9562 L174.15,147.6772 L180.225,147.7116 L186.3,147.9638 L192.375,147.4653 L198.45,148.4613 L204.525,147.5141 L210.6,147.8601 L216.675,148.3639 L222.75,147.9497 L228.825,148.073 L234.9,147.9928 L240.975,148.1612 L247.05,148.2097 L253.125,148.4869 L259.2,148.5552 L265.275,148.5618 L271.35,148.2221 L277.425,148.3892 L283.5,148.5801 L289.575,147.4414 L295.65,148.5612 L301.725,147.7812 L307.8,148.4454 L313.875,147.6223 L319.95,147.9636 L326.025,148.6116 L332.1,148.0184 " fill="none" style="stroke:#181818;stroke-width:0.6;"/><text fill="#000000" font-family="FG Virgil" font-size="7.8" lengthAdjust="spacing" textLength="186.6" x="141.9" y="144.8607">consultCardMovementsOnPeriod(beginDate, endDate)</text><path d="M344.4,155.8184 L344.5121,155.8184 L344.179,161.0984 L344.5031,166.3784 L344.6132,171.6584 L344.0195,176.9384 L344.4,182.2184 L344.4,182.094 L350.4261,181.536 L356.4522,181.6048 L362.4783,182.1093 L368.5043,181.1122 L374.5304,183.1042 L380.5565,181.2099 L386.5826,181.9019 L392.6087,182.9095 L398.6348,182.0811 L404.6609,182.3275 L410.687,182.1672 L416.713,182.504 L422.7391,182.601 L428.7652,183.1555 L434.7913,183.292 L440.8174,183.3052 L446.8435,182.6258 L452.8696,182.9601 L458.8957,183.3419 L464.9217,181.0645 L470.9478,183.304 L476.9739,181.744 L483,182.2184 L483.2847,182.2184 L482.736,178.1384 L482.9635,174.0584 L483.3955,169.9784 L482.974,165.8984 L483,161.8184 L483.0397,161.8581 L481.9277,160.7461 L480.757,159.5753 L479.3985,158.2169 L478.3083,157.1267 L477,155.8184 L477,154.9025 L470.9727,156.2734 L464.9455,156.6955 L458.9182,156.5296 L452.8909,156.7992 L446.8636,155.0454 L440.8364,154.7749 L434.8091,154.8241 L428.7818,155.7242 L422.7545,155.5039 L416.7273,156.9086 L410.7,155.5389 L404.6727,155.2695 L398.6455,156.1836 L392.6182,154.7514 L386.5909,154.9878 L380.5636,156.8567 L374.5364,156.5154 L368.5091,156.9935 L362.4818,155.3035 L356.4545,156.3291 L350.4273,156.763 L344.4,155.8184 " fill="#FAFAFA" style="stroke:#181818;stroke-width:0.3;"/><path d="M477,155.8184 L476.7481,155.8184 L476.9489,157.0184 L477.0672,158.2184 L477.3476,159.4184 L476.9978,160.6184 L477,161.8184 L477,162.0651 L478.2,161.523 L479.4,161.4572 L480.6,162.087 L481.8,161.436 L483,161.8184 L483.1919,162.0103 L481.8779,160.6963 L480.499,159.3173 L479.2666,158.0849 L478.373,157.1914 L477,155.8184 " fill="#FAFAFA" style="stroke:#181818;stroke-width:0.3;"/><text fill="#000000" font-family="FG Virgil" font-size="7.8" lengthAdjust="spacing" textLength="123.6" x="348" y="167.2354">hidden authorization user guarantee</text><text fill="#000000" font-family="FG Virgil" font-size="7.8" lengthAdjust="spacing" textLength="76.2" x="348" y="177.61">(see specific diagram)</text><polygon fill="#181818" points="454.2,197.1422,454.2156,197.1812,455.3692,197.5453,456.6144,198.1381,457.8297,198.6564,458.947,198.9297,460.2,199.5422,460.1942,199.5278,458.9683,199.943,457.7715,200.431,456.5949,200.9695,455.3486,201.3338,454.2,201.9422,454.2783,202.0205,454.5909,201.3731,455.132,200.9542,455.7011,200.5633,456.1079,200.0101,456.6,199.5422,456.6097,199.5518,456.1155,199.0577,455.6652,198.6074,455.1938,198.136,454.7628,197.705,454.2,197.1422" style="stroke:#181818;stroke-width:0.6;"/><path d="M341.7,199.5422 L341.7,199.7103 L347.8105,199.2107 L353.9211,199.6968 L360.0316,199.8619 L366.1421,198.9715 L372.2526,199.48 L378.3632,199.201 L384.4737,199.2354 L390.5842,199.4877 L396.6947,198.9891 L402.8053,199.9851 L408.9158,199.038 L415.0263,199.384 L421.1368,199.8877 L427.2474,199.4736 L433.3579,199.5968 L439.4684,199.5166 L445.5789,199.685 L451.6895,199.7335 L457.8,199.5422 " fill="none" style="stroke:#181818;stroke-width:0.6;"/><text fill="#000000" font-family="FG Virgil" font-size="7.8" lengthAdjust="spacing" textLength="45" x="345.9" y="196.3846">currentUser()</text><path d="M470.4,207.3422 L470.5121,207.3422 L470.179,210.5822 L470.5031,213.8222 L470.6132,217.0622 L470.0195,220.3022 L470.4,223.5422 L470.4,223.4178 L476.3,222.8598 L482.2,222.9286 L488.1,223.4331 L494,222.436 L499.9,224.428 L505.8,222.5337 L511.7,223.2258 L517.6,224.2333 L523.5,223.4049 L529.4,223.6514 L535.3,223.4911 L541.2,223.8278 L547.1,223.9248 L553,224.4793 L558.9,224.6159 L564.8,224.629 L570.7,223.9496 L576.6,223.5422 L576.8472,223.5422 L576.9745,221.5022 L576.2154,219.4622 L576.9619,217.4222 L576.4419,215.3822 L576.6,213.3422 L576.8013,213.5435 L575.2133,211.9555 L574.1742,210.9164 L573.2797,210.0219 L571.7816,208.5238 L570.6,207.3422 L570.6,207.5107 L564.7059,207.884 L558.8118,208.0082 L552.9176,207.3359 L547.0235,207.8017 L541.1294,206.4263 L535.2353,207.7972 L529.3412,208.2193 L523.4471,208.0534 L517.5529,208.323 L511.6588,206.5693 L505.7647,206.2987 L499.8706,206.3479 L493.9765,207.248 L488.0824,207.0277 L482.1882,208.4324 L476.2941,207.0627 L470.4,207.3422 " fill="#FAFAFA" style="stroke:#181818;stroke-width:0.3;"/><path d="M570.6,207.3422 L570.417,207.3422 L570.7217,208.5422 L570.2444,209.7422 L570.3231,210.9422 L570.9461,212.1422 L570.6,213.3422 L570.6,213.5745 L571.8,213.7339 L573,213.1706 L574.2,213.5124 L575.4,213.6571 L576.6,213.3422 L576.4218,213.164 L575.3638,212.106 L574.2475,210.9897 L573.2458,209.988 L571.7984,208.5406 L570.6,207.3422 " fill="#FAFAFA" style="stroke:#181818;stroke-width:0.3;"/><text fill="#000000" font-family="FG Virgil" font-size="7.8" lengthAdjust="spacing" textLength="93.6" x="474" y="218.7592">Framework implementation</text><polygon fill="#181818" points="348.3,238.2914,348.3156,238.3304,347.0692,238.6945,345.9144,239.2873,344.7297,239.8056,343.447,240.0789,342.3,240.6914,342.2942,240.677,343.4683,241.0922,344.6715,241.5802,345.8949,242.1187,347.0486,242.483,348.3,243.0914,348.3783,243.1697,347.7309,242.5223,347.312,242.1034,346.9211,241.7125,346.3679,241.1593,345.9,240.6914,345.9097,240.7011,346.3755,240.2069,346.8852,239.7567,347.3738,239.2852,347.9028,238.8542,348.3,238.2914" style="stroke:#181818;stroke-width:0.6;"/><path d="M344.7,240.6914 L344.7,240.8596 L350.655,240.3599 L356.61,240.846 L362.565,241.0111 L368.52,240.1207 L374.475,240.6292 L380.43,240.3502 L386.385,240.3846 L392.34,240.6369 L398.295,240.1383 L404.25,241.1343 L410.205,240.1872 L416.16,240.5332 L422.115,241.037 L428.07,240.6228 L434.025,240.746 L439.98,240.6658 L445.935,240.8342 L451.89,240.8827 L457.845,241.16 L463.8,240.6914 " fill="none" style="stroke:#181818;stroke-width:0.6;stroke-dasharray:2.0,2.0;"/><text fill="#000000" font-family="FG Virgil" font-size="7.8" lengthAdjust="spacing" textLength="15" x="351.9" y="237.5338">user</text><polygon fill="#181818" points="543,257.066,543.0156,257.105,544.1692,257.4691,545.4144,258.0619,546.6297,258.5802,547.747,258.8535,549,259.466,548.9942,259.4516,547.7683,259.8668,546.5715,260.3548,545.3949,260.8934,544.1486,261.2576,543,261.866,543.0783,261.9443,543.3909,261.2969,543.932,260.878,544.5011,260.4871,544.9079,259.9339,545.4,259.466,545.4097,259.4757,544.9155,258.9815,544.4652,258.5313,543.9938,258.0598,543.5628,257.6288,543,257.066" style="stroke:#181818;stroke-width:0.6;"/><path d="M341.7,259.466 L341.7,259.6342 L347.7265,259.1346 L353.7529,259.6206 L359.7794,259.7858 L365.8059,258.8953 L371.8324,259.4038 L377.8588,259.1248 L383.8853,259.1592 L389.9118,259.4115 L395.9382,258.9129 L401.9647,259.9089 L407.9912,258.9618 L414.0176,259.3078 L420.0441,259.8116 L426.0706,259.3974 L432.0971,259.5206 L438.1235,259.4405 L444.15,259.6088 L450.1765,259.6573 L456.2029,259.9346 L462.2294,260.0029 L468.2559,260.0094 L474.2824,259.6697 L480.3088,259.8369 L486.3353,260.0278 L492.3618,258.8891 L498.3882,260.0088 L504.4147,259.2288 L510.4412,259.8931 L516.4676,259.07 L522.4941,259.4112 L528.5206,260.0593 L534.5471,259.427 L540.5735,259.5503 L546.6,259.466 " fill="none" style="stroke:#181818;stroke-width:0.6;"/><text fill="#000000" font-family="FG Virgil" font-size="7.8" lengthAdjust="spacing" textLength="30" x="345.9" y="256.3084">identity()</text><polygon fill="#181818" points="348.3,275.8406,348.3156,275.8797,347.0692,276.2437,345.9144,276.8365,344.7297,277.3548,343.447,277.6282,342.3,278.2406,342.2942,278.2262,343.4683,278.6414,344.6715,279.1294,345.8949,279.668,347.0486,280.0322,348.3,280.6406,348.3783,280.7189,347.7309,280.0715,347.312,279.6527,346.9211,279.2617,346.3679,278.7085,345.9,278.2406,345.9097,278.2503,346.3755,277.7561,346.8852,277.3059,347.3738,276.8344,347.9028,276.4035,348.3,275.8406" style="stroke:#181818;stroke-width:0.6;"/><path d="M344.7,278.2406 L344.7,278.4088 L350.64,277.9092 L356.58,278.3953 L362.52,278.5604 L368.46,277.6699 L374.4,278.1785 L380.34,277.8994 L386.28,277.9338 L392.22,278.1861 L398.16,277.6875 L404.1,278.6835 L410.04,277.7364 L415.98,278.0824 L421.92,278.5862 L427.86,278.172 L433.8,278.2952 L439.74,278.2151 L445.68,278.3834 L451.62,278.4319 L457.56,278.7092 L463.5,278.7775 L469.44,278.784 L475.38,278.4443 L481.32,278.6115 L487.26,278.8024 L493.2,277.6637 L499.14,278.7834 L505.08,278.0034 L511.02,278.6677 L516.96,277.8446 L522.9,278.1858 L528.84,278.8339 L534.78,278.2016 L540.72,278.3249 L546.66,278.5115 L552.6,278.2406 " fill="none" style="stroke:#181818;stroke-width:0.6;stroke-dasharray:2.0,2.0;"/><text fill="#000000" font-family="FG Virgil" font-size="7.8" lengthAdjust="spacing" textLength="79.8" x="351.9" y="275.083">mecanographicNumber</text><path d="M344.4,286.0406 L344.5121,286.0406 L344.179,291.3206 L344.5031,296.6006 L344.6132,301.8806 L344.0195,307.1606 L344.4,312.4406 L344.4,312.3163 L350.32,311.7582 L356.24,311.827 L362.16,312.3316 L368.08,311.3344 L374,313.3265 L379.92,311.4322 L385.84,312.1242 L391.76,313.1317 L397.68,312.3034 L403.6,312.5498 L409.52,312.3895 L415.44,312.7263 L421.36,312.8232 L427.28,313.3777 L433.2,312.4406 L433.5579,312.4406 L433.5623,308.3606 L433.3358,304.2806 L433.4472,300.2006 L433.5745,296.1206 L433.2,292.0406 L432.928,291.7686 L432.2559,291.0965 L430.6882,289.5288 L429.8013,288.6419 L428.2133,287.0539 L427.2,286.0406 L427.2,285.931 L421.2857,287.2272 L415.3714,285.9626 L409.4571,286.2091 L403.5429,286.5824 L397.6286,286.7066 L391.7143,286.0344 L385.8,286.5002 L379.8857,285.1248 L373.9714,286.4956 L368.0571,286.9177 L362.1429,286.7519 L356.2286,287.0215 L350.3143,285.2677 L344.4,286.0406 " fill="#FAFAFA" style="stroke:#181818;stroke-width:0.3;"/><path d="M427.2,286.0406 L426.8522,286.0406 L426.8686,287.2406 L427.1686,288.4406 L427.0952,289.6406 L427.5634,290.8406 L427.2,292.0406 L427.2,291.9475 L428.4,291.8577 L429.6,292.1624 L430.8,291.685 L432,291.7638 L433.2,292.0406 L433.4447,292.2854 L432.1643,291.0049 L431.077,289.9176 L429.4786,288.3193 L428.5204,287.361 L427.2,286.0406 " fill="#FAFAFA" style="stroke:#181818;stroke-width:0.3;"/><text fill="#000000" font-family="FG Virgil" font-size="7.8" lengthAdjust="spacing" textLength="76.2" x="348" y="297.4576">Simplified persistence</text><text fill="#000000" font-family="FG Virgil" font-size="7.8" lengthAdjust="spacing" textLength="76.2" x="348" y="307.8322">(see specific diagram)</text><polygon fill="#181818" points="641.1,327.3645,641.1156,327.4035,642.2692,327.7675,643.5144,328.3603,644.7297,328.8787,645.847,329.152,647.1,329.7645,647.0942,329.75,645.8683,330.1653,644.6715,330.6532,643.4949,331.1918,642.2486,331.5561,641.1,332.1645,641.1783,332.2427,641.4909,331.5953,642.032,331.1765,642.6011,330.7855,643.0079,330.2323,643.5,329.7645,643.5097,329.7741,643.0155,329.2799,642.5652,328.8297,642.0938,328.3583,641.6628,327.9273,641.1,327.3645" style="stroke:#181818;stroke-width:0.6;"/><path d="M341.7,329.7645 L341.7,329.9326 L347.6412,329.433 L353.5824,329.9191 L359.5235,330.0842 L365.4647,329.1937 L371.4059,329.7023 L377.3471,329.4233 L383.2882,329.4577 L389.2294,329.7099 L395.1706,329.2114 L401.1118,330.2074 L407.0529,329.2602 L412.9941,329.6062 L418.9353,330.11 L424.8765,329.6958 L430.8176,329.819 L436.7588,329.7389 L442.7,329.9073 L448.6412,329.9558 L454.5824,330.233 L460.5235,330.3013 L466.4647,330.3079 L472.4059,329.9682 L478.3471,330.1353 L484.2882,330.3262 L490.2294,329.1875 L496.1706,330.3073 L502.1118,329.5273 L508.0529,330.1915 L513.9941,329.3684 L519.9353,329.7097 L525.8765,330.3577 L531.8176,329.7255 L537.7588,329.8487 L543.7,330.0354 L549.6412,330.0974 L555.5824,329.7613 L561.5235,329.9942 L567.4647,329.3065 L573.4059,329.992 L579.3471,330.203 L585.2882,330.1201 L591.2294,330.2549 L597.1706,329.378 L603.1118,329.2427 L609.0529,329.2673 L614.9941,329.7173 L620.9353,329.6072 L626.8765,330.3096 L632.8176,329.6247 L638.7588,329.49 L644.7,329.7645 " fill="none" style="stroke:#181818;stroke-width:0.6;"/><text fill="#000000" font-family="FG Virgil" font-size="7.8" lengthAdjust="spacing" textLength="295.2" x="345.9" y="326.6068">findByMecanographicNumberAndPeriod(mecanographicNumber, beginDate, endDate)</text><polygon fill="#181818" points="348.3,346.1391,348.3156,346.1781,347.0692,346.5421,345.9144,347.135,344.7297,347.6533,343.447,347.9266,342.3,348.5391,342.2942,348.5246,343.4683,348.9399,344.6715,349.4278,345.8949,349.9664,347.0486,350.3307,348.3,350.9391,348.3783,351.0174,347.7309,350.3699,347.312,349.9511,346.9211,349.5601,346.3679,349.0069,345.9,348.5391,345.9097,348.5487,346.3755,348.0545,346.8852,347.6043,347.3738,347.1329,347.9028,346.7019,348.3,346.1391" style="stroke:#181818;stroke-width:0.6;"/><path d="M344.7,348.5391 L344.7,348.7072 L350.7,348.2076 L356.7,348.6937 L362.7,348.8588 L368.7,347.9683 L374.7,348.4769 L380.7,348.1979 L386.7,348.2323 L392.7,348.4845 L398.7,347.986 L404.7,348.982 L410.7,348.0348 L416.7,348.3808 L422.7,348.8846 L428.7,348.4704 L434.7,348.5937 L440.7,348.5135 L446.7,348.6819 L452.7,348.7304 L458.7,349.0076 L464.7,349.0759 L470.7,349.0825 L476.7,348.7428 L482.7,348.9099 L488.7,349.1008 L494.7,347.9621 L500.7,349.0819 L506.7,348.3019 L512.7,348.9661 L518.7,348.143 L524.7,348.4843 L530.7,349.1323 L536.7,348.5001 L542.7,348.6233 L548.7,348.81 L554.7,348.872 L560.7,348.5359 L566.7,348.7688 L572.7,348.0811 L578.7,348.7666 L584.7,348.9776 L590.7,348.8947 L596.7,349.0295 L602.7,348.1526 L608.7,348.0173 L614.7,348.0419 L620.7,348.492 L626.7,348.3818 L632.7,349.0842 L638.7,348.3993 L644.7,348.2646 L650.7,348.5391 " fill="none" style="stroke:#181818;stroke-width:0.6;stroke-dasharray:2.0,2.0;"/><text fill="#000000" font-family="FG Virgil" font-size="7.8" lengthAdjust="spacing" textLength="54.6" x="351.9" y="345.3814">cardMovements</text><polygon fill="#181818" points="144.3,364.9137,144.3156,364.9527,143.0692,365.3167,141.9144,365.9096,140.7297,366.4279,139.447,366.7012,138.3,367.3137,138.2942,367.2992,139.4683,367.7145,140.6715,368.2025,141.8949,368.741,143.0486,369.1053,144.3,369.7137,144.3783,369.792,143.7309,369.1445,143.312,368.7257,142.9211,368.3348,142.3679,367.7815,141.9,367.3137,141.9097,367.3233,142.3755,366.8292,142.8852,366.3789,143.3738,365.9075,143.9028,365.4765,144.3,364.9137" style="stroke:#181818;stroke-width:0.6;"/><path d="M140.7,367.3137 L140.7,367.4818 L146.6818,366.9822 L152.6636,367.4683 L158.6455,367.6334 L164.6273,366.743 L170.6091,367.2515 L176.5909,366.9725 L182.5727,367.0069 L188.5545,367.2591 L194.5364,366.7606 L200.5182,367.7566 L206.5,366.8094 L212.4818,367.1555 L218.4636,367.6592 L224.4455,367.2451 L230.4273,367.3683 L236.4091,367.2881 L242.3909,367.4565 L248.3727,367.505 L254.3545,367.7822 L260.3364,367.8505 L266.3182,367.8571 L272.3,367.5174 L278.2818,367.6845 L284.2636,367.8755 L290.2455,366.7367 L296.2273,367.8565 L302.2091,367.0765 L308.1909,367.7407 L314.1727,366.9177 L320.1545,367.2589 L326.1364,367.907 L332.1182,367.2747 L338.1,367.3137 " fill="none" style="stroke:#181818;stroke-width:0.6;stroke-dasharray:2.0,2.0;"/><text fill="#000000" font-family="FG Virgil" font-size="7.8" lengthAdjust="spacing" textLength="54.6" x="147.9" y="364.1561">cardMovements</text><polygon fill="#181818" points="37.5,383.6883,37.5156,383.7273,36.2692,384.0913,35.1144,384.6842,33.9297,385.2025,32.647,385.4758,31.5,386.0883,31.4942,386.0739,32.6683,386.4891,33.8715,386.9771,35.0949,387.5156,36.2486,387.8799,37.5,388.4883,37.5783,388.5666,36.9309,387.9191,36.512,387.5003,36.1211,387.1094,35.5679,386.5562,35.1,386.0883,35.1097,386.0979,35.5755,385.6038,36.0852,385.1535,36.5738,384.6821,37.1028,384.2511,37.5,383.6883" style="stroke:#181818;stroke-width:0.6;"/><path d="M33.9,386.0883 L33.9,386.2564 L39.7941,385.7568 L45.6882,386.2429 L51.5824,386.408 L57.4765,385.5176 L63.3706,386.0261 L69.2647,385.7471 L75.1588,385.7815 L81.0529,386.0338 L86.9471,385.5352 L92.8412,386.5312 L98.7353,385.5841 L104.6294,385.9301 L110.5235,386.4338 L116.4176,386.0197 L122.3118,386.1429 L128.2059,386.0627 L134.1,386.0883 " fill="none" style="stroke:#181818;stroke-width:0.6;stroke-dasharray:2.0,2.0;"/><text fill="#000000" font-family="FG Virgil" font-size="7.8" lengthAdjust="spacing" textLength="86.4" x="41.1" y="382.9307">Display Card Movements</text><!--SRC=[dLHDR-8m4BtdLunwAbBv0n52edIxuj3kQX5xsilK7f8HYHtP3eZzzJiE7t6We6eZGHBFlEStRyRn6pODEgoXHADtZaCW0y6rbFbpgBR6gjBPcYuZ3QeD5hGC-uh0aGf9JDCQsogyMXFUKQ2lt-4tkuAh9CUNgEsEJG5hh3nb6QfW7SnnJO4SuygJ0_GmYykPO08hRj04c5lZXJqcpD7fDxkbcapmgqNCb__9f77aPGa3MpETVWajwy7PgZhichnD9jWq5QlFo6PjAAtZlrriIMxBYY8SPNsvLNUn3wr8o0VrFaHiN7wnDR8HkEuU1Aanu0TwWbJqBsgiP_5d7u79ssJYpYy2pZeJOJoUYZtvoOAE2iu6n0Rm5WD9JWPoYPCHqM5pcFaDl4ZKTx4XuJCLebQc2Bx9BsPbPuPfucKEoj6zw47Oe2y_p4-nn-h7ZxX9v7u2CZe-Z3gQi-oUwS0VBsCbuBWe0zXrsjKSIjPQ1XxJ5dRcGz7AX9f017_CevURRqZncXLenaA6TzHl4A-4LWewzbwgQPsJ2c9Z7qS3m5doCNT8DzHy6gKSNcLdsbct0QwRgdEd4pr4d_B70sy57aiRP6gwhsDOLZ-MER0O5pZiRvNLvmuPaz6-abUJGcF5tQPazTxM7xVLtgA_q-nbj4nQI1eQSfwzVEiK_Kzx-rEMmvgDVjw_NIkV6NsSsa_AUe9RetnbPB_PK59orCUNPoWzFBSSlEJj2OGkdkXhbWIT7hJLGX37JyGB-wR2_ULt9K6k5ly0]--></g></svg>