<?xml version="1.0" encoding="us-ascii" standalone="no"?><svg xmlns="http://www.w3.org/2000/svg" xmlns:xlink="http://www.w3.org/1999/xlink" contentStyleType="text/css" height="580.8px" preserveAspectRatio="none" style="width:927px;height:580px;background:#FFFFFF;" version="1.1" viewBox="0 0 927 580" width="927.2px" zoomAndPan="magnify"><defs/><g><polygon fill="#FFFFFF" points="337.2,97.2266,337.2,97.2826,338.8,97.1161,340.4,97.2781,342,97.3331,343.6,97.0363,345.2,97.2266,345.1378,97.2266,344.8588,105.193,344.8932,113.1595,345.1455,121.126,344.6469,129.0925,345.6429,137.059,344.6958,145.0255,345.0418,152.992,345.5456,160.9585,345.1314,168.9249,345.2546,176.8914,345.1744,184.8579,345.3428,192.8244,345.3913,200.7909,345.6686,208.7574,345.7368,216.7239,345.7434,224.6903,345.4037,232.6568,345.5709,240.6233,345.7618,248.5898,344.6231,256.5563,345.7428,264.5228,344.9628,272.4893,345.627,280.4557,344.804,288.4222,345.1452,296.3887,345.7933,304.3552,345.161,312.3217,345.2842,320.2882,345.4709,328.2547,345.533,336.2211,345.1969,344.1876,345.4298,352.1541,344.7421,360.1206,345.4275,368.0871,345.6386,376.0536,345.5556,384.0201,345.6904,391.9865,344.8135,399.953,344.6783,407.9195,344.7029,415.886,345.1529,423.8525,345.0428,431.819,345.7451,439.7855,345.0603,447.7519,344.9256,455.7184,345.3826,463.6849,344.6665,471.6514,344.7847,479.6179,345.2,487.5844,345.2,487.7574,343.6,487.7006,342,487.7802,340.4,487.4986,338.8,487.6695,337.2,487.5844,337.6723,487.5844,336.8221,479.6179,337.1233,471.6514,337.3008,463.6849,337.7214,455.7184,337.1966,447.7519,337.5701,439.7855,336.757,431.819,336.6582,423.8525,337.6029,415.886,336.6264,407.9195,337.6072,399.953,337.3653,391.9865,336.9857,384.0201,336.917,376.0536,337.567,368.0871,336.9605,360.1206,337.6735,352.1541,336.7578,344.1876,337.6939,336.2211,337.5874,328.2547,337.396,320.2882,337.2378,312.3217,337.7813,304.3552,337.6909,296.3887,337.3354,288.4222,337.4146,280.4557,337.0958,272.4893,337.7732,264.5228,337.3239,256.5563,337.3381,248.5898,336.7133,240.6233,336.8758,232.6568,337.6246,224.6903,337.5438,216.7239,337.1657,208.7574,336.9423,200.7909,337.0249,192.8244,336.6511,184.8579,337.5318,176.8914,337.7917,168.9249,337.6211,160.9585,337.7559,152.992,337.0906,145.0255,337.2698,137.059,336.8899,129.0925,337.4272,121.126,337.3974,113.1595,337.6419,105.193,337.2,97.2266" style="stroke:#181818;stroke-width:0.8000000000000002;"/><polygon fill="#FFFFFF" points="582,261.2563,582,261.3123,583.6,261.1458,585.2,261.3078,586.8,261.3628,588.4,261.066,590,261.2563,589.9378,261.2563,589.6588,269.3081,589.6932,277.3599,589.9455,285.4117,589.4469,293.4635,590.4429,301.5153,589.4958,309.5671,589.8418,317.6189,590.3456,325.6708,589.9314,333.7226,590.0546,341.7744,589.9744,349.8262,590.1428,357.878,590.1913,365.9298,590.4686,373.9816,590.5368,382.0334,590.5434,390.0853,590.2037,398.1371,590.3709,406.1889,590.5618,414.2407,589.4231,422.2925,590.5428,430.3443,589.7628,438.3961,590.427,446.4479,589.604,454.4998,590,462.5516,590,462.5333,588.4,462.7493,586.8,462.5386,585.2,462.5796,583.6,462.6419,582,462.5516,582.333,462.5516,581.9969,454.4998,582.2298,446.4479,581.5421,438.3961,582.2275,430.3443,582.4386,422.2925,582.3556,414.2407,582.4904,406.1889,581.6135,398.1371,581.4783,390.0853,581.5029,382.0334,581.9529,373.9816,581.8428,365.9298,582.5451,357.878,581.8603,349.8262,581.7256,341.7744,582.1826,333.7226,581.4665,325.6708,581.5847,317.6189,582.5192,309.5671,582.3485,301.5153,582.5876,293.4635,581.7426,285.4117,582.2554,277.3599,582.4723,269.3081,582,261.2563" style="stroke:#181818;stroke-width:0.8000000000000002;"/><polygon fill="#FFFFFF" points="882,412.4859,882,412.542,883.6,412.3755,885.2,412.5375,886.8,412.5925,888.4,412.2957,890,412.4859,889.9793,412.4859,889.8863,417.4925,889.8977,422.4991,889.9818,427.5056,889.8156,432.5122,890,437.5188,890,437.6664,888.4,437.3507,886.8,437.466,885.2,437.6339,883.6,437.4959,882,437.5188,882.0182,437.5188,881.9915,432.5122,882.0476,427.5056,882.0638,422.4991,882.1562,417.4925,882,412.4859" style="stroke:#181818;stroke-width:0.8000000000000002;"/><path d="M42.4,70.5938 L42.6242,70.5938 L41.9581,78.5825 L42.6062,86.5712 L42.8263,94.5599 L41.639,102.5486 L42.3171,110.5373 L41.9451,118.526 L41.9909,126.5148 L42.3273,134.5035 L41.6625,142.4922 L42.9906,150.4809 L41.7277,158.4696 L42.189,166.4583 L42.8607,174.447 L42.3085,182.4358 L42.4728,190.4245 L42.3659,198.4132 L42.5904,206.4019 L42.6551,214.3906 L43.0247,222.3793 L43.1158,230.3681 L43.1245,238.3568 L42.6716,246.3455 L42.8945,254.3342 L43.149,262.3229 L41.6307,270.3116 L43.1237,278.3003 L42.0837,286.2891 L42.9694,294.2778 L41.872,302.2665 L42.3269,310.2552 L43.191,318.2439 L42.348,326.2326 L42.5123,334.2214 L42.7612,342.2101 L42.844,350.1988 L42.3958,358.1875 L42.7064,366.1762 L41.7894,374.1649 L42.7033,382.1536 L42.9847,390.1424 L42.8742,398.1311 L43.0539,406.1198 L41.8847,414.1085 L41.7043,422.0972 L41.7372,430.0859 L42.3372,438.0747 L42.1904,446.0634 L43.1268,454.0521 L42.2137,462.0408 L42.0341,470.0295 L42.6435,478.0182 L41.6887,486.0069 L41.8463,493.9957 L42.4,501.9844 " fill="none" style="stroke:#181818;stroke-width:0.4000000000000001;stroke-dasharray:5.0,5.0;"/><path d="M340.8,70.5938 L341.0242,70.5938 L340.3581,78.5825 L341.0062,86.5712 L341.2263,94.5599 L340.039,102.5486 L340.7171,110.5373 L340.3451,118.526 L340.3909,126.5148 L340.7273,134.5035 L340.0625,142.4922 L341.3906,150.4809 L340.1277,158.4696 L340.589,166.4583 L341.2607,174.447 L340.7085,182.4358 L340.8728,190.4245 L340.7659,198.4132 L340.9904,206.4019 L341.0551,214.3906 L341.4247,222.3793 L341.5158,230.3681 L341.5245,238.3568 L341.0716,246.3455 L341.2945,254.3342 L341.549,262.3229 L340.0307,270.3116 L341.5237,278.3003 L340.4837,286.2891 L341.3694,294.2778 L340.272,302.2665 L340.7269,310.2552 L341.591,318.2439 L340.748,326.2326 L340.9123,334.2214 L341.1612,342.2101 L341.244,350.1988 L340.7958,358.1875 L341.1064,366.1762 L340.1894,374.1649 L341.1033,382.1536 L341.3847,390.1424 L341.2742,398.1311 L341.4539,406.1198 L340.2847,414.1085 L340.1043,422.0972 L340.1372,430.0859 L340.7372,438.0747 L340.5904,446.0634 L341.5268,454.0521 L340.6137,462.0408 L340.4341,470.0295 L341.0435,478.0182 L340.0887,486.0069 L340.2463,493.9957 L340.8,501.9844 " fill="none" style="stroke:#181818;stroke-width:0.4000000000000001;stroke-dasharray:5.0,5.0;"/><path d="M585.6,70.5938 L585.8242,70.5938 L585.1581,78.5825 L585.8062,86.5712 L586.0263,94.5599 L584.839,102.5486 L585.5171,110.5373 L585.1451,118.526 L585.1909,126.5148 L585.5273,134.5035 L584.8625,142.4922 L586.1906,150.4809 L584.9277,158.4696 L585.389,166.4583 L586.0607,174.447 L585.5085,182.4358 L585.6728,190.4245 L585.5659,198.4132 L585.7904,206.4019 L585.8551,214.3906 L586.2247,222.3793 L586.3158,230.3681 L586.3245,238.3568 L585.8716,246.3455 L586.0945,254.3342 L586.349,262.3229 L584.8307,270.3116 L586.3237,278.3003 L585.2837,286.2891 L586.1694,294.2778 L585.072,302.2665 L585.5269,310.2552 L586.391,318.2439 L585.548,326.2326 L585.7123,334.2214 L585.9612,342.2101 L586.044,350.1988 L585.5958,358.1875 L585.9064,366.1762 L584.9894,374.1649 L585.9033,382.1536 L586.1847,390.1424 L586.0742,398.1311 L586.2539,406.1198 L585.0847,414.1085 L584.9043,422.0972 L584.9372,430.0859 L585.5372,438.0747 L585.3904,446.0634 L586.3268,454.0521 L585.4137,462.0408 L585.2341,470.0295 L585.8435,478.0182 L584.8887,486.0069 L585.0463,493.9957 L585.6,501.9844 " fill="none" style="stroke:#181818;stroke-width:0.4000000000000001;stroke-dasharray:5.0,5.0;"/><path d="M806.8,70.5938 L807.0242,70.5938 L806.3581,78.5825 L807.0062,86.5712 L807.2263,94.5599 L806.039,102.5486 L806.7171,110.5373 L806.3451,118.526 L806.3909,126.5148 L806.7273,134.5035 L806.0625,142.4922 L807.3906,150.4809 L806.1277,158.4696 L806.589,166.4583 L807.2607,174.447 L806.7085,182.4358 L806.8728,190.4245 L806.7659,198.4132 L806.9904,206.4019 L807.0551,214.3906 L807.4247,222.3793 L807.5158,230.3681 L807.5245,238.3568 L807.0716,246.3455 L807.2945,254.3342 L807.549,262.3229 L806.0307,270.3116 L807.5237,278.3003 L806.4837,286.2891 L807.3694,294.2778 L806.272,302.2665 L806.7269,310.2552 L807.591,318.2439 L806.748,326.2326 L806.9123,334.2214 L807.1612,342.2101 L807.244,350.1988 L806.7958,358.1875 L807.1064,366.1762 L806.1894,374.1649 L807.1033,382.1536 L807.3847,390.1424 L807.2742,398.1311 L807.4539,406.1198 L806.2847,414.1085 L806.1043,422.0972 L806.1372,430.0859 L806.7372,438.0747 L806.5904,446.0634 L807.5268,454.0521 L806.6137,462.0408 L806.4341,470.0295 L807.0435,478.0182 L806.0887,486.0069 L806.2463,493.9957 L806.8,501.9844 " fill="none" style="stroke:#181818;stroke-width:0.4000000000000001;stroke-dasharray:5.0,5.0;"/><path d="M886,70.5938 L886.2242,70.5938 L885.5581,78.5825 L886.2062,86.5712 L886.4263,94.5599 L885.239,102.5486 L885.9171,110.5373 L885.5451,118.526 L885.5909,126.5148 L885.9273,134.5035 L885.2625,142.4922 L886.5906,150.4809 L885.3277,158.4696 L885.789,166.4583 L886.4607,174.447 L885.9085,182.4358 L886.0728,190.4245 L885.9659,198.4132 L886.1904,206.4019 L886.2551,214.3906 L886.6247,222.3793 L886.7158,230.3681 L886.7245,238.3568 L886.2716,246.3455 L886.4945,254.3342 L886.749,262.3229 L885.2307,270.3116 L886.7237,278.3003 L885.6837,286.2891 L886.5694,294.2778 L885.472,302.2665 L885.9269,310.2552 L886.791,318.2439 L885.948,326.2326 L886.1123,334.2214 L886.3612,342.2101 L886.444,350.1988 L885.9958,358.1875 L886.3064,366.1762 L885.3894,374.1649 L886.3033,382.1536 L886.5847,390.1424 L886.4742,398.1311 L886.6539,406.1198 L885.4847,414.1085 L885.3043,422.0972 L885.3372,430.0859 L885.9372,438.0747 L885.7904,446.0634 L886.7268,454.0521 L885.8137,462.0408 L885.6341,470.0295 L886.2435,478.0182 L885.2887,486.0069 L885.4463,493.9957 L886,501.9844 " fill="none" style="stroke:#181818;stroke-width:0.4000000000000001;stroke-dasharray:5.0,5.0;"/><text fill="#000000" font-family="FG Virgil" font-size="11.2" lengthAdjust="spacing" textLength="72.8" x="4" y="67.7828">MenuManager</text><polygon fill="#E3E3E3" points="49.2354,16.0536,48.2972,17.3354,47.1876,19.2129,45.6007,20.4782,43.933,21.1701,42.6033,21.2302,40.8944,20.3648,39.2818,19.7995,38.0579,18.6517,37.4159,17.3378,37.0352,16.2915,36.6622,14.9249,36.0567,13.7489,36.522,12.6007,36.9296,11.343,38.4592,10.3482,39.5354,9.0575,40.8674,8.6289,42.451,8.2598,44.4817,8.4791,45.5939,9.0037,46.8871,9.2414,48.4595,10.8524,49.0076,12.553,49.2457,13.7134,48.976,15.6255" style="stroke:#181818;stroke-width:0.4000000000000001;"/><path d="M42.8,20.8969 L42.9495,20.8969 L42.5054,25.2169 L42.9374,29.5369 L43.0842,33.8569 L42.2927,38.1769 L42.8,42.4969 M32.4,27.2969 L32.4,27.2416 L36.56,26.9936 L40.72,27.0242 L44.88,27.2484 L49.04,26.8052 L53.2,27.2969 M42.8,42.4969 L43.0975,42.7547 L40.3813,44.6033 L38.5337,47.2048 L36.7921,49.898 L34.4339,52.0569 L32.4,54.4969 M42.8,42.4969 L42.8367,42.5287 L44.8628,44.882 L47.0559,47.38 L49.1685,49.8082 L51.4347,52.3696 L53.2,54.4969 " fill="none" style="stroke:#181818;stroke-width:0.4000000000000001;"/><text fill="#000000" font-family="FG Virgil" font-size="11.2" lengthAdjust="spacing" textLength="72.8" x="4" y="513.2703">MenuManager</text><polygon fill="#E3E3E3" points="49.2354,524.438,48.2972,525.7198,47.1876,527.5973,45.6007,528.8626,43.933,529.5545,42.6033,529.6145,40.8944,528.7492,39.2818,528.1839,38.0579,527.0361,37.4159,525.7221,37.0352,524.6759,36.6622,523.3093,36.0567,522.1333,36.522,520.9851,36.9296,519.7273,38.4592,518.7326,39.5354,517.4419,40.8674,517.0133,42.451,516.6442,44.4817,516.8635,45.5939,517.388,46.8871,517.6258,48.4595,519.2367,49.0076,520.9374,49.2457,522.0977,48.976,524.0099" style="stroke:#181818;stroke-width:0.4000000000000001;"/><path d="M42.8,529.2813 L42.9495,529.2813 L42.5054,533.6013 L42.9374,537.9213 L43.0842,542.2413 L42.2927,546.5613 L42.8,550.8813 M32.4,535.6813 L32.4,535.626 L36.56,535.378 L40.72,535.4085 L44.88,535.6328 L49.04,535.1896 L53.2,535.6813 M42.8,550.8813 L43.0975,551.1391 L40.3813,552.9877 L38.5337,555.5891 L36.7921,558.2824 L34.4339,560.4413 L32.4,562.8813 M42.8,550.8813 L42.8367,550.913 L44.8628,553.2664 L47.0559,555.7644 L49.1685,558.1926 L51.4347,560.754 L53.2,562.8813 " fill="none" style="stroke:#181818;stroke-width:0.4000000000000001;"/><polygon fill="#E3E3E3" points="299.6,28.8,299.6,28.9681,307.92,28.4685,316.24,28.9546,324.56,29.1197,332.88,28.2293,341.2,28.7378,349.52,28.4588,357.84,28.4932,366.16,28.7455,374.48,28.2469,382.8,28.8,382.8565,28.9364,383.0185,28.7619,383.3455,28.9856,383.6926,29.2579,383.9226,29.2475,384.2142,29.3858,384.231,29.3928,384.3235,29.6654,384.4925,29.9697,384.6246,30.2587,384.8271,30.5769,384.8,30.8,385.3368,30.8,385.3434,38.1988,385.0037,45.5975,385.1709,52.9963,385.3618,60.395,384.8,67.7938,384.6223,67.7202,384.85,68.1458,384.4926,68.3292,384.58,68.6968,384.2094,68.8746,384.2142,69.208,384.2072,69.1911,384.0071,69.5078,383.6436,69.4303,383.3764,69.5854,383.1174,69.76,382.8,69.7938,382.8,70.1267,374.48,69.7906,366.16,70.0235,357.84,69.3358,349.52,70.0213,341.2,70.2323,332.88,70.1494,324.56,70.2842,316.24,69.4073,307.92,69.272,299.6,69.7938,299.5366,69.6407,299.3111,69.6621,299.0143,69.511,298.821,69.6102,298.4508,69.2821,298.1858,69.208,298.1013,69.173,298.1249,68.9484,297.7872,68.5742,297.7064,68.3065,297.877,68.1428,297.6,67.7938,297.9485,67.7938,298.1876,60.395,297.3426,52.9963,297.8554,45.5975,298.0723,38.1988,297.6,30.8,297.4836,30.7518,297.6935,30.5074,297.8654,30.2472,298.112,30.018,298.0676,29.6682,298.1858,29.3858,298.233,29.4997,298.4121,29.1322,298.6824,28.9846,299.0857,29.1584,299.244,28.7405,299.6,28.8" style="stroke:#181818;stroke-width:0.4000000000000001;"/><text fill="#000000" font-family="FG Virgil" font-size="11.2" font-style="italic" lengthAdjust="spacing" textLength="76" x="303.2" y="46.4859">&#171;presentation&#187;</text><text fill="#000000" font-family="FG Virgil" font-size="11.2" lengthAdjust="spacing" textLength="74.4" x="304" y="61.3828">RegisterDishUI</text><polygon fill="#E3E3E3" points="299.6,501.1844,299.6,501.3525,307.92,500.8529,316.24,501.339,324.56,501.5041,332.88,500.6137,341.2,501.1222,349.52,500.8432,357.84,500.8776,366.16,501.1298,374.48,500.6313,382.8,501.1844,382.8565,501.3208,383.0185,501.1463,383.3455,501.37,383.6926,501.6423,383.9226,501.6319,384.2142,501.7702,384.231,501.7771,384.3235,502.0497,384.4925,502.3541,384.6246,502.6431,384.8271,502.9613,384.8,503.1844,385.3368,503.1844,385.3434,510.5831,385.0037,517.9819,385.1709,525.3806,385.3618,532.7794,384.8,540.1781,384.6223,540.1045,384.85,540.5302,384.4926,540.7136,384.58,541.0811,384.2094,541.259,384.2142,541.5923,384.2072,541.5755,384.0071,541.8922,383.6436,541.8146,383.3764,541.9698,383.1174,542.1444,382.8,542.1781,382.8,542.5111,374.48,542.175,366.16,542.4079,357.84,541.7202,349.52,542.4056,341.2,542.6167,332.88,542.5338,324.56,542.6685,316.24,541.7917,307.92,541.6564,299.6,542.1781,299.5366,542.025,299.3111,542.0465,299.0143,541.8954,298.821,541.9945,298.4508,541.6665,298.1858,541.5923,298.1013,541.5573,298.1249,541.3328,297.7872,540.9586,297.7064,540.6908,297.877,540.5272,297.6,540.1781,297.9485,540.1781,298.1876,532.7794,297.3426,525.3806,297.8554,517.9819,298.0723,510.5831,297.6,503.1844,297.4836,503.1362,297.6935,502.8917,297.8654,502.6315,298.112,502.4024,298.0676,502.0526,298.1858,501.7702,298.233,501.8841,298.4121,501.5166,298.6824,501.369,299.0857,501.5428,299.244,501.1249,299.6,501.1844" style="stroke:#181818;stroke-width:0.4000000000000001;"/><text fill="#000000" font-family="FG Virgil" font-size="11.2" font-style="italic" lengthAdjust="spacing" textLength="76" x="303.2" y="518.8703">&#171;presentation&#187;</text><text fill="#000000" font-family="FG Virgil" font-size="11.2" lengthAdjust="spacing" textLength="74.4" x="304" y="533.7672">RegisterDishUI</text><polygon fill="#E3E3E3" points="525.2,28.8,525.2,28.9681,533.3067,28.4685,541.4133,28.9546,549.52,29.1197,557.6267,28.2293,565.7333,28.7378,573.84,28.4588,581.9467,28.4932,590.0533,28.7455,598.16,28.2469,606.2667,29.2429,614.3733,28.2958,622.48,28.6418,630.5867,29.1456,638.6933,28.7314,646.8,28.8,646.807,28.8168,647.0796,28.9093,647.3839,29.0783,647.6729,29.2104,647.9911,29.4129,648.2142,29.3858,648.3795,29.4543,648.4987,29.7379,648.5113,29.9775,648.6799,30.2816,648.8559,30.5888,648.8,30.8,648.2231,30.8,649.3428,38.1988,648.5628,45.5975,649.227,52.9963,648.404,60.395,648.8,67.7938,648.7831,67.7868,648.8656,68.1523,648.5537,68.3545,648.4745,68.653,648.4148,68.9597,648.2142,69.208,648.2567,69.3105,647.931,69.3242,647.6778,69.513,647.3073,69.4184,647.1119,69.7467,646.8,69.7938,646.8,70.2323,638.6933,70.1494,630.5867,70.2842,622.48,69.4073,614.3733,69.272,606.2667,69.2966,598.16,69.7466,590.0533,69.6365,581.9467,70.3389,573.84,69.654,565.7333,69.5193,557.6267,69.9764,549.52,69.2603,541.4133,69.3784,533.3067,70.3129,525.2,69.7938,525.2445,69.9011,524.9921,69.8575,524.6015,69.4802,524.384,69.5209,524.1289,69.4706,523.7858,69.208,523.6694,69.1598,523.645,68.9153,523.5825,68.6551,523.5949,68.4259,523.3161,68.0762,523.2,67.7938,523.5701,67.7938,522.757,60.395,522.6582,52.9963,523.6029,45.5975,522.6264,38.1988,523.2,30.8,523.3254,30.8519,523.3681,30.5382,523.3683,30.207,523.4643,29.9154,523.7817,29.7154,523.7858,29.3858,523.7552,29.312,524.129,29.4144,524.2951,29.0153,524.6973,29.1864,524.9666,29.0365,525.2,28.8" style="stroke:#181818;stroke-width:0.4000000000000001;"/><text fill="#000000" font-family="FG Virgil" font-size="11.2" font-style="italic" lengthAdjust="spacing" textLength="67.2" x="552.4" y="46.4859">&#171;application&#187;</text><text fill="#000000" font-family="FG Virgil" font-size="11.2" lengthAdjust="spacing" textLength="114.4" x="528.8" y="61.3828">RegisterDishController</text><polygon fill="#E3E3E3" points="525.2,501.1844,525.2,501.3525,533.3067,500.8529,541.4133,501.339,549.52,501.5041,557.6267,500.6137,565.7333,501.1222,573.84,500.8432,581.9467,500.8776,590.0533,501.1298,598.16,500.6313,606.2667,501.6273,614.3733,500.6802,622.48,501.0262,630.5867,501.5299,638.6933,501.1158,646.8,501.1844,646.807,501.2012,647.0796,501.2937,647.3839,501.4627,647.6729,501.5948,647.9911,501.7973,648.2142,501.7702,648.3795,501.8386,648.4987,502.1223,648.5113,502.3618,648.6799,502.666,648.8559,502.9732,648.8,503.1844,648.2231,503.1844,649.3428,510.5831,648.5628,517.9819,649.227,525.3806,648.404,532.7794,648.8,540.1781,648.7831,540.1711,648.8656,540.5366,648.5537,540.7388,648.4745,541.0374,648.4148,541.3441,648.2142,541.5923,648.2567,541.6949,647.931,541.7085,647.6778,541.8974,647.3073,541.8028,647.1119,542.131,646.8,542.1781,646.8,542.6167,638.6933,542.5338,630.5867,542.6685,622.48,541.7917,614.3733,541.6564,606.2667,541.681,598.16,542.131,590.0533,542.0209,581.9467,542.7233,573.84,542.0384,565.7333,541.9037,557.6267,542.3607,549.52,541.6447,541.4133,541.7628,533.3067,542.6973,525.2,542.1781,525.2445,542.2855,524.9921,542.2419,524.6015,541.8645,524.384,541.9053,524.1289,541.855,523.7858,541.5923,523.6694,541.5441,523.645,541.2997,523.5825,541.0395,523.5949,540.8103,523.3161,540.4605,523.2,540.1781,523.5701,540.1781,522.757,532.7794,522.6582,525.3806,523.6029,517.9819,522.6264,510.5831,523.2,503.1844,523.3254,503.2363,523.3681,502.9226,523.3683,502.5913,523.4643,502.2997,523.7817,502.0998,523.7858,501.7702,523.7552,501.6964,524.129,501.7988,524.2951,501.3997,524.6973,501.5708,524.9666,501.4208,525.2,501.1844" style="stroke:#181818;stroke-width:0.4000000000000001;"/><text fill="#000000" font-family="FG Virgil" font-size="11.2" font-style="italic" lengthAdjust="spacing" textLength="67.2" x="552.4" y="518.8703">&#171;application&#187;</text><text fill="#000000" font-family="FG Virgil" font-size="11.2" lengthAdjust="spacing" textLength="114.4" x="528.8" y="533.7672">RegisterDishController</text><polygon fill="#E3E3E3" points="778.4,28.8,778.4,28.9681,786.5143,28.4685,794.6286,28.9546,802.7429,29.1197,810.8571,28.2293,818.9714,28.7378,827.0857,28.4588,835.2,28.8,835.1609,28.7055,835.4759,28.9004,835.6951,28.864,836.105,29.2879,836.2671,29.1133,836.6142,29.3858,836.5655,29.3656,836.8378,29.7127,836.8274,29.9427,836.9825,30.2413,837.075,30.5139,837.2,30.8,837.3428,30.8,837.3913,38.1988,837.6686,45.5975,837.7368,52.9963,837.7434,60.395,837.2,67.7938,837.2627,67.8197,837.1971,68.1239,837.1387,68.4311,836.6709,68.5687,836.8985,68.9944,836.6142,69.208,836.584,69.1349,836.3858,69.4566,835.998,69.3203,835.7587,69.5426,835.5585,69.8593,835.2,69.7938,835.2,69.7548,827.0857,69.878,818.9714,70.0647,810.8571,70.1267,802.7429,69.7906,794.6286,70.0235,786.5143,69.3358,778.4,69.7938,778.429,69.8638,778.1731,69.8117,777.8797,69.669,777.614,69.5933,777.2193,69.2061,776.9858,69.208,776.8251,69.1414,776.7155,68.8617,776.737,68.6363,776.5859,68.3394,776.685,68.1461,776.4,67.7938,776.2603,67.7938,776.1256,60.395,776.5826,52.9963,775.8665,45.5975,775.9847,38.1988,776.4,30.8,776.5599,30.8662,776.6245,30.5616,776.8153,30.3093,776.6722,29.9186,776.9473,29.7012,776.9858,29.3858,777.046,29.5312,777.2204,29.1522,777.5417,29.1279,777.8472,29.0654,778.1837,29.0777,778.4,28.8" style="stroke:#181818;stroke-width:0.4000000000000001;"/><text fill="#000000" font-family="FG Virgil" font-size="11.2" font-style="italic" lengthAdjust="spacing" textLength="49.6" x="782" y="46.4859">&#171;domain&#187;</text><text fill="#000000" font-family="FG Virgil" font-size="11.2" lengthAdjust="spacing" textLength="46.4" x="783.6" y="61.3828">dish:Dish</text><polygon fill="#E3E3E3" points="778.4,501.1844,778.4,501.3525,786.5143,500.8529,794.6286,501.339,802.7429,501.5041,810.8571,500.6137,818.9714,501.1222,827.0857,500.8432,835.2,501.1844,835.1609,501.0899,835.4759,501.2847,835.6951,501.2484,836.105,501.6722,836.2671,501.4977,836.6142,501.7702,836.5655,501.75,836.8378,502.0971,836.8274,502.3271,836.9825,502.6257,837.075,502.8983,837.2,503.1844,837.3428,503.1844,837.3913,510.5831,837.6686,517.9819,837.7368,525.3806,837.7434,532.7794,837.2,540.1781,837.2627,540.2041,837.1971,540.5083,837.1387,540.8155,836.6709,540.9531,836.8985,541.3787,836.6142,541.5923,836.584,541.5193,836.3858,541.841,835.998,541.7047,835.7587,541.9269,835.5585,542.2437,835.2,542.1781,835.2,542.1391,827.0857,542.2624,818.9714,542.449,810.8571,542.5111,802.7429,542.175,794.6286,542.4079,786.5143,541.7202,778.4,542.1781,778.429,542.2482,778.1731,542.196,777.8797,542.0533,777.614,541.9777,777.2193,541.5905,776.9858,541.5923,776.8251,541.5258,776.7155,541.2461,776.737,541.0206,776.5859,540.7238,776.685,540.5305,776.4,540.1781,776.2603,540.1781,776.1256,532.7794,776.5826,525.3806,775.8665,517.9819,775.9847,510.5831,776.4,503.1844,776.5599,503.2506,776.6245,502.946,776.8153,502.6936,776.6722,502.303,776.9473,502.0856,776.9858,501.7702,777.046,501.9156,777.2204,501.5366,777.5417,501.5122,777.8472,501.4497,778.1837,501.4621,778.4,501.1844" style="stroke:#181818;stroke-width:0.4000000000000001;"/><text fill="#000000" font-family="FG Virgil" font-size="11.2" font-style="italic" lengthAdjust="spacing" textLength="49.6" x="782" y="518.8703">&#171;domain&#187;</text><text fill="#000000" font-family="FG Virgil" font-size="11.2" lengthAdjust="spacing" textLength="46.4" x="783.6" y="533.7672">dish:Dish</text><text fill="#000000" font-family="FG Virgil" font-size="11.2" font-style="italic" lengthAdjust="spacing" textLength="63.2" x="852" y="52.8859">&#171;repository&#187;</text><text fill="#000000" font-family="FG Virgil" font-size="11.2" lengthAdjust="spacing" textLength="76.8" x="845.2" y="67.7828">DishRepository</text><path d="M871.6,12 L871.6,12 L871.6521,12.0536 L872.9373,10.4944 L874.5279,9.2493 L876.0191,7.9019 L877.1832,6.2181 L878.8,5 L878.7962,4.9726 L880.2191,4.6498 L881.6612,4.4649 L883.1167,4.376 L884.5262,3.9565 L886,4 L886,4 L886.0271,4.195 L887.4092,3.978 L888.8703,4.3304 L890.3411,4.7521 L891.7558,4.7698 L893.2,5 L893.2169,5.0174 L894.6321,6.3919 L896.1242,7.8455 L897.5793,9.261 L899.1052,10.7493 L900.4,12 L900.8772,12 L900.883,16.16 L900.5811,20.32 L900.7297,24.48 L900.8994,28.64 L900.4,32.8 L900.4,32.8 L900.2213,32.6161 L899.1282,34.373 L897.4465,35.5244 L896.2123,37.1361 L894.5173,38.2738 L893.2,39.8 L893.1966,39.7759 L891.7963,40.2612 L890.3176,40.1828 L888.8852,40.4371 L887.4566,40.7193 L886,40.8 L886,40.8 L886.0204,40.9466 L884.5598,40.5986 L883.134,40.5011 L881.652,39.9984 L880.2539,40.1002 L878.8,39.8 L878.9359,39.9398 L877.4702,38.5133 L876.0719,37.1563 L874.3603,35.4768 L872.8784,34.0337 L871.6,32.8 L871.1581,32.8 L871.5581,28.64 L871.4602,24.48 L872.0846,20.32 L871.4758,16.16 L871.6,12 " fill="#E3E3E3" style="stroke:#181818;stroke-width:1.2000000000000002;"/><path d="M871.6,12 L871.6,12 L871.6521,12.0536 L872.9373,13.2944 L874.5279,14.8493 L876.0191,16.3019 L877.1832,17.4181 L878.8,19 L878.7962,18.9726 L880.2191,19.0498 L881.6612,19.2649 L883.1167,19.576 L884.5262,19.5565 L886,20 L886,20 L886.0271,20.195 L887.4092,19.578 L888.8703,19.5304 L890.3411,19.5521 L891.7558,19.1698 L893.2,19 L893.2169,19.0174 L894.6321,17.5919 L896.1242,16.2455 L897.5793,14.861 L899.1052,13.5493 L900.4,12 " fill="none" style="stroke:#181818;stroke-width:1.2000000000000002;"/><text fill="#000000" font-family="FG Virgil" font-size="11.2" font-style="italic" lengthAdjust="spacing" textLength="63.2" x="852" y="513.2703">&#171;repository&#187;</text><text fill="#000000" font-family="FG Virgil" font-size="11.2" lengthAdjust="spacing" textLength="76.8" x="845.2" y="528.1672">DishRepository</text><path d="M871.6,538.9781 L871.6,538.9781 L871.6521,539.0317 L872.9373,537.4725 L874.5279,536.2274 L876.0191,534.88 L877.1832,533.1963 L878.8,531.9781 L878.7962,531.9508 L880.2191,531.6279 L881.6612,531.4431 L883.1167,531.3541 L884.5262,530.9346 L886,530.9781 L886,530.9781 L886.0271,531.1731 L887.4092,530.9562 L888.8703,531.3085 L890.3411,531.7302 L891.7558,531.7479 L893.2,531.9781 L893.2169,531.9955 L894.6321,533.37 L896.1242,534.8236 L897.5793,536.2391 L899.1052,537.7274 L900.4,538.9781 L900.8772,538.9781 L900.883,543.1381 L900.5811,547.2981 L900.7297,551.4581 L900.8994,555.6181 L900.4,559.7781 L900.4,559.7781 L900.2213,559.5943 L899.1282,561.3511 L897.4465,562.5025 L896.2123,564.1142 L894.5173,565.2519 L893.2,566.7781 L893.1966,566.754 L891.7963,567.2393 L890.3176,567.161 L888.8852,567.4152 L887.4566,567.6974 L886,567.7781 L886,567.7781 L886.0204,567.9247 L884.5598,567.5767 L883.134,567.4793 L881.652,566.9765 L880.2539,567.0783 L878.8,566.7781 L878.9359,566.9179 L877.4702,565.4915 L876.0719,564.1344 L874.3603,562.455 L872.8784,561.0119 L871.6,559.7781 L871.1581,559.7781 L871.5581,555.6181 L871.4602,551.4581 L872.0846,547.2981 L871.4758,543.1381 L871.6,538.9781 " fill="#E3E3E3" style="stroke:#181818;stroke-width:1.2000000000000002;"/><path d="M871.6,538.9781 L871.6,538.9781 L871.6521,539.0317 L872.9373,540.2725 L874.5279,541.8274 L876.0191,543.28 L877.1832,544.3963 L878.8,545.9781 L878.7962,545.9508 L880.2191,546.0279 L881.6612,546.2431 L883.1167,546.5541 L884.5262,546.5346 L886,546.9781 L886,546.9781 L886.0271,547.1731 L887.4092,546.5562 L888.8703,546.5085 L890.3411,546.5302 L891.7558,546.1479 L893.2,545.9781 L893.2169,545.9955 L894.6321,544.57 L896.1242,543.2236 L897.5793,541.8391 L899.1052,540.5274 L900.4,538.9781 " fill="none" style="stroke:#181818;stroke-width:1.2000000000000002;"/><polygon fill="#FFFFFF" points="337.2,97.2266,337.2,97.2826,338.8,97.1161,340.4,97.2781,342,97.3331,343.6,97.0363,345.2,97.2266,345.1378,97.2266,344.8588,105.193,344.8932,113.1595,345.1455,121.126,344.6469,129.0925,345.6429,137.059,344.6958,145.0255,345.0418,152.992,345.5456,160.9585,345.1314,168.9249,345.2546,176.8914,345.1744,184.8579,345.3428,192.8244,345.3913,200.7909,345.6686,208.7574,345.7368,216.7239,345.7434,224.6903,345.4037,232.6568,345.5709,240.6233,345.7618,248.5898,344.6231,256.5563,345.7428,264.5228,344.9628,272.4893,345.627,280.4557,344.804,288.4222,345.1452,296.3887,345.7933,304.3552,345.161,312.3217,345.2842,320.2882,345.4709,328.2547,345.533,336.2211,345.1969,344.1876,345.4298,352.1541,344.7421,360.1206,345.4275,368.0871,345.6386,376.0536,345.5556,384.0201,345.6904,391.9865,344.8135,399.953,344.6783,407.9195,344.7029,415.886,345.1529,423.8525,345.0428,431.819,345.7451,439.7855,345.0603,447.7519,344.9256,455.7184,345.3826,463.6849,344.6665,471.6514,344.7847,479.6179,345.2,487.5844,345.2,487.7574,343.6,487.7006,342,487.7802,340.4,487.4986,338.8,487.6695,337.2,487.5844,337.6723,487.5844,336.8221,479.6179,337.1233,471.6514,337.3008,463.6849,337.7214,455.7184,337.1966,447.7519,337.5701,439.7855,336.757,431.819,336.6582,423.8525,337.6029,415.886,336.6264,407.9195,337.6072,399.953,337.3653,391.9865,336.9857,384.0201,336.917,376.0536,337.567,368.0871,336.9605,360.1206,337.6735,352.1541,336.7578,344.1876,337.6939,336.2211,337.5874,328.2547,337.396,320.2882,337.2378,312.3217,337.7813,304.3552,337.6909,296.3887,337.3354,288.4222,337.4146,280.4557,337.0958,272.4893,337.7732,264.5228,337.3239,256.5563,337.3381,248.5898,336.7133,240.6233,336.8758,232.6568,337.6246,224.6903,337.5438,216.7239,337.1657,208.7574,336.9423,200.7909,337.0249,192.8244,336.6511,184.8579,337.5318,176.8914,337.7917,168.9249,337.6211,160.9585,337.7559,152.992,337.0906,145.0255,337.2698,137.059,336.8899,129.0925,337.4272,121.126,337.3974,113.1595,337.6419,105.193,337.2,97.2266" style="stroke:#181818;stroke-width:0.8000000000000002;"/><polygon fill="#FFFFFF" points="582,261.2563,582,261.3123,583.6,261.1458,585.2,261.3078,586.8,261.3628,588.4,261.066,590,261.2563,589.9378,261.2563,589.6588,269.3081,589.6932,277.3599,589.9455,285.4117,589.4469,293.4635,590.4429,301.5153,589.4958,309.5671,589.8418,317.6189,590.3456,325.6708,589.9314,333.7226,590.0546,341.7744,589.9744,349.8262,590.1428,357.878,590.1913,365.9298,590.4686,373.9816,590.5368,382.0334,590.5434,390.0853,590.2037,398.1371,590.3709,406.1889,590.5618,414.2407,589.4231,422.2925,590.5428,430.3443,589.7628,438.3961,590.427,446.4479,589.604,454.4998,590,462.5516,590,462.5333,588.4,462.7493,586.8,462.5386,585.2,462.5796,583.6,462.6419,582,462.5516,582.333,462.5516,581.9969,454.4998,582.2298,446.4479,581.5421,438.3961,582.2275,430.3443,582.4386,422.2925,582.3556,414.2407,582.4904,406.1889,581.6135,398.1371,581.4783,390.0853,581.5029,382.0334,581.9529,373.9816,581.8428,365.9298,582.5451,357.878,581.8603,349.8262,581.7256,341.7744,582.1826,333.7226,581.4665,325.6708,581.5847,317.6189,582.5192,309.5671,582.3485,301.5153,582.5876,293.4635,581.7426,285.4117,582.2554,277.3599,582.4723,269.3081,582,261.2563" style="stroke:#181818;stroke-width:0.8000000000000002;"/><polygon fill="#FFFFFF" points="882,412.4859,882,412.542,883.6,412.3755,885.2,412.5375,886.8,412.5925,888.4,412.2957,890,412.4859,889.9793,412.4859,889.8863,417.4925,889.8977,422.4991,889.9818,427.5056,889.8156,432.5122,890,437.5188,890,437.6664,888.4,437.3507,886.8,437.466,885.2,437.6339,883.6,437.4959,882,437.5188,882.0182,437.5188,881.9915,432.5122,882.0476,427.5056,882.0638,422.4991,882.1562,417.4925,882,412.4859" style="stroke:#181818;stroke-width:0.8000000000000002;"/><polygon fill="#181818" points="327.6,94.0266,327.6208,94.0786,329.159,94.564,330.8191,95.3544,332.4396,96.0455,333.9293,96.4099,335.6,97.2266,335.5923,97.2073,333.9578,97.761,332.362,98.4116,330.7932,99.1297,329.1315,99.6154,327.6,100.4266,327.7044,100.531,328.1212,99.6677,328.8427,99.1093,329.6014,98.588,330.1438,97.8504,330.8,97.2266,330.8129,97.2394,330.154,96.5805,329.5537,95.9802,328.9251,95.3517,328.3504,94.777,327.6,94.0266" style="stroke:#181818;stroke-width:0.8000000000000002;"/><path d="M42.8,97.2266 L42.8,97.4508 L50.8444,96.7846 L58.8889,97.4327 L66.9333,97.6529 L74.9778,96.4656 L83.0222,97.1437 L91.0667,96.7716 L99.1111,96.8175 L107.1556,97.1539 L115.2,96.4891 L123.2444,97.8171 L131.2889,96.5543 L139.3333,97.0156 L147.3778,97.6873 L155.4222,97.1351 L163.4667,97.2994 L171.5111,97.1925 L179.5556,97.417 L187.6,97.4816 L195.6444,97.8513 L203.6889,97.9424 L211.7333,97.9511 L219.7778,97.4982 L227.8222,97.7211 L235.8667,97.9756 L243.9111,96.4573 L251.9556,97.9503 L260,96.9103 L268.0444,97.796 L276.0889,96.6985 L284.1333,97.1535 L292.1778,98.0176 L300.2222,97.1746 L308.2667,97.3389 L316.3111,97.5878 L324.3556,97.6705 L332.4,97.2266 " fill="none" style="stroke:#181818;stroke-width:0.8000000000000002;stroke-dasharray:2.0,2.0;"/><text fill="#000000" font-family="FG Virgil" font-size="10.4" lengthAdjust="spacing" textLength="62.4" x="48.4" y="93.0164">Register Dish</text><polygon fill="#181818" points="576.4,119.0594,576.4208,119.1114,577.959,119.5968,579.6191,120.3872,581.2396,121.0783,582.7293,121.4427,584.4,122.2594,584.3923,122.2401,582.7578,122.7938,581.162,123.4444,579.5932,124.1625,577.9315,124.6482,576.4,125.4594,576.5044,125.5638,576.9212,124.7005,577.6427,124.1421,578.4014,123.6208,578.9438,122.8832,579.6,122.2594,579.6129,122.2722,578.954,121.6134,578.3537,121.013,577.7251,120.3845,577.1504,119.8098,576.4,119.0594" style="stroke:#181818;stroke-width:0.8000000000000002;"/><path d="M345.2,122.2594 L345.2,122.4836 L353.0667,121.8174 L360.9333,122.4655 L368.8,122.6857 L376.6667,121.4984 L384.5333,122.1765 L392.4,121.8044 L400.2667,121.8503 L408.1333,122.1867 L416,121.5219 L423.8667,122.8499 L431.7333,121.5871 L439.6,122.0484 L447.4667,122.7201 L455.3333,122.1679 L463.2,122.3322 L471.0667,122.2253 L478.9333,122.4498 L486.8,122.5145 L494.6667,122.8841 L502.5333,122.9752 L510.4,122.9839 L518.2667,122.531 L526.1333,122.7539 L534,123.0084 L541.8667,121.4901 L549.7333,122.9831 L557.6,121.9431 L565.4667,122.8288 L573.3333,121.7314 L581.2,122.2594 " fill="none" style="stroke:#181818;stroke-width:0.8000000000000002;"/><text fill="#000000" font-family="FG Virgil" font-size="10.4" lengthAdjust="spacing" textLength="28.8" x="350.8" y="118.0492">create</text><polygon fill="#181818" points="51.6,144.0922,51.6208,144.1442,49.959,144.6296,48.4191,145.42,46.8396,146.1111,45.1293,146.4756,43.6,147.2922,43.5923,147.2729,45.1578,147.8266,46.762,148.4772,48.3932,149.1953,49.9315,149.681,51.6,150.4922,51.7044,150.5966,50.8412,149.7333,50.2827,149.1749,49.7614,148.6536,49.0238,147.916,48.4,147.2922,48.4129,147.3051,49.034,146.6462,49.7137,146.0459,50.3651,145.4173,51.0704,144.8426,51.6,144.0922" style="stroke:#181818;stroke-width:0.8000000000000002;"/><path d="M46.8,147.2922 L46.8,147.5164 L54.8444,146.8502 L62.8889,147.4984 L70.9333,147.7185 L78.9778,146.5312 L87.0222,147.2093 L95.0667,146.8373 L103.1111,146.8831 L111.1556,147.2195 L119.2,146.5547 L127.2444,147.8827 L135.2889,146.6199 L143.3333,147.0812 L151.3778,147.7529 L159.4222,147.2007 L167.4667,147.365 L175.5111,147.2581 L183.5556,147.4826 L191.6,147.5473 L199.6444,147.9169 L207.6889,148.008 L215.7333,148.0167 L223.7778,147.5638 L231.8222,147.7867 L239.8667,148.0412 L247.9111,146.5229 L255.9556,148.0159 L264,146.9759 L272.0444,147.8616 L280.0889,146.7642 L288.1333,147.2191 L296.1778,148.0832 L304.2222,147.2402 L312.2667,147.4045 L320.3111,147.6534 L328.3556,147.7362 L336.4,147.2922 " fill="none" style="stroke:#181818;stroke-width:0.8000000000000002;stroke-dasharray:2.0,2.0;"/><text fill="#000000" font-family="FG Virgil" font-size="10.4" lengthAdjust="spacing" textLength="94.4" x="56.4" y="143.082">Ask dish information</text><polygon fill="#181818" points="327.6,169.125,327.6208,169.177,329.159,169.6624,330.8191,170.4529,332.4396,171.144,333.9293,171.5084,335.6,172.325,335.5923,172.3058,333.9578,172.8594,332.362,173.51,330.7932,174.2281,329.1315,174.7138,327.6,175.525,327.7044,175.6294,328.1212,174.7662,328.8427,174.2077,329.6014,173.6864,330.1438,172.9488,330.8,172.325,330.8129,172.3379,330.154,171.679,329.5537,171.0787,328.9251,170.4501,328.3504,169.8754,327.6,169.125" style="stroke:#181818;stroke-width:0.8000000000000002;"/><path d="M42.8,172.325 L42.8,172.5492 L50.8444,171.8831 L58.8889,172.5312 L66.9333,172.7513 L74.9778,171.564 L83.0222,172.2421 L91.0667,171.8701 L99.1111,171.9159 L107.1556,172.2523 L115.2,171.5875 L123.2444,172.9156 L131.2889,171.6527 L139.3333,172.114 L147.3778,172.7857 L155.4222,172.2335 L163.4667,172.3978 L171.5111,172.2909 L179.5556,172.5154 L187.6,172.5801 L195.6444,172.9497 L203.6889,173.0408 L211.7333,173.0495 L219.7778,172.5966 L227.8222,172.8195 L235.8667,173.074 L243.9111,171.5557 L251.9556,173.0487 L260,172.0087 L268.0444,172.8944 L276.0889,171.797 L284.1333,172.2519 L292.1778,173.116 L300.2222,172.273 L308.2667,172.4373 L316.3111,172.6862 L324.3556,172.769 L332.4,172.325 " fill="none" style="stroke:#181818;stroke-width:0.8000000000000002;stroke-dasharray:2.0,2.0;"/><text fill="#000000" font-family="FG Virgil" font-size="10.4" lengthAdjust="spacing" textLength="275.2" x="48.4" y="168.1148">Name, Price, Short and Long Description, Calories and Salt</text><polygon fill="#181818" points="51.6,194.1578,51.6208,194.2099,49.959,194.6952,48.4191,195.4857,46.8396,196.1768,45.1293,196.5412,43.6,197.3578,43.5923,197.3386,45.1578,197.8922,46.762,198.5429,48.3932,199.2609,49.9315,199.7466,51.6,200.5578,51.7044,200.6622,50.8412,199.799,50.2827,199.2405,49.7614,198.7193,49.0238,197.9816,48.4,197.3578,48.4129,197.3707,49.034,196.7118,49.7137,196.1115,50.3651,195.4829,51.0704,194.9083,51.6,194.1578" style="stroke:#181818;stroke-width:0.8000000000000002;"/><path d="M46.8,197.3578 L46.8,197.582 L54.8444,196.9159 L62.8889,197.564 L70.9333,197.7841 L78.9778,196.5969 L87.0222,197.2749 L95.0667,196.9029 L103.1111,196.9487 L111.1556,197.2851 L119.2,196.6204 L127.2444,197.9484 L135.2889,196.6855 L143.3333,197.1469 L151.3778,197.8186 L159.4222,197.2663 L167.4667,197.4306 L175.5111,197.3237 L183.5556,197.5482 L191.6,197.6129 L199.6444,197.9825 L207.6889,198.0736 L215.7333,198.0824 L223.7778,197.6294 L231.8222,197.8523 L239.8667,198.1069 L247.9111,196.5885 L255.9556,198.0816 L264,197.0415 L272.0444,197.9272 L280.0889,196.8298 L288.1333,197.2847 L296.1778,198.1489 L304.2222,197.3058 L312.2667,197.4701 L320.3111,197.719 L328.3556,197.8018 L336.4,197.3578 " fill="none" style="stroke:#181818;stroke-width:0.8000000000000002;stroke-dasharray:2.0,2.0;"/><text fill="#000000" font-family="FG Virgil" font-size="10.4" lengthAdjust="spacing" textLength="112" x="56.4" y="193.1477">Show List of Dish Types</text><polygon fill="#181818" points="327.6,219.1906,327.6208,219.2427,329.159,219.728,330.8191,220.5185,332.4396,221.2096,333.9293,221.574,335.6,222.3906,335.5923,222.3714,333.9578,222.925,332.362,223.5757,330.7932,224.2937,329.1315,224.7794,327.6,225.5906,327.7044,225.695,328.1212,224.8318,328.8427,224.2733,329.6014,223.7521,330.1438,223.0145,330.8,222.3906,330.8129,222.4035,330.154,221.7446,329.5537,221.1443,328.9251,220.5157,328.3504,219.9411,327.6,219.1906" style="stroke:#181818;stroke-width:0.8000000000000002;"/><path d="M42.8,222.3906 L42.8,222.6148 L50.8444,221.9487 L58.8889,222.5968 L66.9333,222.8169 L74.9778,221.6297 L83.0222,222.3077 L91.0667,221.9357 L99.1111,221.9816 L107.1556,222.3179 L115.2,221.6532 L123.2444,222.9812 L131.2889,221.7183 L139.3333,222.1797 L147.3778,222.8514 L155.4222,222.2991 L163.4667,222.4634 L171.5111,222.3565 L179.5556,222.5811 L187.6,222.6457 L195.6444,223.0154 L203.6889,223.1064 L211.7333,223.1152 L219.7778,222.6622 L227.8222,222.8851 L235.8667,223.1397 L243.9111,221.6214 L251.9556,223.1144 L260,222.0744 L268.0444,222.96 L276.0889,221.8626 L284.1333,222.3176 L292.1778,223.1817 L300.2222,222.3386 L308.2667,222.5029 L316.3111,222.7518 L324.3556,222.8346 L332.4,222.3906 " fill="none" style="stroke:#181818;stroke-width:0.8000000000000002;stroke-dasharray:2.0,2.0;"/><text fill="#000000" font-family="FG Virgil" font-size="10.4" lengthAdjust="spacing" textLength="46.4" x="48.4" y="218.1805">Dish Type</text><polygon fill="#181818" points="572.4,258.0563,572.4208,258.1083,573.959,258.5937,575.6191,259.3841,577.2396,260.0752,578.7293,260.4396,580.4,261.2563,580.3923,261.237,578.7578,261.7907,577.162,262.4413,575.5932,263.1594,573.9315,263.6451,572.4,264.4563,572.5044,264.5606,572.9212,263.6974,573.6427,263.139,574.4014,262.6177,574.9438,261.8801,575.6,261.2563,575.6129,261.2691,574.954,260.6102,574.3537,260.0099,573.7251,259.3813,573.1504,258.8067,572.4,258.0563" style="stroke:#181818;stroke-width:0.8000000000000002;"/><path d="M345.2,261.2563 L345.2,261.4804 L353.2,260.8143 L361.2,261.4624 L369.2,261.6826 L377.2,260.4953 L385.2,261.1734 L393.2,260.8013 L401.2,260.8472 L409.2,261.1835 L417.2,260.5188 L425.2,261.8468 L433.2,260.584 L441.2,261.0453 L449.2,261.717 L457.2,261.1648 L465.2,261.329 L473.2,261.2222 L481.2,261.4467 L489.2,261.5113 L497.2,261.881 L505.2,261.972 L513.2,261.9808 L521.2,261.5279 L529.2,261.7507 L537.2,262.0053 L545.2,260.487 L553.2,261.98 L561.2,260.94 L569.2,261.8256 L577.2,261.2563 " fill="none" style="stroke:#181818;stroke-width:0.8000000000000002;"/><text fill="#000000" font-family="FG Virgil" font-size="10.4" lengthAdjust="spacing" textLength="142.4" x="350.8" y="243.2133">registerDish(name, type, price,</text><text fill="#000000" font-family="FG Virgil" font-size="10.4" lengthAdjust="spacing" textLength="221.6" x="350.8" y="257.0461">shortDescription, longDescription, calories, salt)</text><path d="M593.6,271.6563 L593.7495,271.6563 L593.3054,278.6963 L593.7374,285.7363 L593.8842,292.7763 L593.0927,299.8163 L593.6,306.8563 L593.6,306.6905 L601.6348,305.9464 L609.6696,306.0381 L617.7043,306.7108 L625.7391,305.3813 L633.7739,308.0374 L641.8087,305.5117 L649.8435,306.4343 L657.8783,307.7777 L665.913,306.6733 L673.9478,307.0018 L681.9826,306.7881 L690.0174,307.2371 L698.0522,307.3664 L706.087,308.1057 L714.1217,308.2878 L722.1565,308.3053 L730.1913,307.3995 L738.2261,307.8452 L746.2609,308.3543 L754.2957,305.3177 L762.3304,308.3037 L770.3652,306.2237 L778.4,306.8563 L778.7796,306.8563 L778.048,301.4163 L778.3513,295.9763 L778.9274,290.5363 L778.3653,285.0963 L778.4,279.6563 L778.4529,279.7092 L776.9703,278.2265 L775.4093,276.6655 L773.598,274.8543 L772.1444,273.4007 L770.4,271.6563 L770.4,270.4351 L762.3636,272.2629 L754.3273,272.8257 L746.2909,272.6046 L738.2545,272.964 L730.2182,270.6257 L722.1818,270.2649 L714.1455,270.3306 L706.1091,271.5306 L698.0727,271.237 L690.0364,273.1099 L682,271.2836 L673.9636,270.9244 L665.9273,272.1432 L657.8909,270.2337 L649.8545,270.5488 L641.8182,273.0407 L633.7818,272.5857 L625.7455,273.2232 L617.7091,270.9698 L609.6727,272.3372 L601.6364,272.9158 L593.6,271.6563 " fill="#FAFAFA" style="stroke:#181818;stroke-width:0.4000000000000001;"/><path d="M770.4,271.6563 L770.0641,271.6563 L770.3318,273.2563 L770.4896,274.8563 L770.8635,276.4563 L770.397,278.0563 L770.4,279.6563 L770.4,279.9852 L772,279.2624 L773.6,279.1746 L775.2,280.0144 L776.8,279.1464 L778.4,279.6563 L778.6559,279.9122 L776.9039,278.1601 L775.0653,276.3215 L773.4221,274.6784 L772.2307,273.4869 L770.4,271.6563 " fill="#FAFAFA" style="stroke:#181818;stroke-width:0.4000000000000001;"/><text fill="#000000" font-family="FG Virgil" font-size="10.4" lengthAdjust="spacing" textLength="164.8" x="598.4" y="286.8789">hidden authorization user guarantee</text><text fill="#000000" font-family="FG Virgil" font-size="10.4" lengthAdjust="spacing" textLength="101.6" x="598.4" y="300.7117">(see specific diagram)</text><polygon fill="#181818" points="797.2,340.5875,797.2208,340.6395,798.759,341.1249,800.4191,341.9154,802.0396,342.6065,803.5293,342.9709,805.2,343.7875,805.1923,343.7683,803.5578,344.3219,801.962,344.9725,800.3932,345.6906,798.7315,346.1763,797.2,346.9875,797.3044,347.0919,797.7212,346.2287,798.4427,345.6702,799.2014,345.1489,799.7438,344.4113,800.4,343.7875,800.4129,343.8004,799.754,343.1415,799.1537,342.5412,798.5251,341.9126,797.9504,341.3379,797.2,340.5875" style="stroke:#181818;stroke-width:0.8000000000000002;"/><path d="M590,343.7875 L590,344.0117 L597.8519,343.3456 L605.7037,343.9937 L613.5556,344.2138 L621.4074,343.0265 L629.2593,343.7046 L637.1111,343.3326 L644.963,343.3784 L652.8148,343.7148 L660.6667,343.05 L668.5185,344.3781 L676.3704,343.1152 L684.2222,343.5765 L692.0741,344.2482 L699.9259,343.696 L707.7778,343.8603 L715.6296,343.7534 L723.4815,343.9779 L731.3333,344.0426 L739.1852,344.4122 L747.037,344.5033 L754.8889,344.512 L762.7407,344.0591 L770.5926,344.282 L778.4444,344.5365 L786.2963,343.0182 L794.1481,344.5112 L802,343.7875 " fill="none" style="stroke:#181818;stroke-width:0.8000000000000002;"/><text fill="#000000" font-family="FG Virgil" font-size="10.4" lengthAdjust="spacing" textLength="197.6" x="595.6" y="325.7445">create(name, type, price, shortDescription,</text><text fill="#000000" font-family="FG Virgil" font-size="10.4" lengthAdjust="spacing" textLength="140" x="595.6" y="339.5773">longDescription, calories, salt)</text><path d="M593.6,354.1875 L593.7495,354.1875 L593.3054,361.2275 L593.7374,368.2675 L593.8842,375.3075 L593.0927,382.3475 L593.6,389.3875 L593.6,389.2217 L601.4933,388.4776 L609.3867,388.5694 L617.28,389.2421 L625.1733,387.9126 L633.0667,390.5686 L640.96,388.0429 L648.8533,388.9656 L656.7467,390.309 L664.64,389.2045 L672.5333,389.5331 L680.4267,389.3193 L688.32,389.7684 L696.2133,389.8977 L704.1067,390.637 L712,389.3875 L712.4772,389.3875 L712.483,383.9475 L712.1811,378.5075 L712.3297,373.0675 L712.4994,367.6275 L712,362.1875 L711.6374,361.8249 L710.7412,360.9287 L708.6509,358.8384 L707.4684,357.6559 L705.3511,355.5386 L704,354.1875 L704,354.0414 L696.1143,355.7696 L688.2286,354.0835 L680.3429,354.4121 L672.4571,354.9099 L664.5714,355.0755 L656.6857,354.1792 L648.8,354.8002 L640.9143,352.9663 L633.0286,354.7942 L625.1429,355.357 L617.2571,355.1358 L609.3714,355.4953 L601.4857,353.1569 L593.6,354.1875 " fill="#FAFAFA" style="stroke:#181818;stroke-width:0.4000000000000001;"/><path d="M704,354.1875 L703.5362,354.1875 L703.5581,355.7875 L703.9581,357.3875 L703.8602,358.9875 L704.4846,360.5875 L704,362.1875 L704,362.0633 L705.6,361.9436 L707.2,362.3498 L708.8,361.7133 L710.4,361.8183 L712,362.1875 L712.3263,362.5138 L710.6191,360.8066 L709.1693,359.3568 L707.0382,357.2257 L705.7605,355.948 L704,354.1875 " fill="#FAFAFA" style="stroke:#181818;stroke-width:0.4000000000000001;"/><text fill="#000000" font-family="FG Virgil" font-size="10.4" lengthAdjust="spacing" textLength="101.6" x="598.4" y="369.4102">Simplified persistence</text><text fill="#000000" font-family="FG Virgil" font-size="10.4" lengthAdjust="spacing" textLength="101.6" x="598.4" y="383.243">(see specific diagram)</text><polygon fill="#181818" points="872.4,409.2859,872.4208,409.338,873.959,409.8234,875.6191,410.6138,877.2396,411.3049,878.7293,411.6693,880.4,412.4859,880.3923,412.4667,878.7578,413.0203,877.162,413.671,875.5932,414.3891,873.9315,414.8748,872.4,415.6859,872.5044,415.7903,872.9212,414.9271,873.6427,414.3686,874.4014,413.8474,874.9438,413.1098,875.6,412.4859,875.6129,412.4988,874.954,411.8399,874.3537,411.2396,873.7251,410.611,873.1504,410.0364,872.4,409.2859" style="stroke:#181818;stroke-width:0.8000000000000002;"/><path d="M590,412.4859 L590,412.7101 L597.9778,412.044 L605.9556,412.6921 L613.9333,412.9123 L621.9111,411.725 L629.8889,412.403 L637.8667,412.031 L645.8444,412.0769 L653.8222,412.4132 L661.8,411.7485 L669.7778,413.0765 L677.7556,411.8136 L685.7333,412.275 L693.7111,412.9467 L701.6889,412.3944 L709.6667,412.5587 L717.6444,412.4519 L725.6222,412.6764 L733.6,412.741 L741.5778,413.1107 L749.5556,413.2017 L757.5333,413.2105 L765.5111,412.7575 L773.4889,412.9804 L781.4667,413.235 L789.4444,411.7167 L797.4222,413.2097 L805.4,412.1697 L813.3778,413.0553 L821.3556,411.9579 L829.3333,412.4129 L837.3111,413.277 L845.2889,412.434 L853.2667,412.5983 L861.2444,412.8471 L869.2222,412.9299 L877.2,412.4859 " fill="none" style="stroke:#181818;stroke-width:0.8000000000000002;"/><text fill="#000000" font-family="FG Virgil" font-size="10.4" lengthAdjust="spacing" textLength="46.4" x="595.6" y="408.2758">save(dish)</text><polygon fill="#181818" points="598.8,434.3188,598.8208,434.3708,597.159,434.8562,595.6191,435.6466,594.0396,436.3377,592.3293,436.7021,590.8,437.5188,590.7923,437.4995,592.3578,438.0532,593.962,438.7038,595.5932,439.4219,597.1315,439.9076,598.8,440.7188,598.9044,440.8231,598.0412,439.9599,597.4827,439.4015,596.9614,438.8802,596.2238,438.1426,595.6,437.5188,595.6129,437.5316,596.234,436.8727,596.9137,436.2724,597.5651,435.6438,598.2704,435.0692,598.8,434.3188" style="stroke:#181818;stroke-width:0.8000000000000002;"/><path d="M594,437.5188 L594,437.7429 L602.0889,437.0768 L610.1778,437.7249 L618.2667,437.9451 L626.3556,436.7578 L634.4444,437.4359 L642.5333,437.0638 L650.6222,437.1097 L658.7111,437.446 L666.8,436.7813 L674.8889,438.1093 L682.9778,436.8465 L691.0667,437.3078 L699.1556,437.9795 L707.2444,437.4273 L715.3333,437.5915 L723.4222,437.4847 L731.5111,437.7092 L739.6,437.7738 L747.6889,438.1435 L755.7778,438.2345 L763.8667,438.2433 L771.9556,437.7904 L780.0444,438.0132 L788.1333,438.2678 L796.2222,436.7495 L804.3111,438.2425 L812.4,437.2025 L820.4889,438.0881 L828.5778,436.9907 L836.6667,437.4457 L844.7556,438.3098 L852.8444,437.4668 L860.9333,437.6311 L869.0222,437.88 L877.1111,437.9627 L885.2,437.5188 " fill="none" style="stroke:#181818;stroke-width:0.8000000000000002;stroke-dasharray:2.0,2.0;"/><text fill="#000000" font-family="FG Virgil" font-size="10.4" lengthAdjust="spacing" textLength="19.2" x="603.6" y="433.3086">dish</text><polygon fill="#181818" points="354,459.3516,354.0208,459.4036,352.359,459.889,350.8191,460.6794,349.2396,461.3705,347.5293,461.7349,346,462.5516,345.9923,462.5323,347.5578,463.086,349.162,463.7366,350.7932,464.4547,352.3315,464.9404,354,465.7516,354.1044,465.856,353.2412,464.9927,352.6827,464.4343,352.1614,463.913,351.4238,463.1754,350.8,462.5516,350.8129,462.5644,351.434,461.9055,352.1137,461.3052,352.7651,460.6767,353.4704,460.102,354,459.3516" style="stroke:#181818;stroke-width:0.8000000000000002;"/><path d="M349.2,462.5516 L349.2,462.7758 L357.0667,462.1096 L364.9333,462.7577 L372.8,462.9779 L380.6667,461.7906 L388.5333,462.4687 L396.4,462.0966 L404.2667,462.1425 L412.1333,462.4789 L420,461.8141 L427.8667,463.1421 L435.7333,461.8793 L443.6,462.3406 L451.4667,463.0123 L459.3333,462.4601 L467.2,462.6244 L475.0667,462.5175 L482.9333,462.742 L490.8,462.8066 L498.6667,463.1763 L506.5333,463.2674 L514.4,463.2761 L522.2667,462.8232 L530.1333,463.0461 L538,463.3006 L545.8667,461.7823 L553.7333,463.2753 L561.6,462.2353 L569.4667,463.121 L577.3333,462.0235 L585.2,462.5516 " fill="none" style="stroke:#181818;stroke-width:0.8000000000000002;"/><text fill="#000000" font-family="FG Virgil" font-size="10.4" lengthAdjust="spacing" textLength="19.2" x="358.8" y="458.3414">dish</text><polygon fill="#181818" points="51.6,484.3844,51.6208,484.4364,49.959,484.9218,48.4191,485.7122,46.8396,486.4033,45.1293,486.7677,43.6,487.5844,43.5923,487.5651,45.1578,488.1188,46.762,488.7694,48.3932,489.4875,49.9315,489.9732,51.6,490.7844,51.7044,490.8888,50.8412,490.0255,50.2827,489.4671,49.7614,488.9458,49.0238,488.2082,48.4,487.5844,48.4129,487.5972,49.034,486.9384,49.7137,486.338,50.3651,485.7095,51.0704,485.1348,51.6,484.3844" style="stroke:#181818;stroke-width:0.8000000000000002;"/><path d="M46.8,487.5844 L46.8,487.8086 L54.7351,487.1424 L62.6703,487.7905 L70.6054,488.0107 L78.5405,486.8234 L86.4757,487.5015 L94.4108,487.1294 L102.3459,487.1753 L110.2811,487.5117 L118.2162,486.8469 L126.1514,488.1749 L134.0865,486.9121 L142.0216,487.3734 L149.9568,488.0451 L157.8919,487.4929 L165.827,487.6572 L173.7622,487.5503 L181.6973,487.7748 L189.6324,487.8395 L197.5676,488.2091 L205.5027,488.3002 L213.4378,488.3089 L221.373,487.856 L229.3081,488.0789 L237.2432,488.3334 L245.1784,486.8151 L253.1135,488.3081 L261.0486,487.2681 L268.9838,488.1538 L276.9189,487.0564 L284.8541,487.5113 L292.7892,488.3754 L300.7243,487.5324 L308.6595,487.6967 L316.5946,487.9456 L324.5297,488.0284 L332.4649,487.5802 L340.4,487.5844 " fill="none" style="stroke:#181818;stroke-width:0.8000000000000002;stroke-dasharray:2.0,2.0;"/><text fill="#000000" font-family="FG Virgil" font-size="10.4" lengthAdjust="spacing" textLength="113.6" x="56.4" y="483.3742">Display Dish Info or error</text><!--SRC=[dLJ1Rjim3BtxAuYU4Y3v0SC8KBJe4A0TXcRPAHTEfcqYjYH8SeFiwqSfcMEtxWPCXpWo-SZtg2Vx8skB3ZjeK9Sdno6GXk1wolmGwemsgd6ce_SHY-g8DUt2kILmfC8eLbA5VHkUZ0vVKQ1FN-07kvhRKOvli3GdrZLKs7hACbJ1E7WXtR-WbieEqCDzV9a98h1YYph0AzNi0xb7zir-6tFajoYi8qywO62ZDvjF4Gz2oPcslLGVxOe2hMrPpHMuAmMPH_XTH3sQ3baBean_9Bd4W3_H4yISLxB6iz0-n-JHhYZSi15GbhJ1UhqH1Vd0CjM8m-0t32IX36I9HicxySr1EPBu49HegfV3lJz290oiA-Ew92YbJVl5Wrd1DyTA7hl6k01Y0tWsSYAFv9LZ6v4hUC3ME2QVmZjimqnFmP_WMVY3gP80-7wsv6VQ3i7i4rrkT5eBdKW6IL-1JLGFsaUk4uQjS9wyK5VAA_32Tvaw3HEzDRjGY4iR2JYkcoHWP8iS6YvBkHVO1-dBlz8ueVSIgtiniWv4SD0BBmzlIN75IiQFjNXyUMiGrwYiQBwwwCz1paY53qeF-fzI9nt_8cl7dTYzOYh1alDnv5hH_mYvEJmN3c-qYEPRJW33x6-va_XaCxenwtVUY9KdkINDbSu-4brlela6_0WtPuVzLZfVhIq-j2sUByRTofK2SJCv9v-bKPNzzZS0]--></g></svg>