<?xml version="1.0" encoding="us-ascii" standalone="no"?><svg xmlns="http://www.w3.org/2000/svg" xmlns:xlink="http://www.w3.org/1999/xlink" contentStyleType="text/css" height="264px" preserveAspectRatio="none" style="width:368px;height:264px;background:#FFFFFF;" version="1.1" viewBox="0 0 368 264" width="368px" zoomAndPan="magnify"><defs/><g><!--cluster <<aggregate>> CafeteriaUser--><g id="cluster_&lt;&lt;aggregate&gt;&gt; CafeteriaUser"><path d="M8.5,6.0137 L198.5,6.0137 A3.75,3.75 0 0 1 201,8.5137 L208,30.6348 L358.5,30.6348 A2.5,2.5 0 0 1 361,33.1348 L361,254.5137 A2.5,2.5 0 0 1 358.5,257.0137 L8.5,257.0137 A2.5,2.5 0 0 1 6,254.5137 L6,8.5137 A2.5,2.5 0 0 1 8.5,6.0137 " fill="none" style="stroke:#000000;stroke-width:1.5;"/><line style="stroke:#000000;stroke-width:1.5;" x1="6" x2="208" y1="30.6348" y2="30.6348"/><text fill="#000000" font-family="sans-serif" font-size="14" font-weight="bold" lengthAdjust="spacing" textLength="189" x="10" y="23.1211">&#171;aggregate&#187; CafeteriaUser</text></g><!--class CafeteriaUser--><g id="elem_CafeteriaUser"><rect codeLine="6" fill="#F1F1F1" height="68.543" id="CafeteriaUser" rx="2.5" ry="2.5" style="stroke:#181818;stroke-width:0.5;" width="119" x="109.5" y="43.0137"/><ellipse cx="124.5" cy="73.2852" fill="#ADD1B2" rx="11" ry="11" style="stroke:#181818;stroke-width:1.0;"/><path d="M127.2656,69.1602 Q127.4219,68.9414 127.6094,68.832 Q127.7969,68.7227 128.0156,68.7227 Q128.3906,68.7227 128.625,68.9883 Q128.8594,69.2383 128.8594,69.8477 L128.8594,71.3008 Q128.8594,71.9102 128.625,72.1758 Q128.3906,72.4414 128.0156,72.4414 Q127.6719,72.4414 127.4688,72.2383 Q127.2656,72.0508 127.1563,71.5352 Q127.1094,71.1758 126.9219,70.9883 Q126.5938,70.6133 125.9844,70.3945 Q125.375,70.1758 124.75,70.1758 Q123.9844,70.1758 123.3438,70.5039 Q122.7188,70.832 122.2188,71.582 Q121.7344,72.332 121.7344,73.3633 L121.7344,74.457 Q121.7344,75.6914 122.625,76.5195 Q123.5156,77.332 125.1094,77.332 Q126.0469,77.332 126.7031,77.082 Q127.0938,76.9258 127.5156,76.4883 Q127.7813,76.2227 127.9219,76.1445 Q128.0781,76.0664 128.2813,76.0664 Q128.6094,76.0664 128.8594,76.332 Q129.125,76.582 129.125,76.9258 Q129.125,77.2695 128.7813,77.6758 Q128.2813,78.2539 127.4844,78.582 Q126.4063,79.0352 125.1094,79.0352 Q123.5938,79.0352 122.3906,78.4102 Q121.4063,77.9102 120.7188,76.8477 Q120.0313,75.7695 120.0313,74.4883 L120.0313,73.332 Q120.0313,72.0039 120.6406,70.8633 Q121.2656,69.707 122.3594,69.0977 Q123.4531,68.4727 124.6875,68.4727 Q125.4219,68.4727 126.0625,68.6445 Q126.7188,68.8008 127.2656,69.1602 Z " fill="#000000"/><text fill="#000000" font-family="sans-serif" font-size="12" font-style="italic" lengthAdjust="spacing" textLength="43" x="160.5" y="60.9629">&#171;entity&#187;</text><text fill="#000000" font-family="sans-serif" font-size="12" font-style="italic" lengthAdjust="spacing" textLength="35" x="164.5" y="76.9238">&#171;root&#187;</text><text fill="#000000" font-family="sans-serif" font-size="14" lengthAdjust="spacing" textLength="87" x="138.5" y="95.043">CafeteriaUser</text><line style="stroke:#181818;stroke-width:0.5;" x1="110.5" x2="227.5" y1="103.5566" y2="103.5566"/></g><!--class Role--><g id="elem_Role"><rect codeLine="9" fill="#F1F1F1" height="52.582" id="Role" rx="2.5" ry="2.5" style="stroke:#181818;stroke-width:0.5;" width="109" x="22.5" y="180.0137"/><ellipse cx="37.5" cy="202.3047" fill="#ADD1B2" rx="11" ry="11" style="stroke:#181818;stroke-width:1.0;"/><path d="M40.2656,198.1797 Q40.4219,197.9609 40.6094,197.8516 Q40.7969,197.7422 41.0156,197.7422 Q41.3906,197.7422 41.625,198.0078 Q41.8594,198.2578 41.8594,198.8672 L41.8594,200.3203 Q41.8594,200.9297 41.625,201.1953 Q41.3906,201.4609 41.0156,201.4609 Q40.6719,201.4609 40.4688,201.2578 Q40.2656,201.0703 40.1563,200.5547 Q40.1094,200.1953 39.9219,200.0078 Q39.5938,199.6328 38.9844,199.4141 Q38.375,199.1953 37.75,199.1953 Q36.9844,199.1953 36.3438,199.5234 Q35.7188,199.8516 35.2188,200.6016 Q34.7344,201.3516 34.7344,202.3828 L34.7344,203.4766 Q34.7344,204.7109 35.625,205.5391 Q36.5156,206.3516 38.1094,206.3516 Q39.0469,206.3516 39.7031,206.1016 Q40.0938,205.9453 40.5156,205.5078 Q40.7813,205.2422 40.9219,205.1641 Q41.0781,205.0859 41.2813,205.0859 Q41.6094,205.0859 41.8594,205.3516 Q42.125,205.6016 42.125,205.9453 Q42.125,206.2891 41.7813,206.6953 Q41.2813,207.2734 40.4844,207.6016 Q39.4063,208.0547 38.1094,208.0547 Q36.5938,208.0547 35.3906,207.4297 Q34.4063,206.9297 33.7188,205.8672 Q33.0313,204.7891 33.0313,203.5078 L33.0313,202.3516 Q33.0313,201.0234 33.6406,199.8828 Q34.2656,198.7266 35.3594,198.1172 Q36.4531,197.4922 37.6875,197.4922 Q38.4219,197.4922 39.0625,197.6641 Q39.7188,197.8203 40.2656,198.1797 Z " fill="#000000"/><text fill="#000000" font-family="sans-serif" font-size="12" font-style="italic" lengthAdjust="spacing" textLength="81" x="49.5" y="197.9629">&#171;value object&#187;</text><text fill="#000000" font-family="sans-serif" font-size="14" lengthAdjust="spacing" textLength="29" x="75.5" y="216.082">Role</text><line style="stroke:#181818;stroke-width:0.5;" x1="23.5" x2="130.5" y1="224.5957" y2="224.5957"/></g><!--class MecanographicNumber--><g id="elem_MecanographicNumber"><rect codeLine="12" fill="#F1F1F1" height="68.543" id="MecanographicNumber" rx="2.5" ry="2.5" style="stroke:#181818;stroke-width:0.5;" width="178" x="167" y="172.0137"/><ellipse cx="182" cy="202.2852" fill="#ADD1B2" rx="11" ry="11" style="stroke:#181818;stroke-width:1.0;"/><path d="M184.7656,198.1602 Q184.9219,197.9414 185.1094,197.832 Q185.2969,197.7227 185.5156,197.7227 Q185.8906,197.7227 186.125,197.9883 Q186.3594,198.2383 186.3594,198.8477 L186.3594,200.3008 Q186.3594,200.9102 186.125,201.1758 Q185.8906,201.4414 185.5156,201.4414 Q185.1719,201.4414 184.9688,201.2383 Q184.7656,201.0508 184.6563,200.5352 Q184.6094,200.1758 184.4219,199.9883 Q184.0938,199.6133 183.4844,199.3945 Q182.875,199.1758 182.25,199.1758 Q181.4844,199.1758 180.8438,199.5039 Q180.2188,199.832 179.7188,200.582 Q179.2344,201.332 179.2344,202.3633 L179.2344,203.457 Q179.2344,204.6914 180.125,205.5195 Q181.0156,206.332 182.6094,206.332 Q183.5469,206.332 184.2031,206.082 Q184.5938,205.9258 185.0156,205.4883 Q185.2813,205.2227 185.4219,205.1445 Q185.5781,205.0664 185.7813,205.0664 Q186.1094,205.0664 186.3594,205.332 Q186.625,205.582 186.625,205.9258 Q186.625,206.2695 186.2813,206.6758 Q185.7813,207.2539 184.9844,207.582 Q183.9063,208.0352 182.6094,208.0352 Q181.0938,208.0352 179.8906,207.4102 Q178.9063,206.9102 178.2188,205.8477 Q177.5313,204.7695 177.5313,203.4883 L177.5313,202.332 Q177.5313,201.0039 178.1406,199.8633 Q178.7656,198.707 179.8594,198.0977 Q180.9531,197.4727 182.1875,197.4727 Q182.9219,197.4727 183.5625,197.6445 Q184.2188,197.8008 184.7656,198.1602 Z " fill="#000000"/><text fill="#000000" font-family="sans-serif" font-size="12" font-style="italic" lengthAdjust="spacing" textLength="81" x="228.5" y="189.9629">&#171;value object&#187;</text><text fill="#000000" font-family="sans-serif" font-size="12" font-style="italic" lengthAdjust="spacing" textLength="24" x="257" y="205.9238">&#171;id&#187;</text><text fill="#000000" font-family="sans-serif" font-size="14" lengthAdjust="spacing" textLength="146" x="196" y="224.043">MecanographicNumber</text><line style="stroke:#181818;stroke-width:0.5;" x1="168" x2="344" y1="232.5566" y2="232.5566"/></g><!--link CafeteriaUser to Role--><g id="link_CafeteriaUser_Role"><path codeLine="15" d="M144.59,112.2137 C129.26,133.3737 113.3104,155.395 99.2104,174.855 " fill="none" id="CafeteriaUser-to-Role" style="stroke:#181818;stroke-width:1.0;"/><polygon fill="#181818" points="95.69,179.7137,104.2097,174.7726,98.6237,175.6648,97.7315,170.0787,95.69,179.7137" style="stroke:#181818;stroke-width:1.0;"/><text fill="#000000" font-family="sans-serif" font-size="13" lengthAdjust="spacing" textLength="7" x="92.2027" y="168.6608">1</text></g><!--link CafeteriaUser to MecanographicNumber--><g id="link_CafeteriaUser_MecanographicNumber"><path codeLine="16" d="M192.09,112.2137 C204.67,130.5837 216.8069,148.3153 229.4169,166.7053 " fill="none" id="CafeteriaUser-to-MecanographicNumber" style="stroke:#181818;stroke-width:1.0;"/><polygon fill="#181818" points="232.81,171.6537,231.0193,161.969,229.9824,167.53,224.4214,166.4931,232.81,171.6537" style="stroke:#181818;stroke-width:1.0;"/><text fill="#000000" font-family="sans-serif" font-size="13" lengthAdjust="spacing" textLength="7" x="220.889" y="160.7565">1</text></g><!--SRC=[VOxB2i8m44Nt-OeX-uBkGq5SkT25uWTCqp6DVIGaKw5A_zrG4MnHPpLmxvapiRQTnu0jw0PZt307M_HCE-swaxqJh4HbIm9gFG-0xpWAuL7NQ0YaKcXC88DCUGvRl11Ji7YE52Gy1AIPRiyZK8ewjZmaHgdW7AVbrHx51tHq3QN23PkUm1LNqZ-AUzBOEHFGLrOV-hQO70jEALikyVbRMPQ3NCl9-oV-OXEZU080]--></g></svg>