<?xml version="1.0" encoding="us-ascii" standalone="no"?><svg xmlns="http://www.w3.org/2000/svg" xmlns:xlink="http://www.w3.org/1999/xlink" contentStyleType="text/css" height="780px" preserveAspectRatio="none" style="width:947px;height:780px;background:#FFFFFF;" version="1.1" viewBox="0 0 947 780" width="947px" zoomAndPan="magnify"><defs/><g><!--cluster <<aggregate>> CafeteriaUser--><g id="cluster_&lt;&lt;aggregate&gt;&gt; CafeteriaUser"><path d="M8.5,6.0137 L198.5,6.0137 A3.75,3.75 0 0 1 201,8.5137 L208,30.6348 L213.5,30.6348 A2.5,2.5 0 0 1 216,33.1348 L216,296.5137 A2.5,2.5 0 0 1 213.5,299.0137 L8.5,299.0137 A2.5,2.5 0 0 1 6,296.5137 L6,8.5137 A2.5,2.5 0 0 1 8.5,6.0137 " fill="none" style="stroke:#000000;stroke-width:1.5;"/><line style="stroke:#000000;stroke-width:1.5;" x1="6" x2="208" y1="30.6348" y2="30.6348"/><text fill="#000000" font-family="sans-serif" font-size="14" font-weight="bold" lengthAdjust="spacing" textLength="189" x="10" y="23.1211">&#171;aggregate&#187; CafeteriaUser</text></g><!--cluster <<aggregate>> SystemUser--><g id="cluster_&lt;&lt;aggregate&gt;&gt; SystemUser"><path d="M242.5,177.0137 L418.5,177.0137 A3.75,3.75 0 0 1 421,179.5137 L428,201.6348 L937.5,201.6348 A2.5,2.5 0 0 1 940,204.1348 L940,770.5137 A2.5,2.5 0 0 1 937.5,773.0137 L242.5,773.0137 A2.5,2.5 0 0 1 240,770.5137 L240,179.5137 A2.5,2.5 0 0 1 242.5,177.0137 " fill="none" style="stroke:#000000;stroke-width:1.5;"/><line style="stroke:#000000;stroke-width:1.5;" x1="240" x2="428" y1="201.6348" y2="201.6348"/><text fill="#000000" font-family="sans-serif" font-size="14" font-weight="bold" lengthAdjust="spacing" textLength="175" x="244" y="194.1211">&#171;aggregate&#187; SystemUser</text></g><!--class CafeteriaUser--><g id="elem_CafeteriaUser"><rect codeLine="6" fill="#F1F1F1" height="68.543" id="CafeteriaUser" rx="2.5" ry="2.5" style="stroke:#181818;stroke-width:0.5;" width="119" x="66.5" y="43.0137"/><ellipse cx="81.5" cy="73.2852" fill="#ADD1B2" rx="11" ry="11" style="stroke:#181818;stroke-width:1.0;"/><path d="M84.2656,69.1602 Q84.4219,68.9414 84.6094,68.832 Q84.7969,68.7227 85.0156,68.7227 Q85.3906,68.7227 85.625,68.9883 Q85.8594,69.2383 85.8594,69.8477 L85.8594,71.3008 Q85.8594,71.9102 85.625,72.1758 Q85.3906,72.4414 85.0156,72.4414 Q84.6719,72.4414 84.4688,72.2383 Q84.2656,72.0508 84.1563,71.5352 Q84.1094,71.1758 83.9219,70.9883 Q83.5938,70.6133 82.9844,70.3945 Q82.375,70.1758 81.75,70.1758 Q80.9844,70.1758 80.3438,70.5039 Q79.7188,70.832 79.2188,71.582 Q78.7344,72.332 78.7344,73.3633 L78.7344,74.457 Q78.7344,75.6914 79.625,76.5195 Q80.5156,77.332 82.1094,77.332 Q83.0469,77.332 83.7031,77.082 Q84.0938,76.9258 84.5156,76.4883 Q84.7813,76.2227 84.9219,76.1445 Q85.0781,76.0664 85.2813,76.0664 Q85.6094,76.0664 85.8594,76.332 Q86.125,76.582 86.125,76.9258 Q86.125,77.2695 85.7813,77.6758 Q85.2813,78.2539 84.4844,78.582 Q83.4063,79.0352 82.1094,79.0352 Q80.5938,79.0352 79.3906,78.4102 Q78.4063,77.9102 77.7188,76.8477 Q77.0313,75.7695 77.0313,74.4883 L77.0313,73.332 Q77.0313,72.0039 77.6406,70.8633 Q78.2656,69.707 79.3594,69.0977 Q80.4531,68.4727 81.6875,68.4727 Q82.4219,68.4727 83.0625,68.6445 Q83.7188,68.8008 84.2656,69.1602 Z " fill="#000000"/><text fill="#000000" font-family="sans-serif" font-size="12" font-style="italic" lengthAdjust="spacing" textLength="43" x="117.5" y="60.9629">&#171;entity&#187;</text><text fill="#000000" font-family="sans-serif" font-size="12" font-style="italic" lengthAdjust="spacing" textLength="35" x="121.5" y="76.9238">&#171;root&#187;</text><text fill="#000000" font-family="sans-serif" font-size="14" lengthAdjust="spacing" textLength="87" x="95.5" y="95.043">CafeteriaUser</text><line style="stroke:#181818;stroke-width:0.5;" x1="67.5" x2="184.5" y1="103.5566" y2="103.5566"/></g><!--class MecanographicNumber--><g id="elem_MecanographicNumber"><rect codeLine="9" fill="#F1F1F1" height="68.543" id="MecanographicNumber" rx="2.5" ry="2.5" style="stroke:#181818;stroke-width:0.5;" width="178" x="22" y="214.0137"/><ellipse cx="37" cy="244.2852" fill="#ADD1B2" rx="11" ry="11" style="stroke:#181818;stroke-width:1.0;"/><path d="M39.7656,240.1602 Q39.9219,239.9414 40.1094,239.832 Q40.2969,239.7227 40.5156,239.7227 Q40.8906,239.7227 41.125,239.9883 Q41.3594,240.2383 41.3594,240.8477 L41.3594,242.3008 Q41.3594,242.9102 41.125,243.1758 Q40.8906,243.4414 40.5156,243.4414 Q40.1719,243.4414 39.9688,243.2383 Q39.7656,243.0508 39.6563,242.5352 Q39.6094,242.1758 39.4219,241.9883 Q39.0938,241.6133 38.4844,241.3945 Q37.875,241.1758 37.25,241.1758 Q36.4844,241.1758 35.8438,241.5039 Q35.2188,241.832 34.7188,242.582 Q34.2344,243.332 34.2344,244.3633 L34.2344,245.457 Q34.2344,246.6914 35.125,247.5195 Q36.0156,248.332 37.6094,248.332 Q38.5469,248.332 39.2031,248.082 Q39.5938,247.9258 40.0156,247.4883 Q40.2813,247.2227 40.4219,247.1445 Q40.5781,247.0664 40.7813,247.0664 Q41.1094,247.0664 41.3594,247.332 Q41.625,247.582 41.625,247.9258 Q41.625,248.2695 41.2813,248.6758 Q40.7813,249.2539 39.9844,249.582 Q38.9063,250.0352 37.6094,250.0352 Q36.0938,250.0352 34.8906,249.4102 Q33.9063,248.9102 33.2188,247.8477 Q32.5313,246.7695 32.5313,245.4883 L32.5313,244.332 Q32.5313,243.0039 33.1406,241.8633 Q33.7656,240.707 34.8594,240.0977 Q35.9531,239.4727 37.1875,239.4727 Q37.9219,239.4727 38.5625,239.6445 Q39.2188,239.8008 39.7656,240.1602 Z " fill="#000000"/><text fill="#000000" font-family="sans-serif" font-size="12" font-style="italic" lengthAdjust="spacing" textLength="81" x="83.5" y="231.9629">&#171;value object&#187;</text><text fill="#000000" font-family="sans-serif" font-size="12" font-style="italic" lengthAdjust="spacing" textLength="24" x="112" y="247.9238">&#171;id&#187;</text><text fill="#000000" font-family="sans-serif" font-size="14" lengthAdjust="spacing" textLength="146" x="51" y="266.043">MecanographicNumber</text><line style="stroke:#181818;stroke-width:0.5;" x1="23" x2="199" y1="274.5566" y2="274.5566"/></g><!--class SystemUser--><g id="elem_SystemUser"><rect codeLine="14" fill="#F1F1F1" height="68.543" id="SystemUser" rx="2.5" ry="2.5" style="stroke:#181818;stroke-width:0.5;" width="107" x="473.5" y="214.0137"/><ellipse cx="488.5" cy="244.2852" fill="#ADD1B2" rx="11" ry="11" style="stroke:#181818;stroke-width:1.0;"/><path d="M491.2656,240.1602 Q491.4219,239.9414 491.6094,239.832 Q491.7969,239.7227 492.0156,239.7227 Q492.3906,239.7227 492.625,239.9883 Q492.8594,240.2383 492.8594,240.8477 L492.8594,242.3008 Q492.8594,242.9102 492.625,243.1758 Q492.3906,243.4414 492.0156,243.4414 Q491.6719,243.4414 491.4688,243.2383 Q491.2656,243.0508 491.1563,242.5352 Q491.1094,242.1758 490.9219,241.9883 Q490.5938,241.6133 489.9844,241.3945 Q489.375,241.1758 488.75,241.1758 Q487.9844,241.1758 487.3438,241.5039 Q486.7188,241.832 486.2188,242.582 Q485.7344,243.332 485.7344,244.3633 L485.7344,245.457 Q485.7344,246.6914 486.625,247.5195 Q487.5156,248.332 489.1094,248.332 Q490.0469,248.332 490.7031,248.082 Q491.0938,247.9258 491.5156,247.4883 Q491.7813,247.2227 491.9219,247.1445 Q492.0781,247.0664 492.2813,247.0664 Q492.6094,247.0664 492.8594,247.332 Q493.125,247.582 493.125,247.9258 Q493.125,248.2695 492.7813,248.6758 Q492.2813,249.2539 491.4844,249.582 Q490.4063,250.0352 489.1094,250.0352 Q487.5938,250.0352 486.3906,249.4102 Q485.4063,248.9102 484.7188,247.8477 Q484.0313,246.7695 484.0313,245.4883 L484.0313,244.332 Q484.0313,243.0039 484.6406,241.8633 Q485.2656,240.707 486.3594,240.0977 Q487.4531,239.4727 488.6875,239.4727 Q489.4219,239.4727 490.0625,239.6445 Q490.7188,239.8008 491.2656,240.1602 Z " fill="#000000"/><text fill="#000000" font-family="sans-serif" font-size="12" font-style="italic" lengthAdjust="spacing" textLength="43" x="518.5" y="231.9629">&#171;entity&#187;</text><text fill="#000000" font-family="sans-serif" font-size="12" font-style="italic" lengthAdjust="spacing" textLength="35" x="522.5" y="247.9238">&#171;root&#187;</text><text fill="#000000" font-family="sans-serif" font-size="14" lengthAdjust="spacing" textLength="75" x="502.5" y="266.043">SystemUser</text><line style="stroke:#181818;stroke-width:0.5;" x1="474.5" x2="579.5" y1="274.5566" y2="274.5566"/></g><!--class Username--><g id="elem_Username"><rect codeLine="17" fill="#F1F1F1" height="68.543" id="Username" rx="2.5" ry="2.5" style="stroke:#181818;stroke-width:0.5;" width="109" x="256.5" y="346.0137"/><ellipse cx="271.5" cy="376.2852" fill="#ADD1B2" rx="11" ry="11" style="stroke:#181818;stroke-width:1.0;"/><path d="M274.2656,372.1602 Q274.4219,371.9414 274.6094,371.832 Q274.7969,371.7227 275.0156,371.7227 Q275.3906,371.7227 275.625,371.9883 Q275.8594,372.2383 275.8594,372.8477 L275.8594,374.3008 Q275.8594,374.9102 275.625,375.1758 Q275.3906,375.4414 275.0156,375.4414 Q274.6719,375.4414 274.4688,375.2383 Q274.2656,375.0508 274.1563,374.5352 Q274.1094,374.1758 273.9219,373.9883 Q273.5938,373.6133 272.9844,373.3945 Q272.375,373.1758 271.75,373.1758 Q270.9844,373.1758 270.3438,373.5039 Q269.7188,373.832 269.2188,374.582 Q268.7344,375.332 268.7344,376.3633 L268.7344,377.457 Q268.7344,378.6914 269.625,379.5195 Q270.5156,380.332 272.1094,380.332 Q273.0469,380.332 273.7031,380.082 Q274.0938,379.9258 274.5156,379.4883 Q274.7813,379.2227 274.9219,379.1445 Q275.0781,379.0664 275.2813,379.0664 Q275.6094,379.0664 275.8594,379.332 Q276.125,379.582 276.125,379.9258 Q276.125,380.2695 275.7813,380.6758 Q275.2813,381.2539 274.4844,381.582 Q273.4063,382.0352 272.1094,382.0352 Q270.5938,382.0352 269.3906,381.4102 Q268.4063,380.9102 267.7188,379.8477 Q267.0313,378.7695 267.0313,377.4883 L267.0313,376.332 Q267.0313,375.0039 267.6406,373.8633 Q268.2656,372.707 269.3594,372.0977 Q270.4531,371.4727 271.6875,371.4727 Q272.4219,371.4727 273.0625,371.6445 Q273.7188,371.8008 274.2656,372.1602 Z " fill="#000000"/><text fill="#000000" font-family="sans-serif" font-size="12" font-style="italic" lengthAdjust="spacing" textLength="81" x="283.5" y="363.9629">&#171;value object&#187;</text><text fill="#000000" font-family="sans-serif" font-size="12" font-style="italic" lengthAdjust="spacing" textLength="24" x="312" y="379.9238">&#171;id&#187;</text><text fill="#000000" font-family="sans-serif" font-size="14" lengthAdjust="spacing" textLength="64" x="292" y="398.043">Username</text><line style="stroke:#181818;stroke-width:0.5;" x1="257.5" x2="364.5" y1="406.5566" y2="406.5566"/></g><!--class Password--><g id="elem_Password"><rect codeLine="20" fill="#F1F1F1" height="52.582" id="Password" rx="2.5" ry="2.5" style="stroke:#181818;stroke-width:0.5;" width="109" x="400.5" y="354.0137"/><ellipse cx="415.5" cy="376.3047" fill="#ADD1B2" rx="11" ry="11" style="stroke:#181818;stroke-width:1.0;"/><path d="M418.2656,372.1797 Q418.4219,371.9609 418.6094,371.8516 Q418.7969,371.7422 419.0156,371.7422 Q419.3906,371.7422 419.625,372.0078 Q419.8594,372.2578 419.8594,372.8672 L419.8594,374.3203 Q419.8594,374.9297 419.625,375.1953 Q419.3906,375.4609 419.0156,375.4609 Q418.6719,375.4609 418.4688,375.2578 Q418.2656,375.0703 418.1563,374.5547 Q418.1094,374.1953 417.9219,374.0078 Q417.5938,373.6328 416.9844,373.4141 Q416.375,373.1953 415.75,373.1953 Q414.9844,373.1953 414.3438,373.5234 Q413.7188,373.8516 413.2188,374.6016 Q412.7344,375.3516 412.7344,376.3828 L412.7344,377.4766 Q412.7344,378.7109 413.625,379.5391 Q414.5156,380.3516 416.1094,380.3516 Q417.0469,380.3516 417.7031,380.1016 Q418.0938,379.9453 418.5156,379.5078 Q418.7813,379.2422 418.9219,379.1641 Q419.0781,379.0859 419.2813,379.0859 Q419.6094,379.0859 419.8594,379.3516 Q420.125,379.6016 420.125,379.9453 Q420.125,380.2891 419.7813,380.6953 Q419.2813,381.2734 418.4844,381.6016 Q417.4063,382.0547 416.1094,382.0547 Q414.5938,382.0547 413.3906,381.4297 Q412.4063,380.9297 411.7188,379.8672 Q411.0313,378.7891 411.0313,377.5078 L411.0313,376.3516 Q411.0313,375.0234 411.6406,373.8828 Q412.2656,372.7266 413.3594,372.1172 Q414.4531,371.4922 415.6875,371.4922 Q416.4219,371.4922 417.0625,371.6641 Q417.7188,371.8203 418.2656,372.1797 Z " fill="#000000"/><text fill="#000000" font-family="sans-serif" font-size="12" font-style="italic" lengthAdjust="spacing" textLength="81" x="427.5" y="371.9629">&#171;value object&#187;</text><text fill="#000000" font-family="sans-serif" font-size="14" lengthAdjust="spacing" textLength="61" x="437.5" y="390.082">Password</text><line style="stroke:#181818;stroke-width:0.5;" x1="401.5" x2="508.5" y1="398.5957" y2="398.5957"/></g><!--class Name--><g id="elem_Name"><rect codeLine="23" fill="#F1F1F1" height="52.582" id="Name" rx="2.5" ry="2.5" style="stroke:#181818;stroke-width:0.5;" width="109" x="544.5" y="354.0137"/><ellipse cx="559.5" cy="376.3047" fill="#ADD1B2" rx="11" ry="11" style="stroke:#181818;stroke-width:1.0;"/><path d="M562.2656,372.1797 Q562.4219,371.9609 562.6094,371.8516 Q562.7969,371.7422 563.0156,371.7422 Q563.3906,371.7422 563.625,372.0078 Q563.8594,372.2578 563.8594,372.8672 L563.8594,374.3203 Q563.8594,374.9297 563.625,375.1953 Q563.3906,375.4609 563.0156,375.4609 Q562.6719,375.4609 562.4688,375.2578 Q562.2656,375.0703 562.1563,374.5547 Q562.1094,374.1953 561.9219,374.0078 Q561.5938,373.6328 560.9844,373.4141 Q560.375,373.1953 559.75,373.1953 Q558.9844,373.1953 558.3438,373.5234 Q557.7188,373.8516 557.2188,374.6016 Q556.7344,375.3516 556.7344,376.3828 L556.7344,377.4766 Q556.7344,378.7109 557.625,379.5391 Q558.5156,380.3516 560.1094,380.3516 Q561.0469,380.3516 561.7031,380.1016 Q562.0938,379.9453 562.5156,379.5078 Q562.7813,379.2422 562.9219,379.1641 Q563.0781,379.0859 563.2813,379.0859 Q563.6094,379.0859 563.8594,379.3516 Q564.125,379.6016 564.125,379.9453 Q564.125,380.2891 563.7813,380.6953 Q563.2813,381.2734 562.4844,381.6016 Q561.4063,382.0547 560.1094,382.0547 Q558.5938,382.0547 557.3906,381.4297 Q556.4063,380.9297 555.7188,379.8672 Q555.0313,378.7891 555.0313,377.5078 L555.0313,376.3516 Q555.0313,375.0234 555.6406,373.8828 Q556.2656,372.7266 557.3594,372.1172 Q558.4531,371.4922 559.6875,371.4922 Q560.4219,371.4922 561.0625,371.6641 Q561.7188,371.8203 562.2656,372.1797 Z " fill="#000000"/><text fill="#000000" font-family="sans-serif" font-size="12" font-style="italic" lengthAdjust="spacing" textLength="81" x="571.5" y="371.9629">&#171;value object&#187;</text><text fill="#000000" font-family="sans-serif" font-size="14" lengthAdjust="spacing" textLength="36" x="594" y="390.082">Name</text><line style="stroke:#181818;stroke-width:0.5;" x1="545.5" x2="652.5" y1="398.5957" y2="398.5957"/></g><!--class EmailAddress--><g id="elem_EmailAddress"><rect codeLine="26" fill="#F1F1F1" height="52.582" id="EmailAddress" rx="2.5" ry="2.5" style="stroke:#181818;stroke-width:0.5;" width="118" x="689" y="354.0137"/><ellipse cx="704" cy="376.3047" fill="#ADD1B2" rx="11" ry="11" style="stroke:#181818;stroke-width:1.0;"/><path d="M706.7656,372.1797 Q706.9219,371.9609 707.1094,371.8516 Q707.2969,371.7422 707.5156,371.7422 Q707.8906,371.7422 708.125,372.0078 Q708.3594,372.2578 708.3594,372.8672 L708.3594,374.3203 Q708.3594,374.9297 708.125,375.1953 Q707.8906,375.4609 707.5156,375.4609 Q707.1719,375.4609 706.9688,375.2578 Q706.7656,375.0703 706.6563,374.5547 Q706.6094,374.1953 706.4219,374.0078 Q706.0938,373.6328 705.4844,373.4141 Q704.875,373.1953 704.25,373.1953 Q703.4844,373.1953 702.8438,373.5234 Q702.2188,373.8516 701.7188,374.6016 Q701.2344,375.3516 701.2344,376.3828 L701.2344,377.4766 Q701.2344,378.7109 702.125,379.5391 Q703.0156,380.3516 704.6094,380.3516 Q705.5469,380.3516 706.2031,380.1016 Q706.5938,379.9453 707.0156,379.5078 Q707.2813,379.2422 707.4219,379.1641 Q707.5781,379.0859 707.7813,379.0859 Q708.1094,379.0859 708.3594,379.3516 Q708.625,379.6016 708.625,379.9453 Q708.625,380.2891 708.2813,380.6953 Q707.7813,381.2734 706.9844,381.6016 Q705.9063,382.0547 704.6094,382.0547 Q703.0938,382.0547 701.8906,381.4297 Q700.9063,380.9297 700.2188,379.8672 Q699.5313,378.7891 699.5313,377.5078 L699.5313,376.3516 Q699.5313,375.0234 700.1406,373.8828 Q700.7656,372.7266 701.8594,372.1172 Q702.9531,371.4922 704.1875,371.4922 Q704.9219,371.4922 705.5625,371.6641 Q706.2188,371.8203 706.7656,372.1797 Z " fill="#000000"/><text fill="#000000" font-family="sans-serif" font-size="12" font-style="italic" lengthAdjust="spacing" textLength="81" x="720.5" y="371.9629">&#171;value object&#187;</text><text fill="#000000" font-family="sans-serif" font-size="14" lengthAdjust="spacing" textLength="86" x="718" y="390.082">EmailAddress</text><line style="stroke:#181818;stroke-width:0.5;" x1="690" x2="806" y1="398.5957" y2="398.5957"/></g><!--class RoleSet--><g id="elem_RoleSet"><rect codeLine="29" fill="#F1F1F1" height="40" id="RoleSet" rx="2.5" ry="2.5" style="stroke:#181818;stroke-width:0.5;" width="82" x="842" y="360.5137"/><ellipse cx="857" cy="376.5137" fill="#ADD1B2" rx="11" ry="11" style="stroke:#181818;stroke-width:1.0;"/><path d="M859.7656,372.3887 Q859.9219,372.1699 860.1094,372.0605 Q860.2969,371.9512 860.5156,371.9512 Q860.8906,371.9512 861.125,372.2168 Q861.3594,372.4668 861.3594,373.0762 L861.3594,374.5293 Q861.3594,375.1387 861.125,375.4043 Q860.8906,375.6699 860.5156,375.6699 Q860.1719,375.6699 859.9688,375.4668 Q859.7656,375.2793 859.6563,374.7637 Q859.6094,374.4043 859.4219,374.2168 Q859.0938,373.8418 858.4844,373.623 Q857.875,373.4043 857.25,373.4043 Q856.4844,373.4043 855.8438,373.7324 Q855.2188,374.0605 854.7188,374.8105 Q854.2344,375.5605 854.2344,376.5918 L854.2344,377.6855 Q854.2344,378.9199 855.125,379.748 Q856.0156,380.5605 857.6094,380.5605 Q858.5469,380.5605 859.2031,380.3105 Q859.5938,380.1543 860.0156,379.7168 Q860.2813,379.4512 860.4219,379.373 Q860.5781,379.2949 860.7813,379.2949 Q861.1094,379.2949 861.3594,379.5605 Q861.625,379.8105 861.625,380.1543 Q861.625,380.498 861.2813,380.9043 Q860.7813,381.4824 859.9844,381.8105 Q858.9063,382.2637 857.6094,382.2637 Q856.0938,382.2637 854.8906,381.6387 Q853.9063,381.1387 853.2188,380.0762 Q852.5313,378.998 852.5313,377.7168 L852.5313,376.5605 Q852.5313,375.2324 853.1406,374.0918 Q853.7656,372.9355 854.8594,372.3262 Q855.9531,371.7012 857.1875,371.7012 Q857.9219,371.7012 858.5625,371.873 Q859.2188,372.0293 859.7656,372.3887 Z " fill="#000000"/><text fill="#000000" font-family="sans-serif" font-size="14" lengthAdjust="spacing" textLength="50" x="871" y="382.3105">RoleSet</text><line style="stroke:#181818;stroke-width:0.5;" x1="843" x2="923" y1="392.5137" y2="392.5137"/></g><!--class Set--><g id="elem_Set"><rect codeLine="32" fill="#F1F1F1" height="52.582" id="Set" rx="2.5" ry="2.5" style="stroke:#181818;stroke-width:0.5;" width="89" x="829.5" y="476.0137"/><ellipse cx="844.5" cy="498.3047" fill="#B4A7E5" rx="11" ry="11" style="stroke:#181818;stroke-width:1.0;"/><path d="M845.4531,494.9453 L845.4531,501.6016 L847.1719,501.6016 Q847.7813,501.6016 848.0469,501.8359 Q848.3125,502.0703 848.3125,502.4609 Q848.3125,502.8359 848.0469,503.0703 Q847.7813,503.3047 847.1719,503.3047 L842.0313,503.3047 Q841.4219,503.3047 841.1563,503.0703 Q840.8906,502.8359 840.8906,502.4453 Q840.8906,502.0703 841.1563,501.8359 Q841.4219,501.6016 842.0313,501.6016 L843.75,501.6016 L843.75,494.9453 L842.0313,494.9453 Q841.4219,494.9453 841.1563,494.7109 Q840.8906,494.4766 840.8906,494.0859 Q840.8906,493.7109 841.1563,493.4766 Q841.4219,493.2422 842.0313,493.2422 L847.1719,493.2422 Q847.7813,493.2422 848.0469,493.4766 Q848.3125,493.7109 848.3125,494.0859 Q848.3125,494.4766 848.0469,494.7109 Q847.7813,494.9453 847.1719,494.9453 L845.4531,494.9453 Z " fill="#000000"/><text fill="#000000" font-family="sans-serif" font-size="12" font-style="italic" lengthAdjust="spacing" textLength="61" x="856.5" y="493.9629">&#171;interface&#187;</text><text fill="#000000" font-family="sans-serif" font-size="14" font-style="italic" lengthAdjust="spacing" textLength="21" x="876.5" y="512.082">Set</text><line style="stroke:#181818;stroke-width:0.5;" x1="830.5" x2="917.5" y1="520.5957" y2="520.5957"/></g><!--class RoleAssigment--><g id="elem_RoleAssigment"><rect codeLine="35" fill="#F1F1F1" height="52.582" id="RoleAssigment" rx="2.5" ry="2.5" style="stroke:#181818;stroke-width:0.5;" width="126" x="798" y="590.0137"/><ellipse cx="813" cy="612.3047" fill="#ADD1B2" rx="11" ry="11" style="stroke:#181818;stroke-width:1.0;"/><path d="M815.7656,608.1797 Q815.9219,607.9609 816.1094,607.8516 Q816.2969,607.7422 816.5156,607.7422 Q816.8906,607.7422 817.125,608.0078 Q817.3594,608.2578 817.3594,608.8672 L817.3594,610.3203 Q817.3594,610.9297 817.125,611.1953 Q816.8906,611.4609 816.5156,611.4609 Q816.1719,611.4609 815.9688,611.2578 Q815.7656,611.0703 815.6563,610.5547 Q815.6094,610.1953 815.4219,610.0078 Q815.0938,609.6328 814.4844,609.4141 Q813.875,609.1953 813.25,609.1953 Q812.4844,609.1953 811.8438,609.5234 Q811.2188,609.8516 810.7188,610.6016 Q810.2344,611.3516 810.2344,612.3828 L810.2344,613.4766 Q810.2344,614.7109 811.125,615.5391 Q812.0156,616.3516 813.6094,616.3516 Q814.5469,616.3516 815.2031,616.1016 Q815.5938,615.9453 816.0156,615.5078 Q816.2813,615.2422 816.4219,615.1641 Q816.5781,615.0859 816.7813,615.0859 Q817.1094,615.0859 817.3594,615.3516 Q817.625,615.6016 817.625,615.9453 Q817.625,616.2891 817.2813,616.6953 Q816.7813,617.2734 815.9844,617.6016 Q814.9063,618.0547 813.6094,618.0547 Q812.0938,618.0547 810.8906,617.4297 Q809.9063,616.9297 809.2188,615.8672 Q808.5313,614.7891 808.5313,613.5078 L808.5313,612.3516 Q808.5313,611.0234 809.1406,609.8828 Q809.7656,608.7266 810.8594,608.1172 Q811.9531,607.4922 813.1875,607.4922 Q813.9219,607.4922 814.5625,607.6641 Q815.2188,607.8203 815.7656,608.1797 Z " fill="#000000"/><text fill="#000000" font-family="sans-serif" font-size="12" font-style="italic" lengthAdjust="spacing" textLength="43" x="852.5" y="607.9629">&#171;entity&#187;</text><text fill="#000000" font-family="sans-serif" font-size="14" lengthAdjust="spacing" textLength="94" x="827" y="626.082">RoleAssigment</text><line style="stroke:#181818;stroke-width:0.5;" x1="799" x2="923" y1="634.5957" y2="634.5957"/></g><!--class Role--><g id="elem_Role"><rect codeLine="38" fill="#F1F1F1" height="52.582" id="Role" rx="2.5" ry="2.5" style="stroke:#181818;stroke-width:0.5;" width="109" x="806.5" y="704.0137"/><ellipse cx="821.5" cy="726.3047" fill="#ADD1B2" rx="11" ry="11" style="stroke:#181818;stroke-width:1.0;"/><path d="M824.2656,722.1797 Q824.4219,721.9609 824.6094,721.8516 Q824.7969,721.7422 825.0156,721.7422 Q825.3906,721.7422 825.625,722.0078 Q825.8594,722.2578 825.8594,722.8672 L825.8594,724.3203 Q825.8594,724.9297 825.625,725.1953 Q825.3906,725.4609 825.0156,725.4609 Q824.6719,725.4609 824.4688,725.2578 Q824.2656,725.0703 824.1563,724.5547 Q824.1094,724.1953 823.9219,724.0078 Q823.5938,723.6328 822.9844,723.4141 Q822.375,723.1953 821.75,723.1953 Q820.9844,723.1953 820.3438,723.5234 Q819.7188,723.8516 819.2188,724.6016 Q818.7344,725.3516 818.7344,726.3828 L818.7344,727.4766 Q818.7344,728.7109 819.625,729.5391 Q820.5156,730.3516 822.1094,730.3516 Q823.0469,730.3516 823.7031,730.1016 Q824.0938,729.9453 824.5156,729.5078 Q824.7813,729.2422 824.9219,729.1641 Q825.0781,729.0859 825.2813,729.0859 Q825.6094,729.0859 825.8594,729.3516 Q826.125,729.6016 826.125,729.9453 Q826.125,730.2891 825.7813,730.6953 Q825.2813,731.2734 824.4844,731.6016 Q823.4063,732.0547 822.1094,732.0547 Q820.5938,732.0547 819.3906,731.4297 Q818.4063,730.9297 817.7188,729.8672 Q817.0313,728.7891 817.0313,727.5078 L817.0313,726.3516 Q817.0313,725.0234 817.6406,723.8828 Q818.2656,722.7266 819.3594,722.1172 Q820.4531,721.4922 821.6875,721.4922 Q822.4219,721.4922 823.0625,721.6641 Q823.7188,721.8203 824.2656,722.1797 Z " fill="#000000"/><text fill="#000000" font-family="sans-serif" font-size="12" font-style="italic" lengthAdjust="spacing" textLength="81" x="833.5" y="721.9629">&#171;value object&#187;</text><text fill="#000000" font-family="sans-serif" font-size="14" lengthAdjust="spacing" textLength="29" x="859.5" y="740.082">Role</text><line style="stroke:#181818;stroke-width:0.5;" x1="807.5" x2="914.5" y1="748.5957" y2="748.5957"/></g><!--link CafeteriaUser to MecanographicNumber--><g id="link_CafeteriaUser_MecanographicNumber"><path codeLine="42" d="M123,112.3037 C120.38,141.7837 117.1415,178.3473 114.5215,207.8073 " fill="none" id="CafeteriaUser-to-MecanographicNumber" style="stroke:#181818;stroke-width:1.0;"/><polygon fill="#181818" points="113.99,213.7837,118.7715,205.1734,114.4329,208.8033,110.803,204.4647,113.99,213.7837" style="stroke:#181818;stroke-width:1.0;"/></g><!--link CafeteriaUser to SystemUser--><g id="link_CafeteriaUser_SystemUser"><path codeLine="43" d="M185.6,103.6337 C263.49,136.4537 393.2109,191.1337 467.9609,222.6337 " fill="none" id="CafeteriaUser-to-SystemUser" style="stroke:#181818;stroke-width:1.0;"/><polygon fill="#181818" points="473.49,224.9637,466.7497,217.7826,468.8824,223.022,463.643,225.1548,473.49,224.9637" style="stroke:#181818;stroke-width:1.0;"/><text fill="#000000" font-family="sans-serif" font-size="13" lengthAdjust="spacing" textLength="21" x="315" y="157.042">has</text></g><!--link SystemUser to Username--><g id="link_SystemUser_Username"><path codeLine="45" d="M473.33,281.8137 C440.47,301.5937 403.681,323.7401 370.661,343.6101 " fill="none" id="SystemUser-to-Username" style="stroke:#181818;stroke-width:1.0;"/><polygon fill="#181818" points="365.52,346.7037,375.2939,345.4906,369.8041,344.1257,371.169,338.6359,365.52,346.7037" style="stroke:#181818;stroke-width:1.0;"/></g><!--link SystemUser to Password--><g id="link_SystemUser_Password"><path codeLine="46" d="M508.27,283.3337 C496.1,305.2937 483.3968,328.2448 472.2268,348.4148 " fill="none" id="SystemUser-to-Password" style="stroke:#181818;stroke-width:1.0;"/><polygon fill="#181818" points="469.32,353.6637,477.1794,347.7282,471.7423,349.2896,470.1809,343.8525,469.32,353.6637" style="stroke:#181818;stroke-width:1.0;"/></g><!--link SystemUser to Name--><g id="link_SystemUser_Name"><path codeLine="47" d="M545.73,283.3337 C557.9,305.2937 570.6032,328.2448 581.7732,348.4148 " fill="none" id="SystemUser-to-Name" style="stroke:#181818;stroke-width:1.0;"/><polygon fill="#181818" points="584.68,353.6637,583.8191,343.8525,582.2577,349.2896,576.8206,347.7282,584.68,353.6637" style="stroke:#181818;stroke-width:1.0;"/></g><!--link SystemUser to EmailAddress--><g id="link_SystemUser_EmailAddress"><path codeLine="48" d="M580.78,281.1537 C618.73,303.4737 663.7485,329.9514 699.2085,350.8114 " fill="none" id="SystemUser-to-EmailAddress" style="stroke:#181818;stroke-width:1.0;"/><polygon fill="#181818" points="704.38,353.8537,698.6509,345.8426,700.0704,351.3185,694.5945,352.738,704.38,353.8537" style="stroke:#181818;stroke-width:1.0;"/></g><!--link SystemUser to RoleSet--><g id="link_SystemUser_RoleSet"><path codeLine="49" d="M580.74,263.2337 C641.4,279.5537 742.39,309.2737 825,346.0137 C834.24,350.1237 838.7064,352.3093 847.4364,357.3593 " fill="none" id="SystemUser-to-RoleSet" style="stroke:#181818;stroke-width:1.0;"/><polygon fill="#181818" points="852.63,360.3637,846.8424,352.3947,848.302,357.8601,842.8366,359.3196,852.63,360.3637" style="stroke:#181818;stroke-width:1.0;"/></g><!--link RoleSet to Set--><g id="link_RoleSet_Set"><path codeLine="50" d="M881.57,400.5237 C880.05,420.8837 878.9708,435.3444 877.2708,457.9344 " fill="none" id="RoleSet-to-Set" style="stroke:#181818;stroke-width:1.0;stroke-dasharray:7.0,7.0;"/><polygon fill="none" points="875.92,475.8837,883.2538,458.3847,871.2877,457.4842,875.92,475.8837" style="stroke:#181818;stroke-width:1.0;"/></g><!--link Set to RoleAssigment--><g id="link_Set_RoleAssigment"><path codeLine="51" d="M871.02,529.2137 C868.9,547.4237 866.7717,565.7937 864.6617,583.9737 " fill="none" id="Set-to-RoleAssigment" style="stroke:#181818;stroke-width:1.0;stroke-dasharray:7.0,7.0;"/><polygon fill="#181818" points="863.97,589.9337,868.9809,581.4548,864.5464,584.967,861.0343,580.5325,863.97,589.9337" style="stroke:#181818;stroke-width:1.0;"/></g><!--link RoleAssigment to Role--><g id="link_RoleAssigment_Role"><path codeLine="52" d="M861,643.2137 C861,661.4237 861,679.7537 861,697.9337 " fill="none" id="RoleAssigment-to-Role" style="stroke:#181818;stroke-width:1.0;"/><polygon fill="#181818" points="861,703.9337,865,694.9337,861,698.9337,857,694.9337,861,703.9337" style="stroke:#181818;stroke-width:1.0;"/></g><!--SRC=[bL9DRuCm3BtdLrYzjzfvYf3GjCCEGzNGVe09BcGb2Kh29lRntnTOKO4nkkOGOVkz5_DiTvIwHeiAH8NEnTvRcJMU7eJHgNmdk66bp0b8rRu57CgECGYdHd74Wc33EHQ5fG8zHH7SuO4yMOdFZkm6FdfiT_etfcNWdBINlWqypgqnFdoS6LziHduaWTeK5kjIYgHHMI_nYbL3OB8N4huNalbCPYJsHzTfwpofvPRFjMlxxJWQ5VshoHbt7wutO_FVt1LIilZO2k5UeQpYFBSKWck8JwQYbFmoHEemuWCAWWuI_dM8Bsl6pib21PV7Nb_Wh3T-eaqNRxkDbhPf0JMQ_YsK69P_bEa0mv3d-M60ytooW1sFOLuxESq6ntUxpwZpbVq4qTGsDZLn463V]--></g></svg>