<?xml version="1.0" encoding="us-ascii" standalone="no"?><svg xmlns="http://www.w3.org/2000/svg" xmlns:xlink="http://www.w3.org/1999/xlink" contentStyleType="text/css" height="658.4px" preserveAspectRatio="none" style="width:860px;height:658px;background:#FFFFFF;" version="1.1" viewBox="0 0 860 658" width="860px" zoomAndPan="magnify"><defs/><g><polygon fill="#FFFFFF" points="155.6,97.2266,155.6,97.2826,157.2,97.1161,158.8,97.2781,160.4,97.3331,162,97.0363,163.6,97.2266,163.5378,97.2266,163.2588,105.289,163.2932,113.3515,163.5455,121.414,163.0469,129.4765,164.0429,137.5389,163.0958,145.6014,163.4418,153.6639,163.9456,161.7263,163.5314,169.7888,163.6546,177.8513,163.5744,185.9138,163.7428,193.9762,163.7913,202.0387,164.0686,210.1012,164.1368,218.1637,164.1434,226.2261,163.8037,234.2886,163.9709,242.3511,164.1618,250.4136,163.0231,258.476,164.1428,266.5385,163.3628,274.601,164.027,282.6634,163.204,290.7259,163.5452,298.7884,164.1933,306.8509,163.561,314.9133,163.6842,322.9758,163.8709,331.0383,163.933,339.1008,163.5969,347.1632,163.8298,355.2257,163.1421,363.2882,163.8275,371.3506,164.0386,379.4131,163.9556,387.4756,164.0904,395.5381,163.2135,403.6005,163.0783,411.663,163.1029,419.7255,163.5529,427.788,163.4428,435.8504,164.1451,443.9129,163.4603,451.9754,163.3256,460.0379,163.7826,468.1003,163.0665,476.1628,163.1847,484.2253,164.1192,492.2877,163.9485,500.3502,164.1876,508.4127,163.3426,516.4752,163.8554,524.5376,164.0723,532.6001,163.2221,540.6626,163.5233,548.7251,163.7008,556.7875,163.6,564.85,163.6,565.0238,162,564.8489,160.4,564.9734,158.8,564.7023,157.2,564.6694,155.6,564.85,156.0029,564.85,155.0264,556.7875,156.0072,548.7251,155.7653,540.6626,155.3857,532.6001,155.317,524.5376,155.967,516.4752,155.3605,508.4127,156.0735,500.3502,155.1578,492.2877,156.0939,484.2253,155.9874,476.1628,155.796,468.1003,155.6378,460.0379,156.1813,451.9754,156.0909,443.9129,155.7354,435.8504,155.8146,427.788,155.4958,419.7255,156.1732,411.663,155.7239,403.6005,155.7381,395.5381,155.1133,387.4756,155.2758,379.4131,156.0246,371.3506,155.9438,363.2882,155.5657,355.2257,155.3423,347.1632,155.4249,339.1008,155.0511,331.0383,155.9318,322.9758,156.1917,314.9133,156.0211,306.8509,156.1559,298.7884,155.4906,290.7259,155.6698,282.6634,155.2899,274.601,155.8272,266.5385,155.7974,258.476,156.0419,250.4136,155.4163,242.3511,155.4925,234.2886,155.9548,226.2261,156.0539,218.1637,155.19,210.1012,155.4449,202.0387,155.7194,193.9762,155.1113,185.9138,155.8827,177.8513,155.8064,169.7888,155.5194,161.7263,155.7138,153.6639,156.1829,145.6014,155.3497,137.5389,155.852,129.4765,155.8285,121.414,155.6926,113.3515,155.7127,105.289,155.6,97.2266" style="stroke:#181818;stroke-width:0.8000000000000002;"/><polygon fill="#FFFFFF" points="281.2,147.2922,281.2,147.3482,282.8,147.1817,284.4,147.3437,286,147.3988,287.6,147.1019,289.2,147.2922,289.1378,147.2922,288.8588,155.4137,288.8932,163.5352,289.1455,171.6566,288.6469,179.7781,289.6429,187.8996,288.6958,196.0211,289.0418,204.1426,289.5456,212.2641,289.1314,220.3855,289.2546,228.507,289.1744,236.6285,289.3428,244.75,289.3913,252.8715,289.6686,260.993,289.7368,269.1145,289.7434,277.2359,289.4037,285.3574,289.5709,293.4789,289.7618,301.6004,289.2,309.7219,289.2,309.5296,287.6,309.9028,286,309.6428,284.4,309.8642,282.8,309.5899,281.2,309.7219,281.1452,309.7219,281.7933,301.6004,281.161,293.4789,281.2842,285.3574,281.4709,277.2359,281.533,269.1145,281.1969,260.993,281.4298,252.8715,280.7421,244.75,281.4275,236.6285,281.6386,228.507,281.5556,220.3855,281.6904,212.2641,280.8135,204.1426,280.6783,196.0211,280.7029,187.8996,281.1529,179.7781,281.0428,171.6566,281.7451,163.5352,281.0603,155.4137,281.2,147.2922" style="stroke:#181818;stroke-width:0.8000000000000002;"/><polygon fill="#FFFFFF" points="281.2,384.8203,281.2,384.8764,282.8,384.7098,284.4,384.8719,286,384.9269,287.6,384.6301,289.2,384.8203,289.1378,384.8203,288.8588,392.978,288.8932,401.1358,289.1455,409.2935,288.6469,417.4512,289.6429,425.609,288.6958,433.7667,289.0418,441.9244,289.5456,450.0822,289.1314,458.2399,289.2546,466.3976,289.1744,474.5553,289.3428,482.7131,289.3913,490.8708,289.6686,499.0285,289.7368,507.1863,289.7434,515.344,289.4037,523.5017,289.5709,531.6595,289.2,539.8172,289.2,540.0044,287.6,539.6249,286,539.9981,284.4,539.7381,282.8,539.9595,281.2,539.8172,280.804,539.8172,281.1452,531.6595,281.7933,523.5017,281.161,515.344,281.2842,507.1863,281.4709,499.0285,281.533,490.8708,281.1969,482.7131,281.4298,474.5553,280.7421,466.3976,281.4275,458.2399,281.6386,450.0822,281.5556,441.9244,281.6904,433.7667,280.8135,425.609,280.6783,417.4512,280.7029,409.2935,281.1529,401.1358,281.0428,392.978,281.2,384.8203" style="stroke:#181818;stroke-width:0.8000000000000002;"/><polygon fill="#FFFFFF" points="398.4,409.8531,398.4,409.9092,400,409.7426,401.6,409.9047,403.2,409.9597,404.8,409.6629,406.4,409.8531,406.3793,409.8531,406.2863,414.8597,406.2977,419.8663,406.3818,424.8728,406.2156,429.8794,406.4,434.8859,406.4,435.0336,404.8,434.7179,403.2,434.8332,401.6,435.0011,400,434.8631,398.4,434.8859,398.4182,434.8859,398.3915,429.8794,398.4476,424.8728,398.4638,419.8663,398.5562,414.8597,398.4,409.8531" style="stroke:#181818;stroke-width:0.8000000000000002;"/><polygon fill="#FFFFFF" points="525.6,459.9188,525.6,459.9748,527.2,459.8083,528.8,459.9703,530.4,460.0253,532,459.7285,533.6,459.9188,533.5378,459.9188,533.2588,467.7567,533.2932,475.5946,533.5455,483.4326,533.0469,491.2705,534.0429,499.1085,533.0958,506.9464,533.6,514.7844,533.6,514.7316,532,514.8996,530.4,514.7615,528.8,514.8026,527.2,514.7759,525.6,514.7844,525.7428,514.7844,525.7913,506.9464,526.0686,499.1085,526.1368,491.2705,526.1434,483.4326,525.8037,475.5946,525.9709,467.7567,525.6,459.9188" style="stroke:#181818;stroke-width:0.8000000000000002;"/><polygon fill="#FFFFFF" points="791.2,259.6563,791.2,259.7123,792.8,259.5458,794.4,259.7078,796,259.7628,797.6,259.466,799.2,259.6563,799.1793,259.6563,799.0863,264.6628,799.0977,269.6694,799.1818,274.6759,799.0156,279.6825,799.2,284.6891,799.2,284.8367,797.6,284.521,796,284.6363,794.4,284.8042,792.8,284.6662,791.2,284.6891,791.2182,284.6891,791.1915,279.6825,791.2476,274.6759,791.2638,269.6694,791.3562,264.6628,791.2,259.6563" style="stroke:#181818;stroke-width:0.8000000000000002;"/><path d="M21.6,70.5938 L21.8242,70.5938 L21.1581,78.5415 L21.8062,86.4893 L22.0263,94.437 L20.839,102.3848 L21.5171,110.3325 L21.1451,118.2803 L21.1909,126.228 L21.5273,134.1758 L20.8625,142.1235 L22.1906,150.0713 L20.9277,158.019 L21.389,165.9668 L22.0607,173.9146 L21.5085,181.8623 L21.6728,189.8101 L21.5659,197.7578 L21.7904,205.7056 L21.8551,213.6533 L22.2247,221.6011 L22.3158,229.5488 L22.3245,237.4966 L21.8716,245.4443 L22.0945,253.3921 L22.349,261.3398 L20.8307,269.2876 L22.3237,277.2354 L21.2837,285.1831 L22.1694,293.1309 L21.072,301.0786 L21.5269,309.0264 L22.391,316.9741 L21.548,324.9219 L21.7123,332.8696 L21.9612,340.8174 L22.044,348.7651 L21.5958,356.7129 L21.9064,364.6606 L20.9894,372.6084 L21.9033,380.5562 L22.1847,388.5039 L22.0742,396.4517 L22.2539,404.3994 L21.0847,412.3472 L20.9043,420.2949 L20.9372,428.2427 L21.5372,436.1904 L21.3904,444.1382 L22.3268,452.0859 L21.4137,460.0337 L21.2341,467.9814 L21.8435,475.9292 L20.8887,483.877 L21.0463,491.8247 L22.2922,499.7725 L22.0647,507.7202 L22.3835,515.668 L21.2568,523.6157 L21.9405,531.5635 L22.2298,539.5112 L21.0961,547.459 L21.4977,555.4067 L21.7344,563.3545 L22.2952,571.3022 L21.6,579.25 " fill="none" style="stroke:#181818;stroke-width:0.4000000000000001;stroke-dasharray:5.0,5.0;"/><path d="M159.6,70.5938 L159.8242,70.5938 L159.1581,78.5415 L159.8062,86.4893 L160.0263,94.437 L158.839,102.3848 L159.5171,110.3325 L159.1451,118.2803 L159.1909,126.228 L159.5273,134.1758 L158.8625,142.1235 L160.1906,150.0713 L158.9277,158.019 L159.389,165.9668 L160.0607,173.9146 L159.5085,181.8623 L159.6728,189.8101 L159.5659,197.7578 L159.7904,205.7056 L159.8551,213.6533 L160.2247,221.6011 L160.3158,229.5488 L160.3245,237.4966 L159.8716,245.4443 L160.0945,253.3921 L160.349,261.3398 L158.8307,269.2876 L160.3237,277.2354 L159.2837,285.1831 L160.1694,293.1309 L159.072,301.0786 L159.5269,309.0264 L160.391,316.9741 L159.548,324.9219 L159.7123,332.8696 L159.9612,340.8174 L160.044,348.7651 L159.5958,356.7129 L159.9064,364.6606 L158.9894,372.6084 L159.9033,380.5562 L160.1847,388.5039 L160.0742,396.4517 L160.2539,404.3994 L159.0847,412.3472 L158.9043,420.2949 L158.9372,428.2427 L159.5372,436.1904 L159.3904,444.1382 L160.3268,452.0859 L159.4137,460.0337 L159.2341,467.9814 L159.8435,475.9292 L158.8887,483.877 L159.0463,491.8247 L160.2922,499.7725 L160.0647,507.7202 L160.3835,515.668 L159.2568,523.6157 L159.9405,531.5635 L160.2298,539.5112 L159.0961,547.459 L159.4977,555.4067 L159.7344,563.3545 L160.2952,571.3022 L159.6,579.25 " fill="none" style="stroke:#181818;stroke-width:0.4000000000000001;stroke-dasharray:5.0,5.0;"/><path d="M285.2,70.5938 L285.4242,70.5938 L284.7581,78.5415 L285.4062,86.4893 L285.6263,94.437 L284.439,102.3848 L285.1171,110.3325 L284.7451,118.2803 L284.7909,126.228 L285.1273,134.1758 L284.4625,142.1235 L285.7906,150.0713 L284.5277,158.019 L284.989,165.9668 L285.6607,173.9146 L285.1085,181.8623 L285.2728,189.8101 L285.1659,197.7578 L285.3904,205.7056 L285.4551,213.6533 L285.8247,221.6011 L285.9158,229.5488 L285.9245,237.4966 L285.4716,245.4443 L285.6945,253.3921 L285.949,261.3398 L284.4307,269.2876 L285.9237,277.2354 L284.8837,285.1831 L285.7694,293.1309 L284.672,301.0786 L285.1269,309.0264 L285.991,316.9741 L285.148,324.9219 L285.3123,332.8696 L285.5612,340.8174 L285.644,348.7651 L285.1958,356.7129 L285.5064,364.6606 L284.5894,372.6084 L285.5033,380.5562 L285.7847,388.5039 L285.6742,396.4517 L285.8539,404.3994 L284.6847,412.3472 L284.5043,420.2949 L284.5372,428.2427 L285.1372,436.1904 L284.9904,444.1382 L285.9268,452.0859 L285.0137,460.0337 L284.8341,467.9814 L285.4435,475.9292 L284.4887,483.877 L284.6463,491.8247 L285.8922,499.7725 L285.6647,507.7202 L285.9835,515.668 L284.8568,523.6157 L285.5405,531.5635 L285.8298,539.5112 L284.6961,547.459 L285.0977,555.4067 L285.3344,563.3545 L285.8952,571.3022 L285.2,579.25 " fill="none" style="stroke:#181818;stroke-width:0.4000000000000001;stroke-dasharray:5.0,5.0;"/><path d="M402,70.5938 L402.2242,70.5938 L401.5581,78.5415 L402.2062,86.4893 L402.4263,94.437 L401.239,102.3848 L401.9171,110.3325 L401.5451,118.2803 L401.5909,126.228 L401.9273,134.1758 L401.2625,142.1235 L402.5906,150.0713 L401.3277,158.019 L401.789,165.9668 L402.4607,173.9146 L401.9085,181.8623 L402.0728,189.8101 L401.9659,197.7578 L402.1904,205.7056 L402.2551,213.6533 L402.6247,221.6011 L402.7158,229.5488 L402.7245,237.4966 L402.2716,245.4443 L402.4945,253.3921 L402.749,261.3398 L401.2307,269.2876 L402.7237,277.2354 L401.6837,285.1831 L402.5694,293.1309 L401.472,301.0786 L401.9269,309.0264 L402.791,316.9741 L401.948,324.9219 L402.1123,332.8696 L402.3612,340.8174 L402.444,348.7651 L401.9958,356.7129 L402.3064,364.6606 L401.3894,372.6084 L402.3033,380.5562 L402.5847,388.5039 L402.4742,396.4517 L402.6539,404.3994 L401.4847,412.3472 L401.3043,420.2949 L401.3372,428.2427 L401.9372,436.1904 L401.7904,444.1382 L402.7268,452.0859 L401.8137,460.0337 L401.6341,467.9814 L402.2435,475.9292 L401.2887,483.877 L401.4463,491.8247 L402.6922,499.7725 L402.4647,507.7202 L402.7835,515.668 L401.6568,523.6157 L402.3405,531.5635 L402.6298,539.5112 L401.4961,547.459 L401.8977,555.4067 L402.1344,563.3545 L402.6952,571.3022 L402,579.25 " fill="none" style="stroke:#181818;stroke-width:0.4000000000000001;stroke-dasharray:5.0,5.0;"/><path d="M529.2,70.5938 L529.4242,70.5938 L528.7581,78.5415 L529.4062,86.4893 L529.6263,94.437 L528.439,102.3848 L529.1171,110.3325 L528.7451,118.2803 L528.7909,126.228 L529.1273,134.1758 L528.4625,142.1235 L529.7906,150.0713 L528.5277,158.019 L528.989,165.9668 L529.6607,173.9146 L529.1085,181.8623 L529.2728,189.8101 L529.1659,197.7578 L529.3904,205.7056 L529.4551,213.6533 L529.8247,221.6011 L529.9158,229.5488 L529.9245,237.4966 L529.4716,245.4443 L529.6945,253.3921 L529.949,261.3398 L528.4307,269.2876 L529.9237,277.2354 L528.8837,285.1831 L529.7694,293.1309 L528.672,301.0786 L529.1269,309.0264 L529.991,316.9741 L529.148,324.9219 L529.3123,332.8696 L529.5612,340.8174 L529.644,348.7651 L529.1958,356.7129 L529.5064,364.6606 L528.5894,372.6084 L529.5033,380.5562 L529.7847,388.5039 L529.6742,396.4517 L529.8539,404.3994 L528.6847,412.3472 L528.5043,420.2949 L528.5372,428.2427 L529.1372,436.1904 L528.9904,444.1382 L529.9268,452.0859 L529.0137,460.0337 L528.8341,467.9814 L529.4435,475.9292 L528.4887,483.877 L528.6463,491.8247 L529.8922,499.7725 L529.6647,507.7202 L529.9835,515.668 L528.8568,523.6157 L529.5405,531.5635 L529.8298,539.5112 L528.6961,547.459 L529.0977,555.4067 L529.3344,563.3545 L529.8952,571.3022 L529.2,579.25 " fill="none" style="stroke:#181818;stroke-width:0.4000000000000001;stroke-dasharray:5.0,5.0;"/><path d="M669.2,70.5938 L669.4242,70.5938 L668.7581,78.5415 L669.4062,86.4893 L669.6263,94.437 L668.439,102.3848 L669.1171,110.3325 L668.7451,118.2803 L668.7909,126.228 L669.1273,134.1758 L668.4625,142.1235 L669.7906,150.0713 L668.5277,158.019 L668.989,165.9668 L669.6607,173.9146 L669.1085,181.8623 L669.2728,189.8101 L669.1659,197.7578 L669.3904,205.7056 L669.4551,213.6533 L669.8247,221.6011 L669.9158,229.5488 L669.9245,237.4966 L669.4716,245.4443 L669.6945,253.3921 L669.949,261.3398 L668.4307,269.2876 L669.9237,277.2354 L668.8837,285.1831 L669.7694,293.1309 L668.672,301.0786 L669.1269,309.0264 L669.991,316.9741 L669.148,324.9219 L669.3123,332.8696 L669.5612,340.8174 L669.644,348.7651 L669.1958,356.7129 L669.5064,364.6606 L668.5894,372.6084 L669.5033,380.5562 L669.7847,388.5039 L669.6742,396.4517 L669.8539,404.3994 L668.6847,412.3472 L668.5043,420.2949 L668.5372,428.2427 L669.1372,436.1904 L668.9904,444.1382 L669.9268,452.0859 L669.0137,460.0337 L668.8341,467.9814 L669.4435,475.9292 L668.4887,483.877 L668.6463,491.8247 L669.8922,499.7725 L669.6647,507.7202 L669.9835,515.668 L668.8568,523.6157 L669.5405,531.5635 L669.8298,539.5112 L668.6961,547.459 L669.0977,555.4067 L669.3344,563.3545 L669.8952,571.3022 L669.2,579.25 " fill="none" style="stroke:#181818;stroke-width:0.4000000000000001;stroke-dasharray:5.0,5.0;"/><path d="M794.8,70.5938 L795.0242,70.5938 L794.3581,78.5415 L795.0062,86.4893 L795.2263,94.437 L794.039,102.3848 L794.7171,110.3325 L794.3451,118.2803 L794.3909,126.228 L794.7273,134.1758 L794.0625,142.1235 L795.3906,150.0713 L794.1277,158.019 L794.589,165.9668 L795.2607,173.9146 L794.7085,181.8623 L794.8728,189.8101 L794.7659,197.7578 L794.9904,205.7056 L795.0551,213.6533 L795.4247,221.6011 L795.5158,229.5488 L795.5245,237.4966 L795.0716,245.4443 L795.2945,253.3921 L795.549,261.3398 L794.0307,269.2876 L795.5237,277.2354 L794.4837,285.1831 L795.3694,293.1309 L794.272,301.0786 L794.7269,309.0264 L795.591,316.9741 L794.748,324.9219 L794.9123,332.8696 L795.1612,340.8174 L795.244,348.7651 L794.7958,356.7129 L795.1064,364.6606 L794.1894,372.6084 L795.1033,380.5562 L795.3847,388.5039 L795.2742,396.4517 L795.4539,404.3994 L794.2847,412.3472 L794.1043,420.2949 L794.1372,428.2427 L794.7372,436.1904 L794.5904,444.1382 L795.5268,452.0859 L794.6137,460.0337 L794.4341,467.9814 L795.0435,475.9292 L794.0887,483.877 L794.2463,491.8247 L795.4922,499.7725 L795.2647,507.7202 L795.5835,515.668 L794.4568,523.6157 L795.1405,531.5635 L795.4298,539.5112 L794.2961,547.459 L794.6977,555.4067 L794.9344,563.3545 L795.4952,571.3022 L794.8,579.25 " fill="none" style="stroke:#181818;stroke-width:0.4000000000000001;stroke-dasharray:5.0,5.0;"/><text fill="#000000" font-family="FG Virgil" font-size="11.2" lengthAdjust="spacing" textLength="31.2" x="4" y="67.7828">Admin</text><polygon fill="#E3E3E3" points="28.4354,16.0536,27.4972,17.3354,26.3876,19.2129,24.8007,20.4782,23.133,21.1701,21.8033,21.2302,20.0944,20.3648,18.4818,19.7995,17.2579,18.6517,16.6159,17.3378,16.2352,16.2915,15.8622,14.9249,15.2567,13.7489,15.722,12.6007,16.1296,11.343,17.6592,10.3482,18.7354,9.0575,20.0674,8.6289,21.651,8.2598,23.6817,8.4791,24.7939,9.0037,26.0871,9.2414,27.6595,10.8524,28.2076,12.553,28.4457,13.7134,28.176,15.6255" style="stroke:#181818;stroke-width:0.4000000000000001;"/><path d="M22,20.8969 L22.1495,20.8969 L21.7054,25.2169 L22.1374,29.5369 L22.2842,33.8569 L21.4927,38.1769 L22,42.4969 M11.6,27.2969 L11.6,27.2416 L15.76,26.9936 L19.92,27.0242 L24.08,27.2484 L28.24,26.8052 L32.4,27.2969 M22,42.4969 L22.2975,42.7547 L19.5813,44.6033 L17.7337,47.2048 L15.9921,49.898 L13.6339,52.0569 L11.6,54.4969 M22,42.4969 L22.0367,42.5287 L24.0628,44.882 L26.2559,47.38 L28.3685,49.8082 L30.6347,52.3696 L32.4,54.4969 " fill="none" style="stroke:#181818;stroke-width:0.4000000000000001;"/><text fill="#000000" font-family="FG Virgil" font-size="11.2" lengthAdjust="spacing" textLength="31.2" x="4" y="590.5359">Admin</text><polygon fill="#E3E3E3" points="28.4354,601.7036,27.4972,602.9854,26.3876,604.8629,24.8007,606.1282,23.133,606.8201,21.8033,606.8802,20.0944,606.0148,18.4818,605.4495,17.2579,604.3017,16.6159,602.9878,16.2352,601.9415,15.8622,600.5749,15.2567,599.3989,15.722,598.2507,16.1296,596.993,17.6592,595.9982,18.7354,594.7075,20.0674,594.2789,21.651,593.9098,23.6817,594.1291,24.7939,594.6537,26.0871,594.8914,27.6595,596.5024,28.2076,598.203,28.4457,599.3634,28.176,601.2755" style="stroke:#181818;stroke-width:0.4000000000000001;"/><path d="M22,606.5469 L22.1495,606.5469 L21.7054,610.8669 L22.1374,615.1869 L22.2842,619.5069 L21.4927,623.8269 L22,628.1469 M11.6,612.9469 L11.6,612.8916 L15.76,612.6436 L19.92,612.6742 L24.08,612.8984 L28.24,612.4552 L32.4,612.9469 M22,628.1469 L22.2975,628.4047 L19.5813,630.2533 L17.7337,632.8548 L15.9921,635.548 L13.6339,637.7069 L11.6,640.1469 M22,628.1469 L22.0367,628.1787 L24.0628,630.532 L26.2559,633.03 L28.3685,635.4582 L30.6347,638.0196 L32.4,640.1469 " fill="none" style="stroke:#181818;stroke-width:0.4000000000000001;"/><polygon fill="#E3E3E3" points="112.8,28.8,112.8,28.9681,120.6,28.4685,128.4,28.9546,136.2,29.1197,144,28.2293,151.8,28.7378,159.6,28.4588,167.4,28.4932,175.2,28.7455,183,28.2469,190.8,29.2429,198.6,28.2958,206.4,28.8,206.3798,28.7513,206.7269,29.0236,206.9569,29.0132,207.2555,29.1683,207.5281,29.2608,207.8142,29.3858,207.8582,29.404,207.9903,29.693,208.1928,30.0112,208.331,30.3028,208.4502,30.5865,208.4,30.8,208.6037,30.8,208.7709,38.1988,208.9618,45.5975,207.8231,52.9963,208.9428,60.395,208.4,67.7938,208.327,67.7635,208.4144,68.1311,208.0437,68.3089,208.0317,68.6353,208.1141,69.0008,207.8142,69.208,207.8092,69.196,207.5421,69.3511,207.2831,69.5257,207.0082,69.662,206.6824,69.6756,206.4,69.7938,206.4,70.0235,198.6,69.3358,190.8,70.0213,183,70.2323,175.2,70.1494,167.4,70.2842,159.6,69.4073,151.8,69.272,144,69.2966,136.2,69.7466,128.4,69.6365,120.6,70.3389,112.8,69.7938,112.7822,69.7507,112.4821,69.5921,112.2576,69.6157,111.8834,69.278,111.6157,69.1972,111.3858,69.208,111.5457,69.2742,111.376,68.9696,111.3324,68.7172,110.955,68.3266,110.9958,68.1092,110.8,67.7938,111.2723,67.7938,110.4221,60.395,110.7233,52.9963,110.9008,45.5975,111.3214,38.1988,110.8,30.8,110.799,30.7996,111.0311,30.5644,110.8979,30.1778,110.9846,29.8824,111.3927,29.72,111.3858,29.3858,111.3126,29.2092,111.7206,29.394,111.9726,29.2024,112.207,28.9683,112.4811,28.83,112.8,28.8" style="stroke:#181818;stroke-width:0.4000000000000001;"/><text fill="#000000" font-family="FG Virgil" font-size="11.2" font-style="italic" lengthAdjust="spacing" textLength="76" x="121.6" y="46.4859">&#171;presentation&#187;</text><text fill="#000000" font-family="FG Virgil" font-size="11.2" lengthAdjust="spacing" textLength="86.4" x="116.4" y="61.3828">DeactivateUserUI</text><polygon fill="#E3E3E3" points="112.8,578.45,112.8,578.6181,120.6,578.1185,128.4,578.6046,136.2,578.7697,144,577.8793,151.8,578.3878,159.6,578.1088,167.4,578.1432,175.2,578.3955,183,577.8969,190.8,578.8929,198.6,577.9458,206.4,578.45,206.3798,578.4013,206.7269,578.6736,206.9569,578.6632,207.2555,578.8183,207.5281,578.9108,207.8142,579.0358,207.8582,579.054,207.9903,579.343,208.1928,579.6612,208.331,579.9528,208.4502,580.2365,208.4,580.45,208.6037,580.45,208.7709,587.8488,208.9618,595.2475,207.8231,602.6463,208.9428,610.045,208.4,617.4438,208.327,617.4135,208.4144,617.7811,208.0437,617.9589,208.0317,618.2853,208.1141,618.6508,207.8142,618.858,207.8092,618.846,207.5421,619.0011,207.2831,619.1757,207.0082,619.312,206.6824,619.3256,206.4,619.4438,206.4,619.6735,198.6,618.9858,190.8,619.6713,183,619.8823,175.2,619.7994,167.4,619.9342,159.6,619.0573,151.8,618.922,144,618.9466,136.2,619.3966,128.4,619.2865,120.6,619.9889,112.8,619.4438,112.7822,619.4007,112.4821,619.2421,112.2576,619.2657,111.8834,618.928,111.6157,618.8472,111.3858,618.858,111.5457,618.9242,111.376,618.6196,111.3324,618.3672,110.955,617.9766,110.9958,617.7592,110.8,617.4438,111.2723,617.4438,110.4221,610.045,110.7233,602.6463,110.9008,595.2475,111.3214,587.8488,110.8,580.45,110.799,580.4496,111.0311,580.2144,110.8979,579.8278,110.9846,579.5324,111.3927,579.37,111.3858,579.0358,111.3126,578.8592,111.7206,579.044,111.9726,578.8524,112.207,578.6183,112.4811,578.48,112.8,578.45" style="stroke:#181818;stroke-width:0.4000000000000001;"/><text fill="#000000" font-family="FG Virgil" font-size="11.2" font-style="italic" lengthAdjust="spacing" textLength="76" x="121.6" y="596.1359">&#171;presentation&#187;</text><text fill="#000000" font-family="FG Virgil" font-size="11.2" lengthAdjust="spacing" textLength="86.4" x="116.4" y="611.0328">DeactivateUserUI</text><polygon fill="#E3E3E3" points="218.4,28.8,218.4,28.9681,226.2588,28.4685,234.1176,28.9546,241.9765,29.1197,249.8353,28.2293,257.6941,28.7378,265.5529,28.4588,273.4118,28.4932,281.2706,28.7455,289.1294,28.2469,296.9882,29.2429,304.8471,28.2958,312.7059,28.6418,320.5647,29.1456,328.4235,28.7314,336.2824,28.8546,344.1412,28.7744,352,28.8,352.0182,28.844,352.3072,28.9761,352.6255,29.1786,352.917,29.3168,353.2007,29.436,353.4142,29.3858,353.4769,29.4118,353.6456,29.7159,353.8215,30.0231,353.588,30.1607,354.05,30.5864,354,30.8,353.7628,30.8,354.427,38.1988,353.604,45.5975,353.9452,52.9963,354.5933,60.395,354,67.7938,353.988,67.7888,353.9088,68.0873,353.8491,68.394,353.7511,68.6848,353.5304,68.9247,353.4142,69.208,353.4435,69.2787,353.073,69.1841,352.8775,69.5123,352.6216,69.6945,352.3282,69.7861,352,69.7938,352,70.2842,344.1412,69.4073,336.2824,69.272,328.4235,69.2966,320.5647,69.7466,312.7059,69.6365,304.8471,70.3389,296.9882,69.654,289.1294,69.5193,281.2706,69.9764,273.4118,69.2603,265.5529,69.3784,257.6941,70.3129,249.8353,70.1423,241.9765,70.3813,234.1176,69.5363,226.2588,70.0491,218.4,69.7938,218.4603,69.9392,218.0689,69.5602,217.8245,69.5358,217.5643,69.4733,217.3351,69.4857,216.9858,69.208,216.9848,69.2075,216.9826,68.9723,216.615,68.5858,216.4675,68.2903,216.6412,68.128,216.4,67.7938,215.8264,67.7938,216.8072,60.395,216.5653,52.9963,216.1857,45.5975,216.117,38.1988,216.4,30.8,216.513,30.8468,216.4434,30.4866,216.7801,30.2947,216.6153,29.8951,217.0207,29.7316,216.9858,29.3858,217.0352,29.5051,217.2936,29.329,217.5563,29.1631,217.9085,29.2133,218.1798,29.0683,218.4,28.8" style="stroke:#181818;stroke-width:0.4000000000000001;"/><text fill="#000000" font-family="FG Virgil" font-size="11.2" font-style="italic" lengthAdjust="spacing" textLength="67.2" x="251.6" y="46.4859">&#171;application&#187;</text><text fill="#000000" font-family="FG Virgil" font-size="11.2" lengthAdjust="spacing" textLength="126.4" x="222" y="61.3828">DeactivateUserController</text><polygon fill="#E3E3E3" points="218.4,578.45,218.4,578.6181,226.2588,578.1185,234.1176,578.6046,241.9765,578.7697,249.8353,577.8793,257.6941,578.3878,265.5529,578.1088,273.4118,578.1432,281.2706,578.3955,289.1294,577.8969,296.9882,578.8929,304.8471,577.9458,312.7059,578.2918,320.5647,578.7956,328.4235,578.3814,336.2824,578.5046,344.1412,578.4244,352,578.45,352.0182,578.494,352.3072,578.6261,352.6255,578.8286,352.917,578.9668,353.2007,579.086,353.4142,579.0358,353.4769,579.0618,353.6456,579.3659,353.8215,579.6731,353.588,579.8107,354.05,580.2364,354,580.45,353.7628,580.45,354.427,587.8488,353.604,595.2475,353.9452,602.6463,354.5933,610.045,354,617.4438,353.988,617.4388,353.9088,617.7373,353.8491,618.044,353.7511,618.3348,353.5304,618.5747,353.4142,618.858,353.4435,618.9287,353.073,618.8341,352.8775,619.1623,352.6216,619.3445,352.3282,619.4361,352,619.4438,352,619.9342,344.1412,619.0573,336.2824,618.922,328.4235,618.9466,320.5647,619.3966,312.7059,619.2865,304.8471,619.9889,296.9882,619.304,289.1294,619.1693,281.2706,619.6264,273.4118,618.9103,265.5529,619.0284,257.6941,619.9629,249.8353,619.7923,241.9765,620.0313,234.1176,619.1863,226.2588,619.6991,218.4,619.4438,218.4603,619.5892,218.0689,619.2102,217.8245,619.1858,217.5643,619.1233,217.3351,619.1357,216.9858,618.858,216.9848,618.8575,216.9826,618.6223,216.615,618.2358,216.4675,617.9403,216.6412,617.778,216.4,617.4438,215.8264,617.4438,216.8072,610.045,216.5653,602.6463,216.1857,595.2475,216.117,587.8488,216.4,580.45,216.513,580.4968,216.4434,580.1366,216.7801,579.9447,216.6153,579.5451,217.0207,579.3816,216.9858,579.0358,217.0352,579.1551,217.2936,578.979,217.5563,578.8131,217.9085,578.8633,218.1798,578.7183,218.4,578.45" style="stroke:#181818;stroke-width:0.4000000000000001;"/><text fill="#000000" font-family="FG Virgil" font-size="11.2" font-style="italic" lengthAdjust="spacing" textLength="67.2" x="251.6" y="596.1359">&#171;application&#187;</text><text fill="#000000" font-family="FG Virgil" font-size="11.2" lengthAdjust="spacing" textLength="126.4" x="222" y="611.0328">DeactivateUserController</text><polygon fill="#E3E3E3" points="364,28.8,364,28.9681,371.68,28.4685,379.36,28.9546,387.04,29.1197,394.72,28.2293,402.4,28.7378,410.08,28.4588,417.76,28.4932,425.44,28.7455,433.12,28.2469,440.8,28.8,440.8565,28.9364,441.0185,28.7619,441.3455,28.9856,441.6926,29.2579,441.9226,29.2475,442.2142,29.3858,442.231,29.3928,442.3235,29.6654,442.4925,29.9697,442.6246,30.2587,442.8271,30.5769,442.8,30.8,443.3368,30.8,443.3434,38.1988,443.0037,45.5975,443.1709,52.9963,443.3618,60.395,442.8,67.7938,442.6223,67.7202,442.85,68.1458,442.4926,68.3292,442.58,68.6968,442.2094,68.8746,442.2142,69.208,442.2072,69.1911,442.0071,69.5078,441.6436,69.4303,441.3764,69.5854,441.1174,69.76,440.8,69.7938,440.8,70.1267,433.12,69.7906,425.44,70.0235,417.76,69.3358,410.08,70.0213,402.4,70.2323,394.72,70.1494,387.04,70.2842,379.36,69.4073,371.68,69.272,364,69.7938,363.9366,69.6407,363.7111,69.6621,363.4143,69.511,363.221,69.6102,362.8508,69.2821,362.5858,69.208,362.5013,69.173,362.5249,68.9484,362.1872,68.5742,362.1064,68.3065,362.277,68.1428,362,67.7938,362.3485,67.7938,362.5876,60.395,361.7426,52.9963,362.2554,45.5975,362.4723,38.1988,362,30.8,361.8836,30.7518,362.0935,30.5074,362.2654,30.2472,362.512,30.018,362.4676,29.6682,362.5858,29.3858,362.633,29.4997,362.8121,29.1322,363.0824,28.9846,363.4857,29.1584,363.644,28.7405,364,28.8" style="stroke:#181818;stroke-width:0.4000000000000001;"/><text fill="#000000" font-family="FG Virgil" font-size="11.2" font-style="italic" lengthAdjust="spacing" textLength="38.4" x="383.2" y="46.4859">&#171;utility&#187;</text><text fill="#000000" font-family="FG Virgil" font-size="11.2" lengthAdjust="spacing" textLength="69.6" x="367.6" y="61.3828">AuthzRegistry</text><polygon fill="#E3E3E3" points="364,578.45,364,578.6181,371.68,578.1185,379.36,578.6046,387.04,578.7697,394.72,577.8793,402.4,578.3878,410.08,578.1088,417.76,578.1432,425.44,578.3955,433.12,577.8969,440.8,578.45,440.8565,578.5864,441.0185,578.4119,441.3455,578.6356,441.6926,578.9079,441.9226,578.8975,442.2142,579.0358,442.231,579.0428,442.3235,579.3154,442.4925,579.6197,442.6246,579.9087,442.8271,580.2269,442.8,580.45,443.3368,580.45,443.3434,587.8488,443.0037,595.2475,443.1709,602.6463,443.3618,610.045,442.8,617.4438,442.6223,617.3702,442.85,617.7958,442.4926,617.9792,442.58,618.3468,442.2094,618.5246,442.2142,618.858,442.2072,618.8411,442.0071,619.1578,441.6436,619.0803,441.3764,619.2354,441.1174,619.41,440.8,619.4438,440.8,619.7767,433.12,619.4406,425.44,619.6735,417.76,618.9858,410.08,619.6713,402.4,619.8823,394.72,619.7994,387.04,619.9342,379.36,619.0573,371.68,618.922,364,619.4438,363.9366,619.2907,363.7111,619.3121,363.4143,619.161,363.221,619.2602,362.8508,618.9321,362.5858,618.858,362.5013,618.823,362.5249,618.5984,362.1872,618.2242,362.1064,617.9565,362.277,617.7928,362,617.4438,362.3485,617.4438,362.5876,610.045,361.7426,602.6463,362.2554,595.2475,362.4723,587.8488,362,580.45,361.8836,580.4018,362.0935,580.1574,362.2654,579.8972,362.512,579.668,362.4676,579.3182,362.5858,579.0358,362.633,579.1497,362.8121,578.7822,363.0824,578.6346,363.4857,578.8084,363.644,578.3905,364,578.45" style="stroke:#181818;stroke-width:0.4000000000000001;"/><text fill="#000000" font-family="FG Virgil" font-size="11.2" font-style="italic" lengthAdjust="spacing" textLength="38.4" x="383.2" y="596.1359">&#171;utility&#187;</text><text fill="#000000" font-family="FG Virgil" font-size="11.2" lengthAdjust="spacing" textLength="69.6" x="367.6" y="611.0328">AuthzRegistry</text><polygon fill="#E3E3E3" points="452.8,28.8,452.8,28.9681,460.8842,28.4685,468.9684,28.9546,477.0526,29.1197,485.1368,28.2293,493.2211,28.7378,501.3053,28.4588,509.3895,28.4932,517.4737,28.7455,525.5579,28.2469,533.6421,29.2429,541.7263,28.2958,549.8105,28.6418,557.8947,29.1456,565.9789,28.7314,574.0632,28.8546,582.1474,28.7744,590.2316,28.9428,598.3158,28.9913,606.4,28.8,606.4598,28.9443,606.7513,29.0825,607.035,29.2017,607.2745,29.2142,607.5787,29.3828,607.8142,29.3858,607.9872,29.4574,607.7537,29.595,608.2157,30.0207,608.0926,30.2041,608.4144,30.5716,608.4,30.8,608.004,30.8,608.3452,38.1988,608.9933,45.5975,608.361,52.9963,608.4842,60.395,608.4,67.7938,608.4834,67.8283,608.3854,68.1191,608.1647,68.359,608.1193,68.6716,607.7903,68.8667,607.8142,69.208,607.8432,69.278,607.5873,69.4602,607.2939,69.5518,607.0282,69.7105,606.6335,69.5576,606.4,69.7938,606.4,69.272,598.3158,69.2966,590.2316,69.7466,582.1474,69.6365,574.0632,70.3389,565.9789,69.654,557.8947,69.5193,549.8105,69.9764,541.7263,69.2603,533.6421,69.3784,525.5579,70.3129,517.4737,70.1423,509.3895,70.3813,501.3053,69.5363,493.2211,70.0491,485.1368,70.2661,477.0526,69.4158,468.9684,69.7171,460.8842,69.8945,452.8,69.7938,452.8665,69.9543,452.5167,69.6756,452.2815,69.6734,451.895,69.3058,451.5995,69.1583,451.3858,69.208,451.5099,69.2594,451.092,68.852,451.2769,68.6942,451.0852,68.3805,450.8512,68.0493,450.8,67.7938,450.517,67.7938,451.167,60.395,450.5605,52.9963,451.2735,45.5975,450.3578,38.1988,450.8,30.8,450.9521,30.863,451.0365,30.5666,451.0947,30.2593,451.1631,29.9563,451.4476,29.7428,451.3858,29.3858,451.4484,29.537,451.6859,29.3103,451.9788,29.2175,452.221,29.0022,452.5903,29.0937,452.8,28.8" style="stroke:#181818;stroke-width:0.4000000000000001;"/><text fill="#000000" font-family="FG Virgil" font-size="11.2" font-style="italic" lengthAdjust="spacing" textLength="67.2" x="496" y="46.4859">&#171;application&#187;</text><text fill="#000000" font-family="FG Virgil" font-size="11.2" lengthAdjust="spacing" textLength="146.4" x="456.4" y="61.3828">svc:UserManagementService</text><polygon fill="#E3E3E3" points="452.8,578.45,452.8,578.6181,460.8842,578.1185,468.9684,578.6046,477.0526,578.7697,485.1368,577.8793,493.2211,578.3878,501.3053,578.1088,509.3895,578.1432,517.4737,578.3955,525.5579,577.8969,533.6421,578.8929,541.7263,577.9458,549.8105,578.2918,557.8947,578.7956,565.9789,578.3814,574.0632,578.5046,582.1474,578.4244,590.2316,578.5928,598.3158,578.6413,606.4,578.45,606.4598,578.5943,606.7513,578.7325,607.035,578.8517,607.2745,578.8642,607.5787,579.0328,607.8142,579.0358,607.9872,579.1074,607.7537,579.245,608.2157,579.6707,608.0926,579.8541,608.4144,580.2216,608.4,580.45,608.004,580.45,608.3452,587.8488,608.9933,595.2475,608.361,602.6463,608.4842,610.045,608.4,617.4438,608.4834,617.4783,608.3854,617.7691,608.1647,618.009,608.1193,618.3216,607.7903,618.5167,607.8142,618.858,607.8432,618.928,607.5873,619.1102,607.2939,619.2018,607.0282,619.3605,606.6335,619.2076,606.4,619.4438,606.4,618.922,598.3158,618.9466,590.2316,619.3966,582.1474,619.2865,574.0632,619.9889,565.9789,619.304,557.8947,619.1693,549.8105,619.6264,541.7263,618.9103,533.6421,619.0284,525.5579,619.9629,517.4737,619.7923,509.3895,620.0313,501.3053,619.1863,493.2211,619.6991,485.1368,619.9161,477.0526,619.0658,468.9684,619.3671,460.8842,619.5445,452.8,619.4438,452.8665,619.6043,452.5167,619.3256,452.2815,619.3234,451.895,618.9558,451.5995,618.8083,451.3858,618.858,451.5099,618.9094,451.092,618.502,451.2769,618.3442,451.0852,618.0305,450.8512,617.6993,450.8,617.4438,450.517,617.4438,451.167,610.045,450.5605,602.6463,451.2735,595.2475,450.3578,587.8488,450.8,580.45,450.9521,580.513,451.0365,580.2166,451.0947,579.9093,451.1631,579.6063,451.4476,579.3928,451.3858,579.0358,451.4484,579.187,451.6859,578.9603,451.9788,578.8675,452.221,578.6522,452.5903,578.7437,452.8,578.45" style="stroke:#181818;stroke-width:0.4000000000000001;"/><text fill="#000000" font-family="FG Virgil" font-size="11.2" font-style="italic" lengthAdjust="spacing" textLength="67.2" x="496" y="596.1359">&#171;application&#187;</text><text fill="#000000" font-family="FG Virgil" font-size="11.2" lengthAdjust="spacing" textLength="146.4" x="456.4" y="611.0328">svc:UserManagementService</text><polygon fill="#E3E3E3" points="618.4,28.8,618.4,28.9681,626.2769,28.4685,634.1538,28.9546,642.0308,29.1197,649.9077,28.2293,657.7846,28.7378,665.6615,28.4588,673.5385,28.4932,681.4154,28.7455,689.2923,28.2469,697.1692,29.2429,705.0462,28.2958,712.9231,28.6418,720.8,28.8,720.8441,28.9064,721.0741,28.896,721.3726,29.0511,721.6453,29.1436,721.9496,29.3126,722.2142,29.3858,722.2731,29.4102,722.4757,29.7284,722.6139,30.02,722.733,30.3036,722.7456,30.5431,722.8,30.8,723.1709,30.8,723.3618,38.1988,722.2231,45.5975,723.3428,52.9963,722.5628,60.395,722.8,67.7938,722.9315,67.8482,722.5609,68.0261,722.5488,68.3524,722.6312,68.718,722.3194,68.9201,722.2142,69.208,722.225,69.2339,721.9659,69.4085,721.691,69.5448,721.3653,69.5585,721.1122,69.7474,720.8,69.7938,720.8,69.3358,712.9231,70.0213,705.0462,70.2323,697.1692,70.1494,689.2923,70.2842,681.4154,69.4073,673.5385,69.272,665.6615,69.2966,657.7846,69.7466,649.9077,69.6365,642.0308,70.3389,634.1538,69.654,626.2769,69.5193,618.4,69.7938,618.4233,69.85,618.0491,69.5123,617.7813,69.4315,617.6177,69.6022,617.3131,69.4325,616.9858,69.208,617.1667,69.2829,616.7893,68.8923,616.8301,68.6749,616.7798,68.4197,616.4008,68.0284,616.4,67.7938,616.3233,67.7938,616.5008,60.395,616.9214,52.9963,616.3966,45.5975,616.7701,38.1988,616.4,30.8,616.2636,30.7435,616.3503,30.448,616.7584,30.2857,616.5748,29.8783,616.994,29.7206,616.9858,29.3858,617.0069,29.4367,617.2413,29.2026,617.5154,29.0643,617.8811,29.1473,618.0866,28.8434,618.4,28.8" style="stroke:#181818;stroke-width:0.4000000000000001;"/><text fill="#000000" font-family="FG Virgil" font-size="11.2" font-style="italic" lengthAdjust="spacing" textLength="49.6" x="644.8" y="46.4859">&#171;domain&#187;</text><text fill="#000000" font-family="FG Virgil" font-size="11.2" lengthAdjust="spacing" textLength="95.2" x="622" y="61.3828">user:CafeteriaUser</text><polygon fill="#E3E3E3" points="618.4,578.45,618.4,578.6181,626.2769,578.1185,634.1538,578.6046,642.0308,578.7697,649.9077,577.8793,657.7846,578.3878,665.6615,578.1088,673.5385,578.1432,681.4154,578.3955,689.2923,577.8969,697.1692,578.8929,705.0462,577.9458,712.9231,578.2918,720.8,578.45,720.8441,578.5564,721.0741,578.546,721.3726,578.7011,721.6453,578.7936,721.9496,578.9626,722.2142,579.0358,722.2731,579.0602,722.4757,579.3784,722.6139,579.67,722.733,579.9536,722.7456,580.1931,722.8,580.45,723.1709,580.45,723.3618,587.8488,722.2231,595.2475,723.3428,602.6463,722.5628,610.045,722.8,617.4438,722.9315,617.4982,722.5609,617.6761,722.5488,618.0024,722.6312,618.368,722.3194,618.5701,722.2142,618.858,722.225,618.8839,721.9659,619.0585,721.691,619.1948,721.3653,619.2085,721.1122,619.3974,720.8,619.4438,720.8,618.9858,712.9231,619.6713,705.0462,619.8823,697.1692,619.7994,689.2923,619.9342,681.4154,619.0573,673.5385,618.922,665.6615,618.9466,657.7846,619.3966,649.9077,619.2865,642.0308,619.9889,634.1538,619.304,626.2769,619.1693,618.4,619.4438,618.4233,619.5,618.0491,619.1623,617.7813,619.0815,617.6177,619.2522,617.3131,619.0825,616.9858,618.858,617.1667,618.9329,616.7893,618.5423,616.8301,618.3249,616.7798,618.0697,616.4008,617.6784,616.4,617.4438,616.3233,617.4438,616.5008,610.045,616.9214,602.6463,616.3966,595.2475,616.7701,587.8488,616.4,580.45,616.2636,580.3935,616.3503,580.098,616.7584,579.9357,616.5748,579.5283,616.994,579.3706,616.9858,579.0358,617.0069,579.0867,617.2413,578.8526,617.5154,578.7143,617.8811,578.7973,618.0866,578.4934,618.4,578.45" style="stroke:#181818;stroke-width:0.4000000000000001;"/><text fill="#000000" font-family="FG Virgil" font-size="11.2" font-style="italic" lengthAdjust="spacing" textLength="49.6" x="644.8" y="596.1359">&#171;domain&#187;</text><text fill="#000000" font-family="FG Virgil" font-size="11.2" lengthAdjust="spacing" textLength="95.2" x="622" y="611.0328">user:CafeteriaUser</text><text fill="#000000" font-family="FG Virgil" font-size="11.2" font-style="italic" lengthAdjust="spacing" textLength="63.2" x="761.2" y="52.8859">&#171;repository&#187;</text><text fill="#000000" font-family="FG Virgil" font-size="11.2" lengthAdjust="spacing" textLength="124" x="730.8" y="67.7828">CafeteriaUserRepository</text><path d="M780.8,12 L780.8,12 L780.8521,12.0536 L782.1373,10.4944 L783.7279,9.2493 L785.2191,7.9019 L786.3832,6.2181 L788,5 L787.9962,4.9726 L789.4191,4.6498 L790.8612,4.4649 L792.3167,4.376 L793.7262,3.9565 L795.2,4 L795.2,4 L795.2271,4.195 L796.6092,3.978 L798.0703,4.3304 L799.5411,4.7521 L800.9558,4.7698 L802.4,5 L802.4169,5.0174 L803.8321,6.3919 L805.3242,7.8455 L806.7793,9.261 L808.3052,10.7493 L809.6,12 L810.0772,12 L810.083,16.16 L809.7811,20.32 L809.9297,24.48 L810.0994,28.64 L809.6,32.8 L809.6,32.8 L809.4213,32.6161 L808.3282,34.373 L806.6465,35.5244 L805.4123,37.1361 L803.7173,38.2738 L802.4,39.8 L802.3966,39.7759 L800.9963,40.2612 L799.5176,40.1828 L798.0852,40.4371 L796.6566,40.7193 L795.2,40.8 L795.2,40.8 L795.2204,40.9466 L793.7598,40.5986 L792.334,40.5011 L790.852,39.9984 L789.4539,40.1002 L788,39.8 L788.1359,39.9398 L786.6702,38.5133 L785.2719,37.1563 L783.5603,35.4768 L782.0784,34.0337 L780.8,32.8 L780.3581,32.8 L780.7581,28.64 L780.6602,24.48 L781.2846,20.32 L780.6758,16.16 L780.8,12 " fill="#E3E3E3" style="stroke:#181818;stroke-width:1.2000000000000002;"/><path d="M780.8,12 L780.8,12 L780.8521,12.0536 L782.1373,13.2944 L783.7279,14.8493 L785.2191,16.3019 L786.3832,17.4181 L788,19 L787.9962,18.9726 L789.4191,19.0498 L790.8612,19.2649 L792.3167,19.576 L793.7262,19.5565 L795.2,20 L795.2,20 L795.2271,20.195 L796.6092,19.578 L798.0703,19.5304 L799.5411,19.5521 L800.9558,19.1698 L802.4,19 L802.4169,19.0174 L803.8321,17.5919 L805.3242,16.2455 L806.7793,14.861 L808.3052,13.5493 L809.6,12 " fill="none" style="stroke:#181818;stroke-width:1.2000000000000002;"/><text fill="#000000" font-family="FG Virgil" font-size="11.2" font-style="italic" lengthAdjust="spacing" textLength="63.2" x="761.2" y="590.5359">&#171;repository&#187;</text><text fill="#000000" font-family="FG Virgil" font-size="11.2" lengthAdjust="spacing" textLength="124" x="730.8" y="605.4328">CafeteriaUserRepository</text><path d="M780.8,616.2438 L780.8,616.2438 L780.8521,616.2973 L782.1373,614.7381 L783.7279,613.493 L785.2191,612.1456 L786.3832,610.4619 L788,609.2438 L787.9962,609.2164 L789.4191,608.8935 L790.8612,608.7087 L792.3167,608.6197 L793.7262,608.2003 L795.2,608.2438 L795.2,608.2438 L795.2271,608.4387 L796.6092,608.2218 L798.0703,608.5741 L799.5411,608.9959 L800.9558,609.0135 L802.4,609.2438 L802.4169,609.2611 L803.8321,610.6356 L805.3242,612.0893 L806.7793,613.5047 L808.3052,614.9931 L809.6,616.2438 L810.0772,616.2438 L810.083,620.4038 L809.7811,624.5638 L809.9297,628.7238 L810.0994,632.8838 L809.6,637.0438 L809.6,637.0438 L809.4213,636.8599 L808.3282,638.6167 L806.6465,639.7682 L805.4123,641.3798 L803.7173,642.5176 L802.4,644.0438 L802.3966,644.0196 L800.9963,644.5049 L799.5176,644.4266 L798.0852,644.6808 L796.6566,644.963 L795.2,645.0438 L795.2,645.0438 L795.2204,645.1903 L793.7598,644.8424 L792.334,644.7449 L790.852,644.2422 L789.4539,644.3439 L788,644.0438 L788.1359,644.1835 L786.6702,642.7571 L785.2719,641.4 L783.5603,639.7206 L782.0784,638.2775 L780.8,637.0438 L780.3581,637.0438 L780.7581,632.8838 L780.6602,628.7238 L781.2846,624.5638 L780.6758,620.4038 L780.8,616.2438 " fill="#E3E3E3" style="stroke:#181818;stroke-width:1.2000000000000002;"/><path d="M780.8,616.2438 L780.8,616.2438 L780.8521,616.2973 L782.1373,617.5381 L783.7279,619.093 L785.2191,620.5456 L786.3832,621.6619 L788,623.2438 L787.9962,623.2164 L789.4191,623.2935 L790.8612,623.5087 L792.3167,623.8197 L793.7262,623.8003 L795.2,624.2438 L795.2,624.2438 L795.2271,624.4387 L796.6092,623.8218 L798.0703,623.7741 L799.5411,623.7959 L800.9558,623.4135 L802.4,623.2438 L802.4169,623.2611 L803.8321,621.8356 L805.3242,620.4893 L806.7793,619.1047 L808.3052,617.7931 L809.6,616.2438 " fill="none" style="stroke:#181818;stroke-width:1.2000000000000002;"/><polygon fill="#FFFFFF" points="155.6,97.2266,155.6,97.2826,157.2,97.1161,158.8,97.2781,160.4,97.3331,162,97.0363,163.6,97.2266,163.5378,97.2266,163.2588,105.289,163.2932,113.3515,163.5455,121.414,163.0469,129.4765,164.0429,137.5389,163.0958,145.6014,163.4418,153.6639,163.9456,161.7263,163.5314,169.7888,163.6546,177.8513,163.5744,185.9138,163.7428,193.9762,163.7913,202.0387,164.0686,210.1012,164.1368,218.1637,164.1434,226.2261,163.8037,234.2886,163.9709,242.3511,164.1618,250.4136,163.0231,258.476,164.1428,266.5385,163.3628,274.601,164.027,282.6634,163.204,290.7259,163.5452,298.7884,164.1933,306.8509,163.561,314.9133,163.6842,322.9758,163.8709,331.0383,163.933,339.1008,163.5969,347.1632,163.8298,355.2257,163.1421,363.2882,163.8275,371.3506,164.0386,379.4131,163.9556,387.4756,164.0904,395.5381,163.2135,403.6005,163.0783,411.663,163.1029,419.7255,163.5529,427.788,163.4428,435.8504,164.1451,443.9129,163.4603,451.9754,163.3256,460.0379,163.7826,468.1003,163.0665,476.1628,163.1847,484.2253,164.1192,492.2877,163.9485,500.3502,164.1876,508.4127,163.3426,516.4752,163.8554,524.5376,164.0723,532.6001,163.2221,540.6626,163.5233,548.7251,163.7008,556.7875,163.6,564.85,163.6,565.0238,162,564.8489,160.4,564.9734,158.8,564.7023,157.2,564.6694,155.6,564.85,156.0029,564.85,155.0264,556.7875,156.0072,548.7251,155.7653,540.6626,155.3857,532.6001,155.317,524.5376,155.967,516.4752,155.3605,508.4127,156.0735,500.3502,155.1578,492.2877,156.0939,484.2253,155.9874,476.1628,155.796,468.1003,155.6378,460.0379,156.1813,451.9754,156.0909,443.9129,155.7354,435.8504,155.8146,427.788,155.4958,419.7255,156.1732,411.663,155.7239,403.6005,155.7381,395.5381,155.1133,387.4756,155.2758,379.4131,156.0246,371.3506,155.9438,363.2882,155.5657,355.2257,155.3423,347.1632,155.4249,339.1008,155.0511,331.0383,155.9318,322.9758,156.1917,314.9133,156.0211,306.8509,156.1559,298.7884,155.4906,290.7259,155.6698,282.6634,155.2899,274.601,155.8272,266.5385,155.7974,258.476,156.0419,250.4136,155.4163,242.3511,155.4925,234.2886,155.9548,226.2261,156.0539,218.1637,155.19,210.1012,155.4449,202.0387,155.7194,193.9762,155.1113,185.9138,155.8827,177.8513,155.8064,169.7888,155.5194,161.7263,155.7138,153.6639,156.1829,145.6014,155.3497,137.5389,155.852,129.4765,155.8285,121.414,155.6926,113.3515,155.7127,105.289,155.6,97.2266" style="stroke:#181818;stroke-width:0.8000000000000002;"/><polygon fill="#FFFFFF" points="281.2,147.2922,281.2,147.3482,282.8,147.1817,284.4,147.3437,286,147.3988,287.6,147.1019,289.2,147.2922,289.1378,147.2922,288.8588,155.4137,288.8932,163.5352,289.1455,171.6566,288.6469,179.7781,289.6429,187.8996,288.6958,196.0211,289.0418,204.1426,289.5456,212.2641,289.1314,220.3855,289.2546,228.507,289.1744,236.6285,289.3428,244.75,289.3913,252.8715,289.6686,260.993,289.7368,269.1145,289.7434,277.2359,289.4037,285.3574,289.5709,293.4789,289.7618,301.6004,289.2,309.7219,289.2,309.5296,287.6,309.9028,286,309.6428,284.4,309.8642,282.8,309.5899,281.2,309.7219,281.1452,309.7219,281.7933,301.6004,281.161,293.4789,281.2842,285.3574,281.4709,277.2359,281.533,269.1145,281.1969,260.993,281.4298,252.8715,280.7421,244.75,281.4275,236.6285,281.6386,228.507,281.5556,220.3855,281.6904,212.2641,280.8135,204.1426,280.6783,196.0211,280.7029,187.8996,281.1529,179.7781,281.0428,171.6566,281.7451,163.5352,281.0603,155.4137,281.2,147.2922" style="stroke:#181818;stroke-width:0.8000000000000002;"/><polygon fill="#FFFFFF" points="281.2,384.8203,281.2,384.8764,282.8,384.7098,284.4,384.8719,286,384.9269,287.6,384.6301,289.2,384.8203,289.1378,384.8203,288.8588,392.978,288.8932,401.1358,289.1455,409.2935,288.6469,417.4512,289.6429,425.609,288.6958,433.7667,289.0418,441.9244,289.5456,450.0822,289.1314,458.2399,289.2546,466.3976,289.1744,474.5553,289.3428,482.7131,289.3913,490.8708,289.6686,499.0285,289.7368,507.1863,289.7434,515.344,289.4037,523.5017,289.5709,531.6595,289.2,539.8172,289.2,540.0044,287.6,539.6249,286,539.9981,284.4,539.7381,282.8,539.9595,281.2,539.8172,280.804,539.8172,281.1452,531.6595,281.7933,523.5017,281.161,515.344,281.2842,507.1863,281.4709,499.0285,281.533,490.8708,281.1969,482.7131,281.4298,474.5553,280.7421,466.3976,281.4275,458.2399,281.6386,450.0822,281.5556,441.9244,281.6904,433.7667,280.8135,425.609,280.6783,417.4512,280.7029,409.2935,281.1529,401.1358,281.0428,392.978,281.2,384.8203" style="stroke:#181818;stroke-width:0.8000000000000002;"/><polygon fill="#FFFFFF" points="398.4,409.8531,398.4,409.9092,400,409.7426,401.6,409.9047,403.2,409.9597,404.8,409.6629,406.4,409.8531,406.3793,409.8531,406.2863,414.8597,406.2977,419.8663,406.3818,424.8728,406.2156,429.8794,406.4,434.8859,406.4,435.0336,404.8,434.7179,403.2,434.8332,401.6,435.0011,400,434.8631,398.4,434.8859,398.4182,434.8859,398.3915,429.8794,398.4476,424.8728,398.4638,419.8663,398.5562,414.8597,398.4,409.8531" style="stroke:#181818;stroke-width:0.8000000000000002;"/><polygon fill="#FFFFFF" points="525.6,459.9188,525.6,459.9748,527.2,459.8083,528.8,459.9703,530.4,460.0253,532,459.7285,533.6,459.9188,533.5378,459.9188,533.2588,467.7567,533.2932,475.5946,533.5455,483.4326,533.0469,491.2705,534.0429,499.1085,533.0958,506.9464,533.6,514.7844,533.6,514.7316,532,514.8996,530.4,514.7615,528.8,514.8026,527.2,514.7759,525.6,514.7844,525.7428,514.7844,525.7913,506.9464,526.0686,499.1085,526.1368,491.2705,526.1434,483.4326,525.8037,475.5946,525.9709,467.7567,525.6,459.9188" style="stroke:#181818;stroke-width:0.8000000000000002;"/><polygon fill="#FFFFFF" points="791.2,259.6563,791.2,259.7123,792.8,259.5458,794.4,259.7078,796,259.7628,797.6,259.466,799.2,259.6563,799.1793,259.6563,799.0863,264.6628,799.0977,269.6694,799.1818,274.6759,799.0156,279.6825,799.2,284.6891,799.2,284.8367,797.6,284.521,796,284.6363,794.4,284.8042,792.8,284.6662,791.2,284.6891,791.2182,284.6891,791.1915,279.6825,791.2476,274.6759,791.2638,269.6694,791.3562,264.6628,791.2,259.6563" style="stroke:#181818;stroke-width:0.8000000000000002;"/><polygon fill="#181818" points="146,94.0266,146.0208,94.0786,147.559,94.564,149.2191,95.3544,150.8396,96.0455,152.3293,96.4099,154,97.2266,153.9923,97.2073,152.3578,97.761,150.762,98.4116,149.1932,99.1297,147.5315,99.6154,146,100.4266,146.1044,100.531,146.5212,99.6677,147.2427,99.1093,148.0014,98.588,148.5438,97.8504,149.2,97.2266,149.2129,97.2394,148.554,96.5805,147.9537,95.9802,147.3251,95.3517,146.7504,94.777,146,94.0266" style="stroke:#181818;stroke-width:0.8000000000000002;"/><path d="M22,97.2266 L22,97.4508 L30.05,96.7846 L38.1,97.4327 L46.15,97.6529 L54.2,96.4656 L62.25,97.1437 L70.3,96.7716 L78.35,96.8175 L86.4,97.1539 L94.45,96.4891 L102.5,97.8171 L110.55,96.5543 L118.6,97.0156 L126.65,97.6873 L134.7,97.1351 L142.75,97.2994 L150.8,97.2266 " fill="none" style="stroke:#181818;stroke-width:0.8000000000000002;stroke-dasharray:2.0,2.0;"/><text fill="#000000" font-family="FG Virgil" font-size="10.4" lengthAdjust="spacing" textLength="72.8" x="27.6" y="93.0164">Deactivate User</text><polygon fill="#181818" points="275.6,119.0594,275.6208,119.1114,277.159,119.5968,278.8191,120.3872,280.4396,121.0783,281.9293,121.4427,283.6,122.2594,283.5923,122.2401,281.9578,122.7938,280.362,123.4444,278.7932,124.1625,277.1315,124.6482,275.6,125.4594,275.7044,125.5638,276.1212,124.7005,276.8427,124.1421,277.6014,123.6208,278.1438,122.8832,278.8,122.2594,278.8129,122.2722,278.154,121.6134,277.5537,121.013,276.9251,120.3845,276.3504,119.8098,275.6,119.0594" style="stroke:#181818;stroke-width:0.8000000000000002;"/><path d="M163.6,122.2594 L163.6,122.4836 L171.3867,121.8174 L179.1733,122.4655 L186.96,122.6857 L194.7467,121.4984 L202.5333,122.1765 L210.32,121.8044 L218.1067,121.8503 L225.8933,122.1867 L233.68,121.5219 L241.4667,122.8499 L249.2533,121.5871 L257.04,122.0484 L264.8267,122.7201 L272.6133,122.1679 L280.4,122.2594 " fill="none" style="stroke:#181818;stroke-width:0.8000000000000002;"/><text fill="#000000" font-family="FG Virgil" font-size="10.4" lengthAdjust="spacing" textLength="28.8" x="169.2" y="118.0492">create</text><polygon fill="#181818" points="271.6,144.0922,271.6208,144.1442,273.159,144.6296,274.8191,145.42,276.4396,146.1111,277.9293,146.4756,279.6,147.2922,279.5923,147.2729,277.9578,147.8266,276.362,148.4772,274.7932,149.1953,273.1315,149.681,271.6,150.4922,271.7044,150.5966,272.1212,149.7333,272.8427,149.1749,273.6014,148.6536,274.1438,147.916,274.8,147.2922,274.8129,147.3051,274.154,146.6462,273.5537,146.0459,272.9251,145.4173,272.3504,144.8426,271.6,144.0922" style="stroke:#181818;stroke-width:0.8000000000000002;"/><path d="M163.6,147.2922 L163.6,147.5164 L171.6571,146.8502 L179.7143,147.4984 L187.7714,147.7185 L195.8286,146.5312 L203.8857,147.2093 L211.9429,146.8373 L220,146.8831 L228.0571,147.2195 L236.1143,146.5547 L244.1714,147.8827 L252.2286,146.6199 L260.2857,147.0812 L268.3429,147.7529 L276.4,147.2922 " fill="none" style="stroke:#181818;stroke-width:0.8000000000000002;"/><text fill="#000000" font-family="FG Virgil" font-size="10.4" lengthAdjust="spacing" textLength="60" x="169.2" y="143.082">activeUsers()</text><path d="M292.8,157.6922 L292.9495,157.6922 L292.5054,164.7322 L292.9374,171.7722 L293.0842,178.8122 L292.2927,185.8522 L292.8,192.8922 L292.8,192.7264 L300.8348,191.9823 L308.8696,192.0741 L316.9043,192.7468 L324.9391,191.4173 L332.9739,194.0733 L341.0087,191.5476 L349.0435,192.4703 L357.0783,193.8137 L365.113,192.7092 L373.1478,193.0378 L381.1826,192.824 L389.2174,193.273 L397.2522,193.4023 L405.287,194.1417 L413.3217,194.3238 L421.3565,194.3413 L429.3913,193.4354 L437.4261,193.8812 L445.4609,194.3903 L453.4957,191.3537 L461.5304,194.3397 L469.5652,192.2596 L477.6,192.8922 L477.9796,192.8922 L477.248,187.4522 L477.5513,182.0122 L478.1274,176.5722 L477.5653,171.1322 L477.6,165.6922 L477.6529,165.7451 L476.1703,164.2625 L474.6093,162.7015 L472.798,160.8902 L471.3444,159.4366 L469.6,157.6922 L469.6,156.471 L461.5636,158.2989 L453.5273,158.8617 L445.4909,158.6405 L437.4545,159 L429.4182,156.6616 L421.3818,156.3009 L413.3455,156.3665 L405.3091,157.5666 L397.2727,157.2729 L389.2364,159.1459 L381.2,157.3195 L373.1636,156.9603 L365.1273,158.1792 L357.0909,156.2696 L349.0545,156.5847 L341.0182,159.0766 L332.9818,158.6216 L324.9455,159.2591 L316.9091,157.0057 L308.8727,158.3731 L300.8364,158.9517 L292.8,157.6922 " fill="#FAFAFA" style="stroke:#181818;stroke-width:0.4000000000000001;"/><path d="M469.6,157.6922 L469.2641,157.6922 L469.5318,159.2922 L469.6896,160.8922 L470.0635,162.4922 L469.597,164.0922 L469.6,165.6922 L469.6,166.0211 L471.2,165.2984 L472.8,165.2106 L474.4,166.0503 L476,165.1824 L477.6,165.6922 L477.8559,165.9481 L476.1039,164.1961 L474.2653,162.3575 L472.6221,160.7143 L471.4307,159.5229 L469.6,157.6922 " fill="#FAFAFA" style="stroke:#181818;stroke-width:0.4000000000000001;"/><text fill="#000000" font-family="FG Virgil" font-size="10.4" lengthAdjust="spacing" textLength="164.8" x="297.6" y="172.9148">hidden authorization user guarantee</text><text fill="#000000" font-family="FG Virgil" font-size="10.4" lengthAdjust="spacing" textLength="101.6" x="297.6" y="186.7477">(see specific diagram)</text><path d="M292.8,201.3578 L292.9495,201.3578 L292.5054,208.3978 L292.9374,215.4378 L293.0842,222.4778 L292.2927,229.5178 L292.8,236.5578 L292.8,236.392 L300.6933,235.648 L308.5867,235.7397 L316.48,236.4124 L324.3733,235.0829 L332.2667,237.7389 L340.16,235.2132 L348.0533,236.1359 L355.9467,237.4793 L363.84,236.3748 L371.7333,236.7034 L379.6267,236.4897 L387.52,236.9387 L395.4133,237.068 L403.3067,237.8073 L411.2,236.5578 L411.6772,236.5578 L411.683,231.1178 L411.3811,225.6778 L411.5297,220.2378 L411.6994,214.7978 L411.2,209.3578 L410.8374,208.9952 L409.9412,208.099 L407.8509,206.0087 L406.6684,204.8262 L404.5511,202.7089 L403.2,201.3578 L403.2,201.2117 L395.3143,202.9399 L387.4286,201.2538 L379.5429,201.5825 L371.6571,202.0802 L363.7714,202.2458 L355.8857,201.3495 L348,201.9705 L340.1143,200.1367 L332.2286,201.9645 L324.3429,202.5273 L316.4571,202.3061 L308.5714,202.6656 L300.6857,200.3272 L292.8,201.3578 " fill="#FAFAFA" style="stroke:#181818;stroke-width:0.4000000000000001;"/><path d="M403.2,201.3578 L402.7362,201.3578 L402.7581,202.9578 L403.1581,204.5578 L403.0602,206.1578 L403.6846,207.7578 L403.2,209.3578 L403.2,209.2336 L404.8,209.1139 L406.4,209.5201 L408,208.8836 L409.6,208.9887 L411.2,209.3578 L411.5263,209.6841 L409.8191,207.9769 L408.3693,206.5271 L406.2382,204.396 L404.9605,203.1183 L403.2,201.3578 " fill="#FAFAFA" style="stroke:#181818;stroke-width:0.4000000000000001;"/><text fill="#000000" font-family="FG Virgil" font-size="10.4" lengthAdjust="spacing" textLength="101.6" x="297.6" y="216.5805">Simplified persistence</text><text fill="#000000" font-family="FG Virgil" font-size="10.4" lengthAdjust="spacing" textLength="101.6" x="297.6" y="230.4133">(see specific diagram)</text><polygon fill="#181818" points="781.6,256.4563,781.6208,256.5083,783.159,256.9937,784.8191,257.7841,786.4396,258.4752,787.9293,258.8396,789.6,259.6563,789.5923,259.637,787.9578,260.1907,786.362,260.8413,784.7932,261.5594,783.1315,262.0451,781.6,262.8563,781.7044,262.9606,782.1212,262.0974,782.8427,261.539,783.6014,261.0177,784.1438,260.2801,784.8,259.6563,784.8129,259.6691,784.154,259.0102,783.5537,258.4099,782.9251,257.7813,782.3504,257.2067,781.6,256.4563" style="stroke:#181818;stroke-width:0.8000000000000002;"/><path d="M289.2,259.6563 L289.2,259.8804 L297.2194,259.2143 L305.2387,259.8624 L313.2581,260.0826 L321.2774,258.8953 L329.2968,259.5734 L337.3161,259.2013 L345.3355,259.2472 L353.3548,259.5835 L361.3742,258.9188 L369.3935,260.2468 L377.4129,258.984 L385.4323,259.4453 L393.4516,260.117 L401.471,259.5648 L409.4903,259.729 L417.5097,259.6222 L425.529,259.8467 L433.5484,259.9113 L441.5677,260.281 L449.5871,260.372 L457.6065,260.3808 L465.6258,259.9279 L473.6452,260.1507 L481.6645,260.4053 L489.6839,258.887 L497.7032,260.38 L505.7226,259.34 L513.7419,260.2256 L521.7613,259.1282 L529.7806,259.5832 L537.8,260.4473 L545.8194,259.6043 L553.8387,259.7686 L561.8581,260.0175 L569.8774,260.1002 L577.8968,259.6521 L585.9161,259.9626 L593.9355,259.0457 L601.9548,259.9596 L609.9742,260.241 L617.9935,260.1304 L626.0129,260.3101 L634.0323,259.141 L642.0516,258.9606 L650.071,258.9934 L658.0903,259.5934 L666.1097,259.4466 L674.129,260.3831 L682.1484,259.4699 L690.1677,259.2903 L698.1871,259.8997 L706.2065,258.945 L714.2258,259.1025 L722.2452,260.3485 L730.2645,260.121 L738.2839,260.4397 L746.3032,259.313 L754.3226,259.9967 L762.3419,260.286 L770.3613,259.1524 L778.3806,259.554 L786.4,259.6563 " fill="none" style="stroke:#181818;stroke-width:0.8000000000000002;"/><text fill="#000000" font-family="FG Virgil" font-size="10.4" lengthAdjust="spacing" textLength="62.4" x="294.8" y="255.4461">findAllActive()</text><polygon fill="#181818" points="298,281.4891,298.0208,281.5411,296.359,282.0265,294.8191,282.8169,293.2396,283.508,291.5293,283.8724,290,284.6891,289.9923,284.6698,291.5578,285.2235,293.162,285.8741,294.7932,286.5922,296.3315,287.0779,298,287.8891,298.1044,287.9935,297.2412,287.1302,296.6827,286.5718,296.1614,286.0505,295.4238,285.3129,294.8,284.6891,294.8129,284.7019,295.434,284.043,296.1137,283.4427,296.7651,282.8142,297.4704,282.2395,298,281.4891" style="stroke:#181818;stroke-width:0.8000000000000002;"/><path d="M293.2,284.6891 L293.2,284.9133 L301.1556,284.2471 L309.1111,284.8952 L317.0667,285.1154 L325.0222,283.9281 L332.9778,284.6062 L340.9333,284.2341 L348.8889,284.28 L356.8444,284.6164 L364.8,283.9516 L372.7556,285.2796 L380.7111,284.0168 L388.6667,284.4781 L396.6222,285.1498 L404.5778,284.5976 L412.5333,284.7619 L420.4889,284.655 L428.4444,284.8795 L436.4,284.9441 L444.3556,285.3138 L452.3111,285.4049 L460.2667,285.4136 L468.2222,284.9607 L476.1778,285.1836 L484.1333,285.4381 L492.0889,283.9198 L500.0444,285.4128 L508,284.3728 L515.9556,285.2585 L523.9111,284.161 L531.8667,284.616 L539.8222,285.4801 L547.7778,284.6371 L555.7333,284.8014 L563.6889,285.0503 L571.6444,285.133 L579.6,284.6849 L587.5556,284.9954 L595.5111,284.0785 L603.4667,284.9924 L611.4222,285.2738 L619.3778,285.1632 L627.3333,285.343 L635.2889,284.1738 L643.2444,283.9934 L651.2,284.0262 L659.1556,284.6263 L667.1111,284.4794 L675.0667,285.4159 L683.0222,284.5027 L690.9778,284.3231 L698.9333,284.9325 L706.8889,283.9778 L714.8444,284.1353 L722.8,285.3813 L730.7556,285.1538 L738.7111,285.4725 L746.6667,284.3458 L754.6222,285.0295 L762.5778,285.3188 L770.5333,284.1852 L778.4889,284.5868 L786.4444,284.8234 L794.4,284.6891 " fill="none" style="stroke:#181818;stroke-width:0.8000000000000002;stroke-dasharray:2.0,2.0;"/><text fill="#000000" font-family="FG Virgil" font-size="10.4" lengthAdjust="spacing" textLength="53.6" x="302.8" y="280.4789">activeUsers</text><polygon fill="#181818" points="172.4,306.5219,172.4208,306.5739,170.759,307.0593,169.2191,307.8497,167.6396,308.5408,165.9293,308.9052,164.4,309.7219,164.3923,309.7026,165.9578,310.2563,167.562,310.9069,169.1932,311.625,170.7315,312.1107,172.4,312.9219,172.5044,313.0263,171.6412,312.163,171.0827,311.6046,170.5614,311.0833,169.8238,310.3457,169.2,309.7219,169.2129,309.7347,169.834,309.0759,170.5137,308.4755,171.1651,307.847,171.8704,307.2723,172.4,306.5219" style="stroke:#181818;stroke-width:0.8000000000000002;"/><path d="M167.6,309.7219 L167.6,309.9461 L175.3867,309.2799 L183.1733,309.928 L190.96,310.1482 L198.7467,308.9609 L206.5333,309.639 L214.32,309.2669 L222.1067,309.3128 L229.8933,309.6492 L237.68,308.9844 L245.4667,310.3124 L253.2533,309.0496 L261.04,309.5109 L268.8267,310.1826 L276.6133,309.6304 L284.4,309.7219 " fill="none" style="stroke:#181818;stroke-width:0.8000000000000002;stroke-dasharray:2.0,2.0;"/><text fill="#000000" font-family="FG Virgil" font-size="10.4" lengthAdjust="spacing" textLength="53.6" x="177.2" y="305.5117">activeUsers</text><polygon fill="#181818" points="30.8,331.5547,30.8208,331.6067,29.159,332.0921,27.6191,332.8825,26.0396,333.5736,24.3293,333.9381,22.8,334.7547,22.7923,334.7354,24.3578,335.2891,25.962,335.9397,27.5932,336.6578,29.1315,337.1435,30.8,337.9547,30.9044,338.0591,30.0412,337.1958,29.4827,336.6374,28.9614,336.1161,28.2238,335.3785,27.6,334.7547,27.6129,334.7676,28.234,334.1087,28.9137,333.5084,29.5651,332.8798,30.2704,332.3051,30.8,331.5547" style="stroke:#181818;stroke-width:0.8000000000000002;"/><path d="M26,334.7547 L26,334.9789 L34.05,334.3127 L42.1,334.9609 L50.15,335.181 L58.2,333.9937 L66.25,334.6718 L74.3,334.2998 L82.35,334.3456 L90.4,334.682 L98.45,334.0172 L106.5,335.3452 L114.55,334.0824 L122.6,334.5437 L130.65,335.2154 L138.7,334.6632 L146.75,334.8275 L154.8,334.7547 " fill="none" style="stroke:#181818;stroke-width:0.8000000000000002;stroke-dasharray:2.0,2.0;"/><text fill="#000000" font-family="FG Virgil" font-size="10.4" lengthAdjust="spacing" textLength="87.2" x="35.6" y="330.5445">Show Active Users</text><polygon fill="#181818" points="146,356.5875,146.0208,356.6395,147.559,357.1249,149.2191,357.9154,150.8396,358.6065,152.3293,358.9709,154,359.7875,153.9923,359.7683,152.3578,360.3219,150.762,360.9725,149.1932,361.6906,147.5315,362.1763,146,362.9875,146.1044,363.0919,146.5212,362.2287,147.2427,361.6702,148.0014,361.1489,148.5438,360.4113,149.2,359.7875,149.2129,359.8004,148.554,359.1415,147.9537,358.5412,147.3251,357.9126,146.7504,357.3379,146,356.5875" style="stroke:#181818;stroke-width:0.8000000000000002;"/><path d="M22,359.7875 L22,360.0117 L30.05,359.3456 L38.1,359.9937 L46.15,360.2138 L54.2,359.0265 L62.25,359.7046 L70.3,359.3326 L78.35,359.3784 L86.4,359.7148 L94.45,359.05 L102.5,360.3781 L110.55,359.1152 L118.6,359.5765 L126.65,360.2482 L134.7,359.696 L142.75,359.8603 L150.8,359.7875 " fill="none" style="stroke:#181818;stroke-width:0.8000000000000002;stroke-dasharray:2.0,2.0;"/><text fill="#000000" font-family="FG Virgil" font-size="10.4" lengthAdjust="spacing" textLength="54.4" x="27.6" y="355.5773">Select User</text><polygon fill="#181818" points="271.6,381.6203,271.6208,381.6724,273.159,382.1577,274.8191,382.9482,276.4396,383.6393,277.9293,384.0037,279.6,384.8203,279.5923,384.8011,277.9578,385.3547,276.362,386.0054,274.7932,386.7234,273.1315,387.2091,271.6,388.0203,271.7044,388.1247,272.1212,387.2615,272.8427,386.703,273.6014,386.1818,274.1438,385.4441,274.8,384.8203,274.8129,384.8332,274.154,384.1743,273.5537,383.574,272.9251,382.9454,272.3504,382.3708,271.6,381.6203" style="stroke:#181818;stroke-width:0.8000000000000002;"/><path d="M163.6,384.8203 L163.6,385.0445 L171.6571,384.3784 L179.7143,385.0265 L187.7714,385.2466 L195.8286,384.0594 L203.8857,384.7374 L211.9429,384.3654 L220,384.4112 L228.0571,384.7476 L236.1143,384.0829 L244.1714,385.4109 L252.2286,384.148 L260.2857,384.6094 L268.3429,385.2811 L276.4,384.8203 " fill="none" style="stroke:#181818;stroke-width:0.8000000000000002;"/><text fill="#000000" font-family="FG Virgil" font-size="10.4" lengthAdjust="spacing" textLength="80.8" x="169.2" y="380.6102">disableUser(user)</text><polygon fill="#181818" points="388.8,406.6531,388.8208,406.7052,390.359,407.1905,392.0191,407.981,393.6396,408.6721,395.1293,409.0365,396.8,409.8531,396.7923,409.8339,395.1578,410.3875,393.562,411.0382,391.9932,411.7562,390.3315,412.2419,388.8,413.0531,388.9044,413.1575,389.3212,412.2943,390.0427,411.7358,390.8014,411.2146,391.3438,410.477,392,409.8531,392.0129,409.866,391.354,409.2071,390.7537,408.6068,390.1251,407.9782,389.5504,407.4036,388.8,406.6531" style="stroke:#181818;stroke-width:0.8000000000000002;"/><path d="M289.2,409.8531 L289.2,410.0773 L297.2308,409.4112 L305.2615,410.0593 L313.2923,410.2794 L321.3231,409.0922 L329.3538,409.7702 L337.3846,409.3982 L345.4154,409.4441 L353.4462,409.7804 L361.4769,409.1157 L369.5077,410.4437 L377.5385,409.1808 L385.5692,409.6422 L393.6,409.8531 " fill="none" style="stroke:#181818;stroke-width:0.8000000000000002;"/><text fill="#000000" font-family="FG Virgil" font-size="10.4" lengthAdjust="spacing" textLength="60" x="294.8" y="405.643">userService()</text><polygon fill="#181818" points="298,431.6859,298.0208,431.738,296.359,432.2234,294.8191,433.0138,293.2396,433.7049,291.5293,434.0693,290,434.8859,289.9923,434.8667,291.5578,435.4203,293.162,436.071,294.7932,436.7891,296.3315,437.2748,298,438.0859,298.1044,438.1903,297.2412,437.3271,296.6827,436.7686,296.1614,436.2474,295.4238,435.5098,294.8,434.8859,294.8129,434.8988,295.434,434.2399,296.1137,433.6396,296.7651,433.011,297.4704,432.4364,298,431.6859" style="stroke:#181818;stroke-width:0.8000000000000002;"/><path d="M293.2,434.8859 L293.2,435.1101 L300.9429,434.444 L308.6857,435.0921 L316.4286,435.3123 L324.1714,434.125 L331.9143,434.803 L339.6571,434.431 L347.4,434.4769 L355.1429,434.8132 L362.8857,434.1485 L370.6286,435.4765 L378.3714,434.2136 L386.1143,434.675 L393.8571,435.3467 L401.6,434.8859 " fill="none" style="stroke:#181818;stroke-width:0.8000000000000002;stroke-dasharray:2.0,2.0;"/><text fill="#000000" font-family="FG Virgil" font-size="10.4" lengthAdjust="spacing" textLength="15.2" x="302.8" y="430.6758">svc</text><polygon fill="#181818" points="516,456.7188,516.0208,456.7708,517.559,457.2562,519.2191,458.0466,520.8396,458.7377,522.3293,459.1021,524,459.9188,523.9923,459.8995,522.3578,460.4532,520.762,461.1038,519.1932,461.8219,517.5315,462.3076,516,463.1188,516.1044,463.2231,516.5212,462.3599,517.2427,461.8015,518.0014,461.2802,518.5438,460.5426,519.2,459.9188,519.2129,459.9316,518.554,459.2727,517.9537,458.6724,517.3251,458.0438,516.7504,457.4692,516,456.7188" style="stroke:#181818;stroke-width:0.8000000000000002;"/><path d="M289.2,459.9188 L289.2,460.1429 L297.1862,459.4768 L305.1724,460.1249 L313.1586,460.3451 L321.1448,459.1578 L329.131,459.8359 L337.1172,459.4638 L345.1034,459.5097 L353.0897,459.846 L361.0759,459.1813 L369.0621,460.5093 L377.0483,459.2465 L385.0345,459.7078 L393.0207,460.3795 L401.0069,459.8273 L408.9931,459.9915 L416.9793,459.8847 L424.9655,460.1092 L432.9517,460.1738 L440.9379,460.5435 L448.9241,460.6345 L456.9103,460.6433 L464.8966,460.1904 L472.8828,460.4132 L480.869,460.6678 L488.8552,459.1495 L496.8414,460.6425 L504.8276,459.6025 L512.8138,460.4881 L520.8,459.9188 " fill="none" style="stroke:#181818;stroke-width:0.8000000000000002;"/><text fill="#000000" font-family="FG Virgil" font-size="10.4" lengthAdjust="spacing" textLength="94.4" x="294.8" y="455.7086">deactivateUser(user)</text><path d="M537.6,470.3188 L537.7495,470.3188 L537.3054,474.6388 L537.7374,478.9588 L537.8842,483.2788 L537.0927,487.5988 L537.6,491.9188 L537.6,491.753 L545.4667,491.0089 L553.3333,491.1006 L561.2,491.7733 L569.0667,490.4438 L576.9333,493.0999 L584.8,490.5742 L592.6667,491.4968 L600.5333,492.8402 L608.4,491.7358 L616.2667,492.0643 L624.1333,491.8506 L632,492.2996 L639.8667,492.4289 L647.7333,493.1682 L655.6,493.3503 L663.4667,493.3678 L671.3333,492.462 L679.2,491.9188 L679.5297,491.9188 L679.6994,489.1988 L678.6872,486.4788 L679.6825,483.7588 L678.9892,481.0388 L679.2,478.3188 L679.4684,478.5872 L677.3511,476.4698 L675.9656,475.0843 L674.7729,473.8917 L672.7755,471.8942 L671.2,470.3188 L671.2,470.5434 L663.3412,471.0412 L655.4824,471.2067 L647.6235,470.3104 L639.7647,470.9315 L631.9059,469.0976 L624.0471,470.9254 L616.1882,471.4882 L608.3294,471.2671 L600.4706,471.6265 L592.6118,469.2882 L584.7529,468.9274 L576.8941,468.9931 L569.0353,470.1931 L561.1765,469.8995 L553.3176,471.7724 L545.4588,469.9461 L537.6,470.3188 " fill="#FAFAFA" style="stroke:#181818;stroke-width:0.4000000000000001;"/><path d="M671.2,470.3188 L670.9561,470.3188 L671.3623,471.9188 L670.7258,473.5188 L670.8308,475.1188 L671.6615,476.7188 L671.2,478.3188 L671.2,478.6286 L672.8,478.8411 L674.4,478.0899 L676,478.5457 L677.6,478.7386 L679.2,478.3188 L678.9625,478.0812 L677.5518,476.6705 L676.0633,475.1821 L674.7277,473.8465 L672.7979,471.9166 L671.2,470.3188 " fill="#FAFAFA" style="stroke:#181818;stroke-width:0.4000000000000001;"/><text fill="#000000" font-family="FG Virgil" font-size="10.4" lengthAdjust="spacing" textLength="124.8" x="542.4" y="485.5414">Framework implementation</text><polygon fill="#181818" points="298,511.5844,298.0208,511.6364,296.359,512.1218,294.8191,512.9122,293.2396,513.6033,291.5293,513.9677,290,514.7844,289.9923,514.7651,291.5578,515.3188,293.162,515.9694,294.7932,516.6875,296.3315,517.1732,298,517.9844,298.1044,518.0888,297.2412,517.2255,296.6827,516.6671,296.1614,516.1458,295.4238,515.4082,294.8,514.7844,294.8129,514.7972,295.434,514.1384,296.1137,513.538,296.7651,512.9095,297.4704,512.3348,298,511.5844" style="stroke:#181818;stroke-width:0.8000000000000002;"/><path d="M293.2,514.7844 L293.2,515.0086 L301.3241,514.3424 L309.4483,514.9905 L317.5724,515.2107 L325.6966,514.0234 L333.8207,514.7015 L341.9448,514.3294 L350.069,514.3753 L358.1931,514.7117 L366.3172,514.0469 L374.4414,515.3749 L382.5655,514.1121 L390.6897,514.5734 L398.8138,515.2451 L406.9379,514.6929 L415.0621,514.8572 L423.1862,514.7503 L431.3103,514.9748 L439.4345,515.0395 L447.5586,515.4091 L455.6828,515.5002 L463.8069,515.5089 L471.931,515.056 L480.0552,515.2789 L488.1793,515.5334 L496.3034,514.0151 L504.4276,515.5081 L512.5517,514.4681 L520.6759,515.3538 L528.8,514.7844 " fill="none" style="stroke:#181818;stroke-width:0.8000000000000002;stroke-dasharray:2.0,2.0;"/><text fill="#000000" font-family="FG Virgil" font-size="10.4" lengthAdjust="spacing" textLength="20" x="302.8" y="510.5742">user</text><polygon fill="#181818" points="172.4,536.6172,172.4208,536.6692,170.759,537.1546,169.2191,537.945,167.6396,538.6361,165.9293,539.0006,164.4,539.8172,164.3923,539.7979,165.9578,540.3516,167.562,541.0022,169.1932,541.7203,170.7315,542.206,172.4,543.0172,172.5044,543.1216,171.6412,542.2583,171.0827,541.6999,170.5614,541.1786,169.8238,540.441,169.2,539.8172,169.2129,539.8301,169.834,539.1712,170.5137,538.5709,171.1651,537.9423,171.8704,537.3676,172.4,536.6172" style="stroke:#181818;stroke-width:0.8000000000000002;"/><path d="M167.6,539.8172 L167.6,540.0414 L175.3867,539.3752 L183.1733,540.0234 L190.96,540.2435 L198.7467,539.0562 L206.5333,539.7343 L214.32,539.3623 L222.1067,539.4081 L229.8933,539.7445 L237.68,539.0797 L245.4667,540.4077 L253.2533,539.1449 L261.04,539.6062 L268.8267,540.2779 L276.6133,539.7257 L284.4,539.8172 " fill="none" style="stroke:#181818;stroke-width:0.8000000000000002;"/><text fill="#000000" font-family="FG Virgil" font-size="10.4" lengthAdjust="spacing" textLength="20" x="177.2" y="535.607">user</text><polygon fill="#181818" points="30.8,561.65,30.8208,561.702,29.159,562.1874,27.6191,562.9779,26.0396,563.669,24.3293,564.0334,22.8,564.85,22.7923,564.8308,24.3578,565.3844,25.962,566.035,27.5932,566.7531,29.1315,567.2388,30.8,568.05,30.9044,568.1544,30.0412,567.2912,29.4827,566.7327,28.9614,566.2114,28.2238,565.4738,27.6,564.85,27.6129,564.8629,28.234,564.204,28.9137,563.6037,29.5651,562.9751,30.2704,562.4004,30.8,561.65" style="stroke:#181818;stroke-width:0.8000000000000002;"/><path d="M26,564.85 L26,565.0742 L33.8118,564.4081 L41.6235,565.0562 L49.4353,565.2763 L57.2471,564.089 L65.0588,564.7671 L72.8706,564.3951 L80.6824,564.4409 L88.4941,564.7773 L96.3059,564.1125 L104.1176,565.4406 L111.9294,564.1777 L119.7412,564.639 L127.5529,565.3107 L135.3647,564.7585 L143.1765,564.9228 L150.9882,564.8159 L158.8,564.85 " fill="none" style="stroke:#181818;stroke-width:0.8000000000000002;stroke-dasharray:2.0,2.0;"/><text fill="#000000" font-family="FG Virgil" font-size="10.4" lengthAdjust="spacing" textLength="114.4" x="35.6" y="560.6398">Display User Info or error</text><!--SRC=[ZLJ1Rk8m4BtdAqOzjGT-88gGKAkkEEmUYhgdlKpjIJAgOqUs0T6ltx51mQ70BWV0ydjlnc-U7JxPZkXnW1wjtdkEaIn4lwKgJ5k3iqxrtWrqkJEY-iIEDl5W23ofMEnfQd5hugkpyHSAzVK7_6RViIameKVjzcmxQD44gYfKqNbOwO4jO81LMbQ2ZQnuH1lXXGJ2Eupq7iY_hnDAlfjcz1J8Hepix79vX_Ci3Nbd3Fd4BLPDW-DeM5sJM6rZ__L67OVe3uat_M-QRMJ3yN31U0WxLQTwFz6AHOFqjY6_OqKFYR_PgRi57xP2hP-nfKYUCGbbteiRKBnf6ft_24jZn0yC13Fm6uqkiBXtwdPQDOsV5iAkiiMmM2p5nhgm2f9ATLwjgmha8ruBzEnQ3SgJ08wxrn1GGrR9veV7fmauQP-nPnNhPCDprqTmxLojPwqbf2WZSPw_idkGx89kAwcoaGZ-sCSWFs4anIqhq8oT1ExfNE0VHJOyo6XQ9WsZj2sp9gle_sGB8N6YyBw6bgrU6RFAXXHUpFmuC-QwXTBYZiKpZgQxicMhEG8tf0gPSbffraBB6HBFUhU7uz7WI9-7QqD6deXZi6w4INF03vEBFwQH7XswcvHhZf_kPfrZSRfsjzq-eY-iFabyCrgkzMs3JqftUfDxNnUSYuD-QsvpKMsUsFI8rF0g2QIzyv-GCfjVcdmdvcqaxBV3fCgtJfDANyd9Ofb6EH5l1aDgdMBnmc4qUCXpXxLj7KWco7jvsGls-_el]--></g></svg>