<?xml version="1.0" encoding="us-ascii" standalone="no"?><svg xmlns="http://www.w3.org/2000/svg" xmlns:xlink="http://www.w3.org/1999/xlink" contentStyleType="text/css" height="517.5px" preserveAspectRatio="none" style="width:821px;height:517px;background:#FFFFFF;" version="1.1" viewBox="0 0 821 517" width="821.7px" zoomAndPan="magnify"><defs/><g><!--cluster AppLayer--><g id="cluster_AppLayer"><path d="M13.05,5.4123 L76.05,5.4123 A3.375,3.375 0 0 1 78.3,7.6623 L84.6,27.5713 L298.35,27.5713 A2.25,2.25 0 0 1 300.6,29.8213 L300.6,189.4623 A2.25,2.25 0 0 1 298.35,191.7123 L13.05,191.7123 A2.25,2.25 0 0 1 10.8,189.4623 L10.8,7.6623 A2.25,2.25 0 0 1 13.05,5.4123 " fill="none" style="stroke:#000000;stroke-width:1.35;"/><line style="stroke:#000000;stroke-width:1.35;" x1="10.8" x2="84.6" y1="27.5713" y2="27.5713"/><text fill="#000000" font-family="sans-serif" font-size="12.6" font-weight="bold" lengthAdjust="spacing" textLength="62.1" x="14.4" y="20.809">App Layer</text></g><!--cluster CoreLayer--><g id="cluster_CoreLayer"><path d="M455.85,227.7123 L525.15,227.7123 A3.375,3.375 0 0 1 527.4,229.9623 L533.7,249.8713 L608.85,249.8713 A2.25,2.25 0 0 1 611.1,252.1213 L611.1,419.8623 A2.25,2.25 0 0 1 608.85,422.1123 L455.85,422.1123 A2.25,2.25 0 0 1 453.6,419.8623 L453.6,229.9623 A2.25,2.25 0 0 1 455.85,227.7123 " fill="none" style="stroke:#000000;stroke-width:1.35;"/><line style="stroke:#000000;stroke-width:1.35;" x1="453.6" x2="533.7" y1="249.8713" y2="249.8713"/><text fill="#000000" font-family="sans-serif" font-size="12.6" font-weight="bold" lengthAdjust="spacing" textLength="68.4" x="457.2" y="243.109">Core Layer</text></g><!--cluster InfrastructureLayer--><g id="cluster_InfrastructureLayer"><path d="M7.65,227.7123 L133.65,227.7123 A3.375,3.375 0 0 1 135.9,229.9623 L142.2,249.8713 L384.75,249.8713 A2.25,2.25 0 0 1 387,252.1213 L387,419.8623 A2.25,2.25 0 0 1 384.75,422.1123 L7.65,422.1123 A2.25,2.25 0 0 1 5.4,419.8623 L5.4,229.9623 A2.25,2.25 0 0 1 7.65,227.7123 " fill="none" style="stroke:#000000;stroke-width:1.35;"/><line style="stroke:#000000;stroke-width:1.35;" x1="5.4" x2="142.2" y1="249.8713" y2="249.8713"/><text fill="#000000" font-family="sans-serif" font-size="12.6" font-weight="bold" lengthAdjust="spacing" textLength="125.1" x="9" y="243.109">Infrastructure Layer</text></g><!--cluster FrameworkLayer--><g id="cluster_FrameworkLayer"><path d="M649.35,324.9123 L758.25,324.9123 A3.375,3.375 0 0 1 760.5,327.1623 L766.8,347.0713 L813.15,347.0713 A2.25,2.25 0 0 1 815.4,349.3213 L815.4,508.9623 A2.25,2.25 0 0 1 813.15,511.2123 L649.35,511.2123 A2.25,2.25 0 0 1 647.1,508.9623 L647.1,327.1623 A2.25,2.25 0 0 1 649.35,324.9123 " fill="none" style="stroke:#000000;stroke-width:1.35;"/><line style="stroke:#000000;stroke-width:1.35;" x1="647.1" x2="766.8" y1="347.0713" y2="347.0713"/><text fill="#000000" font-family="sans-serif" font-size="12.6" font-weight="bold" lengthAdjust="spacing" textLength="108" x="650.7" y="340.309">Framework Layer</text></g><!--entity app.bootstrap--><g id="elem_app.bootstrap"><rect fill="#1E90FF" height="34.759" rx="2.25" ry="2.25" style="stroke:#000000;stroke-width:0.45;" width="97.2" x="164.7" y="45.9123"/><text fill="#FFFFFF" font-family="sans-serif" font-size="12.6" lengthAdjust="spacing" textLength="79.2" x="173.7" y="68.509">app.bootstrap</text></g><!--entity app.backoffice--><g id="elem_app.backoffice"><rect fill="#1E90FF" height="34.759" rx="2.25" ry="2.25" style="stroke:#000000;stroke-width:0.45;" width="100.8" x="32.4" y="45.9123"/><text fill="#FFFFFF" font-family="sans-serif" font-size="12.6" lengthAdjust="spacing" textLength="82.8" x="41.4" y="68.509">app.backoffice</text></g><!--entity app.common--><g id="elem_app.common"><rect fill="#1E90FF" height="34.759" rx="2.25" ry="2.25" style="stroke:#000000;stroke-width:0.45;" width="90.9" x="98.55" y="135.0123"/><text fill="#FFFFFF" font-family="sans-serif" font-size="12.6" lengthAdjust="spacing" textLength="72.9" x="107.55" y="157.609">app.common</text></g><!--entity bootstrappers--><g id="elem_bootstrappers"><rect fill="#1E90FF" height="34.759" rx="2.25" ry="2.25" style="stroke:#000000;stroke-width:0.45;" width="97.2" x="475.2" y="268.2123"/><text fill="#FFFFFF" font-family="sans-serif" font-size="12.6" lengthAdjust="spacing" textLength="79.2" x="484.2" y="290.809">bootstrappers</text></g><!--entity core--><g id="elem_core"><rect fill="#1E90FF" height="34.759" rx="2.25" ry="2.25" style="stroke:#000000;stroke-width:0.45;" width="43.2" x="475.2" y="365.4123"/><text fill="#FFFFFF" font-family="sans-serif" font-size="12.6" lengthAdjust="spacing" textLength="25.2" x="484.2" y="388.009">core</text></g><!--entity infrastructure.application--><g id="elem_infrastructure.application"><rect fill="#1E90FF" height="34.759" rx="2.25" ry="2.25" style="stroke:#000000;stroke-width:0.45;" width="158.4" x="189.9" y="268.2123"/><text fill="#FFFFFF" font-family="sans-serif" font-size="12.6" lengthAdjust="spacing" textLength="140.4" x="198.9" y="290.809">infrastructure.application</text></g><!--entity persistence.impl.inmemory--><g id="elem_persistence.impl.inmemory"><rect fill="#1E90FF" height="34.759" rx="2.25" ry="2.25" style="stroke:#000000;stroke-width:0.45;" width="168.3" x="27.45" y="365.4123"/><text fill="#FFFFFF" font-family="sans-serif" font-size="12.6" lengthAdjust="spacing" textLength="150.3" x="36.45" y="388.009">persistence.impl.inmemory</text></g><!--entity persistence.impl.jpa--><g id="elem_persistence.impl.jpa"><rect fill="#1E90FF" height="34.759" rx="2.25" ry="2.25" style="stroke:#000000;stroke-width:0.45;" width="130.5" x="227.25" y="365.4123"/><text fill="#FFFFFF" font-family="sans-serif" font-size="12.6" lengthAdjust="spacing" textLength="112.5" x="236.25" y="388.009">persistence.impl.jpa</text></g><!--entity eapli.framework--><g id="elem_eapli.framework"><rect fill="#1E90FF" height="34.759" rx="2.25" ry="2.25" style="stroke:#000000;stroke-width:0.45;" width="107.1" x="686.25" y="365.4123"/><text fill="#FFFFFF" font-family="sans-serif" font-size="12.6" lengthAdjust="spacing" textLength="89.1" x="695.25" y="388.009">eapli.framework</text></g><!--entity util--><g id="elem_util"><rect fill="#1E90FF" height="34.759" rx="2.25" ry="2.25" style="stroke:#000000;stroke-width:0.45;" width="34.2" x="722.7" y="454.5123"/><text fill="#FFFFFF" font-family="sans-serif" font-size="12.6" lengthAdjust="spacing" textLength="16.2" x="731.7" y="477.109">util</text></g><!--link AppLayer to core--><g id="link_AppLayer_core"><path d="M300.7148,74.7881 C301.0454,75.261 301.386,75.7484 301.7363,76.2498 C302.4368,77.2526 303.1761,78.3117 303.9521,79.4244 C310.16,88.3254 318.7153,100.6503 328.5439,114.9671 C348.201,143.6006 372.951,180.2013 394.2,213.3123 C429.48,268.2843 466.3314,330.2308 484.2774,360.7138 " fill="none" id="AppLayer-to-core" style="stroke:#181818;stroke-width:0.9;stroke-dasharray:7.0,7.0;"/><polygon fill="#181818" points="487.017,365.3673,486.0099,356.5607,484.734,361.4894,479.8053,360.2135,487.017,365.3673" style="stroke:#181818;stroke-width:0.9;"/></g><!--link AppLayer to infrastructure.application--><g id="link_AppLayer_infrastructure.application"><path d="M279.2632,192.6424 C279.186,193.3433 279.1088,194.0432 279.0318,194.742 C278.8778,196.1396 278.7242,197.5327 278.5712,198.9204 C277.9594,204.4712 277.3571,209.9355 276.771,215.2532 C274.4263,236.5239 272.9321,250.0806 271.5281,262.8089 " fill="none" id="AppLayer-to-infrastructure.application" style="stroke:#181818;stroke-width:0.9;stroke-dasharray:7.0,7.0;"/><polygon fill="#181818" points="270.936,268.1763,275.4024,260.5198,271.4294,263.7034,268.2458,259.7304,270.936,268.1763" style="stroke:#181818;stroke-width:0.9;"/></g><!--link InfrastructureLayer to core--><g id="link_InfrastructureLayer_core"><path d="M387.1659,292.6732 C387.2508,292.7424 387.3363,292.8122 387.4225,292.8824 C387.5949,293.0229 387.7698,293.1655 387.9471,293.3101 C388.3019,293.5993 388.6666,293.8966 389.0409,294.2018 C389.7895,294.8121 390.5766,295.4538 391.3996,296.1247 C397.9834,301.4921 406.8619,308.7303 416.6865,316.7403 C436.3358,332.7603 455.585,348.4541 472.0145,361.8551 " fill="none" id="InfrastructureLayer-to-core" style="stroke:#181818;stroke-width:0.9;stroke-dasharray:7.0,7.0;"/><polygon fill="#181818" points="476.199,365.2683,472.1977,357.3589,472.7119,362.424,467.6468,362.9382,476.199,365.2683" style="stroke:#181818;stroke-width:0.9;"/></g><!--link CoreLayer to FrameworkLayer--><g id="link_CoreLayer_FrameworkLayer"><path d="M611.1578,300.4023 C611.2272,300.5336 611.297,300.6656 611.3671,300.7984 C611.6477,301.3294 611.9342,301.8716 612.2263,302.4244 C616.8997,311.2694 623.0053,322.8254 629.1101,334.3803 C635.2149,345.9352 641.3189,357.4889 645.9889,366.3295 C646.2808,366.882 646.5671,367.4239 646.8474,367.9546 C646.9175,368.0873 644.465,363.4445 644.5343,363.5757 " fill="none" id="CoreLayer-to-FrameworkLayer" style="stroke:#181818;stroke-width:0.9;stroke-dasharray:7.0,7.0;"/><polygon fill="#181818" points="647.0565,368.3505,646.4564,359.5069,644.9547,364.3715,640.09,362.8698,647.0565,368.3505" style="stroke:#181818;stroke-width:0.9;"/></g><!--link app.bootstrap to bootstrappers--><g id="link_app.bootstrap_bootstrappers"><path d="M236.889,81.1203 C294.633,122.1243 438.1361,224.0279 495.8441,265.0049 " fill="none" id="app.bootstrap-to-bootstrappers" style="stroke:#181818;stroke-width:0.9;stroke-dasharray:7.0,7.0;"/><polygon fill="#181818" points="500.247,268.1313,495.7269,260.5064,496.5779,265.526,491.5584,266.377,500.247,268.1313" style="stroke:#181818;stroke-width:0.9;"/></g><!--link app.backoffice to app.common--><g id="link_app.backoffice_app.common"><path d="M94.599,81.1923 C105.435,96.6543 118.309,115.0215 129.136,130.4565 " fill="none" id="app.backoffice-to-app.common" style="stroke:#181818;stroke-width:0.9;stroke-dasharray:7.0,7.0;"/><polygon fill="#181818" points="132.237,134.8773,130.5327,126.1787,129.6528,131.1933,124.6383,130.3134,132.237,134.8773" style="stroke:#181818;stroke-width:0.9;"/></g><!--link app.bootstrap to app.common--><g id="link_app.bootstrap_app.common"><path d="M199.935,81.1923 C187.668,96.6543 172.9363,115.2136 160.6783,130.6486 " fill="none" id="app.bootstrap-to-app.common" style="stroke:#181818;stroke-width:0.9;stroke-dasharray:7.0,7.0;"/><polygon fill="#181818" points="157.32,134.8773,165.1766,130.7731,160.1186,131.3534,159.5383,126.2954,157.32,134.8773" style="stroke:#181818;stroke-width:0.9;"/></g><!--link bootstrappers to core--><g id="link_bootstrappers_core"><path d="M518.976,303.7173 C514.062,321.0783 507.9539,342.6482 503.0579,359.9552 " fill="none" id="bootstrappers-to-core" style="stroke:#181818;stroke-width:0.9;stroke-dasharray:7.0,7.0;"/><polygon fill="#181818" points="501.588,365.1513,507.2569,358.3371,502.8129,360.8212,500.3288,356.3772,501.588,365.1513" style="stroke:#181818;stroke-width:0.9;"/></g><!--link infrastructure.application to persistence.impl.inmemory--><g id="link_infrastructure.application_persistence.impl.inmemory"><path d="M225.81,303.3123 C220.905,305.5713 216.045,307.9923 211.5,310.5123 C182.403,326.6763 155.9079,346.3518 136.3329,361.8768 " fill="none" id="infrastructure.application-to-persistence.impl.inmemory" style="stroke:#181818;stroke-width:0.9;stroke-dasharray:7.0,7.0;"/><polygon fill="#181818" points="132.102,365.2323,140.6854,363.0196,135.6277,362.436,136.2113,357.3784,132.102,365.2323" style="stroke:#181818;stroke-width:0.9;"/></g><!--link infrastructure.application to persistence.impl.jpa--><g id="link_infrastructure.application_persistence.impl.jpa"><path d="M273.285,303.7173 C277.542,321.0783 282.8158,342.6 287.0638,359.907 " fill="none" id="infrastructure.application-to-persistence.impl.jpa" style="stroke:#181818;stroke-width:0.9;stroke-dasharray:7.0,7.0;"/><polygon fill="#181818" points="288.351,365.1513,289.9164,356.4267,287.2783,360.781,282.9239,358.1429,288.351,365.1513" style="stroke:#181818;stroke-width:0.9;"/></g><!--link eapli.framework to util--><g id="link_eapli.framework_util"><path d="M739.8,400.6923 C739.8,416.1543 739.8,433.5423 739.8,448.9773 " fill="none" id="eapli.framework-to-util" style="stroke:#181818;stroke-width:0.9;"/><polygon fill="#181818" points="739.8,454.3773,743.4,446.2773,739.8,449.8773,736.2,446.2773,739.8,454.3773" style="stroke:#181818;stroke-width:0.9;"/></g><!--SRC=[bL91Ri8m4Bpx5HOzOz5ZBqWKDH8IjxvWCHjmYRtMsX5Ag_wzJa93J4Eh-kQTsPtnZiF9E0yCLkeAGbZ5o6PNHzneSg_c7UL27CqU9LeV6sdHxf23465eOzGHtA52-I5aEi-WJmUcsktNL17BXyUNfqLHz1Zn7lbINtIdgnVaObyz7qr4yIc4JsFWW7AsybvkeK6UIGWotRhBHUmg3jwh7L4CaS5FOMaUbQNHE05gifPS9hicnf5kUvqM7aHzkvWSqwahcxfn9KDYrphMsVmSc5Oo6KSbnSfeY2Ovpucj4nCYEetAM5yfur9mnCrVl3SFcTqY1OndujF8wL2RDecGNAdoctI3rj5KhS8GerBBVakZIYhzyjIfJGrJhZ6rfTog4DaVwHXvUFa_wGYZt_6pUmHcWwv-xh-ZuzmFwh-DRN8tgvVp-R9V-1S0]--></g></svg>